<svg xmlns="http://www.w3.org/2000/svg" xmlns:xlink="http://www.w3.org/1999/xlink" xmlns:lucid="lucid" width="1200" height="460"><g transform="translate(-160 -80)" lucid:page-tab-id="0_0"><path d="M0 0h1760v1360H0z" fill="#fff"/><path d="M420 220h189.33v40H420z" fill="none"/><use xlink:href="#a" transform="matrix(1,0,0,1,420,220) translate(36.666666666666686 24)"/><path d="M280 300c0 27.6-22.4 50-50 50s-50-22.4-50-50 22.4-50 50-50 50 22.4 50 50z" stroke="#000" stroke-width="3" fill="#fff"/><use xlink:href="#b" transform="matrix(1,0,0,1,185,255) translate(9.832160493827162 36.43055555555556)"/><use xlink:href="#c" transform="matrix(1,0,0,1,185,255) translate(14.551296296296302 65.76388888888889)"/><path d="M420 266c0-3.3 2.7-6 6-6h168c3.3 0 6 2.7 6 6v68c0 3.3-2.7 6-6 6H426c-3.3 0-6-2.7-6-6z" stroke="#000" stroke-width="3" fill="#fff"/><use xlink:href="#d" transform="matrix(1,0,0,1,432,272) translate(15.8888888888889 21.333333333333332)"/><use xlink:href="#e" transform="matrix(1,0,0,1,432,272) translate(88.33333333333333 21.333333333333332)"/><use xlink:href="#f" transform="matrix(1,0,0,1,432,272) translate(23.22222222222223 53.33333333333333)"/><path d="M301 300c0 .55-.44 1-1 1-.55 0-1-.45-1-1s.45-1 1-1c.56 0 1 .45 1 1zm4 0c0 .55-.45 1-1 1s-1-.45-1-1 .45-1 1-1 1 .45 1 1zm4 0c0 .55-.45 1-1 1s-1-.45-1-1 .45-1 1-1 1 .45 1 1zm4 0c0 .55-.45 1-1 1s-1-.45-1-1 .45-1 1-1 1 .45 1 1zm4 0c0 .55-.45 1-1 1s-1-.45-1-1 .45-1 1-1 1 .45 1 1zm4 0c0 .55-.45 1-1 1s-1-.45-1-1 .45-1 1-1 1 .45 1 1zm4 0c0 .55-.45 1-1 1s-1-.45-1-1 .45-1 1-1 1 .45 1 1zm4 0c0 .55-.45 1-1 1s-1-.45-1-1 .45-1 1-1 1 .45 1 1zm4 0c0 .55-.45 1-1 1s-1-.45-1-1 .45-1 1-1 1 .45 1 1zm4 0c0 .55-.45 1-1 1s-1-.45-1-1 .45-1 1-1 1 .45 1 1zm4 0c0 .55-.45 1-1 1s-1-.45-1-1 .45-1 1-1 1 .45 1 1zm4 0c0 .55-.45 1-1 1s-1-.45-1-1 .45-1 1-1 1 .45 1 1zm4 0c0 .55-.45 1-1 1s-1-.45-1-1 .45-1 1-1 1 .45 1 1zm4 0c0 .55-.45 1-1 1s-1-.45-1-1 .45-1 1-1 1 .45 1 1zm4 0c0 .55-.45 1-1 1s-1-.45-1-1 .45-1 1-1 1 .45 1 1zm4 0c0 .55-.45 1-1 1s-1-.45-1-1 .45-1 1-1 1 .45 1 1zm4 0c0 .55-.45 1-1 1s-1-.45-1-1 .45-1 1-1 1 .45 1 1zm4 0c0 .55-.45 1-1 1s-1-.45-1-1 .45-1 1-1 1 .45 1 1zm4 0c0 .55-.45 1-1 1s-1-.45-1-1 .45-1 1-1 1 .45 1 1zm4 0c0 .55-.45 1-1 1s-1-.45-1-1 .45-1 1-1 1 .45 1 1zm4 0c0 .55-.45 1-1 1s-1-.45-1-1 .45-1 1-1 1 .45 1 1zm4 0c0 .55-.45 1-1 1s-1-.45-1-1 .45-1 1-1 1 .45 1 1zm4 0c0 .55-.45 1-1 1s-1-.45-1-1 .45-1 1-1 1 .45 1 1zm4 0c0 .55-.45 1-1 1s-1-.45-1-1 .45-1 1-1 1 .45 1 1zm4 0c0 .55-.45 1-1 1s-1-.45-1-1 .45-1 1-1 1 .45 1 1zm4 0c0 .55-.45 1-1 1s-1-.45-1-1 .45-1 1-1 1 .45 1 1z"/><path d="M284.74 300l14.26-4.64v9.28zM415.26 300L401 304.64v-9.28z" stroke="#000" stroke-width="2"/><use xlink:href="#g" transform="matrix(1,0,0,1,327.85231963996864,304) translate(0 14.222222222222223)"/><path d="M680 146c0-3.3 2.7-6 6-6h648c3.3 0 6 2.7 6 6v248c0 3.3-2.7 6-6 6H686c-3.3 0-6-2.7-6-6z" stroke="#000" stroke-opacity="0" stroke-width="3" fill="#5e5e5e" fill-opacity=".4"/><use xlink:href="#h" transform="matrix(1,0,0,1,692,152) translate(299.51851851851853 21.333333333333332)"/><path d="M740 206c0-3.3 2.7-6 6-6h248c3.3 0 6 2.7 6 6v148c0 3.3-2.7 6-6 6H746c-3.3 0-6-2.7-6-6z" stroke="#000" stroke-opacity="0" stroke-width="3" fill="#5e5e5e" fill-opacity=".4"/><use xlink:href="#i" transform="matrix(1,0,0,1,752,212) translate(72.8888888888889 21.333333333333332)"/><path d="M780 266c0-3.3 2.7-6 6-6h168c3.3 0 6 2.7 6 6v68c0 3.3-2.7 6-6 6H786c-3.3 0-6-2.7-6-6z" stroke="#000" stroke-width="3" fill="#fff"/><use xlink:href="#j" transform="matrix(1,0,0,1,792,272) translate(9.25925925925928 34.83333333333333)"/><path d="M1120 266c0-3.3 2.7-6 6-6h168c3.3 0 6 2.7 6 6v68c0 3.3-2.7 6-6 6h-168c-3.3 0-6-2.7-6-6z" stroke="#000" stroke-width="3" fill="#fff"/><use xlink:href="#k" transform="matrix(1,0,0,1,1132,272) translate(6.444444444444443 34.83333333333333)"/><path d="M602.5 300H760" stroke="#000" stroke-width="2" fill="none"/><path d="M602.53 301h-1.03v-2h1.03z"/><path d="M775.26 300L761 304.64v-9.28z" stroke="#000" stroke-width="2"/><use xlink:href="#l" transform="matrix(1,0,0,1,620.5364472753014,304) translate(0.005000000000002558 14.222222222222223)"/><use xlink:href="#m" transform="matrix(1,0,0,1,620.5364472753014,304) translate(42.0296913580247 14.222222222222223)"/><use xlink:href="#n" transform="matrix(1,0,0,1,620.5364472753014,304) translate(81.38771604938273 14.222222222222223)"/><path d="M962.5 300H1100" stroke="#000" stroke-width="2" fill="none"/><path d="M962.53 301h-1.03v-2h1.03z"/><path d="M1115.26 300l-14.26 4.64v-9.28z" stroke="#000" stroke-width="2"/><use xlink:href="#o" transform="matrix(1,0,0,1,972.5432098765441,304) translate(0.005000000000002558 14.222222222222223)"/><use xlink:href="#m" transform="matrix(1,0,0,1,972.5432098765441,304) translate(40.05438271604939 14.222222222222223)"/><use xlink:href="#p" transform="matrix(1,0,0,1,972.5432098765441,304) translate(79.41240740740741 14.222222222222223)"/><path d="M915.33 100h189.34v40H915.33z" fill="none"/><use xlink:href="#q" transform="matrix(1,0,0,1,915.3333333333335,100) translate(42.22222222222224 24)"/><path d="M780 446c0-3.3 2.7-6 6-6h168c3.3 0 6 2.7 6 6v68c0 3.3-2.7 6-6 6H786c-3.3 0-6-2.7-6-6z" stroke="#000" stroke-width="3" fill="#fff"/><g><use xlink:href="#r" transform="matrix(1,0,0,1,792,452) translate(31.407407407407412 34.83333333333333)"/><use xlink:href="#s" transform="matrix(1,0,0,1,792,452) translate(65.4074074074074 34.83333333333333)"/><use xlink:href="#t" transform="matrix(1,0,0,1,792,452) translate(80.22222222222223 34.83333333333333)"/></g><path d="M871 437.5h-2v-44.17h2zm0-65.5h-2v-12h2z"/><path d="M871 438.5h-2v-1.03h2zM874.64 359h-9.28l4.64-14.26z"/><path d="M876 360h-12l6-18.5zm-9.26-2h6.52L870 347.97z"/><g><use xlink:href="#o" transform="matrix(1,0,0,1,810.5432098765432,372.00000000000034) translate(0.005000000000002558 14.222222222222223)"/><use xlink:href="#m" transform="matrix(1,0,0,1,810.5432098765432,372.00000000000034) translate(40.05438271604939 14.222222222222223)"/><use xlink:href="#u" transform="matrix(1,0,0,1,810.5432098765432,372.00000000000034) translate(79.41240740740741 14.222222222222223)"/></g><defs><path d="M6 0l7-41h62l31-161-67 37 8-42 70-41h48L124-41h57l-8 41H6" id="v"/><path d="M57-63c1 32 46 34 62 12 12-16 20-37 25-64-30 46-125 30-118-42 6-58 37-94 96-94 58 0 82 45 75 106C187-59 151 20 56 0 29-6 13-26 8-55zm50-62c29 0 44-20 43-52 0-21-11-35-31-36-46-5-63 88-12 88" id="w"/><path d="M121-251c83 0 93 87 42 126-35 27-77 48-103 84h115l-7 41H-6C6-94 102-103 141-168c11-20 3-46-24-44-23 2-33 13-39 32l-47-10c12-38 39-61 90-61" id="x"/><path d="M8 0l10-54h51L59 0H8" id="y"/><path d="M189-94c-5 59-36 98-95 98-53 0-78-35-77-90 1-95 38-177 138-163 27 4 44 25 47 55l-47 7c-4-34-45-30-62-5-9 14-17 34-22 61 26-45 125-35 118 37zm-81-29c-49-6-61 88-10 88 46 5 60-88 10-88" id="z"/><path d="M35-185c2-48 38-66 89-66 44 1 76 17 76 59 0 37-25 55-56 62 24 7 40 24 40 54 0 56-41 80-97 80C37 4 5-16 5-63c0-41 29-59 63-67-20-10-33-26-33-55zm49 6c0 20 9 31 30 31 25 0 36-17 36-39 0-19-11-31-31-30-22 1-36 13-35 38zm50 101c0-21-11-34-35-34-29 0-42 18-43 46 0 23 13 35 35 35 28 0 43-19 43-47" id="A"/><path d="M137-85c4-43-51-49-69-23H20l36-140h148l-7 41H92l-15 59c40-35 118-7 110 57C197 2 56 37 11-33c-5-8-6-16-7-25l49-8c4 19 14 30 37 30 30-1 44-19 47-49" id="B"/><path d="M15-80c0-86 24-171 112-171 50 0 70 31 70 82C197-84 171 4 84 4 34 4 15-29 15-80zm134-92c6-42-44-55-60-23C72-160 55-94 68-46c4 6 9 12 19 11 56-6 53-82 62-137" id="C"/><g id="a"><use transform="matrix(0.05555555555555554,0,0,0.05555555555555554,0,0)" xlink:href="#v"/><use transform="matrix(0.05555555555555554,0,0,0.05555555555555554,11.111111111111107,0)" xlink:href="#w"/><use transform="matrix(0.05555555555555554,0,0,0.05555555555555554,22.222222222222214,0)" xlink:href="#x"/><use transform="matrix(0.05555555555555554,0,0,0.05555555555555554,33.33333333333332,0)" xlink:href="#y"/><use transform="matrix(0.05555555555555554,0,0,0.05555555555555554,38.88888888888887,0)" xlink:href="#v"/><use transform="matrix(0.05555555555555554,0,0,0.05555555555555554,49.99999999999998,0)" xlink:href="#z"/><use transform="matrix(0.05555555555555554,0,0,0.05555555555555554,61.11111111111108,0)" xlink:href="#A"/><use transform="matrix(0.05555555555555554,0,0,0.05555555555555554,72.2222222222222,0)" xlink:href="#y"/><use transform="matrix(0.05555555555555554,0,0,0.05555555555555554,77.77777777777776,0)" xlink:href="#v"/><use transform="matrix(0.05555555555555554,0,0,0.05555555555555554,88.88888888888886,0)" xlink:href="#y"/><use transform="matrix(0.05555555555555554,0,0,0.05555555555555554,94.44444444444441,0)" xlink:href="#B"/><use transform="matrix(0.05555555555555554,0,0,0.05555555555555554,105.55555555555551,0)" xlink:href="#C"/></g><path fill="#333" d="M24-248c120-7 223 5 221 122C244-46 201 0 124 0H24v-248zM76-40c74 7 117-18 117-86 0-67-45-88-117-82v168" id="D"/><path fill="#333" d="M240-174c0 40-23 61-54 70L253 0h-59l-57-94H76V0H24v-248c93 4 217-23 216 74zM76-134c48-2 112 12 112-38 0-48-66-32-112-35v73" id="E"/><path fill="#333" d="M175 0L67-191c6 58 2 128 3 191H24v-248h59L193-55c-6-58-2-129-3-193h46V0h-61" id="F"/><g id="b"><use transform="matrix(0.06790123456790123,0,0,0.06790123456790123,0,0)" xlink:href="#D"/><use transform="matrix(0.06790123456790123,0,0,0.06790123456790123,17.586419753086417,0)" xlink:href="#D"/><use transform="matrix(0.06790123456790123,0,0,0.06790123456790123,35.172839506172835,0)" xlink:href="#E"/><use transform="matrix(0.06790123456790123,0,0,0.06790123456790123,52.759259259259245,0)" xlink:href="#F"/></g><path fill="#333" d="M110-194c64 0 96 36 96 99 0 64-35 99-97 99-61 0-95-36-95-99 0-62 34-99 96-99zm-1 164c35 0 45-28 45-65 0-40-10-65-43-65-34 0-45 26-45 65 0 36 10 65 43 65" id="G"/><path fill="#333" d="M88-194c31-1 46 15 58 34l-1-101h50l1 261h-48c-2-10 0-23-3-31C134-8 116 4 84 4 32 4 16-41 15-95c0-56 19-97 73-99zm17 164c33 0 40-30 41-66 1-37-9-64-41-64s-38 30-39 65c0 43 13 65 39 65" id="H"/><path fill="#333" d="M185-48c-13 30-37 53-82 52C43 2 14-33 14-96s30-98 90-98c62 0 83 45 84 108H66c0 31 8 55 39 56 18 0 30-7 34-22zm-45-69c5-46-57-63-70-21-2 6-4 13-4 21h74" id="I"/><g id="c"><use transform="matrix(0.06790123456790123,0,0,0.06790123456790123,0,0)" xlink:href="#F"/><use transform="matrix(0.06790123456790123,0,0,0.06790123456790123,17.586419753086417,0)" xlink:href="#G"/><use transform="matrix(0.06790123456790123,0,0,0.06790123456790123,32.456790123456784,0)" xlink:href="#H"/><use transform="matrix(0.06790123456790123,0,0,0.06790123456790123,47.32716049382715,0)" xlink:href="#I"/></g><path fill="#333" d="M24 0v-248h52v208h133V0H24" id="J"/><path fill="#333" d="M135-150c-39-12-60 13-60 57V0H25l-1-190h47c2 13-1 29 3 40 6-28 27-53 61-41v41" id="K"/><path fill="#333" d="M25-224v-37h50v37H25zM25 0v-190h50V0H25" id="L"/><path fill="#333" d="M144 0l-44-69L55 0H2l70-98-66-92h53l41 62 40-62h54l-67 91 71 99h-54" id="M"/><g id="d"><use transform="matrix(0.07407407407407407,0,0,0.07407407407407407,0,0)" xlink:href="#J"/><use transform="matrix(0.07407407407407407,0,0,0.07407407407407407,16.22222222222222,0)" xlink:href="#G"/><use transform="matrix(0.07407407407407407,0,0,0.07407407407407407,32.44444444444444,0)" xlink:href="#K"/><use transform="matrix(0.07407407407407407,0,0,0.07407407407407407,42.81481481481481,0)" xlink:href="#L"/><use transform="matrix(0.07407407407407407,0,0,0.07407407407407407,50.222222222222214,0)" xlink:href="#M"/></g><path fill="#333" d="M140-251c80 0 125 45 125 126S219 4 139 4C58 4 15-44 15-125s44-126 125-126zm-1 214c52 0 73-35 73-88 0-50-21-86-72-86-52 0-73 35-73 86s22 88 72 88" id="N"/><path fill="#333" d="M135-194c87-1 58 113 63 194h-50c-7-57 23-157-34-157-59 0-34 97-39 157H25l-1-190h47c2 12-1 28 3 38 12-26 28-41 61-42" id="O"/><g id="e"><use transform="matrix(0.07407407407407407,0,0,0.07407407407407407,0,0)" xlink:href="#N"/><use transform="matrix(0.07407407407407407,0,0,0.07407407407407407,20.74074074074074,0)" xlink:href="#O"/><use transform="matrix(0.07407407407407407,0,0,0.07407407407407407,36.96296296296296,0)" xlink:href="#I"/></g><path fill="#333" d="M67-125c0 54 23 88 75 88 28 0 53-7 68-21v-34h-60v-39h108v91C232-14 192 4 140 4 58 4 20-42 15-125 8-236 126-280 215-234c19 10 29 26 37 47l-47 15c-11-23-29-39-63-39-53 1-75 33-75 86" id="P"/><path fill="#333" d="M133-34C117-15 103 5 69 4 32 3 11-16 11-54c-1-60 55-63 116-61 1-26-3-47-28-47-18 1-26 9-28 27l-52-2c7-38 36-58 82-57s74 22 75 68l1 82c-1 14 12 18 25 15v27c-30 8-71 5-69-32zm-48 3c29 0 43-24 42-57-32 0-66-3-65 30 0 17 8 27 23 27" id="Q"/><path fill="#333" d="M115-3C79 11 28 4 28-45v-112H4v-33h27l15-45h31v45h36v33H77v99c-1 23 16 31 38 25v30" id="R"/><path fill="#333" d="M231 0h-52l-39-155L100 0H48L-1-190h46L77-45c9-52 24-97 36-145h53l37 145 32-145h46" id="S"/><path fill="#333" d="M123 10C108 53 80 86 19 72V37c35 8 53-11 59-39L3-190h52l48 148c12-52 28-100 44-148h51" id="T"/><g id="f"><use transform="matrix(0.07407407407407407,0,0,0.07407407407407407,0,0)" xlink:href="#P"/><use transform="matrix(0.07407407407407407,0,0,0.07407407407407407,20.74074074074074,0)" xlink:href="#Q"/><use transform="matrix(0.07407407407407407,0,0,0.07407407407407407,35.55555555555556,0)" xlink:href="#R"/><use transform="matrix(0.07407407407407407,0,0,0.07407407407407407,44.370370370370374,0)" xlink:href="#I"/><use transform="matrix(0.07407407407407407,0,0,0.07407407407407407,59.18518518518519,0)" xlink:href="#S"/><use transform="matrix(0.07407407407407407,0,0,0.07407407407407407,79.92592592592592,0)" xlink:href="#Q"/><use transform="matrix(0.07407407407407407,0,0,0.07407407407407407,94.74074074074073,0)" xlink:href="#T"/></g><g id="g"><use transform="matrix(0.04938271604938272,0,0,0.04938271604938272,0,0)" xlink:href="#J"/><use transform="matrix(0.04938271604938272,0,0,0.04938271604938272,10.814814814814815,0)" xlink:href="#G"/><use transform="matrix(0.04938271604938272,0,0,0.04938271604938272,21.62962962962963,0)" xlink:href="#E"/><use transform="matrix(0.04938271604938272,0,0,0.04938271604938272,34.41975308641975,0)" xlink:href="#Q"/></g><path fill="#333" d="M24-248c93 1 206-16 204 79-1 75-69 88-152 82V0H24v-248zm52 121c47 0 100 7 100-41 0-47-54-39-100-39v80" id="U"/><path fill="#333" d="M67-125c0 53 21 87 73 88 37 1 54-22 65-47l45 17C233-25 199 4 140 4 58 4 20-42 15-125 8-235 124-281 211-232c18 10 29 29 36 50l-46 12c-8-25-30-41-62-41-52 0-71 34-72 86" id="V"/><g id="h"><use transform="matrix(0.07407407407407407,0,0,0.07407407407407407,0,0)" xlink:href="#U"/><use transform="matrix(0.07407407407407407,0,0,0.07407407407407407,17.77777777777778,0)" xlink:href="#V"/></g><path fill="#333" d="M190-63c-7 42-38 67-86 67-59 0-84-38-90-98-12-110 154-137 174-36l-49 2c-2-19-15-32-35-32-30 0-35 28-38 64-6 74 65 87 74 30" id="W"/><path fill="#333" d="M147 0L96-86 75-71V0H25v-261h50v150l67-79h53l-66 74L201 0h-54" id="X"/><g id="i"><use transform="matrix(0.07407407407407407,0,0,0.07407407407407407,0,0)" xlink:href="#D"/><use transform="matrix(0.07407407407407407,0,0,0.07407407407407407,19.185185185185183,0)" xlink:href="#G"/><use transform="matrix(0.07407407407407407,0,0,0.07407407407407407,35.407407407407405,0)" xlink:href="#W"/><use transform="matrix(0.07407407407407407,0,0,0.07407407407407407,50.222222222222214,0)" xlink:href="#X"/><use transform="matrix(0.07407407407407407,0,0,0.07407407407407407,65.03703703703702,0)" xlink:href="#I"/><use transform="matrix(0.07407407407407407,0,0,0.07407407407407407,79.85185185185183,0)" xlink:href="#K"/></g><path fill="#333" d="M114-157C55-157 80-60 75 0H25v-261h50l-1 109c12-26 28-41 61-42 86-1 58 113 63 194h-50c-7-57 23-157-34-157" id="Y"/><path fill="#333" d="M135-194c53 0 70 44 70 98 0 56-19 98-73 100-31 1-45-17-59-34 3 33 2 69 2 105H25l-1-265h48c2 10 0 23 3 31 11-24 29-35 60-35zM114-30c33 0 39-31 40-66 0-38-9-64-40-64-56 0-55 130 0 130" id="Z"/><path fill="#333" d="M137-138c1-29-70-34-71-4 15 46 118 7 119 86 1 83-164 76-172 9l43-7c4 19 20 25 44 25 33 8 57-30 24-41C81-84 22-81 20-136c-2-80 154-74 161-7" id="aa"/><g id="j"><use transform="matrix(0.07407407407407407,0,0,0.07407407407407407,0,0)" xlink:href="#V"/><use transform="matrix(0.07407407407407407,0,0,0.07407407407407407,19.185185185185183,0)" xlink:href="#Y"/><use transform="matrix(0.07407407407407407,0,0,0.07407407407407407,35.407407407407405,0)" xlink:href="#L"/><use transform="matrix(0.07407407407407407,0,0,0.07407407407407407,42.81481481481481,0)" xlink:href="#K"/><use transform="matrix(0.07407407407407407,0,0,0.07407407407407407,53.185185185185176,0)" xlink:href="#Z"/><use transform="matrix(0.07407407407407407,0,0,0.07407407407407407,69.40740740740739,0)" xlink:href="#aa"/><use transform="matrix(0.07407407407407407,0,0,0.07407407407407407,84.2222222222222,0)" xlink:href="#R"/><use transform="matrix(0.07407407407407407,0,0,0.07407407407407407,93.03703703703701,0)" xlink:href="#Q"/><use transform="matrix(0.07407407407407407,0,0,0.07407407407407407,107.85185185185182,0)" xlink:href="#W"/><use transform="matrix(0.07407407407407407,0,0,0.07407407407407407,122.66666666666663,0)" xlink:href="#X"/></g><path fill="#333" d="M230 0l2-204L168 0h-37L68-204 70 0H24v-248h70l56 185 57-185h69V0h-46" id="ab"/><path fill="#333" d="M76-208v77h127v40H76V0H24v-248h183v40H76" id="ac"/><path fill="#333" d="M195 0l-88-114-31 24V0H24v-248h52v113l112-113h60L142-143 257 0h-62" id="ad"/><path fill="#333" d="M14-72v-43h91v43H14" id="ae"/><path fill="#333" d="M182-130c37 4 62 22 62 59C244 23 116-4 24 0v-248c84 5 203-23 205 63 0 31-19 50-47 55zM76-148c40-3 101 13 101-30 0-44-60-28-101-31v61zm0 110c48-3 116 14 116-37 0-48-69-32-116-35v72" id="af"/><g id="k"><use transform="matrix(0.07407407407407407,0,0,0.07407407407407407,0,0)" xlink:href="#ab"/><use transform="matrix(0.07407407407407407,0,0,0.07407407407407407,22.148148148148145,0)" xlink:href="#ac"/><use transform="matrix(0.07407407407407407,0,0,0.07407407407407407,38.37037037037037,0)" xlink:href="#ad"/><use transform="matrix(0.07407407407407407,0,0,0.07407407407407407,57.55555555555555,0)" xlink:href="#ae"/><use transform="matrix(0.07407407407407407,0,0,0.07407407407407407,66.37037037037037,0)" xlink:href="#V"/><use transform="matrix(0.07407407407407407,0,0,0.07407407407407407,85.55555555555556,0)" xlink:href="#af"/><use transform="matrix(0.07407407407407407,0,0,0.07407407407407407,104.74074074074073,0)" xlink:href="#E"/><use transform="matrix(0.07407407407407407,0,0,0.07407407407407407,123.92592592592592,0)" xlink:href="#F"/></g><path fill="#333" d="M238-95c0 69-44 99-111 99C63 4 22-25 22-93v-155h51v151c-1 38 19 59 55 60 90 1 49-130 58-211h52v153" id="ag"/><g id="l"><use transform="matrix(0.04938271604938272,0,0,0.04938271604938272,0,0)" xlink:href="#ag"/><use transform="matrix(0.04938271604938272,0,0,0.04938271604938272,12.790123456790125,0)" xlink:href="#D"/><use transform="matrix(0.04938271604938272,0,0,0.04938271604938272,25.58024691358025,0)" xlink:href="#U"/></g><g id="m"><use transform="matrix(0.04938271604938272,0,0,0.04938271604938272,0,0)" xlink:href="#Z"/><use transform="matrix(0.04938271604938272,0,0,0.04938271604938272,10.814814814814815,0)" xlink:href="#G"/><use transform="matrix(0.04938271604938272,0,0,0.04938271604938272,21.62962962962963,0)" xlink:href="#K"/><use transform="matrix(0.04938271604938272,0,0,0.04938271604938272,28.543209876543205,0)" xlink:href="#R"/></g><path fill="#333" d="M23 0v-37h61v-169l-59 37v-38l62-41h46v211h57V0H23" id="ah"/><path fill="#333" d="M52 0c1-96 47-148 87-207H15v-41h169v40c-36 62-79 113-81 208H52" id="ai"/><path fill="#333" d="M101-251c68 0 84 54 84 127C185-50 166 4 99 4S15-52 14-124c-1-75 17-127 87-127zm-1 216c37-5 36-46 36-89s4-89-36-89c-39 0-36 45-36 89 0 43-3 85 36 89" id="aj"/><g id="n"><use transform="matrix(0.04938271604938272,0,0,0.04938271604938272,0,0)" xlink:href="#ah"/><use transform="matrix(0.04938271604938272,0,0,0.04938271604938272,9.876543209876544,0)" xlink:href="#ai"/><use transform="matrix(0.04938271604938272,0,0,0.04938271604938272,19.75308641975309,0)" xlink:href="#aj"/><use transform="matrix(0.04938271604938272,0,0,0.04938271604938272,29.629629629629633,0)" xlink:href="#aj"/></g><path fill="#333" d="M136-208V0H84v-208H4v-40h212v40h-80" id="ak"/><g id="o"><use transform="matrix(0.04938271604938272,0,0,0.04938271604938272,0,0)" xlink:href="#ak"/><use transform="matrix(0.04938271604938272,0,0,0.04938271604938272,10.814814814814815,0)" xlink:href="#V"/><use transform="matrix(0.04938271604938272,0,0,0.04938271604938272,23.60493827160494,0)" xlink:href="#U"/></g><path fill="#333" d="M138-131c27 9 52 24 51 61 0 53-36 74-89 74S11-19 11-69c0-35 22-54 51-61-78-25-46-121 38-121 51 0 83 19 83 66 0 30-18 49-45 54zm-38-16c24 0 32-13 32-36 1-23-11-34-32-34-22 0-33 12-32 34 0 22 9 36 32 36zm1 116c27 0 37-17 37-43 0-25-13-39-39-39-24 0-37 15-37 40 0 27 11 42 39 42" id="al"/><g id="p"><use transform="matrix(0.04938271604938272,0,0,0.04938271604938272,0,0)" xlink:href="#al"/><use transform="matrix(0.04938271604938272,0,0,0.04938271604938272,9.876543209876544,0)" xlink:href="#aj"/><use transform="matrix(0.04938271604938272,0,0,0.04938271604938272,19.75308641975309,0)" xlink:href="#al"/><use transform="matrix(0.04938271604938272,0,0,0.04938271604938272,29.629629629629633,0)" xlink:href="#aj"/></g><g id="q"><use transform="matrix(0.05555555555555554,0,0,0.05555555555555554,0,0)" xlink:href="#v"/><use transform="matrix(0.05555555555555554,0,0,0.05555555555555554,11.111111111111107,0)" xlink:href="#w"/><use transform="matrix(0.05555555555555554,0,0,0.05555555555555554,22.222222222222214,0)" xlink:href="#x"/><use transform="matrix(0.05555555555555554,0,0,0.05555555555555554,33.33333333333332,0)" xlink:href="#y"/><use transform="matrix(0.05555555555555554,0,0,0.05555555555555554,38.88888888888887,0)" xlink:href="#v"/><use transform="matrix(0.05555555555555554,0,0,0.05555555555555554,49.99999999999998,0)" xlink:href="#z"/><use transform="matrix(0.05555555555555554,0,0,0.05555555555555554,61.11111111111108,0)" xlink:href="#A"/><use transform="matrix(0.05555555555555554,0,0,0.05555555555555554,72.2222222222222,0)" xlink:href="#y"/><use transform="matrix(0.05555555555555554,0,0,0.05555555555555554,77.77777777777776,0)" xlink:href="#v"/><use transform="matrix(0.05555555555555554,0,0,0.05555555555555554,88.88888888888886,0)" xlink:href="#y"/><use transform="matrix(0.05555555555555554,0,0,0.05555555555555554,94.44444444444441,0)" xlink:href="#x"/></g><path fill="#333" d="M24 0v-248h52V0H24" id="am"/><g id="r"><use transform="matrix(0.07407407407407407,0,0,0.07407407407407407,0,0)" xlink:href="#ag"/><use transform="matrix(0.07407407407407407,0,0,0.07407407407407407,19.185185185185183,0)" xlink:href="#am"/></g><path fill="#333" d="M4 7l51-268h42L46 7H4" id="an"/><use transform="matrix(0.07407407407407407,0,0,0.07407407407407407,0,0)" xlink:href="#an" id="s"/><path fill="#333" d="M199 0l-22-63H83L61 0H9l90-248h61L250 0h-51zm-33-102l-36-108c-10 38-24 72-36 108h72" id="ao"/><g id="t"><use transform="matrix(0.07407407407407407,0,0,0.07407407407407407,0,0)" xlink:href="#ao"/><use transform="matrix(0.07407407407407407,0,0,0.07407407407407407,19.185185185185183,0)" xlink:href="#U"/><use transform="matrix(0.07407407407407407,0,0,0.07407407407407407,36.96296296296296,0)" xlink:href="#am"/></g><path fill="#333" d="M99-251c69 0 84 53 88 123 5 99-61 162-144 118-15-8-21-25-26-45l46-6c4 31 50 33 63 7 7-15 12-36 12-60-9 18-29 28-54 28-48 0-72-32-72-82 0-55 31-83 87-83zm-1 128c24 0 37-16 37-39 0-27-10-51-37-51-25 0-35 19-35 45 0 25 10 45 35 45" id="ap"/><g id="u"><use transform="matrix(0.04938271604938272,0,0,0.04938271604938272,0,0)" xlink:href="#al"/><use transform="matrix(0.04938271604938272,0,0,0.04938271604938272,9.876543209876544,0)" xlink:href="#aj"/><use transform="matrix(0.04938271604938272,0,0,0.04938271604938272,19.75308641975309,0)" xlink:href="#ap"/><use transform="matrix(0.04938271604938272,0,0,0.04938271604938272,29.629629629629633,0)" xlink:href="#aj"/></g></defs></g></svg>