%TF.GenerationSoftware,KiCad,Pcbnew,7.0.7*%
%TF.CreationDate,2024-01-24T13:08:38-05:00*%
%TF.ProjectId,LED_board,4c45445f-626f-4617-9264-2e6b69636164,rev?*%
%TF.SameCoordinates,Original*%
%TF.FileFunction,Copper,L2,Bot*%
%TF.FilePolarity,Positive*%
%FSLAX46Y46*%
G04 Gerber Fmt 4.6, Leading zero omitted, Abs format (unit mm)*
G04 Created by KiCad (PCBNEW 7.0.7) date 2024-01-24 13:08:38*
%MOMM*%
%LPD*%
G01*
G04 APERTURE LIST*
%TA.AperFunction,ComponentPad*%
%ADD10C,1.400000*%
%TD*%
%TA.AperFunction,ViaPad*%
%ADD11C,0.800000*%
%TD*%
G04 APERTURE END LIST*
D10*
%TO.P,J2,1,Pin_1*%
%TO.N,/GND*%
X106900000Y-93500000D03*
%TD*%
%TO.P,J1,1,Pin_1*%
%TO.N,/Vin*%
X92800000Y-106500000D03*
%TD*%
D11*
%TO.N,unconnected-(D1-EXP-Pad3)*%
X89750000Y-100000000D03*
X94500000Y-100000000D03*
X88750000Y-100000000D03*
X87750000Y-100000000D03*
%TO.N,unconnected-(D2-EXP-Pad3)*%
X100000000Y-89750000D03*
X100000000Y-88750000D03*
X100000000Y-87750000D03*
X100000000Y-94500000D03*
%TO.N,unconnected-(D3-EXP-Pad3)*%
X100000000Y-105500000D03*
X100000000Y-111250000D03*
X100000000Y-112250000D03*
X100000000Y-110250000D03*
%TO.N,unconnected-(D4-EXP-Pad3)*%
X111250000Y-100000000D03*
X105500000Y-100000000D03*
X112250000Y-100000000D03*
X110250000Y-100000000D03*
%TD*%
%TA.AperFunction,Conductor*%
%TO.N,unconnected-(D4-EXP-Pad3)*%
G36*
X109020742Y-91081771D02*
G01*
X109067514Y-91112766D01*
X109420343Y-91485966D01*
X109515244Y-91592161D01*
X109882903Y-92027558D01*
X109971706Y-92138911D01*
X110314388Y-92594257D01*
X110396784Y-92710383D01*
X110713403Y-93184238D01*
X110789159Y-93304801D01*
X111078712Y-93795665D01*
X111147586Y-93920282D01*
X111258348Y-94134683D01*
X111409164Y-94426616D01*
X111470942Y-94554901D01*
X111703720Y-95075106D01*
X111758206Y-95206648D01*
X111961446Y-95739080D01*
X112008475Y-95873481D01*
X112181534Y-96416447D01*
X112220964Y-96553312D01*
X112363305Y-97105123D01*
X112394993Y-97243955D01*
X112506173Y-97802895D01*
X112530025Y-97943280D01*
X112609691Y-98507583D01*
X112625634Y-98649078D01*
X112673534Y-99216958D01*
X112681518Y-99359132D01*
X112699451Y-99998260D01*
X112699451Y-100001738D01*
X112681518Y-100640867D01*
X112673534Y-100783041D01*
X112625634Y-101350921D01*
X112609691Y-101492416D01*
X112530025Y-102056719D01*
X112506173Y-102197104D01*
X112394993Y-102756044D01*
X112363305Y-102894876D01*
X112220964Y-103446687D01*
X112181534Y-103583552D01*
X112008475Y-104126518D01*
X111961446Y-104260919D01*
X111758206Y-104793351D01*
X111703720Y-104924893D01*
X111470942Y-105445098D01*
X111409164Y-105573383D01*
X111147591Y-106079708D01*
X111078712Y-106204334D01*
X110789159Y-106695198D01*
X110713403Y-106815761D01*
X110396784Y-107289616D01*
X110314388Y-107405742D01*
X109971706Y-107861088D01*
X109882903Y-107972441D01*
X109515244Y-108407838D01*
X109420343Y-108514033D01*
X109067513Y-108887233D01*
X109007153Y-108922424D01*
X108937349Y-108919396D01*
X108889726Y-108889726D01*
X105036818Y-105036818D01*
X105003333Y-104975495D01*
X105000499Y-104949137D01*
X105000499Y-95050862D01*
X105020184Y-94983823D01*
X105036813Y-94963186D01*
X105770040Y-94229959D01*
X105831359Y-94196477D01*
X105901050Y-94201461D01*
X105956671Y-94242916D01*
X106009020Y-94312238D01*
X106173437Y-94462123D01*
X106173439Y-94462125D01*
X106362595Y-94579245D01*
X106362596Y-94579245D01*
X106362599Y-94579247D01*
X106570060Y-94659618D01*
X106788757Y-94700500D01*
X106788759Y-94700500D01*
X107011241Y-94700500D01*
X107011243Y-94700500D01*
X107229940Y-94659618D01*
X107437401Y-94579247D01*
X107626562Y-94462124D01*
X107790981Y-94312236D01*
X107925058Y-94134689D01*
X108024229Y-93935528D01*
X108085115Y-93721536D01*
X108105643Y-93500000D01*
X108085115Y-93278464D01*
X108024229Y-93064472D01*
X108024224Y-93064461D01*
X107925061Y-92865316D01*
X107925056Y-92865308D01*
X107790979Y-92687761D01*
X107636512Y-92546947D01*
X107600230Y-92487236D01*
X107601991Y-92417389D01*
X107632365Y-92367634D01*
X108889729Y-91110270D01*
X108951050Y-91076787D01*
X109020742Y-91081771D01*
G37*
%TD.AperFunction*%
%TD*%
%TA.AperFunction,Conductor*%
%TO.N,unconnected-(D1-EXP-Pad3)*%
G36*
X90715228Y-91448071D02*
G01*
X90762859Y-91477744D01*
X94615319Y-95330204D01*
X94615320Y-95330204D01*
X94635456Y-95348291D01*
X94635455Y-95348291D01*
X94666639Y-95373420D01*
X94666642Y-95373422D01*
X94710526Y-95405067D01*
X94841403Y-95464838D01*
X94908442Y-95484523D01*
X94908446Y-95484524D01*
X94908448Y-95484524D01*
X94910436Y-95485108D01*
X94969213Y-95522883D01*
X94998238Y-95586439D01*
X94999500Y-95604085D01*
X94999500Y-104392540D01*
X94979815Y-104459579D01*
X94927011Y-104505334D01*
X94918833Y-104508722D01*
X94782254Y-104559662D01*
X94782251Y-104559663D01*
X94724206Y-104591356D01*
X94723656Y-104591615D01*
X94720923Y-104593149D01*
X94605740Y-104679375D01*
X94605728Y-104679385D01*
X93725722Y-105559391D01*
X93664399Y-105592876D01*
X93594707Y-105587892D01*
X93554503Y-105563347D01*
X93526563Y-105537876D01*
X93526560Y-105537874D01*
X93337404Y-105420754D01*
X93337398Y-105420752D01*
X93129940Y-105340382D01*
X92911243Y-105299500D01*
X92688757Y-105299500D01*
X92470060Y-105340382D01*
X92338864Y-105391207D01*
X92262601Y-105420752D01*
X92262595Y-105420754D01*
X92073439Y-105537874D01*
X92073437Y-105537876D01*
X91909020Y-105687761D01*
X91774943Y-105865308D01*
X91774938Y-105865316D01*
X91675775Y-106064461D01*
X91675769Y-106064476D01*
X91614885Y-106278462D01*
X91614884Y-106278464D01*
X91594357Y-106499999D01*
X91594357Y-106500000D01*
X91614884Y-106721535D01*
X91614885Y-106721537D01*
X91675769Y-106935523D01*
X91675775Y-106935538D01*
X91774938Y-107134683D01*
X91774943Y-107134691D01*
X91871468Y-107262510D01*
X91896160Y-107327871D01*
X91881595Y-107396206D01*
X91860195Y-107424918D01*
X90762860Y-108522254D01*
X90701537Y-108555739D01*
X90631845Y-108550755D01*
X90585083Y-108519771D01*
X90579657Y-108514033D01*
X90484755Y-108407838D01*
X90117096Y-107972441D01*
X90057773Y-107898054D01*
X90028301Y-107861098D01*
X89685609Y-107405739D01*
X89678845Y-107396206D01*
X89603225Y-107289631D01*
X89286596Y-106815761D01*
X89257350Y-106769218D01*
X89210845Y-106695206D01*
X88921285Y-106204330D01*
X88852417Y-106079725D01*
X88590832Y-105573378D01*
X88529057Y-105445098D01*
X88357806Y-105062391D01*
X88296277Y-104924887D01*
X88241787Y-104793335D01*
X88222175Y-104741957D01*
X88038545Y-104260898D01*
X87991524Y-104126516D01*
X87818464Y-103583549D01*
X87779035Y-103446687D01*
X87636694Y-102894876D01*
X87605011Y-102756065D01*
X87493824Y-102197090D01*
X87469975Y-102056725D01*
X87390307Y-101492409D01*
X87374365Y-101350925D01*
X87326463Y-100783014D01*
X87318481Y-100640890D01*
X87302498Y-100071210D01*
X87302498Y-99928789D01*
X87318481Y-99359132D01*
X87326462Y-99216993D01*
X87374368Y-98649047D01*
X87390305Y-98507602D01*
X87469976Y-97943263D01*
X87493821Y-97802922D01*
X87605008Y-97243947D01*
X87636686Y-97105152D01*
X87779036Y-96553305D01*
X87818465Y-96416447D01*
X87991532Y-95873455D01*
X88038539Y-95739118D01*
X88241797Y-95206639D01*
X88296266Y-95075136D01*
X88529057Y-94554901D01*
X88543772Y-94524343D01*
X88590823Y-94426639D01*
X88852429Y-93920252D01*
X88921268Y-93795697D01*
X89210854Y-93304778D01*
X89286590Y-93184247D01*
X89603231Y-92710359D01*
X89685593Y-92594281D01*
X90028305Y-92138896D01*
X90117096Y-92027558D01*
X90205841Y-91922462D01*
X90484764Y-91592151D01*
X90579629Y-91485994D01*
X90585067Y-91480243D01*
X90645423Y-91445048D01*
X90715228Y-91448071D01*
G37*
%TD.AperFunction*%
%TD*%
%TA.AperFunction,Conductor*%
%TO.N,unconnected-(D2-EXP-Pad3)*%
G36*
X100640890Y-87318481D02*
G01*
X100783014Y-87326463D01*
X101350925Y-87374365D01*
X101492386Y-87390303D01*
X102056725Y-87469975D01*
X102197090Y-87493824D01*
X102756065Y-87605011D01*
X102894849Y-87636687D01*
X103409401Y-87769417D01*
X103446687Y-87779035D01*
X103583549Y-87818464D01*
X104126516Y-87991524D01*
X104260898Y-88038545D01*
X104793347Y-88241792D01*
X104924887Y-88296277D01*
X105247488Y-88440631D01*
X105445098Y-88529057D01*
X105573378Y-88590832D01*
X106079725Y-88852417D01*
X106204330Y-88921285D01*
X106695206Y-89210845D01*
X106769218Y-89257350D01*
X106815761Y-89286596D01*
X106953029Y-89378315D01*
X107289631Y-89603225D01*
X107405739Y-89685609D01*
X107861098Y-90028301D01*
X107898054Y-90057773D01*
X107972441Y-90117096D01*
X108407838Y-90484755D01*
X108514037Y-90579660D01*
X108519767Y-90585078D01*
X108554954Y-90645441D01*
X108551922Y-90715244D01*
X108522254Y-90762859D01*
X107274931Y-92010182D01*
X107274930Y-92010184D01*
X107274926Y-92010188D01*
X107274923Y-92010192D01*
X107200908Y-92104242D01*
X107200907Y-92104244D01*
X107200899Y-92104255D01*
X107170532Y-92153998D01*
X107136744Y-92227781D01*
X107090934Y-92280537D01*
X107023874Y-92300151D01*
X107012567Y-92299622D01*
X107011250Y-92299500D01*
X107011243Y-92299500D01*
X106788757Y-92299500D01*
X106570060Y-92340382D01*
X106438864Y-92391207D01*
X106362601Y-92420752D01*
X106362595Y-92420754D01*
X106173439Y-92537874D01*
X106173437Y-92537876D01*
X106009020Y-92687761D01*
X105874943Y-92865308D01*
X105874938Y-92865316D01*
X105775775Y-93064461D01*
X105775769Y-93064476D01*
X105714885Y-93278462D01*
X105714884Y-93278464D01*
X105694357Y-93499999D01*
X105694357Y-93500001D01*
X105704730Y-93611948D01*
X105691315Y-93680518D01*
X105642958Y-93730950D01*
X105624595Y-93739570D01*
X105589101Y-93752808D01*
X105589096Y-93752811D01*
X105527791Y-93786286D01*
X105527781Y-93786290D01*
X105412599Y-93872515D01*
X105412587Y-93872526D01*
X104943153Y-94341961D01*
X104669794Y-94615320D01*
X104651696Y-94635469D01*
X104651696Y-94635470D01*
X104626569Y-94666651D01*
X104626570Y-94666650D01*
X104594930Y-94710528D01*
X104535160Y-94841402D01*
X104514889Y-94910437D01*
X104477114Y-94969214D01*
X104413558Y-94998238D01*
X104395913Y-94999500D01*
X95050862Y-94999500D01*
X94983823Y-94979815D01*
X94963181Y-94963181D01*
X91110272Y-91110272D01*
X91076787Y-91048949D01*
X91081771Y-90979257D01*
X91112763Y-90932488D01*
X91485977Y-90579646D01*
X91592151Y-90484764D01*
X92027558Y-90117096D01*
X92052828Y-90096943D01*
X92138896Y-90028305D01*
X92594281Y-89685593D01*
X92710359Y-89603231D01*
X93184243Y-89286592D01*
X93304778Y-89210854D01*
X93795697Y-88921268D01*
X93920252Y-88852429D01*
X94426639Y-88590823D01*
X94554901Y-88529057D01*
X94592852Y-88512074D01*
X95075136Y-88296266D01*
X95206639Y-88241797D01*
X95739118Y-88038539D01*
X95873455Y-87991532D01*
X96416484Y-87818453D01*
X96553296Y-87779039D01*
X97105152Y-87636686D01*
X97243947Y-87605008D01*
X97802922Y-87493821D01*
X97943263Y-87469976D01*
X98507602Y-87390305D01*
X98649047Y-87374368D01*
X99216993Y-87326462D01*
X99359109Y-87318481D01*
X99928790Y-87302498D01*
X100071210Y-87302498D01*
X100640890Y-87318481D01*
G37*
%TD.AperFunction*%
%TD*%
%TA.AperFunction,Conductor*%
%TO.N,unconnected-(D3-EXP-Pad3)*%
G36*
X104459578Y-105020185D02*
G01*
X104505333Y-105072989D01*
X104508721Y-105081166D01*
X104509384Y-105082945D01*
X104509385Y-105082947D01*
X104559667Y-105217756D01*
X104593152Y-105279079D01*
X104679376Y-105394260D01*
X104679380Y-105394264D01*
X104679385Y-105394270D01*
X108522255Y-109237139D01*
X108555740Y-109298462D01*
X108550756Y-109368154D01*
X108519761Y-109414926D01*
X108514028Y-109420347D01*
X108407838Y-109515244D01*
X107972441Y-109882903D01*
X107861088Y-109971706D01*
X107405742Y-110314388D01*
X107289616Y-110396784D01*
X106815761Y-110713403D01*
X106695198Y-110789159D01*
X106204334Y-111078712D01*
X106079708Y-111147591D01*
X105573383Y-111409164D01*
X105445098Y-111470942D01*
X104924893Y-111703720D01*
X104793351Y-111758206D01*
X104260919Y-111961446D01*
X104126518Y-112008475D01*
X103583552Y-112181534D01*
X103446687Y-112220964D01*
X102894876Y-112363305D01*
X102756044Y-112394993D01*
X102197104Y-112506173D01*
X102056719Y-112530025D01*
X101492416Y-112609691D01*
X101350921Y-112625634D01*
X100783041Y-112673534D01*
X100640867Y-112681518D01*
X100071210Y-112697502D01*
X99928790Y-112697502D01*
X99359132Y-112681518D01*
X99216958Y-112673534D01*
X98649078Y-112625634D01*
X98507583Y-112609691D01*
X97943280Y-112530025D01*
X97802895Y-112506173D01*
X97243955Y-112394993D01*
X97105123Y-112363305D01*
X96553312Y-112220964D01*
X96416447Y-112181534D01*
X95873481Y-112008475D01*
X95739080Y-111961446D01*
X95206648Y-111758206D01*
X95173542Y-111744493D01*
X95075098Y-111703716D01*
X94554901Y-111470942D01*
X94426616Y-111409164D01*
X93920300Y-111147595D01*
X93857978Y-111113151D01*
X93795665Y-111078712D01*
X93304809Y-110789163D01*
X93270566Y-110767647D01*
X93184238Y-110713403D01*
X92710383Y-110396784D01*
X92594257Y-110314388D01*
X92138911Y-109971706D01*
X92027558Y-109882903D01*
X91592161Y-109515244D01*
X91549724Y-109477320D01*
X91485977Y-109420353D01*
X91112765Y-109067513D01*
X91077574Y-109007154D01*
X91080602Y-108937350D01*
X91110270Y-108889729D01*
X92319461Y-107680538D01*
X92380780Y-107647056D01*
X92450472Y-107652040D01*
X92451932Y-107652596D01*
X92470052Y-107659615D01*
X92470060Y-107659618D01*
X92688757Y-107700500D01*
X92688759Y-107700500D01*
X92911241Y-107700500D01*
X92911243Y-107700500D01*
X93129940Y-107659618D01*
X93337401Y-107579247D01*
X93526562Y-107462124D01*
X93690981Y-107312236D01*
X93825058Y-107134689D01*
X93924229Y-106935528D01*
X93985115Y-106721536D01*
X94005643Y-106500000D01*
X93985115Y-106278464D01*
X93946673Y-106143354D01*
X93947259Y-106073488D01*
X93978255Y-106021744D01*
X94963181Y-105036818D01*
X95024504Y-105003334D01*
X95050862Y-105000500D01*
X104392539Y-105000500D01*
X104459578Y-105020185D01*
G37*
%TD.AperFunction*%
%TD*%
M02*
