%TF.GenerationSoftware,KiCad,Pcbnew,7.0.7*%
%TF.CreationDate,2024-01-18T13:53:05-05:00*%
%TF.ProjectId,DDRN_Hardware,4444524e-5f48-4617-9264-776172652e6b,rev?*%
%TF.SameCoordinates,Original*%
%TF.FileFunction,Legend,Top*%
%TF.FilePolarity,Positive*%
%FSLAX46Y46*%
G04 Gerber Fmt 4.6, Leading zero omitted, Abs format (unit mm)*
G04 Created by KiCad (PCBNEW 7.0.7) date 2024-01-18 13:53:05*
%MOMM*%
%LPD*%
G01*
G04 APERTURE LIST*
%ADD10C,0.150000*%
%ADD11C,0.100000*%
%ADD12C,0.120000*%
G04 APERTURE END LIST*
D10*
X38161905Y-88904819D02*
X38161905Y-87904819D01*
X38161905Y-87904819D02*
X38400000Y-87904819D01*
X38400000Y-87904819D02*
X38542857Y-87952438D01*
X38542857Y-87952438D02*
X38638095Y-88047676D01*
X38638095Y-88047676D02*
X38685714Y-88142914D01*
X38685714Y-88142914D02*
X38733333Y-88333390D01*
X38733333Y-88333390D02*
X38733333Y-88476247D01*
X38733333Y-88476247D02*
X38685714Y-88666723D01*
X38685714Y-88666723D02*
X38638095Y-88761961D01*
X38638095Y-88761961D02*
X38542857Y-88857200D01*
X38542857Y-88857200D02*
X38400000Y-88904819D01*
X38400000Y-88904819D02*
X38161905Y-88904819D01*
X39685714Y-88904819D02*
X39114286Y-88904819D01*
X39400000Y-88904819D02*
X39400000Y-87904819D01*
X39400000Y-87904819D02*
X39304762Y-88047676D01*
X39304762Y-88047676D02*
X39209524Y-88142914D01*
X39209524Y-88142914D02*
X39114286Y-88190533D01*
D11*
X31138095Y-87907419D02*
X31138095Y-88716942D01*
X31138095Y-88716942D02*
X31185714Y-88812180D01*
X31185714Y-88812180D02*
X31233333Y-88859800D01*
X31233333Y-88859800D02*
X31328571Y-88907419D01*
X31328571Y-88907419D02*
X31519047Y-88907419D01*
X31519047Y-88907419D02*
X31614285Y-88859800D01*
X31614285Y-88859800D02*
X31661904Y-88812180D01*
X31661904Y-88812180D02*
X31709523Y-88716942D01*
X31709523Y-88716942D02*
X31709523Y-87907419D01*
X32138095Y-88002657D02*
X32185714Y-87955038D01*
X32185714Y-87955038D02*
X32280952Y-87907419D01*
X32280952Y-87907419D02*
X32519047Y-87907419D01*
X32519047Y-87907419D02*
X32614285Y-87955038D01*
X32614285Y-87955038D02*
X32661904Y-88002657D01*
X32661904Y-88002657D02*
X32709523Y-88097895D01*
X32709523Y-88097895D02*
X32709523Y-88193133D01*
X32709523Y-88193133D02*
X32661904Y-88335990D01*
X32661904Y-88335990D02*
X32090476Y-88907419D01*
X32090476Y-88907419D02*
X32709523Y-88907419D01*
D10*
X37158333Y-99409580D02*
X37110714Y-99457200D01*
X37110714Y-99457200D02*
X36967857Y-99504819D01*
X36967857Y-99504819D02*
X36872619Y-99504819D01*
X36872619Y-99504819D02*
X36729762Y-99457200D01*
X36729762Y-99457200D02*
X36634524Y-99361961D01*
X36634524Y-99361961D02*
X36586905Y-99266723D01*
X36586905Y-99266723D02*
X36539286Y-99076247D01*
X36539286Y-99076247D02*
X36539286Y-98933390D01*
X36539286Y-98933390D02*
X36586905Y-98742914D01*
X36586905Y-98742914D02*
X36634524Y-98647676D01*
X36634524Y-98647676D02*
X36729762Y-98552438D01*
X36729762Y-98552438D02*
X36872619Y-98504819D01*
X36872619Y-98504819D02*
X36967857Y-98504819D01*
X36967857Y-98504819D02*
X37110714Y-98552438D01*
X37110714Y-98552438D02*
X37158333Y-98600057D01*
X37491667Y-98504819D02*
X38110714Y-98504819D01*
X38110714Y-98504819D02*
X37777381Y-98885771D01*
X37777381Y-98885771D02*
X37920238Y-98885771D01*
X37920238Y-98885771D02*
X38015476Y-98933390D01*
X38015476Y-98933390D02*
X38063095Y-98981009D01*
X38063095Y-98981009D02*
X38110714Y-99076247D01*
X38110714Y-99076247D02*
X38110714Y-99314342D01*
X38110714Y-99314342D02*
X38063095Y-99409580D01*
X38063095Y-99409580D02*
X38015476Y-99457200D01*
X38015476Y-99457200D02*
X37920238Y-99504819D01*
X37920238Y-99504819D02*
X37634524Y-99504819D01*
X37634524Y-99504819D02*
X37539286Y-99457200D01*
X37539286Y-99457200D02*
X37491667Y-99409580D01*
X50957142Y-91809580D02*
X50909523Y-91857200D01*
X50909523Y-91857200D02*
X50766666Y-91904819D01*
X50766666Y-91904819D02*
X50671428Y-91904819D01*
X50671428Y-91904819D02*
X50528571Y-91857200D01*
X50528571Y-91857200D02*
X50433333Y-91761961D01*
X50433333Y-91761961D02*
X50385714Y-91666723D01*
X50385714Y-91666723D02*
X50338095Y-91476247D01*
X50338095Y-91476247D02*
X50338095Y-91333390D01*
X50338095Y-91333390D02*
X50385714Y-91142914D01*
X50385714Y-91142914D02*
X50433333Y-91047676D01*
X50433333Y-91047676D02*
X50528571Y-90952438D01*
X50528571Y-90952438D02*
X50671428Y-90904819D01*
X50671428Y-90904819D02*
X50766666Y-90904819D01*
X50766666Y-90904819D02*
X50909523Y-90952438D01*
X50909523Y-90952438D02*
X50957142Y-91000057D01*
X51909523Y-91904819D02*
X51338095Y-91904819D01*
X51623809Y-91904819D02*
X51623809Y-90904819D01*
X51623809Y-90904819D02*
X51528571Y-91047676D01*
X51528571Y-91047676D02*
X51433333Y-91142914D01*
X51433333Y-91142914D02*
X51338095Y-91190533D01*
X52528571Y-90904819D02*
X52623809Y-90904819D01*
X52623809Y-90904819D02*
X52719047Y-90952438D01*
X52719047Y-90952438D02*
X52766666Y-91000057D01*
X52766666Y-91000057D02*
X52814285Y-91095295D01*
X52814285Y-91095295D02*
X52861904Y-91285771D01*
X52861904Y-91285771D02*
X52861904Y-91523866D01*
X52861904Y-91523866D02*
X52814285Y-91714342D01*
X52814285Y-91714342D02*
X52766666Y-91809580D01*
X52766666Y-91809580D02*
X52719047Y-91857200D01*
X52719047Y-91857200D02*
X52623809Y-91904819D01*
X52623809Y-91904819D02*
X52528571Y-91904819D01*
X52528571Y-91904819D02*
X52433333Y-91857200D01*
X52433333Y-91857200D02*
X52385714Y-91809580D01*
X52385714Y-91809580D02*
X52338095Y-91714342D01*
X52338095Y-91714342D02*
X52290476Y-91523866D01*
X52290476Y-91523866D02*
X52290476Y-91285771D01*
X52290476Y-91285771D02*
X52338095Y-91095295D01*
X52338095Y-91095295D02*
X52385714Y-91000057D01*
X52385714Y-91000057D02*
X52433333Y-90952438D01*
X52433333Y-90952438D02*
X52528571Y-90904819D01*
X50933333Y-89809580D02*
X50885714Y-89857200D01*
X50885714Y-89857200D02*
X50742857Y-89904819D01*
X50742857Y-89904819D02*
X50647619Y-89904819D01*
X50647619Y-89904819D02*
X50504762Y-89857200D01*
X50504762Y-89857200D02*
X50409524Y-89761961D01*
X50409524Y-89761961D02*
X50361905Y-89666723D01*
X50361905Y-89666723D02*
X50314286Y-89476247D01*
X50314286Y-89476247D02*
X50314286Y-89333390D01*
X50314286Y-89333390D02*
X50361905Y-89142914D01*
X50361905Y-89142914D02*
X50409524Y-89047676D01*
X50409524Y-89047676D02*
X50504762Y-88952438D01*
X50504762Y-88952438D02*
X50647619Y-88904819D01*
X50647619Y-88904819D02*
X50742857Y-88904819D01*
X50742857Y-88904819D02*
X50885714Y-88952438D01*
X50885714Y-88952438D02*
X50933333Y-89000057D01*
X51409524Y-89904819D02*
X51600000Y-89904819D01*
X51600000Y-89904819D02*
X51695238Y-89857200D01*
X51695238Y-89857200D02*
X51742857Y-89809580D01*
X51742857Y-89809580D02*
X51838095Y-89666723D01*
X51838095Y-89666723D02*
X51885714Y-89476247D01*
X51885714Y-89476247D02*
X51885714Y-89095295D01*
X51885714Y-89095295D02*
X51838095Y-89000057D01*
X51838095Y-89000057D02*
X51790476Y-88952438D01*
X51790476Y-88952438D02*
X51695238Y-88904819D01*
X51695238Y-88904819D02*
X51504762Y-88904819D01*
X51504762Y-88904819D02*
X51409524Y-88952438D01*
X51409524Y-88952438D02*
X51361905Y-89000057D01*
X51361905Y-89000057D02*
X51314286Y-89095295D01*
X51314286Y-89095295D02*
X51314286Y-89333390D01*
X51314286Y-89333390D02*
X51361905Y-89428628D01*
X51361905Y-89428628D02*
X51409524Y-89476247D01*
X51409524Y-89476247D02*
X51504762Y-89523866D01*
X51504762Y-89523866D02*
X51695238Y-89523866D01*
X51695238Y-89523866D02*
X51790476Y-89476247D01*
X51790476Y-89476247D02*
X51838095Y-89428628D01*
X51838095Y-89428628D02*
X51885714Y-89333390D01*
X39133333Y-100209580D02*
X39085714Y-100257200D01*
X39085714Y-100257200D02*
X38942857Y-100304819D01*
X38942857Y-100304819D02*
X38847619Y-100304819D01*
X38847619Y-100304819D02*
X38704762Y-100257200D01*
X38704762Y-100257200D02*
X38609524Y-100161961D01*
X38609524Y-100161961D02*
X38561905Y-100066723D01*
X38561905Y-100066723D02*
X38514286Y-99876247D01*
X38514286Y-99876247D02*
X38514286Y-99733390D01*
X38514286Y-99733390D02*
X38561905Y-99542914D01*
X38561905Y-99542914D02*
X38609524Y-99447676D01*
X38609524Y-99447676D02*
X38704762Y-99352438D01*
X38704762Y-99352438D02*
X38847619Y-99304819D01*
X38847619Y-99304819D02*
X38942857Y-99304819D01*
X38942857Y-99304819D02*
X39085714Y-99352438D01*
X39085714Y-99352438D02*
X39133333Y-99400057D01*
X39514286Y-99400057D02*
X39561905Y-99352438D01*
X39561905Y-99352438D02*
X39657143Y-99304819D01*
X39657143Y-99304819D02*
X39895238Y-99304819D01*
X39895238Y-99304819D02*
X39990476Y-99352438D01*
X39990476Y-99352438D02*
X40038095Y-99400057D01*
X40038095Y-99400057D02*
X40085714Y-99495295D01*
X40085714Y-99495295D02*
X40085714Y-99590533D01*
X40085714Y-99590533D02*
X40038095Y-99733390D01*
X40038095Y-99733390D02*
X39466667Y-100304819D01*
X39466667Y-100304819D02*
X40085714Y-100304819D01*
X50933333Y-99809580D02*
X50885714Y-99857200D01*
X50885714Y-99857200D02*
X50742857Y-99904819D01*
X50742857Y-99904819D02*
X50647619Y-99904819D01*
X50647619Y-99904819D02*
X50504762Y-99857200D01*
X50504762Y-99857200D02*
X50409524Y-99761961D01*
X50409524Y-99761961D02*
X50361905Y-99666723D01*
X50361905Y-99666723D02*
X50314286Y-99476247D01*
X50314286Y-99476247D02*
X50314286Y-99333390D01*
X50314286Y-99333390D02*
X50361905Y-99142914D01*
X50361905Y-99142914D02*
X50409524Y-99047676D01*
X50409524Y-99047676D02*
X50504762Y-98952438D01*
X50504762Y-98952438D02*
X50647619Y-98904819D01*
X50647619Y-98904819D02*
X50742857Y-98904819D01*
X50742857Y-98904819D02*
X50885714Y-98952438D01*
X50885714Y-98952438D02*
X50933333Y-99000057D01*
X51504762Y-99333390D02*
X51409524Y-99285771D01*
X51409524Y-99285771D02*
X51361905Y-99238152D01*
X51361905Y-99238152D02*
X51314286Y-99142914D01*
X51314286Y-99142914D02*
X51314286Y-99095295D01*
X51314286Y-99095295D02*
X51361905Y-99000057D01*
X51361905Y-99000057D02*
X51409524Y-98952438D01*
X51409524Y-98952438D02*
X51504762Y-98904819D01*
X51504762Y-98904819D02*
X51695238Y-98904819D01*
X51695238Y-98904819D02*
X51790476Y-98952438D01*
X51790476Y-98952438D02*
X51838095Y-99000057D01*
X51838095Y-99000057D02*
X51885714Y-99095295D01*
X51885714Y-99095295D02*
X51885714Y-99142914D01*
X51885714Y-99142914D02*
X51838095Y-99238152D01*
X51838095Y-99238152D02*
X51790476Y-99285771D01*
X51790476Y-99285771D02*
X51695238Y-99333390D01*
X51695238Y-99333390D02*
X51504762Y-99333390D01*
X51504762Y-99333390D02*
X51409524Y-99381009D01*
X51409524Y-99381009D02*
X51361905Y-99428628D01*
X51361905Y-99428628D02*
X51314286Y-99523866D01*
X51314286Y-99523866D02*
X51314286Y-99714342D01*
X51314286Y-99714342D02*
X51361905Y-99809580D01*
X51361905Y-99809580D02*
X51409524Y-99857200D01*
X51409524Y-99857200D02*
X51504762Y-99904819D01*
X51504762Y-99904819D02*
X51695238Y-99904819D01*
X51695238Y-99904819D02*
X51790476Y-99857200D01*
X51790476Y-99857200D02*
X51838095Y-99809580D01*
X51838095Y-99809580D02*
X51885714Y-99714342D01*
X51885714Y-99714342D02*
X51885714Y-99523866D01*
X51885714Y-99523866D02*
X51838095Y-99428628D01*
X51838095Y-99428628D02*
X51790476Y-99381009D01*
X51790476Y-99381009D02*
X51695238Y-99333390D01*
X37233333Y-95429819D02*
X36900000Y-94953628D01*
X36661905Y-95429819D02*
X36661905Y-94429819D01*
X36661905Y-94429819D02*
X37042857Y-94429819D01*
X37042857Y-94429819D02*
X37138095Y-94477438D01*
X37138095Y-94477438D02*
X37185714Y-94525057D01*
X37185714Y-94525057D02*
X37233333Y-94620295D01*
X37233333Y-94620295D02*
X37233333Y-94763152D01*
X37233333Y-94763152D02*
X37185714Y-94858390D01*
X37185714Y-94858390D02*
X37138095Y-94906009D01*
X37138095Y-94906009D02*
X37042857Y-94953628D01*
X37042857Y-94953628D02*
X36661905Y-94953628D01*
X38138095Y-94429819D02*
X37661905Y-94429819D01*
X37661905Y-94429819D02*
X37614286Y-94906009D01*
X37614286Y-94906009D02*
X37661905Y-94858390D01*
X37661905Y-94858390D02*
X37757143Y-94810771D01*
X37757143Y-94810771D02*
X37995238Y-94810771D01*
X37995238Y-94810771D02*
X38090476Y-94858390D01*
X38090476Y-94858390D02*
X38138095Y-94906009D01*
X38138095Y-94906009D02*
X38185714Y-95001247D01*
X38185714Y-95001247D02*
X38185714Y-95239342D01*
X38185714Y-95239342D02*
X38138095Y-95334580D01*
X38138095Y-95334580D02*
X38090476Y-95382200D01*
X38090476Y-95382200D02*
X37995238Y-95429819D01*
X37995238Y-95429819D02*
X37757143Y-95429819D01*
X37757143Y-95429819D02*
X37661905Y-95382200D01*
X37661905Y-95382200D02*
X37614286Y-95334580D01*
X49538095Y-84304819D02*
X49538095Y-85114342D01*
X49538095Y-85114342D02*
X49585714Y-85209580D01*
X49585714Y-85209580D02*
X49633333Y-85257200D01*
X49633333Y-85257200D02*
X49728571Y-85304819D01*
X49728571Y-85304819D02*
X49919047Y-85304819D01*
X49919047Y-85304819D02*
X50014285Y-85257200D01*
X50014285Y-85257200D02*
X50061904Y-85209580D01*
X50061904Y-85209580D02*
X50109523Y-85114342D01*
X50109523Y-85114342D02*
X50109523Y-84304819D01*
X51109523Y-85304819D02*
X50538095Y-85304819D01*
X50823809Y-85304819D02*
X50823809Y-84304819D01*
X50823809Y-84304819D02*
X50728571Y-84447676D01*
X50728571Y-84447676D02*
X50633333Y-84542914D01*
X50633333Y-84542914D02*
X50538095Y-84590533D01*
X27957142Y-78309580D02*
X27909523Y-78357200D01*
X27909523Y-78357200D02*
X27766666Y-78404819D01*
X27766666Y-78404819D02*
X27671428Y-78404819D01*
X27671428Y-78404819D02*
X27528571Y-78357200D01*
X27528571Y-78357200D02*
X27433333Y-78261961D01*
X27433333Y-78261961D02*
X27385714Y-78166723D01*
X27385714Y-78166723D02*
X27338095Y-77976247D01*
X27338095Y-77976247D02*
X27338095Y-77833390D01*
X27338095Y-77833390D02*
X27385714Y-77642914D01*
X27385714Y-77642914D02*
X27433333Y-77547676D01*
X27433333Y-77547676D02*
X27528571Y-77452438D01*
X27528571Y-77452438D02*
X27671428Y-77404819D01*
X27671428Y-77404819D02*
X27766666Y-77404819D01*
X27766666Y-77404819D02*
X27909523Y-77452438D01*
X27909523Y-77452438D02*
X27957142Y-77500057D01*
X28909523Y-78404819D02*
X28338095Y-78404819D01*
X28623809Y-78404819D02*
X28623809Y-77404819D01*
X28623809Y-77404819D02*
X28528571Y-77547676D01*
X28528571Y-77547676D02*
X28433333Y-77642914D01*
X28433333Y-77642914D02*
X28338095Y-77690533D01*
X29861904Y-78404819D02*
X29290476Y-78404819D01*
X29576190Y-78404819D02*
X29576190Y-77404819D01*
X29576190Y-77404819D02*
X29480952Y-77547676D01*
X29480952Y-77547676D02*
X29385714Y-77642914D01*
X29385714Y-77642914D02*
X29290476Y-77690533D01*
X27957142Y-74309580D02*
X27909523Y-74357200D01*
X27909523Y-74357200D02*
X27766666Y-74404819D01*
X27766666Y-74404819D02*
X27671428Y-74404819D01*
X27671428Y-74404819D02*
X27528571Y-74357200D01*
X27528571Y-74357200D02*
X27433333Y-74261961D01*
X27433333Y-74261961D02*
X27385714Y-74166723D01*
X27385714Y-74166723D02*
X27338095Y-73976247D01*
X27338095Y-73976247D02*
X27338095Y-73833390D01*
X27338095Y-73833390D02*
X27385714Y-73642914D01*
X27385714Y-73642914D02*
X27433333Y-73547676D01*
X27433333Y-73547676D02*
X27528571Y-73452438D01*
X27528571Y-73452438D02*
X27671428Y-73404819D01*
X27671428Y-73404819D02*
X27766666Y-73404819D01*
X27766666Y-73404819D02*
X27909523Y-73452438D01*
X27909523Y-73452438D02*
X27957142Y-73500057D01*
X28909523Y-74404819D02*
X28338095Y-74404819D01*
X28623809Y-74404819D02*
X28623809Y-73404819D01*
X28623809Y-73404819D02*
X28528571Y-73547676D01*
X28528571Y-73547676D02*
X28433333Y-73642914D01*
X28433333Y-73642914D02*
X28338095Y-73690533D01*
X29290476Y-73500057D02*
X29338095Y-73452438D01*
X29338095Y-73452438D02*
X29433333Y-73404819D01*
X29433333Y-73404819D02*
X29671428Y-73404819D01*
X29671428Y-73404819D02*
X29766666Y-73452438D01*
X29766666Y-73452438D02*
X29814285Y-73500057D01*
X29814285Y-73500057D02*
X29861904Y-73595295D01*
X29861904Y-73595295D02*
X29861904Y-73690533D01*
X29861904Y-73690533D02*
X29814285Y-73833390D01*
X29814285Y-73833390D02*
X29242857Y-74404819D01*
X29242857Y-74404819D02*
X29861904Y-74404819D01*
X27933333Y-89209580D02*
X27885714Y-89257200D01*
X27885714Y-89257200D02*
X27742857Y-89304819D01*
X27742857Y-89304819D02*
X27647619Y-89304819D01*
X27647619Y-89304819D02*
X27504762Y-89257200D01*
X27504762Y-89257200D02*
X27409524Y-89161961D01*
X27409524Y-89161961D02*
X27361905Y-89066723D01*
X27361905Y-89066723D02*
X27314286Y-88876247D01*
X27314286Y-88876247D02*
X27314286Y-88733390D01*
X27314286Y-88733390D02*
X27361905Y-88542914D01*
X27361905Y-88542914D02*
X27409524Y-88447676D01*
X27409524Y-88447676D02*
X27504762Y-88352438D01*
X27504762Y-88352438D02*
X27647619Y-88304819D01*
X27647619Y-88304819D02*
X27742857Y-88304819D01*
X27742857Y-88304819D02*
X27885714Y-88352438D01*
X27885714Y-88352438D02*
X27933333Y-88400057D01*
X28790476Y-88638152D02*
X28790476Y-89304819D01*
X28552381Y-88257200D02*
X28314286Y-88971485D01*
X28314286Y-88971485D02*
X28933333Y-88971485D01*
X39004761Y-92400057D02*
X38909523Y-92352438D01*
X38909523Y-92352438D02*
X38814285Y-92257200D01*
X38814285Y-92257200D02*
X38671428Y-92114342D01*
X38671428Y-92114342D02*
X38576190Y-92066723D01*
X38576190Y-92066723D02*
X38480952Y-92066723D01*
X38528571Y-92304819D02*
X38433333Y-92257200D01*
X38433333Y-92257200D02*
X38338095Y-92161961D01*
X38338095Y-92161961D02*
X38290476Y-91971485D01*
X38290476Y-91971485D02*
X38290476Y-91638152D01*
X38290476Y-91638152D02*
X38338095Y-91447676D01*
X38338095Y-91447676D02*
X38433333Y-91352438D01*
X38433333Y-91352438D02*
X38528571Y-91304819D01*
X38528571Y-91304819D02*
X38719047Y-91304819D01*
X38719047Y-91304819D02*
X38814285Y-91352438D01*
X38814285Y-91352438D02*
X38909523Y-91447676D01*
X38909523Y-91447676D02*
X38957142Y-91638152D01*
X38957142Y-91638152D02*
X38957142Y-91971485D01*
X38957142Y-91971485D02*
X38909523Y-92161961D01*
X38909523Y-92161961D02*
X38814285Y-92257200D01*
X38814285Y-92257200D02*
X38719047Y-92304819D01*
X38719047Y-92304819D02*
X38528571Y-92304819D01*
X39909523Y-92304819D02*
X39338095Y-92304819D01*
X39623809Y-92304819D02*
X39623809Y-91304819D01*
X39623809Y-91304819D02*
X39528571Y-91447676D01*
X39528571Y-91447676D02*
X39433333Y-91542914D01*
X39433333Y-91542914D02*
X39338095Y-91590533D01*
X30733333Y-97304819D02*
X30400000Y-96828628D01*
X30161905Y-97304819D02*
X30161905Y-96304819D01*
X30161905Y-96304819D02*
X30542857Y-96304819D01*
X30542857Y-96304819D02*
X30638095Y-96352438D01*
X30638095Y-96352438D02*
X30685714Y-96400057D01*
X30685714Y-96400057D02*
X30733333Y-96495295D01*
X30733333Y-96495295D02*
X30733333Y-96638152D01*
X30733333Y-96638152D02*
X30685714Y-96733390D01*
X30685714Y-96733390D02*
X30638095Y-96781009D01*
X30638095Y-96781009D02*
X30542857Y-96828628D01*
X30542857Y-96828628D02*
X30161905Y-96828628D01*
X31590476Y-96638152D02*
X31590476Y-97304819D01*
X31352381Y-96257200D02*
X31114286Y-96971485D01*
X31114286Y-96971485D02*
X31733333Y-96971485D01*
X30733333Y-99209580D02*
X30685714Y-99257200D01*
X30685714Y-99257200D02*
X30542857Y-99304819D01*
X30542857Y-99304819D02*
X30447619Y-99304819D01*
X30447619Y-99304819D02*
X30304762Y-99257200D01*
X30304762Y-99257200D02*
X30209524Y-99161961D01*
X30209524Y-99161961D02*
X30161905Y-99066723D01*
X30161905Y-99066723D02*
X30114286Y-98876247D01*
X30114286Y-98876247D02*
X30114286Y-98733390D01*
X30114286Y-98733390D02*
X30161905Y-98542914D01*
X30161905Y-98542914D02*
X30209524Y-98447676D01*
X30209524Y-98447676D02*
X30304762Y-98352438D01*
X30304762Y-98352438D02*
X30447619Y-98304819D01*
X30447619Y-98304819D02*
X30542857Y-98304819D01*
X30542857Y-98304819D02*
X30685714Y-98352438D01*
X30685714Y-98352438D02*
X30733333Y-98400057D01*
X31638095Y-98304819D02*
X31161905Y-98304819D01*
X31161905Y-98304819D02*
X31114286Y-98781009D01*
X31114286Y-98781009D02*
X31161905Y-98733390D01*
X31161905Y-98733390D02*
X31257143Y-98685771D01*
X31257143Y-98685771D02*
X31495238Y-98685771D01*
X31495238Y-98685771D02*
X31590476Y-98733390D01*
X31590476Y-98733390D02*
X31638095Y-98781009D01*
X31638095Y-98781009D02*
X31685714Y-98876247D01*
X31685714Y-98876247D02*
X31685714Y-99114342D01*
X31685714Y-99114342D02*
X31638095Y-99209580D01*
X31638095Y-99209580D02*
X31590476Y-99257200D01*
X31590476Y-99257200D02*
X31495238Y-99304819D01*
X31495238Y-99304819D02*
X31257143Y-99304819D01*
X31257143Y-99304819D02*
X31161905Y-99257200D01*
X31161905Y-99257200D02*
X31114286Y-99209580D01*
X30733333Y-95504819D02*
X30400000Y-95028628D01*
X30161905Y-95504819D02*
X30161905Y-94504819D01*
X30161905Y-94504819D02*
X30542857Y-94504819D01*
X30542857Y-94504819D02*
X30638095Y-94552438D01*
X30638095Y-94552438D02*
X30685714Y-94600057D01*
X30685714Y-94600057D02*
X30733333Y-94695295D01*
X30733333Y-94695295D02*
X30733333Y-94838152D01*
X30733333Y-94838152D02*
X30685714Y-94933390D01*
X30685714Y-94933390D02*
X30638095Y-94981009D01*
X30638095Y-94981009D02*
X30542857Y-95028628D01*
X30542857Y-95028628D02*
X30161905Y-95028628D01*
X31114286Y-94600057D02*
X31161905Y-94552438D01*
X31161905Y-94552438D02*
X31257143Y-94504819D01*
X31257143Y-94504819D02*
X31495238Y-94504819D01*
X31495238Y-94504819D02*
X31590476Y-94552438D01*
X31590476Y-94552438D02*
X31638095Y-94600057D01*
X31638095Y-94600057D02*
X31685714Y-94695295D01*
X31685714Y-94695295D02*
X31685714Y-94790533D01*
X31685714Y-94790533D02*
X31638095Y-94933390D01*
X31638095Y-94933390D02*
X31066667Y-95504819D01*
X31066667Y-95504819D02*
X31685714Y-95504819D01*
X27957142Y-76404819D02*
X27623809Y-75928628D01*
X27385714Y-76404819D02*
X27385714Y-75404819D01*
X27385714Y-75404819D02*
X27766666Y-75404819D01*
X27766666Y-75404819D02*
X27861904Y-75452438D01*
X27861904Y-75452438D02*
X27909523Y-75500057D01*
X27909523Y-75500057D02*
X27957142Y-75595295D01*
X27957142Y-75595295D02*
X27957142Y-75738152D01*
X27957142Y-75738152D02*
X27909523Y-75833390D01*
X27909523Y-75833390D02*
X27861904Y-75881009D01*
X27861904Y-75881009D02*
X27766666Y-75928628D01*
X27766666Y-75928628D02*
X27385714Y-75928628D01*
X28909523Y-76404819D02*
X28338095Y-76404819D01*
X28623809Y-76404819D02*
X28623809Y-75404819D01*
X28623809Y-75404819D02*
X28528571Y-75547676D01*
X28528571Y-75547676D02*
X28433333Y-75642914D01*
X28433333Y-75642914D02*
X28338095Y-75690533D01*
X29766666Y-75404819D02*
X29576190Y-75404819D01*
X29576190Y-75404819D02*
X29480952Y-75452438D01*
X29480952Y-75452438D02*
X29433333Y-75500057D01*
X29433333Y-75500057D02*
X29338095Y-75642914D01*
X29338095Y-75642914D02*
X29290476Y-75833390D01*
X29290476Y-75833390D02*
X29290476Y-76214342D01*
X29290476Y-76214342D02*
X29338095Y-76309580D01*
X29338095Y-76309580D02*
X29385714Y-76357200D01*
X29385714Y-76357200D02*
X29480952Y-76404819D01*
X29480952Y-76404819D02*
X29671428Y-76404819D01*
X29671428Y-76404819D02*
X29766666Y-76357200D01*
X29766666Y-76357200D02*
X29814285Y-76309580D01*
X29814285Y-76309580D02*
X29861904Y-76214342D01*
X29861904Y-76214342D02*
X29861904Y-75976247D01*
X29861904Y-75976247D02*
X29814285Y-75881009D01*
X29814285Y-75881009D02*
X29766666Y-75833390D01*
X29766666Y-75833390D02*
X29671428Y-75785771D01*
X29671428Y-75785771D02*
X29480952Y-75785771D01*
X29480952Y-75785771D02*
X29385714Y-75833390D01*
X29385714Y-75833390D02*
X29338095Y-75881009D01*
X29338095Y-75881009D02*
X29290476Y-75976247D01*
D11*
X39139333Y-96432419D02*
X38663143Y-96432419D01*
X38663143Y-96432419D02*
X38663143Y-95432419D01*
X39996476Y-96432419D02*
X39425048Y-96432419D01*
X39710762Y-96432419D02*
X39710762Y-95432419D01*
X39710762Y-95432419D02*
X39615524Y-95575276D01*
X39615524Y-95575276D02*
X39520286Y-95670514D01*
X39520286Y-95670514D02*
X39425048Y-95718133D01*
D10*
X30733333Y-93104819D02*
X30400000Y-92628628D01*
X30161905Y-93104819D02*
X30161905Y-92104819D01*
X30161905Y-92104819D02*
X30542857Y-92104819D01*
X30542857Y-92104819D02*
X30638095Y-92152438D01*
X30638095Y-92152438D02*
X30685714Y-92200057D01*
X30685714Y-92200057D02*
X30733333Y-92295295D01*
X30733333Y-92295295D02*
X30733333Y-92438152D01*
X30733333Y-92438152D02*
X30685714Y-92533390D01*
X30685714Y-92533390D02*
X30638095Y-92581009D01*
X30638095Y-92581009D02*
X30542857Y-92628628D01*
X30542857Y-92628628D02*
X30161905Y-92628628D01*
X31066667Y-92104819D02*
X31685714Y-92104819D01*
X31685714Y-92104819D02*
X31352381Y-92485771D01*
X31352381Y-92485771D02*
X31495238Y-92485771D01*
X31495238Y-92485771D02*
X31590476Y-92533390D01*
X31590476Y-92533390D02*
X31638095Y-92581009D01*
X31638095Y-92581009D02*
X31685714Y-92676247D01*
X31685714Y-92676247D02*
X31685714Y-92914342D01*
X31685714Y-92914342D02*
X31638095Y-93009580D01*
X31638095Y-93009580D02*
X31590476Y-93057200D01*
X31590476Y-93057200D02*
X31495238Y-93104819D01*
X31495238Y-93104819D02*
X31209524Y-93104819D01*
X31209524Y-93104819D02*
X31114286Y-93057200D01*
X31114286Y-93057200D02*
X31066667Y-93009580D01*
X50933333Y-97809580D02*
X50885714Y-97857200D01*
X50885714Y-97857200D02*
X50742857Y-97904819D01*
X50742857Y-97904819D02*
X50647619Y-97904819D01*
X50647619Y-97904819D02*
X50504762Y-97857200D01*
X50504762Y-97857200D02*
X50409524Y-97761961D01*
X50409524Y-97761961D02*
X50361905Y-97666723D01*
X50361905Y-97666723D02*
X50314286Y-97476247D01*
X50314286Y-97476247D02*
X50314286Y-97333390D01*
X50314286Y-97333390D02*
X50361905Y-97142914D01*
X50361905Y-97142914D02*
X50409524Y-97047676D01*
X50409524Y-97047676D02*
X50504762Y-96952438D01*
X50504762Y-96952438D02*
X50647619Y-96904819D01*
X50647619Y-96904819D02*
X50742857Y-96904819D01*
X50742857Y-96904819D02*
X50885714Y-96952438D01*
X50885714Y-96952438D02*
X50933333Y-97000057D01*
X51266667Y-96904819D02*
X51933333Y-96904819D01*
X51933333Y-96904819D02*
X51504762Y-97904819D01*
X50538095Y-93904819D02*
X50538095Y-94714342D01*
X50538095Y-94714342D02*
X50585714Y-94809580D01*
X50585714Y-94809580D02*
X50633333Y-94857200D01*
X50633333Y-94857200D02*
X50728571Y-94904819D01*
X50728571Y-94904819D02*
X50919047Y-94904819D01*
X50919047Y-94904819D02*
X51014285Y-94857200D01*
X51014285Y-94857200D02*
X51061904Y-94809580D01*
X51061904Y-94809580D02*
X51109523Y-94714342D01*
X51109523Y-94714342D02*
X51109523Y-93904819D01*
X52014285Y-93904819D02*
X51823809Y-93904819D01*
X51823809Y-93904819D02*
X51728571Y-93952438D01*
X51728571Y-93952438D02*
X51680952Y-94000057D01*
X51680952Y-94000057D02*
X51585714Y-94142914D01*
X51585714Y-94142914D02*
X51538095Y-94333390D01*
X51538095Y-94333390D02*
X51538095Y-94714342D01*
X51538095Y-94714342D02*
X51585714Y-94809580D01*
X51585714Y-94809580D02*
X51633333Y-94857200D01*
X51633333Y-94857200D02*
X51728571Y-94904819D01*
X51728571Y-94904819D02*
X51919047Y-94904819D01*
X51919047Y-94904819D02*
X52014285Y-94857200D01*
X52014285Y-94857200D02*
X52061904Y-94809580D01*
X52061904Y-94809580D02*
X52109523Y-94714342D01*
X52109523Y-94714342D02*
X52109523Y-94476247D01*
X52109523Y-94476247D02*
X52061904Y-94381009D01*
X52061904Y-94381009D02*
X52014285Y-94333390D01*
X52014285Y-94333390D02*
X51919047Y-94285771D01*
X51919047Y-94285771D02*
X51728571Y-94285771D01*
X51728571Y-94285771D02*
X51633333Y-94333390D01*
X51633333Y-94333390D02*
X51585714Y-94381009D01*
X51585714Y-94381009D02*
X51538095Y-94476247D01*
X37133333Y-97304819D02*
X36800000Y-96828628D01*
X36561905Y-97304819D02*
X36561905Y-96304819D01*
X36561905Y-96304819D02*
X36942857Y-96304819D01*
X36942857Y-96304819D02*
X37038095Y-96352438D01*
X37038095Y-96352438D02*
X37085714Y-96400057D01*
X37085714Y-96400057D02*
X37133333Y-96495295D01*
X37133333Y-96495295D02*
X37133333Y-96638152D01*
X37133333Y-96638152D02*
X37085714Y-96733390D01*
X37085714Y-96733390D02*
X37038095Y-96781009D01*
X37038095Y-96781009D02*
X36942857Y-96828628D01*
X36942857Y-96828628D02*
X36561905Y-96828628D01*
X38085714Y-97304819D02*
X37514286Y-97304819D01*
X37800000Y-97304819D02*
X37800000Y-96304819D01*
X37800000Y-96304819D02*
X37704762Y-96447676D01*
X37704762Y-96447676D02*
X37609524Y-96542914D01*
X37609524Y-96542914D02*
X37514286Y-96590533D01*
D12*
%TO.C,D1*%
X40027500Y-87450000D02*
X40027500Y-89450000D01*
X40027500Y-87450000D02*
X44037500Y-87450000D01*
X40027500Y-89450000D02*
X44037500Y-89450000D01*
D11*
%TO.C,U2*%
X36200000Y-88825000D02*
X36200000Y-89025000D01*
X36000000Y-88825000D02*
X36200000Y-88825000D01*
X33000000Y-88825000D02*
X33200000Y-88825000D01*
X33000000Y-89025000D02*
X33000000Y-88825000D01*
X36200000Y-91825000D02*
X36200000Y-92025000D01*
X36200000Y-92025000D02*
X36000000Y-92025000D01*
X33200000Y-92025000D02*
X33000000Y-92025000D01*
X33000000Y-92025000D02*
X33000000Y-91825000D01*
X36800000Y-88425000D02*
G75*
G03*
X36800000Y-88425000I-200000J0D01*
G01*
D12*
%TO.C,C3*%
X34723752Y-99660000D02*
X34201248Y-99660000D01*
X34723752Y-98190000D02*
X34201248Y-98190000D01*
%TO.C,J2*%
X26200000Y-71835000D02*
X26840000Y-71835000D01*
X26840000Y-71835000D02*
X26840000Y-72465000D01*
X29000000Y-71835000D02*
X28360000Y-71835000D01*
X26250000Y-69115000D02*
X28950000Y-69115000D01*
%TO.C,C10*%
X47801248Y-90715000D02*
X48323752Y-90715000D01*
X47801248Y-92185000D02*
X48323752Y-92185000D01*
%TO.C,C9*%
X47838748Y-88715000D02*
X48361252Y-88715000D01*
X47838748Y-90185000D02*
X48361252Y-90185000D01*
%TO.C,C2*%
X42323752Y-100685000D02*
X41801248Y-100685000D01*
X42323752Y-99215000D02*
X41801248Y-99215000D01*
%TO.C,C8*%
X47801248Y-98715000D02*
X48323752Y-98715000D01*
X47801248Y-100185000D02*
X48323752Y-100185000D01*
%TO.C,R5*%
X34272936Y-94115000D02*
X34727064Y-94115000D01*
X34272936Y-95585000D02*
X34727064Y-95585000D01*
D11*
%TO.C,U1*%
X49100000Y-84450000D02*
X47700000Y-84450000D01*
X49100000Y-83150000D02*
X49100000Y-84450000D01*
X49050000Y-72450000D02*
X49050000Y-73850000D01*
X47750000Y-72450000D02*
X49050000Y-72450000D01*
X38450000Y-84550000D02*
X37150000Y-84550000D01*
X37150000Y-84550000D02*
X37150000Y-83150000D01*
X37100000Y-73700000D02*
X37100000Y-72400000D01*
X37100000Y-72400000D02*
X38500000Y-72400000D01*
D10*
X50442353Y-83610000D02*
G75*
G03*
X50442353Y-83610000I-362353J0D01*
G01*
D12*
%TO.C,C11*%
X32323752Y-78685000D02*
X31801248Y-78685000D01*
X32323752Y-77215000D02*
X31801248Y-77215000D01*
%TO.C,C12*%
X31801248Y-73215000D02*
X32323752Y-73215000D01*
X31801248Y-74685000D02*
X32323752Y-74685000D01*
%TO.C,C4*%
X28361252Y-91185000D02*
X27838748Y-91185000D01*
X28361252Y-89715000D02*
X27838748Y-89715000D01*
%TO.C,Q1*%
X42037500Y-93010000D02*
X43712500Y-93010000D01*
X42037500Y-93010000D02*
X41387500Y-93010000D01*
X42037500Y-89890000D02*
X42687500Y-89890000D01*
X42037500Y-89890000D02*
X41387500Y-89890000D01*
%TO.C,J5*%
X33695000Y-107855000D02*
X33695000Y-107220000D01*
X34330000Y-107855000D02*
X33695000Y-107855000D01*
%TO.C,R4*%
X27872936Y-96190000D02*
X28327064Y-96190000D01*
X27872936Y-97660000D02*
X28327064Y-97660000D01*
%TO.C,C5*%
X27801248Y-98190000D02*
X28323752Y-98190000D01*
X27801248Y-99660000D02*
X28323752Y-99660000D01*
%TO.C,J1*%
X42045000Y-65815000D02*
X42045000Y-65180000D01*
X42045000Y-65180000D02*
X41410000Y-65180000D01*
%TO.C,R2*%
X28327064Y-95660000D02*
X27872936Y-95660000D01*
X28327064Y-94190000D02*
X27872936Y-94190000D01*
%TO.C,R16*%
X31872936Y-75215000D02*
X32327064Y-75215000D01*
X31872936Y-76685000D02*
X32327064Y-76685000D01*
D11*
%TO.C,L1*%
X40068000Y-98007000D02*
X40068000Y-93943000D01*
X44132000Y-98007000D02*
X44132000Y-93943000D01*
D12*
%TO.C,R3*%
X28327064Y-93160000D02*
X27872936Y-93160000D01*
X28327064Y-91690000D02*
X27872936Y-91690000D01*
%TO.C,C7*%
X47801248Y-96715000D02*
X48323752Y-96715000D01*
X47801248Y-98185000D02*
X48323752Y-98185000D01*
%TO.C,U6*%
X48100000Y-92890000D02*
X46300000Y-92890000D01*
X48100000Y-92890000D02*
X48900000Y-92890000D01*
X48100000Y-96010000D02*
X47300000Y-96010000D01*
X48100000Y-96010000D02*
X48900000Y-96010000D01*
%TO.C,R1*%
X34272936Y-96115000D02*
X34727064Y-96115000D01*
X34272936Y-97585000D02*
X34727064Y-97585000D01*
%TD*%
M02*
