%TF.GenerationSoftware,KiCad,Pcbnew,7.0.7*%
%TF.CreationDate,2024-01-18T13:53:05-05:00*%
%TF.ProjectId,DDRN_Hardware,4444524e-5f48-4617-9264-776172652e6b,rev?*%
%TF.SameCoordinates,Original*%
%TF.FileFunction,Soldermask,Top*%
%TF.FilePolarity,Negative*%
%FSLAX46Y46*%
G04 Gerber Fmt 4.6, Leading zero omitted, Abs format (unit mm)*
G04 Created by KiCad (PCBNEW 7.0.7) date 2024-01-18 13:53:05*
%MOMM*%
%LPD*%
G01*
G04 APERTURE LIST*
G04 Aperture macros list*
%AMRoundRect*
0 Rectangle with rounded corners*
0 $1 Rounding radius*
0 $2 $3 $4 $5 $6 $7 $8 $9 X,Y pos of 4 corners*
0 Add a 4 corners polygon primitive as box body*
4,1,4,$2,$3,$4,$5,$6,$7,$8,$9,$2,$3,0*
0 Add four circle primitives for the rounded corners*
1,1,$1+$1,$2,$3*
1,1,$1+$1,$4,$5*
1,1,$1+$1,$6,$7*
1,1,$1+$1,$8,$9*
0 Add four rect primitives between the rounded corners*
20,1,$1+$1,$2,$3,$4,$5,0*
20,1,$1+$1,$4,$5,$6,$7,0*
20,1,$1+$1,$6,$7,$8,$9,0*
20,1,$1+$1,$8,$9,$2,$3,0*%
G04 Aperture macros list end*
%ADD10C,3.200000*%
%ADD11RoundRect,0.225000X-0.225000X-0.375000X0.225000X-0.375000X0.225000X0.375000X-0.225000X0.375000X0*%
%ADD12RoundRect,0.102000X-0.175000X0.750000X-0.175000X-0.750000X0.175000X-0.750000X0.175000X0.750000X0*%
%ADD13RoundRect,0.102000X0.750000X0.175000X-0.750000X0.175000X-0.750000X-0.175000X0.750000X-0.175000X0*%
%ADD14RoundRect,0.102000X0.175000X-0.750000X0.175000X0.750000X-0.175000X0.750000X-0.175000X-0.750000X0*%
%ADD15RoundRect,0.102000X-0.750000X-0.175000X0.750000X-0.175000X0.750000X0.175000X-0.750000X0.175000X0*%
%ADD16R,1.500000X1.500000*%
%ADD17RoundRect,0.250000X0.337500X0.475000X-0.337500X0.475000X-0.337500X-0.475000X0.337500X-0.475000X0*%
%ADD18R,1.000000X1.050000*%
%ADD19R,1.050000X2.200000*%
%ADD20RoundRect,0.250000X-0.337500X-0.475000X0.337500X-0.475000X0.337500X0.475000X-0.337500X0.475000X0*%
%ADD21RoundRect,0.250000X-0.350000X-0.450000X0.350000X-0.450000X0.350000X0.450000X-0.350000X0.450000X0*%
%ADD22R,2.300000X1.000000*%
%ADD23R,1.000000X2.300000*%
%ADD24RoundRect,0.150000X0.587500X0.150000X-0.587500X0.150000X-0.587500X-0.150000X0.587500X-0.150000X0*%
%ADD25C,2.374900*%
%ADD26C,0.990600*%
%ADD27C,0.787400*%
%ADD28RoundRect,0.250000X0.350000X0.450000X-0.350000X0.450000X-0.350000X-0.450000X0.350000X-0.450000X0*%
%ADD29R,3.600000X1.500000*%
%ADD30RoundRect,0.150000X-0.512500X-0.150000X0.512500X-0.150000X0.512500X0.150000X-0.512500X0.150000X0*%
G04 APERTURE END LIST*
D10*
%TO.C,H3*%
X50600000Y-107950000D03*
%TD*%
D11*
%TO.C,D1*%
X40737500Y-88450000D03*
X44037500Y-88450000D03*
%TD*%
D10*
%TO.C,H2*%
X50600000Y-64950000D03*
%TD*%
D12*
%TO.C,U2*%
X35400000Y-88425000D03*
X34600000Y-88425000D03*
X33800000Y-88425000D03*
D13*
X32600000Y-89625000D03*
X32600000Y-90425000D03*
X32600000Y-91225000D03*
D14*
X33800000Y-92425000D03*
X34600000Y-92425000D03*
X35400000Y-92425000D03*
D15*
X36600000Y-91225000D03*
X36600000Y-90425000D03*
X36600000Y-89625000D03*
D16*
X34600000Y-90425000D03*
%TD*%
D17*
%TO.C,C3*%
X35500000Y-98925000D03*
X33425000Y-98925000D03*
%TD*%
D10*
%TO.C,H1*%
X27600000Y-64950000D03*
%TD*%
D18*
%TO.C,J2*%
X27600000Y-72000000D03*
D19*
X26125000Y-70475000D03*
X29075000Y-70475000D03*
%TD*%
D20*
%TO.C,C10*%
X47025000Y-91450000D03*
X49100000Y-91450000D03*
%TD*%
D10*
%TO.C,H4*%
X27600000Y-107950000D03*
%TD*%
D20*
%TO.C,C9*%
X47062500Y-89450000D03*
X49137500Y-89450000D03*
%TD*%
D17*
%TO.C,C2*%
X43100000Y-99950000D03*
X41025000Y-99950000D03*
%TD*%
D20*
%TO.C,C8*%
X47025000Y-99450000D03*
X49100000Y-99450000D03*
%TD*%
D21*
%TO.C,R5*%
X33500000Y-94850000D03*
X35500000Y-94850000D03*
%TD*%
D22*
%TO.C,U1*%
X49100000Y-82200000D03*
X49100000Y-80950000D03*
X49100000Y-79700000D03*
X49100000Y-78450000D03*
X49100000Y-77200000D03*
X49100000Y-75950000D03*
X49100000Y-74700000D03*
D23*
X46850000Y-72450000D03*
X45600000Y-72450000D03*
X44350000Y-72450000D03*
X43100000Y-72450000D03*
X41850000Y-72450000D03*
X40600000Y-72450000D03*
X39350000Y-72450000D03*
D22*
X37100000Y-74700000D03*
X37100000Y-75950000D03*
X37100000Y-77200000D03*
X37100000Y-78450000D03*
X37100000Y-79700000D03*
X37100000Y-80950000D03*
X37100000Y-82200000D03*
D23*
X39350000Y-84450000D03*
X40600000Y-84450000D03*
X41850000Y-84450000D03*
X43100000Y-84450000D03*
X44350000Y-84450000D03*
X45600000Y-84450000D03*
X46850000Y-84450000D03*
%TD*%
D17*
%TO.C,C11*%
X33100000Y-77950000D03*
X31025000Y-77950000D03*
%TD*%
D20*
%TO.C,C12*%
X31025000Y-73950000D03*
X33100000Y-73950000D03*
%TD*%
D17*
%TO.C,C4*%
X29137500Y-90450000D03*
X27062500Y-90450000D03*
%TD*%
D24*
%TO.C,Q1*%
X42975000Y-92400000D03*
X42975000Y-90500000D03*
X41100000Y-91450000D03*
%TD*%
D25*
%TO.C,J5*%
X33060000Y-104045000D03*
D26*
X33060000Y-106585000D03*
D25*
X33060000Y-109125000D03*
X36235000Y-104045000D03*
X36235000Y-109125000D03*
D26*
X38140000Y-105569000D03*
X38140000Y-107601000D03*
D27*
X34330000Y-107220000D03*
X34330000Y-105950000D03*
X35600000Y-107220000D03*
X35600000Y-105950000D03*
X36870000Y-107220000D03*
X36870000Y-105950000D03*
%TD*%
D21*
%TO.C,R4*%
X27100000Y-96925000D03*
X29100000Y-96925000D03*
%TD*%
D20*
%TO.C,C5*%
X27025000Y-98925000D03*
X29100000Y-98925000D03*
%TD*%
D25*
%TO.C,J1*%
X42680000Y-68990000D03*
D26*
X42680000Y-66450000D03*
D25*
X42680000Y-63910000D03*
X34425000Y-68990000D03*
X34425000Y-63910000D03*
D26*
X32520000Y-67466000D03*
X32520000Y-65434000D03*
D27*
X41410000Y-65815000D03*
X40140000Y-65815000D03*
X38870000Y-65815000D03*
X37600000Y-65815000D03*
X36330000Y-65815000D03*
X35060000Y-65815000D03*
X33790000Y-65815000D03*
X33790000Y-67085000D03*
X35060000Y-67085000D03*
X36330000Y-67085000D03*
X37600000Y-67085000D03*
X38870000Y-67085000D03*
X40140000Y-67085000D03*
X41410000Y-67085000D03*
%TD*%
D28*
%TO.C,R2*%
X29100000Y-94925000D03*
X27100000Y-94925000D03*
%TD*%
D21*
%TO.C,R16*%
X31100000Y-75950000D03*
X33100000Y-75950000D03*
%TD*%
D29*
%TO.C,L1*%
X42100000Y-97500000D03*
X42100000Y-94450000D03*
%TD*%
D28*
%TO.C,R3*%
X29100000Y-92425000D03*
X27100000Y-92425000D03*
%TD*%
D20*
%TO.C,C7*%
X47025000Y-97450000D03*
X49100000Y-97450000D03*
%TD*%
D30*
%TO.C,U6*%
X46962500Y-93500000D03*
X46962500Y-94450000D03*
X46962500Y-95400000D03*
X49237500Y-95400000D03*
X49237500Y-93500000D03*
%TD*%
D21*
%TO.C,R1*%
X33500000Y-96850000D03*
X35500000Y-96850000D03*
%TD*%
M02*
