%TF.GenerationSoftware,KiCad,Pcbnew,7.0.8-7.0.8~ubuntu22.04.1*%
%TF.CreationDate,2023-10-23T06:40:44-04:00*%
%TF.ProjectId,DDRN_Hardware,4444524e-5f48-4617-9264-776172652e6b,rev?*%
%TF.SameCoordinates,Original*%
%TF.FileFunction,Copper,L1,Top*%
%TF.FilePolarity,Positive*%
%FSLAX46Y46*%
G04 Gerber Fmt 4.6, Leading zero omitted, Abs format (unit mm)*
G04 Created by KiCad (PCBNEW 7.0.8-7.0.8~ubuntu22.04.1) date 2023-10-23 06:40:44*
%MOMM*%
%LPD*%
G01*
G04 APERTURE LIST*
G04 Aperture macros list*
%AMRoundRect*
0 Rectangle with rounded corners*
0 $1 Rounding radius*
0 $2 $3 $4 $5 $6 $7 $8 $9 X,Y pos of 4 corners*
0 Add a 4 corners polygon primitive as box body*
4,1,4,$2,$3,$4,$5,$6,$7,$8,$9,$2,$3,0*
0 Add four circle primitives for the rounded corners*
1,1,$1+$1,$2,$3*
1,1,$1+$1,$4,$5*
1,1,$1+$1,$6,$7*
1,1,$1+$1,$8,$9*
0 Add four rect primitives between the rounded corners*
20,1,$1+$1,$2,$3,$4,$5,0*
20,1,$1+$1,$4,$5,$6,$7,0*
20,1,$1+$1,$6,$7,$8,$9,0*
20,1,$1+$1,$8,$9,$2,$3,0*%
G04 Aperture macros list end*
%TA.AperFunction,ComponentPad*%
%ADD10R,1.700000X1.700000*%
%TD*%
%TA.AperFunction,ComponentPad*%
%ADD11O,1.700000X1.700000*%
%TD*%
%TA.AperFunction,SMDPad,CuDef*%
%ADD12R,0.650000X1.050000*%
%TD*%
%TA.AperFunction,SMDPad,CuDef*%
%ADD13RoundRect,0.250000X0.350000X0.450000X-0.350000X0.450000X-0.350000X-0.450000X0.350000X-0.450000X0*%
%TD*%
%TA.AperFunction,SMDPad,CuDef*%
%ADD14RoundRect,0.250000X-0.350000X-0.450000X0.350000X-0.450000X0.350000X0.450000X-0.350000X0.450000X0*%
%TD*%
%TA.AperFunction,SMDPad,CuDef*%
%ADD15RoundRect,0.250000X0.450000X-0.350000X0.450000X0.350000X-0.450000X0.350000X-0.450000X-0.350000X0*%
%TD*%
%TA.AperFunction,SMDPad,CuDef*%
%ADD16RoundRect,0.250000X-0.450000X0.350000X-0.450000X-0.350000X0.450000X-0.350000X0.450000X0.350000X0*%
%TD*%
%TA.AperFunction,SMDPad,CuDef*%
%ADD17R,0.250000X1.500000*%
%TD*%
%TA.AperFunction,SMDPad,CuDef*%
%ADD18R,1.500000X0.250000*%
%TD*%
%TA.AperFunction,SMDPad,CuDef*%
%ADD19R,1.000000X1.050000*%
%TD*%
%TA.AperFunction,SMDPad,CuDef*%
%ADD20R,1.050000X2.200000*%
%TD*%
%TA.AperFunction,SMDPad,CuDef*%
%ADD21R,2.300000X1.000000*%
%TD*%
%TA.AperFunction,SMDPad,CuDef*%
%ADD22R,1.000000X2.300000*%
%TD*%
%TA.AperFunction,SMDPad,CuDef*%
%ADD23RoundRect,0.150000X-0.150000X0.650000X-0.150000X-0.650000X0.150000X-0.650000X0.150000X0.650000X0*%
%TD*%
%TA.AperFunction,SMDPad,CuDef*%
%ADD24RoundRect,0.250000X0.337500X0.475000X-0.337500X0.475000X-0.337500X-0.475000X0.337500X-0.475000X0*%
%TD*%
%TA.AperFunction,SMDPad,CuDef*%
%ADD25R,0.350000X1.500000*%
%TD*%
%TA.AperFunction,SMDPad,CuDef*%
%ADD26R,1.500000X0.350000*%
%TD*%
%TA.AperFunction,HeatsinkPad*%
%ADD27R,1.500000X1.500000*%
%TD*%
%TA.AperFunction,SMDPad,CuDef*%
%ADD28RoundRect,0.250000X-0.337500X-0.475000X0.337500X-0.475000X0.337500X0.475000X-0.337500X0.475000X0*%
%TD*%
%TA.AperFunction,SMDPad,CuDef*%
%ADD29R,3.600000X1.500000*%
%TD*%
%TA.AperFunction,SMDPad,CuDef*%
%ADD30R,1.000000X4.000000*%
%TD*%
%TA.AperFunction,SMDPad,CuDef*%
%ADD31R,0.325000X1.500000*%
%TD*%
%TA.AperFunction,ComponentPad*%
%ADD32R,1.500000X1.500000*%
%TD*%
%TA.AperFunction,ComponentPad*%
%ADD33C,1.500000*%
%TD*%
%TA.AperFunction,SMDPad,CuDef*%
%ADD34RoundRect,0.150000X-0.512500X-0.150000X0.512500X-0.150000X0.512500X0.150000X-0.512500X0.150000X0*%
%TD*%
%TA.AperFunction,SMDPad,CuDef*%
%ADD35RoundRect,0.150000X0.587500X0.150000X-0.587500X0.150000X-0.587500X-0.150000X0.587500X-0.150000X0*%
%TD*%
%TA.AperFunction,SMDPad,CuDef*%
%ADD36R,1.500000X3.400000*%
%TD*%
%TA.AperFunction,SMDPad,CuDef*%
%ADD37R,1.000000X3.500000*%
%TD*%
%TA.AperFunction,SMDPad,CuDef*%
%ADD38RoundRect,0.225000X-0.225000X-0.375000X0.225000X-0.375000X0.225000X0.375000X-0.225000X0.375000X0*%
%TD*%
%TA.AperFunction,SMDPad,CuDef*%
%ADD39RoundRect,0.250000X0.450000X-0.325000X0.450000X0.325000X-0.450000X0.325000X-0.450000X-0.325000X0*%
%TD*%
%TA.AperFunction,SMDPad,CuDef*%
%ADD40RoundRect,0.150000X-0.587500X-0.150000X0.587500X-0.150000X0.587500X0.150000X-0.587500X0.150000X0*%
%TD*%
%TA.AperFunction,ViaPad*%
%ADD41C,0.800000*%
%TD*%
%TA.AperFunction,Conductor*%
%ADD42C,0.200000*%
%TD*%
%TA.AperFunction,Conductor*%
%ADD43C,1.000000*%
%TD*%
%TA.AperFunction,Conductor*%
%ADD44C,0.250000*%
%TD*%
%TA.AperFunction,Conductor*%
%ADD45C,0.500000*%
%TD*%
G04 APERTURE END LIST*
D10*
%TO.P,J7,1,Pin_1*%
%TO.N,/Stim_Enable*%
X73600000Y-140950000D03*
D11*
%TO.P,J7,2,Pin_2*%
%TO.N,/Anneal_Enable*%
X73600000Y-143490000D03*
%TD*%
D10*
%TO.P,J9,1,Pin_1*%
%TO.N,GND*%
X84375000Y-127950000D03*
D11*
%TO.P,J9,2,Pin_2*%
%TO.N,/3v3*%
X81835000Y-127950000D03*
%TD*%
D10*
%TO.P,J6,1,Pin_1*%
%TO.N,GND*%
X58600000Y-138975000D03*
D11*
%TO.P,J6,2,Pin_2*%
%TO.N,/SiPM_Bias*%
X58600000Y-136435000D03*
%TD*%
D10*
%TO.P,J1,1,Pin_1*%
%TO.N,/SiPM_Temp*%
X79575000Y-102950000D03*
D11*
%TO.P,J1,2,Pin_2*%
%TO.N,/SiPM_Signal*%
X82115000Y-102950000D03*
%TO.P,J1,3,Pin_3*%
%TO.N,/Battery_Monitor*%
X84655000Y-102950000D03*
%TD*%
D12*
%TO.P,SW2,1,1*%
%TO.N,/Boot_Mode*%
X59175000Y-103375000D03*
X59175000Y-107525000D03*
%TO.P,SW2,2,2*%
%TO.N,GND*%
X57025000Y-107525000D03*
X57025000Y-103375000D03*
%TD*%
D13*
%TO.P,R19,1*%
%TO.N,/Boot_Mode*%
X59100000Y-109450000D03*
%TO.P,R19,2*%
%TO.N,/3v3*%
X57100000Y-109450000D03*
%TD*%
D14*
%TO.P,R1,1*%
%TO.N,Net-(C3-Pad1)*%
X60456250Y-131531250D03*
%TO.P,R1,2*%
%TO.N,Net-(U2-COMP)*%
X62456250Y-131531250D03*
%TD*%
D13*
%TO.P,R14,1*%
%TO.N,/RST*%
X62850000Y-109450000D03*
%TO.P,R14,2*%
%TO.N,/3v3*%
X60850000Y-109450000D03*
%TD*%
D12*
%TO.P,SW1,1,1*%
%TO.N,/RST*%
X62925000Y-103375000D03*
X62925000Y-107525000D03*
%TO.P,SW1,2,2*%
%TO.N,GND*%
X60775000Y-103375000D03*
X60775000Y-107525000D03*
%TD*%
D15*
%TO.P,R15,1*%
%TO.N,Net-(D2-A)*%
X69450000Y-100450000D03*
%TO.P,R15,2*%
%TO.N,/3v3*%
X69450000Y-98450000D03*
%TD*%
D16*
%TO.P,R7,1*%
%TO.N,Net-(U3-SDO{slash}DNC{slash}SA0)*%
X82150000Y-122750000D03*
%TO.P,R7,2*%
%TO.N,/3v3*%
X82150000Y-124750000D03*
%TD*%
D17*
%TO.P,U3,1,VDDIO*%
%TO.N,/3v3*%
X83300000Y-118250000D03*
%TO.P,U3,2,SCK/SCL*%
%TO.N,/SCL*%
X82800000Y-118250000D03*
D18*
%TO.P,U3,3,VSS/GND*%
%TO.N,GND*%
X81700000Y-119050000D03*
%TO.P,U3,4,SDI/SDO/SDA*%
%TO.N,/SDA*%
X81700000Y-119550000D03*
%TO.P,U3,5,SDO/DNC/SA0*%
%TO.N,Net-(U3-SDO{slash}DNC{slash}SA0)*%
X81700000Y-120050000D03*
D17*
%TO.P,U3,6,~{CS}*%
%TO.N,Net-(U3-~{CS})*%
X82800000Y-120850000D03*
%TO.P,U3,7,INT/DNC*%
%TO.N,unconnected-(U3-INT{slash}DNC-Pad7)*%
X83300000Y-120850000D03*
D18*
%TO.P,U3,8,VSS/GND*%
%TO.N,GND*%
X84400000Y-120050000D03*
%TO.P,U3,9,VSS/GND*%
X84400000Y-119550000D03*
%TO.P,U3,10,VDD*%
%TO.N,/3v3*%
X84400000Y-119050000D03*
%TD*%
D19*
%TO.P,J2,1,In*%
%TO.N,Net-(J2-In)*%
X62887500Y-95375000D03*
D20*
%TO.P,J2,2,Ext*%
%TO.N,GND*%
X61412500Y-93850000D03*
X64362500Y-93850000D03*
%TD*%
D21*
%TO.P,U1,1,VCC*%
%TO.N,/3v3*%
X77750000Y-112925000D03*
%TO.P,U1,2,GND*%
%TO.N,GND*%
X77750000Y-111675000D03*
%TO.P,U1,3,PA13*%
%TO.N,/SWDIO*%
X77750000Y-110425000D03*
%TO.P,U1,4,PA14*%
%TO.N,/SWCLK*%
X77750000Y-109175000D03*
%TO.P,U1,5,PB15*%
%TO.N,/SCL*%
X77750000Y-107925000D03*
%TO.P,U1,6,PA15*%
%TO.N,/SDA*%
X77750000Y-106675000D03*
%TO.P,U1,7,PB4*%
%TO.N,/SiPM_Signal*%
X77750000Y-105425000D03*
D22*
%TO.P,U1,8,PB3*%
%TO.N,/SiPM_Temp*%
X75500000Y-103175000D03*
%TO.P,U1,9,PB7*%
%TO.N,/USB_RX*%
X74250000Y-103175000D03*
%TO.P,U1,10,PB6*%
%TO.N,/USB_TX*%
X73000000Y-103175000D03*
%TO.P,U1,11,PB5*%
%TO.N,/Status_LED*%
X71750000Y-103175000D03*
%TO.P,U1,12,PC1*%
%TO.N,/MOSI*%
X70500000Y-103175000D03*
%TO.P,U1,13,PC0*%
%TO.N,/ACCEL_INT*%
X69250000Y-103175000D03*
%TO.P,U1,14,GND*%
%TO.N,GND*%
X68000000Y-103175000D03*
D21*
%TO.P,U1,15,RFIO*%
%TO.N,/ANT*%
X65750000Y-105425000D03*
%TO.P,U1,16,GND*%
%TO.N,GND*%
X65750000Y-106675000D03*
%TO.P,U1,17,RST*%
%TO.N,/RST*%
X65750000Y-107925000D03*
%TO.P,U1,18,PA3*%
%TO.N,/Boot_Mode*%
X65750000Y-109175000D03*
%TO.P,U1,19,PA2*%
%TO.N,/Memory_CS*%
X65750000Y-110425000D03*
%TO.P,U1,20,PB10*%
%TO.N,/Bias_CS*%
X65750000Y-111675000D03*
%TO.P,U1,21,PA9*%
%TO.N,/SCK*%
X65750000Y-112925000D03*
D22*
%TO.P,U1,22,GND*%
%TO.N,GND*%
X68000000Y-115175000D03*
%TO.P,U1,23,PA0*%
%TO.N,/Battery_Monitor_Enable*%
X69250000Y-115175000D03*
%TO.P,U1,24,PB13~{}*%
%TO.N,/Battery_Monitor*%
X70500000Y-115175000D03*
%TO.P,U1,25,PB9*%
%TO.N,/Stim_Enable*%
X71750000Y-115175000D03*
%TO.P,U1,26,PB14*%
%TO.N,/MISO*%
X73000000Y-115175000D03*
%TO.P,U1,27,PA10*%
%TO.N,/Anneal_Enable*%
X74250000Y-115175000D03*
%TO.P,U1,28,PB0*%
%TO.N,unconnected-(U1-PB0-Pad28)*%
X75500000Y-115175000D03*
%TD*%
D23*
%TO.P,U4,1,~{CS}*%
%TO.N,/Memory_CS*%
X60355000Y-112750000D03*
%TO.P,U4,2,DO(IO1)*%
%TO.N,/MISO*%
X59085000Y-112750000D03*
%TO.P,U4,3,IO2*%
%TO.N,unconnected-(U4-IO2-Pad3)*%
X57815000Y-112750000D03*
%TO.P,U4,4,GND*%
%TO.N,GND*%
X56545000Y-112750000D03*
%TO.P,U4,5,DI(IO0)*%
%TO.N,/MOSI*%
X56545000Y-119950000D03*
%TO.P,U4,6,CLK*%
%TO.N,/SCK*%
X57815000Y-119950000D03*
%TO.P,U4,7,IO3*%
%TO.N,unconnected-(U4-IO3-Pad7)*%
X59085000Y-119950000D03*
%TO.P,U4,8,VCC*%
%TO.N,/3v3*%
X60355000Y-119950000D03*
%TD*%
D14*
%TO.P,R4,1*%
%TO.N,/SiPM_Bias*%
X56387500Y-131512500D03*
%TO.P,R4,2*%
%TO.N,Net-(U2-FB)*%
X58387500Y-131512500D03*
%TD*%
D24*
%TO.P,C10,1*%
%TO.N,/3v3*%
X78837500Y-126322120D03*
%TO.P,C10,2*%
%TO.N,GND*%
X76762500Y-126322120D03*
%TD*%
%TO.P,C11,1*%
%TO.N,/ANT*%
X63937500Y-101350000D03*
%TO.P,C11,2*%
%TO.N,GND*%
X61862500Y-101350000D03*
%TD*%
D25*
%TO.P,U2,1,SCLK*%
%TO.N,/SCK*%
X63450000Y-123137500D03*
%TO.P,U2,2,MOSI*%
%TO.N,/MOSI*%
X62650000Y-123137500D03*
%TO.P,U2,3,CL*%
%TO.N,unconnected-(U2-CL-Pad3)*%
X61850000Y-123137500D03*
D26*
%TO.P,U2,4,CS+*%
%TO.N,Net-(D1-K)*%
X60650000Y-124337500D03*
%TO.P,U2,5,CS-*%
%TO.N,/SiPM_Bias*%
X60650000Y-125137500D03*
%TO.P,U2,6,DACOUT*%
%TO.N,Net-(U2-DACOUT)*%
X60650000Y-125937500D03*
D25*
%TO.P,U2,7,FB*%
%TO.N,Net-(U2-FB)*%
X61850000Y-127137500D03*
%TO.P,U2,8,COMP*%
%TO.N,Net-(U2-COMP)*%
X62650000Y-127137500D03*
%TO.P,U2,9,GND*%
%TO.N,GND*%
X63450000Y-127137500D03*
D26*
%TO.P,U2,10,GATE*%
%TO.N,Net-(Q1-G)*%
X64650000Y-125937500D03*
%TO.P,U2,11,VIN*%
%TO.N,/V_BAT*%
X64650000Y-125137500D03*
%TO.P,U2,12,CS*%
%TO.N,/Bias_CS*%
X64650000Y-124337500D03*
D27*
%TO.P,U2,13,PAN*%
%TO.N,GND*%
X62650000Y-125137500D03*
%TD*%
D28*
%TO.P,C12,1*%
%TO.N,Net-(J2-In)*%
X61787500Y-97350000D03*
%TO.P,C12,2*%
%TO.N,GND*%
X63862500Y-97350000D03*
%TD*%
D13*
%TO.P,R2,1*%
%TO.N,Net-(U2-DACOUT)*%
X58387500Y-129462500D03*
%TO.P,R2,2*%
%TO.N,Net-(U2-FB)*%
X56387500Y-129462500D03*
%TD*%
D14*
%TO.P,R9,1*%
%TO.N,/SCL*%
X80950000Y-109050000D03*
%TO.P,R9,2*%
%TO.N,/3v3*%
X82950000Y-109050000D03*
%TD*%
D24*
%TO.P,C4,1*%
%TO.N,Net-(D1-K)*%
X58375000Y-125162500D03*
%TO.P,C4,2*%
%TO.N,GND*%
X56300000Y-125162500D03*
%TD*%
D29*
%TO.P,L1,1,1*%
%TO.N,/V_BAT*%
X68400000Y-131450000D03*
%TO.P,L1,2,2*%
%TO.N,Net-(D1-A)*%
X68400000Y-128400000D03*
%TD*%
D16*
%TO.P,R6,1*%
%TO.N,Net-(U3-~{CS})*%
X84150000Y-122750000D03*
%TO.P,R6,2*%
%TO.N,/3v3*%
X84150000Y-124750000D03*
%TD*%
D14*
%TO.P,R5,1*%
%TO.N,Net-(U2-FB)*%
X60450000Y-129537500D03*
%TO.P,R5,2*%
%TO.N,GND*%
X62450000Y-129537500D03*
%TD*%
%TO.P,R12,1*%
%TO.N,Net-(R11-Pad2)*%
X72100000Y-129972120D03*
%TO.P,R12,2*%
%TO.N,Net-(Q2-D)*%
X74100000Y-129972120D03*
%TD*%
D30*
%TO.P,J8,1,Pin_1*%
%TO.N,unconnected-(J8-Pin_1-Pad1)*%
X76290000Y-93935000D03*
%TO.P,J8,2,Pin_2*%
%TO.N,unconnected-(J8-Pin_2-Pad2)*%
X74290000Y-93935000D03*
%TO.P,J8,3,Pin_3*%
%TO.N,/SWDIO*%
X72290000Y-93935000D03*
%TO.P,J8,4,Pin_4*%
%TO.N,/SWCLK*%
X70290000Y-93935000D03*
%TO.P,J8,5,Pin_5*%
%TO.N,unconnected-(J8-Pin_5-Pad5)*%
X68290000Y-93935000D03*
%TD*%
D25*
%TO.P,U5,1,SCL/SPC*%
%TO.N,/SCL*%
X73500000Y-121000000D03*
%TO.P,U5,2,CS_XL*%
%TO.N,Net-(U5-CS_MAG)*%
X74000000Y-121000000D03*
%TO.P,U5,3,CS_MAG*%
X74500000Y-121000000D03*
%TO.P,U5,4,SDA/SDI/SDO*%
%TO.N,/SDA*%
X75000000Y-121000000D03*
D26*
%TO.P,U5,5,C1*%
%TO.N,Net-(U5-C1)*%
X75550000Y-119950000D03*
%TO.P,U5,6,GND*%
%TO.N,GND*%
X75550000Y-119450000D03*
D25*
%TO.P,U5,7,INT_MAG/DRDY*%
%TO.N,unconnected-(U5-INT_MAG{slash}DRDY-Pad7)*%
X75000000Y-118400000D03*
%TO.P,U5,8,GND*%
%TO.N,GND*%
X74500000Y-118400000D03*
D31*
%TO.P,U5,9,VDD*%
%TO.N,/3v3*%
X73987500Y-118400000D03*
D25*
%TO.P,U5,10,VDD_IO*%
X73500000Y-118400000D03*
D26*
%TO.P,U5,11,INT_2_XL*%
%TO.N,unconnected-(U5-INT_2_XL-Pad11)*%
X72950000Y-119450000D03*
%TO.P,U5,12,INT_1_XL*%
%TO.N,/ACCEL_INT*%
X72950000Y-119950000D03*
%TD*%
D28*
%TO.P,C7,1*%
%TO.N,/V_BAT*%
X76725000Y-132322120D03*
%TO.P,C7,2*%
%TO.N,GND*%
X78800000Y-132322120D03*
%TD*%
D32*
%TO.P,J5,1,Pin_1*%
%TO.N,/3v3*%
X56462500Y-141750000D03*
D33*
%TO.P,J5,2,Pin_2*%
%TO.N,/SiPM_Temp*%
X57462500Y-143750000D03*
%TO.P,J5,3,Pin_3*%
%TO.N,/SiPM_Bias*%
X58462500Y-141750000D03*
%TO.P,J5,4,Pin_4*%
%TO.N,GND*%
X59462500Y-143750000D03*
%TO.P,J5,5,Pin_5*%
%TO.N,/SiPM_Signal*%
X60462500Y-141750000D03*
%TO.P,J5,6,Pin_6*%
%TO.N,/V_BAT*%
X61462500Y-143750000D03*
%TD*%
D28*
%TO.P,C8,1*%
%TO.N,/V_BAT*%
X76687500Y-134322120D03*
%TO.P,C8,2*%
%TO.N,GND*%
X78762500Y-134322120D03*
%TD*%
D32*
%TO.P,J4,1,Pin_1*%
%TO.N,/V_BAT*%
X67262500Y-141750000D03*
D33*
%TO.P,J4,2,Pin_2*%
%TO.N,GND*%
X68262500Y-143750000D03*
%TO.P,J4,3,Pin_3*%
%TO.N,/Stim_Enable*%
X69262500Y-141750000D03*
%TO.P,J4,4,Pin_4*%
%TO.N,/Anneal_Enable*%
X70262500Y-143750000D03*
%TD*%
D13*
%TO.P,R13,1*%
%TO.N,/Battery_Monitor*%
X74100000Y-127972120D03*
%TO.P,R13,2*%
%TO.N,Net-(R11-Pad2)*%
X72100000Y-127972120D03*
%TD*%
D34*
%TO.P,U6,1,VIN*%
%TO.N,/V_BAT*%
X76625000Y-128372120D03*
%TO.P,U6,2,GND*%
%TO.N,GND*%
X76625000Y-129322120D03*
%TO.P,U6,3,EN*%
%TO.N,/V_BAT*%
X76625000Y-130272120D03*
%TO.P,U6,4,NC*%
%TO.N,unconnected-(U6-NC-Pad4)*%
X78900000Y-130272120D03*
%TO.P,U6,5,VOUT*%
%TO.N,/3v3*%
X78900000Y-128372120D03*
%TD*%
D24*
%TO.P,C2,1*%
%TO.N,/V_BAT*%
X69337500Y-133700000D03*
%TO.P,C2,2*%
%TO.N,GND*%
X67262500Y-133700000D03*
%TD*%
D28*
%TO.P,C6,1*%
%TO.N,Net-(U5-C1)*%
X77525000Y-118750000D03*
%TO.P,C6,2*%
%TO.N,GND*%
X79600000Y-118750000D03*
%TD*%
D13*
%TO.P,R3,1*%
%TO.N,Net-(D1-K)*%
X58325000Y-127212500D03*
%TO.P,R3,2*%
%TO.N,/SiPM_Bias*%
X56325000Y-127212500D03*
%TD*%
D35*
%TO.P,Q1,1,G*%
%TO.N,Net-(Q1-G)*%
X68637500Y-125900000D03*
%TO.P,Q1,2,S*%
%TO.N,GND*%
X68637500Y-124000000D03*
%TO.P,Q1,3,D*%
%TO.N,Net-(D1-A)*%
X66762500Y-124950000D03*
%TD*%
D24*
%TO.P,C1,1*%
%TO.N,/3v3*%
X83037500Y-111100000D03*
%TO.P,C1,2*%
%TO.N,GND*%
X80962500Y-111100000D03*
%TD*%
D36*
%TO.P,J3,*%
%TO.N,*%
X77000000Y-143450000D03*
X83700000Y-143450000D03*
D37*
%TO.P,J3,1,Pin_1*%
%TO.N,/V_BAT*%
X79350000Y-137950000D03*
%TO.P,J3,2,Pin_2*%
%TO.N,GND*%
X81350000Y-137950000D03*
%TD*%
D28*
%TO.P,C5,1*%
%TO.N,/SiPM_Bias*%
X56387500Y-133612500D03*
%TO.P,C5,2*%
%TO.N,GND*%
X58462500Y-133612500D03*
%TD*%
D14*
%TO.P,R8,1*%
%TO.N,Net-(U5-CS_MAG)*%
X77550000Y-120750000D03*
%TO.P,R8,2*%
%TO.N,/3v3*%
X79550000Y-120750000D03*
%TD*%
%TO.P,R16,1*%
%TO.N,Net-(J2-In)*%
X61862500Y-99350000D03*
%TO.P,R16,2*%
%TO.N,/ANT*%
X63862500Y-99350000D03*
%TD*%
D24*
%TO.P,C9,1*%
%TO.N,/3v3*%
X78837500Y-124322120D03*
%TO.P,C9,2*%
%TO.N,GND*%
X76762500Y-124322120D03*
%TD*%
D38*
%TO.P,D1,1,K*%
%TO.N,Net-(D1-K)*%
X66850000Y-121900000D03*
%TO.P,D1,2,A*%
%TO.N,Net-(D1-A)*%
X70150000Y-121900000D03*
%TD*%
D13*
%TO.P,R11,1*%
%TO.N,/V_BAT*%
X74100000Y-131972120D03*
%TO.P,R11,2*%
%TO.N,Net-(R11-Pad2)*%
X72100000Y-131972120D03*
%TD*%
D39*
%TO.P,D2,1,K*%
%TO.N,/Status_LED*%
X71500000Y-100425000D03*
%TO.P,D2,2,A*%
%TO.N,Net-(D2-A)*%
X71500000Y-98375000D03*
%TD*%
D14*
%TO.P,R10,1*%
%TO.N,/SDA*%
X80950000Y-107050000D03*
%TO.P,R10,2*%
%TO.N,/3v3*%
X82950000Y-107050000D03*
%TD*%
D40*
%TO.P,Q2,1,G*%
%TO.N,/Battery_Monitor_Enable*%
X72225000Y-124022120D03*
%TO.P,Q2,2,S*%
%TO.N,GND*%
X72225000Y-125922120D03*
%TO.P,Q2,3,D*%
%TO.N,Net-(Q2-D)*%
X74100000Y-124972120D03*
%TD*%
D24*
%TO.P,C3,1*%
%TO.N,Net-(C3-Pad1)*%
X62518750Y-133581250D03*
%TO.P,C3,2*%
%TO.N,GND*%
X60443750Y-133581250D03*
%TD*%
D41*
%TO.N,GND*%
X76850000Y-116200000D03*
X56600000Y-123200000D03*
X68350000Y-109200000D03*
%TO.N,/ACCEL_INT*%
X69250000Y-106000000D03*
%TO.N,GND*%
X63850000Y-105700000D03*
X80850000Y-112700000D03*
X73350000Y-110700000D03*
X71350000Y-106700000D03*
%TO.N,/Battery_Monitor*%
X74600000Y-105450000D03*
%TO.N,GND*%
X77350000Y-98450000D03*
X58350000Y-115450000D03*
X75850000Y-136450000D03*
X81350000Y-141200000D03*
X57100000Y-100950000D03*
X63850000Y-141950000D03*
X63850000Y-116950000D03*
%TO.N,/MISO*%
X68600000Y-112950000D03*
%TO.N,/3v3*%
X57100000Y-110950000D03*
X68362500Y-99450000D03*
X69162500Y-118150000D03*
X58862500Y-121850000D03*
X61262500Y-118950000D03*
%TO.N,GND*%
X80462500Y-125350000D03*
X67662500Y-119650000D03*
X60462500Y-135150000D03*
X75550000Y-123350000D03*
X72200000Y-124950000D03*
X76050000Y-118100000D03*
X66600000Y-116700000D03*
X79600000Y-117000000D03*
X84400000Y-121300000D03*
%TO.N,/Stim_Enable*%
X71150000Y-117350000D03*
%TO.N,/Anneal_Enable*%
X72150000Y-117350000D03*
%TO.N,/SiPM_Temp*%
X70650000Y-110800000D03*
%TO.N,/SiPM_Signal*%
X70250000Y-112250000D03*
%TO.N,/SWDIO*%
X73200000Y-96750000D03*
X75900000Y-110250000D03*
%TO.N,/SWCLK*%
X71192111Y-96751456D03*
X75900000Y-109200000D03*
%TO.N,/USB_RX*%
X74346971Y-96777794D03*
%TO.N,/USB_TX*%
X72191988Y-96767294D03*
%TO.N,/RST*%
X70193930Y-96691140D03*
%TO.N,/SCL*%
X81950000Y-117850000D03*
X74250000Y-122600000D03*
X79675000Y-107950000D03*
%TO.N,/SDA*%
X75850000Y-121000000D03*
X81225000Y-121000000D03*
X79550000Y-106650000D03*
%TO.N,/MOSI*%
X63850000Y-113700000D03*
X62712347Y-121759773D03*
X56962500Y-117750000D03*
X70550000Y-105150000D03*
%TO.N,/ACCEL_INT*%
X71664950Y-119925000D03*
%TO.N,/SCK*%
X58050000Y-117750000D03*
X63800000Y-121822120D03*
%TO.N,/MISO*%
X61700000Y-114450000D03*
%TO.N,/Bias_CS*%
X65016958Y-121999504D03*
X65250113Y-119550000D03*
%TD*%
D42*
%TO.N,/3v3*%
X58862500Y-121850000D02*
X56200000Y-121850000D01*
X54287500Y-139575000D02*
X56462500Y-141750000D01*
X56200000Y-121850000D02*
X54287500Y-123762500D01*
X54287500Y-123762500D02*
X54287500Y-139575000D01*
%TO.N,/ACCEL_INT*%
X69250000Y-106000000D02*
X69250000Y-103175000D01*
%TO.N,/Anneal_Enable*%
X73225000Y-117350000D02*
X72150000Y-117350000D01*
X74250000Y-115175000D02*
X74250000Y-116325000D01*
X74250000Y-116325000D02*
X73225000Y-117350000D01*
D43*
%TO.N,/SiPM_Bias*%
X58600000Y-136435000D02*
X56402500Y-136435000D01*
X56402500Y-136435000D02*
X56387500Y-136450000D01*
X56387500Y-134950000D02*
X56387500Y-136450000D01*
X56387500Y-136450000D02*
X56387500Y-139185050D01*
X56387500Y-133612500D02*
X56387500Y-134950000D01*
D42*
%TO.N,/RST*%
X62925000Y-103375000D02*
X62925000Y-107525000D01*
%TO.N,/Boot_Mode*%
X59175000Y-103375000D02*
X59175000Y-107525000D01*
%TO.N,/3v3*%
X82950000Y-109050000D02*
X82950000Y-111012500D01*
X82950000Y-111012500D02*
X83037500Y-111100000D01*
X77750000Y-112925000D02*
X78250000Y-113425000D01*
X78250000Y-113425000D02*
X82375000Y-113425000D01*
X82375000Y-113425000D02*
X83037500Y-112762500D01*
X83037500Y-112762500D02*
X83037500Y-111100000D01*
D44*
%TO.N,/SWDIO*%
X77750000Y-110425000D02*
X76075000Y-110425000D01*
D42*
%TO.N,/Battery_Monitor*%
X71100000Y-108950000D02*
X74600000Y-105450000D01*
D44*
%TO.N,/SWDIO*%
X76075000Y-110425000D02*
X75900000Y-110250000D01*
D43*
%TO.N,Net-(D1-A)*%
X68962932Y-128400000D02*
X68400000Y-128400000D01*
X70475000Y-126887932D02*
X68962932Y-128400000D01*
X70475000Y-124750000D02*
X70475000Y-126887932D01*
D42*
%TO.N,/Anneal_Enable*%
X70262500Y-143750000D02*
X73340000Y-143750000D01*
X73340000Y-143750000D02*
X73600000Y-143490000D01*
%TO.N,/Stim_Enable*%
X69262500Y-141750000D02*
X72800000Y-141750000D01*
X72800000Y-141750000D02*
X73600000Y-140950000D01*
D43*
%TO.N,/V_BAT*%
X69477880Y-137950000D02*
X76850000Y-137950000D01*
X76850000Y-137950000D02*
X79350000Y-137950000D01*
D42*
X76687500Y-134322120D02*
X76687500Y-137787500D01*
X76687500Y-137787500D02*
X76850000Y-137950000D01*
%TO.N,/MISO*%
X71925000Y-112950000D02*
X73000000Y-114025000D01*
X73000000Y-114025000D02*
X73000000Y-115175000D01*
%TO.N,/Battery_Monitor*%
X67650000Y-112950000D02*
X67650000Y-112400000D01*
X67650000Y-112400000D02*
X71100000Y-108950000D01*
%TO.N,/MISO*%
X71925000Y-112950000D02*
X68600000Y-112950000D01*
%TO.N,/SiPM_Signal*%
X71350000Y-110675000D02*
X71350000Y-111150000D01*
X77750000Y-105425000D02*
X76600000Y-105425000D01*
X71350000Y-111150000D02*
X70250000Y-112250000D01*
X76600000Y-105425000D02*
X71350000Y-110675000D01*
%TO.N,/Battery_Monitor*%
X69100000Y-113700000D02*
X68100000Y-113700000D01*
X68100000Y-113700000D02*
X67650000Y-113250000D01*
X67650000Y-113250000D02*
X67650000Y-112950000D01*
X70500000Y-115175000D02*
X70500000Y-114025000D01*
X70500000Y-114025000D02*
X70175000Y-113700000D01*
X70175000Y-113700000D02*
X69100000Y-113700000D01*
%TO.N,/SiPM_Signal*%
X82115000Y-102950000D02*
X79640000Y-105425000D01*
X79640000Y-105425000D02*
X77750000Y-105425000D01*
X82100000Y-102950000D02*
X82115000Y-102950000D01*
%TO.N,/SiPM_Temp*%
X75500000Y-103175000D02*
X79350000Y-103175000D01*
X79350000Y-103175000D02*
X79575000Y-102950000D01*
%TO.N,/3v3*%
X81835000Y-127950000D02*
X81835000Y-125065000D01*
X81835000Y-125065000D02*
X82150000Y-124750000D01*
D44*
X78837500Y-126322120D02*
X78837500Y-128309620D01*
%TO.N,/RST*%
X65750000Y-107925000D02*
X64375000Y-107925000D01*
X64375000Y-107925000D02*
X62850000Y-109450000D01*
%TO.N,/Memory_CS*%
X61799570Y-112750000D02*
X60355000Y-112750000D01*
%TO.N,/Boot_Mode*%
X62125000Y-110475000D02*
X61775000Y-110125000D01*
%TO.N,/Memory_CS*%
X64124570Y-110425000D02*
X61799570Y-112750000D01*
%TO.N,/Boot_Mode*%
X63438174Y-110475000D02*
X62125000Y-110475000D01*
X61775000Y-108761826D02*
X61438174Y-108425000D01*
%TO.N,/Memory_CS*%
X65750000Y-110425000D02*
X64124570Y-110425000D01*
%TO.N,/Boot_Mode*%
X59175000Y-107525000D02*
X59175000Y-108450000D01*
X64738174Y-109175000D02*
X63438174Y-110475000D01*
X59175000Y-108450000D02*
X59175000Y-109375000D01*
X65750000Y-109175000D02*
X64738174Y-109175000D01*
X61438174Y-108425000D02*
X59200000Y-108425000D01*
X61775000Y-110125000D02*
X61775000Y-108761826D01*
X59200000Y-108425000D02*
X59175000Y-108450000D01*
X59175000Y-109375000D02*
X59100000Y-109450000D01*
D42*
%TO.N,/3v3*%
X57100000Y-110950000D02*
X59350000Y-110950000D01*
X59350000Y-110950000D02*
X60850000Y-109450000D01*
X57100000Y-110950000D02*
X57100000Y-109450000D01*
X68450000Y-99450000D02*
X69450000Y-98450000D01*
D44*
X73500000Y-118400000D02*
X73250000Y-118150000D01*
D42*
X60355000Y-120357500D02*
X60355000Y-119950000D01*
D44*
X78837500Y-128309620D02*
X78900000Y-128372120D01*
X78687500Y-118037500D02*
X78687500Y-119887500D01*
X78687500Y-119887500D02*
X79550000Y-120750000D01*
X77750000Y-117300000D02*
X77950000Y-117300000D01*
X82950000Y-107050000D02*
X82950000Y-109050000D01*
X61262500Y-119042500D02*
X60355000Y-119950000D01*
D42*
X84400000Y-119050000D02*
X85199264Y-119050000D01*
D44*
X73987500Y-117527880D02*
X74215380Y-117300000D01*
X61262500Y-118950000D02*
X61262500Y-119042500D01*
X78837500Y-124322120D02*
X79550000Y-124322120D01*
X82150000Y-124750000D02*
X84150000Y-124750000D01*
X77750000Y-112925000D02*
X77750000Y-117300000D01*
X78837500Y-124322120D02*
X78837500Y-126322120D01*
D42*
X85199264Y-119050000D02*
X85450000Y-119300736D01*
X85450000Y-119300736D02*
X85450000Y-123450000D01*
D44*
X79550000Y-124322120D02*
X81722120Y-124322120D01*
X74215380Y-117300000D02*
X77750000Y-117300000D01*
X73987500Y-118400000D02*
X73987500Y-117527880D01*
X73500000Y-118400000D02*
X73987500Y-118400000D01*
X81722120Y-124322120D02*
X82150000Y-124750000D01*
X73250000Y-118150000D02*
X69162500Y-118150000D01*
D42*
X84400000Y-119050000D02*
X84100000Y-119050000D01*
X60850000Y-109350000D02*
X60900000Y-109300000D01*
X84100000Y-119050000D02*
X83300000Y-118250000D01*
D44*
X77950000Y-117300000D02*
X78687500Y-118037500D01*
D42*
X85450000Y-123450000D02*
X84150000Y-124750000D01*
X68362500Y-99450000D02*
X68450000Y-99450000D01*
X58862500Y-121850000D02*
X60355000Y-120357500D01*
D44*
X79550000Y-120750000D02*
X79550000Y-124322120D01*
%TO.N,GND*%
X84400000Y-119550000D02*
X84400000Y-120050000D01*
X63450000Y-125937500D02*
X63450000Y-127137500D01*
D42*
X75550000Y-119450000D02*
X74700736Y-119450000D01*
D44*
X79900000Y-119050000D02*
X79600000Y-118750000D01*
X60443750Y-133581250D02*
X60443750Y-133543750D01*
X84400000Y-120050000D02*
X84400000Y-121000000D01*
X76050000Y-118100000D02*
X76050000Y-118950000D01*
D42*
X74700736Y-119450000D02*
X74500000Y-119249264D01*
D44*
X81700000Y-119050000D02*
X79900000Y-119050000D01*
D42*
X74500000Y-119249264D02*
X74500000Y-118400000D01*
D44*
X76050000Y-118950000D02*
X75550000Y-119450000D01*
X76762500Y-124322120D02*
X76762500Y-126322120D01*
X62650000Y-125137500D02*
X63450000Y-125937500D01*
D43*
%TO.N,/V_BAT*%
X69337500Y-133700000D02*
X69337500Y-132387500D01*
D42*
X65201104Y-125137500D02*
X65627208Y-125563604D01*
D44*
X76172120Y-130272120D02*
X76625000Y-130272120D01*
X75637500Y-128697120D02*
X75637500Y-129737500D01*
X74100000Y-131972120D02*
X76375000Y-131972120D01*
D42*
X66475736Y-127350000D02*
X66300000Y-127525736D01*
D44*
X76625000Y-128372120D02*
X75962500Y-128372120D01*
D42*
X69675000Y-125563604D02*
X69675000Y-126236396D01*
X65627208Y-125563604D02*
X67600000Y-125563604D01*
X64650000Y-125137500D02*
X65201104Y-125137500D01*
D44*
X75962500Y-128372120D02*
X75637500Y-128697120D01*
D43*
X69337500Y-132387500D02*
X68400000Y-131450000D01*
D42*
X66300000Y-129350000D02*
X68400000Y-131450000D01*
D44*
X76625000Y-130272120D02*
X76625000Y-132222120D01*
D42*
X69675000Y-126236396D02*
X68561396Y-127350000D01*
X67863604Y-125300000D02*
X69411396Y-125300000D01*
X69411396Y-125300000D02*
X69675000Y-125563604D01*
D44*
X76625000Y-132222120D02*
X76725000Y-132322120D01*
X75637500Y-129737500D02*
X76172120Y-130272120D01*
D42*
X68561396Y-127350000D02*
X66475736Y-127350000D01*
D43*
X67262500Y-141750000D02*
X67262500Y-139909620D01*
X61462500Y-143750000D02*
X65262500Y-143750000D01*
X69337500Y-133700000D02*
X69337500Y-137809620D01*
D44*
X76725000Y-132322120D02*
X76725000Y-134284620D01*
X76725000Y-134284620D02*
X76687500Y-134322120D01*
D42*
X67600000Y-125563604D02*
X67863604Y-125300000D01*
X66300000Y-127525736D02*
X66300000Y-129350000D01*
D44*
X76375000Y-131972120D02*
X76725000Y-132322120D01*
D43*
X67262500Y-139909620D02*
X69350000Y-137822120D01*
X65262500Y-143750000D02*
X67262500Y-141750000D01*
D44*
%TO.N,Net-(C3-Pad1)*%
X60468750Y-131531250D02*
X62518750Y-133581250D01*
X60456250Y-131531250D02*
X60468750Y-131531250D01*
D43*
%TO.N,Net-(D1-K)*%
X58375000Y-125162500D02*
X58375000Y-127162500D01*
X65600000Y-120650000D02*
X66850000Y-121900000D01*
X58375000Y-123932082D02*
X59303541Y-123003541D01*
D42*
X59316041Y-123003541D02*
X59303541Y-123003541D01*
D43*
X59850000Y-122457082D02*
X59850000Y-122450000D01*
X59850000Y-122450000D02*
X59857082Y-122450000D01*
X58375000Y-127162500D02*
X58325000Y-127212500D01*
D42*
X60650000Y-124337500D02*
X59316041Y-123003541D01*
D43*
X59303541Y-123003541D02*
X59850000Y-122457082D01*
X59857082Y-122450000D02*
X61657082Y-120650000D01*
X58375000Y-125162500D02*
X58375000Y-123932082D01*
X61657082Y-120650000D02*
X65600000Y-120650000D01*
D44*
%TO.N,/SiPM_Bias*%
X60650000Y-125137500D02*
X60065380Y-125137500D01*
X60065380Y-125137500D02*
X59250000Y-125952880D01*
X58976104Y-128237500D02*
X57350000Y-128237500D01*
D43*
X55087500Y-130812500D02*
X55087500Y-128450000D01*
X55787500Y-131512500D02*
X55087500Y-130812500D01*
X56387500Y-139185050D02*
X58462500Y-141260050D01*
D44*
X57350000Y-128237500D02*
X56325000Y-127212500D01*
D43*
X58462500Y-141260050D02*
X58462500Y-141750000D01*
X56387500Y-131512500D02*
X55787500Y-131512500D01*
D44*
X59250000Y-127963604D02*
X58976104Y-128237500D01*
D43*
X56387500Y-133612500D02*
X56387500Y-131512500D01*
X55087500Y-128450000D02*
X56325000Y-127212500D01*
D44*
X59250000Y-125952880D02*
X59250000Y-127963604D01*
%TO.N,Net-(U5-C1)*%
X76434620Y-119950000D02*
X77525000Y-118859620D01*
X77525000Y-118859620D02*
X77525000Y-118750000D01*
X75550000Y-119950000D02*
X76434620Y-119950000D01*
%TO.N,/ANT*%
X63862500Y-99350000D02*
X63862500Y-101275000D01*
D42*
X65750000Y-105425000D02*
X63937500Y-103612500D01*
X63937500Y-103612500D02*
X63937500Y-101350000D01*
D44*
X63937500Y-101350000D02*
X64395000Y-101350000D01*
X63862500Y-101275000D02*
X63937500Y-101350000D01*
%TO.N,Net-(J2-In)*%
X62887500Y-95375000D02*
X62887500Y-96250000D01*
X61787500Y-99275000D02*
X61862500Y-99350000D01*
X61787500Y-97350000D02*
X61787500Y-99275000D01*
X62887500Y-96250000D02*
X61787500Y-97350000D01*
D45*
%TO.N,Net-(D1-A)*%
X66762500Y-124950000D02*
X66962500Y-124750000D01*
X66962500Y-124750000D02*
X70475000Y-124750000D01*
D43*
X70475000Y-122225000D02*
X70475000Y-124750000D01*
X70150000Y-121900000D02*
X70475000Y-122225000D01*
D44*
%TO.N,/Status_LED*%
X71500000Y-100425000D02*
X71500000Y-102925000D01*
X71500000Y-102925000D02*
X71750000Y-103175000D01*
%TO.N,Net-(D2-A)*%
X71500000Y-98375000D02*
X71500000Y-98400000D01*
X71500000Y-98400000D02*
X69450000Y-100450000D01*
D42*
%TO.N,/Stim_Enable*%
X71750000Y-116750000D02*
X71150000Y-117350000D01*
X71750000Y-115175000D02*
X71750000Y-116750000D01*
%TO.N,/SiPM_Temp*%
X75500000Y-103175000D02*
X75500000Y-105950000D01*
X75500000Y-105950000D02*
X70650000Y-110800000D01*
D44*
%TO.N,/SWDIO*%
X72290000Y-93935000D02*
X72290000Y-95840000D01*
X72290000Y-95840000D02*
X73200000Y-96750000D01*
%TO.N,/SWCLK*%
X75900000Y-109200000D02*
X77725000Y-109200000D01*
X71192111Y-94837111D02*
X71192111Y-96751456D01*
X70290000Y-93935000D02*
X71192111Y-94837111D01*
X77725000Y-109200000D02*
X77750000Y-109175000D01*
%TO.N,/USB_RX*%
X74250000Y-103175000D02*
X74250000Y-96874765D01*
X74250000Y-96874765D02*
X74346971Y-96777794D01*
%TO.N,/USB_TX*%
X73000000Y-97575306D02*
X72191988Y-96767294D01*
X73000000Y-103175000D02*
X73000000Y-97575306D01*
%TO.N,/RST*%
X67175000Y-99111826D02*
X69595686Y-96691140D01*
X65750000Y-107925000D02*
X66900000Y-107925000D01*
X69595686Y-96691140D02*
X70193930Y-96691140D01*
X67225000Y-107600000D02*
X67225000Y-104525000D01*
X66900000Y-107925000D02*
X67225000Y-107600000D01*
X67175000Y-104475000D02*
X67175000Y-99111826D01*
X63000000Y-109200000D02*
X62900000Y-109300000D01*
X63000000Y-107450000D02*
X63000000Y-109200000D01*
X67225000Y-104525000D02*
X67175000Y-104475000D01*
D45*
%TO.N,Net-(Q1-G)*%
X68637500Y-125900000D02*
X68337500Y-126200000D01*
X68337500Y-126200000D02*
X64912500Y-126200000D01*
X64912500Y-126200000D02*
X64650000Y-125937500D01*
D42*
%TO.N,/Battery_Monitor_Enable*%
X69250000Y-116225064D02*
X69250000Y-115175000D01*
X72225000Y-124022120D02*
X72225000Y-122349936D01*
X68012500Y-117462564D02*
X69250000Y-116225064D01*
X72225000Y-122349936D02*
X69175064Y-119300000D01*
X68686155Y-119300000D02*
X68012500Y-118626345D01*
X68012500Y-118626345D02*
X68012500Y-117462564D01*
X69175064Y-119300000D02*
X68686155Y-119300000D01*
D44*
%TO.N,Net-(Q2-D)*%
X73175000Y-129047120D02*
X73175000Y-126422120D01*
X74100000Y-125497120D02*
X74100000Y-124972120D01*
X74100000Y-129972120D02*
X73175000Y-129047120D01*
X73175000Y-126422120D02*
X74100000Y-125497120D01*
%TO.N,Net-(U2-COMP)*%
X61525000Y-128847120D02*
X61525000Y-130600000D01*
X62650000Y-127137500D02*
X62650000Y-127722120D01*
X62650000Y-127722120D02*
X61525000Y-128847120D01*
X61525000Y-130600000D02*
X62456250Y-131531250D01*
%TO.N,Net-(U2-DACOUT)*%
X59700000Y-126887500D02*
X60650000Y-125937500D01*
X58387500Y-129462500D02*
X59700000Y-128150000D01*
X59700000Y-128150000D02*
X59700000Y-126887500D01*
%TO.N,Net-(U2-FB)*%
X58387500Y-131512500D02*
X58387500Y-131462500D01*
X58475000Y-131512500D02*
X58387500Y-131512500D01*
X61850000Y-127137500D02*
X60450000Y-128537500D01*
X58387500Y-131462500D02*
X56387500Y-129462500D01*
X60450000Y-128537500D02*
X60450000Y-129537500D01*
X60450000Y-129537500D02*
X58475000Y-131512500D01*
%TO.N,Net-(U3-~{CS})*%
X82800000Y-120850000D02*
X82800000Y-121684620D01*
X82800000Y-121684620D02*
X83865380Y-122750000D01*
X83865380Y-122750000D02*
X84150000Y-122750000D01*
%TO.N,Net-(U3-SDO{slash}DNC{slash}SA0)*%
X82150000Y-120500000D02*
X82150000Y-122750000D01*
X81700000Y-120050000D02*
X82150000Y-120500000D01*
D42*
%TO.N,Net-(U5-CS_MAG)*%
X74500000Y-121000000D02*
X74500000Y-121849264D01*
X74500000Y-121849264D02*
X74700736Y-122050000D01*
X74000000Y-121000000D02*
X74500000Y-121000000D01*
X74700736Y-122050000D02*
X76250000Y-122050000D01*
X76250000Y-122050000D02*
X77550000Y-120750000D01*
D44*
%TO.N,/SCL*%
X82400000Y-117850000D02*
X82800000Y-118250000D01*
X79650000Y-107925000D02*
X79675000Y-107950000D01*
X80350000Y-109050000D02*
X79675000Y-108375000D01*
X77750000Y-107925000D02*
X79650000Y-107925000D01*
X79675000Y-108375000D02*
X79675000Y-107950000D01*
X74215380Y-122600000D02*
X74250000Y-122600000D01*
X80950000Y-109050000D02*
X80350000Y-109050000D01*
X81950000Y-117850000D02*
X82400000Y-117850000D01*
X73500000Y-121884620D02*
X74215380Y-122600000D01*
X73500000Y-121000000D02*
X73500000Y-121884620D01*
%TO.N,/SDA*%
X79550000Y-106650000D02*
X79575000Y-106675000D01*
D42*
X80650000Y-119800736D02*
X80650000Y-120425000D01*
X75000000Y-121000000D02*
X75850000Y-121000000D01*
D44*
X79525000Y-106675000D02*
X79550000Y-106650000D01*
D42*
X80650000Y-120425000D02*
X81225000Y-121000000D01*
X81700000Y-119550000D02*
X80900736Y-119550000D01*
D44*
X80575000Y-106675000D02*
X80950000Y-107050000D01*
D42*
X80900736Y-119550000D02*
X80650000Y-119800736D01*
D44*
X79575000Y-106675000D02*
X80575000Y-106675000D01*
X77750000Y-106675000D02*
X79525000Y-106675000D01*
%TO.N,Net-(R11-Pad2)*%
X72100000Y-131972120D02*
X72100000Y-129972120D01*
X72100000Y-127972120D02*
X72100000Y-129972120D01*
%TO.N,/Battery_Monitor*%
X70500000Y-116325000D02*
X70500000Y-115175000D01*
X69600000Y-117225000D02*
X70500000Y-116325000D01*
X68862195Y-118875000D02*
X68437500Y-118450305D01*
X75200000Y-124623896D02*
X69451104Y-118875000D01*
X69451104Y-118875000D02*
X68862195Y-118875000D01*
X68437500Y-117649695D02*
X68862195Y-117225000D01*
X75200000Y-126872120D02*
X75200000Y-124623896D01*
X68437500Y-118450305D02*
X68437500Y-117649695D01*
X68862195Y-117225000D02*
X69600000Y-117225000D01*
X74100000Y-127972120D02*
X75200000Y-126872120D01*
%TO.N,/MOSI*%
X60600000Y-116950000D02*
X57626752Y-116950000D01*
X62650000Y-123137500D02*
X62650000Y-121822120D01*
X57626752Y-116950000D02*
X56962500Y-117614252D01*
X63850000Y-113700000D02*
X60600000Y-116950000D01*
X56962500Y-117614252D02*
X56962500Y-117750000D01*
X56550000Y-118162500D02*
X56962500Y-117750000D01*
X70550000Y-105150000D02*
X70550000Y-103225000D01*
X70550000Y-103225000D02*
X70500000Y-103175000D01*
X56550000Y-119945000D02*
X56550000Y-118162500D01*
X62650000Y-121822120D02*
X62712347Y-121759773D01*
X62650000Y-122537500D02*
X62600000Y-122587500D01*
D42*
%TO.N,/ACCEL_INT*%
X72950000Y-119950000D02*
X71689950Y-119950000D01*
X71689950Y-119950000D02*
X71664950Y-119925000D01*
D44*
%TO.N,/SCK*%
X60925000Y-117750000D02*
X58050000Y-117750000D01*
X58050000Y-117750000D02*
X58050000Y-119715000D01*
X65750000Y-112925000D02*
X60925000Y-117750000D01*
X63450000Y-122172120D02*
X63800000Y-121822120D01*
X58050000Y-119715000D02*
X57815000Y-119950000D01*
X63450000Y-123137500D02*
X63450000Y-122172120D01*
%TO.N,/MISO*%
X59085000Y-113550000D02*
X59985000Y-114450000D01*
X59985000Y-114450000D02*
X61700000Y-114450000D01*
X59085000Y-112750000D02*
X59085000Y-113550000D01*
%TO.N,/Bias_CS*%
X67225000Y-112000000D02*
X67225000Y-113559620D01*
X65750000Y-111675000D02*
X66900000Y-111675000D01*
X64650000Y-124337500D02*
X65016958Y-123970542D01*
X66900000Y-111675000D02*
X67225000Y-112000000D01*
X65250113Y-115534507D02*
X65250113Y-119550000D01*
X65016958Y-123970542D02*
X65016958Y-121999504D01*
X67225000Y-113559620D02*
X65250113Y-115534507D01*
%TD*%
%TA.AperFunction,Conductor*%
%TO.N,GND*%
G36*
X67347183Y-91469685D02*
G01*
X67392938Y-91522489D01*
X67402882Y-91591647D01*
X67379410Y-91648312D01*
X67346204Y-91692668D01*
X67346202Y-91692671D01*
X67295908Y-91827517D01*
X67289591Y-91886276D01*
X67289501Y-91887123D01*
X67289500Y-91887135D01*
X67289500Y-95982870D01*
X67289501Y-95982876D01*
X67295908Y-96042483D01*
X67346202Y-96177328D01*
X67346206Y-96177335D01*
X67432452Y-96292544D01*
X67432455Y-96292547D01*
X67547664Y-96378793D01*
X67547671Y-96378797D01*
X67682517Y-96429091D01*
X67682516Y-96429091D01*
X67689444Y-96429835D01*
X67742127Y-96435500D01*
X68667373Y-96435499D01*
X68734412Y-96455183D01*
X68780167Y-96507987D01*
X68790111Y-96577146D01*
X68761086Y-96640702D01*
X68755054Y-96647180D01*
X66791208Y-98611025D01*
X66778951Y-98620846D01*
X66779134Y-98621067D01*
X66773123Y-98626039D01*
X66725772Y-98676462D01*
X66704889Y-98697345D01*
X66704877Y-98697358D01*
X66700621Y-98702843D01*
X66696837Y-98707273D01*
X66664937Y-98741244D01*
X66664936Y-98741246D01*
X66655284Y-98758802D01*
X66644610Y-98775052D01*
X66632329Y-98790887D01*
X66632324Y-98790894D01*
X66613815Y-98833664D01*
X66611245Y-98838910D01*
X66588803Y-98879732D01*
X66583822Y-98899133D01*
X66577521Y-98917536D01*
X66569562Y-98935928D01*
X66569561Y-98935931D01*
X66562271Y-98981953D01*
X66561087Y-98987672D01*
X66549501Y-99032798D01*
X66549500Y-99032808D01*
X66549500Y-99052842D01*
X66547973Y-99072241D01*
X66544840Y-99092020D01*
X66544840Y-99092021D01*
X66549225Y-99138409D01*
X66549500Y-99144247D01*
X66549500Y-104300500D01*
X66529815Y-104367539D01*
X66477011Y-104413294D01*
X66425500Y-104424500D01*
X65650097Y-104424500D01*
X65583058Y-104404815D01*
X65562416Y-104388181D01*
X64574319Y-103400084D01*
X64540834Y-103338761D01*
X64538000Y-103312403D01*
X64538000Y-102613767D01*
X64557685Y-102546728D01*
X64596901Y-102508230D01*
X64743656Y-102417712D01*
X64867712Y-102293656D01*
X64959814Y-102144334D01*
X65014999Y-101977797D01*
X65025500Y-101875009D01*
X65025499Y-100824992D01*
X65014999Y-100722203D01*
X64959814Y-100555666D01*
X64867712Y-100406344D01*
X64845857Y-100384489D01*
X64812372Y-100323166D01*
X64817356Y-100253474D01*
X64827996Y-100231716D01*
X64897314Y-100119334D01*
X64952499Y-99952797D01*
X64963000Y-99850009D01*
X64962999Y-98849992D01*
X64961604Y-98836340D01*
X64952499Y-98747203D01*
X64952498Y-98747200D01*
X64938562Y-98705145D01*
X64897314Y-98580666D01*
X64805212Y-98431344D01*
X64805206Y-98431338D01*
X64804008Y-98429822D01*
X64803507Y-98428580D01*
X64801420Y-98425197D01*
X64801997Y-98424840D01*
X64777863Y-98365028D01*
X64790899Y-98296385D01*
X64795731Y-98287808D01*
X64884353Y-98144130D01*
X64884358Y-98144119D01*
X64939505Y-97977697D01*
X64939506Y-97977690D01*
X64949999Y-97874986D01*
X64950000Y-97874973D01*
X64950000Y-97600000D01*
X63736500Y-97600000D01*
X63669461Y-97580315D01*
X63623706Y-97527511D01*
X63612500Y-97476000D01*
X63612500Y-97224000D01*
X63632185Y-97156961D01*
X63684989Y-97111206D01*
X63736500Y-97100000D01*
X64949999Y-97100000D01*
X64949999Y-96825028D01*
X64949998Y-96825013D01*
X64939505Y-96722302D01*
X64884358Y-96555880D01*
X64884356Y-96555875D01*
X64792315Y-96406654D01*
X64668345Y-96282684D01*
X64519124Y-96190643D01*
X64519119Y-96190641D01*
X64352697Y-96135494D01*
X64352690Y-96135493D01*
X64249986Y-96125000D01*
X64007002Y-96125000D01*
X63939963Y-96105315D01*
X63894208Y-96052511D01*
X63883713Y-95987744D01*
X63883738Y-95987518D01*
X63888000Y-95947873D01*
X63888000Y-95574000D01*
X63907685Y-95506961D01*
X63960489Y-95461206D01*
X64012000Y-95450000D01*
X64112500Y-95450000D01*
X64112500Y-94100000D01*
X64612500Y-94100000D01*
X64612500Y-95450000D01*
X64935328Y-95450000D01*
X64935344Y-95449999D01*
X64994872Y-95443598D01*
X64994879Y-95443596D01*
X65129586Y-95393354D01*
X65129593Y-95393350D01*
X65244687Y-95307190D01*
X65244690Y-95307187D01*
X65330850Y-95192093D01*
X65330854Y-95192086D01*
X65381096Y-95057379D01*
X65381098Y-95057372D01*
X65387499Y-94997844D01*
X65387500Y-94997827D01*
X65387500Y-94100000D01*
X64612500Y-94100000D01*
X64112500Y-94100000D01*
X63337500Y-94100000D01*
X63337500Y-94225500D01*
X63317815Y-94292539D01*
X63265011Y-94338294D01*
X63213500Y-94349500D01*
X62561500Y-94349500D01*
X62494461Y-94329815D01*
X62448706Y-94277011D01*
X62437500Y-94225500D01*
X62437500Y-94100000D01*
X61662500Y-94100000D01*
X61662500Y-95450000D01*
X61763001Y-95450000D01*
X61830040Y-95469685D01*
X61875795Y-95522489D01*
X61887001Y-95574000D01*
X61887001Y-95947878D01*
X61891233Y-95987248D01*
X61878825Y-96056007D01*
X61831214Y-96107143D01*
X61767943Y-96124500D01*
X61399998Y-96124500D01*
X61399980Y-96124501D01*
X61297203Y-96135000D01*
X61297200Y-96135001D01*
X61130668Y-96190185D01*
X61130663Y-96190187D01*
X60981342Y-96282289D01*
X60857289Y-96406342D01*
X60765187Y-96555663D01*
X60765185Y-96555668D01*
X60756122Y-96583020D01*
X60710001Y-96722203D01*
X60710001Y-96722204D01*
X60710000Y-96722204D01*
X60699500Y-96824983D01*
X60699500Y-97875001D01*
X60699501Y-97875019D01*
X60710000Y-97977796D01*
X60710001Y-97977799D01*
X60756381Y-98117763D01*
X60765186Y-98144334D01*
X60832164Y-98252924D01*
X60857289Y-98293657D01*
X60879142Y-98315510D01*
X60912627Y-98376833D01*
X60907643Y-98446525D01*
X60897000Y-98468287D01*
X60827690Y-98580659D01*
X60827685Y-98580668D01*
X60805015Y-98649082D01*
X60772501Y-98747203D01*
X60772501Y-98747204D01*
X60772500Y-98747204D01*
X60762000Y-98849983D01*
X60762000Y-99850001D01*
X60762001Y-99850019D01*
X60772500Y-99952796D01*
X60772501Y-99952799D01*
X60827685Y-100119331D01*
X60827686Y-100119334D01*
X60919788Y-100268656D01*
X60919791Y-100268659D01*
X60920993Y-100270179D01*
X60921494Y-100271421D01*
X60923580Y-100274803D01*
X60923002Y-100275159D01*
X60947136Y-100334973D01*
X60934099Y-100403616D01*
X60929269Y-100412191D01*
X60840643Y-100555875D01*
X60840641Y-100555880D01*
X60785494Y-100722302D01*
X60785493Y-100722309D01*
X60775000Y-100825013D01*
X60775000Y-101100000D01*
X61988500Y-101100000D01*
X62055539Y-101119685D01*
X62101294Y-101172489D01*
X62112500Y-101224000D01*
X62112500Y-102588003D01*
X62130342Y-102620679D01*
X62125358Y-102690369D01*
X62105909Y-102742514D01*
X62105908Y-102742516D01*
X62099501Y-102802116D01*
X62099500Y-102802135D01*
X62099500Y-103947870D01*
X62099501Y-103947876D01*
X62105908Y-104007483D01*
X62156202Y-104142328D01*
X62156203Y-104142329D01*
X62156204Y-104142331D01*
X62242452Y-104257543D01*
X62242451Y-104257543D01*
X62242452Y-104257544D01*
X62242454Y-104257546D01*
X62274812Y-104281769D01*
X62316681Y-104337700D01*
X62324500Y-104381034D01*
X62324500Y-106518964D01*
X62304815Y-106586003D01*
X62274812Y-106618230D01*
X62242457Y-106642450D01*
X62242451Y-106642457D01*
X62156206Y-106757664D01*
X62156202Y-106757671D01*
X62105908Y-106892517D01*
X62101781Y-106930909D01*
X62099501Y-106952123D01*
X62099500Y-106952135D01*
X62099500Y-107901419D01*
X62079815Y-107968458D01*
X62027011Y-108014213D01*
X61957853Y-108024157D01*
X61894297Y-107995132D01*
X61890627Y-107991821D01*
X61873537Y-107975772D01*
X61866223Y-107968458D01*
X61852650Y-107954884D01*
X61847160Y-107950625D01*
X61842735Y-107946847D01*
X61808756Y-107914938D01*
X61808754Y-107914936D01*
X61808751Y-107914935D01*
X61791203Y-107905288D01*
X61774937Y-107894604D01*
X61759107Y-107882325D01*
X61716342Y-107863818D01*
X61711096Y-107861248D01*
X61664264Y-107835503D01*
X61638273Y-107809364D01*
X61636319Y-107811319D01*
X61600000Y-107775000D01*
X60649000Y-107775000D01*
X60581961Y-107755315D01*
X60536206Y-107702511D01*
X60525000Y-107651000D01*
X60525000Y-106500000D01*
X61025000Y-106500000D01*
X61025000Y-107275000D01*
X61600000Y-107275000D01*
X61600000Y-106952172D01*
X61599999Y-106952155D01*
X61593598Y-106892627D01*
X61593596Y-106892620D01*
X61543354Y-106757913D01*
X61543350Y-106757906D01*
X61457190Y-106642812D01*
X61457187Y-106642809D01*
X61342093Y-106556649D01*
X61342086Y-106556645D01*
X61207379Y-106506403D01*
X61207372Y-106506401D01*
X61147844Y-106500000D01*
X61025000Y-106500000D01*
X60525000Y-106500000D01*
X60402155Y-106500000D01*
X60342627Y-106506401D01*
X60342620Y-106506403D01*
X60207913Y-106556645D01*
X60207906Y-106556649D01*
X60092812Y-106642809D01*
X60074578Y-106667167D01*
X60018644Y-106709037D01*
X59948952Y-106714021D01*
X59887629Y-106680535D01*
X59876046Y-106667167D01*
X59857546Y-106642454D01*
X59857542Y-106642450D01*
X59825188Y-106618230D01*
X59783318Y-106562296D01*
X59775500Y-106518964D01*
X59775500Y-104381034D01*
X59795185Y-104313995D01*
X59825185Y-104281770D01*
X59857546Y-104257546D01*
X59863734Y-104249280D01*
X59876045Y-104232835D01*
X59931978Y-104190963D01*
X60001670Y-104185979D01*
X60062993Y-104219463D01*
X60074578Y-104232833D01*
X60092812Y-104257190D01*
X60207906Y-104343350D01*
X60207913Y-104343354D01*
X60342620Y-104393596D01*
X60342627Y-104393598D01*
X60402155Y-104399999D01*
X60402172Y-104400000D01*
X60525000Y-104400000D01*
X60525000Y-103625000D01*
X61025000Y-103625000D01*
X61025000Y-104400000D01*
X61147828Y-104400000D01*
X61147844Y-104399999D01*
X61207372Y-104393598D01*
X61207379Y-104393596D01*
X61342086Y-104343354D01*
X61342093Y-104343350D01*
X61457187Y-104257190D01*
X61457190Y-104257187D01*
X61543350Y-104142093D01*
X61543354Y-104142086D01*
X61593596Y-104007379D01*
X61593598Y-104007372D01*
X61599999Y-103947844D01*
X61600000Y-103947827D01*
X61600000Y-103625000D01*
X61025000Y-103625000D01*
X60525000Y-103625000D01*
X60525000Y-102350000D01*
X60402155Y-102350000D01*
X60342627Y-102356401D01*
X60342620Y-102356403D01*
X60207913Y-102406645D01*
X60207906Y-102406649D01*
X60092812Y-102492809D01*
X60074578Y-102517167D01*
X60018644Y-102559037D01*
X59948952Y-102564021D01*
X59887629Y-102530535D01*
X59876046Y-102517167D01*
X59857546Y-102492454D01*
X59857544Y-102492453D01*
X59857544Y-102492452D01*
X59742335Y-102406206D01*
X59742328Y-102406202D01*
X59607486Y-102355910D01*
X59607485Y-102355909D01*
X59607483Y-102355909D01*
X59547873Y-102349500D01*
X59547863Y-102349500D01*
X58802129Y-102349500D01*
X58802123Y-102349501D01*
X58742516Y-102355908D01*
X58607671Y-102406202D01*
X58607664Y-102406206D01*
X58492455Y-102492452D01*
X58492452Y-102492455D01*
X58406206Y-102607664D01*
X58406202Y-102607671D01*
X58355908Y-102742517D01*
X58349501Y-102802116D01*
X58349500Y-102802135D01*
X58349500Y-103947870D01*
X58349501Y-103947876D01*
X58355908Y-104007483D01*
X58406202Y-104142328D01*
X58406203Y-104142329D01*
X58406204Y-104142331D01*
X58492452Y-104257543D01*
X58492451Y-104257543D01*
X58492452Y-104257544D01*
X58492454Y-104257546D01*
X58524812Y-104281769D01*
X58566681Y-104337700D01*
X58574500Y-104381034D01*
X58574500Y-106518964D01*
X58554815Y-106586003D01*
X58524812Y-106618230D01*
X58492457Y-106642450D01*
X58492451Y-106642457D01*
X58406206Y-106757664D01*
X58406202Y-106757671D01*
X58355908Y-106892517D01*
X58351781Y-106930909D01*
X58349501Y-106952123D01*
X58349500Y-106952135D01*
X58349500Y-108097870D01*
X58349501Y-108097876D01*
X58355908Y-108157483D01*
X58382122Y-108227765D01*
X58387106Y-108297457D01*
X58353621Y-108358780D01*
X58331038Y-108376636D01*
X58281344Y-108407287D01*
X58281343Y-108407288D01*
X58187681Y-108500951D01*
X58126358Y-108534436D01*
X58056666Y-108529452D01*
X58012319Y-108500951D01*
X57918656Y-108407288D01*
X57918652Y-108407285D01*
X57868528Y-108376368D01*
X57821803Y-108324420D01*
X57810582Y-108255458D01*
X57817444Y-108227495D01*
X57843596Y-108157380D01*
X57843598Y-108157372D01*
X57849999Y-108097844D01*
X57850000Y-108097827D01*
X57850000Y-107775000D01*
X56200000Y-107775000D01*
X56200000Y-108097844D01*
X56206401Y-108157372D01*
X56206402Y-108157376D01*
X56256650Y-108292095D01*
X56260899Y-108299877D01*
X56257905Y-108301511D01*
X56276565Y-108351559D01*
X56261705Y-108419830D01*
X56240562Y-108448070D01*
X56157287Y-108531345D01*
X56065187Y-108680663D01*
X56065186Y-108680666D01*
X56010001Y-108847203D01*
X56010001Y-108847204D01*
X56010000Y-108847204D01*
X55999500Y-108949983D01*
X55999500Y-109950001D01*
X55999501Y-109950019D01*
X56010000Y-110052796D01*
X56010001Y-110052799D01*
X56065185Y-110219331D01*
X56065187Y-110219336D01*
X56157289Y-110368657D01*
X56243007Y-110454375D01*
X56276492Y-110515698D01*
X56273257Y-110580374D01*
X56253523Y-110641110D01*
X56214326Y-110761744D01*
X56194540Y-110950000D01*
X56214326Y-111138256D01*
X56214327Y-111138259D01*
X56274829Y-111324465D01*
X56272015Y-111325379D01*
X56279628Y-111381855D01*
X56250044Y-111445152D01*
X56191647Y-111482202D01*
X56134805Y-111498716D01*
X56134803Y-111498717D01*
X55993447Y-111582314D01*
X55993438Y-111582321D01*
X55877321Y-111698438D01*
X55877314Y-111698447D01*
X55793717Y-111839803D01*
X55793716Y-111839806D01*
X55747900Y-111997504D01*
X55747899Y-111997510D01*
X55745000Y-112034356D01*
X55745000Y-112500000D01*
X56671000Y-112500000D01*
X56738039Y-112519685D01*
X56783794Y-112572489D01*
X56795000Y-112624000D01*
X56795000Y-114047295D01*
X56795001Y-114047295D01*
X56797486Y-114047100D01*
X56955198Y-114001281D01*
X57096550Y-113917686D01*
X57102717Y-113912903D01*
X57104630Y-113915369D01*
X57153222Y-113888802D01*
X57222917Y-113893749D01*
X57255762Y-113914853D01*
X57256969Y-113913298D01*
X57263132Y-113918078D01*
X57263135Y-113918081D01*
X57404602Y-114001744D01*
X57409872Y-114003275D01*
X57562426Y-114047597D01*
X57562429Y-114047597D01*
X57562431Y-114047598D01*
X57574722Y-114048565D01*
X57599304Y-114050500D01*
X57599306Y-114050500D01*
X58030696Y-114050500D01*
X58049131Y-114049049D01*
X58067569Y-114047598D01*
X58067571Y-114047597D01*
X58067573Y-114047597D01*
X58122028Y-114031776D01*
X58225398Y-114001744D01*
X58366865Y-113918081D01*
X58366870Y-113918075D01*
X58373031Y-113913298D01*
X58374933Y-113915750D01*
X58423579Y-113889155D01*
X58493274Y-113894104D01*
X58525695Y-113914940D01*
X58526969Y-113913298D01*
X58533129Y-113918075D01*
X58533135Y-113918081D01*
X58564145Y-113936420D01*
X58591916Y-113952844D01*
X58618687Y-113977195D01*
X58620066Y-113975901D01*
X58625405Y-113981587D01*
X58661309Y-114011288D01*
X58665621Y-114015211D01*
X58874946Y-114224536D01*
X59484197Y-114833788D01*
X59494022Y-114846051D01*
X59494243Y-114845869D01*
X59499214Y-114851878D01*
X59525217Y-114876295D01*
X59549635Y-114899226D01*
X59570529Y-114920120D01*
X59576011Y-114924373D01*
X59580443Y-114928157D01*
X59614418Y-114960062D01*
X59631976Y-114969714D01*
X59648235Y-114980395D01*
X59664064Y-114992673D01*
X59706838Y-115011182D01*
X59712056Y-115013738D01*
X59752908Y-115036197D01*
X59772316Y-115041180D01*
X59790717Y-115047480D01*
X59809104Y-115055437D01*
X59852488Y-115062308D01*
X59855119Y-115062725D01*
X59860839Y-115063909D01*
X59905981Y-115075500D01*
X59926016Y-115075500D01*
X59945414Y-115077026D01*
X59965194Y-115080159D01*
X59965195Y-115080160D01*
X59965195Y-115080159D01*
X59965196Y-115080160D01*
X60011584Y-115075775D01*
X60017422Y-115075500D01*
X60996252Y-115075500D01*
X61063291Y-115095185D01*
X61088400Y-115116526D01*
X61091561Y-115120036D01*
X61094129Y-115122888D01*
X61236376Y-115226236D01*
X61279042Y-115281566D01*
X61285021Y-115351179D01*
X61252416Y-115412974D01*
X61251172Y-115414235D01*
X60377228Y-116288181D01*
X60315905Y-116321666D01*
X60289547Y-116324500D01*
X57709489Y-116324500D01*
X57693872Y-116322776D01*
X57693845Y-116323062D01*
X57686083Y-116322327D01*
X57616955Y-116324500D01*
X57587402Y-116324500D01*
X57586681Y-116324590D01*
X57580509Y-116325369D01*
X57574697Y-116325826D01*
X57528125Y-116327290D01*
X57528124Y-116327290D01*
X57508881Y-116332881D01*
X57489831Y-116336825D01*
X57469963Y-116339334D01*
X57469961Y-116339335D01*
X57426636Y-116356488D01*
X57421109Y-116358380D01*
X57376362Y-116371381D01*
X57376361Y-116371382D01*
X57359119Y-116381579D01*
X57341651Y-116390137D01*
X57323021Y-116397513D01*
X57323019Y-116397514D01*
X57285328Y-116424898D01*
X57280446Y-116428105D01*
X57240331Y-116451830D01*
X57226160Y-116466000D01*
X57211375Y-116478628D01*
X57195164Y-116490407D01*
X57165461Y-116526310D01*
X57161529Y-116530631D01*
X56861832Y-116830327D01*
X56800509Y-116863812D01*
X56799933Y-116863936D01*
X56682696Y-116888856D01*
X56682692Y-116888857D01*
X56509770Y-116965848D01*
X56509765Y-116965851D01*
X56356629Y-117077111D01*
X56229966Y-117217785D01*
X56135321Y-117381715D01*
X56135318Y-117381722D01*
X56085355Y-117535494D01*
X56076826Y-117561744D01*
X56058746Y-117733768D01*
X56058249Y-117738499D01*
X56043588Y-117785278D01*
X56030285Y-117809474D01*
X56019610Y-117825726D01*
X56007329Y-117841561D01*
X56007324Y-117841568D01*
X55988815Y-117884338D01*
X55986245Y-117889584D01*
X55963803Y-117930406D01*
X55958822Y-117949807D01*
X55952521Y-117968210D01*
X55944562Y-117986602D01*
X55944561Y-117986605D01*
X55937271Y-118032627D01*
X55936087Y-118038346D01*
X55924501Y-118083472D01*
X55924500Y-118083482D01*
X55924500Y-118103516D01*
X55922973Y-118122915D01*
X55919840Y-118142694D01*
X55919840Y-118142695D01*
X55924225Y-118189083D01*
X55924500Y-118194921D01*
X55924500Y-118799191D01*
X55904815Y-118866230D01*
X55888181Y-118886872D01*
X55876923Y-118898129D01*
X55876917Y-118898137D01*
X55793255Y-119039603D01*
X55793254Y-119039606D01*
X55747402Y-119197426D01*
X55747401Y-119197432D01*
X55744500Y-119234304D01*
X55744500Y-120665696D01*
X55747401Y-120702567D01*
X55747402Y-120702573D01*
X55793254Y-120860393D01*
X55793255Y-120860396D01*
X55793256Y-120860398D01*
X55830681Y-120923681D01*
X55876917Y-121001862D01*
X55876923Y-121001870D01*
X55980441Y-121105388D01*
X56013926Y-121166711D01*
X56008942Y-121236403D01*
X55967070Y-121292336D01*
X55940213Y-121307630D01*
X55897161Y-121325462D01*
X55804174Y-121396814D01*
X55771716Y-121421719D01*
X55750023Y-121449989D01*
X55744671Y-121456092D01*
X53893596Y-123307168D01*
X53887494Y-123312519D01*
X53859220Y-123334215D01*
X53859218Y-123334218D01*
X53774954Y-123444033D01*
X53768959Y-123451846D01*
X53762964Y-123459658D01*
X53702456Y-123605737D01*
X53702455Y-123605739D01*
X53682674Y-123755995D01*
X53681818Y-123762500D01*
X53684695Y-123784356D01*
X53686469Y-123797826D01*
X53687000Y-123805928D01*
X53687000Y-139531571D01*
X53686469Y-139539673D01*
X53681818Y-139574999D01*
X53681818Y-139575000D01*
X53687000Y-139614360D01*
X53702455Y-139731760D01*
X53702456Y-139731762D01*
X53760368Y-139871575D01*
X53762964Y-139877841D01*
X53859218Y-140003282D01*
X53887495Y-140024980D01*
X53893585Y-140030320D01*
X54544623Y-140681358D01*
X55175681Y-141312416D01*
X55209166Y-141373739D01*
X55212000Y-141400097D01*
X55212000Y-142547870D01*
X55212001Y-142547876D01*
X55218408Y-142607483D01*
X55268702Y-142742328D01*
X55268706Y-142742335D01*
X55354952Y-142857544D01*
X55354955Y-142857547D01*
X55470164Y-142943793D01*
X55470171Y-142943797D01*
X55605017Y-142994091D01*
X55605016Y-142994091D01*
X55611944Y-142994835D01*
X55664627Y-143000500D01*
X56237582Y-143000499D01*
X56304621Y-143020183D01*
X56350376Y-143072987D01*
X56360320Y-143142146D01*
X56349964Y-143176903D01*
X56282927Y-143320663D01*
X56282922Y-143320677D01*
X56226293Y-143532020D01*
X56226293Y-143532024D01*
X56207223Y-143749997D01*
X56207223Y-143750002D01*
X56226293Y-143967975D01*
X56226293Y-143967979D01*
X56282922Y-144179322D01*
X56282924Y-144179326D01*
X56282925Y-144179330D01*
X56308517Y-144234212D01*
X56375397Y-144377638D01*
X56381826Y-144386819D01*
X56500902Y-144556877D01*
X56655623Y-144711598D01*
X56834861Y-144837102D01*
X57033170Y-144929575D01*
X57244523Y-144986207D01*
X57427426Y-145002208D01*
X57462498Y-145005277D01*
X57462500Y-145005277D01*
X57462502Y-145005277D01*
X57490754Y-145002805D01*
X57680477Y-144986207D01*
X57891830Y-144929575D01*
X58090139Y-144837102D01*
X58269377Y-144711598D01*
X58424098Y-144556877D01*
X58549602Y-144377639D01*
X58600037Y-144269479D01*
X58624733Y-144234212D01*
X59064545Y-143794399D01*
X59077335Y-143875148D01*
X59134859Y-143988045D01*
X59224455Y-144077641D01*
X59337352Y-144135165D01*
X59418099Y-144147953D01*
X58772926Y-144793124D01*
X58835111Y-144836666D01*
X58835113Y-144836667D01*
X59033340Y-144929101D01*
X59033349Y-144929105D01*
X59244605Y-144985710D01*
X59244615Y-144985712D01*
X59462499Y-145004775D01*
X59462501Y-145004775D01*
X59680384Y-144985712D01*
X59680394Y-144985710D01*
X59891650Y-144929105D01*
X59891659Y-144929101D01*
X60089887Y-144836666D01*
X60152072Y-144793124D01*
X59506901Y-144147953D01*
X59587648Y-144135165D01*
X59700545Y-144077641D01*
X59790141Y-143988045D01*
X59847665Y-143875148D01*
X59860453Y-143794400D01*
X60300264Y-144234211D01*
X60324965Y-144269487D01*
X60375396Y-144377636D01*
X60375397Y-144377638D01*
X60375398Y-144377639D01*
X60500902Y-144556877D01*
X60655623Y-144711598D01*
X60834861Y-144837102D01*
X61033170Y-144929575D01*
X61244523Y-144986207D01*
X61427426Y-145002208D01*
X61462498Y-145005277D01*
X61462500Y-145005277D01*
X61462502Y-145005277D01*
X61490754Y-145002805D01*
X61680477Y-144986207D01*
X61891830Y-144929575D01*
X62090139Y-144837102D01*
X62109021Y-144823880D01*
X62181794Y-144772925D01*
X62248000Y-144750598D01*
X62252917Y-144750500D01*
X65249784Y-144750500D01*
X65338858Y-144752757D01*
X65338858Y-144752756D01*
X65338863Y-144752757D01*
X65399253Y-144741932D01*
X65403912Y-144741280D01*
X65446107Y-144736988D01*
X65464938Y-144735074D01*
X65497727Y-144724786D01*
X65505340Y-144722918D01*
X65539153Y-144716858D01*
X65596121Y-144694101D01*
X65600553Y-144692524D01*
X65659088Y-144674159D01*
X65689127Y-144657484D01*
X65696208Y-144654122D01*
X65728117Y-144641377D01*
X65779354Y-144607608D01*
X65783351Y-144605187D01*
X65837002Y-144575409D01*
X65863068Y-144553030D01*
X65869343Y-144548300D01*
X65898019Y-144529402D01*
X65941392Y-144486027D01*
X65944850Y-144482823D01*
X65948113Y-144480020D01*
X65991395Y-144442866D01*
X66012428Y-144415691D01*
X66017598Y-144409821D01*
X66798496Y-143628923D01*
X66859814Y-143595441D01*
X66929505Y-143600425D01*
X66985439Y-143642296D01*
X67009856Y-143707761D01*
X67009700Y-143727411D01*
X67007725Y-143749993D01*
X67007725Y-143750000D01*
X67026787Y-143967884D01*
X67026789Y-143967894D01*
X67083394Y-144179150D01*
X67083398Y-144179159D01*
X67175835Y-144377391D01*
X67219373Y-144439571D01*
X67219374Y-144439572D01*
X67864546Y-143794400D01*
X67877335Y-143875148D01*
X67934859Y-143988045D01*
X68024455Y-144077641D01*
X68137352Y-144135165D01*
X68218099Y-144147953D01*
X67572926Y-144793124D01*
X67635111Y-144836666D01*
X67635113Y-144836667D01*
X67833340Y-144929101D01*
X67833349Y-144929105D01*
X68044605Y-144985710D01*
X68044615Y-144985712D01*
X68262499Y-145004775D01*
X68262501Y-145004775D01*
X68480384Y-144985712D01*
X68480394Y-144985710D01*
X68691650Y-144929105D01*
X68691659Y-144929101D01*
X68889887Y-144836666D01*
X68952072Y-144793124D01*
X68306901Y-144147953D01*
X68387648Y-144135165D01*
X68500545Y-144077641D01*
X68590141Y-143988045D01*
X68647665Y-143875148D01*
X68660453Y-143794400D01*
X69100264Y-144234211D01*
X69124965Y-144269487D01*
X69175396Y-144377636D01*
X69175397Y-144377638D01*
X69175398Y-144377639D01*
X69300902Y-144556877D01*
X69455623Y-144711598D01*
X69634861Y-144837102D01*
X69833170Y-144929575D01*
X70044523Y-144986207D01*
X70227426Y-145002208D01*
X70262498Y-145005277D01*
X70262500Y-145005277D01*
X70262502Y-145005277D01*
X70290754Y-145002805D01*
X70480477Y-144986207D01*
X70691830Y-144929575D01*
X70890139Y-144837102D01*
X71069377Y-144711598D01*
X71224098Y-144556877D01*
X71331581Y-144403374D01*
X71386157Y-144359751D01*
X71433155Y-144350500D01*
X72499242Y-144350500D01*
X72566281Y-144370185D01*
X72586923Y-144386819D01*
X72728599Y-144528495D01*
X72769764Y-144557319D01*
X72922165Y-144664032D01*
X72922167Y-144664033D01*
X72922170Y-144664035D01*
X73136337Y-144763903D01*
X73364592Y-144825063D01*
X73552918Y-144841539D01*
X73599999Y-144845659D01*
X73600000Y-144845659D01*
X73600001Y-144845659D01*
X73639234Y-144842226D01*
X73835408Y-144825063D01*
X74063663Y-144763903D01*
X74277830Y-144664035D01*
X74471401Y-144528495D01*
X74638495Y-144361401D01*
X74774035Y-144167830D01*
X74873903Y-143953663D01*
X74935063Y-143725408D01*
X74955659Y-143490000D01*
X74935063Y-143254592D01*
X74882278Y-143057592D01*
X74873905Y-143026344D01*
X74873904Y-143026343D01*
X74873903Y-143026337D01*
X74774035Y-142812171D01*
X74730152Y-142749500D01*
X74638496Y-142618600D01*
X74582077Y-142562181D01*
X74516567Y-142496671D01*
X74483084Y-142435351D01*
X74488068Y-142365659D01*
X74529939Y-142309725D01*
X74560915Y-142292810D01*
X74692331Y-142243796D01*
X74807546Y-142157546D01*
X74893796Y-142042331D01*
X74944091Y-141907483D01*
X74950500Y-141847873D01*
X74950499Y-140052128D01*
X74944091Y-139992517D01*
X74925374Y-139942335D01*
X74893797Y-139857671D01*
X74893793Y-139857664D01*
X74807547Y-139742455D01*
X74807544Y-139742452D01*
X74692335Y-139656206D01*
X74692328Y-139656202D01*
X74557482Y-139605908D01*
X74557483Y-139605908D01*
X74497883Y-139599501D01*
X74497881Y-139599500D01*
X74497873Y-139599500D01*
X74497864Y-139599500D01*
X72702129Y-139599500D01*
X72702123Y-139599501D01*
X72642516Y-139605908D01*
X72507671Y-139656202D01*
X72507664Y-139656206D01*
X72392455Y-139742452D01*
X72392452Y-139742455D01*
X72306206Y-139857664D01*
X72306202Y-139857671D01*
X72255908Y-139992517D01*
X72249501Y-140052116D01*
X72249500Y-140052127D01*
X72249500Y-140599515D01*
X72249501Y-141025500D01*
X72229817Y-141092539D01*
X72177013Y-141138294D01*
X72125501Y-141149500D01*
X70433155Y-141149500D01*
X70366116Y-141129815D01*
X70331580Y-141096623D01*
X70224099Y-140943124D01*
X70152841Y-140871866D01*
X70069377Y-140788402D01*
X69916503Y-140681358D01*
X69890138Y-140662897D01*
X69790984Y-140616661D01*
X69691830Y-140570425D01*
X69691826Y-140570424D01*
X69691822Y-140570422D01*
X69480477Y-140513793D01*
X69262502Y-140494723D01*
X69262498Y-140494723D01*
X69117182Y-140507436D01*
X69044523Y-140513793D01*
X69044520Y-140513793D01*
X68833177Y-140570422D01*
X68833168Y-140570426D01*
X68634863Y-140662897D01*
X68634857Y-140662901D01*
X68569557Y-140708623D01*
X68503351Y-140730950D01*
X68435584Y-140713938D01*
X68399170Y-140681359D01*
X68370046Y-140642454D01*
X68346100Y-140624528D01*
X68312688Y-140599515D01*
X68270818Y-140543581D01*
X68263000Y-140500249D01*
X68263000Y-140375402D01*
X68282685Y-140308363D01*
X68299319Y-140287721D01*
X69600221Y-138986819D01*
X69661544Y-138953334D01*
X69687902Y-138950500D01*
X76748259Y-138950500D01*
X78225501Y-138950500D01*
X78292540Y-138970185D01*
X78338295Y-139022989D01*
X78349501Y-139074500D01*
X78349501Y-139747876D01*
X78355908Y-139807483D01*
X78406202Y-139942328D01*
X78406206Y-139942335D01*
X78492452Y-140057544D01*
X78492455Y-140057547D01*
X78607664Y-140143793D01*
X78607671Y-140143797D01*
X78742517Y-140194091D01*
X78742516Y-140194091D01*
X78749444Y-140194835D01*
X78802127Y-140200500D01*
X79897872Y-140200499D01*
X79957483Y-140194091D01*
X80092331Y-140143796D01*
X80207546Y-140057546D01*
X80251046Y-139999436D01*
X80306979Y-139957567D01*
X80376671Y-139952583D01*
X80437994Y-139986068D01*
X80449578Y-139999438D01*
X80492809Y-140057187D01*
X80492812Y-140057190D01*
X80607906Y-140143350D01*
X80607913Y-140143354D01*
X80742620Y-140193596D01*
X80742627Y-140193598D01*
X80802155Y-140199999D01*
X80802172Y-140200000D01*
X81100000Y-140200000D01*
X81100000Y-138200000D01*
X81600000Y-138200000D01*
X81600000Y-140200000D01*
X81897828Y-140200000D01*
X81897844Y-140199999D01*
X81957372Y-140193598D01*
X81957379Y-140193596D01*
X82092086Y-140143354D01*
X82092093Y-140143350D01*
X82207187Y-140057190D01*
X82207190Y-140057187D01*
X82293350Y-139942093D01*
X82293354Y-139942086D01*
X82343596Y-139807379D01*
X82343598Y-139807372D01*
X82349999Y-139747844D01*
X82350000Y-139747827D01*
X82350000Y-138200000D01*
X81600000Y-138200000D01*
X81100000Y-138200000D01*
X81100000Y-135700000D01*
X81600000Y-135700000D01*
X81600000Y-137700000D01*
X82350000Y-137700000D01*
X82350000Y-136152172D01*
X82349999Y-136152155D01*
X82343598Y-136092627D01*
X82343596Y-136092620D01*
X82293354Y-135957913D01*
X82293350Y-135957906D01*
X82207190Y-135842812D01*
X82207187Y-135842809D01*
X82092093Y-135756649D01*
X82092086Y-135756645D01*
X81957379Y-135706403D01*
X81957372Y-135706401D01*
X81897844Y-135700000D01*
X81600000Y-135700000D01*
X81100000Y-135700000D01*
X80802155Y-135700000D01*
X80742627Y-135706401D01*
X80742620Y-135706403D01*
X80607913Y-135756645D01*
X80607906Y-135756649D01*
X80492812Y-135842809D01*
X80449578Y-135900562D01*
X80393644Y-135942432D01*
X80323952Y-135947416D01*
X80262629Y-135913930D01*
X80251046Y-135900562D01*
X80207814Y-135842812D01*
X80207546Y-135842454D01*
X80207544Y-135842453D01*
X80207544Y-135842452D01*
X80092335Y-135756206D01*
X80092328Y-135756202D01*
X79957482Y-135705908D01*
X79957483Y-135705908D01*
X79897883Y-135699501D01*
X79897881Y-135699500D01*
X79897873Y-135699500D01*
X79897865Y-135699500D01*
X79502889Y-135699500D01*
X79435850Y-135679815D01*
X79390095Y-135627011D01*
X79380151Y-135557853D01*
X79409176Y-135494297D01*
X79437793Y-135469961D01*
X79568343Y-135389437D01*
X79692315Y-135265465D01*
X79784356Y-135116244D01*
X79784358Y-135116239D01*
X79839505Y-134949817D01*
X79839506Y-134949810D01*
X79849999Y-134847106D01*
X79850000Y-134847093D01*
X79850000Y-134572120D01*
X78636500Y-134572120D01*
X78569461Y-134552435D01*
X78523706Y-134499631D01*
X78512500Y-134448120D01*
X78512500Y-134072120D01*
X79012500Y-134072120D01*
X79849999Y-134072120D01*
X79849999Y-133797148D01*
X79849998Y-133797133D01*
X79839505Y-133694422D01*
X79784358Y-133528000D01*
X79784356Y-133527995D01*
X79714866Y-133415334D01*
X79696426Y-133347941D01*
X79717349Y-133281278D01*
X79725550Y-133271293D01*
X79725339Y-133271127D01*
X79729815Y-133265466D01*
X79820919Y-133117763D01*
X81008287Y-133117763D01*
X81037913Y-133387013D01*
X81037915Y-133387024D01*
X81090227Y-133587120D01*
X81106428Y-133649088D01*
X81212370Y-133898390D01*
X81339231Y-134106259D01*
X81353479Y-134129605D01*
X81353486Y-134129615D01*
X81526753Y-134337819D01*
X81526759Y-134337824D01*
X81728498Y-134518582D01*
X81954410Y-134668044D01*
X82199676Y-134783020D01*
X82199683Y-134783022D01*
X82199685Y-134783023D01*
X82459057Y-134861057D01*
X82459064Y-134861058D01*
X82459069Y-134861060D01*
X82727061Y-134900500D01*
X82727066Y-134900500D01*
X82930136Y-134900500D01*
X82981633Y-134896730D01*
X83132656Y-134885677D01*
X83305659Y-134847139D01*
X83397046Y-134826782D01*
X83397048Y-134826781D01*
X83397053Y-134826780D01*
X83650058Y-134730014D01*
X83886277Y-134597441D01*
X84100677Y-134431888D01*
X84288686Y-134236881D01*
X84446299Y-134016579D01*
X84541583Y-133831250D01*
X84570149Y-133775690D01*
X84570151Y-133775684D01*
X84570156Y-133775675D01*
X84657618Y-133519305D01*
X84706819Y-133252933D01*
X84716712Y-132982235D01*
X84687086Y-132712982D01*
X84618572Y-132450912D01*
X84512630Y-132201610D01*
X84371518Y-131970390D01*
X84282247Y-131863119D01*
X84198246Y-131762180D01*
X84198240Y-131762175D01*
X83996502Y-131581418D01*
X83770592Y-131431957D01*
X83727747Y-131411872D01*
X83525324Y-131316980D01*
X83525319Y-131316978D01*
X83525314Y-131316976D01*
X83265942Y-131238942D01*
X83265928Y-131238939D01*
X83150291Y-131221921D01*
X82997939Y-131199500D01*
X82794869Y-131199500D01*
X82794864Y-131199500D01*
X82592344Y-131214323D01*
X82592331Y-131214325D01*
X82327953Y-131273217D01*
X82327946Y-131273220D01*
X82074939Y-131369987D01*
X81838726Y-131502557D01*
X81624322Y-131668112D01*
X81436322Y-131863109D01*
X81436316Y-131863116D01*
X81278702Y-132083419D01*
X81278699Y-132083424D01*
X81154850Y-132324309D01*
X81154843Y-132324327D01*
X81067384Y-132580685D01*
X81067381Y-132580699D01*
X81018181Y-132847068D01*
X81018180Y-132847075D01*
X81008287Y-133117763D01*
X79820919Y-133117763D01*
X79821856Y-133116244D01*
X79821858Y-133116239D01*
X79877005Y-132949817D01*
X79877006Y-132949810D01*
X79887499Y-132847106D01*
X79887500Y-132847093D01*
X79887500Y-132572120D01*
X79050000Y-132572120D01*
X79050000Y-133498258D01*
X79030315Y-133565297D01*
X79013681Y-133585939D01*
X79012500Y-133587120D01*
X79012500Y-134072120D01*
X78512500Y-134072120D01*
X78512500Y-133145982D01*
X78532185Y-133078943D01*
X78548819Y-133058301D01*
X78550000Y-133057120D01*
X78550000Y-132196120D01*
X78569685Y-132129081D01*
X78622489Y-132083326D01*
X78674000Y-132072120D01*
X79887499Y-132072120D01*
X79887499Y-131797148D01*
X79887498Y-131797133D01*
X79877005Y-131694422D01*
X79821858Y-131528000D01*
X79821856Y-131527995D01*
X79729815Y-131378774D01*
X79605844Y-131254803D01*
X79600177Y-131250322D01*
X79601925Y-131248110D01*
X79563841Y-131205749D01*
X79552635Y-131136784D01*
X79580493Y-131072708D01*
X79638571Y-131033865D01*
X79641038Y-131033120D01*
X79672898Y-131023864D01*
X79814365Y-130940201D01*
X79930581Y-130823985D01*
X80014244Y-130682518D01*
X80060098Y-130524689D01*
X80063000Y-130487814D01*
X80063000Y-130056426D01*
X80060098Y-130019551D01*
X80014244Y-129861722D01*
X79930581Y-129720255D01*
X79930579Y-129720253D01*
X79930576Y-129720249D01*
X79814370Y-129604043D01*
X79814362Y-129604037D01*
X79672896Y-129520375D01*
X79672893Y-129520374D01*
X79515073Y-129474522D01*
X79515067Y-129474521D01*
X79478196Y-129471620D01*
X79478194Y-129471620D01*
X78321806Y-129471620D01*
X78321804Y-129471620D01*
X78284932Y-129474521D01*
X78284926Y-129474522D01*
X78127106Y-129520374D01*
X78127103Y-129520375D01*
X77985637Y-129604037D01*
X77979469Y-129608822D01*
X77978164Y-129607139D01*
X77926454Y-129635366D01*
X77856763Y-129630371D01*
X77809058Y-129598367D01*
X77784796Y-129572120D01*
X77519315Y-129572120D01*
X77456194Y-129554852D01*
X77397896Y-129520375D01*
X77397893Y-129520374D01*
X77240073Y-129474522D01*
X77240067Y-129474521D01*
X77203196Y-129471620D01*
X77203194Y-129471620D01*
X76499000Y-129471620D01*
X76431961Y-129451935D01*
X76386206Y-129399131D01*
X76375000Y-129347620D01*
X76375000Y-129296620D01*
X76394685Y-129229581D01*
X76447489Y-129183826D01*
X76499000Y-129172620D01*
X77203196Y-129172620D01*
X77221631Y-129171169D01*
X77240069Y-129169718D01*
X77240071Y-129169717D01*
X77240073Y-129169717D01*
X77283201Y-129157187D01*
X77397898Y-129123864D01*
X77456194Y-129089388D01*
X77519315Y-129072120D01*
X77784794Y-129072120D01*
X77809057Y-129045872D01*
X77869018Y-129010005D01*
X77938852Y-129012249D01*
X77978512Y-129036650D01*
X77979469Y-129035418D01*
X77985632Y-129040198D01*
X77985635Y-129040201D01*
X78127102Y-129123864D01*
X78127691Y-129124035D01*
X78284926Y-129169717D01*
X78284929Y-129169717D01*
X78284931Y-129169718D01*
X78297222Y-129170685D01*
X78321804Y-129172620D01*
X78321806Y-129172620D01*
X79478196Y-129172620D01*
X79496631Y-129171169D01*
X79515069Y-129169718D01*
X79515071Y-129169717D01*
X79515073Y-129169717D01*
X79558201Y-129157187D01*
X79672898Y-129123864D01*
X79814365Y-129040201D01*
X79930581Y-128923985D01*
X80014244Y-128782518D01*
X80059184Y-128627834D01*
X80060097Y-128624693D01*
X80060098Y-128624687D01*
X80060534Y-128619154D01*
X80063000Y-128587814D01*
X80063000Y-128156426D01*
X80060098Y-128119551D01*
X80047838Y-128077353D01*
X80014245Y-127961726D01*
X80014244Y-127961723D01*
X80014244Y-127961722D01*
X79930581Y-127820255D01*
X79930578Y-127820252D01*
X79930576Y-127820249D01*
X79814370Y-127704043D01*
X79814362Y-127704037D01*
X79736181Y-127657801D01*
X79672898Y-127620376D01*
X79672897Y-127620375D01*
X79672896Y-127620375D01*
X79667214Y-127618724D01*
X79608330Y-127581114D01*
X79579127Y-127517640D01*
X79588877Y-127448454D01*
X79634483Y-127395522D01*
X79636636Y-127394161D01*
X79643656Y-127389832D01*
X79767712Y-127265776D01*
X79859814Y-127116454D01*
X79914999Y-126949917D01*
X79925500Y-126847129D01*
X79925499Y-125797112D01*
X79914999Y-125694323D01*
X79859814Y-125527786D01*
X79773109Y-125387214D01*
X79754670Y-125319824D01*
X79773109Y-125257025D01*
X79859814Y-125116454D01*
X79887595Y-125032615D01*
X79927368Y-124975171D01*
X79991884Y-124948348D01*
X80005301Y-124947620D01*
X80825501Y-124947620D01*
X80892540Y-124967305D01*
X80938295Y-125020109D01*
X80949501Y-125071620D01*
X80949501Y-125150018D01*
X80960000Y-125252796D01*
X80960001Y-125252799D01*
X80982972Y-125322120D01*
X81015186Y-125419334D01*
X81082079Y-125527786D01*
X81107289Y-125568657D01*
X81198181Y-125659549D01*
X81231666Y-125720872D01*
X81234500Y-125747230D01*
X81234500Y-126660908D01*
X81214815Y-126727947D01*
X81162914Y-126773286D01*
X81157173Y-126775963D01*
X81157169Y-126775965D01*
X80963597Y-126911505D01*
X80796505Y-127078597D01*
X80660965Y-127272169D01*
X80660964Y-127272171D01*
X80561098Y-127486335D01*
X80561094Y-127486344D01*
X80499938Y-127714586D01*
X80499936Y-127714596D01*
X80479341Y-127949999D01*
X80479341Y-127950000D01*
X80499936Y-128185403D01*
X80499938Y-128185413D01*
X80561094Y-128413655D01*
X80561096Y-128413659D01*
X80561097Y-128413663D01*
X80588360Y-128472128D01*
X80660965Y-128627830D01*
X80660967Y-128627834D01*
X80713229Y-128702471D01*
X80796505Y-128821401D01*
X80963599Y-128988495D01*
X81056381Y-129053462D01*
X81157165Y-129124032D01*
X81157167Y-129124033D01*
X81157170Y-129124035D01*
X81371337Y-129223903D01*
X81599592Y-129285063D01*
X81770319Y-129300000D01*
X81834999Y-129305659D01*
X81835000Y-129305659D01*
X81835001Y-129305659D01*
X81899681Y-129300000D01*
X82070408Y-129285063D01*
X82298663Y-129223903D01*
X82512830Y-129124035D01*
X82706401Y-128988495D01*
X82828717Y-128866178D01*
X82890036Y-128832696D01*
X82959728Y-128837680D01*
X83015662Y-128879551D01*
X83032577Y-128910528D01*
X83081646Y-129042088D01*
X83081649Y-129042093D01*
X83167809Y-129157187D01*
X83167812Y-129157190D01*
X83282906Y-129243350D01*
X83282913Y-129243354D01*
X83417620Y-129293596D01*
X83417627Y-129293598D01*
X83477155Y-129299999D01*
X83477172Y-129300000D01*
X84125000Y-129300000D01*
X84125000Y-128385501D01*
X84232685Y-128434680D01*
X84339237Y-128450000D01*
X84410763Y-128450000D01*
X84517315Y-128434680D01*
X84625000Y-128385501D01*
X84625000Y-129300000D01*
X85272828Y-129300000D01*
X85272844Y-129299999D01*
X85332372Y-129293598D01*
X85332379Y-129293596D01*
X85467086Y-129243354D01*
X85467093Y-129243350D01*
X85582187Y-129157190D01*
X85582190Y-129157187D01*
X85668350Y-129042093D01*
X85668354Y-129042086D01*
X85718596Y-128907379D01*
X85718598Y-128907372D01*
X85724999Y-128847844D01*
X85725000Y-128847827D01*
X85725000Y-128200000D01*
X84808686Y-128200000D01*
X84834493Y-128159844D01*
X84875000Y-128021889D01*
X84875000Y-127878111D01*
X84834493Y-127740156D01*
X84808686Y-127700000D01*
X85725000Y-127700000D01*
X85725000Y-127052172D01*
X85724999Y-127052155D01*
X85718598Y-126992627D01*
X85718596Y-126992620D01*
X85668354Y-126857913D01*
X85668350Y-126857906D01*
X85582190Y-126742812D01*
X85582187Y-126742809D01*
X85467093Y-126656649D01*
X85467086Y-126656645D01*
X85332379Y-126606403D01*
X85332372Y-126606401D01*
X85272844Y-126600000D01*
X84625000Y-126600000D01*
X84625000Y-127514498D01*
X84517315Y-127465320D01*
X84410763Y-127450000D01*
X84339237Y-127450000D01*
X84232685Y-127465320D01*
X84125000Y-127514498D01*
X84125000Y-126600000D01*
X83477155Y-126600000D01*
X83417627Y-126606401D01*
X83417620Y-126606403D01*
X83282913Y-126656645D01*
X83282906Y-126656649D01*
X83167812Y-126742809D01*
X83167809Y-126742812D01*
X83081649Y-126857906D01*
X83081645Y-126857913D01*
X83032578Y-126989470D01*
X82990707Y-127045404D01*
X82925242Y-127069821D01*
X82856969Y-127054969D01*
X82828715Y-127033819D01*
X82768602Y-126973706D01*
X82706401Y-126911505D01*
X82706397Y-126911502D01*
X82706396Y-126911501D01*
X82512831Y-126775965D01*
X82512826Y-126775962D01*
X82507091Y-126773288D01*
X82454653Y-126727113D01*
X82435500Y-126660908D01*
X82435500Y-125974499D01*
X82455185Y-125907460D01*
X82507989Y-125861705D01*
X82559500Y-125850499D01*
X82650002Y-125850499D01*
X82650008Y-125850499D01*
X82752797Y-125839999D01*
X82919334Y-125784814D01*
X83068656Y-125692712D01*
X83068664Y-125692703D01*
X83073085Y-125689209D01*
X83137879Y-125663066D01*
X83206522Y-125676103D01*
X83226915Y-125689209D01*
X83231339Y-125692707D01*
X83231344Y-125692712D01*
X83380666Y-125784814D01*
X83547203Y-125839999D01*
X83649991Y-125850500D01*
X84650008Y-125850499D01*
X84650016Y-125850498D01*
X84650019Y-125850498D01*
X84706302Y-125844748D01*
X84752797Y-125839999D01*
X84919334Y-125784814D01*
X85068656Y-125692712D01*
X85192712Y-125568656D01*
X85284814Y-125419334D01*
X85339999Y-125252797D01*
X85350500Y-125150009D01*
X85350499Y-124450095D01*
X85370183Y-124383057D01*
X85386813Y-124362420D01*
X85843922Y-123905311D01*
X85849999Y-123899983D01*
X85878282Y-123878282D01*
X85974536Y-123752841D01*
X86035044Y-123606762D01*
X86050500Y-123489361D01*
X86055682Y-123450000D01*
X86054896Y-123444033D01*
X86051031Y-123414673D01*
X86050500Y-123406571D01*
X86050500Y-119344164D01*
X86051031Y-119336062D01*
X86053373Y-119318277D01*
X86055682Y-119300736D01*
X86049280Y-119252111D01*
X86035044Y-119143975D01*
X86035044Y-119143974D01*
X85974536Y-118997895D01*
X85961729Y-118981204D01*
X85878282Y-118872454D01*
X85850005Y-118850756D01*
X85843904Y-118845405D01*
X85654592Y-118656093D01*
X85649238Y-118649988D01*
X85627550Y-118621722D01*
X85627547Y-118621720D01*
X85627546Y-118621718D01*
X85502105Y-118525464D01*
X85482026Y-118517147D01*
X85356022Y-118464954D01*
X85348175Y-118462852D01*
X85348217Y-118462691D01*
X85331618Y-118458559D01*
X85257482Y-118430908D01*
X85257483Y-118430908D01*
X85197883Y-118424501D01*
X85197881Y-118424500D01*
X85197873Y-118424500D01*
X85197865Y-118424500D01*
X84375097Y-118424500D01*
X84308058Y-118404815D01*
X84287416Y-118388181D01*
X83961818Y-118062583D01*
X83928333Y-118001260D01*
X83925499Y-117974902D01*
X83925499Y-117452129D01*
X83925498Y-117452123D01*
X83919091Y-117392516D01*
X83868797Y-117257671D01*
X83868793Y-117257664D01*
X83782546Y-117142454D01*
X83782544Y-117142452D01*
X83667335Y-117056206D01*
X83667328Y-117056202D01*
X83532486Y-117005910D01*
X83532485Y-117005909D01*
X83532483Y-117005909D01*
X83472873Y-116999500D01*
X83472863Y-116999500D01*
X83127130Y-116999500D01*
X83127120Y-116999501D01*
X83063248Y-117006367D01*
X83036742Y-117006367D01*
X83032483Y-117005909D01*
X82972873Y-116999500D01*
X82972865Y-116999500D01*
X82627130Y-116999500D01*
X82627123Y-116999501D01*
X82567515Y-117005909D01*
X82452065Y-117048968D01*
X82382373Y-117053952D01*
X82358297Y-117046065D01*
X82229807Y-116988857D01*
X82229802Y-116988855D01*
X82084001Y-116957865D01*
X82044646Y-116949500D01*
X81855354Y-116949500D01*
X81822897Y-116956398D01*
X81670197Y-116988855D01*
X81670192Y-116988857D01*
X81497270Y-117065848D01*
X81497265Y-117065851D01*
X81344129Y-117177111D01*
X81217466Y-117317785D01*
X81122821Y-117481715D01*
X81122818Y-117481722D01*
X81067791Y-117651080D01*
X81064326Y-117661744D01*
X81044540Y-117850000D01*
X81064326Y-118038256D01*
X81064327Y-118038259D01*
X81122818Y-118218277D01*
X81122819Y-118218279D01*
X81122821Y-118218284D01*
X81134782Y-118239002D01*
X81151255Y-118306899D01*
X81128403Y-118372926D01*
X81073482Y-118416117D01*
X81027395Y-118425000D01*
X80902155Y-118425000D01*
X80842619Y-118431402D01*
X80840000Y-118432021D01*
X80837910Y-118431908D01*
X80834913Y-118432231D01*
X80834860Y-118431744D01*
X80770231Y-118428272D01*
X80713564Y-118387399D01*
X80687991Y-118322377D01*
X80687499Y-118311341D01*
X80687499Y-118225028D01*
X80687498Y-118225013D01*
X80677005Y-118122302D01*
X80621858Y-117955880D01*
X80621856Y-117955875D01*
X80529815Y-117806654D01*
X80405845Y-117682684D01*
X80256624Y-117590643D01*
X80256619Y-117590641D01*
X80090197Y-117535494D01*
X80090190Y-117535493D01*
X79987486Y-117525000D01*
X79850000Y-117525000D01*
X79850000Y-118876000D01*
X79830315Y-118943039D01*
X79777511Y-118988794D01*
X79726000Y-119000000D01*
X79474000Y-119000000D01*
X79406961Y-118980315D01*
X79361206Y-118927511D01*
X79350000Y-118876000D01*
X79350000Y-117525000D01*
X79212527Y-117525000D01*
X79212509Y-117525001D01*
X79132383Y-117533187D01*
X79063690Y-117520417D01*
X79032101Y-117497510D01*
X78450803Y-116916212D01*
X78440980Y-116903950D01*
X78440759Y-116904134D01*
X78435785Y-116898122D01*
X78414615Y-116878241D01*
X78379221Y-116817999D01*
X78375500Y-116787850D01*
X78375500Y-114149500D01*
X78395185Y-114082461D01*
X78447989Y-114036706D01*
X78499500Y-114025500D01*
X82331572Y-114025500D01*
X82339670Y-114026030D01*
X82375000Y-114030682D01*
X82375001Y-114030682D01*
X82427254Y-114023802D01*
X82531762Y-114010044D01*
X82677841Y-113949536D01*
X82694934Y-113936420D01*
X82803282Y-113853282D01*
X82824984Y-113824998D01*
X82830310Y-113818923D01*
X83431423Y-113217811D01*
X83437506Y-113212477D01*
X83465782Y-113190782D01*
X83484153Y-113166840D01*
X83496693Y-113150500D01*
X83562035Y-113065342D01*
X83562034Y-113065342D01*
X83562036Y-113065341D01*
X83622544Y-112919262D01*
X83638311Y-112799500D01*
X83643182Y-112762501D01*
X83643182Y-112762499D01*
X83638531Y-112727173D01*
X83638000Y-112719071D01*
X83638000Y-112363767D01*
X83657685Y-112296728D01*
X83696901Y-112258230D01*
X83843656Y-112167712D01*
X83967712Y-112043656D01*
X84059814Y-111894334D01*
X84114999Y-111727797D01*
X84125500Y-111625009D01*
X84125499Y-110574992D01*
X84119085Y-110512207D01*
X84114999Y-110472203D01*
X84114998Y-110472200D01*
X84080687Y-110368657D01*
X84059814Y-110305666D01*
X83967712Y-110156344D01*
X83919051Y-110107683D01*
X83885566Y-110046360D01*
X83890550Y-109976668D01*
X83901190Y-109954909D01*
X83984814Y-109819334D01*
X84039999Y-109652797D01*
X84050500Y-109550009D01*
X84050499Y-108549992D01*
X84048710Y-108532483D01*
X84039999Y-108447203D01*
X84039998Y-108447200D01*
X84016615Y-108376636D01*
X83984814Y-108280666D01*
X83892712Y-108131344D01*
X83892707Y-108131339D01*
X83889209Y-108126915D01*
X83863066Y-108062121D01*
X83876103Y-107993478D01*
X83889209Y-107973085D01*
X83892703Y-107968664D01*
X83892712Y-107968656D01*
X83984814Y-107819334D01*
X84039999Y-107652797D01*
X84050500Y-107550009D01*
X84050499Y-106549992D01*
X84047329Y-106518964D01*
X84039999Y-106447203D01*
X84039998Y-106447200D01*
X84032642Y-106425000D01*
X83984814Y-106280666D01*
X83892712Y-106131344D01*
X83768656Y-106007288D01*
X83675888Y-105950069D01*
X83619336Y-105915187D01*
X83619331Y-105915185D01*
X83617862Y-105914698D01*
X83452797Y-105860001D01*
X83452795Y-105860000D01*
X83350010Y-105849500D01*
X82549998Y-105849500D01*
X82549980Y-105849501D01*
X82447203Y-105860000D01*
X82447200Y-105860001D01*
X82280668Y-105915185D01*
X82280663Y-105915187D01*
X82131342Y-106007289D01*
X82037681Y-106100951D01*
X81976358Y-106134436D01*
X81906666Y-106129452D01*
X81862319Y-106100951D01*
X81768657Y-106007289D01*
X81768656Y-106007288D01*
X81675888Y-105950069D01*
X81619336Y-105915187D01*
X81619331Y-105915185D01*
X81617862Y-105914698D01*
X81452797Y-105860001D01*
X81452795Y-105860000D01*
X81350010Y-105849500D01*
X80549998Y-105849500D01*
X80549980Y-105849501D01*
X80447203Y-105860000D01*
X80447199Y-105860001D01*
X80356124Y-105890181D01*
X80286295Y-105892583D01*
X80226253Y-105856851D01*
X80195061Y-105794330D01*
X80202622Y-105724871D01*
X80229436Y-105684797D01*
X81631470Y-104282763D01*
X81692791Y-104249280D01*
X81751238Y-104250670D01*
X81879592Y-104285063D01*
X82056034Y-104300500D01*
X82114999Y-104305659D01*
X82115000Y-104305659D01*
X82115001Y-104305659D01*
X82173966Y-104300500D01*
X82350408Y-104285063D01*
X82578663Y-104223903D01*
X82792830Y-104124035D01*
X82986401Y-103988495D01*
X83153495Y-103821401D01*
X83283425Y-103635842D01*
X83338002Y-103592217D01*
X83407500Y-103585023D01*
X83469855Y-103616546D01*
X83486575Y-103635842D01*
X83616500Y-103821395D01*
X83616505Y-103821401D01*
X83783599Y-103988495D01*
X83880384Y-104056265D01*
X83977165Y-104124032D01*
X83977167Y-104124033D01*
X83977170Y-104124035D01*
X84191337Y-104223903D01*
X84191343Y-104223904D01*
X84191344Y-104223905D01*
X84224672Y-104232835D01*
X84419592Y-104285063D01*
X84596034Y-104300500D01*
X84654999Y-104305659D01*
X84655000Y-104305659D01*
X84655001Y-104305659D01*
X84713966Y-104300500D01*
X84890408Y-104285063D01*
X85118663Y-104223903D01*
X85332830Y-104124035D01*
X85526401Y-103988495D01*
X85693495Y-103821401D01*
X85829035Y-103627830D01*
X85928903Y-103413663D01*
X85990063Y-103185408D01*
X86010659Y-102950000D01*
X85990063Y-102714592D01*
X85940195Y-102528481D01*
X85928905Y-102486344D01*
X85928904Y-102486343D01*
X85928903Y-102486337D01*
X85829035Y-102272171D01*
X85823425Y-102264158D01*
X85693494Y-102078597D01*
X85526402Y-101911506D01*
X85526395Y-101911501D01*
X85332834Y-101775967D01*
X85332830Y-101775965D01*
X85332828Y-101775964D01*
X85118663Y-101676097D01*
X85118659Y-101676096D01*
X85118655Y-101676094D01*
X84890413Y-101614938D01*
X84890403Y-101614936D01*
X84655001Y-101594341D01*
X84654999Y-101594341D01*
X84419596Y-101614936D01*
X84419586Y-101614938D01*
X84191344Y-101676094D01*
X84191335Y-101676098D01*
X83977171Y-101775964D01*
X83977169Y-101775965D01*
X83783597Y-101911505D01*
X83616505Y-102078597D01*
X83486575Y-102264158D01*
X83431998Y-102307783D01*
X83362500Y-102314977D01*
X83300145Y-102283454D01*
X83283425Y-102264158D01*
X83153494Y-102078597D01*
X82986402Y-101911506D01*
X82986395Y-101911501D01*
X82792834Y-101775967D01*
X82792830Y-101775965D01*
X82792828Y-101775964D01*
X82578663Y-101676097D01*
X82578659Y-101676096D01*
X82578655Y-101676094D01*
X82350413Y-101614938D01*
X82350403Y-101614936D01*
X82115001Y-101594341D01*
X82114999Y-101594341D01*
X81879596Y-101614936D01*
X81879586Y-101614938D01*
X81651344Y-101676094D01*
X81651335Y-101676098D01*
X81437171Y-101775964D01*
X81437169Y-101775965D01*
X81243600Y-101911503D01*
X81121673Y-102033430D01*
X81060350Y-102066914D01*
X80990658Y-102061930D01*
X80934725Y-102020058D01*
X80917810Y-101989081D01*
X80868797Y-101857671D01*
X80868793Y-101857664D01*
X80782547Y-101742455D01*
X80782544Y-101742452D01*
X80667335Y-101656206D01*
X80667328Y-101656202D01*
X80532482Y-101605908D01*
X80532483Y-101605908D01*
X80472883Y-101599501D01*
X80472881Y-101599500D01*
X80472873Y-101599500D01*
X80472864Y-101599500D01*
X78677129Y-101599500D01*
X78677123Y-101599501D01*
X78617516Y-101605908D01*
X78482671Y-101656202D01*
X78482664Y-101656206D01*
X78367455Y-101742452D01*
X78367452Y-101742455D01*
X78281206Y-101857664D01*
X78281202Y-101857671D01*
X78230908Y-101992517D01*
X78224501Y-102052116D01*
X78224500Y-102052135D01*
X78224500Y-102450500D01*
X78204815Y-102517539D01*
X78152011Y-102563294D01*
X78100500Y-102574500D01*
X76624499Y-102574500D01*
X76557460Y-102554815D01*
X76511705Y-102502011D01*
X76500499Y-102450500D01*
X76500499Y-101977129D01*
X76500498Y-101977123D01*
X76500353Y-101975777D01*
X76494091Y-101917517D01*
X76491847Y-101911501D01*
X76443797Y-101782671D01*
X76443793Y-101782664D01*
X76357547Y-101667455D01*
X76357544Y-101667452D01*
X76242335Y-101581206D01*
X76242328Y-101581202D01*
X76107482Y-101530908D01*
X76107483Y-101530908D01*
X76047883Y-101524501D01*
X76047881Y-101524500D01*
X76047873Y-101524500D01*
X76047865Y-101524500D01*
X74999500Y-101524500D01*
X74932461Y-101504815D01*
X74886706Y-101452011D01*
X74875500Y-101400500D01*
X74875500Y-98117763D01*
X80208287Y-98117763D01*
X80237913Y-98387013D01*
X80237915Y-98387024D01*
X80299102Y-98621067D01*
X80306428Y-98649088D01*
X80412370Y-98898390D01*
X80506631Y-99052842D01*
X80553479Y-99129605D01*
X80553486Y-99129615D01*
X80726753Y-99337819D01*
X80726759Y-99337824D01*
X80796152Y-99400000D01*
X80928498Y-99518582D01*
X81154410Y-99668044D01*
X81399676Y-99783020D01*
X81399683Y-99783022D01*
X81399685Y-99783023D01*
X81659057Y-99861057D01*
X81659064Y-99861058D01*
X81659069Y-99861060D01*
X81927061Y-99900500D01*
X81927066Y-99900500D01*
X82130136Y-99900500D01*
X82181633Y-99896730D01*
X82332656Y-99885677D01*
X82492730Y-99850019D01*
X82597046Y-99826782D01*
X82597048Y-99826781D01*
X82597053Y-99826780D01*
X82850058Y-99730014D01*
X83086277Y-99597441D01*
X83300677Y-99431888D01*
X83488686Y-99236881D01*
X83646299Y-99016579D01*
X83740342Y-98833664D01*
X83770149Y-98775690D01*
X83770151Y-98775684D01*
X83770156Y-98775675D01*
X83857618Y-98519305D01*
X83906819Y-98252933D01*
X83916712Y-97982235D01*
X83887086Y-97712982D01*
X83818572Y-97450912D01*
X83712630Y-97201610D01*
X83571518Y-96970390D01*
X83482247Y-96863119D01*
X83398246Y-96762180D01*
X83398240Y-96762175D01*
X83196502Y-96581418D01*
X82970592Y-96431957D01*
X82916616Y-96406654D01*
X82725324Y-96316980D01*
X82725319Y-96316978D01*
X82725314Y-96316976D01*
X82465942Y-96238942D01*
X82465928Y-96238939D01*
X82350291Y-96221921D01*
X82197939Y-96199500D01*
X81994869Y-96199500D01*
X81994864Y-96199500D01*
X81792344Y-96214323D01*
X81792331Y-96214325D01*
X81527953Y-96273217D01*
X81527946Y-96273220D01*
X81274939Y-96369987D01*
X81038726Y-96502557D01*
X81038724Y-96502558D01*
X81038723Y-96502559D01*
X81009033Y-96525485D01*
X80824322Y-96668112D01*
X80636322Y-96863109D01*
X80636316Y-96863116D01*
X80478702Y-97083419D01*
X80478699Y-97083424D01*
X80354850Y-97324309D01*
X80354843Y-97324327D01*
X80267384Y-97580685D01*
X80267381Y-97580699D01*
X80218181Y-97847068D01*
X80218180Y-97847075D01*
X80208287Y-98117763D01*
X74875500Y-98117763D01*
X74875500Y-97570055D01*
X74895185Y-97503016D01*
X74926615Y-97469736D01*
X74952842Y-97450682D01*
X75079504Y-97310010D01*
X75174150Y-97146078D01*
X75232645Y-96966050D01*
X75252431Y-96777794D01*
X75232645Y-96589538D01*
X75174150Y-96409510D01*
X75165336Y-96394244D01*
X75148863Y-96326347D01*
X75171714Y-96260319D01*
X75173433Y-96257964D01*
X75190734Y-96234854D01*
X75246667Y-96192984D01*
X75316359Y-96188000D01*
X75377682Y-96221485D01*
X75389263Y-96234850D01*
X75432454Y-96292546D01*
X75461029Y-96313937D01*
X75547664Y-96378793D01*
X75547671Y-96378797D01*
X75682517Y-96429091D01*
X75682516Y-96429091D01*
X75689444Y-96429835D01*
X75742127Y-96435500D01*
X76837872Y-96435499D01*
X76897483Y-96429091D01*
X77032331Y-96378796D01*
X77147546Y-96292546D01*
X77233796Y-96177331D01*
X77284091Y-96042483D01*
X77290500Y-95982873D01*
X77290499Y-91887128D01*
X77284091Y-91827517D01*
X77266330Y-91779898D01*
X77233797Y-91692671D01*
X77233795Y-91692668D01*
X77200590Y-91648312D01*
X77176172Y-91582848D01*
X77191023Y-91514575D01*
X77240428Y-91465169D01*
X77299856Y-91450000D01*
X84840187Y-91450000D01*
X85048277Y-91450399D01*
X85048617Y-91450500D01*
X85097787Y-91450500D01*
X85102207Y-91450657D01*
X85169755Y-91455489D01*
X85316644Y-91467049D01*
X85324947Y-91468274D01*
X85419760Y-91488899D01*
X85536225Y-91516860D01*
X85543401Y-91519051D01*
X85639737Y-91554983D01*
X85717922Y-91587368D01*
X85745856Y-91598939D01*
X85751847Y-91601805D01*
X85842937Y-91651543D01*
X85845580Y-91653073D01*
X85940903Y-91711488D01*
X85945643Y-91714705D01*
X86029440Y-91777435D01*
X86032520Y-91779898D01*
X86088275Y-91827517D01*
X86116937Y-91851997D01*
X86120513Y-91855303D01*
X86194695Y-91929485D01*
X86198001Y-91933061D01*
X86270094Y-92017471D01*
X86272576Y-92020574D01*
X86335289Y-92104349D01*
X86338521Y-92109111D01*
X86396910Y-92204393D01*
X86398463Y-92207076D01*
X86448193Y-92298151D01*
X86451059Y-92304141D01*
X86495016Y-92410260D01*
X86530942Y-92506582D01*
X86533140Y-92513781D01*
X86561098Y-92630231D01*
X86581723Y-92725044D01*
X86582950Y-92733368D01*
X86594524Y-92880430D01*
X86599341Y-92947776D01*
X86599499Y-92952200D01*
X86599499Y-144447799D01*
X86599341Y-144452223D01*
X86594513Y-144519722D01*
X86582950Y-144666636D01*
X86581722Y-144674959D01*
X86561102Y-144769751D01*
X86533142Y-144886213D01*
X86530944Y-144893412D01*
X86495016Y-144989742D01*
X86451055Y-145095866D01*
X86448189Y-145101857D01*
X86398464Y-145192923D01*
X86396911Y-145195605D01*
X86338525Y-145290883D01*
X86335292Y-145295646D01*
X86272569Y-145379434D01*
X86270080Y-145382544D01*
X86198008Y-145466931D01*
X86194702Y-145470507D01*
X86120507Y-145544702D01*
X86116931Y-145548008D01*
X86032544Y-145620080D01*
X86029434Y-145622569D01*
X85945646Y-145685292D01*
X85940883Y-145688525D01*
X85845605Y-145746911D01*
X85842923Y-145748464D01*
X85751857Y-145798189D01*
X85745866Y-145801055D01*
X85639742Y-145845016D01*
X85543412Y-145880944D01*
X85536213Y-145883142D01*
X85419751Y-145911102D01*
X85324959Y-145931722D01*
X85316636Y-145932950D01*
X85169723Y-145944513D01*
X85102210Y-145949342D01*
X85097786Y-145949500D01*
X54852214Y-145949500D01*
X54847791Y-145949342D01*
X54819525Y-145947320D01*
X54780331Y-145944517D01*
X54633366Y-145932950D01*
X54625043Y-145931723D01*
X54530244Y-145911101D01*
X54413781Y-145883140D01*
X54406582Y-145880942D01*
X54310260Y-145845016D01*
X54204141Y-145801059D01*
X54198151Y-145798193D01*
X54107076Y-145748463D01*
X54104393Y-145746910D01*
X54009118Y-145688525D01*
X54009106Y-145688517D01*
X54004349Y-145685289D01*
X53920574Y-145622576D01*
X53917471Y-145620094D01*
X53833061Y-145548001D01*
X53829485Y-145544695D01*
X53755303Y-145470513D01*
X53751997Y-145466937D01*
X53751992Y-145466931D01*
X53679898Y-145382520D01*
X53677430Y-145379434D01*
X53614705Y-145295643D01*
X53611488Y-145290903D01*
X53554476Y-145197870D01*
X75749500Y-145197870D01*
X75749501Y-145197876D01*
X75755908Y-145257483D01*
X75806202Y-145392328D01*
X75806206Y-145392335D01*
X75892452Y-145507544D01*
X75892455Y-145507547D01*
X76007664Y-145593793D01*
X76007671Y-145593797D01*
X76142517Y-145644091D01*
X76142516Y-145644091D01*
X76149444Y-145644835D01*
X76202127Y-145650500D01*
X77797872Y-145650499D01*
X77857483Y-145644091D01*
X77992331Y-145593796D01*
X78107546Y-145507546D01*
X78193796Y-145392331D01*
X78244091Y-145257483D01*
X78250500Y-145197873D01*
X78250500Y-145197870D01*
X82449500Y-145197870D01*
X82449501Y-145197876D01*
X82455908Y-145257483D01*
X82506202Y-145392328D01*
X82506206Y-145392335D01*
X82592452Y-145507544D01*
X82592455Y-145507547D01*
X82707664Y-145593793D01*
X82707671Y-145593797D01*
X82842517Y-145644091D01*
X82842516Y-145644091D01*
X82849444Y-145644835D01*
X82902127Y-145650500D01*
X84497872Y-145650499D01*
X84557483Y-145644091D01*
X84692331Y-145593796D01*
X84807546Y-145507546D01*
X84893796Y-145392331D01*
X84944091Y-145257483D01*
X84950500Y-145197873D01*
X84950499Y-141702128D01*
X84944091Y-141642517D01*
X84936400Y-141621897D01*
X84893797Y-141507671D01*
X84893793Y-141507664D01*
X84807547Y-141392455D01*
X84807544Y-141392452D01*
X84692335Y-141306206D01*
X84692328Y-141306202D01*
X84557482Y-141255908D01*
X84557483Y-141255908D01*
X84497883Y-141249501D01*
X84497881Y-141249500D01*
X84497873Y-141249500D01*
X84497864Y-141249500D01*
X82902129Y-141249500D01*
X82902123Y-141249501D01*
X82842516Y-141255908D01*
X82707671Y-141306202D01*
X82707664Y-141306206D01*
X82592455Y-141392452D01*
X82592452Y-141392455D01*
X82506206Y-141507664D01*
X82506202Y-141507671D01*
X82455908Y-141642517D01*
X82449501Y-141702116D01*
X82449501Y-141702123D01*
X82449500Y-141702135D01*
X82449500Y-145197870D01*
X78250500Y-145197870D01*
X78250499Y-141702128D01*
X78244091Y-141642517D01*
X78236400Y-141621897D01*
X78193797Y-141507671D01*
X78193793Y-141507664D01*
X78107547Y-141392455D01*
X78107544Y-141392452D01*
X77992335Y-141306206D01*
X77992328Y-141306202D01*
X77857482Y-141255908D01*
X77857483Y-141255908D01*
X77797883Y-141249501D01*
X77797881Y-141249500D01*
X77797873Y-141249500D01*
X77797864Y-141249500D01*
X76202129Y-141249500D01*
X76202123Y-141249501D01*
X76142516Y-141255908D01*
X76007671Y-141306202D01*
X76007664Y-141306206D01*
X75892455Y-141392452D01*
X75892452Y-141392455D01*
X75806206Y-141507664D01*
X75806202Y-141507671D01*
X75755908Y-141642517D01*
X75749501Y-141702116D01*
X75749501Y-141702123D01*
X75749500Y-141702135D01*
X75749500Y-145197870D01*
X53554476Y-145197870D01*
X53553073Y-145195580D01*
X53551535Y-145192922D01*
X53501805Y-145101847D01*
X53498939Y-145095856D01*
X53487368Y-145067922D01*
X53454983Y-144989737D01*
X53419051Y-144893401D01*
X53416860Y-144886225D01*
X53388898Y-144769751D01*
X53368274Y-144674947D01*
X53367049Y-144666636D01*
X53358109Y-144553033D01*
X53355483Y-144519660D01*
X53350658Y-144452209D01*
X53350500Y-144447785D01*
X53350500Y-113000000D01*
X55745000Y-113000000D01*
X55745000Y-113465644D01*
X55747899Y-113502489D01*
X55747900Y-113502495D01*
X55793716Y-113660193D01*
X55793717Y-113660196D01*
X55877314Y-113801552D01*
X55877321Y-113801561D01*
X55993438Y-113917678D01*
X55993447Y-113917685D01*
X56134801Y-114001281D01*
X56292514Y-114047100D01*
X56292511Y-114047100D01*
X56294998Y-114047295D01*
X56295000Y-114047295D01*
X56295000Y-113000000D01*
X55745000Y-113000000D01*
X53350500Y-113000000D01*
X53350500Y-107275000D01*
X56200000Y-107275000D01*
X56775000Y-107275000D01*
X56775000Y-106500000D01*
X57275000Y-106500000D01*
X57275000Y-107275000D01*
X57850000Y-107275000D01*
X57850000Y-106952172D01*
X57849999Y-106952155D01*
X57843598Y-106892627D01*
X57843596Y-106892620D01*
X57793354Y-106757913D01*
X57793350Y-106757906D01*
X57707190Y-106642812D01*
X57707187Y-106642809D01*
X57592093Y-106556649D01*
X57592086Y-106556645D01*
X57457379Y-106506403D01*
X57457372Y-106506401D01*
X57397844Y-106500000D01*
X57275000Y-106500000D01*
X56775000Y-106500000D01*
X56652155Y-106500000D01*
X56592627Y-106506401D01*
X56592620Y-106506403D01*
X56457913Y-106556645D01*
X56457906Y-106556649D01*
X56342812Y-106642809D01*
X56342809Y-106642812D01*
X56256649Y-106757906D01*
X56256645Y-106757913D01*
X56206403Y-106892620D01*
X56206401Y-106892627D01*
X56200000Y-106952155D01*
X56200000Y-107275000D01*
X53350500Y-107275000D01*
X53350500Y-103625000D01*
X56200000Y-103625000D01*
X56200000Y-103947844D01*
X56206401Y-104007372D01*
X56206403Y-104007379D01*
X56256645Y-104142086D01*
X56256649Y-104142093D01*
X56342809Y-104257187D01*
X56342812Y-104257190D01*
X56457906Y-104343350D01*
X56457913Y-104343354D01*
X56592620Y-104393596D01*
X56592627Y-104393598D01*
X56652155Y-104399999D01*
X56652172Y-104400000D01*
X56775000Y-104400000D01*
X56775000Y-103625000D01*
X57275000Y-103625000D01*
X57275000Y-104400000D01*
X57397828Y-104400000D01*
X57397844Y-104399999D01*
X57457372Y-104393598D01*
X57457379Y-104393596D01*
X57592086Y-104343354D01*
X57592093Y-104343350D01*
X57707187Y-104257190D01*
X57707190Y-104257187D01*
X57793350Y-104142093D01*
X57793354Y-104142086D01*
X57843596Y-104007379D01*
X57843598Y-104007372D01*
X57849999Y-103947844D01*
X57850000Y-103947827D01*
X57850000Y-103625000D01*
X57275000Y-103625000D01*
X56775000Y-103625000D01*
X56200000Y-103625000D01*
X53350500Y-103625000D01*
X53350500Y-103125000D01*
X56200000Y-103125000D01*
X56775000Y-103125000D01*
X56775000Y-102350000D01*
X57275000Y-102350000D01*
X57275000Y-103125000D01*
X57850000Y-103125000D01*
X57850000Y-102802172D01*
X57849999Y-102802155D01*
X57843598Y-102742627D01*
X57843596Y-102742620D01*
X57793354Y-102607913D01*
X57793350Y-102607906D01*
X57707190Y-102492812D01*
X57707187Y-102492809D01*
X57592093Y-102406649D01*
X57592086Y-102406645D01*
X57457379Y-102356403D01*
X57457372Y-102356401D01*
X57397844Y-102350000D01*
X57275000Y-102350000D01*
X56775000Y-102350000D01*
X56652155Y-102350000D01*
X56592627Y-102356401D01*
X56592620Y-102356403D01*
X56457913Y-102406645D01*
X56457906Y-102406649D01*
X56342812Y-102492809D01*
X56342809Y-102492812D01*
X56256649Y-102607906D01*
X56256645Y-102607913D01*
X56206403Y-102742620D01*
X56206401Y-102742627D01*
X56200000Y-102802155D01*
X56200000Y-103125000D01*
X53350500Y-103125000D01*
X53350500Y-101600000D01*
X60775001Y-101600000D01*
X60775001Y-101874986D01*
X60785494Y-101977697D01*
X60840641Y-102144119D01*
X60840643Y-102144124D01*
X60932684Y-102293345D01*
X60951127Y-102311788D01*
X61002854Y-102353470D01*
X61024921Y-102419764D01*
X61025000Y-102424193D01*
X61025000Y-103125000D01*
X61600000Y-103125000D01*
X61600000Y-102802172D01*
X61599999Y-102802155D01*
X61593598Y-102742627D01*
X61593596Y-102742619D01*
X61581045Y-102708969D01*
X61576059Y-102639278D01*
X61609543Y-102577954D01*
X61609546Y-102577952D01*
X61612500Y-102574998D01*
X61612500Y-101600000D01*
X60775001Y-101600000D01*
X53350500Y-101600000D01*
X53350500Y-94917763D01*
X54995787Y-94917763D01*
X55025413Y-95187013D01*
X55025415Y-95187024D01*
X55093926Y-95449082D01*
X55093928Y-95449088D01*
X55199870Y-95698390D01*
X55271998Y-95816575D01*
X55340979Y-95929605D01*
X55340986Y-95929615D01*
X55514253Y-96137819D01*
X55514259Y-96137824D01*
X55648311Y-96257934D01*
X55715998Y-96318582D01*
X55941910Y-96468044D01*
X56187176Y-96583020D01*
X56187183Y-96583022D01*
X56187185Y-96583023D01*
X56446557Y-96661057D01*
X56446564Y-96661058D01*
X56446569Y-96661060D01*
X56714561Y-96700500D01*
X56714566Y-96700500D01*
X56917636Y-96700500D01*
X56969133Y-96696730D01*
X57120156Y-96685677D01*
X57292975Y-96647180D01*
X57384546Y-96626782D01*
X57384548Y-96626781D01*
X57384553Y-96626780D01*
X57637558Y-96530014D01*
X57873777Y-96397441D01*
X58088177Y-96231888D01*
X58276186Y-96036881D01*
X58433799Y-95816579D01*
X58507787Y-95672669D01*
X58557649Y-95575690D01*
X58557651Y-95575684D01*
X58557656Y-95575675D01*
X58645118Y-95319305D01*
X58694319Y-95052933D01*
X58704212Y-94782235D01*
X58674586Y-94512982D01*
X58606072Y-94250912D01*
X58541941Y-94100000D01*
X60387500Y-94100000D01*
X60387500Y-94997844D01*
X60393901Y-95057372D01*
X60393903Y-95057379D01*
X60444145Y-95192086D01*
X60444149Y-95192093D01*
X60530309Y-95307187D01*
X60530312Y-95307190D01*
X60645406Y-95393350D01*
X60645413Y-95393354D01*
X60780120Y-95443596D01*
X60780127Y-95443598D01*
X60839655Y-95449999D01*
X60839672Y-95450000D01*
X61162500Y-95450000D01*
X61162500Y-94100000D01*
X60387500Y-94100000D01*
X58541941Y-94100000D01*
X58500130Y-94001610D01*
X58359018Y-93770390D01*
X58269747Y-93663119D01*
X58217220Y-93600000D01*
X60387500Y-93600000D01*
X61162500Y-93600000D01*
X61162500Y-92250000D01*
X61662500Y-92250000D01*
X61662500Y-93600000D01*
X62437500Y-93600000D01*
X63337500Y-93600000D01*
X64112500Y-93600000D01*
X64112500Y-92250000D01*
X64612500Y-92250000D01*
X64612500Y-93600000D01*
X65387500Y-93600000D01*
X65387500Y-92702172D01*
X65387499Y-92702155D01*
X65381098Y-92642627D01*
X65381096Y-92642620D01*
X65330854Y-92507913D01*
X65330850Y-92507906D01*
X65244690Y-92392812D01*
X65244687Y-92392809D01*
X65129593Y-92306649D01*
X65129586Y-92306645D01*
X64994879Y-92256403D01*
X64994872Y-92256401D01*
X64935344Y-92250000D01*
X64612500Y-92250000D01*
X64112500Y-92250000D01*
X63789655Y-92250000D01*
X63730127Y-92256401D01*
X63730120Y-92256403D01*
X63595413Y-92306645D01*
X63595406Y-92306649D01*
X63480312Y-92392809D01*
X63480309Y-92392812D01*
X63394149Y-92507906D01*
X63394145Y-92507913D01*
X63343903Y-92642620D01*
X63343901Y-92642627D01*
X63337500Y-92702155D01*
X63337500Y-93600000D01*
X62437500Y-93600000D01*
X62437500Y-92702172D01*
X62437499Y-92702155D01*
X62431098Y-92642627D01*
X62431096Y-92642620D01*
X62380854Y-92507913D01*
X62380850Y-92507906D01*
X62294690Y-92392812D01*
X62294687Y-92392809D01*
X62179593Y-92306649D01*
X62179586Y-92306645D01*
X62044879Y-92256403D01*
X62044872Y-92256401D01*
X61985344Y-92250000D01*
X61662500Y-92250000D01*
X61162500Y-92250000D01*
X60839655Y-92250000D01*
X60780127Y-92256401D01*
X60780120Y-92256403D01*
X60645413Y-92306645D01*
X60645406Y-92306649D01*
X60530312Y-92392809D01*
X60530309Y-92392812D01*
X60444149Y-92507906D01*
X60444145Y-92507913D01*
X60393903Y-92642620D01*
X60393901Y-92642627D01*
X60387500Y-92702155D01*
X60387500Y-93600000D01*
X58217220Y-93600000D01*
X58185746Y-93562180D01*
X58185740Y-93562175D01*
X57984002Y-93381418D01*
X57758092Y-93231957D01*
X57758090Y-93231956D01*
X57512824Y-93116980D01*
X57512819Y-93116978D01*
X57512814Y-93116976D01*
X57253442Y-93038942D01*
X57253428Y-93038939D01*
X57137791Y-93021921D01*
X56985439Y-92999500D01*
X56782369Y-92999500D01*
X56782364Y-92999500D01*
X56579844Y-93014323D01*
X56579831Y-93014325D01*
X56315453Y-93073217D01*
X56315446Y-93073220D01*
X56062439Y-93169987D01*
X55826226Y-93302557D01*
X55611822Y-93468112D01*
X55423822Y-93663109D01*
X55423816Y-93663116D01*
X55266202Y-93883419D01*
X55266199Y-93883424D01*
X55142350Y-94124309D01*
X55142343Y-94124327D01*
X55054884Y-94380685D01*
X55054881Y-94380699D01*
X55005681Y-94647068D01*
X55005680Y-94647075D01*
X54995787Y-94917763D01*
X53350500Y-94917763D01*
X53350500Y-92952212D01*
X53350658Y-92947788D01*
X53350659Y-92947776D01*
X53355484Y-92880314D01*
X53367049Y-92733360D01*
X53368276Y-92725045D01*
X53368277Y-92725044D01*
X53388902Y-92630231D01*
X53390842Y-92622148D01*
X53416860Y-92513774D01*
X53419051Y-92506598D01*
X53454989Y-92410246D01*
X53498943Y-92304133D01*
X53501797Y-92298167D01*
X53551563Y-92207027D01*
X53553053Y-92204453D01*
X53611500Y-92109075D01*
X53614690Y-92104375D01*
X53677458Y-92020527D01*
X53679873Y-92017508D01*
X53752020Y-91933036D01*
X53755278Y-91929511D01*
X53829511Y-91855278D01*
X53833036Y-91852020D01*
X53917508Y-91779873D01*
X53920527Y-91777458D01*
X54004375Y-91714690D01*
X54009075Y-91711500D01*
X54104453Y-91653053D01*
X54107027Y-91651563D01*
X54198167Y-91601797D01*
X54204133Y-91598943D01*
X54310246Y-91554989D01*
X54406611Y-91519046D01*
X54413764Y-91516863D01*
X54530191Y-91488910D01*
X54625058Y-91468273D01*
X54633351Y-91467050D01*
X54780203Y-91455492D01*
X54847792Y-91450657D01*
X54852213Y-91450500D01*
X54901213Y-91450500D01*
X54901773Y-91450437D01*
X55264352Y-91450000D01*
X67280144Y-91450000D01*
X67347183Y-91469685D01*
G37*
%TD.AperFunction*%
%TA.AperFunction,Conductor*%
G36*
X64330203Y-126679517D02*
G01*
X64336681Y-126685549D01*
X64336770Y-126685638D01*
X64348551Y-126699270D01*
X64362888Y-126718528D01*
X64402909Y-126752111D01*
X64406897Y-126755766D01*
X64412716Y-126761585D01*
X64412720Y-126761588D01*
X64412723Y-126761591D01*
X64438459Y-126781940D01*
X64497286Y-126831302D01*
X64497287Y-126831302D01*
X64497289Y-126831304D01*
X64503318Y-126835270D01*
X64503285Y-126835319D01*
X64509647Y-126839372D01*
X64509679Y-126839321D01*
X64515819Y-126843108D01*
X64515823Y-126843111D01*
X64524440Y-126847129D01*
X64585441Y-126875575D01*
X64654065Y-126910039D01*
X64654067Y-126910040D01*
X64654069Y-126910040D01*
X64660857Y-126912511D01*
X64660836Y-126912567D01*
X64667957Y-126915043D01*
X64667976Y-126914986D01*
X64674822Y-126917254D01*
X64674827Y-126917257D01*
X64674832Y-126917258D01*
X64674835Y-126917259D01*
X64750065Y-126932792D01*
X64824779Y-126950500D01*
X64824782Y-126950500D01*
X64824786Y-126950501D01*
X64831953Y-126951339D01*
X64831946Y-126951398D01*
X64839444Y-126952164D01*
X64839450Y-126952105D01*
X64846639Y-126952734D01*
X64846643Y-126952733D01*
X64846644Y-126952734D01*
X64923417Y-126950500D01*
X65733033Y-126950500D01*
X65800072Y-126970185D01*
X65845827Y-127022989D01*
X65855771Y-127092147D01*
X65831409Y-127149986D01*
X65775464Y-127222894D01*
X65775461Y-127222899D01*
X65714957Y-127368970D01*
X65714955Y-127368975D01*
X65694318Y-127525734D01*
X65694318Y-127525735D01*
X65698969Y-127561062D01*
X65699500Y-127569164D01*
X65699500Y-129306571D01*
X65698969Y-129314673D01*
X65694318Y-129349999D01*
X65694318Y-129350001D01*
X65699891Y-129392331D01*
X65710394Y-129472111D01*
X65710711Y-129474522D01*
X65714956Y-129506760D01*
X65714956Y-129506762D01*
X65771839Y-129644091D01*
X65775464Y-129652841D01*
X65871718Y-129778282D01*
X65899995Y-129799980D01*
X65906085Y-129805320D01*
X66120311Y-130019546D01*
X66256079Y-130155314D01*
X66289564Y-130216637D01*
X66284580Y-130286329D01*
X66247891Y-130335343D01*
X66248728Y-130336180D01*
X66242910Y-130341998D01*
X66242718Y-130342255D01*
X66242461Y-130342447D01*
X66242451Y-130342457D01*
X66156206Y-130457664D01*
X66156202Y-130457671D01*
X66105908Y-130592517D01*
X66103750Y-130612594D01*
X66099501Y-130652123D01*
X66099500Y-130652135D01*
X66099500Y-132247870D01*
X66099501Y-132247876D01*
X66105908Y-132307483D01*
X66156202Y-132442328D01*
X66156206Y-132442335D01*
X66213411Y-132518750D01*
X66242454Y-132557546D01*
X66297480Y-132598738D01*
X66339350Y-132654671D01*
X66344334Y-132724363D01*
X66328707Y-132763100D01*
X66240645Y-132905871D01*
X66240641Y-132905880D01*
X66185494Y-133072302D01*
X66185493Y-133072309D01*
X66175000Y-133175013D01*
X66175000Y-133450000D01*
X67388500Y-133450000D01*
X67455539Y-133469685D01*
X67501294Y-133522489D01*
X67512500Y-133574000D01*
X67512500Y-134924999D01*
X67649972Y-134924999D01*
X67649986Y-134924998D01*
X67752697Y-134914505D01*
X67919119Y-134859358D01*
X67919124Y-134859356D01*
X68068345Y-134767315D01*
X68125319Y-134710342D01*
X68186642Y-134676857D01*
X68256334Y-134681841D01*
X68312267Y-134723713D01*
X68336684Y-134789177D01*
X68337000Y-134798023D01*
X68337000Y-137368837D01*
X68317315Y-137435876D01*
X68300681Y-137456518D01*
X66564032Y-139193166D01*
X66499446Y-139254562D01*
X66464399Y-139304914D01*
X66461562Y-139308676D01*
X66422802Y-139356212D01*
X66422799Y-139356217D01*
X66406892Y-139386667D01*
X66402824Y-139393381D01*
X66383202Y-139421574D01*
X66359009Y-139477950D01*
X66356988Y-139482204D01*
X66328591Y-139536571D01*
X66328590Y-139536572D01*
X66319140Y-139569595D01*
X66316507Y-139576991D01*
X66302959Y-139608563D01*
X66290613Y-139668639D01*
X66289490Y-139673215D01*
X66272613Y-139732197D01*
X66272613Y-139732199D01*
X66270003Y-139766461D01*
X66268914Y-139774228D01*
X66265961Y-139788602D01*
X66262000Y-139807878D01*
X66262000Y-139869217D01*
X66261821Y-139873926D01*
X66257162Y-139935094D01*
X66258053Y-139942086D01*
X66261503Y-139969180D01*
X66262000Y-139977008D01*
X66262000Y-140500249D01*
X66242315Y-140567288D01*
X66212312Y-140599515D01*
X66154957Y-140642451D01*
X66154951Y-140642457D01*
X66068706Y-140757664D01*
X66068702Y-140757671D01*
X66018408Y-140892517D01*
X66012001Y-140952116D01*
X66012000Y-140952135D01*
X66012000Y-141534216D01*
X65992315Y-141601255D01*
X65975680Y-141621897D01*
X65146075Y-142451505D01*
X64884399Y-142713181D01*
X64823076Y-142746666D01*
X64796718Y-142749500D01*
X62252917Y-142749500D01*
X62185878Y-142729815D01*
X62181794Y-142727075D01*
X62090143Y-142662900D01*
X62090139Y-142662898D01*
X62090137Y-142662897D01*
X61891830Y-142570425D01*
X61891826Y-142570424D01*
X61891822Y-142570422D01*
X61680482Y-142513794D01*
X61680473Y-142513792D01*
X61670144Y-142512889D01*
X61605076Y-142487435D01*
X61564098Y-142430843D01*
X61560222Y-142361081D01*
X61568569Y-142336962D01*
X61642075Y-142179330D01*
X61698707Y-141967977D01*
X61717777Y-141750000D01*
X61698707Y-141532023D01*
X61642075Y-141320670D01*
X61549602Y-141122362D01*
X61549600Y-141122359D01*
X61549599Y-141122357D01*
X61424099Y-140943124D01*
X61352841Y-140871866D01*
X61269377Y-140788402D01*
X61116503Y-140681358D01*
X61090138Y-140662897D01*
X60990984Y-140616661D01*
X60891830Y-140570425D01*
X60891826Y-140570424D01*
X60891822Y-140570422D01*
X60680477Y-140513793D01*
X60462502Y-140494723D01*
X60462498Y-140494723D01*
X60317182Y-140507436D01*
X60244523Y-140513793D01*
X60244520Y-140513793D01*
X60033177Y-140570422D01*
X60033168Y-140570426D01*
X59834861Y-140662898D01*
X59834857Y-140662900D01*
X59655621Y-140788402D01*
X59572158Y-140871866D01*
X59510835Y-140905351D01*
X59441143Y-140900367D01*
X59385210Y-140858495D01*
X59376062Y-140844369D01*
X59369990Y-140833431D01*
X59366617Y-140826329D01*
X59353878Y-140794435D01*
X59353875Y-140794430D01*
X59320121Y-140743214D01*
X59317680Y-140739184D01*
X59303667Y-140713938D01*
X59287909Y-140685548D01*
X59287907Y-140685545D01*
X59265533Y-140659484D01*
X59260802Y-140653209D01*
X59253712Y-140642451D01*
X59241902Y-140624531D01*
X59198512Y-140581141D01*
X59195321Y-140577697D01*
X59154177Y-140529769D01*
X59125446Y-140466080D01*
X59135709Y-140396968D01*
X59181707Y-140344376D01*
X59248264Y-140325000D01*
X59497828Y-140325000D01*
X59497844Y-140324999D01*
X59557372Y-140318598D01*
X59557379Y-140318596D01*
X59692086Y-140268354D01*
X59692093Y-140268350D01*
X59807187Y-140182190D01*
X59807190Y-140182187D01*
X59893350Y-140067093D01*
X59893354Y-140067086D01*
X59943596Y-139932379D01*
X59943598Y-139932372D01*
X59949999Y-139872844D01*
X59950000Y-139872827D01*
X59950000Y-139225000D01*
X59033686Y-139225000D01*
X59059493Y-139184844D01*
X59100000Y-139046889D01*
X59100000Y-138903111D01*
X59059493Y-138765156D01*
X59033686Y-138725000D01*
X59950000Y-138725000D01*
X59950000Y-138077172D01*
X59949999Y-138077155D01*
X59943598Y-138017627D01*
X59943596Y-138017620D01*
X59893354Y-137882913D01*
X59893350Y-137882906D01*
X59844584Y-137817763D01*
X61808287Y-137817763D01*
X61837913Y-138087013D01*
X61837915Y-138087024D01*
X61906426Y-138349082D01*
X61906428Y-138349088D01*
X62012370Y-138598390D01*
X62096478Y-138736206D01*
X62153479Y-138829605D01*
X62153486Y-138829615D01*
X62326753Y-139037819D01*
X62326759Y-139037824D01*
X62367692Y-139074500D01*
X62528498Y-139218582D01*
X62754410Y-139368044D01*
X62999676Y-139483020D01*
X62999683Y-139483022D01*
X62999685Y-139483023D01*
X63259057Y-139561057D01*
X63259064Y-139561058D01*
X63259069Y-139561060D01*
X63527061Y-139600500D01*
X63527066Y-139600500D01*
X63730136Y-139600500D01*
X63781633Y-139596730D01*
X63932656Y-139585677D01*
X64045258Y-139560593D01*
X64197046Y-139526782D01*
X64197048Y-139526781D01*
X64197053Y-139526780D01*
X64450058Y-139430014D01*
X64686277Y-139297441D01*
X64900677Y-139131888D01*
X65088686Y-138936881D01*
X65246299Y-138716579D01*
X65362627Y-138490320D01*
X65370149Y-138475690D01*
X65370151Y-138475684D01*
X65370156Y-138475675D01*
X65457618Y-138219305D01*
X65506819Y-137952933D01*
X65516712Y-137682235D01*
X65487086Y-137412982D01*
X65418572Y-137150912D01*
X65312630Y-136901610D01*
X65171518Y-136670390D01*
X65082247Y-136563119D01*
X64998246Y-136462180D01*
X64998240Y-136462175D01*
X64796502Y-136281418D01*
X64570592Y-136131957D01*
X64570590Y-136131956D01*
X64325324Y-136016980D01*
X64325319Y-136016978D01*
X64325314Y-136016976D01*
X64065942Y-135938942D01*
X64065928Y-135938939D01*
X63950291Y-135921921D01*
X63797939Y-135899500D01*
X63594869Y-135899500D01*
X63594864Y-135899500D01*
X63392344Y-135914323D01*
X63392331Y-135914325D01*
X63127953Y-135973217D01*
X63127946Y-135973220D01*
X62874939Y-136069987D01*
X62638726Y-136202557D01*
X62424322Y-136368112D01*
X62236322Y-136563109D01*
X62236316Y-136563116D01*
X62078702Y-136783419D01*
X62078699Y-136783424D01*
X61954850Y-137024309D01*
X61954843Y-137024327D01*
X61867384Y-137280685D01*
X61867382Y-137280695D01*
X61822213Y-137525241D01*
X61818181Y-137547068D01*
X61818180Y-137547075D01*
X61808287Y-137817763D01*
X59844584Y-137817763D01*
X59807190Y-137767812D01*
X59807187Y-137767809D01*
X59692093Y-137681649D01*
X59692088Y-137681646D01*
X59560528Y-137632577D01*
X59504595Y-137590705D01*
X59480178Y-137525241D01*
X59495030Y-137456968D01*
X59516175Y-137428720D01*
X59638495Y-137306401D01*
X59774035Y-137112830D01*
X59873903Y-136898663D01*
X59935063Y-136670408D01*
X59955659Y-136435000D01*
X59953848Y-136414306D01*
X59942222Y-136281418D01*
X59935063Y-136199592D01*
X59873903Y-135971337D01*
X59774035Y-135757171D01*
X59773670Y-135756649D01*
X59638494Y-135563597D01*
X59471402Y-135396506D01*
X59471395Y-135396501D01*
X59277834Y-135260967D01*
X59277830Y-135260965D01*
X59275994Y-135260109D01*
X59063663Y-135161097D01*
X59063659Y-135161096D01*
X59063655Y-135161094D01*
X58835413Y-135099938D01*
X58835403Y-135099936D01*
X58664990Y-135085027D01*
X58661654Y-135083722D01*
X58648925Y-135083621D01*
X58600002Y-135079341D01*
X58599999Y-135079341D01*
X58364596Y-135099936D01*
X58364586Y-135099938D01*
X58136344Y-135161094D01*
X58136335Y-135161098D01*
X57922171Y-135260964D01*
X57922169Y-135260965D01*
X57728597Y-135396505D01*
X57726922Y-135398181D01*
X57726000Y-135398684D01*
X57724449Y-135399986D01*
X57724187Y-135399674D01*
X57665599Y-135431666D01*
X57639241Y-135434500D01*
X57512000Y-135434500D01*
X57444961Y-135414815D01*
X57399206Y-135362011D01*
X57388000Y-135310500D01*
X57388000Y-134710523D01*
X57407685Y-134643484D01*
X57460489Y-134597729D01*
X57529647Y-134587785D01*
X57593203Y-134616810D01*
X57599681Y-134622842D01*
X57656654Y-134679815D01*
X57805875Y-134771856D01*
X57805880Y-134771858D01*
X57972302Y-134827005D01*
X57972309Y-134827006D01*
X58075019Y-134837499D01*
X58212499Y-134837499D01*
X58712500Y-134837499D01*
X58849972Y-134837499D01*
X58849986Y-134837498D01*
X58952697Y-134827005D01*
X59119119Y-134771858D01*
X59119124Y-134771856D01*
X59268345Y-134679815D01*
X59381069Y-134567092D01*
X59442392Y-134533607D01*
X59512084Y-134538591D01*
X59556431Y-134567092D01*
X59637904Y-134648565D01*
X59787125Y-134740606D01*
X59787130Y-134740608D01*
X59953552Y-134795755D01*
X59953559Y-134795756D01*
X60056269Y-134806249D01*
X60193749Y-134806249D01*
X60193750Y-134806248D01*
X60193750Y-133831250D01*
X59585786Y-133831250D01*
X59533746Y-133859666D01*
X59507388Y-133862500D01*
X58712500Y-133862500D01*
X58712500Y-134837499D01*
X58212499Y-134837499D01*
X58212500Y-134837498D01*
X58212500Y-133486500D01*
X58232185Y-133419461D01*
X58284989Y-133373706D01*
X58336500Y-133362500D01*
X59320464Y-133362500D01*
X59372504Y-133334084D01*
X59398862Y-133331250D01*
X60569750Y-133331250D01*
X60636789Y-133350935D01*
X60682544Y-133403739D01*
X60693750Y-133455250D01*
X60693750Y-134806249D01*
X60831222Y-134806249D01*
X60831236Y-134806248D01*
X60933947Y-134795755D01*
X61100369Y-134740608D01*
X61100374Y-134740606D01*
X61249595Y-134648565D01*
X61373568Y-134524592D01*
X61375415Y-134521598D01*
X61377219Y-134519974D01*
X61378048Y-134518927D01*
X61378226Y-134519068D01*
X61427360Y-134474871D01*
X61496323Y-134463646D01*
X61560406Y-134491486D01*
X61586493Y-134521591D01*
X61588538Y-134524906D01*
X61712594Y-134648962D01*
X61861916Y-134741064D01*
X62028453Y-134796249D01*
X62131241Y-134806750D01*
X62906258Y-134806749D01*
X62906266Y-134806748D01*
X62906269Y-134806748D01*
X62962552Y-134800998D01*
X63009047Y-134796249D01*
X63175584Y-134741064D01*
X63324906Y-134648962D01*
X63448962Y-134524906D01*
X63541064Y-134375584D01*
X63596249Y-134209047D01*
X63606750Y-134106259D01*
X63606750Y-133950000D01*
X66175001Y-133950000D01*
X66175001Y-134224986D01*
X66185494Y-134327697D01*
X66240641Y-134494119D01*
X66240643Y-134494124D01*
X66332684Y-134643345D01*
X66456654Y-134767315D01*
X66605875Y-134859356D01*
X66605880Y-134859358D01*
X66772302Y-134914505D01*
X66772309Y-134914506D01*
X66875019Y-134924999D01*
X67012499Y-134924999D01*
X67012500Y-134924998D01*
X67012500Y-133950000D01*
X66175001Y-133950000D01*
X63606750Y-133950000D01*
X63606749Y-133056242D01*
X63596249Y-132953453D01*
X63541064Y-132786916D01*
X63448962Y-132637594D01*
X63415763Y-132604395D01*
X63382278Y-132543072D01*
X63387262Y-132473380D01*
X63397906Y-132451617D01*
X63398960Y-132449907D01*
X63398962Y-132449906D01*
X63491064Y-132300584D01*
X63546249Y-132134047D01*
X63556750Y-132031259D01*
X63556749Y-131031242D01*
X63555995Y-131023865D01*
X63546249Y-130928453D01*
X63546248Y-130928450D01*
X63511633Y-130823990D01*
X63491064Y-130761916D01*
X63398962Y-130612594D01*
X63398959Y-130612591D01*
X63394484Y-130606931D01*
X63397070Y-130604886D01*
X63370581Y-130556375D01*
X63375565Y-130486683D01*
X63389232Y-130462427D01*
X63388525Y-130461991D01*
X63484356Y-130306624D01*
X63484358Y-130306619D01*
X63539505Y-130140197D01*
X63539506Y-130140190D01*
X63549999Y-130037486D01*
X63550000Y-130037473D01*
X63550000Y-129787500D01*
X62324000Y-129787500D01*
X62256961Y-129767815D01*
X62211206Y-129715011D01*
X62200000Y-129663500D01*
X62200000Y-129411500D01*
X62219685Y-129344461D01*
X62272489Y-129298706D01*
X62324000Y-129287500D01*
X63549999Y-129287500D01*
X63549999Y-129037528D01*
X63549998Y-129037513D01*
X63539505Y-128934802D01*
X63484358Y-128768380D01*
X63484356Y-128768375D01*
X63392315Y-128619154D01*
X63305511Y-128532350D01*
X63272026Y-128471027D01*
X63275000Y-128429441D01*
X63275000Y-128135568D01*
X63282817Y-128092237D01*
X63319091Y-127994983D01*
X63325500Y-127935373D01*
X63325499Y-127312500D01*
X63625000Y-127312500D01*
X63625000Y-128387500D01*
X63672828Y-128387500D01*
X63672844Y-128387499D01*
X63732372Y-128381098D01*
X63732379Y-128381096D01*
X63867086Y-128330854D01*
X63867093Y-128330850D01*
X63982187Y-128244690D01*
X63982190Y-128244687D01*
X64068350Y-128129593D01*
X64068354Y-128129586D01*
X64118596Y-127994879D01*
X64118598Y-127994872D01*
X64124999Y-127935344D01*
X64125000Y-127935327D01*
X64125000Y-127312500D01*
X63625000Y-127312500D01*
X63325499Y-127312500D01*
X63325499Y-127086498D01*
X63345183Y-127019461D01*
X63397987Y-126973706D01*
X63449499Y-126962500D01*
X64125000Y-126962500D01*
X64125000Y-126773230D01*
X64144685Y-126706191D01*
X64197489Y-126660436D01*
X64266647Y-126650492D01*
X64330203Y-126679517D01*
G37*
%TD.AperFunction*%
%TA.AperFunction,Conductor*%
G36*
X70918834Y-127961531D02*
G01*
X70974767Y-128003403D01*
X70999184Y-128068867D01*
X70999500Y-128077713D01*
X70999500Y-128472121D01*
X70999501Y-128472139D01*
X71010000Y-128574916D01*
X71010001Y-128574919D01*
X71027536Y-128627834D01*
X71065186Y-128741454D01*
X71150364Y-128879551D01*
X71157289Y-128890777D01*
X71160795Y-128895211D01*
X71186934Y-128960007D01*
X71173892Y-129028649D01*
X71160795Y-129049029D01*
X71157289Y-129053462D01*
X71065187Y-129202783D01*
X71065185Y-129202788D01*
X71047061Y-129257483D01*
X71010001Y-129369323D01*
X71010001Y-129369324D01*
X71010000Y-129369324D01*
X70999500Y-129472103D01*
X70999500Y-130472121D01*
X70999501Y-130472139D01*
X71010000Y-130574916D01*
X71010001Y-130574919D01*
X71065185Y-130741451D01*
X71065186Y-130741454D01*
X71157287Y-130890775D01*
X71157289Y-130890777D01*
X71160795Y-130895211D01*
X71186934Y-130960007D01*
X71173892Y-131028649D01*
X71160795Y-131049029D01*
X71157289Y-131053462D01*
X71065187Y-131202783D01*
X71065185Y-131202788D01*
X71047949Y-131254803D01*
X71010001Y-131369323D01*
X71010001Y-131369324D01*
X71010000Y-131369324D01*
X70999500Y-131472103D01*
X70999500Y-132472121D01*
X70999501Y-132472139D01*
X71010000Y-132574916D01*
X71010001Y-132574919D01*
X71055749Y-132712975D01*
X71065186Y-132741454D01*
X71157288Y-132890776D01*
X71281344Y-133014832D01*
X71430666Y-133106934D01*
X71597203Y-133162119D01*
X71699991Y-133172620D01*
X72500008Y-133172619D01*
X72500016Y-133172618D01*
X72500019Y-133172618D01*
X72556302Y-133166868D01*
X72602797Y-133162119D01*
X72769334Y-133106934D01*
X72918656Y-133014832D01*
X73012319Y-132921169D01*
X73073642Y-132887684D01*
X73143334Y-132892668D01*
X73187681Y-132921169D01*
X73281344Y-133014832D01*
X73430666Y-133106934D01*
X73597203Y-133162119D01*
X73699991Y-133172620D01*
X74500008Y-133172619D01*
X74500016Y-133172618D01*
X74500019Y-133172618D01*
X74556302Y-133166868D01*
X74602797Y-133162119D01*
X74769334Y-133106934D01*
X74918656Y-133014832D01*
X75042712Y-132890776D01*
X75134814Y-132741454D01*
X75154311Y-132682613D01*
X75194084Y-132625171D01*
X75258600Y-132598348D01*
X75272017Y-132597620D01*
X75513001Y-132597620D01*
X75580040Y-132617305D01*
X75625795Y-132670109D01*
X75637001Y-132721620D01*
X75637001Y-132847138D01*
X75647500Y-132949916D01*
X75647501Y-132949919D01*
X75702685Y-133116451D01*
X75702689Y-133116460D01*
X75772000Y-133228832D01*
X75790440Y-133296225D01*
X75769517Y-133362888D01*
X75761530Y-133372615D01*
X75761766Y-133372801D01*
X75757290Y-133378461D01*
X75665187Y-133527783D01*
X75665185Y-133527788D01*
X75665115Y-133528000D01*
X75610001Y-133694323D01*
X75610001Y-133694324D01*
X75610000Y-133694324D01*
X75599500Y-133797103D01*
X75599500Y-134847121D01*
X75599501Y-134847139D01*
X75610000Y-134949916D01*
X75610001Y-134949919D01*
X75652888Y-135079341D01*
X75665186Y-135116454D01*
X75757288Y-135265776D01*
X75881344Y-135389832D01*
X76028097Y-135480349D01*
X76074821Y-135532295D01*
X76087000Y-135585887D01*
X76087000Y-136825500D01*
X76067315Y-136892539D01*
X76014511Y-136938294D01*
X75963000Y-136949500D01*
X70462000Y-136949500D01*
X70394961Y-136929815D01*
X70349206Y-136877011D01*
X70338000Y-136825500D01*
X70338000Y-134564866D01*
X70356462Y-134499768D01*
X70359814Y-134494334D01*
X70414999Y-134327797D01*
X70425500Y-134225009D01*
X70425499Y-133174992D01*
X70425256Y-133172618D01*
X70414999Y-133072203D01*
X70414998Y-133072200D01*
X70395987Y-133014830D01*
X70359814Y-132905666D01*
X70356458Y-132900225D01*
X70338000Y-132835134D01*
X70338000Y-132768803D01*
X70357685Y-132701764D01*
X70410489Y-132656009D01*
X70418661Y-132652623D01*
X70442331Y-132643796D01*
X70557546Y-132557546D01*
X70643796Y-132442331D01*
X70694091Y-132307483D01*
X70700500Y-132247873D01*
X70700499Y-130652128D01*
X70694091Y-130592517D01*
X70687527Y-130574919D01*
X70643797Y-130457671D01*
X70643793Y-130457664D01*
X70557547Y-130342455D01*
X70557544Y-130342452D01*
X70442335Y-130256206D01*
X70442328Y-130256202D01*
X70307482Y-130205908D01*
X70307483Y-130205908D01*
X70247883Y-130199501D01*
X70247881Y-130199500D01*
X70247873Y-130199500D01*
X70247865Y-130199500D01*
X68050098Y-130199500D01*
X67983059Y-130179815D01*
X67962417Y-130163181D01*
X67661416Y-129862180D01*
X67627931Y-129800857D01*
X67632915Y-129731165D01*
X67674787Y-129675232D01*
X67740251Y-129650815D01*
X67749097Y-129650499D01*
X70247871Y-129650499D01*
X70247872Y-129650499D01*
X70307483Y-129644091D01*
X70442331Y-129593796D01*
X70557546Y-129507546D01*
X70643796Y-129392331D01*
X70694091Y-129257483D01*
X70700500Y-129197873D01*
X70700499Y-128128713D01*
X70720183Y-128061675D01*
X70736814Y-128041037D01*
X70787820Y-127990031D01*
X70849142Y-127956547D01*
X70918834Y-127961531D01*
G37*
%TD.AperFunction*%
%TA.AperFunction,Conductor*%
G36*
X58203281Y-122470185D02*
G01*
X58228387Y-122491523D01*
X58231256Y-122494709D01*
X58261490Y-122557699D01*
X58252868Y-122627034D01*
X58226792Y-122665367D01*
X57676531Y-123215629D01*
X57611946Y-123277024D01*
X57576899Y-123327376D01*
X57574062Y-123331138D01*
X57535302Y-123378674D01*
X57535299Y-123378679D01*
X57519392Y-123409129D01*
X57515324Y-123415843D01*
X57495702Y-123444036D01*
X57471509Y-123500412D01*
X57469488Y-123504666D01*
X57441091Y-123559033D01*
X57441090Y-123559034D01*
X57431640Y-123592057D01*
X57429007Y-123599453D01*
X57415459Y-123631025D01*
X57403113Y-123691101D01*
X57401990Y-123695677D01*
X57385113Y-123754659D01*
X57385113Y-123754661D01*
X57382503Y-123788923D01*
X57381414Y-123796690D01*
X57379237Y-123807288D01*
X57374500Y-123830340D01*
X57374500Y-123891679D01*
X57374321Y-123896388D01*
X57369662Y-123957556D01*
X57371707Y-123973609D01*
X57374003Y-123991642D01*
X57374500Y-123999470D01*
X57374500Y-124064477D01*
X57354815Y-124131516D01*
X57302011Y-124177271D01*
X57232853Y-124187215D01*
X57169297Y-124158190D01*
X57162819Y-124152158D01*
X57105845Y-124095184D01*
X56956624Y-124003143D01*
X56956619Y-124003141D01*
X56790197Y-123947994D01*
X56790190Y-123947993D01*
X56687486Y-123937500D01*
X56550000Y-123937500D01*
X56550000Y-125288500D01*
X56530315Y-125355539D01*
X56477511Y-125401294D01*
X56426000Y-125412500D01*
X55212501Y-125412500D01*
X55212501Y-125687486D01*
X55222994Y-125790197D01*
X55278141Y-125956619D01*
X55278143Y-125956624D01*
X55370184Y-126105845D01*
X55382553Y-126118214D01*
X55416038Y-126179537D01*
X55411054Y-126249229D01*
X55386281Y-126287784D01*
X55386772Y-126288172D01*
X55382820Y-126293170D01*
X55382570Y-126293560D01*
X55382294Y-126293835D01*
X55382293Y-126293836D01*
X55290187Y-126443163D01*
X55290186Y-126443166D01*
X55235001Y-126609703D01*
X55235001Y-126609704D01*
X55235000Y-126609704D01*
X55224500Y-126712483D01*
X55224500Y-126846717D01*
X55204815Y-126913756D01*
X55188181Y-126934398D01*
X55099681Y-127022898D01*
X55038358Y-127056383D01*
X54968666Y-127051399D01*
X54912733Y-127009527D01*
X54888316Y-126944063D01*
X54888000Y-126935217D01*
X54888000Y-124912500D01*
X55212500Y-124912500D01*
X56050000Y-124912500D01*
X56050000Y-123937500D01*
X55912527Y-123937500D01*
X55912512Y-123937501D01*
X55809802Y-123947994D01*
X55643380Y-124003141D01*
X55643375Y-124003143D01*
X55494154Y-124095184D01*
X55370184Y-124219154D01*
X55278143Y-124368375D01*
X55278141Y-124368380D01*
X55222994Y-124534802D01*
X55222993Y-124534809D01*
X55212500Y-124637513D01*
X55212500Y-124912500D01*
X54888000Y-124912500D01*
X54888000Y-124062597D01*
X54907685Y-123995558D01*
X54924319Y-123974916D01*
X56412417Y-122486819D01*
X56473740Y-122453334D01*
X56500098Y-122450500D01*
X58136242Y-122450500D01*
X58203281Y-122470185D01*
G37*
%TD.AperFunction*%
%TA.AperFunction,Conductor*%
G36*
X78593334Y-121670548D02*
G01*
X78637681Y-121699049D01*
X78731344Y-121792712D01*
X78865597Y-121875519D01*
X78912321Y-121927465D01*
X78924500Y-121981057D01*
X78924500Y-122972620D01*
X78904815Y-123039659D01*
X78852011Y-123085414D01*
X78800500Y-123096620D01*
X78449998Y-123096620D01*
X78449980Y-123096621D01*
X78347203Y-123107120D01*
X78347200Y-123107121D01*
X78180668Y-123162305D01*
X78180663Y-123162307D01*
X78031342Y-123254409D01*
X77907288Y-123378463D01*
X77907283Y-123378469D01*
X77905241Y-123381781D01*
X77903247Y-123383573D01*
X77902807Y-123384131D01*
X77902711Y-123384055D01*
X77853291Y-123428503D01*
X77784328Y-123439722D01*
X77720247Y-123411875D01*
X77694168Y-123381776D01*
X77692319Y-123378779D01*
X77692316Y-123378775D01*
X77568345Y-123254804D01*
X77419124Y-123162763D01*
X77419119Y-123162761D01*
X77252697Y-123107614D01*
X77252690Y-123107613D01*
X77149986Y-123097120D01*
X77012500Y-123097120D01*
X77012500Y-126448120D01*
X76992815Y-126515159D01*
X76940011Y-126560914D01*
X76888500Y-126572120D01*
X76636500Y-126572120D01*
X76569461Y-126552435D01*
X76523706Y-126499631D01*
X76512500Y-126448120D01*
X76512500Y-123097120D01*
X76375027Y-123097120D01*
X76375012Y-123097121D01*
X76272302Y-123107614D01*
X76105880Y-123162761D01*
X76105875Y-123162763D01*
X75956654Y-123254804D01*
X75832684Y-123378774D01*
X75740643Y-123527995D01*
X75740641Y-123528000D01*
X75685494Y-123694422D01*
X75685493Y-123694429D01*
X75675000Y-123797133D01*
X75675000Y-123914943D01*
X75655315Y-123981982D01*
X75602511Y-124027737D01*
X75533353Y-124037681D01*
X75469797Y-124008656D01*
X75463319Y-124002624D01*
X74881137Y-123420442D01*
X74847652Y-123359119D01*
X74852636Y-123289427D01*
X74876666Y-123249792D01*
X74982533Y-123132216D01*
X75077179Y-122968284D01*
X75135674Y-122788256D01*
X75138482Y-122761540D01*
X75165066Y-122696925D01*
X75222363Y-122656940D01*
X75261803Y-122650500D01*
X76206572Y-122650500D01*
X76214670Y-122651030D01*
X76250000Y-122655682D01*
X76250001Y-122655682D01*
X76302254Y-122648802D01*
X76406762Y-122635044D01*
X76552841Y-122574536D01*
X76620499Y-122522620D01*
X76678282Y-122478282D01*
X76699983Y-122449999D01*
X76705319Y-122443914D01*
X77162416Y-121986818D01*
X77223739Y-121953333D01*
X77250097Y-121950499D01*
X77950002Y-121950499D01*
X77950008Y-121950499D01*
X78052797Y-121939999D01*
X78219334Y-121884814D01*
X78368656Y-121792712D01*
X78462319Y-121699049D01*
X78523642Y-121665564D01*
X78593334Y-121670548D01*
G37*
%TD.AperFunction*%
%TA.AperFunction,Conductor*%
G36*
X72805039Y-124842305D02*
G01*
X72850794Y-124895109D01*
X72862000Y-124946620D01*
X72862000Y-124998120D01*
X72842315Y-125065159D01*
X72789511Y-125110914D01*
X72738000Y-125122120D01*
X72475000Y-125122120D01*
X72475000Y-126048120D01*
X72455315Y-126115159D01*
X72402511Y-126160914D01*
X72351000Y-126172120D01*
X72099000Y-126172120D01*
X72031961Y-126152435D01*
X71986206Y-126099631D01*
X71975000Y-126048120D01*
X71975000Y-125122120D01*
X71599500Y-125122120D01*
X71532461Y-125102435D01*
X71486706Y-125049631D01*
X71475500Y-124998120D01*
X71475500Y-124946620D01*
X71495185Y-124879581D01*
X71547989Y-124833826D01*
X71599500Y-124822620D01*
X72738000Y-124822620D01*
X72805039Y-124842305D01*
G37*
%TD.AperFunction*%
%TA.AperFunction,Conductor*%
G36*
X66919334Y-114852389D02*
G01*
X66975267Y-114894261D01*
X66978839Y-114903839D01*
X67000000Y-114925000D01*
X68125500Y-114925000D01*
X68192539Y-114944685D01*
X68238294Y-114997489D01*
X68249500Y-115049000D01*
X68249500Y-115301001D01*
X68229817Y-115368039D01*
X68177013Y-115413794D01*
X68125501Y-115425000D01*
X67000000Y-115425000D01*
X67000000Y-116372844D01*
X67006401Y-116432372D01*
X67006403Y-116432379D01*
X67056645Y-116567086D01*
X67056649Y-116567093D01*
X67142809Y-116682187D01*
X67142812Y-116682190D01*
X67257906Y-116768350D01*
X67257913Y-116768354D01*
X67392620Y-116818596D01*
X67392627Y-116818598D01*
X67452155Y-116824999D01*
X67452172Y-116825000D01*
X67494137Y-116825000D01*
X67561176Y-116844685D01*
X67606931Y-116897489D01*
X67616875Y-116966647D01*
X67588992Y-117027701D01*
X67589165Y-117027834D01*
X67588589Y-117028584D01*
X67587850Y-117030203D01*
X67584992Y-117033271D01*
X67501215Y-117142454D01*
X67487962Y-117159725D01*
X67487961Y-117159727D01*
X67427457Y-117305798D01*
X67427455Y-117305803D01*
X67407931Y-117454108D01*
X67406818Y-117462564D01*
X67409339Y-117481716D01*
X67411469Y-117497890D01*
X67412000Y-117505992D01*
X67412000Y-118582916D01*
X67411469Y-118591014D01*
X67406818Y-118626345D01*
X67410734Y-118656093D01*
X67412000Y-118665705D01*
X67427455Y-118783105D01*
X67427456Y-118783107D01*
X67465933Y-118876000D01*
X67487964Y-118929186D01*
X67584218Y-119054627D01*
X67612495Y-119076325D01*
X67618585Y-119081665D01*
X67929704Y-119392784D01*
X68230824Y-119693904D01*
X68236173Y-119700002D01*
X68257873Y-119728282D01*
X68352297Y-119800736D01*
X68383314Y-119824536D01*
X68529393Y-119885044D01*
X68607774Y-119895363D01*
X68686154Y-119905682D01*
X68686155Y-119905682D01*
X68721484Y-119901030D01*
X68729583Y-119900500D01*
X68874967Y-119900500D01*
X68942006Y-119920185D01*
X68962648Y-119936819D01*
X69678845Y-120653016D01*
X69712330Y-120714339D01*
X69707346Y-120784031D01*
X69665474Y-120839964D01*
X69630169Y-120858402D01*
X69622959Y-120860791D01*
X69616305Y-120862996D01*
X69616294Y-120863001D01*
X69471959Y-120952029D01*
X69471955Y-120952032D01*
X69352032Y-121071955D01*
X69352029Y-121071959D01*
X69263001Y-121216294D01*
X69262996Y-121216305D01*
X69209651Y-121377290D01*
X69199500Y-121476647D01*
X69199500Y-121555770D01*
X69196290Y-121583801D01*
X69152396Y-121772945D01*
X69147242Y-121976358D01*
X69183140Y-122176648D01*
X69183141Y-122176650D01*
X69190654Y-122195459D01*
X69199500Y-122241454D01*
X69199500Y-122323336D01*
X69199501Y-122323355D01*
X69209650Y-122422707D01*
X69209651Y-122422710D01*
X69262996Y-122583694D01*
X69263001Y-122583705D01*
X69352029Y-122728040D01*
X69352032Y-122728044D01*
X69438181Y-122814193D01*
X69471666Y-122875516D01*
X69474500Y-122901874D01*
X69474500Y-123081051D01*
X69454815Y-123148090D01*
X69402011Y-123193845D01*
X69332853Y-123203789D01*
X69328220Y-123203033D01*
X69327491Y-123202899D01*
X69290644Y-123200000D01*
X68887500Y-123200000D01*
X68887500Y-123875500D01*
X68867815Y-123942539D01*
X68815011Y-123988294D01*
X68763500Y-123999500D01*
X68511500Y-123999500D01*
X68444461Y-123979815D01*
X68398706Y-123927011D01*
X68387500Y-123875500D01*
X68387500Y-123200000D01*
X67984356Y-123200000D01*
X67947510Y-123202899D01*
X67947504Y-123202900D01*
X67789806Y-123248716D01*
X67789803Y-123248717D01*
X67648447Y-123332314D01*
X67648438Y-123332321D01*
X67532321Y-123448438D01*
X67532314Y-123448447D01*
X67448717Y-123589803D01*
X67448716Y-123589806D01*
X67402900Y-123747504D01*
X67402899Y-123747510D01*
X67400000Y-123784356D01*
X67400000Y-123875500D01*
X67380315Y-123942539D01*
X67327511Y-123988294D01*
X67276000Y-123999500D01*
X67026205Y-123999500D01*
X67008235Y-123998191D01*
X66984472Y-123994710D01*
X66939033Y-123998686D01*
X66932431Y-123999264D01*
X66927030Y-123999500D01*
X66918789Y-123999500D01*
X66897079Y-124002037D01*
X66886224Y-124003306D01*
X66870919Y-124004645D01*
X66809699Y-124010001D01*
X66802632Y-124011460D01*
X66802620Y-124011404D01*
X66795263Y-124013035D01*
X66795277Y-124013092D01*
X66788243Y-124014759D01*
X66716075Y-124041025D01*
X66643175Y-124065181D01*
X66636626Y-124068236D01*
X66636601Y-124068183D01*
X66629808Y-124071471D01*
X66629834Y-124071523D01*
X66623380Y-124074764D01*
X66559208Y-124116971D01*
X66536402Y-124131038D01*
X66471304Y-124149500D01*
X66109304Y-124149500D01*
X66072432Y-124152401D01*
X66072429Y-124152402D01*
X66051710Y-124158421D01*
X65981841Y-124158219D01*
X65923172Y-124120274D01*
X65896909Y-124062323D01*
X65895876Y-124062568D01*
X65894628Y-124057289D01*
X65894332Y-124056635D01*
X65894174Y-124055368D01*
X65894092Y-124055020D01*
X65843797Y-123920171D01*
X65843793Y-123920164D01*
X65757547Y-123804955D01*
X65747098Y-123797133D01*
X65700834Y-123762499D01*
X65692146Y-123755995D01*
X65650276Y-123700061D01*
X65642458Y-123656729D01*
X65642458Y-122698191D01*
X65662143Y-122631152D01*
X65674307Y-122615220D01*
X65702693Y-122583694D01*
X65749491Y-122531720D01*
X65749493Y-122531715D01*
X65750218Y-122530911D01*
X65809705Y-122494262D01*
X65879562Y-122495591D01*
X65937610Y-122534477D01*
X65960073Y-122574874D01*
X65962996Y-122583694D01*
X65962997Y-122583696D01*
X65963001Y-122583705D01*
X66052029Y-122728040D01*
X66052032Y-122728044D01*
X66171955Y-122847967D01*
X66171959Y-122847970D01*
X66316294Y-122936998D01*
X66316297Y-122936999D01*
X66316303Y-122937003D01*
X66477292Y-122990349D01*
X66576655Y-123000500D01*
X67123344Y-123000499D01*
X67123352Y-123000498D01*
X67123355Y-123000498D01*
X67177760Y-122994940D01*
X67222708Y-122990349D01*
X67383697Y-122937003D01*
X67528044Y-122847968D01*
X67647968Y-122728044D01*
X67737003Y-122583697D01*
X67790349Y-122422708D01*
X67800500Y-122323345D01*
X67800499Y-122244231D01*
X67803709Y-122216200D01*
X67808523Y-122195459D01*
X67847603Y-122027054D01*
X67848887Y-121976363D01*
X67852757Y-121823641D01*
X67852756Y-121823640D01*
X67852757Y-121823637D01*
X67827020Y-121680045D01*
X67816859Y-121623351D01*
X67816856Y-121623341D01*
X67809346Y-121604539D01*
X67800499Y-121558542D01*
X67800499Y-121476662D01*
X67800498Y-121476644D01*
X67790349Y-121377292D01*
X67790348Y-121377289D01*
X67773174Y-121325462D01*
X67737003Y-121216303D01*
X67736999Y-121216297D01*
X67736998Y-121216294D01*
X67647970Y-121071959D01*
X67647967Y-121071955D01*
X67528044Y-120952032D01*
X67528040Y-120952029D01*
X67383705Y-120863001D01*
X67383699Y-120862998D01*
X67383697Y-120862997D01*
X67222708Y-120809651D01*
X67222706Y-120809650D01*
X67222704Y-120809650D01*
X67222700Y-120809649D01*
X67212973Y-120808655D01*
X67148282Y-120782256D01*
X67137900Y-120772979D01*
X66316451Y-119951531D01*
X66255061Y-119886949D01*
X66255060Y-119886948D01*
X66255059Y-119886947D01*
X66212994Y-119857669D01*
X66204709Y-119851902D01*
X66200946Y-119849065D01*
X66182171Y-119833756D01*
X66142654Y-119776135D01*
X66137211Y-119724699D01*
X66155573Y-119550000D01*
X66135787Y-119361744D01*
X66077292Y-119181716D01*
X65982646Y-119017784D01*
X65964738Y-118997895D01*
X65907463Y-118934284D01*
X65877233Y-118871292D01*
X65875613Y-118851312D01*
X65875613Y-115844958D01*
X65895298Y-115777919D01*
X65911927Y-115757282D01*
X66788320Y-114880889D01*
X66849642Y-114847405D01*
X66919334Y-114852389D01*
G37*
%TD.AperFunction*%
%TA.AperFunction,Conductor*%
G36*
X84468039Y-119944685D02*
G01*
X84513794Y-119997489D01*
X84525000Y-120049000D01*
X84525000Y-120675000D01*
X84725500Y-120675000D01*
X84792539Y-120694685D01*
X84838294Y-120747489D01*
X84849500Y-120799000D01*
X84849500Y-121532566D01*
X84829815Y-121599605D01*
X84777011Y-121645360D01*
X84712899Y-121655924D01*
X84650021Y-121649500D01*
X84650009Y-121649500D01*
X84049500Y-121649500D01*
X83982461Y-121629815D01*
X83936706Y-121577011D01*
X83925500Y-121525500D01*
X83925500Y-121166711D01*
X83925499Y-120798998D01*
X83945183Y-120731961D01*
X83997987Y-120686206D01*
X84049499Y-120675000D01*
X84275000Y-120675000D01*
X84275000Y-120049000D01*
X84294685Y-119981961D01*
X84347489Y-119936206D01*
X84399000Y-119925000D01*
X84401000Y-119925000D01*
X84468039Y-119944685D01*
G37*
%TD.AperFunction*%
%TA.AperFunction,Conductor*%
G36*
X64675485Y-114986617D02*
G01*
X64731418Y-115028489D01*
X64755835Y-115093953D01*
X64740983Y-115162226D01*
X64740813Y-115162537D01*
X64730400Y-115181478D01*
X64719723Y-115197733D01*
X64707442Y-115213568D01*
X64707437Y-115213575D01*
X64688928Y-115256345D01*
X64686358Y-115261591D01*
X64663916Y-115302413D01*
X64658935Y-115321814D01*
X64652634Y-115340217D01*
X64644675Y-115358609D01*
X64644674Y-115358612D01*
X64637384Y-115404634D01*
X64636200Y-115410353D01*
X64624614Y-115455479D01*
X64624613Y-115455489D01*
X64624613Y-115475523D01*
X64623086Y-115494922D01*
X64619953Y-115514701D01*
X64619953Y-115514702D01*
X64624338Y-115561090D01*
X64624613Y-115566928D01*
X64624613Y-118851312D01*
X64604928Y-118918351D01*
X64592763Y-118934284D01*
X64517579Y-119017784D01*
X64422934Y-119181715D01*
X64422931Y-119181722D01*
X64370879Y-119341924D01*
X64364439Y-119361744D01*
X64345866Y-119538462D01*
X64319281Y-119603076D01*
X64261984Y-119643061D01*
X64222545Y-119649500D01*
X62113226Y-119649500D01*
X62046187Y-119629815D01*
X62000432Y-119577011D01*
X61990488Y-119507853D01*
X62005839Y-119463500D01*
X62046666Y-119392784D01*
X62089679Y-119318284D01*
X62148174Y-119138256D01*
X62167960Y-118950000D01*
X62148174Y-118761744D01*
X62089679Y-118581716D01*
X61995033Y-118417784D01*
X61868371Y-118277112D01*
X61815913Y-118238999D01*
X61715234Y-118165851D01*
X61715229Y-118165848D01*
X61657602Y-118140191D01*
X61604365Y-118094941D01*
X61584044Y-118028092D01*
X61603090Y-117960868D01*
X61620352Y-117939236D01*
X64544473Y-115015115D01*
X64605793Y-114981633D01*
X64675485Y-114986617D01*
G37*
%TD.AperFunction*%
%TA.AperFunction,Conductor*%
G36*
X76408001Y-117945185D02*
G01*
X76453756Y-117997989D01*
X76463700Y-118067147D01*
X76458668Y-118088504D01*
X76447501Y-118122203D01*
X76447500Y-118122204D01*
X76437000Y-118224983D01*
X76437000Y-118651000D01*
X76417315Y-118718039D01*
X76364511Y-118763794D01*
X76313000Y-118775000D01*
X75799500Y-118775000D01*
X75732461Y-118755315D01*
X75686706Y-118702511D01*
X75675500Y-118651000D01*
X75675499Y-118049500D01*
X75695183Y-117982461D01*
X75747987Y-117936706D01*
X75799499Y-117925500D01*
X76340962Y-117925500D01*
X76408001Y-117945185D01*
G37*
%TD.AperFunction*%
%TA.AperFunction,Conductor*%
G36*
X77067539Y-113945184D02*
G01*
X77113294Y-113997988D01*
X77124500Y-114049499D01*
X77124500Y-116550500D01*
X77104815Y-116617539D01*
X77052011Y-116663294D01*
X77000500Y-116674500D01*
X76582418Y-116674500D01*
X76515379Y-116654815D01*
X76469624Y-116602011D01*
X76459680Y-116532853D01*
X76466236Y-116507167D01*
X76494091Y-116432482D01*
X76494721Y-116426620D01*
X76500500Y-116372873D01*
X76500499Y-114049498D01*
X76520184Y-113982460D01*
X76572987Y-113936705D01*
X76624494Y-113925499D01*
X77000500Y-113925499D01*
X77067539Y-113945184D01*
G37*
%TD.AperFunction*%
%TA.AperFunction,Conductor*%
G36*
X76018834Y-106957913D02*
G01*
X76074767Y-106999785D01*
X76099184Y-107065249D01*
X76099500Y-107074094D01*
X76099500Y-107222869D01*
X76099501Y-107222879D01*
X76106367Y-107286751D01*
X76106367Y-107313257D01*
X76105909Y-107317516D01*
X76105909Y-107317517D01*
X76099500Y-107377127D01*
X76099500Y-107377132D01*
X76099500Y-108175500D01*
X76079815Y-108242539D01*
X76027011Y-108288294D01*
X75975500Y-108299500D01*
X75805354Y-108299500D01*
X75772897Y-108306398D01*
X75620197Y-108338855D01*
X75620192Y-108338857D01*
X75447270Y-108415848D01*
X75447265Y-108415851D01*
X75294129Y-108527111D01*
X75167466Y-108667785D01*
X75072821Y-108831715D01*
X75072818Y-108831722D01*
X75014327Y-109011740D01*
X75014326Y-109011744D01*
X74994540Y-109200000D01*
X75014326Y-109388256D01*
X75014327Y-109388259D01*
X75072821Y-109568286D01*
X75072822Y-109568288D01*
X75127504Y-109663001D01*
X75143977Y-109730901D01*
X75127504Y-109786999D01*
X75072822Y-109881711D01*
X75072821Y-109881713D01*
X75018420Y-110049143D01*
X75014326Y-110061744D01*
X74994540Y-110250000D01*
X75014326Y-110438256D01*
X75014327Y-110438259D01*
X75072818Y-110618277D01*
X75072821Y-110618284D01*
X75167467Y-110782216D01*
X75262189Y-110887415D01*
X75294129Y-110922888D01*
X75447265Y-111034148D01*
X75447270Y-111034151D01*
X75620192Y-111111142D01*
X75620197Y-111111144D01*
X75805354Y-111150500D01*
X75805355Y-111150500D01*
X75976000Y-111150500D01*
X76043039Y-111170185D01*
X76088794Y-111222989D01*
X76100000Y-111274500D01*
X76100000Y-111425000D01*
X76544155Y-111425000D01*
X76550786Y-111425355D01*
X76552127Y-111425500D01*
X78947872Y-111425499D01*
X78947878Y-111425498D01*
X78947882Y-111425498D01*
X78949207Y-111425356D01*
X78955841Y-111425000D01*
X79400000Y-111425000D01*
X79400000Y-111350000D01*
X79875001Y-111350000D01*
X79875001Y-111624986D01*
X79885494Y-111727697D01*
X79940641Y-111894119D01*
X79940643Y-111894124D01*
X80032684Y-112043345D01*
X80156654Y-112167315D01*
X80305875Y-112259356D01*
X80305880Y-112259358D01*
X80472302Y-112314505D01*
X80472309Y-112314506D01*
X80575019Y-112324999D01*
X80712499Y-112324999D01*
X80712500Y-112324998D01*
X80712500Y-111350000D01*
X79875001Y-111350000D01*
X79400000Y-111350000D01*
X79400000Y-111127172D01*
X79399999Y-111127160D01*
X79393380Y-111065604D01*
X79393380Y-111039089D01*
X79394089Y-111032485D01*
X79394091Y-111032483D01*
X79400500Y-110972873D01*
X79400499Y-109877128D01*
X79394091Y-109817517D01*
X79394089Y-109817513D01*
X79393632Y-109813255D01*
X79393632Y-109786745D01*
X79394089Y-109782486D01*
X79394091Y-109782483D01*
X79400500Y-109722873D01*
X79400499Y-109284449D01*
X79420183Y-109217412D01*
X79472987Y-109171657D01*
X79542146Y-109161713D01*
X79605702Y-109190738D01*
X79612173Y-109196763D01*
X79783744Y-109368335D01*
X79813181Y-109397772D01*
X79846666Y-109459095D01*
X79849500Y-109485451D01*
X79849500Y-109550000D01*
X79849501Y-109550019D01*
X79860000Y-109652796D01*
X79860001Y-109652799D01*
X79885882Y-109730901D01*
X79915186Y-109819334D01*
X79998806Y-109954905D01*
X80007289Y-109968657D01*
X80026452Y-109987820D01*
X80059937Y-110049143D01*
X80054953Y-110118835D01*
X80036046Y-110152401D01*
X80032687Y-110156648D01*
X79940643Y-110305875D01*
X79940641Y-110305880D01*
X79885494Y-110472302D01*
X79885493Y-110472309D01*
X79875000Y-110575013D01*
X79875000Y-110850000D01*
X81088500Y-110850000D01*
X81155539Y-110869685D01*
X81201294Y-110922489D01*
X81212500Y-110974000D01*
X81212500Y-112324999D01*
X81349972Y-112324999D01*
X81349986Y-112324998D01*
X81452697Y-112314505D01*
X81619119Y-112259358D01*
X81619124Y-112259356D01*
X81768345Y-112167315D01*
X81892318Y-112043342D01*
X81894165Y-112040348D01*
X81895969Y-112038724D01*
X81896798Y-112037677D01*
X81896976Y-112037818D01*
X81946110Y-111993621D01*
X82015073Y-111982396D01*
X82079156Y-112010236D01*
X82105243Y-112040341D01*
X82107288Y-112043656D01*
X82231344Y-112167712D01*
X82378097Y-112258229D01*
X82424821Y-112310175D01*
X82437000Y-112363767D01*
X82437000Y-112462402D01*
X82417315Y-112529441D01*
X82400681Y-112550083D01*
X82162584Y-112788181D01*
X82101261Y-112821666D01*
X82074903Y-112824500D01*
X79524499Y-112824500D01*
X79457460Y-112804815D01*
X79411705Y-112752011D01*
X79400499Y-112700500D01*
X79400499Y-112377129D01*
X79400499Y-112377127D01*
X79394091Y-112317517D01*
X79394090Y-112317516D01*
X79393380Y-112310904D01*
X79393381Y-112284393D01*
X79399999Y-112222842D01*
X79400000Y-112222827D01*
X79400000Y-111925000D01*
X78955845Y-111925000D01*
X78949213Y-111924644D01*
X78947873Y-111924500D01*
X78947871Y-111924500D01*
X76552129Y-111924500D01*
X76552117Y-111924501D01*
X76550793Y-111924644D01*
X76544159Y-111925000D01*
X76100000Y-111925000D01*
X76100000Y-112222844D01*
X76106619Y-112284398D01*
X76106620Y-112310909D01*
X76105909Y-112317514D01*
X76105909Y-112317517D01*
X76099500Y-112377127D01*
X76099500Y-112377132D01*
X76099500Y-112377135D01*
X76099500Y-113400500D01*
X76079815Y-113467539D01*
X76027011Y-113513294D01*
X75975500Y-113524500D01*
X74952129Y-113524500D01*
X74952120Y-113524501D01*
X74888248Y-113531367D01*
X74861742Y-113531367D01*
X74857483Y-113530909D01*
X74797873Y-113524500D01*
X74797865Y-113524500D01*
X73702129Y-113524500D01*
X73702120Y-113524501D01*
X73638248Y-113531367D01*
X73611742Y-113531367D01*
X73607483Y-113530909D01*
X73547873Y-113524500D01*
X73547867Y-113524500D01*
X73400097Y-113524500D01*
X73333058Y-113504815D01*
X73312416Y-113488181D01*
X72851346Y-113027111D01*
X72380320Y-112556085D01*
X72374980Y-112549995D01*
X72353282Y-112521718D01*
X72227841Y-112425464D01*
X72111157Y-112377132D01*
X72081762Y-112364956D01*
X72081760Y-112364955D01*
X72002591Y-112354533D01*
X71925001Y-112344318D01*
X71925000Y-112344318D01*
X71889670Y-112348969D01*
X71881572Y-112349500D01*
X71299096Y-112349500D01*
X71232057Y-112329815D01*
X71186302Y-112277011D01*
X71176358Y-112207853D01*
X71205383Y-112144297D01*
X71211415Y-112137819D01*
X71467518Y-111881716D01*
X71743914Y-111605319D01*
X71749999Y-111599983D01*
X71778282Y-111578282D01*
X71874536Y-111452841D01*
X71935044Y-111306762D01*
X71940156Y-111267929D01*
X71955682Y-111150000D01*
X71951030Y-111114669D01*
X71950500Y-111106571D01*
X71950500Y-110975096D01*
X71970185Y-110908057D01*
X71986814Y-110887420D01*
X75887821Y-106986412D01*
X75949142Y-106952929D01*
X76018834Y-106957913D01*
G37*
%TD.AperFunction*%
%TA.AperFunction,Conductor*%
G36*
X67974935Y-100263164D02*
G01*
X68082697Y-100311144D01*
X68151284Y-100325722D01*
X68212762Y-100358912D01*
X68246539Y-100420075D01*
X68249500Y-100447011D01*
X68249500Y-100850001D01*
X68249501Y-100850019D01*
X68260000Y-100952796D01*
X68260001Y-100952799D01*
X68315185Y-101119331D01*
X68315187Y-101119336D01*
X68407289Y-101268657D01*
X68451951Y-101313319D01*
X68485436Y-101374642D01*
X68480452Y-101444334D01*
X68438580Y-101500267D01*
X68373116Y-101524684D01*
X68364270Y-101525000D01*
X68250000Y-101525000D01*
X68250000Y-101969146D01*
X68249645Y-101975777D01*
X68249500Y-101977122D01*
X68249500Y-104372863D01*
X68249501Y-104372880D01*
X68249644Y-104374202D01*
X68250000Y-104380835D01*
X68250000Y-104825000D01*
X68525500Y-104825000D01*
X68592539Y-104844685D01*
X68638294Y-104897489D01*
X68649500Y-104949000D01*
X68649500Y-105273547D01*
X68629815Y-105340586D01*
X68617650Y-105356519D01*
X68517466Y-105467785D01*
X68422821Y-105631715D01*
X68422818Y-105631722D01*
X68369984Y-105794330D01*
X68364326Y-105811744D01*
X68344540Y-106000000D01*
X68364326Y-106188256D01*
X68364327Y-106188259D01*
X68422818Y-106368277D01*
X68422821Y-106368284D01*
X68517467Y-106532216D01*
X68638978Y-106667167D01*
X68644129Y-106672888D01*
X68797265Y-106784148D01*
X68797270Y-106784151D01*
X68970192Y-106861142D01*
X68970197Y-106861144D01*
X69155354Y-106900500D01*
X69155355Y-106900500D01*
X69344644Y-106900500D01*
X69344646Y-106900500D01*
X69529803Y-106861144D01*
X69702730Y-106784151D01*
X69855871Y-106672888D01*
X69982533Y-106532216D01*
X70077179Y-106368284D01*
X70135674Y-106188256D01*
X70142426Y-106124004D01*
X70169010Y-106059392D01*
X70226308Y-106019407D01*
X70291528Y-106015678D01*
X70455354Y-106050500D01*
X70455355Y-106050500D01*
X70644644Y-106050500D01*
X70644646Y-106050500D01*
X70829803Y-106011144D01*
X71002730Y-105934151D01*
X71155871Y-105822888D01*
X71282533Y-105682216D01*
X71377179Y-105518284D01*
X71435674Y-105338256D01*
X71455460Y-105150000D01*
X71435749Y-104962459D01*
X71448319Y-104893730D01*
X71496051Y-104842707D01*
X71559070Y-104825499D01*
X72297871Y-104825499D01*
X72297872Y-104825499D01*
X72357483Y-104819091D01*
X72357487Y-104819089D01*
X72361743Y-104818632D01*
X72388253Y-104818632D01*
X72392514Y-104819090D01*
X72392517Y-104819091D01*
X72452127Y-104825500D01*
X73547872Y-104825499D01*
X73607483Y-104819091D01*
X73607486Y-104819089D01*
X73611744Y-104818632D01*
X73638254Y-104818632D01*
X73642514Y-104819089D01*
X73642517Y-104819091D01*
X73702127Y-104825500D01*
X73705959Y-104825499D01*
X73772998Y-104845174D01*
X73818760Y-104897972D01*
X73828713Y-104967129D01*
X73813361Y-105011498D01*
X73772820Y-105081718D01*
X73772818Y-105081722D01*
X73714327Y-105261740D01*
X73714326Y-105261744D01*
X73706040Y-105340586D01*
X73694540Y-105450002D01*
X73694540Y-105454861D01*
X73674855Y-105521900D01*
X73658221Y-105542542D01*
X70703215Y-108497550D01*
X67742858Y-111457905D01*
X67681535Y-111491390D01*
X67611843Y-111486406D01*
X67567496Y-111457905D01*
X67436818Y-111327227D01*
X67403333Y-111265904D01*
X67400499Y-111239546D01*
X67400499Y-111127129D01*
X67400499Y-111127128D01*
X67394091Y-111067517D01*
X67394089Y-111067513D01*
X67393632Y-111063255D01*
X67393633Y-111036745D01*
X67397003Y-111005396D01*
X67400500Y-110972873D01*
X67400499Y-109877128D01*
X67394091Y-109817517D01*
X67394089Y-109817513D01*
X67393632Y-109813255D01*
X67393633Y-109786745D01*
X67395005Y-109773975D01*
X67400500Y-109722873D01*
X67400499Y-108627128D01*
X67394091Y-108567517D01*
X67394089Y-108567513D01*
X67393632Y-108563255D01*
X67393632Y-108536745D01*
X67394089Y-108532486D01*
X67394091Y-108532483D01*
X67400500Y-108472873D01*
X67400499Y-108360450D01*
X67420183Y-108293412D01*
X67436813Y-108272775D01*
X67608785Y-108100803D01*
X67621046Y-108090983D01*
X67620862Y-108090761D01*
X67626870Y-108085790D01*
X67626877Y-108085786D01*
X67674227Y-108035363D01*
X67695120Y-108014471D01*
X67699379Y-108008978D01*
X67703152Y-108004561D01*
X67735062Y-107970582D01*
X67744713Y-107953024D01*
X67755396Y-107936761D01*
X67767673Y-107920936D01*
X67786185Y-107878153D01*
X67788738Y-107872941D01*
X67811197Y-107832092D01*
X67816180Y-107812680D01*
X67822481Y-107794280D01*
X67830437Y-107775896D01*
X67837729Y-107729852D01*
X67838906Y-107724171D01*
X67850500Y-107679019D01*
X67850500Y-107658983D01*
X67852027Y-107639582D01*
X67855160Y-107619804D01*
X67850775Y-107573415D01*
X67850500Y-107567577D01*
X67850500Y-104607742D01*
X67852224Y-104592122D01*
X67851939Y-104592095D01*
X67852673Y-104584333D01*
X67850500Y-104515172D01*
X67850500Y-104485656D01*
X67850500Y-104485650D01*
X67849631Y-104478779D01*
X67849173Y-104472952D01*
X67848205Y-104442146D01*
X67847710Y-104426373D01*
X67842119Y-104407130D01*
X67838173Y-104388078D01*
X67835664Y-104368208D01*
X67818504Y-104324867D01*
X67816616Y-104319351D01*
X67812638Y-104305659D01*
X67805422Y-104280821D01*
X67800500Y-104246231D01*
X67800500Y-100376444D01*
X67820185Y-100309405D01*
X67872989Y-100263650D01*
X67942147Y-100253706D01*
X67974935Y-100263164D01*
G37*
%TD.AperFunction*%
%TA.AperFunction,Conductor*%
G36*
X63727188Y-104258527D02*
G01*
X63755445Y-104279680D01*
X64100460Y-104624695D01*
X64133945Y-104686018D01*
X64128961Y-104755708D01*
X64105909Y-104817514D01*
X64105908Y-104817516D01*
X64099501Y-104877116D01*
X64099500Y-104877135D01*
X64099500Y-105972870D01*
X64099501Y-105972876D01*
X64106619Y-106039092D01*
X64106619Y-106065599D01*
X64100000Y-106127169D01*
X64100000Y-106425000D01*
X64544155Y-106425000D01*
X64550786Y-106425355D01*
X64552127Y-106425500D01*
X65876001Y-106425499D01*
X65943039Y-106445184D01*
X65988794Y-106497987D01*
X66000000Y-106549499D01*
X66000000Y-106800500D01*
X65980315Y-106867539D01*
X65927511Y-106913294D01*
X65876000Y-106924500D01*
X64552129Y-106924500D01*
X64552116Y-106924501D01*
X64550793Y-106924644D01*
X64544159Y-106925000D01*
X64100000Y-106925000D01*
X64100000Y-107222841D01*
X64105171Y-107270926D01*
X64092767Y-107339686D01*
X64054767Y-107384501D01*
X64033571Y-107399901D01*
X64028687Y-107403109D01*
X63988580Y-107426829D01*
X63974414Y-107440995D01*
X63959624Y-107453627D01*
X63948246Y-107461893D01*
X63947385Y-107462520D01*
X63881578Y-107486000D01*
X63813524Y-107470175D01*
X63764829Y-107420069D01*
X63750499Y-107362202D01*
X63750499Y-106952129D01*
X63750498Y-106952123D01*
X63750497Y-106952116D01*
X63744091Y-106892517D01*
X63693884Y-106757906D01*
X63693797Y-106757671D01*
X63693793Y-106757664D01*
X63607548Y-106642457D01*
X63607546Y-106642454D01*
X63607544Y-106642452D01*
X63607542Y-106642450D01*
X63575188Y-106618230D01*
X63533318Y-106562296D01*
X63525500Y-106518964D01*
X63525500Y-104381034D01*
X63545185Y-104313995D01*
X63575184Y-104281771D01*
X63593454Y-104268094D01*
X63658915Y-104243677D01*
X63727188Y-104258527D01*
G37*
%TD.AperFunction*%
%TD*%
M02*
