%TF.GenerationSoftware,KiCad,Pcbnew,7.0.7*%
%TF.CreationDate,2024-01-18T13:53:05-05:00*%
%TF.ProjectId,DDRN_Hardware,4444524e-5f48-4617-9264-776172652e6b,rev?*%
%TF.SameCoordinates,Original*%
%TF.FileFunction,Copper,L2,Bot*%
%TF.FilePolarity,Positive*%
%FSLAX46Y46*%
G04 Gerber Fmt 4.6, Leading zero omitted, Abs format (unit mm)*
G04 Created by KiCad (PCBNEW 7.0.7) date 2024-01-18 13:53:05*
%MOMM*%
%LPD*%
G01*
G04 APERTURE LIST*
%TA.AperFunction,ViaPad*%
%ADD10C,0.800000*%
%TD*%
%TA.AperFunction,Conductor*%
%ADD11C,0.250000*%
%TD*%
G04 APERTURE END LIST*
D10*
%TO.N,/3v3*%
X39100000Y-64450000D03*
X47100000Y-81950000D03*
X45300000Y-91450000D03*
X39100000Y-103050000D03*
%TO.N,/V_BAT*%
X30600000Y-102950000D03*
X39100000Y-97450000D03*
X38600000Y-90450000D03*
%TO.N,/Stim_Enable*%
X39100000Y-101950000D03*
X43100000Y-86450000D03*
%TO.N,/SiPM_Signal*%
X39100000Y-104450000D03*
X49600000Y-71950000D03*
%TO.N,/GND*%
X46700000Y-86850000D03*
X39500000Y-86850000D03*
%TO.N,/SWDIO*%
X46100000Y-79450000D03*
X38100000Y-64450000D03*
%TO.N,/SWCLK*%
X36600000Y-63950000D03*
X44100000Y-78450000D03*
%TO.N,/USB_RX*%
X39875000Y-68498008D03*
X45600000Y-70450000D03*
%TO.N,/USB_TX*%
X44575072Y-69675000D03*
X40922834Y-68430570D03*
%TO.N,/RST*%
X37100000Y-69950000D03*
X35100000Y-77450000D03*
%TO.N,/MOSI*%
X34643971Y-86865649D03*
X42100000Y-74950000D03*
%TO.N,/SCK*%
X35761231Y-86850000D03*
X35664491Y-83610507D03*
%TO.N,/Bias_CS*%
X35100000Y-80950000D03*
X36600000Y-87950000D03*
%TD*%
D11*
%TO.N,/3v3*%
X45300000Y-91450000D02*
X45300000Y-97450000D01*
X45300000Y-97450000D02*
X39700000Y-103050000D01*
X39100000Y-64450000D02*
X39100000Y-68892430D01*
X47100000Y-76892430D02*
X47100000Y-81950000D01*
X39100000Y-68892430D02*
X47100000Y-76892430D01*
X39700000Y-103050000D02*
X39100000Y-103050000D01*
%TO.N,/V_BAT*%
X37600000Y-101950000D02*
X31600000Y-101950000D01*
X31600000Y-101950000D02*
X30600000Y-102950000D01*
X38600000Y-90450000D02*
X39100000Y-90950000D01*
X39100000Y-100450000D02*
X37600000Y-101950000D01*
X39100000Y-90950000D02*
X39100000Y-97450000D01*
X39100000Y-97450000D02*
X39100000Y-100450000D01*
%TO.N,/Stim_Enable*%
X40100000Y-101950000D02*
X39100000Y-101950000D01*
X43100000Y-98950000D02*
X40100000Y-101950000D01*
X43100000Y-86450000D02*
X43100000Y-98950000D01*
%TO.N,/SiPM_Signal*%
X49600000Y-93950000D02*
X39100000Y-104450000D01*
X49600000Y-71950000D02*
X49600000Y-93950000D01*
%TO.N,/SWDIO*%
X38148008Y-69265596D02*
X46100000Y-77217588D01*
X46100000Y-77217588D02*
X46100000Y-79450000D01*
X38100000Y-64450000D02*
X38148008Y-64498008D01*
X38148008Y-64498008D02*
X38148008Y-69265596D01*
%TO.N,/SWCLK*%
X37375000Y-64725000D02*
X37375000Y-69175000D01*
X44100000Y-75900000D02*
X44100000Y-78450000D01*
X37375000Y-69175000D02*
X44100000Y-75900000D01*
X36600000Y-63950000D02*
X37375000Y-64725000D01*
%TO.N,/USB_RX*%
X45600000Y-70450000D02*
X45047550Y-71002450D01*
X45047550Y-71002450D02*
X41846416Y-71002450D01*
X39875000Y-69031034D02*
X39875000Y-68498008D01*
X41846416Y-71002450D02*
X39875000Y-69031034D01*
%TO.N,/USB_TX*%
X40922834Y-69442472D02*
X40922834Y-68430570D01*
X43327188Y-70552450D02*
X42032812Y-70552450D01*
X42032812Y-70552450D02*
X40922834Y-69442472D01*
X44204638Y-69675000D02*
X43327188Y-70552450D01*
X44575072Y-69675000D02*
X44204638Y-69675000D01*
%TO.N,/RST*%
X37100000Y-75450000D02*
X35100000Y-77450000D01*
X37100000Y-69950000D02*
X37100000Y-75450000D01*
%TO.N,/MOSI*%
X34325000Y-86546678D02*
X34325000Y-80628984D01*
X40003984Y-74950000D02*
X42100000Y-74950000D01*
X34643971Y-86865649D02*
X34325000Y-86546678D01*
X34325000Y-80628984D02*
X40003984Y-74950000D01*
%TO.N,/SCK*%
X35664491Y-83610507D02*
X35761231Y-83707247D01*
X35761231Y-83707247D02*
X35761231Y-86850000D01*
%TO.N,/Bias_CS*%
X36600000Y-82450000D02*
X35100000Y-80950000D01*
X36600000Y-87950000D02*
X36600000Y-82450000D01*
%TD*%
%TA.AperFunction,Conductor*%
%TO.N,/GND*%
G36*
X54042539Y-61470185D02*
G01*
X54088294Y-61522989D01*
X54099500Y-61574500D01*
X54099500Y-111325500D01*
X54079815Y-111392539D01*
X54027011Y-111438294D01*
X53975500Y-111449500D01*
X24224500Y-111449500D01*
X24157461Y-111429815D01*
X24111706Y-111377011D01*
X24100500Y-111325500D01*
X24100500Y-108017763D01*
X25745787Y-108017763D01*
X25775413Y-108287013D01*
X25775415Y-108287024D01*
X25842966Y-108545410D01*
X25843928Y-108549088D01*
X25949870Y-108798390D01*
X26021998Y-108916575D01*
X26090979Y-109029605D01*
X26090986Y-109029615D01*
X26264253Y-109237819D01*
X26264259Y-109237824D01*
X26271322Y-109244152D01*
X26465998Y-109418582D01*
X26691910Y-109568044D01*
X26937176Y-109683020D01*
X26937183Y-109683022D01*
X26937185Y-109683023D01*
X27196557Y-109761057D01*
X27196564Y-109761058D01*
X27196569Y-109761060D01*
X27464561Y-109800500D01*
X27464566Y-109800500D01*
X27667636Y-109800500D01*
X27719133Y-109796730D01*
X27870156Y-109785677D01*
X27982758Y-109760593D01*
X28134546Y-109726782D01*
X28134548Y-109726781D01*
X28134553Y-109726780D01*
X28387558Y-109630014D01*
X28623777Y-109497441D01*
X28838177Y-109331888D01*
X28922766Y-109244150D01*
X31622050Y-109244150D01*
X31661274Y-109479208D01*
X31738648Y-109704589D01*
X31738654Y-109704603D01*
X31852069Y-109914176D01*
X31852076Y-109914187D01*
X31998433Y-110102227D01*
X31998436Y-110102230D01*
X31998440Y-110102235D01*
X32173766Y-110263633D01*
X32373266Y-110393973D01*
X32591498Y-110489699D01*
X32822510Y-110548199D01*
X33000528Y-110562950D01*
X33000530Y-110562950D01*
X33119470Y-110562950D01*
X33119472Y-110562950D01*
X33297490Y-110548199D01*
X33528502Y-110489699D01*
X33746734Y-110393973D01*
X33946234Y-110263633D01*
X34121560Y-110102235D01*
X34267929Y-109914179D01*
X34381349Y-109704597D01*
X34458726Y-109479206D01*
X34497950Y-109244152D01*
X34497950Y-109244150D01*
X34797050Y-109244150D01*
X34836274Y-109479208D01*
X34913648Y-109704589D01*
X34913654Y-109704603D01*
X35027069Y-109914176D01*
X35027076Y-109914187D01*
X35173433Y-110102227D01*
X35173436Y-110102230D01*
X35173440Y-110102235D01*
X35348766Y-110263633D01*
X35548266Y-110393973D01*
X35766498Y-110489699D01*
X35997510Y-110548199D01*
X36175528Y-110562950D01*
X36175530Y-110562950D01*
X36294470Y-110562950D01*
X36294472Y-110562950D01*
X36472490Y-110548199D01*
X36703502Y-110489699D01*
X36921734Y-110393973D01*
X37121234Y-110263633D01*
X37296560Y-110102235D01*
X37442929Y-109914179D01*
X37556349Y-109704597D01*
X37633726Y-109479206D01*
X37672950Y-109244152D01*
X37672950Y-109005848D01*
X37633726Y-108770794D01*
X37556349Y-108545403D01*
X37442929Y-108335821D01*
X37442927Y-108335819D01*
X37442923Y-108335812D01*
X37296566Y-108147772D01*
X37296563Y-108147769D01*
X37296560Y-108147765D01*
X37121234Y-107986367D01*
X37121231Y-107986365D01*
X37121230Y-107986364D01*
X36961848Y-107882235D01*
X36921734Y-107856027D01*
X36921731Y-107856025D01*
X36921730Y-107856025D01*
X36703502Y-107760301D01*
X36472486Y-107701800D01*
X36329832Y-107689980D01*
X36294472Y-107687050D01*
X36175528Y-107687050D01*
X36143362Y-107689715D01*
X35997513Y-107701800D01*
X35766497Y-107760301D01*
X35548269Y-107856025D01*
X35348769Y-107986364D01*
X35173443Y-108147762D01*
X35173433Y-108147772D01*
X35027076Y-108335812D01*
X35027069Y-108335823D01*
X34913654Y-108545396D01*
X34913648Y-108545410D01*
X34836274Y-108770791D01*
X34797050Y-109005849D01*
X34797050Y-109244150D01*
X34497950Y-109244150D01*
X34497950Y-109005848D01*
X34458726Y-108770794D01*
X34381349Y-108545403D01*
X34267929Y-108335821D01*
X34267927Y-108335819D01*
X34267923Y-108335812D01*
X34121566Y-108147772D01*
X34121563Y-108147769D01*
X34121560Y-108147765D01*
X33946234Y-107986367D01*
X33946231Y-107986365D01*
X33946230Y-107986364D01*
X33786848Y-107882235D01*
X33746734Y-107856027D01*
X33746731Y-107856025D01*
X33746730Y-107856025D01*
X33528502Y-107760301D01*
X33297486Y-107701800D01*
X33154832Y-107689980D01*
X33119472Y-107687050D01*
X33000528Y-107687050D01*
X32968362Y-107689715D01*
X32822513Y-107701800D01*
X32591497Y-107760301D01*
X32373269Y-107856025D01*
X32173769Y-107986364D01*
X31998443Y-108147762D01*
X31998433Y-108147772D01*
X31852076Y-108335812D01*
X31852069Y-108335823D01*
X31738654Y-108545396D01*
X31738648Y-108545410D01*
X31661274Y-108770791D01*
X31622050Y-109005849D01*
X31622050Y-109244150D01*
X28922766Y-109244150D01*
X29026186Y-109136881D01*
X29183799Y-108916579D01*
X29258754Y-108770791D01*
X29307649Y-108675690D01*
X29307651Y-108675684D01*
X29307656Y-108675675D01*
X29395118Y-108419305D01*
X29444319Y-108152933D01*
X29454212Y-107882235D01*
X29428072Y-107644660D01*
X37390393Y-107644660D01*
X37420668Y-107816354D01*
X37489721Y-107976438D01*
X37489722Y-107976440D01*
X37489724Y-107976443D01*
X37544032Y-108049390D01*
X37593832Y-108116283D01*
X37727386Y-108228349D01*
X37883185Y-108306594D01*
X38052829Y-108346800D01*
X38052831Y-108346800D01*
X38183429Y-108346800D01*
X38183436Y-108346800D01*
X38313164Y-108331637D01*
X38476993Y-108272008D01*
X38622654Y-108176205D01*
X38742296Y-108049393D01*
X38760557Y-108017763D01*
X48745787Y-108017763D01*
X48775413Y-108287013D01*
X48775415Y-108287024D01*
X48842966Y-108545410D01*
X48843928Y-108549088D01*
X48949870Y-108798390D01*
X49021998Y-108916575D01*
X49090979Y-109029605D01*
X49090986Y-109029615D01*
X49264253Y-109237819D01*
X49264259Y-109237824D01*
X49271322Y-109244152D01*
X49465998Y-109418582D01*
X49691910Y-109568044D01*
X49937176Y-109683020D01*
X49937183Y-109683022D01*
X49937185Y-109683023D01*
X50196557Y-109761057D01*
X50196564Y-109761058D01*
X50196569Y-109761060D01*
X50464561Y-109800500D01*
X50464566Y-109800500D01*
X50667636Y-109800500D01*
X50719133Y-109796730D01*
X50870156Y-109785677D01*
X50982758Y-109760593D01*
X51134546Y-109726782D01*
X51134548Y-109726781D01*
X51134553Y-109726780D01*
X51387558Y-109630014D01*
X51623777Y-109497441D01*
X51838177Y-109331888D01*
X52026186Y-109136881D01*
X52183799Y-108916579D01*
X52258754Y-108770791D01*
X52307649Y-108675690D01*
X52307651Y-108675684D01*
X52307656Y-108675675D01*
X52395118Y-108419305D01*
X52444319Y-108152933D01*
X52454212Y-107882235D01*
X52424586Y-107612982D01*
X52356072Y-107350912D01*
X52250130Y-107101610D01*
X52109018Y-106870390D01*
X52019747Y-106763119D01*
X51935746Y-106662180D01*
X51935740Y-106662175D01*
X51734002Y-106481418D01*
X51508092Y-106331957D01*
X51471493Y-106314800D01*
X51262824Y-106216980D01*
X51262819Y-106216978D01*
X51262814Y-106216976D01*
X51003442Y-106138942D01*
X51003428Y-106138939D01*
X50887791Y-106121921D01*
X50735439Y-106099500D01*
X50532369Y-106099500D01*
X50532364Y-106099500D01*
X50329844Y-106114323D01*
X50329831Y-106114325D01*
X50065453Y-106173217D01*
X50065446Y-106173220D01*
X49812439Y-106269987D01*
X49576226Y-106402557D01*
X49361822Y-106568112D01*
X49173822Y-106763109D01*
X49173816Y-106763116D01*
X49016202Y-106983419D01*
X49016199Y-106983424D01*
X48892350Y-107224309D01*
X48892343Y-107224327D01*
X48804884Y-107480685D01*
X48804881Y-107480699D01*
X48755681Y-107747068D01*
X48755680Y-107747075D01*
X48745787Y-108017763D01*
X38760557Y-108017763D01*
X38829467Y-107898407D01*
X38879469Y-107731388D01*
X38889607Y-107557340D01*
X38859332Y-107385646D01*
X38790279Y-107225562D01*
X38789358Y-107224325D01*
X38686167Y-107085716D01*
X38552614Y-106973651D01*
X38552612Y-106973650D01*
X38396818Y-106895407D01*
X38396816Y-106895406D01*
X38396815Y-106895406D01*
X38227171Y-106855200D01*
X38096564Y-106855200D01*
X37983051Y-106868467D01*
X37966835Y-106870363D01*
X37966832Y-106870364D01*
X37803008Y-106929991D01*
X37803004Y-106929993D01*
X37657348Y-107025792D01*
X37657347Y-107025793D01*
X37537706Y-107152603D01*
X37537703Y-107152609D01*
X37450534Y-107303590D01*
X37400531Y-107470610D01*
X37400530Y-107470616D01*
X37392238Y-107612982D01*
X37390393Y-107644660D01*
X29428072Y-107644660D01*
X29424586Y-107612982D01*
X29356072Y-107350912D01*
X29250130Y-107101610D01*
X29109018Y-106870390D01*
X29019747Y-106763119D01*
X28935746Y-106662180D01*
X28935740Y-106662175D01*
X28898334Y-106628659D01*
X32310393Y-106628659D01*
X32334100Y-106763109D01*
X32340668Y-106800354D01*
X32409721Y-106960438D01*
X32409722Y-106960440D01*
X32409724Y-106960443D01*
X32464032Y-107033390D01*
X32513832Y-107100283D01*
X32647386Y-107212349D01*
X32803185Y-107290594D01*
X32972829Y-107330800D01*
X32972831Y-107330800D01*
X33103429Y-107330800D01*
X33103436Y-107330800D01*
X33233164Y-107315637D01*
X33396993Y-107256008D01*
X33542654Y-107160205D01*
X33662296Y-107033393D01*
X33749467Y-106882407D01*
X33799469Y-106715388D01*
X33809607Y-106541340D01*
X33779332Y-106369646D01*
X33710279Y-106209562D01*
X33700442Y-106196349D01*
X33642993Y-106119181D01*
X33606168Y-106069717D01*
X33472614Y-105957651D01*
X33385680Y-105913991D01*
X33316818Y-105879407D01*
X33316816Y-105879406D01*
X33316815Y-105879406D01*
X33147171Y-105839200D01*
X33016564Y-105839200D01*
X32903051Y-105852467D01*
X32886835Y-105854363D01*
X32886832Y-105854364D01*
X32723008Y-105913991D01*
X32723004Y-105913993D01*
X32577348Y-106009792D01*
X32577347Y-106009793D01*
X32457706Y-106136603D01*
X32457703Y-106136609D01*
X32370534Y-106287590D01*
X32320531Y-106454610D01*
X32320530Y-106454616D01*
X32310393Y-106628659D01*
X28898334Y-106628659D01*
X28734002Y-106481418D01*
X28508092Y-106331957D01*
X28471493Y-106314800D01*
X28262824Y-106216980D01*
X28262819Y-106216978D01*
X28262814Y-106216976D01*
X28003442Y-106138942D01*
X28003428Y-106138939D01*
X27887791Y-106121921D01*
X27735439Y-106099500D01*
X27532369Y-106099500D01*
X27532364Y-106099500D01*
X27329844Y-106114323D01*
X27329831Y-106114325D01*
X27065453Y-106173217D01*
X27065446Y-106173220D01*
X26812439Y-106269987D01*
X26576226Y-106402557D01*
X26361822Y-106568112D01*
X26173822Y-106763109D01*
X26173816Y-106763116D01*
X26016202Y-106983419D01*
X26016199Y-106983424D01*
X25892350Y-107224309D01*
X25892343Y-107224327D01*
X25804884Y-107480685D01*
X25804881Y-107480699D01*
X25755681Y-107747068D01*
X25755680Y-107747075D01*
X25745787Y-108017763D01*
X24100500Y-108017763D01*
X24100500Y-102950000D01*
X29694540Y-102950000D01*
X29714326Y-103138256D01*
X29714327Y-103138259D01*
X29772818Y-103318277D01*
X29772821Y-103318284D01*
X29867467Y-103482216D01*
X29957504Y-103582212D01*
X29994129Y-103622888D01*
X30147265Y-103734148D01*
X30147270Y-103734151D01*
X30320192Y-103811142D01*
X30320197Y-103811144D01*
X30505354Y-103850500D01*
X30505355Y-103850500D01*
X30694644Y-103850500D01*
X30694646Y-103850500D01*
X30879803Y-103811144D01*
X31052730Y-103734151D01*
X31205871Y-103622888D01*
X31332533Y-103482216D01*
X31427179Y-103318284D01*
X31485674Y-103138256D01*
X31503321Y-102970346D01*
X31529905Y-102905733D01*
X31538961Y-102895628D01*
X31822771Y-102611819D01*
X31884094Y-102578334D01*
X31910452Y-102575500D01*
X32263686Y-102575500D01*
X32330725Y-102595185D01*
X32376480Y-102647989D01*
X32386424Y-102717147D01*
X32357399Y-102780703D01*
X32331508Y-102803309D01*
X32173769Y-102906364D01*
X31998443Y-103067762D01*
X31998433Y-103067772D01*
X31852076Y-103255812D01*
X31852069Y-103255823D01*
X31738654Y-103465396D01*
X31738648Y-103465410D01*
X31661274Y-103690791D01*
X31622050Y-103925849D01*
X31622050Y-104164150D01*
X31661274Y-104399208D01*
X31738648Y-104624589D01*
X31738654Y-104624603D01*
X31852069Y-104834176D01*
X31852076Y-104834187D01*
X31998433Y-105022227D01*
X31998436Y-105022230D01*
X31998440Y-105022235D01*
X32173766Y-105183633D01*
X32373266Y-105313973D01*
X32591498Y-105409699D01*
X32822510Y-105468199D01*
X33000528Y-105482950D01*
X33000530Y-105482950D01*
X33119470Y-105482950D01*
X33119472Y-105482950D01*
X33297490Y-105468199D01*
X33528502Y-105409699D01*
X33746734Y-105313973D01*
X33946234Y-105183633D01*
X34121560Y-105022235D01*
X34264672Y-104838364D01*
X34267923Y-104834187D01*
X34267924Y-104834185D01*
X34267929Y-104834179D01*
X34381349Y-104624597D01*
X34458726Y-104399206D01*
X34497950Y-104164152D01*
X34497950Y-103925848D01*
X34458726Y-103690794D01*
X34381349Y-103465403D01*
X34267929Y-103255821D01*
X34267927Y-103255819D01*
X34267923Y-103255812D01*
X34121566Y-103067772D01*
X34121563Y-103067769D01*
X34121560Y-103067765D01*
X33946234Y-102906367D01*
X33946231Y-102906365D01*
X33946230Y-102906364D01*
X33788492Y-102803309D01*
X33743136Y-102750162D01*
X33733712Y-102680931D01*
X33763214Y-102617595D01*
X33822274Y-102580264D01*
X33856314Y-102575500D01*
X35438686Y-102575500D01*
X35505725Y-102595185D01*
X35551480Y-102647989D01*
X35561424Y-102717147D01*
X35532399Y-102780703D01*
X35506508Y-102803309D01*
X35348769Y-102906364D01*
X35173443Y-103067762D01*
X35173433Y-103067772D01*
X35027076Y-103255812D01*
X35027069Y-103255823D01*
X34913654Y-103465396D01*
X34913648Y-103465410D01*
X34836274Y-103690791D01*
X34797050Y-103925849D01*
X34797050Y-104164150D01*
X34836274Y-104399208D01*
X34913648Y-104624589D01*
X34913654Y-104624603D01*
X35027069Y-104834176D01*
X35027076Y-104834187D01*
X35173433Y-105022227D01*
X35173436Y-105022230D01*
X35173440Y-105022235D01*
X35348766Y-105183633D01*
X35548266Y-105313973D01*
X35766498Y-105409699D01*
X35997510Y-105468199D01*
X36175528Y-105482950D01*
X36175530Y-105482950D01*
X36294470Y-105482950D01*
X36294472Y-105482950D01*
X36472490Y-105468199D01*
X36703502Y-105409699D01*
X36921734Y-105313973D01*
X37121234Y-105183633D01*
X37296560Y-105022235D01*
X37439672Y-104838364D01*
X37442923Y-104834187D01*
X37442924Y-104834185D01*
X37442929Y-104834179D01*
X37556349Y-104624597D01*
X37633726Y-104399206D01*
X37672950Y-104164152D01*
X37672950Y-103925848D01*
X37633726Y-103690794D01*
X37556349Y-103465403D01*
X37442929Y-103255821D01*
X37442927Y-103255819D01*
X37442923Y-103255812D01*
X37296566Y-103067772D01*
X37296563Y-103067769D01*
X37296560Y-103067765D01*
X37121234Y-102906367D01*
X37121231Y-102906365D01*
X37121230Y-102906364D01*
X36963492Y-102803309D01*
X36918136Y-102750162D01*
X36908712Y-102680931D01*
X36938214Y-102617595D01*
X36997274Y-102580264D01*
X37031314Y-102575500D01*
X37517257Y-102575500D01*
X37532877Y-102577224D01*
X37532904Y-102576939D01*
X37540660Y-102577671D01*
X37540667Y-102577673D01*
X37609814Y-102575500D01*
X37639350Y-102575500D01*
X37646228Y-102574630D01*
X37652041Y-102574172D01*
X37698627Y-102572709D01*
X37717869Y-102567117D01*
X37736912Y-102563174D01*
X37756792Y-102560664D01*
X37800122Y-102543507D01*
X37805646Y-102541617D01*
X37809396Y-102540527D01*
X37850390Y-102528618D01*
X37867629Y-102518422D01*
X37885103Y-102509862D01*
X37903727Y-102502488D01*
X37903727Y-102502487D01*
X37903732Y-102502486D01*
X37941449Y-102475082D01*
X37946305Y-102471892D01*
X37986420Y-102448170D01*
X38000589Y-102433999D01*
X38015379Y-102421368D01*
X38031587Y-102409594D01*
X38061299Y-102373676D01*
X38065212Y-102369376D01*
X38101266Y-102333322D01*
X38162587Y-102299839D01*
X38232279Y-102304823D01*
X38288212Y-102346695D01*
X38296323Y-102358991D01*
X38341940Y-102438001D01*
X38358412Y-102505901D01*
X38341939Y-102562000D01*
X38272821Y-102681715D01*
X38272818Y-102681722D01*
X38214327Y-102861740D01*
X38214326Y-102861744D01*
X38194540Y-103050000D01*
X38214326Y-103238256D01*
X38214327Y-103238259D01*
X38272818Y-103418277D01*
X38272821Y-103418284D01*
X38367464Y-103582212D01*
X38367465Y-103582214D01*
X38367467Y-103582216D01*
X38419212Y-103639684D01*
X38443832Y-103667028D01*
X38474061Y-103730020D01*
X38465435Y-103799355D01*
X38443832Y-103832972D01*
X38367464Y-103917787D01*
X38272821Y-104081715D01*
X38272818Y-104081722D01*
X38214327Y-104261740D01*
X38214326Y-104261744D01*
X38200255Y-104395627D01*
X38194540Y-104450000D01*
X38212889Y-104624589D01*
X38214326Y-104638256D01*
X38221678Y-104660883D01*
X38223674Y-104730722D01*
X38187594Y-104790555D01*
X38124893Y-104821384D01*
X38103747Y-104823200D01*
X38096564Y-104823200D01*
X37983051Y-104836467D01*
X37966835Y-104838363D01*
X37966832Y-104838364D01*
X37803008Y-104897991D01*
X37803004Y-104897993D01*
X37657348Y-104993792D01*
X37657347Y-104993793D01*
X37537706Y-105120603D01*
X37537703Y-105120609D01*
X37450534Y-105271590D01*
X37400531Y-105438610D01*
X37400530Y-105438616D01*
X37397948Y-105482950D01*
X37390393Y-105612660D01*
X37420668Y-105784354D01*
X37489721Y-105944438D01*
X37489722Y-105944440D01*
X37489724Y-105944443D01*
X37544032Y-106017390D01*
X37593832Y-106084283D01*
X37727386Y-106196349D01*
X37883185Y-106274594D01*
X38052829Y-106314800D01*
X38052831Y-106314800D01*
X38183429Y-106314800D01*
X38183436Y-106314800D01*
X38313164Y-106299637D01*
X38476993Y-106240008D01*
X38622654Y-106144205D01*
X38742296Y-106017393D01*
X38829467Y-105866407D01*
X38879469Y-105699388D01*
X38889607Y-105525340D01*
X38884439Y-105496032D01*
X38892183Y-105426594D01*
X38936239Y-105372364D01*
X39002620Y-105350562D01*
X39006555Y-105350500D01*
X39194644Y-105350500D01*
X39194646Y-105350500D01*
X39379803Y-105311144D01*
X39552730Y-105234151D01*
X39705871Y-105122888D01*
X39832533Y-104982216D01*
X39927179Y-104818284D01*
X39985674Y-104638256D01*
X40003321Y-104470345D01*
X40029905Y-104405732D01*
X40038952Y-104395636D01*
X49983788Y-94450801D01*
X49996042Y-94440986D01*
X49995859Y-94440764D01*
X50001866Y-94435792D01*
X50001877Y-94435786D01*
X50032775Y-94402882D01*
X50049227Y-94385364D01*
X50059671Y-94374918D01*
X50070120Y-94364471D01*
X50074379Y-94358978D01*
X50078152Y-94354561D01*
X50110062Y-94320582D01*
X50119713Y-94303024D01*
X50130396Y-94286761D01*
X50142673Y-94270936D01*
X50161185Y-94228153D01*
X50163738Y-94222941D01*
X50186197Y-94182092D01*
X50191180Y-94162680D01*
X50197481Y-94144280D01*
X50205437Y-94125896D01*
X50212729Y-94079852D01*
X50213906Y-94074171D01*
X50225500Y-94029019D01*
X50225500Y-94008982D01*
X50227027Y-93989582D01*
X50230160Y-93969804D01*
X50225775Y-93923415D01*
X50225500Y-93917577D01*
X50225500Y-72648687D01*
X50245185Y-72581648D01*
X50257350Y-72565715D01*
X50275891Y-72545122D01*
X50332533Y-72482216D01*
X50427179Y-72318284D01*
X50485674Y-72138256D01*
X50505460Y-71950000D01*
X50485674Y-71761744D01*
X50427179Y-71581716D01*
X50332533Y-71417784D01*
X50205871Y-71277112D01*
X50205870Y-71277111D01*
X50052734Y-71165851D01*
X50052729Y-71165848D01*
X49879807Y-71088857D01*
X49879802Y-71088855D01*
X49734001Y-71057865D01*
X49694646Y-71049500D01*
X49505354Y-71049500D01*
X49472897Y-71056398D01*
X49320197Y-71088855D01*
X49320192Y-71088857D01*
X49147270Y-71165848D01*
X49147265Y-71165851D01*
X48994129Y-71277111D01*
X48867466Y-71417785D01*
X48772821Y-71581715D01*
X48772818Y-71581722D01*
X48749762Y-71652683D01*
X48714326Y-71761744D01*
X48694540Y-71950000D01*
X48714326Y-72138256D01*
X48714327Y-72138259D01*
X48772818Y-72318277D01*
X48772821Y-72318284D01*
X48867467Y-72482216D01*
X48910772Y-72530310D01*
X48942650Y-72565715D01*
X48972880Y-72628706D01*
X48974500Y-72648687D01*
X48974500Y-93639546D01*
X48954815Y-93706585D01*
X48938181Y-93727227D01*
X46137181Y-96528227D01*
X46075858Y-96561712D01*
X46006166Y-96556728D01*
X45950233Y-96514856D01*
X45925816Y-96449392D01*
X45925500Y-96440546D01*
X45925500Y-92148687D01*
X45945185Y-92081648D01*
X45957350Y-92065715D01*
X45975891Y-92045122D01*
X46032533Y-91982216D01*
X46127179Y-91818284D01*
X46185674Y-91638256D01*
X46205460Y-91450000D01*
X46185674Y-91261744D01*
X46127179Y-91081716D01*
X46032533Y-90917784D01*
X45905871Y-90777112D01*
X45868399Y-90749887D01*
X45752734Y-90665851D01*
X45752729Y-90665848D01*
X45579807Y-90588857D01*
X45579802Y-90588855D01*
X45434000Y-90557865D01*
X45394646Y-90549500D01*
X45205354Y-90549500D01*
X45172897Y-90556398D01*
X45020197Y-90588855D01*
X45020192Y-90588857D01*
X44847270Y-90665848D01*
X44847265Y-90665851D01*
X44694129Y-90777111D01*
X44567466Y-90917785D01*
X44472821Y-91081715D01*
X44472818Y-91081722D01*
X44414327Y-91261740D01*
X44414326Y-91261744D01*
X44394540Y-91450000D01*
X44414326Y-91638256D01*
X44414327Y-91638259D01*
X44472818Y-91818277D01*
X44472821Y-91818284D01*
X44567467Y-91982216D01*
X44610772Y-92030310D01*
X44642650Y-92065715D01*
X44672880Y-92128706D01*
X44674500Y-92148687D01*
X44674500Y-97139546D01*
X44654815Y-97206585D01*
X44638181Y-97227227D01*
X43937181Y-97928228D01*
X43875858Y-97961713D01*
X43806167Y-97956729D01*
X43750233Y-97914858D01*
X43725816Y-97849393D01*
X43725500Y-97840547D01*
X43725500Y-87148687D01*
X43745185Y-87081648D01*
X43757350Y-87065715D01*
X43775891Y-87045122D01*
X43832533Y-86982216D01*
X43927179Y-86818284D01*
X43985674Y-86638256D01*
X44005460Y-86450000D01*
X43985674Y-86261744D01*
X43927179Y-86081716D01*
X43832533Y-85917784D01*
X43705871Y-85777112D01*
X43705870Y-85777111D01*
X43552734Y-85665851D01*
X43552729Y-85665848D01*
X43379807Y-85588857D01*
X43379802Y-85588855D01*
X43234001Y-85557865D01*
X43194646Y-85549500D01*
X43005354Y-85549500D01*
X42972897Y-85556398D01*
X42820197Y-85588855D01*
X42820192Y-85588857D01*
X42647270Y-85665848D01*
X42647265Y-85665851D01*
X42494129Y-85777111D01*
X42367466Y-85917785D01*
X42272821Y-86081715D01*
X42272818Y-86081722D01*
X42214327Y-86261740D01*
X42214326Y-86261744D01*
X42194540Y-86450000D01*
X42214326Y-86638256D01*
X42214327Y-86638259D01*
X42272818Y-86818277D01*
X42272821Y-86818284D01*
X42367467Y-86982216D01*
X42410772Y-87030310D01*
X42442650Y-87065715D01*
X42472880Y-87128706D01*
X42474500Y-87148687D01*
X42474500Y-98639547D01*
X42454815Y-98706586D01*
X42438181Y-98727228D01*
X39884700Y-101280708D01*
X39823377Y-101314193D01*
X39753685Y-101309209D01*
X39711534Y-101280534D01*
X39710701Y-101281461D01*
X39705869Y-101277110D01*
X39552734Y-101165851D01*
X39552732Y-101165850D01*
X39521057Y-101151747D01*
X39467820Y-101106496D01*
X39447500Y-101039646D01*
X39466546Y-100972423D01*
X39496872Y-100941988D01*
X39495859Y-100940764D01*
X39501866Y-100935792D01*
X39501877Y-100935786D01*
X39532775Y-100902882D01*
X39549227Y-100885364D01*
X39559671Y-100874918D01*
X39570120Y-100864471D01*
X39574379Y-100858978D01*
X39578152Y-100854561D01*
X39610062Y-100820582D01*
X39619713Y-100803024D01*
X39630396Y-100786761D01*
X39642673Y-100770936D01*
X39661185Y-100728153D01*
X39663738Y-100722941D01*
X39686197Y-100682092D01*
X39691180Y-100662680D01*
X39697481Y-100644280D01*
X39705437Y-100625896D01*
X39712729Y-100579852D01*
X39713906Y-100574171D01*
X39725500Y-100529019D01*
X39725500Y-100508982D01*
X39727027Y-100489582D01*
X39730160Y-100469804D01*
X39725775Y-100423415D01*
X39725500Y-100417577D01*
X39725500Y-98148687D01*
X39745185Y-98081648D01*
X39757350Y-98065715D01*
X39775891Y-98045122D01*
X39832533Y-97982216D01*
X39927179Y-97818284D01*
X39985674Y-97638256D01*
X40005460Y-97450000D01*
X39985674Y-97261744D01*
X39927179Y-97081716D01*
X39832533Y-96917784D01*
X39757350Y-96834284D01*
X39727120Y-96771292D01*
X39725500Y-96751312D01*
X39725500Y-91032742D01*
X39727224Y-91017122D01*
X39726939Y-91017096D01*
X39727671Y-91009340D01*
X39727673Y-91009333D01*
X39725500Y-90940185D01*
X39725500Y-90910650D01*
X39724631Y-90903772D01*
X39724172Y-90897943D01*
X39722709Y-90851372D01*
X39717122Y-90832144D01*
X39713174Y-90813084D01*
X39710663Y-90793204D01*
X39693512Y-90749887D01*
X39691619Y-90744358D01*
X39678618Y-90699609D01*
X39678616Y-90699606D01*
X39668423Y-90682371D01*
X39659861Y-90664894D01*
X39652487Y-90646270D01*
X39652486Y-90646268D01*
X39625079Y-90608545D01*
X39621888Y-90603686D01*
X39613118Y-90588857D01*
X39598170Y-90563580D01*
X39598168Y-90563578D01*
X39598165Y-90563574D01*
X39584006Y-90549415D01*
X39571368Y-90534619D01*
X39559592Y-90518410D01*
X39547170Y-90508134D01*
X39508063Y-90450234D01*
X39502890Y-90425552D01*
X39485674Y-90261744D01*
X39427179Y-90081716D01*
X39332533Y-89917784D01*
X39205871Y-89777112D01*
X39205870Y-89777111D01*
X39052734Y-89665851D01*
X39052729Y-89665848D01*
X38879807Y-89588857D01*
X38879802Y-89588855D01*
X38734000Y-89557865D01*
X38694646Y-89549500D01*
X38505354Y-89549500D01*
X38472897Y-89556398D01*
X38320197Y-89588855D01*
X38320192Y-89588857D01*
X38147270Y-89665848D01*
X38147265Y-89665851D01*
X37994129Y-89777111D01*
X37867466Y-89917785D01*
X37772821Y-90081715D01*
X37772818Y-90081722D01*
X37714327Y-90261740D01*
X37714326Y-90261744D01*
X37694540Y-90450000D01*
X37714326Y-90638256D01*
X37714327Y-90638259D01*
X37772818Y-90818277D01*
X37772821Y-90818284D01*
X37867467Y-90982216D01*
X37957063Y-91081722D01*
X37994129Y-91122888D01*
X38147265Y-91234148D01*
X38147270Y-91234151D01*
X38320191Y-91311142D01*
X38320193Y-91311142D01*
X38320197Y-91311144D01*
X38376282Y-91323064D01*
X38437761Y-91356255D01*
X38471539Y-91417418D01*
X38474500Y-91444354D01*
X38474500Y-96751312D01*
X38454815Y-96818351D01*
X38442650Y-96834284D01*
X38367466Y-96917784D01*
X38272821Y-97081715D01*
X38272818Y-97081722D01*
X38232248Y-97206585D01*
X38214326Y-97261744D01*
X38194540Y-97450000D01*
X38214326Y-97638256D01*
X38214327Y-97638259D01*
X38272818Y-97818277D01*
X38272821Y-97818284D01*
X38367467Y-97982216D01*
X38410772Y-98030310D01*
X38442650Y-98065715D01*
X38472880Y-98128706D01*
X38474500Y-98148687D01*
X38474500Y-100139547D01*
X38454815Y-100206586D01*
X38438181Y-100227228D01*
X37377228Y-101288181D01*
X37315905Y-101321666D01*
X37289547Y-101324500D01*
X31682743Y-101324500D01*
X31667122Y-101322775D01*
X31667095Y-101323061D01*
X31659333Y-101322326D01*
X31590172Y-101324500D01*
X31560649Y-101324500D01*
X31553778Y-101325367D01*
X31547959Y-101325825D01*
X31501374Y-101327289D01*
X31501368Y-101327290D01*
X31482126Y-101332880D01*
X31463087Y-101336823D01*
X31443217Y-101339334D01*
X31443203Y-101339337D01*
X31399883Y-101356488D01*
X31394358Y-101358380D01*
X31349613Y-101371380D01*
X31349610Y-101371381D01*
X31332366Y-101381579D01*
X31314905Y-101390133D01*
X31296274Y-101397510D01*
X31296262Y-101397517D01*
X31258570Y-101424902D01*
X31253687Y-101428109D01*
X31213580Y-101451829D01*
X31199414Y-101465995D01*
X31184624Y-101478627D01*
X31168414Y-101490404D01*
X31168411Y-101490407D01*
X31138710Y-101526309D01*
X31134777Y-101530631D01*
X30652228Y-102013181D01*
X30590905Y-102046666D01*
X30564547Y-102049500D01*
X30505354Y-102049500D01*
X30472897Y-102056398D01*
X30320197Y-102088855D01*
X30320192Y-102088857D01*
X30147270Y-102165848D01*
X30147265Y-102165851D01*
X29994129Y-102277111D01*
X29867466Y-102417785D01*
X29772821Y-102581715D01*
X29772818Y-102581722D01*
X29718089Y-102750162D01*
X29714326Y-102761744D01*
X29694540Y-102950000D01*
X24100500Y-102950000D01*
X24100500Y-69109152D01*
X32987050Y-69109152D01*
X32994300Y-69152600D01*
X33026274Y-69344208D01*
X33103648Y-69569589D01*
X33103654Y-69569603D01*
X33217069Y-69779176D01*
X33217076Y-69779187D01*
X33363433Y-69967227D01*
X33363436Y-69967230D01*
X33363440Y-69967235D01*
X33538766Y-70128633D01*
X33738266Y-70258973D01*
X33956498Y-70354699D01*
X34187510Y-70413199D01*
X34365528Y-70427950D01*
X34365530Y-70427950D01*
X34484470Y-70427950D01*
X34484472Y-70427950D01*
X34662490Y-70413199D01*
X34893502Y-70354699D01*
X35111734Y-70258973D01*
X35311234Y-70128633D01*
X35486560Y-69967235D01*
X35632929Y-69779179D01*
X35746349Y-69569597D01*
X35823726Y-69344206D01*
X35862950Y-69109152D01*
X35862950Y-68870848D01*
X35823726Y-68635794D01*
X35746349Y-68410403D01*
X35632929Y-68200821D01*
X35632927Y-68200819D01*
X35632923Y-68200812D01*
X35486566Y-68012772D01*
X35486563Y-68012769D01*
X35486560Y-68012765D01*
X35311234Y-67851367D01*
X35311231Y-67851365D01*
X35311230Y-67851364D01*
X35176601Y-67763407D01*
X35111734Y-67721027D01*
X35111731Y-67721025D01*
X35111730Y-67721025D01*
X34893502Y-67625301D01*
X34662486Y-67566800D01*
X34519832Y-67554980D01*
X34484472Y-67552050D01*
X34365528Y-67552050D01*
X34333362Y-67554715D01*
X34187513Y-67566800D01*
X33956497Y-67625301D01*
X33738269Y-67721025D01*
X33538769Y-67851364D01*
X33363443Y-68012762D01*
X33363433Y-68012772D01*
X33217076Y-68200812D01*
X33217069Y-68200823D01*
X33103654Y-68410396D01*
X33103648Y-68410410D01*
X33026274Y-68635791D01*
X33003128Y-68774500D01*
X32987050Y-68870848D01*
X32987050Y-69109152D01*
X24100500Y-69109152D01*
X24100500Y-67509660D01*
X31770393Y-67509660D01*
X31800668Y-67681354D01*
X31869721Y-67841438D01*
X31869722Y-67841440D01*
X31869724Y-67841443D01*
X31912093Y-67898354D01*
X31973832Y-67981283D01*
X32107386Y-68093349D01*
X32263185Y-68171594D01*
X32432829Y-68211800D01*
X32432831Y-68211800D01*
X32563429Y-68211800D01*
X32563436Y-68211800D01*
X32693164Y-68196637D01*
X32856993Y-68137008D01*
X33002654Y-68041205D01*
X33122296Y-67914393D01*
X33209467Y-67763407D01*
X33259469Y-67596388D01*
X33269607Y-67422340D01*
X33239332Y-67250646D01*
X33170279Y-67090562D01*
X33160442Y-67077349D01*
X33066167Y-66950716D01*
X32932614Y-66838651D01*
X32932612Y-66838650D01*
X32776818Y-66760407D01*
X32776816Y-66760406D01*
X32776815Y-66760406D01*
X32607171Y-66720200D01*
X32476564Y-66720200D01*
X32363051Y-66733467D01*
X32346835Y-66735363D01*
X32346832Y-66735364D01*
X32183008Y-66794991D01*
X32183004Y-66794993D01*
X32037348Y-66890792D01*
X32037347Y-66890793D01*
X31917706Y-67017603D01*
X31917703Y-67017609D01*
X31830534Y-67168590D01*
X31780531Y-67335610D01*
X31780530Y-67335616D01*
X31775479Y-67422340D01*
X31770393Y-67509660D01*
X24100500Y-67509660D01*
X24100500Y-65017763D01*
X25745787Y-65017763D01*
X25775413Y-65287013D01*
X25775415Y-65287024D01*
X25825254Y-65477659D01*
X25843928Y-65549088D01*
X25949870Y-65798390D01*
X26041959Y-65949283D01*
X26090979Y-66029605D01*
X26090986Y-66029615D01*
X26264253Y-66237819D01*
X26264259Y-66237824D01*
X26355545Y-66319616D01*
X26465998Y-66418582D01*
X26691910Y-66568044D01*
X26937176Y-66683020D01*
X26937183Y-66683022D01*
X26937185Y-66683023D01*
X27196557Y-66761057D01*
X27196564Y-66761058D01*
X27196569Y-66761060D01*
X27464561Y-66800500D01*
X27464566Y-66800500D01*
X27667636Y-66800500D01*
X27719133Y-66796730D01*
X27870156Y-66785677D01*
X27983601Y-66760406D01*
X28134546Y-66726782D01*
X28134548Y-66726781D01*
X28134553Y-66726780D01*
X28387558Y-66630014D01*
X28623777Y-66497441D01*
X28838177Y-66331888D01*
X29026186Y-66136881D01*
X29183799Y-65916579D01*
X29272319Y-65744406D01*
X29307649Y-65675690D01*
X29307651Y-65675684D01*
X29307656Y-65675675D01*
X29375210Y-65477660D01*
X31770393Y-65477660D01*
X31800668Y-65649354D01*
X31869721Y-65809438D01*
X31869722Y-65809440D01*
X31869724Y-65809443D01*
X31924032Y-65882390D01*
X31973832Y-65949283D01*
X32107386Y-66061349D01*
X32263185Y-66139594D01*
X32432829Y-66179800D01*
X32432831Y-66179800D01*
X32563429Y-66179800D01*
X32563436Y-66179800D01*
X32693164Y-66164637D01*
X32856993Y-66105008D01*
X33002654Y-66009205D01*
X33122296Y-65882393D01*
X33209467Y-65731407D01*
X33259469Y-65564388D01*
X33269607Y-65390340D01*
X33239332Y-65218646D01*
X33170279Y-65058562D01*
X33162887Y-65048633D01*
X33066167Y-64918716D01*
X32932614Y-64806651D01*
X32932612Y-64806650D01*
X32776818Y-64728407D01*
X32776816Y-64728406D01*
X32776815Y-64728406D01*
X32607171Y-64688200D01*
X32476564Y-64688200D01*
X32363051Y-64701467D01*
X32346835Y-64703363D01*
X32346832Y-64703364D01*
X32183008Y-64762991D01*
X32183004Y-64762993D01*
X32037348Y-64858792D01*
X32037347Y-64858793D01*
X31917706Y-64985603D01*
X31917703Y-64985609D01*
X31830534Y-65136590D01*
X31780531Y-65303610D01*
X31780530Y-65303616D01*
X31770393Y-65477659D01*
X31770393Y-65477660D01*
X29375210Y-65477660D01*
X29395118Y-65419305D01*
X29444319Y-65152933D01*
X29454212Y-64882235D01*
X29424586Y-64612982D01*
X29356072Y-64350912D01*
X29250130Y-64101610D01*
X29205909Y-64029152D01*
X32987050Y-64029152D01*
X32999141Y-64101610D01*
X33026274Y-64264208D01*
X33103648Y-64489589D01*
X33103654Y-64489603D01*
X33217069Y-64699176D01*
X33217076Y-64699187D01*
X33363433Y-64887227D01*
X33363436Y-64887230D01*
X33363440Y-64887235D01*
X33538766Y-65048633D01*
X33738266Y-65178973D01*
X33956498Y-65274699D01*
X34187510Y-65333199D01*
X34365528Y-65347950D01*
X34365530Y-65347950D01*
X34484470Y-65347950D01*
X34484472Y-65347950D01*
X34662490Y-65333199D01*
X34893502Y-65274699D01*
X35111734Y-65178973D01*
X35311234Y-65048633D01*
X35486560Y-64887235D01*
X35595656Y-64747068D01*
X35632923Y-64699187D01*
X35632924Y-64699185D01*
X35632929Y-64699179D01*
X35710681Y-64555504D01*
X35759901Y-64505913D01*
X35828118Y-64490805D01*
X35893674Y-64514975D01*
X35911887Y-64531549D01*
X35994129Y-64622888D01*
X36147265Y-64734148D01*
X36147270Y-64734151D01*
X36320192Y-64811142D01*
X36320197Y-64811144D01*
X36505354Y-64850500D01*
X36564548Y-64850500D01*
X36631587Y-64870185D01*
X36652229Y-64886819D01*
X36713181Y-64947771D01*
X36746666Y-65009094D01*
X36749500Y-65035452D01*
X36749500Y-69039806D01*
X36729815Y-69106845D01*
X36677011Y-69152600D01*
X36675937Y-69153085D01*
X36647268Y-69165849D01*
X36494129Y-69277111D01*
X36367466Y-69417785D01*
X36272821Y-69581715D01*
X36272818Y-69581722D01*
X36214327Y-69761740D01*
X36214326Y-69761744D01*
X36194540Y-69950000D01*
X36214326Y-70138256D01*
X36214327Y-70138259D01*
X36272818Y-70318277D01*
X36272821Y-70318284D01*
X36367467Y-70482216D01*
X36384006Y-70500584D01*
X36442650Y-70565715D01*
X36472880Y-70628706D01*
X36474500Y-70648687D01*
X36474500Y-75139546D01*
X36454815Y-75206585D01*
X36438181Y-75227227D01*
X35152228Y-76513181D01*
X35090905Y-76546666D01*
X35064547Y-76549500D01*
X35005354Y-76549500D01*
X34998302Y-76550999D01*
X34820197Y-76588855D01*
X34820192Y-76588857D01*
X34647270Y-76665848D01*
X34647265Y-76665851D01*
X34494129Y-76777111D01*
X34367466Y-76917785D01*
X34272821Y-77081715D01*
X34272818Y-77081722D01*
X34214327Y-77261740D01*
X34214326Y-77261744D01*
X34194540Y-77450000D01*
X34214326Y-77638256D01*
X34214327Y-77638259D01*
X34272818Y-77818277D01*
X34272821Y-77818284D01*
X34367467Y-77982216D01*
X34457063Y-78081722D01*
X34494129Y-78122888D01*
X34647265Y-78234148D01*
X34647270Y-78234151D01*
X34820192Y-78311142D01*
X34820197Y-78311144D01*
X35005354Y-78350500D01*
X35005355Y-78350500D01*
X35194644Y-78350500D01*
X35194646Y-78350500D01*
X35379803Y-78311144D01*
X35450766Y-78279548D01*
X35520014Y-78270263D01*
X35583291Y-78299891D01*
X35620505Y-78359026D01*
X35619841Y-78428892D01*
X35588882Y-78480509D01*
X33941208Y-80128183D01*
X33928951Y-80138004D01*
X33929134Y-80138225D01*
X33923123Y-80143197D01*
X33875772Y-80193620D01*
X33854889Y-80214503D01*
X33854877Y-80214516D01*
X33850621Y-80220001D01*
X33846837Y-80224431D01*
X33814937Y-80258402D01*
X33814936Y-80258404D01*
X33805284Y-80275960D01*
X33794610Y-80292210D01*
X33782329Y-80308045D01*
X33782324Y-80308052D01*
X33763815Y-80350822D01*
X33761245Y-80356068D01*
X33738803Y-80396890D01*
X33733822Y-80416291D01*
X33727521Y-80434694D01*
X33719562Y-80453086D01*
X33719561Y-80453089D01*
X33712271Y-80499111D01*
X33711087Y-80504830D01*
X33699501Y-80549956D01*
X33699500Y-80549966D01*
X33699500Y-80570000D01*
X33697973Y-80589399D01*
X33694840Y-80609178D01*
X33694840Y-80609179D01*
X33699225Y-80655567D01*
X33699500Y-80661405D01*
X33699500Y-86463933D01*
X33697775Y-86479550D01*
X33698061Y-86479577D01*
X33697326Y-86487343D01*
X33699500Y-86556492D01*
X33699500Y-86586021D01*
X33699501Y-86586038D01*
X33700368Y-86592909D01*
X33700826Y-86598728D01*
X33702290Y-86645302D01*
X33702291Y-86645305D01*
X33707880Y-86664545D01*
X33711824Y-86683589D01*
X33712895Y-86692070D01*
X33714335Y-86703468D01*
X33731490Y-86746798D01*
X33733381Y-86752324D01*
X33739106Y-86772026D01*
X33743352Y-86819585D01*
X33738511Y-86865649D01*
X33758297Y-87053905D01*
X33758298Y-87053908D01*
X33816789Y-87233926D01*
X33816792Y-87233933D01*
X33911438Y-87397865D01*
X34038100Y-87538537D01*
X34191236Y-87649797D01*
X34191241Y-87649800D01*
X34364163Y-87726791D01*
X34364168Y-87726793D01*
X34549325Y-87766149D01*
X34549326Y-87766149D01*
X34738615Y-87766149D01*
X34738617Y-87766149D01*
X34923774Y-87726793D01*
X35096701Y-87649800D01*
X35118240Y-87634151D01*
X35140484Y-87617990D01*
X35206290Y-87594509D01*
X35274344Y-87610334D01*
X35286255Y-87617989D01*
X35308500Y-87634151D01*
X35481423Y-87711142D01*
X35481424Y-87711142D01*
X35481428Y-87711144D01*
X35605227Y-87737458D01*
X35666709Y-87770650D01*
X35700486Y-87831813D01*
X35702768Y-87871708D01*
X35694540Y-87949999D01*
X35694540Y-87950000D01*
X35714326Y-88138256D01*
X35714327Y-88138259D01*
X35772818Y-88318277D01*
X35772821Y-88318284D01*
X35867467Y-88482216D01*
X35994128Y-88622888D01*
X35994129Y-88622888D01*
X36147265Y-88734148D01*
X36147270Y-88734151D01*
X36320192Y-88811142D01*
X36320197Y-88811144D01*
X36505354Y-88850500D01*
X36505355Y-88850500D01*
X36694644Y-88850500D01*
X36694646Y-88850500D01*
X36879803Y-88811144D01*
X37052730Y-88734151D01*
X37205871Y-88622888D01*
X37332533Y-88482216D01*
X37427179Y-88318284D01*
X37485674Y-88138256D01*
X37505460Y-87950000D01*
X37485674Y-87761744D01*
X37427179Y-87581716D01*
X37332533Y-87417784D01*
X37314596Y-87397863D01*
X37257350Y-87334284D01*
X37227120Y-87271292D01*
X37225500Y-87251312D01*
X37225500Y-82532737D01*
X37227224Y-82517123D01*
X37226938Y-82517096D01*
X37227672Y-82509333D01*
X37225500Y-82440203D01*
X37225500Y-82410651D01*
X37225500Y-82410650D01*
X37224629Y-82403759D01*
X37224172Y-82397945D01*
X37222709Y-82351373D01*
X37217121Y-82332139D01*
X37213174Y-82313081D01*
X37210664Y-82293208D01*
X37193507Y-82249875D01*
X37191614Y-82244346D01*
X37178618Y-82199614D01*
X37178617Y-82199610D01*
X37168420Y-82182368D01*
X37159863Y-82164902D01*
X37152486Y-82146268D01*
X37125083Y-82108550D01*
X37121900Y-82103705D01*
X37098170Y-82063579D01*
X37098165Y-82063573D01*
X37084005Y-82049413D01*
X37071370Y-82034620D01*
X37059593Y-82018412D01*
X37023693Y-81988713D01*
X37019381Y-81984790D01*
X36038960Y-81004369D01*
X36005475Y-80943046D01*
X36003323Y-80929668D01*
X35985674Y-80761744D01*
X35927179Y-80581716D01*
X35832533Y-80417784D01*
X35716187Y-80288569D01*
X35685957Y-80225578D01*
X35694582Y-80156242D01*
X35720653Y-80117919D01*
X40226755Y-75611819D01*
X40288079Y-75578334D01*
X40314437Y-75575500D01*
X41396252Y-75575500D01*
X41463291Y-75595185D01*
X41488400Y-75616526D01*
X41494126Y-75622885D01*
X41494130Y-75622889D01*
X41647265Y-75734148D01*
X41647270Y-75734151D01*
X41820192Y-75811142D01*
X41820197Y-75811144D01*
X42005354Y-75850500D01*
X42005355Y-75850500D01*
X42194644Y-75850500D01*
X42194646Y-75850500D01*
X42379803Y-75811144D01*
X42552730Y-75734151D01*
X42705871Y-75622888D01*
X42728558Y-75597690D01*
X42788045Y-75561042D01*
X42857902Y-75562371D01*
X42908390Y-75592981D01*
X43438181Y-76122771D01*
X43471666Y-76184094D01*
X43474500Y-76210452D01*
X43474500Y-77751312D01*
X43454815Y-77818351D01*
X43442650Y-77834284D01*
X43367466Y-77917784D01*
X43272821Y-78081715D01*
X43272818Y-78081722D01*
X43214327Y-78261740D01*
X43214326Y-78261744D01*
X43194540Y-78450000D01*
X43214326Y-78638256D01*
X43214327Y-78638259D01*
X43272818Y-78818277D01*
X43272821Y-78818284D01*
X43367467Y-78982216D01*
X43457063Y-79081722D01*
X43494129Y-79122888D01*
X43647265Y-79234148D01*
X43647270Y-79234151D01*
X43820192Y-79311142D01*
X43820197Y-79311144D01*
X44005354Y-79350500D01*
X44005355Y-79350500D01*
X44194644Y-79350500D01*
X44194646Y-79350500D01*
X44379803Y-79311144D01*
X44552730Y-79234151D01*
X44705871Y-79122888D01*
X44832533Y-78982216D01*
X44927179Y-78818284D01*
X44985674Y-78638256D01*
X45005460Y-78450000D01*
X44985674Y-78261744D01*
X44927179Y-78081716D01*
X44832533Y-77917784D01*
X44775163Y-77854068D01*
X44757350Y-77834284D01*
X44727120Y-77771292D01*
X44725500Y-77751312D01*
X44725500Y-77027040D01*
X44745185Y-76960001D01*
X44797989Y-76914246D01*
X44867147Y-76904302D01*
X44930703Y-76933327D01*
X44937181Y-76939359D01*
X45438181Y-77440359D01*
X45471666Y-77501682D01*
X45474500Y-77528040D01*
X45474500Y-78751312D01*
X45454815Y-78818351D01*
X45442650Y-78834284D01*
X45367466Y-78917784D01*
X45272821Y-79081715D01*
X45272818Y-79081722D01*
X45214327Y-79261740D01*
X45214326Y-79261744D01*
X45194540Y-79450000D01*
X45214326Y-79638256D01*
X45214327Y-79638259D01*
X45272818Y-79818277D01*
X45272821Y-79818284D01*
X45367467Y-79982216D01*
X45489652Y-80117916D01*
X45494129Y-80122888D01*
X45647265Y-80234148D01*
X45647270Y-80234151D01*
X45820192Y-80311142D01*
X45820197Y-80311144D01*
X46005354Y-80350500D01*
X46005355Y-80350500D01*
X46194644Y-80350500D01*
X46194646Y-80350500D01*
X46324720Y-80322852D01*
X46394385Y-80328168D01*
X46450119Y-80370305D01*
X46474224Y-80435885D01*
X46474499Y-80444142D01*
X46474500Y-81251312D01*
X46454816Y-81318351D01*
X46442650Y-81334284D01*
X46367466Y-81417784D01*
X46272821Y-81581715D01*
X46272818Y-81581722D01*
X46214327Y-81761740D01*
X46214326Y-81761744D01*
X46194540Y-81950000D01*
X46214326Y-82138256D01*
X46214327Y-82138259D01*
X46272818Y-82318277D01*
X46272821Y-82318284D01*
X46367467Y-82482216D01*
X46494128Y-82622888D01*
X46494129Y-82622888D01*
X46647265Y-82734148D01*
X46647270Y-82734151D01*
X46820192Y-82811142D01*
X46820197Y-82811144D01*
X47005354Y-82850500D01*
X47005355Y-82850500D01*
X47194644Y-82850500D01*
X47194646Y-82850500D01*
X47379803Y-82811144D01*
X47552730Y-82734151D01*
X47705871Y-82622888D01*
X47832533Y-82482216D01*
X47927179Y-82318284D01*
X47985674Y-82138256D01*
X48005460Y-81950000D01*
X47985674Y-81761744D01*
X47927179Y-81581716D01*
X47832533Y-81417784D01*
X47757348Y-81334283D01*
X47727119Y-81271293D01*
X47725500Y-81251324D01*
X47725499Y-76975166D01*
X47727224Y-76959553D01*
X47726938Y-76959526D01*
X47727672Y-76951763D01*
X47725500Y-76882632D01*
X47725500Y-76853081D01*
X47725500Y-76853080D01*
X47724629Y-76846189D01*
X47724172Y-76840375D01*
X47722709Y-76793804D01*
X47722709Y-76793802D01*
X47717120Y-76774567D01*
X47713174Y-76755514D01*
X47710664Y-76735638D01*
X47693501Y-76692289D01*
X47691614Y-76686776D01*
X47678617Y-76642040D01*
X47678616Y-76642038D01*
X47668421Y-76624799D01*
X47659860Y-76607323D01*
X47652549Y-76588857D01*
X47652486Y-76588698D01*
X47652486Y-76588697D01*
X47642474Y-76574918D01*
X47625083Y-76550980D01*
X47621900Y-76546135D01*
X47598170Y-76506009D01*
X47598165Y-76506003D01*
X47584005Y-76491843D01*
X47571370Y-76477050D01*
X47559593Y-76460842D01*
X47523693Y-76431143D01*
X47519381Y-76427220D01*
X42931792Y-71839631D01*
X42898307Y-71778308D01*
X42903291Y-71708616D01*
X42945163Y-71652683D01*
X43010627Y-71628266D01*
X43019473Y-71627950D01*
X44964807Y-71627950D01*
X44980427Y-71629674D01*
X44980454Y-71629389D01*
X44988210Y-71630121D01*
X44988217Y-71630123D01*
X45057364Y-71627950D01*
X45086900Y-71627950D01*
X45093778Y-71627080D01*
X45099591Y-71626622D01*
X45146177Y-71625159D01*
X45165419Y-71619567D01*
X45184462Y-71615624D01*
X45204342Y-71613114D01*
X45247672Y-71595957D01*
X45253196Y-71594067D01*
X45256946Y-71592977D01*
X45297940Y-71581068D01*
X45315179Y-71570872D01*
X45332653Y-71562312D01*
X45351277Y-71554938D01*
X45351277Y-71554937D01*
X45351282Y-71554936D01*
X45388999Y-71527532D01*
X45393855Y-71524342D01*
X45433970Y-71500620D01*
X45448139Y-71486449D01*
X45462929Y-71473818D01*
X45479137Y-71462044D01*
X45508844Y-71426131D01*
X45512770Y-71421819D01*
X45547774Y-71386816D01*
X45609099Y-71353333D01*
X45635453Y-71350500D01*
X45694644Y-71350500D01*
X45694646Y-71350500D01*
X45879803Y-71311144D01*
X46052730Y-71234151D01*
X46205871Y-71122888D01*
X46332533Y-70982216D01*
X46427179Y-70818284D01*
X46485674Y-70638256D01*
X46505460Y-70450000D01*
X46485674Y-70261744D01*
X46427179Y-70081716D01*
X46332533Y-69917784D01*
X46205871Y-69777112D01*
X46184719Y-69761744D01*
X46052734Y-69665851D01*
X46052729Y-69665848D01*
X45879807Y-69588857D01*
X45879802Y-69588855D01*
X45731827Y-69557403D01*
X45694646Y-69549500D01*
X45571228Y-69549500D01*
X45504189Y-69529815D01*
X45458434Y-69477011D01*
X45453297Y-69463818D01*
X45402253Y-69306722D01*
X45402252Y-69306721D01*
X45402251Y-69306716D01*
X45307605Y-69142784D01*
X45180943Y-69002112D01*
X45180942Y-69002111D01*
X45027806Y-68890851D01*
X45027801Y-68890848D01*
X44854879Y-68813857D01*
X44854874Y-68813855D01*
X44709072Y-68782865D01*
X44669718Y-68774500D01*
X44480426Y-68774500D01*
X44447969Y-68781398D01*
X44295269Y-68813855D01*
X44295268Y-68813855D01*
X44267732Y-68826116D01*
X44198482Y-68835400D01*
X44135205Y-68805771D01*
X44097993Y-68746636D01*
X44094988Y-68733246D01*
X44078725Y-68635791D01*
X44001351Y-68410410D01*
X44001349Y-68410403D01*
X43887929Y-68200821D01*
X43887927Y-68200819D01*
X43887923Y-68200812D01*
X43741566Y-68012772D01*
X43741563Y-68012769D01*
X43741560Y-68012765D01*
X43566234Y-67851367D01*
X43566231Y-67851365D01*
X43566230Y-67851364D01*
X43431601Y-67763407D01*
X43366734Y-67721027D01*
X43366731Y-67721025D01*
X43366730Y-67721025D01*
X43148502Y-67625301D01*
X42917486Y-67566800D01*
X42774832Y-67554980D01*
X42739472Y-67552050D01*
X42620528Y-67552050D01*
X42588362Y-67554715D01*
X42442513Y-67566800D01*
X42211497Y-67625301D01*
X41993269Y-67721025D01*
X41793762Y-67851369D01*
X41787191Y-67857418D01*
X41724534Y-67888335D01*
X41655109Y-67880469D01*
X41611066Y-67849153D01*
X41604119Y-67841438D01*
X41528705Y-67757682D01*
X41528704Y-67757681D01*
X41375568Y-67646421D01*
X41375563Y-67646418D01*
X41202641Y-67569427D01*
X41202636Y-67569425D01*
X41056834Y-67538435D01*
X41017480Y-67530070D01*
X40828188Y-67530070D01*
X40795731Y-67536968D01*
X40643031Y-67569425D01*
X40643026Y-67569427D01*
X40470104Y-67646418D01*
X40470100Y-67646421D01*
X40416372Y-67685456D01*
X40350565Y-67708935D01*
X40293052Y-67698417D01*
X40176268Y-67646421D01*
X40154803Y-67636864D01*
X40154801Y-67636863D01*
X40154800Y-67636863D01*
X40024498Y-67609167D01*
X39969646Y-67597508D01*
X39849500Y-67597508D01*
X39782461Y-67577823D01*
X39736706Y-67525019D01*
X39725500Y-67473508D01*
X39725500Y-66493660D01*
X41930393Y-66493660D01*
X41960668Y-66665354D01*
X42029721Y-66825438D01*
X42029722Y-66825440D01*
X42029724Y-66825443D01*
X42084032Y-66898390D01*
X42133832Y-66965283D01*
X42267386Y-67077349D01*
X42423185Y-67155594D01*
X42592829Y-67195800D01*
X42592831Y-67195800D01*
X42723429Y-67195800D01*
X42723436Y-67195800D01*
X42853164Y-67180637D01*
X43016993Y-67121008D01*
X43162654Y-67025205D01*
X43282296Y-66898393D01*
X43369467Y-66747407D01*
X43419469Y-66580388D01*
X43429607Y-66406340D01*
X43399332Y-66234646D01*
X43330279Y-66074562D01*
X43320442Y-66061349D01*
X43226167Y-65934716D01*
X43092614Y-65822651D01*
X43092612Y-65822650D01*
X42936818Y-65744407D01*
X42936816Y-65744406D01*
X42936815Y-65744406D01*
X42767171Y-65704200D01*
X42636564Y-65704200D01*
X42523051Y-65717467D01*
X42506835Y-65719363D01*
X42506832Y-65719364D01*
X42343008Y-65778991D01*
X42343004Y-65778993D01*
X42197348Y-65874792D01*
X42197347Y-65874793D01*
X42077706Y-66001603D01*
X42077703Y-66001609D01*
X41990534Y-66152590D01*
X41940531Y-66319610D01*
X41940530Y-66319616D01*
X41935479Y-66406340D01*
X41930393Y-66493660D01*
X39725500Y-66493660D01*
X39725500Y-65148687D01*
X39745185Y-65081648D01*
X39757350Y-65065715D01*
X39775891Y-65045122D01*
X39832533Y-64982216D01*
X39927179Y-64818284D01*
X39985674Y-64638256D01*
X40005460Y-64450000D01*
X39985674Y-64261744D01*
X39927179Y-64081716D01*
X39896831Y-64029152D01*
X41242050Y-64029152D01*
X41254141Y-64101610D01*
X41281274Y-64264208D01*
X41358648Y-64489589D01*
X41358654Y-64489603D01*
X41472069Y-64699176D01*
X41472076Y-64699187D01*
X41618433Y-64887227D01*
X41618436Y-64887230D01*
X41618440Y-64887235D01*
X41793766Y-65048633D01*
X41993266Y-65178973D01*
X42211498Y-65274699D01*
X42442510Y-65333199D01*
X42620528Y-65347950D01*
X42620530Y-65347950D01*
X42739470Y-65347950D01*
X42739472Y-65347950D01*
X42917490Y-65333199D01*
X43148502Y-65274699D01*
X43366734Y-65178973D01*
X43566234Y-65048633D01*
X43599768Y-65017763D01*
X48745787Y-65017763D01*
X48775413Y-65287013D01*
X48775415Y-65287024D01*
X48825254Y-65477659D01*
X48843928Y-65549088D01*
X48949870Y-65798390D01*
X49041959Y-65949283D01*
X49090979Y-66029605D01*
X49090986Y-66029615D01*
X49264253Y-66237819D01*
X49264259Y-66237824D01*
X49355545Y-66319616D01*
X49465998Y-66418582D01*
X49691910Y-66568044D01*
X49937176Y-66683020D01*
X49937183Y-66683022D01*
X49937185Y-66683023D01*
X50196557Y-66761057D01*
X50196564Y-66761058D01*
X50196569Y-66761060D01*
X50464561Y-66800500D01*
X50464566Y-66800500D01*
X50667636Y-66800500D01*
X50719133Y-66796730D01*
X50870156Y-66785677D01*
X50983601Y-66760406D01*
X51134546Y-66726782D01*
X51134548Y-66726781D01*
X51134553Y-66726780D01*
X51387558Y-66630014D01*
X51623777Y-66497441D01*
X51838177Y-66331888D01*
X52026186Y-66136881D01*
X52183799Y-65916579D01*
X52272319Y-65744406D01*
X52307649Y-65675690D01*
X52307651Y-65675684D01*
X52307656Y-65675675D01*
X52395118Y-65419305D01*
X52444319Y-65152933D01*
X52454212Y-64882235D01*
X52424586Y-64612982D01*
X52356072Y-64350912D01*
X52250130Y-64101610D01*
X52109018Y-63870390D01*
X52042823Y-63790848D01*
X51935746Y-63662180D01*
X51935740Y-63662175D01*
X51734002Y-63481418D01*
X51508092Y-63331957D01*
X51470774Y-63314463D01*
X51262824Y-63216980D01*
X51262819Y-63216978D01*
X51262814Y-63216976D01*
X51003442Y-63138942D01*
X51003428Y-63138939D01*
X50880327Y-63120823D01*
X50735439Y-63099500D01*
X50532369Y-63099500D01*
X50532364Y-63099500D01*
X50329844Y-63114323D01*
X50329831Y-63114325D01*
X50065453Y-63173217D01*
X50065446Y-63173220D01*
X49812439Y-63269987D01*
X49576226Y-63402557D01*
X49361822Y-63568112D01*
X49173822Y-63763109D01*
X49173816Y-63763116D01*
X49016202Y-63983419D01*
X49016199Y-63983424D01*
X48892350Y-64224309D01*
X48892343Y-64224327D01*
X48804884Y-64480685D01*
X48804881Y-64480699D01*
X48800224Y-64505913D01*
X48763754Y-64703363D01*
X48755681Y-64747068D01*
X48755680Y-64747075D01*
X48745787Y-65017763D01*
X43599768Y-65017763D01*
X43741560Y-64887235D01*
X43850656Y-64747068D01*
X43887923Y-64699187D01*
X43887924Y-64699185D01*
X43887929Y-64699179D01*
X44001349Y-64489597D01*
X44078726Y-64264206D01*
X44117950Y-64029152D01*
X44117950Y-63790848D01*
X44078726Y-63555794D01*
X44001349Y-63330403D01*
X43887929Y-63120821D01*
X43887927Y-63120819D01*
X43887923Y-63120812D01*
X43741566Y-62932772D01*
X43741563Y-62932769D01*
X43741560Y-62932765D01*
X43566234Y-62771367D01*
X43566231Y-62771365D01*
X43566230Y-62771364D01*
X43489090Y-62720966D01*
X43366734Y-62641027D01*
X43366731Y-62641025D01*
X43366730Y-62641025D01*
X43148502Y-62545301D01*
X42917486Y-62486800D01*
X42774832Y-62474980D01*
X42739472Y-62472050D01*
X42620528Y-62472050D01*
X42588362Y-62474715D01*
X42442513Y-62486800D01*
X42211497Y-62545301D01*
X41993269Y-62641025D01*
X41793769Y-62771364D01*
X41618443Y-62932762D01*
X41618433Y-62932772D01*
X41472076Y-63120812D01*
X41472069Y-63120823D01*
X41358654Y-63330396D01*
X41358648Y-63330410D01*
X41281274Y-63555791D01*
X41261595Y-63673724D01*
X41242050Y-63790848D01*
X41242050Y-64029152D01*
X39896831Y-64029152D01*
X39832533Y-63917784D01*
X39705871Y-63777112D01*
X39705870Y-63777111D01*
X39552734Y-63665851D01*
X39552729Y-63665848D01*
X39379807Y-63588857D01*
X39379802Y-63588855D01*
X39224243Y-63555791D01*
X39194646Y-63549500D01*
X39005354Y-63549500D01*
X38975757Y-63555791D01*
X38820197Y-63588855D01*
X38820192Y-63588857D01*
X38650436Y-63664439D01*
X38581186Y-63673724D01*
X38549564Y-63664439D01*
X38379807Y-63588857D01*
X38379802Y-63588855D01*
X38224243Y-63555791D01*
X38194646Y-63549500D01*
X38005354Y-63549500D01*
X37975757Y-63555791D01*
X37820197Y-63588855D01*
X37820192Y-63588857D01*
X37647270Y-63665848D01*
X37647267Y-63665850D01*
X37629402Y-63678830D01*
X37563595Y-63702308D01*
X37495542Y-63686481D01*
X37446848Y-63636374D01*
X37438588Y-63616828D01*
X37427181Y-63581722D01*
X37427180Y-63581721D01*
X37427179Y-63581716D01*
X37332533Y-63417784D01*
X37205871Y-63277112D01*
X37205870Y-63277111D01*
X37052734Y-63165851D01*
X37052729Y-63165848D01*
X36879807Y-63088857D01*
X36879802Y-63088855D01*
X36734001Y-63057865D01*
X36694646Y-63049500D01*
X36505354Y-63049500D01*
X36472897Y-63056398D01*
X36320197Y-63088855D01*
X36320192Y-63088857D01*
X36147270Y-63165848D01*
X36147265Y-63165851D01*
X35994129Y-63277111D01*
X35994128Y-63277112D01*
X35938927Y-63338419D01*
X35879440Y-63375067D01*
X35809583Y-63373736D01*
X35751535Y-63334849D01*
X35737723Y-63314463D01*
X35642736Y-63138942D01*
X35632929Y-63120821D01*
X35632927Y-63120819D01*
X35632923Y-63120812D01*
X35486566Y-62932772D01*
X35486563Y-62932769D01*
X35486560Y-62932765D01*
X35311234Y-62771367D01*
X35311231Y-62771365D01*
X35311230Y-62771364D01*
X35234089Y-62720966D01*
X35111734Y-62641027D01*
X35111731Y-62641025D01*
X35111730Y-62641025D01*
X34893502Y-62545301D01*
X34662486Y-62486800D01*
X34519832Y-62474980D01*
X34484472Y-62472050D01*
X34365528Y-62472050D01*
X34333362Y-62474715D01*
X34187513Y-62486800D01*
X33956497Y-62545301D01*
X33738269Y-62641025D01*
X33538769Y-62771364D01*
X33363443Y-62932762D01*
X33363433Y-62932772D01*
X33217076Y-63120812D01*
X33217069Y-63120823D01*
X33103654Y-63330396D01*
X33103648Y-63330410D01*
X33026274Y-63555791D01*
X33006595Y-63673724D01*
X32987050Y-63790848D01*
X32987050Y-64029152D01*
X29205909Y-64029152D01*
X29109018Y-63870390D01*
X29042823Y-63790848D01*
X28935746Y-63662180D01*
X28935740Y-63662175D01*
X28734002Y-63481418D01*
X28508092Y-63331957D01*
X28470774Y-63314463D01*
X28262824Y-63216980D01*
X28262819Y-63216978D01*
X28262814Y-63216976D01*
X28003442Y-63138942D01*
X28003428Y-63138939D01*
X27880327Y-63120823D01*
X27735439Y-63099500D01*
X27532369Y-63099500D01*
X27532364Y-63099500D01*
X27329844Y-63114323D01*
X27329831Y-63114325D01*
X27065453Y-63173217D01*
X27065446Y-63173220D01*
X26812439Y-63269987D01*
X26576226Y-63402557D01*
X26361822Y-63568112D01*
X26173822Y-63763109D01*
X26173816Y-63763116D01*
X26016202Y-63983419D01*
X26016199Y-63983424D01*
X25892350Y-64224309D01*
X25892343Y-64224327D01*
X25804884Y-64480685D01*
X25804881Y-64480699D01*
X25800224Y-64505913D01*
X25763754Y-64703363D01*
X25755681Y-64747068D01*
X25755680Y-64747075D01*
X25745787Y-65017763D01*
X24100500Y-65017763D01*
X24100500Y-61574500D01*
X24120185Y-61507461D01*
X24172989Y-61461706D01*
X24224500Y-61450500D01*
X53975500Y-61450500D01*
X54042539Y-61470185D01*
G37*
%TD.AperFunction*%
%TD*%
M02*
