%TF.GenerationSoftware,KiCad,Pcbnew,7.0.7*%
%TF.CreationDate,2024-01-18T13:53:05-05:00*%
%TF.ProjectId,DDRN_Hardware,4444524e-5f48-4617-9264-776172652e6b,rev?*%
%TF.SameCoordinates,Original*%
%TF.FileFunction,Copper,L1,Top*%
%TF.FilePolarity,Positive*%
%FSLAX46Y46*%
G04 Gerber Fmt 4.6, Leading zero omitted, Abs format (unit mm)*
G04 Created by KiCad (PCBNEW 7.0.7) date 2024-01-18 13:53:05*
%MOMM*%
%LPD*%
G01*
G04 APERTURE LIST*
G04 Aperture macros list*
%AMRoundRect*
0 Rectangle with rounded corners*
0 $1 Rounding radius*
0 $2 $3 $4 $5 $6 $7 $8 $9 X,Y pos of 4 corners*
0 Add a 4 corners polygon primitive as box body*
4,1,4,$2,$3,$4,$5,$6,$7,$8,$9,$2,$3,0*
0 Add four circle primitives for the rounded corners*
1,1,$1+$1,$2,$3*
1,1,$1+$1,$4,$5*
1,1,$1+$1,$6,$7*
1,1,$1+$1,$8,$9*
0 Add four rect primitives between the rounded corners*
20,1,$1+$1,$2,$3,$4,$5,0*
20,1,$1+$1,$4,$5,$6,$7,0*
20,1,$1+$1,$6,$7,$8,$9,0*
20,1,$1+$1,$8,$9,$2,$3,0*%
G04 Aperture macros list end*
%TA.AperFunction,SMDPad,CuDef*%
%ADD10RoundRect,0.225000X-0.225000X-0.375000X0.225000X-0.375000X0.225000X0.375000X-0.225000X0.375000X0*%
%TD*%
%TA.AperFunction,SMDPad,CuDef*%
%ADD11R,0.350000X1.500000*%
%TD*%
%TA.AperFunction,SMDPad,CuDef*%
%ADD12R,1.500000X0.350000*%
%TD*%
%TA.AperFunction,HeatsinkPad*%
%ADD13R,1.500000X1.500000*%
%TD*%
%TA.AperFunction,SMDPad,CuDef*%
%ADD14RoundRect,0.250000X0.337500X0.475000X-0.337500X0.475000X-0.337500X-0.475000X0.337500X-0.475000X0*%
%TD*%
%TA.AperFunction,SMDPad,CuDef*%
%ADD15R,1.000000X1.050000*%
%TD*%
%TA.AperFunction,SMDPad,CuDef*%
%ADD16R,1.050000X2.200000*%
%TD*%
%TA.AperFunction,SMDPad,CuDef*%
%ADD17RoundRect,0.250000X-0.337500X-0.475000X0.337500X-0.475000X0.337500X0.475000X-0.337500X0.475000X0*%
%TD*%
%TA.AperFunction,SMDPad,CuDef*%
%ADD18RoundRect,0.250000X-0.350000X-0.450000X0.350000X-0.450000X0.350000X0.450000X-0.350000X0.450000X0*%
%TD*%
%TA.AperFunction,SMDPad,CuDef*%
%ADD19R,2.300000X1.000000*%
%TD*%
%TA.AperFunction,SMDPad,CuDef*%
%ADD20R,1.000000X2.300000*%
%TD*%
%TA.AperFunction,SMDPad,CuDef*%
%ADD21RoundRect,0.150000X0.587500X0.150000X-0.587500X0.150000X-0.587500X-0.150000X0.587500X-0.150000X0*%
%TD*%
%TA.AperFunction,ConnectorPad*%
%ADD22C,0.787400*%
%TD*%
%TA.AperFunction,SMDPad,CuDef*%
%ADD23RoundRect,0.250000X0.350000X0.450000X-0.350000X0.450000X-0.350000X-0.450000X0.350000X-0.450000X0*%
%TD*%
%TA.AperFunction,SMDPad,CuDef*%
%ADD24R,3.600000X1.500000*%
%TD*%
%TA.AperFunction,SMDPad,CuDef*%
%ADD25RoundRect,0.150000X-0.512500X-0.150000X0.512500X-0.150000X0.512500X0.150000X-0.512500X0.150000X0*%
%TD*%
%TA.AperFunction,ViaPad*%
%ADD26C,0.800000*%
%TD*%
%TA.AperFunction,Conductor*%
%ADD27C,0.200000*%
%TD*%
%TA.AperFunction,Conductor*%
%ADD28C,0.250000*%
%TD*%
%TA.AperFunction,Conductor*%
%ADD29C,0.500000*%
%TD*%
G04 APERTURE END LIST*
D10*
%TO.P,D1,1,K*%
%TO.N,Net-(D1-K)*%
X40737500Y-88450000D03*
%TO.P,D1,2,A*%
%TO.N,Net-(D1-A)*%
X44037500Y-88450000D03*
%TD*%
D11*
%TO.P,U2,1,SCLK*%
%TO.N,/SCK*%
X35400000Y-88425000D03*
%TO.P,U2,2,MOSI*%
%TO.N,/MOSI*%
X34600000Y-88425000D03*
%TO.P,U2,3,CL*%
%TO.N,unconnected-(U2-CL-Pad3)*%
X33800000Y-88425000D03*
D12*
%TO.P,U2,4,CS+*%
%TO.N,Net-(D1-K)*%
X32600000Y-89625000D03*
%TO.P,U2,5,CS-*%
%TO.N,/SiPM_Bias*%
X32600000Y-90425000D03*
%TO.P,U2,6,DACOUT*%
%TO.N,Net-(U2-DACOUT)*%
X32600000Y-91225000D03*
D11*
%TO.P,U2,7,FB*%
%TO.N,Net-(U2-FB)*%
X33800000Y-92425000D03*
%TO.P,U2,8,COMP*%
%TO.N,Net-(U2-COMP)*%
X34600000Y-92425000D03*
%TO.P,U2,9,GND*%
%TO.N,/GND*%
X35400000Y-92425000D03*
D12*
%TO.P,U2,10,GATE*%
%TO.N,Net-(Q1-G)*%
X36600000Y-91225000D03*
%TO.P,U2,11,VIN*%
%TO.N,/V_BAT*%
X36600000Y-90425000D03*
%TO.P,U2,12,CS*%
%TO.N,/Bias_CS*%
X36600000Y-89625000D03*
D13*
%TO.P,U2,13,PAN*%
%TO.N,/GND*%
X34600000Y-90425000D03*
%TD*%
D14*
%TO.P,C3,1*%
%TO.N,Net-(C3-Pad1)*%
X35500000Y-98925000D03*
%TO.P,C3,2*%
%TO.N,/GND*%
X33425000Y-98925000D03*
%TD*%
D15*
%TO.P,J2,1,In*%
%TO.N,Net-(J2-In)*%
X27600000Y-72000000D03*
D16*
%TO.P,J2,2,Ext*%
%TO.N,/GND*%
X26125000Y-70475000D03*
X29075000Y-70475000D03*
%TD*%
D17*
%TO.P,C10,1*%
%TO.N,/3v3*%
X47025000Y-91450000D03*
%TO.P,C10,2*%
%TO.N,/GND*%
X49100000Y-91450000D03*
%TD*%
%TO.P,C9,1*%
%TO.N,/3v3*%
X47062500Y-89450000D03*
%TO.P,C9,2*%
%TO.N,/GND*%
X49137500Y-89450000D03*
%TD*%
D14*
%TO.P,C2,1*%
%TO.N,/V_BAT*%
X43100000Y-99950000D03*
%TO.P,C2,2*%
%TO.N,/GND*%
X41025000Y-99950000D03*
%TD*%
D17*
%TO.P,C8,1*%
%TO.N,/V_BAT*%
X47025000Y-99450000D03*
%TO.P,C8,2*%
%TO.N,/GND*%
X49100000Y-99450000D03*
%TD*%
D18*
%TO.P,R5,1*%
%TO.N,Net-(U2-FB)*%
X33500000Y-94850000D03*
%TO.P,R5,2*%
%TO.N,/GND*%
X35500000Y-94850000D03*
%TD*%
D19*
%TO.P,U1,1,VCC*%
%TO.N,/3v3*%
X49100000Y-82200000D03*
%TO.P,U1,2,GND*%
%TO.N,/GND*%
X49100000Y-80950000D03*
%TO.P,U1,3,PA13*%
%TO.N,/SWDIO*%
X49100000Y-79700000D03*
%TO.P,U1,4,PA14*%
%TO.N,/SWCLK*%
X49100000Y-78450000D03*
%TO.P,U1,5,PB15*%
%TO.N,/SCL*%
X49100000Y-77200000D03*
%TO.P,U1,6,PA15*%
%TO.N,/SDA*%
X49100000Y-75950000D03*
%TO.P,U1,7,PB4*%
%TO.N,/SiPM_Signal*%
X49100000Y-74700000D03*
D20*
%TO.P,U1,8,PB3*%
%TO.N,/SiPM_Temp*%
X46850000Y-72450000D03*
%TO.P,U1,9,PB7*%
%TO.N,/USB_RX*%
X45600000Y-72450000D03*
%TO.P,U1,10,PB6*%
%TO.N,/USB_TX*%
X44350000Y-72450000D03*
%TO.P,U1,11,PB5*%
%TO.N,/Status_LED*%
X43100000Y-72450000D03*
%TO.P,U1,12,PC1*%
%TO.N,/MOSI*%
X41850000Y-72450000D03*
%TO.P,U1,13,PC0*%
%TO.N,/ACCEL_INT*%
X40600000Y-72450000D03*
%TO.P,U1,14,GND*%
%TO.N,/GND*%
X39350000Y-72450000D03*
D19*
%TO.P,U1,15,RFIO*%
%TO.N,/ANT*%
X37100000Y-74700000D03*
%TO.P,U1,16,GND*%
%TO.N,/GND*%
X37100000Y-75950000D03*
%TO.P,U1,17,RST*%
%TO.N,/RST*%
X37100000Y-77200000D03*
%TO.P,U1,18,PA3*%
%TO.N,/Boot_Mode*%
X37100000Y-78450000D03*
%TO.P,U1,19,PA2*%
%TO.N,/Memory_CS*%
X37100000Y-79700000D03*
%TO.P,U1,20,PB10*%
%TO.N,/Bias_CS*%
X37100000Y-80950000D03*
%TO.P,U1,21,PA9*%
%TO.N,/SCK*%
X37100000Y-82200000D03*
D20*
%TO.P,U1,22,GND*%
%TO.N,/GND*%
X39350000Y-84450000D03*
%TO.P,U1,23,PA0*%
%TO.N,/Battery_Monitor_Enable*%
X40600000Y-84450000D03*
%TO.P,U1,24,PB13~{}*%
%TO.N,/Battery_Monitor*%
X41850000Y-84450000D03*
%TO.P,U1,25,PB9*%
%TO.N,/Stim_Enable*%
X43100000Y-84450000D03*
%TO.P,U1,26,PB14*%
%TO.N,/MISO*%
X44350000Y-84450000D03*
%TO.P,U1,27,PA10*%
%TO.N,/Anneal_Enable*%
X45600000Y-84450000D03*
%TO.P,U1,28,PB0*%
%TO.N,unconnected-(U1-PB0-Pad28)*%
X46850000Y-84450000D03*
%TD*%
D14*
%TO.P,C11,1*%
%TO.N,/ANT*%
X33100000Y-77950000D03*
%TO.P,C11,2*%
%TO.N,/GND*%
X31025000Y-77950000D03*
%TD*%
D17*
%TO.P,C12,1*%
%TO.N,Net-(J2-In)*%
X31025000Y-73950000D03*
%TO.P,C12,2*%
%TO.N,/GND*%
X33100000Y-73950000D03*
%TD*%
D14*
%TO.P,C4,1*%
%TO.N,Net-(D1-K)*%
X29137500Y-90450000D03*
%TO.P,C4,2*%
%TO.N,/GND*%
X27062500Y-90450000D03*
%TD*%
D21*
%TO.P,Q1,1,G*%
%TO.N,Net-(Q1-G)*%
X42975000Y-92400000D03*
%TO.P,Q1,2,S*%
%TO.N,/GND*%
X42975000Y-90500000D03*
%TO.P,Q1,3,D*%
%TO.N,Net-(D1-A)*%
X41100000Y-91450000D03*
%TD*%
D22*
%TO.P,J5,1,Pin_1*%
%TO.N,/SiPM_Bias*%
X34330000Y-107220000D03*
%TO.P,J5,2,Pin_2*%
%TO.N,/V_BAT*%
X34330000Y-105950000D03*
%TO.P,J5,3,Pin_3*%
%TO.N,/GND*%
X35600000Y-107220000D03*
%TO.P,J5,4,Pin_4*%
%TO.N,/Stim_Enable*%
X35600000Y-105950000D03*
%TO.P,J5,5,Pin_5*%
%TO.N,/SiPM_Signal*%
X36870000Y-107220000D03*
%TO.P,J5,6,Pin_6*%
%TO.N,/3v3*%
X36870000Y-105950000D03*
%TD*%
D18*
%TO.P,R4,1*%
%TO.N,/SiPM_Bias*%
X27100000Y-96925000D03*
%TO.P,R4,2*%
%TO.N,Net-(U2-FB)*%
X29100000Y-96925000D03*
%TD*%
D17*
%TO.P,C5,1*%
%TO.N,/SiPM_Bias*%
X27025000Y-98925000D03*
%TO.P,C5,2*%
%TO.N,/GND*%
X29100000Y-98925000D03*
%TD*%
D22*
%TO.P,J1,1,Pin_1*%
%TO.N,unconnected-(J1-Pin_1-Pad1)*%
X41410000Y-65815000D03*
%TO.P,J1,2,Pin_2*%
%TO.N,unconnected-(J1-Pin_2-Pad2)*%
X40140000Y-65815000D03*
%TO.P,J1,3,Pin_3*%
%TO.N,/3v3*%
X38870000Y-65815000D03*
%TO.P,J1,4,Pin_4*%
%TO.N,/SWDIO*%
X37600000Y-65815000D03*
%TO.P,J1,5,Pin_5*%
%TO.N,/GND*%
X36330000Y-65815000D03*
%TO.P,J1,6,Pin_6*%
%TO.N,/SWCLK*%
X35060000Y-65815000D03*
%TO.P,J1,7,Pin_7*%
%TO.N,/GND*%
X33790000Y-65815000D03*
%TO.P,J1,8,Pin_8*%
%TO.N,unconnected-(J1-Pin_8-Pad8)*%
X33790000Y-67085000D03*
%TO.P,J1,9,Pin_9*%
%TO.N,unconnected-(J1-Pin_9-Pad9)*%
X35060000Y-67085000D03*
%TO.P,J1,10,Pin_10*%
%TO.N,unconnected-(J1-Pin_10-Pad10)*%
X36330000Y-67085000D03*
%TO.P,J1,11,Pin_11*%
%TO.N,/GND*%
X37600000Y-67085000D03*
%TO.P,J1,12,Pin_12*%
%TO.N,/RST*%
X38870000Y-67085000D03*
%TO.P,J1,13,Pin_13*%
%TO.N,/USB_RX*%
X40140000Y-67085000D03*
%TO.P,J1,14,Pin_14*%
%TO.N,/USB_TX*%
X41410000Y-67085000D03*
%TD*%
D23*
%TO.P,R2,1*%
%TO.N,Net-(U2-DACOUT)*%
X29100000Y-94925000D03*
%TO.P,R2,2*%
%TO.N,Net-(U2-FB)*%
X27100000Y-94925000D03*
%TD*%
D18*
%TO.P,R16,1*%
%TO.N,Net-(J2-In)*%
X31100000Y-75950000D03*
%TO.P,R16,2*%
%TO.N,/ANT*%
X33100000Y-75950000D03*
%TD*%
D24*
%TO.P,L1,1,1*%
%TO.N,/V_BAT*%
X42100000Y-97500000D03*
%TO.P,L1,2,2*%
%TO.N,Net-(D1-A)*%
X42100000Y-94450000D03*
%TD*%
D23*
%TO.P,R3,1*%
%TO.N,Net-(D1-K)*%
X29100000Y-92425000D03*
%TO.P,R3,2*%
%TO.N,/SiPM_Bias*%
X27100000Y-92425000D03*
%TD*%
D17*
%TO.P,C7,1*%
%TO.N,/V_BAT*%
X47025000Y-97450000D03*
%TO.P,C7,2*%
%TO.N,/GND*%
X49100000Y-97450000D03*
%TD*%
D25*
%TO.P,U6,1,VIN*%
%TO.N,/V_BAT*%
X46962500Y-93500000D03*
%TO.P,U6,2,GND*%
%TO.N,/GND*%
X46962500Y-94450000D03*
%TO.P,U6,3,EN*%
%TO.N,/V_BAT*%
X46962500Y-95400000D03*
%TO.P,U6,4,NC*%
%TO.N,unconnected-(U6-NC-Pad4)*%
X49237500Y-95400000D03*
%TO.P,U6,5,VOUT*%
%TO.N,/3v3*%
X49237500Y-93500000D03*
%TD*%
D18*
%TO.P,R1,1*%
%TO.N,Net-(C3-Pad1)*%
X33500000Y-96850000D03*
%TO.P,R1,2*%
%TO.N,Net-(U2-COMP)*%
X35500000Y-96850000D03*
%TD*%
D26*
%TO.N,/3v3*%
X39100000Y-64450000D03*
X47100000Y-81950000D03*
X45300000Y-91450000D03*
X39100000Y-103050000D03*
%TO.N,/V_BAT*%
X30600000Y-102950000D03*
X39100000Y-97450000D03*
X38600000Y-90450000D03*
%TO.N,/Stim_Enable*%
X39100000Y-101950000D03*
X43100000Y-86450000D03*
%TO.N,/SiPM_Signal*%
X39100000Y-104450000D03*
X49600000Y-71950000D03*
%TO.N,/GND*%
X46700000Y-86850000D03*
X39500000Y-86850000D03*
%TO.N,/SWDIO*%
X46100000Y-79450000D03*
X38100000Y-64450000D03*
%TO.N,/SWCLK*%
X36600000Y-63950000D03*
X44100000Y-78450000D03*
%TO.N,/USB_RX*%
X39875000Y-68498008D03*
X45600000Y-70450000D03*
%TO.N,/USB_TX*%
X44575072Y-69675000D03*
X40922834Y-68430570D03*
%TO.N,/RST*%
X37100000Y-69950000D03*
X35100000Y-77450000D03*
%TO.N,/MOSI*%
X34643971Y-86865649D03*
X42100000Y-74950000D03*
%TO.N,/SCK*%
X35761231Y-86850000D03*
X35664491Y-83610507D03*
%TO.N,/Bias_CS*%
X35100000Y-80950000D03*
X36600000Y-87950000D03*
%TD*%
D27*
%TO.N,/3v3*%
X36870000Y-105643565D02*
X39100000Y-103413565D01*
X39100000Y-103413565D02*
X39100000Y-103050000D01*
D28*
X47025000Y-89487500D02*
X47062500Y-89450000D01*
X49100000Y-87412500D02*
X47062500Y-89450000D01*
X47025000Y-91450000D02*
X47025000Y-89487500D01*
X47100000Y-81950000D02*
X48850000Y-81950000D01*
X38870000Y-64680000D02*
X39100000Y-64450000D01*
X47025000Y-91450000D02*
X47187500Y-91450000D01*
X47187500Y-91450000D02*
X49237500Y-93500000D01*
D27*
X36870000Y-105950000D02*
X36870000Y-105643565D01*
D28*
X49100000Y-82200000D02*
X49100000Y-87412500D01*
X38870000Y-65815000D02*
X38870000Y-64680000D01*
X47025000Y-91450000D02*
X45300000Y-91450000D01*
X48850000Y-81950000D02*
X49100000Y-82200000D01*
%TO.N,/V_BAT*%
X47025000Y-99450000D02*
X43600000Y-99450000D01*
X30600000Y-103950000D02*
X30600000Y-102950000D01*
X47950000Y-95074999D02*
X47624999Y-95400000D01*
X32364700Y-105714700D02*
X30600000Y-103950000D01*
X46962500Y-93500000D02*
X47624999Y-93500000D01*
X36600000Y-90425000D02*
X38575000Y-90425000D01*
X47025000Y-99450000D02*
X47025000Y-97450000D01*
X43600000Y-99450000D02*
X43100000Y-99950000D01*
X42100000Y-97500000D02*
X42100000Y-98950000D01*
X39100000Y-97450000D02*
X39150000Y-97500000D01*
X39150000Y-97500000D02*
X42100000Y-97500000D01*
X42100000Y-98950000D02*
X43100000Y-99950000D01*
X47624999Y-93500000D02*
X47950000Y-93825001D01*
X46962500Y-95400000D02*
X46962500Y-97387500D01*
X47624999Y-95400000D02*
X46962500Y-95400000D01*
X46962500Y-97387500D02*
X47025000Y-97450000D01*
X38575000Y-90425000D02*
X38600000Y-90450000D01*
X47950000Y-93825001D02*
X47950000Y-95074999D01*
X34330000Y-105950000D02*
X34094700Y-105714700D01*
X34094700Y-105714700D02*
X32364700Y-105714700D01*
%TO.N,Net-(C3-Pad1)*%
X33600000Y-96950000D02*
X35575000Y-98925000D01*
X35575000Y-98925000D02*
X35675000Y-98925000D01*
X33600000Y-96925000D02*
X33600000Y-96950000D01*
D29*
%TO.N,Net-(D1-K)*%
X32600000Y-87450000D02*
X32600000Y-89625000D01*
X39100000Y-88450000D02*
X36600000Y-85950000D01*
D28*
X29100000Y-90425000D02*
X29900000Y-89625000D01*
X29900000Y-89625000D02*
X32600000Y-89625000D01*
D29*
X40737500Y-88450000D02*
X39100000Y-88450000D01*
X34100000Y-85950000D02*
X32600000Y-87450000D01*
D28*
X29100000Y-92425000D02*
X29100000Y-90425000D01*
D29*
X36600000Y-85950000D02*
X34100000Y-85950000D01*
D28*
%TO.N,/SiPM_Bias*%
X28125000Y-93450000D02*
X29695100Y-93450000D01*
X34330000Y-107220000D02*
X34094700Y-107455300D01*
X30625000Y-90425000D02*
X32600000Y-90425000D01*
X27100000Y-92425000D02*
X28125000Y-93450000D01*
X27025000Y-98925000D02*
X27025000Y-97000000D01*
X32509284Y-107455300D02*
X27025000Y-101971016D01*
X26175000Y-93350000D02*
X27100000Y-92425000D01*
X29695100Y-93450000D02*
X30100000Y-93045100D01*
X34094700Y-107455300D02*
X32509284Y-107455300D01*
X27025000Y-101971016D02*
X27025000Y-98925000D01*
X30100000Y-93045100D02*
X30100000Y-90950000D01*
X26175000Y-96000000D02*
X27100000Y-96925000D01*
X30100000Y-90950000D02*
X30625000Y-90425000D01*
X26175000Y-96000000D02*
X26175000Y-93350000D01*
%TO.N,Net-(J2-In)*%
X31100000Y-75950000D02*
X31100000Y-74025000D01*
X31025000Y-73950000D02*
X29550000Y-73950000D01*
X31100000Y-74025000D02*
X31025000Y-73950000D01*
X29550000Y-73950000D02*
X27600000Y-72000000D01*
%TO.N,/ANT*%
X33100000Y-77950000D02*
X33100000Y-75950000D01*
X34350000Y-74700000D02*
X33100000Y-75950000D01*
X37100000Y-74700000D02*
X34350000Y-74700000D01*
%TO.N,Net-(D1-A)*%
X42338408Y-94450000D02*
X42100000Y-94450000D01*
X44037500Y-88450000D02*
X44037500Y-91450000D01*
X44037500Y-91450000D02*
X44037500Y-92750908D01*
X43150000Y-94450000D02*
X42100000Y-94450000D01*
X44037500Y-92750908D02*
X42338408Y-94450000D01*
X41100000Y-91450000D02*
X44037500Y-91450000D01*
%TO.N,/Stim_Enable*%
X43100000Y-84450000D02*
X43100000Y-86450000D01*
X35600000Y-105950000D02*
X34672550Y-105022550D01*
X34672550Y-105022550D02*
X34672550Y-103377450D01*
X36100000Y-101950000D02*
X39100000Y-101950000D01*
X34672550Y-103377450D02*
X36100000Y-101950000D01*
D27*
%TO.N,/SiPM_Signal*%
X36870000Y-107220000D02*
X37334300Y-106755700D01*
D28*
X49600000Y-74200000D02*
X49600000Y-71950000D01*
X49100000Y-74700000D02*
X49600000Y-74200000D01*
D27*
X39100000Y-105804435D02*
X39100000Y-104450000D01*
X38148735Y-106755700D02*
X39100000Y-105804435D01*
X37334300Y-106755700D02*
X38148735Y-106755700D01*
D28*
%TO.N,/GND*%
X36330000Y-65815000D02*
X36330000Y-65258225D01*
X37325000Y-63725000D02*
X38100000Y-62950000D01*
X31600000Y-65744790D02*
X31600000Y-63450000D01*
X32159510Y-66304300D02*
X31600000Y-65744790D01*
X34672550Y-110877450D02*
X34600000Y-110950000D01*
X37325000Y-64263225D02*
X37325000Y-63725000D01*
X36330000Y-65258225D02*
X37325000Y-64263225D01*
X33790000Y-65815000D02*
X33465000Y-65815000D01*
X34672550Y-108147450D02*
X34672550Y-110877450D01*
X32975700Y-66304300D02*
X32159510Y-66304300D01*
X35400000Y-92425000D02*
X35400000Y-91225000D01*
X33465000Y-65815000D02*
X32975700Y-66304300D01*
X35400000Y-91225000D02*
X34600000Y-90425000D01*
X35600000Y-107220000D02*
X34672550Y-108147450D01*
%TO.N,/SWDIO*%
X49100000Y-79700000D02*
X46350000Y-79700000D01*
X37600000Y-64950000D02*
X38100000Y-64450000D01*
X46350000Y-79700000D02*
X46100000Y-79450000D01*
X37600000Y-65815000D02*
X37600000Y-64950000D01*
%TO.N,/SWCLK*%
X49100000Y-78450000D02*
X44100000Y-78450000D01*
X36600000Y-64275000D02*
X36600000Y-63950000D01*
X35060000Y-65815000D02*
X36600000Y-64275000D01*
%TO.N,/USB_RX*%
X40140000Y-67085000D02*
X40140000Y-68233008D01*
X45600000Y-70450000D02*
X45600000Y-72450000D01*
X40140000Y-68233008D02*
X39875000Y-68498008D01*
%TO.N,/USB_TX*%
X44350000Y-72450000D02*
X44350000Y-69900072D01*
X41410000Y-67943404D02*
X40922834Y-68430570D01*
X44350000Y-69900072D02*
X44575072Y-69675000D01*
X41410000Y-67085000D02*
X41410000Y-67943404D01*
%TO.N,/RST*%
X35100000Y-77450000D02*
X36850000Y-77450000D01*
X38870000Y-67085000D02*
X38870000Y-68180000D01*
X38870000Y-68180000D02*
X37100000Y-69950000D01*
X36850000Y-77450000D02*
X37100000Y-77200000D01*
%TO.N,Net-(Q1-G)*%
X42975000Y-92400000D02*
X37775000Y-92400000D01*
X37775000Y-92400000D02*
X36600000Y-91225000D01*
%TO.N,Net-(U2-COMP)*%
X34600000Y-95925000D02*
X35600000Y-96925000D01*
X34600000Y-92425000D02*
X34600000Y-95925000D01*
%TO.N,Net-(U2-DACOUT)*%
X30600000Y-93425000D02*
X30600000Y-91950000D01*
X29100000Y-94925000D02*
X30600000Y-93425000D01*
X31325000Y-91225000D02*
X32600000Y-91225000D01*
X30600000Y-91950000D02*
X31325000Y-91225000D01*
%TO.N,Net-(U2-FB)*%
X33800000Y-92425000D02*
X33800000Y-94725000D01*
X33800000Y-94725000D02*
X33600000Y-94925000D01*
X30100000Y-94950000D02*
X31100000Y-93950000D01*
X30100000Y-95925000D02*
X30100000Y-94950000D01*
X27100000Y-94925000D02*
X29100000Y-96925000D01*
X31100000Y-93950000D02*
X31100000Y-92950000D01*
X31100000Y-92950000D02*
X31625000Y-92425000D01*
X29100000Y-96925000D02*
X30100000Y-95925000D01*
X31625000Y-92425000D02*
X33800000Y-92425000D01*
%TO.N,/MOSI*%
X34600000Y-88425000D02*
X34600000Y-86909620D01*
X42100000Y-74950000D02*
X41850000Y-74700000D01*
X41850000Y-74700000D02*
X41850000Y-72450000D01*
X34600000Y-86909620D02*
X34643971Y-86865649D01*
%TO.N,/SCK*%
X37100000Y-82200000D02*
X36450000Y-82200000D01*
X35400000Y-88425000D02*
X35400000Y-87211231D01*
X35400000Y-87211231D02*
X35761231Y-86850000D01*
X35664491Y-82985509D02*
X35664491Y-83610507D01*
X36450000Y-82200000D02*
X35664491Y-82985509D01*
%TO.N,/Bias_CS*%
X36600000Y-89625000D02*
X36600000Y-87950000D01*
X35100000Y-80950000D02*
X37100000Y-80950000D01*
%TD*%
%TA.AperFunction,Conductor*%
%TO.N,/GND*%
G36*
X48417539Y-83220184D02*
G01*
X48463294Y-83272988D01*
X48474500Y-83324499D01*
X48474500Y-87102046D01*
X48454815Y-87169085D01*
X48438181Y-87189727D01*
X47439726Y-88188181D01*
X47378403Y-88221666D01*
X47352045Y-88224500D01*
X46674998Y-88224500D01*
X46674980Y-88224501D01*
X46572203Y-88235000D01*
X46572200Y-88235001D01*
X46405668Y-88290185D01*
X46405663Y-88290187D01*
X46256342Y-88382289D01*
X46132289Y-88506342D01*
X46040187Y-88655663D01*
X46040185Y-88655668D01*
X46040115Y-88655880D01*
X45985001Y-88822203D01*
X45985001Y-88822204D01*
X45985000Y-88822204D01*
X45974500Y-88924983D01*
X45974500Y-89975001D01*
X45974501Y-89975019D01*
X45985000Y-90077796D01*
X45985001Y-90077799D01*
X46040185Y-90244331D01*
X46040189Y-90244340D01*
X46109500Y-90356711D01*
X46127940Y-90424103D01*
X46107017Y-90490767D01*
X46099037Y-90500486D01*
X46099272Y-90500672D01*
X46094793Y-90506336D01*
X46002687Y-90655663D01*
X45999636Y-90662209D01*
X45996763Y-90660869D01*
X45965022Y-90706686D01*
X45900498Y-90733490D01*
X45831726Y-90721155D01*
X45814232Y-90710532D01*
X45752734Y-90665851D01*
X45752729Y-90665848D01*
X45579807Y-90588857D01*
X45579802Y-90588855D01*
X45432109Y-90557463D01*
X45394646Y-90549500D01*
X45205354Y-90549500D01*
X45172897Y-90556398D01*
X45020197Y-90588855D01*
X45020192Y-90588857D01*
X44841334Y-90668492D01*
X44840618Y-90666885D01*
X44781088Y-90681322D01*
X44715063Y-90658463D01*
X44671878Y-90603538D01*
X44663000Y-90557463D01*
X44663000Y-89499546D01*
X44682685Y-89432507D01*
X44710096Y-89402274D01*
X44715532Y-89397975D01*
X44715544Y-89397968D01*
X44835468Y-89278044D01*
X44924503Y-89133697D01*
X44977849Y-88972708D01*
X44988000Y-88873345D01*
X44987999Y-88026656D01*
X44987298Y-88019797D01*
X44977849Y-87927292D01*
X44977848Y-87927289D01*
X44924503Y-87766303D01*
X44924499Y-87766297D01*
X44924498Y-87766294D01*
X44835470Y-87621959D01*
X44835467Y-87621955D01*
X44715544Y-87502032D01*
X44715540Y-87502029D01*
X44571205Y-87413001D01*
X44571199Y-87412998D01*
X44571197Y-87412997D01*
X44562874Y-87410239D01*
X44410209Y-87359651D01*
X44310852Y-87349500D01*
X43775597Y-87349500D01*
X43708558Y-87329815D01*
X43662803Y-87277011D01*
X43652859Y-87207853D01*
X43681884Y-87144297D01*
X43702712Y-87125182D01*
X43705871Y-87122888D01*
X43832533Y-86982216D01*
X43927179Y-86818284D01*
X43985674Y-86638256D01*
X44005460Y-86450000D01*
X43985674Y-86261744D01*
X43985671Y-86261737D01*
X43984322Y-86255383D01*
X43985800Y-86255068D01*
X43984030Y-86192968D01*
X44020114Y-86133138D01*
X44082817Y-86102314D01*
X44103954Y-86100499D01*
X44897871Y-86100499D01*
X44897872Y-86100499D01*
X44957483Y-86094091D01*
X44957487Y-86094089D01*
X44961743Y-86093632D01*
X44988253Y-86093632D01*
X44992514Y-86094090D01*
X44992517Y-86094091D01*
X45052127Y-86100500D01*
X46147872Y-86100499D01*
X46207483Y-86094091D01*
X46207487Y-86094089D01*
X46211743Y-86093632D01*
X46238253Y-86093632D01*
X46242514Y-86094090D01*
X46242517Y-86094091D01*
X46302127Y-86100500D01*
X47397872Y-86100499D01*
X47457483Y-86094091D01*
X47592331Y-86043796D01*
X47707546Y-85957546D01*
X47793796Y-85842331D01*
X47844091Y-85707483D01*
X47850500Y-85647873D01*
X47850499Y-83324498D01*
X47870184Y-83257460D01*
X47922987Y-83211705D01*
X47974494Y-83200499D01*
X48350500Y-83200499D01*
X48417539Y-83220184D01*
G37*
%TD.AperFunction*%
%TA.AperFunction,Conductor*%
G36*
X54042539Y-61470185D02*
G01*
X54088294Y-61522989D01*
X54099500Y-61574500D01*
X54099500Y-111325500D01*
X54079815Y-111392539D01*
X54027011Y-111438294D01*
X53975500Y-111449500D01*
X24224500Y-111449500D01*
X24157461Y-111429815D01*
X24111706Y-111377011D01*
X24100500Y-111325500D01*
X24100500Y-108017763D01*
X25745787Y-108017763D01*
X25775413Y-108287013D01*
X25775415Y-108287024D01*
X25842966Y-108545410D01*
X25843928Y-108549088D01*
X25949870Y-108798390D01*
X26021998Y-108916575D01*
X26090979Y-109029605D01*
X26090986Y-109029615D01*
X26264253Y-109237819D01*
X26264259Y-109237824D01*
X26271322Y-109244152D01*
X26465998Y-109418582D01*
X26691910Y-109568044D01*
X26937176Y-109683020D01*
X26937183Y-109683022D01*
X26937185Y-109683023D01*
X27196557Y-109761057D01*
X27196564Y-109761058D01*
X27196569Y-109761060D01*
X27464561Y-109800500D01*
X27464566Y-109800500D01*
X27667636Y-109800500D01*
X27719133Y-109796730D01*
X27870156Y-109785677D01*
X27982758Y-109760593D01*
X28134546Y-109726782D01*
X28134548Y-109726781D01*
X28134553Y-109726780D01*
X28387558Y-109630014D01*
X28623777Y-109497441D01*
X28838177Y-109331888D01*
X29026186Y-109136881D01*
X29183799Y-108916579D01*
X29258754Y-108770791D01*
X29307649Y-108675690D01*
X29307651Y-108675684D01*
X29307656Y-108675675D01*
X29395118Y-108419305D01*
X29444319Y-108152933D01*
X29454212Y-107882235D01*
X29424586Y-107612982D01*
X29356072Y-107350912D01*
X29250130Y-107101610D01*
X29109018Y-106870390D01*
X29019747Y-106763119D01*
X28935746Y-106662180D01*
X28935740Y-106662175D01*
X28734002Y-106481418D01*
X28508092Y-106331957D01*
X28508090Y-106331956D01*
X28262824Y-106216980D01*
X28262819Y-106216978D01*
X28262814Y-106216976D01*
X28003442Y-106138942D01*
X28003428Y-106138939D01*
X27887791Y-106121921D01*
X27735439Y-106099500D01*
X27532369Y-106099500D01*
X27532364Y-106099500D01*
X27329844Y-106114323D01*
X27329831Y-106114325D01*
X27065453Y-106173217D01*
X27065446Y-106173220D01*
X26812439Y-106269987D01*
X26576226Y-106402557D01*
X26361822Y-106568112D01*
X26173822Y-106763109D01*
X26173816Y-106763116D01*
X26016202Y-106983419D01*
X26016199Y-106983424D01*
X25892350Y-107224309D01*
X25892343Y-107224327D01*
X25804884Y-107480685D01*
X25804881Y-107480699D01*
X25755681Y-107747068D01*
X25755680Y-107747075D01*
X25745787Y-108017763D01*
X24100500Y-108017763D01*
X24100500Y-93330195D01*
X25544840Y-93330195D01*
X25549225Y-93376583D01*
X25549500Y-93382421D01*
X25549500Y-95917255D01*
X25547775Y-95932872D01*
X25548061Y-95932899D01*
X25547326Y-95940665D01*
X25549500Y-96009814D01*
X25549500Y-96039343D01*
X25549501Y-96039360D01*
X25550368Y-96046231D01*
X25550826Y-96052050D01*
X25552290Y-96098624D01*
X25552291Y-96098627D01*
X25557880Y-96117867D01*
X25561824Y-96136911D01*
X25564336Y-96156792D01*
X25569126Y-96168890D01*
X25581490Y-96200119D01*
X25583382Y-96205647D01*
X25596381Y-96250388D01*
X25606580Y-96267634D01*
X25615136Y-96285100D01*
X25622514Y-96303732D01*
X25641272Y-96329551D01*
X25649898Y-96341423D01*
X25653106Y-96346307D01*
X25676827Y-96386416D01*
X25676833Y-96386424D01*
X25690990Y-96400580D01*
X25703628Y-96415376D01*
X25715405Y-96431586D01*
X25715406Y-96431587D01*
X25751309Y-96461288D01*
X25755620Y-96465210D01*
X25879265Y-96588855D01*
X25963181Y-96672771D01*
X25996666Y-96734094D01*
X25999500Y-96760452D01*
X25999500Y-97425001D01*
X25999501Y-97425019D01*
X26010000Y-97527796D01*
X26010001Y-97527799D01*
X26065185Y-97694331D01*
X26065189Y-97694340D01*
X26134500Y-97806711D01*
X26152940Y-97874103D01*
X26132017Y-97940767D01*
X26116644Y-97959487D01*
X26094791Y-97981340D01*
X26094789Y-97981342D01*
X26094788Y-97981344D01*
X26092648Y-97984814D01*
X26002687Y-98130663D01*
X26002685Y-98130668D01*
X26002615Y-98130880D01*
X25947501Y-98297203D01*
X25947501Y-98297204D01*
X25947500Y-98297204D01*
X25937000Y-98399983D01*
X25937000Y-99450001D01*
X25937001Y-99450019D01*
X25947500Y-99552796D01*
X25947501Y-99552799D01*
X26002685Y-99719331D01*
X26002687Y-99719336D01*
X26035472Y-99772489D01*
X26094788Y-99868656D01*
X26218844Y-99992712D01*
X26340597Y-100067809D01*
X26387321Y-100119755D01*
X26399500Y-100173347D01*
X26399500Y-101888271D01*
X26397775Y-101903888D01*
X26398061Y-101903915D01*
X26397326Y-101911681D01*
X26399500Y-101980830D01*
X26399500Y-102010359D01*
X26399501Y-102010376D01*
X26400368Y-102017247D01*
X26400826Y-102023066D01*
X26402290Y-102069640D01*
X26402291Y-102069643D01*
X26407880Y-102088883D01*
X26411824Y-102107927D01*
X26414336Y-102127807D01*
X26431490Y-102171135D01*
X26433382Y-102176663D01*
X26446381Y-102221404D01*
X26456580Y-102238650D01*
X26465138Y-102256119D01*
X26472514Y-102274748D01*
X26499898Y-102312439D01*
X26503106Y-102317323D01*
X26526827Y-102357432D01*
X26526833Y-102357440D01*
X26540990Y-102371596D01*
X26553628Y-102386392D01*
X26565405Y-102402602D01*
X26565406Y-102402603D01*
X26601309Y-102432304D01*
X26605620Y-102436226D01*
X30737505Y-106568112D01*
X32008481Y-107839088D01*
X32018306Y-107851351D01*
X32018527Y-107851169D01*
X32023494Y-107857174D01*
X32049335Y-107881440D01*
X32070134Y-107900972D01*
X32105529Y-107961212D01*
X32102737Y-108031026D01*
X32069235Y-108082593D01*
X31998444Y-108147761D01*
X31998433Y-108147772D01*
X31852076Y-108335812D01*
X31852069Y-108335823D01*
X31738654Y-108545396D01*
X31738648Y-108545410D01*
X31661274Y-108770791D01*
X31622050Y-109005849D01*
X31622050Y-109244150D01*
X31661274Y-109479208D01*
X31738648Y-109704589D01*
X31738654Y-109704603D01*
X31852069Y-109914176D01*
X31852076Y-109914187D01*
X31998433Y-110102227D01*
X31998436Y-110102230D01*
X31998440Y-110102235D01*
X32173766Y-110263633D01*
X32373266Y-110393973D01*
X32591498Y-110489699D01*
X32822510Y-110548199D01*
X33000528Y-110562950D01*
X33000530Y-110562950D01*
X33119470Y-110562950D01*
X33119472Y-110562950D01*
X33297490Y-110548199D01*
X33528502Y-110489699D01*
X33746734Y-110393973D01*
X33946234Y-110263633D01*
X34121560Y-110102235D01*
X34267929Y-109914179D01*
X34381349Y-109704597D01*
X34458726Y-109479206D01*
X34497950Y-109244152D01*
X34497950Y-109005848D01*
X34458726Y-108770794D01*
X34381349Y-108545403D01*
X34267929Y-108335821D01*
X34267928Y-108335819D01*
X34251227Y-108314362D01*
X34225585Y-108249368D01*
X34239152Y-108180828D01*
X34287620Y-108130503D01*
X34349081Y-108114200D01*
X34423984Y-108114200D01*
X34607845Y-108075120D01*
X34607848Y-108075118D01*
X34607850Y-108075118D01*
X34706881Y-108031026D01*
X34779563Y-107998666D01*
X34892542Y-107916581D01*
X34958345Y-107893103D01*
X35026399Y-107908928D01*
X35038310Y-107916583D01*
X35135875Y-107987468D01*
X35178541Y-108042798D01*
X35184520Y-108112411D01*
X35160844Y-108163948D01*
X35027071Y-108335819D01*
X35027069Y-108335823D01*
X34913654Y-108545396D01*
X34913648Y-108545410D01*
X34836274Y-108770791D01*
X34797050Y-109005849D01*
X34797050Y-109244150D01*
X34836274Y-109479208D01*
X34913648Y-109704589D01*
X34913654Y-109704603D01*
X35027069Y-109914176D01*
X35027076Y-109914187D01*
X35173433Y-110102227D01*
X35173436Y-110102230D01*
X35173440Y-110102235D01*
X35348766Y-110263633D01*
X35548266Y-110393973D01*
X35766498Y-110489699D01*
X35997510Y-110548199D01*
X36175528Y-110562950D01*
X36175530Y-110562950D01*
X36294470Y-110562950D01*
X36294472Y-110562950D01*
X36472490Y-110548199D01*
X36703502Y-110489699D01*
X36921734Y-110393973D01*
X37121234Y-110263633D01*
X37296560Y-110102235D01*
X37442929Y-109914179D01*
X37556349Y-109704597D01*
X37633726Y-109479206D01*
X37672950Y-109244152D01*
X37672950Y-109005848D01*
X37633726Y-108770794D01*
X37556349Y-108545403D01*
X37442929Y-108335821D01*
X37442928Y-108335819D01*
X37309463Y-108164343D01*
X37283821Y-108099349D01*
X37297388Y-108030809D01*
X37334425Y-107987868D01*
X37341567Y-107982678D01*
X37407370Y-107959195D01*
X37475425Y-107975015D01*
X37513920Y-108008943D01*
X37593832Y-108116283D01*
X37727386Y-108228349D01*
X37883185Y-108306594D01*
X38052829Y-108346800D01*
X38052831Y-108346800D01*
X38183429Y-108346800D01*
X38183436Y-108346800D01*
X38313164Y-108331637D01*
X38476993Y-108272008D01*
X38622654Y-108176205D01*
X38742296Y-108049393D01*
X38760557Y-108017763D01*
X48745787Y-108017763D01*
X48775413Y-108287013D01*
X48775415Y-108287024D01*
X48842966Y-108545410D01*
X48843928Y-108549088D01*
X48949870Y-108798390D01*
X49021998Y-108916575D01*
X49090979Y-109029605D01*
X49090986Y-109029615D01*
X49264253Y-109237819D01*
X49264259Y-109237824D01*
X49271322Y-109244152D01*
X49465998Y-109418582D01*
X49691910Y-109568044D01*
X49937176Y-109683020D01*
X49937183Y-109683022D01*
X49937185Y-109683023D01*
X50196557Y-109761057D01*
X50196564Y-109761058D01*
X50196569Y-109761060D01*
X50464561Y-109800500D01*
X50464566Y-109800500D01*
X50667636Y-109800500D01*
X50719133Y-109796730D01*
X50870156Y-109785677D01*
X50982758Y-109760593D01*
X51134546Y-109726782D01*
X51134548Y-109726781D01*
X51134553Y-109726780D01*
X51387558Y-109630014D01*
X51623777Y-109497441D01*
X51838177Y-109331888D01*
X52026186Y-109136881D01*
X52183799Y-108916579D01*
X52258754Y-108770791D01*
X52307649Y-108675690D01*
X52307651Y-108675684D01*
X52307656Y-108675675D01*
X52395118Y-108419305D01*
X52444319Y-108152933D01*
X52454212Y-107882235D01*
X52424586Y-107612982D01*
X52356072Y-107350912D01*
X52250130Y-107101610D01*
X52109018Y-106870390D01*
X52019747Y-106763119D01*
X51935746Y-106662180D01*
X51935740Y-106662175D01*
X51734002Y-106481418D01*
X51508092Y-106331957D01*
X51508090Y-106331956D01*
X51262824Y-106216980D01*
X51262819Y-106216978D01*
X51262814Y-106216976D01*
X51003442Y-106138942D01*
X51003428Y-106138939D01*
X50887791Y-106121921D01*
X50735439Y-106099500D01*
X50532369Y-106099500D01*
X50532364Y-106099500D01*
X50329844Y-106114323D01*
X50329831Y-106114325D01*
X50065453Y-106173217D01*
X50065446Y-106173220D01*
X49812439Y-106269987D01*
X49576226Y-106402557D01*
X49361822Y-106568112D01*
X49173822Y-106763109D01*
X49173816Y-106763116D01*
X49016202Y-106983419D01*
X49016199Y-106983424D01*
X48892350Y-107224309D01*
X48892343Y-107224327D01*
X48804884Y-107480685D01*
X48804881Y-107480699D01*
X48755681Y-107747068D01*
X48755680Y-107747075D01*
X48745787Y-108017763D01*
X38760557Y-108017763D01*
X38829467Y-107898407D01*
X38879469Y-107731388D01*
X38889607Y-107557340D01*
X38859332Y-107385646D01*
X38790279Y-107225562D01*
X38789358Y-107224325D01*
X38742385Y-107161230D01*
X38718141Y-107095702D01*
X38733173Y-107027468D01*
X38754163Y-106999505D01*
X39493922Y-106259746D01*
X39499999Y-106254418D01*
X39528282Y-106232717D01*
X39624536Y-106107276D01*
X39685044Y-105961197D01*
X39700500Y-105843796D01*
X39705682Y-105804435D01*
X39701030Y-105769104D01*
X39700500Y-105761006D01*
X39700500Y-105176452D01*
X39720185Y-105109413D01*
X39732350Y-105093480D01*
X39736220Y-105089182D01*
X39832533Y-104982216D01*
X39927179Y-104818284D01*
X39985674Y-104638256D01*
X40005460Y-104450000D01*
X39985674Y-104261744D01*
X39927179Y-104081716D01*
X39832533Y-103917784D01*
X39756165Y-103832969D01*
X39725937Y-103769981D01*
X39734562Y-103700646D01*
X39756162Y-103667033D01*
X39832533Y-103582216D01*
X39927179Y-103418284D01*
X39985674Y-103238256D01*
X40005460Y-103050000D01*
X39985674Y-102861744D01*
X39927179Y-102681716D01*
X39858060Y-102561999D01*
X39841588Y-102494100D01*
X39858061Y-102438000D01*
X39878498Y-102402602D01*
X39927179Y-102318284D01*
X39985674Y-102138256D01*
X40005460Y-101950000D01*
X39985674Y-101761744D01*
X39927179Y-101581716D01*
X39832533Y-101417784D01*
X39705871Y-101277112D01*
X39705870Y-101277111D01*
X39552734Y-101165851D01*
X39552729Y-101165848D01*
X39379807Y-101088857D01*
X39379802Y-101088855D01*
X39234000Y-101057865D01*
X39194646Y-101049500D01*
X39005354Y-101049500D01*
X38972897Y-101056398D01*
X38820197Y-101088855D01*
X38820192Y-101088857D01*
X38647270Y-101165848D01*
X38647265Y-101165851D01*
X38494130Y-101277110D01*
X38494126Y-101277114D01*
X38488400Y-101283474D01*
X38428913Y-101320121D01*
X38396252Y-101324500D01*
X36182738Y-101324500D01*
X36167121Y-101322776D01*
X36167094Y-101323062D01*
X36159332Y-101322327D01*
X36090204Y-101324500D01*
X36060650Y-101324500D01*
X36059929Y-101324590D01*
X36053757Y-101325369D01*
X36047945Y-101325826D01*
X36001373Y-101327290D01*
X36001372Y-101327290D01*
X35982129Y-101332881D01*
X35963079Y-101336825D01*
X35943211Y-101339334D01*
X35943209Y-101339335D01*
X35899884Y-101356488D01*
X35894357Y-101358380D01*
X35849610Y-101371381D01*
X35849609Y-101371382D01*
X35832367Y-101381579D01*
X35814899Y-101390137D01*
X35796269Y-101397513D01*
X35796267Y-101397514D01*
X35758576Y-101424898D01*
X35753694Y-101428105D01*
X35713579Y-101451830D01*
X35699408Y-101466000D01*
X35684623Y-101478628D01*
X35668412Y-101490407D01*
X35638709Y-101526310D01*
X35634777Y-101530631D01*
X34288758Y-102876649D01*
X34276501Y-102886470D01*
X34276684Y-102886691D01*
X34270673Y-102891663D01*
X34223322Y-102942086D01*
X34202439Y-102962969D01*
X34199865Y-102965889D01*
X34199681Y-102965726D01*
X34199675Y-102965733D01*
X34199578Y-102965636D01*
X34198654Y-102964821D01*
X34147321Y-103001860D01*
X34077553Y-103005618D01*
X34022055Y-102976165D01*
X33946234Y-102906367D01*
X33946231Y-102906365D01*
X33946230Y-102906364D01*
X33788492Y-102803309D01*
X33746734Y-102776027D01*
X33746731Y-102776025D01*
X33746730Y-102776025D01*
X33528502Y-102680301D01*
X33297486Y-102621800D01*
X33154832Y-102609980D01*
X33119472Y-102607050D01*
X33000528Y-102607050D01*
X32968362Y-102609715D01*
X32822513Y-102621800D01*
X32591497Y-102680301D01*
X32373269Y-102776025D01*
X32173769Y-102906364D01*
X31998443Y-103067762D01*
X31998433Y-103067772D01*
X31852076Y-103255812D01*
X31852069Y-103255823D01*
X31738654Y-103465396D01*
X31738648Y-103465410D01*
X31661274Y-103690790D01*
X31638588Y-103826737D01*
X31608137Y-103889622D01*
X31548522Y-103926061D01*
X31478670Y-103924485D01*
X31428598Y-103894007D01*
X31266149Y-103731558D01*
X31232664Y-103670235D01*
X31237648Y-103600543D01*
X31261681Y-103560904D01*
X31332533Y-103482216D01*
X31427179Y-103318284D01*
X31485674Y-103138256D01*
X31505460Y-102950000D01*
X31485674Y-102761744D01*
X31427179Y-102581716D01*
X31332533Y-102417784D01*
X31205871Y-102277112D01*
X31205870Y-102277111D01*
X31052734Y-102165851D01*
X31052729Y-102165848D01*
X30879807Y-102088857D01*
X30879802Y-102088855D01*
X30734000Y-102057865D01*
X30694646Y-102049500D01*
X30505354Y-102049500D01*
X30472897Y-102056398D01*
X30320197Y-102088855D01*
X30320192Y-102088857D01*
X30147270Y-102165848D01*
X30147265Y-102165851D01*
X29994129Y-102277111D01*
X29867466Y-102417785D01*
X29772821Y-102581715D01*
X29772818Y-102581722D01*
X29722100Y-102737818D01*
X29714326Y-102761744D01*
X29694540Y-102950000D01*
X29714326Y-103138256D01*
X29714327Y-103138259D01*
X29772818Y-103318277D01*
X29772821Y-103318284D01*
X29867467Y-103482216D01*
X29910772Y-103530310D01*
X29942650Y-103565715D01*
X29972880Y-103628706D01*
X29974500Y-103648687D01*
X29974500Y-103736563D01*
X29954815Y-103803602D01*
X29902011Y-103849357D01*
X29832853Y-103859301D01*
X29769297Y-103830276D01*
X29762819Y-103824244D01*
X27686819Y-101748243D01*
X27653334Y-101686920D01*
X27650500Y-101660562D01*
X27650500Y-100200000D01*
X39937501Y-100200000D01*
X39937501Y-100474986D01*
X39947994Y-100577697D01*
X40003141Y-100744119D01*
X40003143Y-100744124D01*
X40095184Y-100893345D01*
X40219154Y-101017315D01*
X40368375Y-101109356D01*
X40368380Y-101109358D01*
X40534802Y-101164505D01*
X40534809Y-101164506D01*
X40637519Y-101174999D01*
X40774999Y-101174999D01*
X40775000Y-101174998D01*
X40775000Y-100200000D01*
X39937501Y-100200000D01*
X27650500Y-100200000D01*
X27650500Y-100173347D01*
X27670185Y-100106308D01*
X27709401Y-100067810D01*
X27831156Y-99992712D01*
X27955212Y-99868656D01*
X27957252Y-99865347D01*
X27959245Y-99863555D01*
X27959693Y-99862989D01*
X27959789Y-99863065D01*
X28009194Y-99818623D01*
X28078156Y-99807395D01*
X28142240Y-99835234D01*
X28168329Y-99865339D01*
X28170181Y-99868341D01*
X28170183Y-99868344D01*
X28294154Y-99992315D01*
X28443375Y-100084356D01*
X28443380Y-100084358D01*
X28609802Y-100139505D01*
X28609809Y-100139506D01*
X28712519Y-100149999D01*
X28849999Y-100149999D01*
X28850000Y-100149998D01*
X28850000Y-99175000D01*
X29350000Y-99175000D01*
X29350000Y-100149999D01*
X29487472Y-100149999D01*
X29487486Y-100149998D01*
X29590197Y-100139505D01*
X29756619Y-100084358D01*
X29756624Y-100084356D01*
X29905845Y-99992315D01*
X30029815Y-99868345D01*
X30121856Y-99719124D01*
X30121858Y-99719119D01*
X30177005Y-99552697D01*
X30177006Y-99552690D01*
X30187499Y-99449986D01*
X30187500Y-99449973D01*
X30187500Y-99175000D01*
X32337501Y-99175000D01*
X32337501Y-99449986D01*
X32347994Y-99552697D01*
X32403141Y-99719119D01*
X32403143Y-99719124D01*
X32495184Y-99868345D01*
X32619154Y-99992315D01*
X32768375Y-100084356D01*
X32768380Y-100084358D01*
X32934802Y-100139505D01*
X32934809Y-100139506D01*
X33037519Y-100149999D01*
X33174999Y-100149999D01*
X33174999Y-100149998D01*
X33175000Y-99175000D01*
X32337501Y-99175000D01*
X30187500Y-99175000D01*
X29350000Y-99175000D01*
X28850000Y-99175000D01*
X28850000Y-98799000D01*
X28869685Y-98731961D01*
X28922489Y-98686206D01*
X28974000Y-98675000D01*
X30187499Y-98675000D01*
X30187499Y-98400028D01*
X30187498Y-98400013D01*
X30177005Y-98297302D01*
X30121858Y-98130880D01*
X30121856Y-98130875D01*
X30033231Y-97987192D01*
X30014791Y-97919800D01*
X30035713Y-97853136D01*
X30041502Y-97845186D01*
X30042706Y-97843661D01*
X30042712Y-97843656D01*
X30134814Y-97694334D01*
X30189999Y-97527797D01*
X30200500Y-97425009D01*
X30200499Y-96760450D01*
X30220183Y-96693412D01*
X30236813Y-96672775D01*
X30483786Y-96425802D01*
X30496048Y-96415980D01*
X30495865Y-96415759D01*
X30501867Y-96410792D01*
X30501877Y-96410786D01*
X30549241Y-96360348D01*
X30570120Y-96339470D01*
X30574373Y-96333986D01*
X30578150Y-96329563D01*
X30610062Y-96295582D01*
X30619714Y-96278023D01*
X30630389Y-96261772D01*
X30642674Y-96245936D01*
X30661186Y-96203152D01*
X30663742Y-96197935D01*
X30686197Y-96157092D01*
X30691180Y-96137680D01*
X30697477Y-96119291D01*
X30705438Y-96100895D01*
X30712729Y-96054853D01*
X30713908Y-96049162D01*
X30725500Y-96004019D01*
X30725500Y-95983982D01*
X30727027Y-95964582D01*
X30730160Y-95944804D01*
X30725775Y-95898415D01*
X30725500Y-95892577D01*
X30725500Y-95260451D01*
X30745185Y-95193412D01*
X30761815Y-95172774D01*
X31483786Y-94450802D01*
X31496048Y-94440980D01*
X31495865Y-94440759D01*
X31501867Y-94435792D01*
X31501877Y-94435786D01*
X31549241Y-94385348D01*
X31570120Y-94364470D01*
X31574373Y-94358986D01*
X31578150Y-94354563D01*
X31610062Y-94320582D01*
X31619714Y-94303023D01*
X31630389Y-94286772D01*
X31642674Y-94270936D01*
X31661186Y-94228152D01*
X31663742Y-94222935D01*
X31686197Y-94182092D01*
X31691180Y-94162680D01*
X31697477Y-94144291D01*
X31705438Y-94125895D01*
X31712729Y-94079853D01*
X31713906Y-94074166D01*
X31725500Y-94029019D01*
X31725499Y-94008986D01*
X31727027Y-93989583D01*
X31730159Y-93969808D01*
X31730160Y-93969806D01*
X31725775Y-93923415D01*
X31725500Y-93917577D01*
X31725500Y-93260453D01*
X31745185Y-93193414D01*
X31761819Y-93172771D01*
X31847773Y-93086818D01*
X31909097Y-93053334D01*
X31935454Y-93050500D01*
X33000501Y-93050500D01*
X33067540Y-93070185D01*
X33113295Y-93122989D01*
X33124501Y-93174500D01*
X33124501Y-93222876D01*
X33130908Y-93282483D01*
X33166682Y-93378395D01*
X33174500Y-93421728D01*
X33174500Y-93529911D01*
X33154815Y-93596950D01*
X33102011Y-93642705D01*
X33063102Y-93653269D01*
X32997202Y-93660001D01*
X32997200Y-93660001D01*
X32830668Y-93715185D01*
X32830663Y-93715187D01*
X32681342Y-93807289D01*
X32557289Y-93931342D01*
X32465187Y-94080663D01*
X32465185Y-94080668D01*
X32444108Y-94144274D01*
X32410001Y-94247203D01*
X32410001Y-94247204D01*
X32410000Y-94247204D01*
X32399500Y-94349983D01*
X32399500Y-95350001D01*
X32399501Y-95350019D01*
X32410000Y-95452796D01*
X32410001Y-95452799D01*
X32465185Y-95619331D01*
X32465187Y-95619336D01*
X32557289Y-95768657D01*
X32560795Y-95773091D01*
X32586934Y-95837887D01*
X32573892Y-95906529D01*
X32560795Y-95926909D01*
X32557289Y-95931342D01*
X32465187Y-96080663D01*
X32465185Y-96080668D01*
X32449755Y-96127233D01*
X32410001Y-96247203D01*
X32410001Y-96247204D01*
X32410000Y-96247204D01*
X32399500Y-96349983D01*
X32399500Y-97350001D01*
X32399501Y-97350019D01*
X32410000Y-97452796D01*
X32410001Y-97452799D01*
X32465185Y-97619331D01*
X32465187Y-97619336D01*
X32561080Y-97774803D01*
X32559316Y-97775890D01*
X32581612Y-97831149D01*
X32568575Y-97899791D01*
X32545888Y-97930950D01*
X32495184Y-97981654D01*
X32403143Y-98130875D01*
X32403141Y-98130880D01*
X32347994Y-98297302D01*
X32347993Y-98297309D01*
X32337500Y-98400013D01*
X32337500Y-98675000D01*
X33551000Y-98675000D01*
X33618039Y-98694685D01*
X33663794Y-98747489D01*
X33675000Y-98799000D01*
X33675000Y-100149999D01*
X33812472Y-100149999D01*
X33812486Y-100149998D01*
X33915197Y-100139505D01*
X34081619Y-100084358D01*
X34081624Y-100084356D01*
X34230845Y-99992315D01*
X34354818Y-99868342D01*
X34356665Y-99865348D01*
X34358469Y-99863724D01*
X34359298Y-99862677D01*
X34359476Y-99862818D01*
X34408610Y-99818621D01*
X34477573Y-99807396D01*
X34541656Y-99835236D01*
X34567742Y-99865339D01*
X34569788Y-99868656D01*
X34693844Y-99992712D01*
X34843166Y-100084814D01*
X35009703Y-100139999D01*
X35112491Y-100150500D01*
X35887508Y-100150499D01*
X35887516Y-100150498D01*
X35887519Y-100150498D01*
X35943802Y-100144748D01*
X35990297Y-100139999D01*
X36156834Y-100084814D01*
X36306156Y-99992712D01*
X36430212Y-99868656D01*
X36522314Y-99719334D01*
X36577499Y-99552797D01*
X36588000Y-99450009D01*
X36587999Y-98399992D01*
X36577499Y-98297203D01*
X36522314Y-98130666D01*
X36430212Y-97981344D01*
X36430208Y-97981340D01*
X36430207Y-97981338D01*
X36417799Y-97968930D01*
X36384314Y-97907607D01*
X36389298Y-97837915D01*
X36417800Y-97793567D01*
X36442712Y-97768656D01*
X36534814Y-97619334D01*
X36589999Y-97452797D01*
X36600500Y-97350009D01*
X36600499Y-96349992D01*
X36596353Y-96309409D01*
X36589999Y-96247203D01*
X36589998Y-96247200D01*
X36575408Y-96203170D01*
X36534814Y-96080666D01*
X36442712Y-95931344D01*
X36442710Y-95931342D01*
X36438884Y-95926503D01*
X36412745Y-95861707D01*
X36425787Y-95793065D01*
X36438886Y-95772683D01*
X36442314Y-95768346D01*
X36534356Y-95619124D01*
X36534358Y-95619119D01*
X36589505Y-95452697D01*
X36589506Y-95452690D01*
X36599999Y-95349986D01*
X36600000Y-95349973D01*
X36600000Y-95100000D01*
X35374000Y-95100000D01*
X35306961Y-95080315D01*
X35261206Y-95027511D01*
X35250000Y-94976000D01*
X35250000Y-93705174D01*
X35228334Y-93665496D01*
X35225500Y-93639138D01*
X35225500Y-93421728D01*
X35233318Y-93378394D01*
X35269091Y-93282483D01*
X35275500Y-93222873D01*
X35275499Y-92600000D01*
X35575000Y-92600000D01*
X35575000Y-93610000D01*
X35626000Y-93610000D01*
X35693039Y-93629685D01*
X35738794Y-93682489D01*
X35750000Y-93734000D01*
X35750000Y-94600000D01*
X36599999Y-94600000D01*
X36599999Y-94350028D01*
X36599998Y-94350013D01*
X36589505Y-94247302D01*
X36534358Y-94080880D01*
X36534356Y-94080875D01*
X36442315Y-93931654D01*
X36318345Y-93807684D01*
X36169124Y-93715643D01*
X36169119Y-93715641D01*
X36032702Y-93670437D01*
X35975257Y-93630664D01*
X35948434Y-93566148D01*
X35960749Y-93497373D01*
X35972440Y-93478419D01*
X36018352Y-93417089D01*
X36018354Y-93417086D01*
X36068596Y-93282379D01*
X36068598Y-93282372D01*
X36074999Y-93222844D01*
X36075000Y-93222827D01*
X36075000Y-92600000D01*
X35575000Y-92600000D01*
X35275499Y-92600000D01*
X35275499Y-92373998D01*
X35295183Y-92306961D01*
X35347987Y-92261206D01*
X35399499Y-92250000D01*
X36075000Y-92250000D01*
X36075000Y-92024499D01*
X36094685Y-91957460D01*
X36147489Y-91911705D01*
X36198998Y-91900499D01*
X36339547Y-91900499D01*
X36406586Y-91920184D01*
X36427227Y-91936817D01*
X36864409Y-92374000D01*
X37274197Y-92783788D01*
X37284022Y-92796051D01*
X37284243Y-92795869D01*
X37289214Y-92801878D01*
X37315217Y-92826295D01*
X37339635Y-92849226D01*
X37360529Y-92870120D01*
X37366011Y-92874373D01*
X37370443Y-92878157D01*
X37404418Y-92910062D01*
X37421976Y-92919714D01*
X37438233Y-92930393D01*
X37454064Y-92942673D01*
X37466691Y-92948137D01*
X37496833Y-92961182D01*
X37502077Y-92963750D01*
X37542908Y-92986197D01*
X37555523Y-92989435D01*
X37562305Y-92991177D01*
X37580719Y-92997481D01*
X37599104Y-93005438D01*
X37645157Y-93012732D01*
X37650826Y-93013906D01*
X37695981Y-93025500D01*
X37716016Y-93025500D01*
X37735413Y-93027026D01*
X37755196Y-93030160D01*
X37801583Y-93025775D01*
X37807422Y-93025500D01*
X39994344Y-93025500D01*
X40061383Y-93045185D01*
X40107138Y-93097989D01*
X40117082Y-93167147D01*
X40088057Y-93230703D01*
X40064106Y-93250003D01*
X40064769Y-93250888D01*
X39942455Y-93342452D01*
X39942452Y-93342455D01*
X39856206Y-93457664D01*
X39856202Y-93457671D01*
X39805908Y-93592517D01*
X39800513Y-93642705D01*
X39799501Y-93652123D01*
X39799500Y-93652135D01*
X39799500Y-95247870D01*
X39799501Y-95247876D01*
X39805908Y-95307483D01*
X39856202Y-95442328D01*
X39856206Y-95442335D01*
X39942452Y-95557544D01*
X39942455Y-95557547D01*
X40057664Y-95643793D01*
X40057671Y-95643797D01*
X40192517Y-95694091D01*
X40192516Y-95694091D01*
X40199444Y-95694835D01*
X40252127Y-95700500D01*
X43947872Y-95700499D01*
X44007483Y-95694091D01*
X44142331Y-95643796D01*
X44257546Y-95557546D01*
X44343796Y-95442331D01*
X44394091Y-95307483D01*
X44400500Y-95247873D01*
X44400499Y-93652128D01*
X44394091Y-93592517D01*
X44384256Y-93566148D01*
X44343797Y-93457670D01*
X44342913Y-93456052D01*
X44342520Y-93454247D01*
X44340697Y-93449359D01*
X44341399Y-93449096D01*
X44328056Y-93387780D01*
X44352469Y-93322314D01*
X44364053Y-93308944D01*
X44421288Y-93251709D01*
X44433542Y-93241894D01*
X44433359Y-93241672D01*
X44439366Y-93236700D01*
X44439377Y-93236694D01*
X44474304Y-93199500D01*
X44486727Y-93186272D01*
X44497171Y-93175826D01*
X44507620Y-93165379D01*
X44511879Y-93159886D01*
X44515652Y-93155469D01*
X44547562Y-93121490D01*
X44557215Y-93103928D01*
X44567889Y-93087678D01*
X44580173Y-93071844D01*
X44598680Y-93029075D01*
X44601249Y-93023832D01*
X44607355Y-93012725D01*
X44623697Y-92983000D01*
X44628677Y-92963599D01*
X44634978Y-92945196D01*
X44642938Y-92926804D01*
X44650230Y-92880757D01*
X44651411Y-92875060D01*
X44651590Y-92874364D01*
X44663000Y-92829927D01*
X44663000Y-92809890D01*
X44664527Y-92790490D01*
X44667660Y-92770712D01*
X44663275Y-92724323D01*
X44663000Y-92718485D01*
X44663000Y-92342536D01*
X44682685Y-92275497D01*
X44735489Y-92229742D01*
X44804647Y-92219798D01*
X44840952Y-92232365D01*
X44841334Y-92231508D01*
X44847269Y-92234150D01*
X44847270Y-92234151D01*
X44870141Y-92244334D01*
X45020192Y-92311142D01*
X45020197Y-92311144D01*
X45205354Y-92350500D01*
X45205355Y-92350500D01*
X45394644Y-92350500D01*
X45394646Y-92350500D01*
X45579803Y-92311144D01*
X45752730Y-92234151D01*
X45814233Y-92189465D01*
X45880037Y-92165987D01*
X45948091Y-92181812D01*
X45996786Y-92231917D01*
X45999344Y-92237926D01*
X45999636Y-92237791D01*
X46002685Y-92244333D01*
X46002686Y-92244334D01*
X46094788Y-92393656D01*
X46218844Y-92517712D01*
X46225780Y-92521990D01*
X46272505Y-92573936D01*
X46283728Y-92642899D01*
X46255885Y-92706981D01*
X46197817Y-92745838D01*
X46195288Y-92746603D01*
X46189606Y-92748254D01*
X46189603Y-92748255D01*
X46048137Y-92831917D01*
X46048129Y-92831923D01*
X45931923Y-92948129D01*
X45931917Y-92948137D01*
X45848255Y-93089603D01*
X45848254Y-93089606D01*
X45802402Y-93247426D01*
X45802401Y-93247432D01*
X45799500Y-93284304D01*
X45799500Y-93715696D01*
X45802401Y-93752567D01*
X45802402Y-93752573D01*
X45848254Y-93910393D01*
X45848256Y-93910399D01*
X45849426Y-93912377D01*
X45849869Y-93914126D01*
X45851353Y-93917554D01*
X45850799Y-93917793D01*
X45866603Y-93980102D01*
X45851249Y-94032395D01*
X45851817Y-94032641D01*
X45849827Y-94037239D01*
X45849428Y-94038599D01*
X45848722Y-94039791D01*
X45848716Y-94039806D01*
X45802900Y-94197505D01*
X45802899Y-94197511D01*
X45802704Y-94199998D01*
X45802705Y-94200000D01*
X46068185Y-94200000D01*
X46131306Y-94217268D01*
X46189602Y-94251744D01*
X46231224Y-94263836D01*
X46347426Y-94297597D01*
X46347429Y-94297597D01*
X46347431Y-94297598D01*
X46359722Y-94298565D01*
X46384304Y-94300500D01*
X46384306Y-94300500D01*
X47088500Y-94300500D01*
X47155539Y-94320185D01*
X47201294Y-94372989D01*
X47212500Y-94424500D01*
X47212500Y-94475500D01*
X47192815Y-94542539D01*
X47140011Y-94588294D01*
X47088500Y-94599500D01*
X46384304Y-94599500D01*
X46347432Y-94602401D01*
X46347426Y-94602402D01*
X46189606Y-94648254D01*
X46189603Y-94648255D01*
X46131306Y-94682732D01*
X46068185Y-94700000D01*
X45802705Y-94700000D01*
X45802704Y-94700001D01*
X45802899Y-94702488D01*
X45802900Y-94702494D01*
X45848716Y-94860193D01*
X45848720Y-94860203D01*
X45849427Y-94861398D01*
X45849695Y-94862454D01*
X45851816Y-94867356D01*
X45851024Y-94867698D01*
X45866603Y-94929123D01*
X45850993Y-94982284D01*
X45851355Y-94982441D01*
X45850087Y-94985369D01*
X45849427Y-94987620D01*
X45848259Y-94989594D01*
X45848254Y-94989607D01*
X45802402Y-95147426D01*
X45802401Y-95147432D01*
X45799500Y-95184304D01*
X45799500Y-95615696D01*
X45802401Y-95652567D01*
X45802402Y-95652573D01*
X45848254Y-95810393D01*
X45848255Y-95810396D01*
X45848256Y-95810398D01*
X45877350Y-95859594D01*
X45931917Y-95951862D01*
X45931923Y-95951870D01*
X46048129Y-96068076D01*
X46048133Y-96068079D01*
X46048135Y-96068081D01*
X46189602Y-96151744D01*
X46195275Y-96153392D01*
X46254160Y-96190993D01*
X46283371Y-96254463D01*
X46273629Y-96323651D01*
X46228029Y-96376588D01*
X46225788Y-96378004D01*
X46218846Y-96382286D01*
X46218843Y-96382288D01*
X46094789Y-96506342D01*
X46002687Y-96655663D01*
X46002685Y-96655668D01*
X45987290Y-96702127D01*
X45947501Y-96822203D01*
X45947501Y-96822204D01*
X45947500Y-96822204D01*
X45937000Y-96924983D01*
X45937000Y-97975001D01*
X45937001Y-97975019D01*
X45947500Y-98077796D01*
X45947501Y-98077799D01*
X46002685Y-98244331D01*
X46002689Y-98244340D01*
X46089389Y-98384904D01*
X46107829Y-98452296D01*
X46089389Y-98515096D01*
X46002689Y-98655659D01*
X46002685Y-98655668D01*
X46002615Y-98655880D01*
X45980855Y-98721549D01*
X45974905Y-98739504D01*
X45935132Y-98796949D01*
X45870616Y-98823772D01*
X45857199Y-98824500D01*
X44339954Y-98824500D01*
X44272915Y-98804815D01*
X44227160Y-98752011D01*
X44217216Y-98682853D01*
X44246241Y-98619297D01*
X44252273Y-98612819D01*
X44257542Y-98607548D01*
X44257546Y-98607546D01*
X44343796Y-98492331D01*
X44394091Y-98357483D01*
X44400500Y-98297873D01*
X44400499Y-96702128D01*
X44394091Y-96642517D01*
X44374076Y-96588855D01*
X44343797Y-96507671D01*
X44343793Y-96507664D01*
X44257547Y-96392455D01*
X44257544Y-96392452D01*
X44142335Y-96306206D01*
X44142328Y-96306202D01*
X44007482Y-96255908D01*
X44007483Y-96255908D01*
X43947883Y-96249501D01*
X43947881Y-96249500D01*
X43947873Y-96249500D01*
X43947864Y-96249500D01*
X40252129Y-96249500D01*
X40252123Y-96249501D01*
X40192516Y-96255908D01*
X40057671Y-96306202D01*
X40057664Y-96306206D01*
X39942455Y-96392452D01*
X39942452Y-96392455D01*
X39856206Y-96507664D01*
X39856202Y-96507671D01*
X39803198Y-96649785D01*
X39800812Y-96648895D01*
X39772371Y-96698835D01*
X39710459Y-96731218D01*
X39640868Y-96724988D01*
X39613387Y-96709918D01*
X39552734Y-96665851D01*
X39552729Y-96665848D01*
X39379807Y-96588857D01*
X39379802Y-96588855D01*
X39234000Y-96557865D01*
X39194646Y-96549500D01*
X39005354Y-96549500D01*
X38972962Y-96556385D01*
X38820197Y-96588855D01*
X38820192Y-96588857D01*
X38647270Y-96665848D01*
X38647265Y-96665851D01*
X38494129Y-96777111D01*
X38367466Y-96917785D01*
X38272821Y-97081715D01*
X38272818Y-97081722D01*
X38215880Y-97256961D01*
X38214326Y-97261744D01*
X38194540Y-97450000D01*
X38214326Y-97638256D01*
X38214327Y-97638259D01*
X38272818Y-97818277D01*
X38272821Y-97818284D01*
X38367467Y-97982216D01*
X38453439Y-98077697D01*
X38494129Y-98122888D01*
X38647265Y-98234148D01*
X38647270Y-98234151D01*
X38820192Y-98311142D01*
X38820197Y-98311144D01*
X39005354Y-98350500D01*
X39005355Y-98350500D01*
X39194644Y-98350500D01*
X39194646Y-98350500D01*
X39379803Y-98311144D01*
X39552730Y-98234151D01*
X39602616Y-98197906D01*
X39668422Y-98174427D01*
X39736476Y-98190252D01*
X39785171Y-98240358D01*
X39798603Y-98294602D01*
X39799099Y-98294576D01*
X39799146Y-98294571D01*
X39799146Y-98294573D01*
X39799324Y-98294564D01*
X39799501Y-98297876D01*
X39805908Y-98357483D01*
X39856202Y-98492328D01*
X39856206Y-98492335D01*
X39942452Y-98607544D01*
X39942455Y-98607547D01*
X40057664Y-98693793D01*
X40057671Y-98693797D01*
X40132078Y-98721549D01*
X40188012Y-98763420D01*
X40212429Y-98828884D01*
X40197578Y-98897157D01*
X40176427Y-98925412D01*
X40095182Y-99006657D01*
X40003143Y-99155875D01*
X40003141Y-99155880D01*
X39947994Y-99322302D01*
X39947993Y-99322309D01*
X39937500Y-99425013D01*
X39937500Y-99700000D01*
X41151000Y-99700000D01*
X41218039Y-99719685D01*
X41263794Y-99772489D01*
X41275000Y-99824000D01*
X41275000Y-101174999D01*
X41412472Y-101174999D01*
X41412486Y-101174998D01*
X41515197Y-101164505D01*
X41681619Y-101109358D01*
X41681624Y-101109356D01*
X41830845Y-101017315D01*
X41954818Y-100893342D01*
X41956665Y-100890348D01*
X41958469Y-100888724D01*
X41959298Y-100887677D01*
X41959476Y-100887818D01*
X42008610Y-100843621D01*
X42077573Y-100832396D01*
X42141656Y-100860236D01*
X42167743Y-100890341D01*
X42169788Y-100893656D01*
X42293844Y-101017712D01*
X42443166Y-101109814D01*
X42609703Y-101164999D01*
X42712491Y-101175500D01*
X43487508Y-101175499D01*
X43487516Y-101175498D01*
X43487519Y-101175498D01*
X43581956Y-101165851D01*
X43590297Y-101164999D01*
X43756834Y-101109814D01*
X43906156Y-101017712D01*
X44030212Y-100893656D01*
X44122314Y-100744334D01*
X44177499Y-100577797D01*
X44188000Y-100475009D01*
X44188000Y-100199500D01*
X44207685Y-100132461D01*
X44260489Y-100086706D01*
X44312000Y-100075500D01*
X45857199Y-100075500D01*
X45924238Y-100095185D01*
X45969993Y-100147989D01*
X45974903Y-100160492D01*
X46002686Y-100244334D01*
X46094788Y-100393656D01*
X46218844Y-100517712D01*
X46368166Y-100609814D01*
X46534703Y-100664999D01*
X46637491Y-100675500D01*
X47412508Y-100675499D01*
X47412516Y-100675498D01*
X47412519Y-100675498D01*
X47468802Y-100669748D01*
X47515297Y-100664999D01*
X47681834Y-100609814D01*
X47831156Y-100517712D01*
X47955212Y-100393656D01*
X47957252Y-100390347D01*
X47959245Y-100388555D01*
X47959693Y-100387989D01*
X47959789Y-100388065D01*
X48009194Y-100343623D01*
X48078156Y-100332395D01*
X48142240Y-100360234D01*
X48168329Y-100390339D01*
X48170181Y-100393341D01*
X48170183Y-100393344D01*
X48294154Y-100517315D01*
X48443375Y-100609356D01*
X48443380Y-100609358D01*
X48609802Y-100664505D01*
X48609809Y-100664506D01*
X48712519Y-100674999D01*
X48849999Y-100674999D01*
X48850000Y-100674998D01*
X48850000Y-99700000D01*
X49350000Y-99700000D01*
X49350000Y-100674999D01*
X49487472Y-100674999D01*
X49487486Y-100674998D01*
X49590197Y-100664505D01*
X49756619Y-100609358D01*
X49756624Y-100609356D01*
X49905845Y-100517315D01*
X50029815Y-100393345D01*
X50121856Y-100244124D01*
X50121858Y-100244119D01*
X50177005Y-100077697D01*
X50177006Y-100077690D01*
X50187499Y-99974986D01*
X50187500Y-99974973D01*
X50187500Y-99700000D01*
X49350000Y-99700000D01*
X48850000Y-99700000D01*
X48850000Y-97700000D01*
X49350000Y-97700000D01*
X49350000Y-99200000D01*
X50187499Y-99200000D01*
X50187499Y-98925028D01*
X50187498Y-98925013D01*
X50177005Y-98822302D01*
X50121858Y-98655880D01*
X50121853Y-98655869D01*
X50035023Y-98515097D01*
X50016582Y-98447705D01*
X50035023Y-98384903D01*
X50121853Y-98244130D01*
X50121858Y-98244119D01*
X50177005Y-98077697D01*
X50177006Y-98077690D01*
X50187499Y-97974986D01*
X50187500Y-97974973D01*
X50187500Y-97700000D01*
X49350000Y-97700000D01*
X48850000Y-97700000D01*
X48850000Y-97324000D01*
X48869685Y-97256961D01*
X48922489Y-97211206D01*
X48974000Y-97200000D01*
X50187499Y-97200000D01*
X50187499Y-96925028D01*
X50187498Y-96925013D01*
X50177005Y-96822302D01*
X50121858Y-96655880D01*
X50121856Y-96655875D01*
X50029815Y-96506654D01*
X49900737Y-96377576D01*
X49902441Y-96375871D01*
X49868694Y-96328221D01*
X49865549Y-96258422D01*
X49900639Y-96198004D01*
X49951383Y-96168890D01*
X49978853Y-96160908D01*
X50010398Y-96151744D01*
X50151865Y-96068081D01*
X50268081Y-95951865D01*
X50351744Y-95810398D01*
X50397598Y-95652569D01*
X50399049Y-95634131D01*
X50400500Y-95615696D01*
X50400500Y-95184304D01*
X50397598Y-95147432D01*
X50397597Y-95147426D01*
X50351745Y-94989606D01*
X50351744Y-94989603D01*
X50351744Y-94989602D01*
X50268081Y-94848135D01*
X50268079Y-94848133D01*
X50268076Y-94848129D01*
X50151870Y-94731923D01*
X50151862Y-94731917D01*
X50010396Y-94648255D01*
X50010393Y-94648254D01*
X49852573Y-94602402D01*
X49852567Y-94602401D01*
X49815696Y-94599500D01*
X49815694Y-94599500D01*
X48699500Y-94599500D01*
X48632461Y-94579815D01*
X48586706Y-94527011D01*
X48575500Y-94475500D01*
X48575500Y-94424500D01*
X48595185Y-94357461D01*
X48647989Y-94311706D01*
X48699500Y-94300500D01*
X49815696Y-94300500D01*
X49834131Y-94299049D01*
X49852569Y-94297598D01*
X49852571Y-94297597D01*
X49852573Y-94297597D01*
X49894191Y-94285505D01*
X50010398Y-94251744D01*
X50151865Y-94168081D01*
X50268081Y-94051865D01*
X50351744Y-93910398D01*
X50397598Y-93752569D01*
X50400500Y-93715694D01*
X50400500Y-93284306D01*
X50397598Y-93247431D01*
X50395989Y-93241894D01*
X50351745Y-93089606D01*
X50351744Y-93089603D01*
X50351744Y-93089602D01*
X50268081Y-92948135D01*
X50268079Y-92948133D01*
X50268076Y-92948129D01*
X50151870Y-92831923D01*
X50151862Y-92831917D01*
X50010396Y-92748255D01*
X50010394Y-92748254D01*
X49951382Y-92731109D01*
X49892496Y-92693502D01*
X49863291Y-92630029D01*
X49873038Y-92560842D01*
X49902057Y-92523744D01*
X49900737Y-92522424D01*
X50029815Y-92393345D01*
X50121856Y-92244124D01*
X50121858Y-92244119D01*
X50177005Y-92077697D01*
X50177006Y-92077690D01*
X50187499Y-91974986D01*
X50187500Y-91974973D01*
X50187500Y-91700000D01*
X48974000Y-91700000D01*
X48906961Y-91680315D01*
X48861206Y-91627511D01*
X48850000Y-91576000D01*
X48850000Y-91200000D01*
X49350000Y-91200000D01*
X50187499Y-91200000D01*
X50187499Y-90925028D01*
X50187498Y-90925013D01*
X50177005Y-90822302D01*
X50121858Y-90655880D01*
X50121856Y-90655875D01*
X50052366Y-90543214D01*
X50033926Y-90475821D01*
X50054849Y-90409158D01*
X50063050Y-90399173D01*
X50062839Y-90399007D01*
X50067315Y-90393346D01*
X50159356Y-90244124D01*
X50159358Y-90244119D01*
X50214505Y-90077697D01*
X50214506Y-90077690D01*
X50224999Y-89974986D01*
X50225000Y-89974973D01*
X50225000Y-89700000D01*
X49387500Y-89700000D01*
X49387500Y-90626138D01*
X49367815Y-90693177D01*
X49351181Y-90713819D01*
X49350000Y-90715000D01*
X49350000Y-91200000D01*
X48850000Y-91200000D01*
X48850000Y-90273861D01*
X48869685Y-90206822D01*
X48886320Y-90186179D01*
X48887500Y-90184999D01*
X48887500Y-89324000D01*
X48907185Y-89256961D01*
X48959989Y-89211206D01*
X49011500Y-89200000D01*
X50224999Y-89200000D01*
X50224999Y-88925028D01*
X50224998Y-88925013D01*
X50214505Y-88822302D01*
X50159358Y-88655880D01*
X50159356Y-88655875D01*
X50067315Y-88506654D01*
X49943345Y-88382684D01*
X49794124Y-88290643D01*
X49794119Y-88290641D01*
X49627697Y-88235494D01*
X49627690Y-88235493D01*
X49524986Y-88225000D01*
X49471452Y-88225000D01*
X49404413Y-88205315D01*
X49358658Y-88152511D01*
X49348714Y-88083353D01*
X49377739Y-88019797D01*
X49383756Y-88013333D01*
X49483792Y-87913297D01*
X49496042Y-87903485D01*
X49495859Y-87903264D01*
X49501866Y-87898292D01*
X49501877Y-87898286D01*
X49532775Y-87865382D01*
X49549227Y-87847864D01*
X49559671Y-87837418D01*
X49570120Y-87826971D01*
X49574379Y-87821478D01*
X49578152Y-87817061D01*
X49610062Y-87783082D01*
X49619713Y-87765524D01*
X49630396Y-87749261D01*
X49642673Y-87733436D01*
X49661185Y-87690653D01*
X49663738Y-87685441D01*
X49686197Y-87644592D01*
X49691180Y-87625180D01*
X49697481Y-87606780D01*
X49705437Y-87588396D01*
X49712729Y-87542352D01*
X49713906Y-87536671D01*
X49725500Y-87491519D01*
X49725500Y-87471482D01*
X49727027Y-87452082D01*
X49730160Y-87432304D01*
X49725775Y-87385915D01*
X49725500Y-87380077D01*
X49725500Y-83324499D01*
X49745185Y-83257460D01*
X49797989Y-83211705D01*
X49849500Y-83200499D01*
X50297871Y-83200499D01*
X50297872Y-83200499D01*
X50357483Y-83194091D01*
X50492331Y-83143796D01*
X50607546Y-83057546D01*
X50693796Y-82942331D01*
X50744091Y-82807483D01*
X50750500Y-82747873D01*
X50750499Y-81652128D01*
X50744091Y-81592517D01*
X50744090Y-81592516D01*
X50743380Y-81585904D01*
X50743381Y-81559393D01*
X50749999Y-81497842D01*
X50750000Y-81497827D01*
X50750000Y-81200000D01*
X50305845Y-81200000D01*
X50299213Y-81199644D01*
X50297873Y-81199500D01*
X50297871Y-81199500D01*
X47902129Y-81199500D01*
X47902117Y-81199501D01*
X47900793Y-81199644D01*
X47894159Y-81200000D01*
X47640025Y-81200000D01*
X47572986Y-81180315D01*
X47567139Y-81176318D01*
X47552729Y-81165848D01*
X47379807Y-81088857D01*
X47379802Y-81088855D01*
X47234000Y-81057865D01*
X47194646Y-81049500D01*
X47005354Y-81049500D01*
X46972897Y-81056398D01*
X46820197Y-81088855D01*
X46820192Y-81088857D01*
X46647270Y-81165848D01*
X46647265Y-81165851D01*
X46494129Y-81277111D01*
X46367466Y-81417785D01*
X46272821Y-81581715D01*
X46272818Y-81581722D01*
X46214327Y-81761740D01*
X46214326Y-81761744D01*
X46194540Y-81950000D01*
X46214326Y-82138256D01*
X46214327Y-82138259D01*
X46272818Y-82318277D01*
X46272821Y-82318284D01*
X46367467Y-82482216D01*
X46466793Y-82592528D01*
X46497023Y-82655519D01*
X46488398Y-82724854D01*
X46443657Y-82778520D01*
X46377004Y-82799478D01*
X46374645Y-82799500D01*
X46302130Y-82799500D01*
X46302120Y-82799501D01*
X46238248Y-82806367D01*
X46211742Y-82806367D01*
X46207483Y-82805909D01*
X46147873Y-82799500D01*
X46147865Y-82799500D01*
X45052129Y-82799500D01*
X45052120Y-82799501D01*
X44988248Y-82806367D01*
X44961742Y-82806367D01*
X44957483Y-82805909D01*
X44897873Y-82799500D01*
X44897865Y-82799500D01*
X43802129Y-82799500D01*
X43802120Y-82799501D01*
X43738248Y-82806367D01*
X43711742Y-82806367D01*
X43707483Y-82805909D01*
X43647873Y-82799500D01*
X43647865Y-82799500D01*
X42552129Y-82799500D01*
X42552120Y-82799501D01*
X42488248Y-82806367D01*
X42461742Y-82806367D01*
X42457483Y-82805909D01*
X42397873Y-82799500D01*
X42397865Y-82799500D01*
X41302129Y-82799500D01*
X41302120Y-82799501D01*
X41238248Y-82806367D01*
X41211742Y-82806367D01*
X41207483Y-82805909D01*
X41147873Y-82799500D01*
X41147865Y-82799500D01*
X40052129Y-82799500D01*
X40052125Y-82799501D01*
X40004160Y-82804657D01*
X39992517Y-82805909D01*
X39992516Y-82805909D01*
X39985904Y-82806620D01*
X39959393Y-82806619D01*
X39897842Y-82800000D01*
X39600000Y-82800000D01*
X39600000Y-83244146D01*
X39599645Y-83250777D01*
X39599500Y-83252122D01*
X39599500Y-85647863D01*
X39599501Y-85647880D01*
X39599644Y-85649202D01*
X39600000Y-85655835D01*
X39600000Y-86100000D01*
X39897828Y-86100000D01*
X39897839Y-86099999D01*
X39959395Y-86093380D01*
X39985909Y-86093380D01*
X39992514Y-86094090D01*
X39992517Y-86094091D01*
X40052127Y-86100500D01*
X41147872Y-86100499D01*
X41207483Y-86094091D01*
X41207487Y-86094089D01*
X41211743Y-86093632D01*
X41238253Y-86093632D01*
X41242514Y-86094090D01*
X41242517Y-86094091D01*
X41302127Y-86100500D01*
X42096046Y-86100499D01*
X42163085Y-86120183D01*
X42208840Y-86172987D01*
X42218784Y-86242146D01*
X42215377Y-86256800D01*
X42214326Y-86261743D01*
X42214326Y-86261744D01*
X42194540Y-86450000D01*
X42214326Y-86638256D01*
X42214327Y-86638259D01*
X42272818Y-86818277D01*
X42272821Y-86818284D01*
X42367467Y-86982216D01*
X42475363Y-87102046D01*
X42494129Y-87122888D01*
X42647265Y-87234148D01*
X42647270Y-87234151D01*
X42820192Y-87311142D01*
X42820197Y-87311144D01*
X43005354Y-87350500D01*
X43005355Y-87350500D01*
X43194637Y-87350500D01*
X43194646Y-87350500D01*
X43194654Y-87350498D01*
X43199885Y-87349948D01*
X43268616Y-87362512D01*
X43319644Y-87410239D01*
X43336768Y-87477978D01*
X43314551Y-87544221D01*
X43300539Y-87560949D01*
X43239529Y-87621959D01*
X43150501Y-87766294D01*
X43150496Y-87766305D01*
X43097151Y-87927290D01*
X43087000Y-88026647D01*
X43087000Y-88873337D01*
X43087001Y-88873355D01*
X43097150Y-88972707D01*
X43097151Y-88972710D01*
X43150496Y-89133694D01*
X43150501Y-89133705D01*
X43239529Y-89278040D01*
X43239531Y-89278043D01*
X43239532Y-89278044D01*
X43359456Y-89397968D01*
X43359463Y-89397972D01*
X43364904Y-89402274D01*
X43405285Y-89459293D01*
X43412000Y-89499546D01*
X43412000Y-89576000D01*
X43392315Y-89643039D01*
X43339511Y-89688794D01*
X43288000Y-89700000D01*
X43225000Y-89700000D01*
X43225000Y-90626000D01*
X43205315Y-90693039D01*
X43152511Y-90738794D01*
X43101000Y-90750000D01*
X42069315Y-90750000D01*
X42006194Y-90732732D01*
X41974214Y-90713819D01*
X41947898Y-90698256D01*
X41947897Y-90698255D01*
X41947896Y-90698255D01*
X41947893Y-90698254D01*
X41790073Y-90652402D01*
X41790067Y-90652401D01*
X41753196Y-90649500D01*
X41753194Y-90649500D01*
X40446806Y-90649500D01*
X40446804Y-90649500D01*
X40409932Y-90652401D01*
X40409926Y-90652402D01*
X40252106Y-90698254D01*
X40252103Y-90698255D01*
X40110637Y-90781917D01*
X40110629Y-90781923D01*
X39994423Y-90898129D01*
X39994417Y-90898137D01*
X39910755Y-91039603D01*
X39910754Y-91039606D01*
X39864902Y-91197426D01*
X39864901Y-91197432D01*
X39862000Y-91234304D01*
X39862000Y-91650500D01*
X39842315Y-91717539D01*
X39789511Y-91763294D01*
X39738000Y-91774500D01*
X38085452Y-91774500D01*
X38018413Y-91754815D01*
X37997771Y-91738181D01*
X37878268Y-91618678D01*
X37844783Y-91557355D01*
X37845159Y-91515400D01*
X37843261Y-91515196D01*
X37844089Y-91507486D01*
X37844091Y-91507483D01*
X37850500Y-91447873D01*
X37850499Y-91261898D01*
X37870183Y-91194860D01*
X37922987Y-91149105D01*
X37992145Y-91139161D01*
X38047384Y-91161581D01*
X38147265Y-91234148D01*
X38147270Y-91234151D01*
X38320192Y-91311142D01*
X38320197Y-91311144D01*
X38505354Y-91350500D01*
X38505355Y-91350500D01*
X38694644Y-91350500D01*
X38694646Y-91350500D01*
X38879803Y-91311144D01*
X39052730Y-91234151D01*
X39205871Y-91122888D01*
X39332533Y-90982216D01*
X39427179Y-90818284D01*
X39485674Y-90638256D01*
X39505460Y-90450000D01*
X39485674Y-90261744D01*
X39481857Y-90249998D01*
X41740204Y-90249998D01*
X41740205Y-90250000D01*
X42725000Y-90250000D01*
X42725000Y-89700000D01*
X42321856Y-89700000D01*
X42285010Y-89702899D01*
X42285004Y-89702900D01*
X42127306Y-89748716D01*
X42127303Y-89748717D01*
X41985947Y-89832314D01*
X41985938Y-89832321D01*
X41869821Y-89948438D01*
X41869814Y-89948447D01*
X41786218Y-90089801D01*
X41740399Y-90247513D01*
X41740204Y-90249998D01*
X39481857Y-90249998D01*
X39427179Y-90081716D01*
X39332533Y-89917784D01*
X39205871Y-89777112D01*
X39205870Y-89777111D01*
X39052734Y-89665851D01*
X39052729Y-89665848D01*
X38879807Y-89588857D01*
X38879802Y-89588855D01*
X38727028Y-89556383D01*
X38694646Y-89549500D01*
X38505354Y-89549500D01*
X38472972Y-89556383D01*
X38320197Y-89588855D01*
X38320192Y-89588857D01*
X38147270Y-89665848D01*
X38147265Y-89665851D01*
X38047384Y-89738419D01*
X37981577Y-89761899D01*
X37913524Y-89746073D01*
X37864829Y-89695967D01*
X37850499Y-89638103D01*
X37850499Y-89402128D01*
X37844091Y-89342517D01*
X37824743Y-89290643D01*
X37793797Y-89207671D01*
X37793793Y-89207664D01*
X37707547Y-89092455D01*
X37707544Y-89092452D01*
X37592335Y-89006206D01*
X37592328Y-89006202D01*
X37457482Y-88955908D01*
X37457483Y-88955908D01*
X37397883Y-88949501D01*
X37397881Y-88949500D01*
X37397873Y-88949500D01*
X37397865Y-88949500D01*
X37349500Y-88949500D01*
X37282461Y-88929815D01*
X37236706Y-88877011D01*
X37225500Y-88825500D01*
X37225500Y-88648687D01*
X37245185Y-88581648D01*
X37257350Y-88565715D01*
X37275891Y-88545122D01*
X37332533Y-88482216D01*
X37427179Y-88318284D01*
X37482299Y-88148640D01*
X37521736Y-88090967D01*
X37586095Y-88063768D01*
X37654941Y-88075682D01*
X37687911Y-88099279D01*
X38524270Y-88935638D01*
X38536051Y-88949270D01*
X38550388Y-88968528D01*
X38550389Y-88968529D01*
X38550390Y-88968530D01*
X38555372Y-88972710D01*
X38590409Y-89002111D01*
X38594397Y-89005766D01*
X38600216Y-89011585D01*
X38600220Y-89011588D01*
X38600223Y-89011591D01*
X38625959Y-89031940D01*
X38684786Y-89081302D01*
X38684787Y-89081302D01*
X38684789Y-89081304D01*
X38690818Y-89085270D01*
X38690785Y-89085319D01*
X38697147Y-89089372D01*
X38697179Y-89089321D01*
X38703319Y-89093108D01*
X38703323Y-89093111D01*
X38721575Y-89101622D01*
X38772941Y-89125575D01*
X38817382Y-89147894D01*
X38841567Y-89160040D01*
X38841569Y-89160040D01*
X38848357Y-89162511D01*
X38848336Y-89162567D01*
X38855457Y-89165043D01*
X38855476Y-89164986D01*
X38862322Y-89167254D01*
X38862327Y-89167257D01*
X38862332Y-89167258D01*
X38862335Y-89167259D01*
X38937564Y-89182792D01*
X38937565Y-89182792D01*
X39012279Y-89200500D01*
X39012282Y-89200500D01*
X39012286Y-89200501D01*
X39019453Y-89201339D01*
X39019446Y-89201398D01*
X39026944Y-89202164D01*
X39026950Y-89202105D01*
X39034139Y-89202734D01*
X39034143Y-89202733D01*
X39034144Y-89202734D01*
X39110917Y-89200500D01*
X39822496Y-89200500D01*
X39889535Y-89220185D01*
X39928035Y-89259404D01*
X39939531Y-89278043D01*
X40059455Y-89397967D01*
X40059459Y-89397970D01*
X40203794Y-89486998D01*
X40203797Y-89486999D01*
X40203803Y-89487003D01*
X40364792Y-89540349D01*
X40464155Y-89550500D01*
X41010844Y-89550499D01*
X41010852Y-89550498D01*
X41010855Y-89550498D01*
X41065260Y-89544940D01*
X41110208Y-89540349D01*
X41271197Y-89487003D01*
X41415544Y-89397968D01*
X41535468Y-89278044D01*
X41624503Y-89133697D01*
X41677849Y-88972708D01*
X41688000Y-88873345D01*
X41687999Y-88026656D01*
X41687298Y-88019797D01*
X41677849Y-87927292D01*
X41677848Y-87927289D01*
X41624503Y-87766303D01*
X41624499Y-87766297D01*
X41624498Y-87766294D01*
X41535470Y-87621959D01*
X41535467Y-87621955D01*
X41415544Y-87502032D01*
X41415540Y-87502029D01*
X41271205Y-87413001D01*
X41271199Y-87412998D01*
X41271197Y-87412997D01*
X41262874Y-87410239D01*
X41110209Y-87359651D01*
X41010846Y-87349500D01*
X40464162Y-87349500D01*
X40464144Y-87349501D01*
X40364792Y-87359650D01*
X40364789Y-87359651D01*
X40203805Y-87412996D01*
X40203794Y-87413001D01*
X40059459Y-87502029D01*
X40059455Y-87502032D01*
X39939531Y-87621956D01*
X39928035Y-87640596D01*
X39876088Y-87687321D01*
X39822496Y-87699500D01*
X39462229Y-87699500D01*
X39395190Y-87679815D01*
X39374548Y-87663181D01*
X37175729Y-85464361D01*
X37163949Y-85450730D01*
X37156482Y-85440701D01*
X37149612Y-85431472D01*
X37144303Y-85427017D01*
X37109587Y-85397886D01*
X37105612Y-85394244D01*
X37102690Y-85391322D01*
X37099780Y-85388411D01*
X37074040Y-85368059D01*
X37015209Y-85318694D01*
X37009180Y-85314729D01*
X37009212Y-85314680D01*
X37002853Y-85310628D01*
X37002822Y-85310679D01*
X36996680Y-85306891D01*
X36996678Y-85306890D01*
X36996677Y-85306889D01*
X36957474Y-85288608D01*
X36927058Y-85274424D01*
X36892894Y-85257267D01*
X36858433Y-85239960D01*
X36858431Y-85239959D01*
X36858430Y-85239959D01*
X36851645Y-85237489D01*
X36851665Y-85237433D01*
X36844549Y-85234959D01*
X36844531Y-85235015D01*
X36837671Y-85232742D01*
X36809841Y-85226996D01*
X36762434Y-85217207D01*
X36713472Y-85205603D01*
X36687719Y-85199499D01*
X36680547Y-85198661D01*
X36680553Y-85198601D01*
X36673055Y-85197835D01*
X36673050Y-85197895D01*
X36665860Y-85197265D01*
X36589083Y-85199500D01*
X34163705Y-85199500D01*
X34145735Y-85198191D01*
X34121972Y-85194710D01*
X34076890Y-85198655D01*
X34069933Y-85199264D01*
X34064532Y-85199500D01*
X34056288Y-85199500D01*
X34023707Y-85203308D01*
X33947199Y-85210001D01*
X33940133Y-85211461D01*
X33940121Y-85211404D01*
X33932754Y-85213038D01*
X33932768Y-85213094D01*
X33925751Y-85214756D01*
X33853573Y-85241026D01*
X33780662Y-85265187D01*
X33774119Y-85268238D01*
X33774094Y-85268186D01*
X33767310Y-85271470D01*
X33767336Y-85271521D01*
X33760885Y-85274761D01*
X33696723Y-85316961D01*
X33631346Y-85357285D01*
X33625682Y-85361765D01*
X33625646Y-85361719D01*
X33619798Y-85366484D01*
X33619835Y-85366528D01*
X33614310Y-85371164D01*
X33561614Y-85427017D01*
X32114358Y-86874272D01*
X32100729Y-86886051D01*
X32081468Y-86900390D01*
X32047898Y-86940397D01*
X32044253Y-86944376D01*
X32038409Y-86950222D01*
X32018059Y-86975959D01*
X31968695Y-87034789D01*
X31964729Y-87040819D01*
X31964682Y-87040788D01*
X31960630Y-87047147D01*
X31960679Y-87047177D01*
X31956889Y-87053321D01*
X31924424Y-87122941D01*
X31889960Y-87191566D01*
X31887488Y-87198357D01*
X31887432Y-87198336D01*
X31884960Y-87205450D01*
X31885015Y-87205469D01*
X31882742Y-87212327D01*
X31874974Y-87249946D01*
X31867207Y-87287565D01*
X31861619Y-87311144D01*
X31849498Y-87362286D01*
X31848661Y-87369454D01*
X31848601Y-87369447D01*
X31847835Y-87376945D01*
X31847895Y-87376951D01*
X31847265Y-87384140D01*
X31849500Y-87460916D01*
X31849500Y-88833023D01*
X31829815Y-88900062D01*
X31777011Y-88945817D01*
X31749865Y-88953266D01*
X31750068Y-88954124D01*
X31742520Y-88955907D01*
X31646604Y-88991682D01*
X31603271Y-88999500D01*
X29982743Y-88999500D01*
X29967122Y-88997775D01*
X29967096Y-88998061D01*
X29959334Y-88997327D01*
X29959333Y-88997327D01*
X29890186Y-88999500D01*
X29860649Y-88999500D01*
X29853766Y-89000369D01*
X29847949Y-89000826D01*
X29801373Y-89002290D01*
X29782129Y-89007881D01*
X29763079Y-89011825D01*
X29743211Y-89014334D01*
X29699884Y-89031488D01*
X29694358Y-89033379D01*
X29649614Y-89046379D01*
X29649610Y-89046381D01*
X29632366Y-89056579D01*
X29614905Y-89065133D01*
X29596274Y-89072510D01*
X29596262Y-89072517D01*
X29558570Y-89099902D01*
X29553687Y-89103109D01*
X29513580Y-89126829D01*
X29499414Y-89140995D01*
X29484624Y-89153627D01*
X29468414Y-89165404D01*
X29468410Y-89165408D01*
X29456717Y-89179543D01*
X29398816Y-89218649D01*
X29361175Y-89224500D01*
X28749998Y-89224500D01*
X28749980Y-89224501D01*
X28647203Y-89235000D01*
X28647200Y-89235001D01*
X28480668Y-89290185D01*
X28480663Y-89290187D01*
X28331342Y-89382289D01*
X28207288Y-89506343D01*
X28207283Y-89506349D01*
X28205241Y-89509661D01*
X28203247Y-89511453D01*
X28202807Y-89512011D01*
X28202711Y-89511935D01*
X28153291Y-89556383D01*
X28084328Y-89567602D01*
X28020247Y-89539755D01*
X27994168Y-89509656D01*
X27992319Y-89506659D01*
X27992316Y-89506655D01*
X27868345Y-89382684D01*
X27719124Y-89290643D01*
X27719119Y-89290641D01*
X27552697Y-89235494D01*
X27552690Y-89235493D01*
X27449986Y-89225000D01*
X27312500Y-89225000D01*
X27312500Y-90576000D01*
X27292815Y-90643039D01*
X27240011Y-90688794D01*
X27188500Y-90700000D01*
X25975001Y-90700000D01*
X25975001Y-90974986D01*
X25985494Y-91077697D01*
X26040641Y-91244119D01*
X26040643Y-91244124D01*
X26136475Y-91399491D01*
X26135080Y-91400351D01*
X26157948Y-91457030D01*
X26144908Y-91525672D01*
X26140087Y-91534229D01*
X26114324Y-91576000D01*
X26065187Y-91655663D01*
X26065185Y-91655666D01*
X26065186Y-91655666D01*
X26010001Y-91822203D01*
X26010001Y-91822204D01*
X26010000Y-91822204D01*
X25999500Y-91924983D01*
X25999500Y-92589546D01*
X25979815Y-92656585D01*
X25963181Y-92677227D01*
X25791208Y-92849199D01*
X25778951Y-92859020D01*
X25779134Y-92859241D01*
X25773123Y-92864213D01*
X25725772Y-92914636D01*
X25704889Y-92935519D01*
X25704877Y-92935532D01*
X25700621Y-92941017D01*
X25696837Y-92945447D01*
X25664937Y-92979418D01*
X25664936Y-92979420D01*
X25655284Y-92996976D01*
X25644610Y-93013226D01*
X25632329Y-93029061D01*
X25632324Y-93029068D01*
X25613815Y-93071838D01*
X25611245Y-93077084D01*
X25588803Y-93117906D01*
X25583822Y-93137307D01*
X25577521Y-93155710D01*
X25569562Y-93174102D01*
X25569561Y-93174105D01*
X25562271Y-93220127D01*
X25561087Y-93225846D01*
X25549501Y-93270972D01*
X25549500Y-93270982D01*
X25549500Y-93291016D01*
X25547973Y-93310415D01*
X25544840Y-93330194D01*
X25544840Y-93330195D01*
X24100500Y-93330195D01*
X24100500Y-90200000D01*
X25975000Y-90200000D01*
X26812500Y-90200000D01*
X26812500Y-89225000D01*
X26675027Y-89225000D01*
X26675012Y-89225001D01*
X26572302Y-89235494D01*
X26405880Y-89290641D01*
X26405875Y-89290643D01*
X26256654Y-89382684D01*
X26132684Y-89506654D01*
X26040643Y-89655875D01*
X26040641Y-89655880D01*
X25985494Y-89822302D01*
X25985493Y-89822309D01*
X25975000Y-89925013D01*
X25975000Y-90200000D01*
X24100500Y-90200000D01*
X24100500Y-84700000D01*
X38350000Y-84700000D01*
X38350000Y-85647844D01*
X38356401Y-85707372D01*
X38356403Y-85707379D01*
X38406645Y-85842086D01*
X38406649Y-85842093D01*
X38492809Y-85957187D01*
X38492812Y-85957190D01*
X38607906Y-86043350D01*
X38607913Y-86043354D01*
X38742620Y-86093596D01*
X38742627Y-86093598D01*
X38802155Y-86099999D01*
X38802172Y-86100000D01*
X39100000Y-86100000D01*
X39100000Y-84700000D01*
X38350000Y-84700000D01*
X24100500Y-84700000D01*
X24100500Y-78200000D01*
X29937501Y-78200000D01*
X29937501Y-78474986D01*
X29947994Y-78577697D01*
X30003141Y-78744119D01*
X30003143Y-78744124D01*
X30095184Y-78893345D01*
X30219154Y-79017315D01*
X30368375Y-79109356D01*
X30368380Y-79109358D01*
X30534802Y-79164505D01*
X30534809Y-79164506D01*
X30637519Y-79174999D01*
X30774999Y-79174999D01*
X30775000Y-79174998D01*
X30775000Y-78200000D01*
X29937501Y-78200000D01*
X24100500Y-78200000D01*
X24100500Y-70725000D01*
X25100000Y-70725000D01*
X25100000Y-71622844D01*
X25106401Y-71682372D01*
X25106403Y-71682379D01*
X25156645Y-71817086D01*
X25156649Y-71817093D01*
X25242809Y-71932187D01*
X25242812Y-71932190D01*
X25357906Y-72018350D01*
X25357913Y-72018354D01*
X25492620Y-72068596D01*
X25492627Y-72068598D01*
X25552155Y-72074999D01*
X25552172Y-72075000D01*
X25875000Y-72075000D01*
X25875000Y-70725000D01*
X26375000Y-70725000D01*
X26375000Y-72075000D01*
X26475501Y-72075000D01*
X26542540Y-72094685D01*
X26588295Y-72147489D01*
X26599501Y-72199000D01*
X26599501Y-72572876D01*
X26605908Y-72632483D01*
X26656202Y-72767328D01*
X26656206Y-72767335D01*
X26742452Y-72882544D01*
X26742455Y-72882547D01*
X26857664Y-72968793D01*
X26857671Y-72968797D01*
X26902618Y-72985560D01*
X26992517Y-73019091D01*
X27052127Y-73025500D01*
X27689547Y-73025499D01*
X27756586Y-73045183D01*
X27777227Y-73061817D01*
X28414909Y-73699500D01*
X29049197Y-74333788D01*
X29059022Y-74346051D01*
X29059243Y-74345869D01*
X29064214Y-74351878D01*
X29090217Y-74376295D01*
X29114635Y-74399226D01*
X29135529Y-74420120D01*
X29141011Y-74424373D01*
X29145443Y-74428157D01*
X29179418Y-74460062D01*
X29196976Y-74469714D01*
X29213235Y-74480395D01*
X29229064Y-74492673D01*
X29271838Y-74511182D01*
X29277056Y-74513738D01*
X29317908Y-74536197D01*
X29337316Y-74541180D01*
X29355717Y-74547480D01*
X29374104Y-74555437D01*
X29417488Y-74562308D01*
X29420119Y-74562725D01*
X29425839Y-74563909D01*
X29470981Y-74575500D01*
X29491016Y-74575500D01*
X29510414Y-74577026D01*
X29530194Y-74580159D01*
X29530195Y-74580160D01*
X29530195Y-74580159D01*
X29530196Y-74580160D01*
X29576583Y-74575775D01*
X29582422Y-74575500D01*
X29857199Y-74575500D01*
X29924238Y-74595185D01*
X29969993Y-74647989D01*
X29974905Y-74660496D01*
X30002685Y-74744331D01*
X30002687Y-74744336D01*
X30094789Y-74893657D01*
X30116642Y-74915510D01*
X30150127Y-74976833D01*
X30145143Y-75046525D01*
X30134500Y-75068287D01*
X30065190Y-75180659D01*
X30065186Y-75180666D01*
X30010001Y-75347203D01*
X30010001Y-75347204D01*
X30010000Y-75347204D01*
X29999500Y-75449983D01*
X29999500Y-76450001D01*
X29999501Y-76450019D01*
X30010000Y-76552796D01*
X30010001Y-76552799D01*
X30065185Y-76719331D01*
X30065189Y-76719340D01*
X30134770Y-76832149D01*
X30153210Y-76899541D01*
X30132287Y-76966205D01*
X30116914Y-76984925D01*
X30095182Y-77006656D01*
X30003143Y-77155875D01*
X30003141Y-77155880D01*
X29947994Y-77322302D01*
X29947993Y-77322309D01*
X29937500Y-77425013D01*
X29937500Y-77700000D01*
X31151000Y-77700000D01*
X31218039Y-77719685D01*
X31263794Y-77772489D01*
X31275000Y-77824000D01*
X31275000Y-79174999D01*
X31412472Y-79174999D01*
X31412486Y-79174998D01*
X31515197Y-79164505D01*
X31681619Y-79109358D01*
X31681624Y-79109356D01*
X31830845Y-79017315D01*
X31954818Y-78893342D01*
X31956665Y-78890348D01*
X31958469Y-78888724D01*
X31959298Y-78887677D01*
X31959476Y-78887818D01*
X32008610Y-78843621D01*
X32077573Y-78832396D01*
X32141656Y-78860236D01*
X32167743Y-78890341D01*
X32169788Y-78893656D01*
X32293844Y-79017712D01*
X32443166Y-79109814D01*
X32609703Y-79164999D01*
X32712491Y-79175500D01*
X33487508Y-79175499D01*
X33487516Y-79175498D01*
X33487519Y-79175498D01*
X33543802Y-79169748D01*
X33590297Y-79164999D01*
X33756834Y-79109814D01*
X33906156Y-79017712D01*
X34030212Y-78893656D01*
X34122314Y-78744334D01*
X34177499Y-78577797D01*
X34188000Y-78475009D01*
X34187999Y-78105925D01*
X34207683Y-78038889D01*
X34260487Y-77993134D01*
X34329646Y-77983190D01*
X34393201Y-78012215D01*
X34404146Y-78022952D01*
X34494129Y-78122888D01*
X34494132Y-78122890D01*
X34647265Y-78234148D01*
X34647270Y-78234151D01*
X34820192Y-78311142D01*
X34820197Y-78311144D01*
X35005354Y-78350500D01*
X35005355Y-78350500D01*
X35194644Y-78350500D01*
X35194646Y-78350500D01*
X35299719Y-78328166D01*
X35369386Y-78333482D01*
X35425120Y-78375619D01*
X35449225Y-78441199D01*
X35449500Y-78449456D01*
X35449500Y-78997870D01*
X35449501Y-78997879D01*
X35456367Y-79061751D01*
X35456367Y-79088257D01*
X35455909Y-79092516D01*
X35455909Y-79092517D01*
X35449500Y-79152127D01*
X35449500Y-79152128D01*
X35449500Y-79152132D01*
X35449500Y-79950543D01*
X35429815Y-80017582D01*
X35377011Y-80063337D01*
X35307853Y-80073281D01*
X35299720Y-80071834D01*
X35194646Y-80049500D01*
X35005354Y-80049500D01*
X34972897Y-80056398D01*
X34820197Y-80088855D01*
X34820192Y-80088857D01*
X34647270Y-80165848D01*
X34647265Y-80165851D01*
X34494129Y-80277111D01*
X34367466Y-80417785D01*
X34272821Y-80581715D01*
X34272818Y-80581722D01*
X34214327Y-80761740D01*
X34214326Y-80761744D01*
X34194540Y-80950000D01*
X34214326Y-81138256D01*
X34214327Y-81138259D01*
X34272818Y-81318277D01*
X34272821Y-81318284D01*
X34367467Y-81482216D01*
X34462945Y-81588255D01*
X34494129Y-81622888D01*
X34647265Y-81734148D01*
X34647270Y-81734151D01*
X34820192Y-81811142D01*
X34820197Y-81811144D01*
X35005354Y-81850500D01*
X35005355Y-81850500D01*
X35194644Y-81850500D01*
X35194646Y-81850500D01*
X35299719Y-81828166D01*
X35369386Y-81833482D01*
X35425120Y-81875619D01*
X35449225Y-81941199D01*
X35449500Y-81949456D01*
X35449500Y-82264546D01*
X35429815Y-82331585D01*
X35413185Y-82352222D01*
X35283194Y-82482214D01*
X35280699Y-82484709D01*
X35268442Y-82494529D01*
X35268625Y-82494750D01*
X35262614Y-82499722D01*
X35215263Y-82550145D01*
X35194380Y-82571028D01*
X35194368Y-82571041D01*
X35190112Y-82576526D01*
X35186328Y-82580956D01*
X35154428Y-82614927D01*
X35154427Y-82614929D01*
X35144775Y-82632485D01*
X35134101Y-82648735D01*
X35121820Y-82664570D01*
X35121815Y-82664577D01*
X35103306Y-82707347D01*
X35100736Y-82712593D01*
X35078294Y-82753415D01*
X35073313Y-82772816D01*
X35067012Y-82791219D01*
X35059053Y-82809611D01*
X35059052Y-82809614D01*
X35051762Y-82855636D01*
X35050578Y-82861355D01*
X35038992Y-82906481D01*
X35038991Y-82906491D01*
X35038991Y-82911819D01*
X35019306Y-82978858D01*
X35007141Y-82994791D01*
X34931961Y-83078285D01*
X34931956Y-83078292D01*
X34837312Y-83242222D01*
X34837309Y-83242229D01*
X34798128Y-83362817D01*
X34778817Y-83422251D01*
X34759031Y-83610507D01*
X34778817Y-83798763D01*
X34778818Y-83798766D01*
X34837309Y-83978784D01*
X34837312Y-83978791D01*
X34931958Y-84142723D01*
X34983531Y-84200000D01*
X35058620Y-84283395D01*
X35211756Y-84394655D01*
X35211761Y-84394658D01*
X35384683Y-84471649D01*
X35384688Y-84471651D01*
X35569845Y-84511007D01*
X35569846Y-84511007D01*
X35759135Y-84511007D01*
X35759137Y-84511007D01*
X35944294Y-84471651D01*
X36117221Y-84394658D01*
X36270362Y-84283395D01*
X36397024Y-84142723D01*
X36491670Y-83978791D01*
X36550165Y-83798763D01*
X36569951Y-83610507D01*
X36550165Y-83422251D01*
X36530854Y-83362817D01*
X36528859Y-83292975D01*
X36564940Y-83233143D01*
X36627641Y-83202315D01*
X36648785Y-83200499D01*
X38226000Y-83200499D01*
X38293039Y-83220184D01*
X38338794Y-83272988D01*
X38350000Y-83324499D01*
X38350000Y-84200000D01*
X39100000Y-84200000D01*
X39100000Y-82800000D01*
X38874500Y-82800000D01*
X38807461Y-82780315D01*
X38761706Y-82727511D01*
X38750500Y-82676000D01*
X38750499Y-81652129D01*
X38750499Y-81652128D01*
X38744091Y-81592517D01*
X38744089Y-81592513D01*
X38743632Y-81588255D01*
X38743633Y-81561745D01*
X38745005Y-81548975D01*
X38750500Y-81497873D01*
X38750499Y-80402128D01*
X38744091Y-80342517D01*
X38744089Y-80342513D01*
X38743632Y-80338255D01*
X38743633Y-80311745D01*
X38747356Y-80277111D01*
X38750500Y-80247873D01*
X38750499Y-79152128D01*
X38744091Y-79092517D01*
X38744089Y-79092513D01*
X38743632Y-79088255D01*
X38743633Y-79061745D01*
X38745005Y-79048975D01*
X38750500Y-78997873D01*
X38750499Y-77902128D01*
X38744091Y-77842517D01*
X38744089Y-77842513D01*
X38743632Y-77838255D01*
X38743633Y-77811745D01*
X38747356Y-77777111D01*
X38750500Y-77747873D01*
X38750499Y-76652128D01*
X38744091Y-76592517D01*
X38744090Y-76592516D01*
X38743380Y-76585904D01*
X38743381Y-76559393D01*
X38749999Y-76497842D01*
X38750000Y-76497827D01*
X38750000Y-76200000D01*
X38305845Y-76200000D01*
X38299213Y-76199644D01*
X38297873Y-76199500D01*
X38297871Y-76199500D01*
X35902129Y-76199500D01*
X35902117Y-76199501D01*
X35900793Y-76199644D01*
X35894159Y-76200000D01*
X35450000Y-76200000D01*
X35450000Y-76450650D01*
X35430315Y-76517689D01*
X35377511Y-76563444D01*
X35308353Y-76573388D01*
X35300219Y-76571940D01*
X35252283Y-76561751D01*
X35194646Y-76549500D01*
X35005354Y-76549500D01*
X34972897Y-76556398D01*
X34820197Y-76588855D01*
X34820192Y-76588857D01*
X34647270Y-76665848D01*
X34647265Y-76665851D01*
X34494129Y-76777111D01*
X34367465Y-76917785D01*
X34281870Y-77066042D01*
X34231303Y-77114258D01*
X34162696Y-77127481D01*
X34097831Y-77101513D01*
X34068945Y-77069140D01*
X34058665Y-77052474D01*
X34033560Y-77011772D01*
X34015120Y-76944383D01*
X34036042Y-76877719D01*
X34041842Y-76869755D01*
X34042704Y-76868663D01*
X34042712Y-76868656D01*
X34134814Y-76719334D01*
X34189999Y-76552797D01*
X34200500Y-76450009D01*
X34200499Y-75785452D01*
X34220183Y-75718414D01*
X34236818Y-75697772D01*
X34572772Y-75361819D01*
X34634095Y-75328334D01*
X34660453Y-75325500D01*
X35326000Y-75325500D01*
X35393039Y-75345185D01*
X35438794Y-75397989D01*
X35450000Y-75449500D01*
X35450000Y-75700000D01*
X35894155Y-75700000D01*
X35900786Y-75700355D01*
X35902127Y-75700500D01*
X38297872Y-75700499D01*
X38297878Y-75700498D01*
X38297882Y-75700498D01*
X38299207Y-75700356D01*
X38305841Y-75700000D01*
X38750000Y-75700000D01*
X38750000Y-75402172D01*
X38749999Y-75402160D01*
X38743380Y-75340604D01*
X38743380Y-75314089D01*
X38744089Y-75307485D01*
X38744091Y-75307483D01*
X38750500Y-75247873D01*
X38750499Y-74223999D01*
X38770183Y-74156961D01*
X38822987Y-74111206D01*
X38874499Y-74100000D01*
X39100000Y-74100000D01*
X39100000Y-72700000D01*
X38350000Y-72700000D01*
X38350000Y-73575500D01*
X38330315Y-73642539D01*
X38277511Y-73688294D01*
X38226000Y-73699500D01*
X35902129Y-73699500D01*
X35902123Y-73699501D01*
X35842516Y-73705908D01*
X35707671Y-73756202D01*
X35707664Y-73756206D01*
X35592455Y-73842452D01*
X35592452Y-73842455D01*
X35506206Y-73957664D01*
X35506203Y-73957669D01*
X35492715Y-73993834D01*
X35450843Y-74049767D01*
X35385379Y-74074184D01*
X35376533Y-74074500D01*
X34432743Y-74074500D01*
X34417122Y-74072775D01*
X34417096Y-74073061D01*
X34409334Y-74072327D01*
X34409333Y-74072327D01*
X34340186Y-74074500D01*
X34310649Y-74074500D01*
X34303766Y-74075369D01*
X34297949Y-74075826D01*
X34251373Y-74077290D01*
X34232129Y-74082881D01*
X34213079Y-74086825D01*
X34193211Y-74089334D01*
X34149884Y-74106488D01*
X34144358Y-74108379D01*
X34099614Y-74121379D01*
X34099610Y-74121381D01*
X34082366Y-74131579D01*
X34064905Y-74140133D01*
X34046274Y-74147510D01*
X34046262Y-74147517D01*
X34008568Y-74174904D01*
X34003691Y-74178107D01*
X33995880Y-74182726D01*
X33932752Y-74200000D01*
X32974000Y-74200000D01*
X32906961Y-74180315D01*
X32861206Y-74127511D01*
X32850000Y-74076000D01*
X32849999Y-72725000D01*
X33350000Y-72725000D01*
X33350000Y-73700000D01*
X34187499Y-73700000D01*
X34187499Y-73425028D01*
X34187498Y-73425013D01*
X34177005Y-73322302D01*
X34121858Y-73155880D01*
X34121856Y-73155875D01*
X34029815Y-73006654D01*
X33905845Y-72882684D01*
X33756624Y-72790643D01*
X33756619Y-72790641D01*
X33590197Y-72735494D01*
X33590190Y-72735493D01*
X33487486Y-72725000D01*
X33350000Y-72725000D01*
X32849999Y-72725000D01*
X32712527Y-72725000D01*
X32712512Y-72725001D01*
X32609802Y-72735494D01*
X32443380Y-72790641D01*
X32443375Y-72790643D01*
X32294154Y-72882684D01*
X32170183Y-73006655D01*
X32170179Y-73006660D01*
X32168326Y-73009665D01*
X32166518Y-73011290D01*
X32165702Y-73012323D01*
X32165525Y-73012183D01*
X32116374Y-73056385D01*
X32047411Y-73067601D01*
X31983331Y-73039752D01*
X31957253Y-73009653D01*
X31957237Y-73009628D01*
X31955212Y-73006344D01*
X31831156Y-72882288D01*
X31681834Y-72790186D01*
X31515297Y-72735001D01*
X31515295Y-72735000D01*
X31412510Y-72724500D01*
X30637498Y-72724500D01*
X30637480Y-72724501D01*
X30534703Y-72735000D01*
X30534700Y-72735001D01*
X30368168Y-72790185D01*
X30368163Y-72790187D01*
X30218842Y-72882289D01*
X30094789Y-73006342D01*
X30002687Y-73155663D01*
X30002684Y-73155672D01*
X29975713Y-73237061D01*
X29935940Y-73294505D01*
X29871424Y-73321327D01*
X29802648Y-73309011D01*
X29770327Y-73285736D01*
X28771272Y-72286681D01*
X28737787Y-72225358D01*
X28739600Y-72200000D01*
X38350000Y-72200000D01*
X39100000Y-72200000D01*
X39100000Y-70800000D01*
X38802155Y-70800000D01*
X38742627Y-70806401D01*
X38742620Y-70806403D01*
X38607913Y-70856645D01*
X38607906Y-70856649D01*
X38492812Y-70942809D01*
X38492809Y-70942812D01*
X38406649Y-71057906D01*
X38406645Y-71057913D01*
X38356403Y-71192620D01*
X38356401Y-71192627D01*
X38350000Y-71252155D01*
X38350000Y-72200000D01*
X28739600Y-72200000D01*
X28742771Y-72155666D01*
X28784643Y-72099733D01*
X28809561Y-72090438D01*
X28825000Y-72075000D01*
X28825000Y-70725000D01*
X29325000Y-70725000D01*
X29325000Y-72075000D01*
X29647828Y-72075000D01*
X29647844Y-72074999D01*
X29707372Y-72068598D01*
X29707379Y-72068596D01*
X29842086Y-72018354D01*
X29842093Y-72018350D01*
X29957187Y-71932190D01*
X29957190Y-71932187D01*
X30043350Y-71817093D01*
X30043354Y-71817086D01*
X30093596Y-71682379D01*
X30093598Y-71682372D01*
X30099999Y-71622844D01*
X30100000Y-71622827D01*
X30100000Y-70725000D01*
X29325000Y-70725000D01*
X28825000Y-70725000D01*
X28050000Y-70725000D01*
X28050000Y-70850500D01*
X28030315Y-70917539D01*
X27977511Y-70963294D01*
X27926000Y-70974500D01*
X27274000Y-70974500D01*
X27206961Y-70954815D01*
X27161206Y-70902011D01*
X27150000Y-70850500D01*
X27150000Y-70725000D01*
X26375000Y-70725000D01*
X25875000Y-70725000D01*
X25100000Y-70725000D01*
X24100500Y-70725000D01*
X24100500Y-70225000D01*
X25100000Y-70225000D01*
X25875000Y-70225000D01*
X25875000Y-68875000D01*
X26375000Y-68875000D01*
X26375000Y-70225000D01*
X27150000Y-70225000D01*
X28050000Y-70225000D01*
X28825000Y-70225000D01*
X28825000Y-68875000D01*
X29325000Y-68875000D01*
X29325000Y-70225000D01*
X30100000Y-70225000D01*
X30100000Y-69327172D01*
X30099999Y-69327155D01*
X30093598Y-69267627D01*
X30093596Y-69267620D01*
X30043354Y-69132913D01*
X30043350Y-69132906D01*
X29957190Y-69017812D01*
X29957187Y-69017809D01*
X29842093Y-68931649D01*
X29842086Y-68931645D01*
X29707379Y-68881403D01*
X29707372Y-68881401D01*
X29647844Y-68875000D01*
X29325000Y-68875000D01*
X28825000Y-68875000D01*
X28502155Y-68875000D01*
X28442627Y-68881401D01*
X28442620Y-68881403D01*
X28307913Y-68931645D01*
X28307906Y-68931649D01*
X28192812Y-69017809D01*
X28192809Y-69017812D01*
X28106649Y-69132906D01*
X28106645Y-69132913D01*
X28056403Y-69267620D01*
X28056401Y-69267627D01*
X28050000Y-69327155D01*
X28050000Y-70225000D01*
X27150000Y-70225000D01*
X27150000Y-69327172D01*
X27149999Y-69327155D01*
X27143598Y-69267627D01*
X27143596Y-69267620D01*
X27093354Y-69132913D01*
X27093350Y-69132906D01*
X27007190Y-69017812D01*
X27007187Y-69017809D01*
X26892093Y-68931649D01*
X26892086Y-68931645D01*
X26757379Y-68881403D01*
X26757372Y-68881401D01*
X26697844Y-68875000D01*
X26375000Y-68875000D01*
X25875000Y-68875000D01*
X25552155Y-68875000D01*
X25492627Y-68881401D01*
X25492620Y-68881403D01*
X25357913Y-68931645D01*
X25357906Y-68931649D01*
X25242812Y-69017809D01*
X25242809Y-69017812D01*
X25156649Y-69132906D01*
X25156645Y-69132913D01*
X25106403Y-69267620D01*
X25106401Y-69267627D01*
X25100000Y-69327155D01*
X25100000Y-70225000D01*
X24100500Y-70225000D01*
X24100500Y-67509660D01*
X31770393Y-67509660D01*
X31800668Y-67681354D01*
X31869721Y-67841438D01*
X31869722Y-67841440D01*
X31869724Y-67841443D01*
X31961225Y-67964349D01*
X31973832Y-67981283D01*
X32107386Y-68093349D01*
X32263185Y-68171594D01*
X32432829Y-68211800D01*
X32432831Y-68211800D01*
X32563429Y-68211800D01*
X32563436Y-68211800D01*
X32693164Y-68196637D01*
X32856993Y-68137008D01*
X33002654Y-68041205D01*
X33122296Y-67914393D01*
X33138533Y-67886268D01*
X33189098Y-67838053D01*
X33257705Y-67824829D01*
X33318799Y-67847946D01*
X33325562Y-67852859D01*
X33368231Y-67908186D01*
X33374215Y-67977799D01*
X33350537Y-68029343D01*
X33217071Y-68200819D01*
X33217069Y-68200823D01*
X33103654Y-68410396D01*
X33103648Y-68410410D01*
X33026274Y-68635791D01*
X33003128Y-68774500D01*
X32987050Y-68870848D01*
X32987050Y-69109152D01*
X33001663Y-69196719D01*
X33026274Y-69344208D01*
X33103648Y-69569589D01*
X33103654Y-69569603D01*
X33217069Y-69779176D01*
X33217076Y-69779187D01*
X33363433Y-69967227D01*
X33363436Y-69967230D01*
X33363440Y-69967235D01*
X33538766Y-70128633D01*
X33738266Y-70258973D01*
X33956498Y-70354699D01*
X34187510Y-70413199D01*
X34365528Y-70427950D01*
X34365530Y-70427950D01*
X34484470Y-70427950D01*
X34484472Y-70427950D01*
X34662490Y-70413199D01*
X34893502Y-70354699D01*
X35111734Y-70258973D01*
X35311234Y-70128633D01*
X35486560Y-69967235D01*
X35632929Y-69779179D01*
X35746349Y-69569597D01*
X35823726Y-69344206D01*
X35862950Y-69109152D01*
X35862950Y-68870848D01*
X35823726Y-68635794D01*
X35746349Y-68410403D01*
X35632929Y-68200821D01*
X35632928Y-68200819D01*
X35499463Y-68029343D01*
X35473821Y-67964349D01*
X35487388Y-67895809D01*
X35524429Y-67852865D01*
X35622118Y-67781890D01*
X35687919Y-67758412D01*
X35755973Y-67774237D01*
X35767884Y-67781892D01*
X35880432Y-67863663D01*
X35880433Y-67863663D01*
X35880437Y-67863666D01*
X35980430Y-67908186D01*
X36052149Y-67940118D01*
X36052152Y-67940118D01*
X36052155Y-67940120D01*
X36236016Y-67979200D01*
X36423984Y-67979200D01*
X36607845Y-67940120D01*
X36607848Y-67940118D01*
X36607850Y-67940118D01*
X36679570Y-67908186D01*
X36779563Y-67863666D01*
X36892542Y-67781581D01*
X36958345Y-67758103D01*
X37026399Y-67773928D01*
X37038310Y-67781583D01*
X37150683Y-67863227D01*
X37150688Y-67863229D01*
X37322305Y-67939639D01*
X37322310Y-67939641D01*
X37506068Y-67978700D01*
X37693932Y-67978700D01*
X37877689Y-67939641D01*
X37877693Y-67939639D01*
X37893911Y-67932419D01*
X37963160Y-67923132D01*
X38026438Y-67952759D01*
X38063652Y-68011893D01*
X38062989Y-68081760D01*
X38032030Y-68133378D01*
X37152228Y-69013181D01*
X37090905Y-69046666D01*
X37064547Y-69049500D01*
X37005354Y-69049500D01*
X36972897Y-69056398D01*
X36820197Y-69088855D01*
X36820192Y-69088857D01*
X36647270Y-69165848D01*
X36647265Y-69165851D01*
X36494129Y-69277111D01*
X36367466Y-69417785D01*
X36272821Y-69581715D01*
X36272818Y-69581722D01*
X36214327Y-69761740D01*
X36214326Y-69761744D01*
X36194540Y-69950000D01*
X36214326Y-70138256D01*
X36214327Y-70138259D01*
X36272818Y-70318277D01*
X36272821Y-70318284D01*
X36367467Y-70482216D01*
X36494128Y-70622888D01*
X36494129Y-70622888D01*
X36647265Y-70734148D01*
X36647270Y-70734151D01*
X36820192Y-70811142D01*
X36820197Y-70811144D01*
X37005354Y-70850500D01*
X37005355Y-70850500D01*
X37194644Y-70850500D01*
X37194646Y-70850500D01*
X37379803Y-70811144D01*
X37552730Y-70734151D01*
X37705871Y-70622888D01*
X37832533Y-70482216D01*
X37927179Y-70318284D01*
X37985674Y-70138256D01*
X38003321Y-69970344D01*
X38029904Y-69905734D01*
X38038951Y-69895638D01*
X38941049Y-68993540D01*
X39002370Y-68960057D01*
X39072062Y-68965041D01*
X39127995Y-69006913D01*
X39136114Y-69019222D01*
X39142463Y-69030219D01*
X39142465Y-69030222D01*
X39269129Y-69170896D01*
X39422265Y-69282156D01*
X39422270Y-69282159D01*
X39595192Y-69359150D01*
X39595197Y-69359152D01*
X39780354Y-69398508D01*
X39780355Y-69398508D01*
X39969644Y-69398508D01*
X39969646Y-69398508D01*
X40154803Y-69359152D01*
X40327730Y-69282159D01*
X40381460Y-69243121D01*
X40447264Y-69219641D01*
X40504778Y-69230159D01*
X40643031Y-69291714D01*
X40828188Y-69331070D01*
X40828189Y-69331070D01*
X41017478Y-69331070D01*
X41017480Y-69331070D01*
X41151726Y-69302535D01*
X41221390Y-69307851D01*
X41277123Y-69349988D01*
X41294785Y-69383562D01*
X41358648Y-69569589D01*
X41358654Y-69569603D01*
X41472069Y-69779176D01*
X41472076Y-69779187D01*
X41618433Y-69967227D01*
X41618436Y-69967230D01*
X41618440Y-69967235D01*
X41793766Y-70128633D01*
X41993266Y-70258973D01*
X42211498Y-70354699D01*
X42442510Y-70413199D01*
X42620528Y-70427950D01*
X42620530Y-70427950D01*
X42739470Y-70427950D01*
X42739472Y-70427950D01*
X42917490Y-70413199D01*
X43148502Y-70354699D01*
X43366734Y-70258973D01*
X43532678Y-70150555D01*
X43599568Y-70130368D01*
X43666753Y-70149547D01*
X43712904Y-70202006D01*
X43724500Y-70254364D01*
X43724500Y-70675500D01*
X43704815Y-70742539D01*
X43652011Y-70788294D01*
X43600500Y-70799500D01*
X42552129Y-70799500D01*
X42552120Y-70799501D01*
X42488248Y-70806367D01*
X42461742Y-70806367D01*
X42457483Y-70805909D01*
X42397873Y-70799500D01*
X42397865Y-70799500D01*
X41302129Y-70799500D01*
X41302120Y-70799501D01*
X41238248Y-70806367D01*
X41211742Y-70806367D01*
X41207483Y-70805909D01*
X41147873Y-70799500D01*
X41147865Y-70799500D01*
X40052129Y-70799500D01*
X40052125Y-70799501D01*
X40004160Y-70804657D01*
X39992517Y-70805909D01*
X39992516Y-70805909D01*
X39985904Y-70806620D01*
X39959393Y-70806619D01*
X39897842Y-70800000D01*
X39600000Y-70800000D01*
X39600000Y-71244146D01*
X39599645Y-71250777D01*
X39599500Y-71252122D01*
X39599500Y-73647863D01*
X39599501Y-73647880D01*
X39599644Y-73649202D01*
X39600000Y-73655835D01*
X39600000Y-74100000D01*
X39897828Y-74100000D01*
X39897839Y-74099999D01*
X39959395Y-74093380D01*
X39985909Y-74093380D01*
X39992514Y-74094090D01*
X39992517Y-74094091D01*
X40052127Y-74100500D01*
X41100500Y-74100499D01*
X41167539Y-74120183D01*
X41213294Y-74172987D01*
X41224500Y-74224499D01*
X41224500Y-74617255D01*
X41222775Y-74632872D01*
X41223061Y-74632899D01*
X41222326Y-74640665D01*
X41224411Y-74706983D01*
X41218404Y-74749192D01*
X41218304Y-74749501D01*
X41214326Y-74761742D01*
X41214326Y-74761743D01*
X41214326Y-74761744D01*
X41194540Y-74950000D01*
X41214326Y-75138256D01*
X41214327Y-75138259D01*
X41272818Y-75318277D01*
X41272821Y-75318284D01*
X41367467Y-75482216D01*
X41435295Y-75557546D01*
X41494129Y-75622888D01*
X41647265Y-75734148D01*
X41647270Y-75734151D01*
X41820192Y-75811142D01*
X41820197Y-75811144D01*
X42005354Y-75850500D01*
X42005355Y-75850500D01*
X42194644Y-75850500D01*
X42194646Y-75850500D01*
X42379803Y-75811144D01*
X42552730Y-75734151D01*
X42705871Y-75622888D01*
X42832533Y-75482216D01*
X42927179Y-75318284D01*
X42985674Y-75138256D01*
X43005460Y-74950000D01*
X42985674Y-74761744D01*
X42927179Y-74581716D01*
X42832533Y-74417784D01*
X42765619Y-74343469D01*
X42733207Y-74307471D01*
X42702977Y-74244479D01*
X42711602Y-74175144D01*
X42756344Y-74121479D01*
X42822996Y-74100521D01*
X42825276Y-74100499D01*
X43647872Y-74100499D01*
X43707483Y-74094091D01*
X43707487Y-74094089D01*
X43711743Y-74093632D01*
X43738253Y-74093632D01*
X43742514Y-74094090D01*
X43742517Y-74094091D01*
X43802127Y-74100500D01*
X44897872Y-74100499D01*
X44957483Y-74094091D01*
X44957487Y-74094089D01*
X44961743Y-74093632D01*
X44988253Y-74093632D01*
X44992514Y-74094090D01*
X44992517Y-74094091D01*
X45052127Y-74100500D01*
X46147872Y-74100499D01*
X46207483Y-74094091D01*
X46207487Y-74094089D01*
X46211743Y-74093632D01*
X46238253Y-74093632D01*
X46242514Y-74094090D01*
X46242517Y-74094091D01*
X46302127Y-74100500D01*
X47325500Y-74100499D01*
X47392539Y-74120183D01*
X47438294Y-74172987D01*
X47449500Y-74224499D01*
X47449500Y-75247870D01*
X47449501Y-75247879D01*
X47456367Y-75311751D01*
X47456367Y-75338257D01*
X47455909Y-75342516D01*
X47455909Y-75342517D01*
X47449500Y-75402127D01*
X47449500Y-75402128D01*
X47449500Y-75402132D01*
X47449500Y-76497870D01*
X47449501Y-76497879D01*
X47456367Y-76561751D01*
X47456367Y-76588257D01*
X47455909Y-76592516D01*
X47455909Y-76592517D01*
X47449500Y-76652127D01*
X47449500Y-76652128D01*
X47449500Y-76652132D01*
X47449500Y-76652135D01*
X47449501Y-77700500D01*
X47429817Y-77767539D01*
X47377013Y-77813294D01*
X47325501Y-77824500D01*
X44803748Y-77824500D01*
X44736709Y-77804815D01*
X44711600Y-77783474D01*
X44705873Y-77777114D01*
X44705869Y-77777110D01*
X44552734Y-77665851D01*
X44552729Y-77665848D01*
X44379807Y-77588857D01*
X44379802Y-77588855D01*
X44234000Y-77557865D01*
X44194646Y-77549500D01*
X44005354Y-77549500D01*
X43972897Y-77556398D01*
X43820197Y-77588855D01*
X43820192Y-77588857D01*
X43647270Y-77665848D01*
X43647265Y-77665851D01*
X43494129Y-77777111D01*
X43367466Y-77917785D01*
X43272821Y-78081715D01*
X43272818Y-78081722D01*
X43214327Y-78261740D01*
X43214326Y-78261744D01*
X43194540Y-78450000D01*
X43214326Y-78638256D01*
X43214327Y-78638259D01*
X43272818Y-78818277D01*
X43272821Y-78818284D01*
X43367467Y-78982216D01*
X43482355Y-79109812D01*
X43494129Y-79122888D01*
X43647265Y-79234148D01*
X43647270Y-79234151D01*
X43820192Y-79311142D01*
X43820197Y-79311144D01*
X44005354Y-79350500D01*
X44005355Y-79350500D01*
X44194644Y-79350500D01*
X44194646Y-79350500D01*
X44379803Y-79311144D01*
X44552730Y-79234151D01*
X44705871Y-79122888D01*
X44708788Y-79119647D01*
X44711600Y-79116526D01*
X44771087Y-79079879D01*
X44803748Y-79075500D01*
X45104169Y-79075500D01*
X45171208Y-79095185D01*
X45216963Y-79147989D01*
X45226907Y-79217147D01*
X45222099Y-79237818D01*
X45214326Y-79261744D01*
X45194540Y-79450000D01*
X45214326Y-79638256D01*
X45214327Y-79638259D01*
X45272818Y-79818277D01*
X45272821Y-79818284D01*
X45367467Y-79982216D01*
X45463487Y-80088857D01*
X45494129Y-80122888D01*
X45647265Y-80234148D01*
X45647270Y-80234151D01*
X45820192Y-80311142D01*
X45820197Y-80311144D01*
X46005354Y-80350500D01*
X46005355Y-80350500D01*
X46194645Y-80350500D01*
X46194646Y-80350500D01*
X46284874Y-80331320D01*
X46322381Y-80330338D01*
X46322395Y-80329915D01*
X46329749Y-80330146D01*
X46330057Y-80330138D01*
X46330196Y-80330160D01*
X46376583Y-80325775D01*
X46382422Y-80325500D01*
X47326000Y-80325500D01*
X47393039Y-80345185D01*
X47438794Y-80397989D01*
X47450000Y-80449500D01*
X47450000Y-80700000D01*
X47894155Y-80700000D01*
X47900786Y-80700355D01*
X47902127Y-80700500D01*
X50297872Y-80700499D01*
X50297878Y-80700498D01*
X50297882Y-80700498D01*
X50299207Y-80700356D01*
X50305841Y-80700000D01*
X50749999Y-80700000D01*
X50750000Y-80402172D01*
X50749999Y-80402160D01*
X50743380Y-80340604D01*
X50743380Y-80314089D01*
X50744089Y-80307485D01*
X50744091Y-80307483D01*
X50750500Y-80247873D01*
X50750499Y-79152128D01*
X50744091Y-79092517D01*
X50744089Y-79092513D01*
X50743632Y-79088255D01*
X50743633Y-79061745D01*
X50745005Y-79048975D01*
X50750500Y-78997873D01*
X50750499Y-77902128D01*
X50744091Y-77842517D01*
X50744089Y-77842513D01*
X50743632Y-77838255D01*
X50743633Y-77811745D01*
X50747356Y-77777111D01*
X50750500Y-77747873D01*
X50750499Y-76652128D01*
X50744091Y-76592517D01*
X50744089Y-76592513D01*
X50743632Y-76588255D01*
X50743633Y-76561745D01*
X50748369Y-76517689D01*
X50750500Y-76497873D01*
X50750499Y-75402128D01*
X50744091Y-75342517D01*
X50744089Y-75342513D01*
X50743632Y-75338255D01*
X50743633Y-75311745D01*
X50745005Y-75298975D01*
X50750500Y-75247873D01*
X50750499Y-74152128D01*
X50744091Y-74092517D01*
X50737695Y-74075369D01*
X50693797Y-73957671D01*
X50693793Y-73957664D01*
X50607547Y-73842455D01*
X50607544Y-73842452D01*
X50492335Y-73756206D01*
X50492328Y-73756202D01*
X50357483Y-73705908D01*
X50336243Y-73703625D01*
X50271692Y-73676886D01*
X50231845Y-73619493D01*
X50225500Y-73580336D01*
X50225500Y-72648687D01*
X50245185Y-72581648D01*
X50257350Y-72565715D01*
X50275891Y-72545122D01*
X50332533Y-72482216D01*
X50427179Y-72318284D01*
X50485674Y-72138256D01*
X50505460Y-71950000D01*
X50485674Y-71761744D01*
X50427179Y-71581716D01*
X50332533Y-71417784D01*
X50205871Y-71277112D01*
X50205870Y-71277111D01*
X50052734Y-71165851D01*
X50052729Y-71165848D01*
X49879807Y-71088857D01*
X49879802Y-71088855D01*
X49733055Y-71057664D01*
X49694646Y-71049500D01*
X49505354Y-71049500D01*
X49472897Y-71056398D01*
X49320197Y-71088855D01*
X49320192Y-71088857D01*
X49147270Y-71165848D01*
X49147265Y-71165851D01*
X48994129Y-71277111D01*
X48867466Y-71417785D01*
X48772821Y-71581715D01*
X48772818Y-71581722D01*
X48740113Y-71682379D01*
X48714326Y-71761744D01*
X48694540Y-71950000D01*
X48714326Y-72138256D01*
X48714327Y-72138259D01*
X48772818Y-72318277D01*
X48772821Y-72318284D01*
X48867467Y-72482216D01*
X48910772Y-72530310D01*
X48942650Y-72565715D01*
X48972880Y-72628706D01*
X48974500Y-72648687D01*
X48974500Y-73575500D01*
X48954815Y-73642539D01*
X48902011Y-73688294D01*
X48850500Y-73699500D01*
X47974499Y-73699500D01*
X47907460Y-73679815D01*
X47861705Y-73627011D01*
X47850499Y-73575504D01*
X47850499Y-71252128D01*
X47844091Y-71192517D01*
X47834145Y-71165851D01*
X47793797Y-71057671D01*
X47793793Y-71057664D01*
X47707547Y-70942455D01*
X47707544Y-70942452D01*
X47592335Y-70856206D01*
X47592328Y-70856202D01*
X47457482Y-70805908D01*
X47457483Y-70805908D01*
X47397883Y-70799501D01*
X47397881Y-70799500D01*
X47397873Y-70799500D01*
X47397865Y-70799500D01*
X46603954Y-70799500D01*
X46536915Y-70779815D01*
X46491160Y-70727011D01*
X46481216Y-70657853D01*
X46484617Y-70643227D01*
X46485672Y-70638261D01*
X46485674Y-70638256D01*
X46505460Y-70450000D01*
X46485674Y-70261744D01*
X46427179Y-70081716D01*
X46332533Y-69917784D01*
X46205871Y-69777112D01*
X46184719Y-69761744D01*
X46052734Y-69665851D01*
X46052729Y-69665848D01*
X45879807Y-69588857D01*
X45879802Y-69588855D01*
X45731827Y-69557403D01*
X45694646Y-69549500D01*
X45571228Y-69549500D01*
X45504189Y-69529815D01*
X45458434Y-69477011D01*
X45453297Y-69463818D01*
X45402253Y-69306722D01*
X45402252Y-69306721D01*
X45402251Y-69306716D01*
X45307605Y-69142784D01*
X45180943Y-69002112D01*
X45180942Y-69002111D01*
X45027806Y-68890851D01*
X45027801Y-68890848D01*
X44854879Y-68813857D01*
X44854874Y-68813855D01*
X44709072Y-68782865D01*
X44669718Y-68774500D01*
X44480426Y-68774500D01*
X44447969Y-68781398D01*
X44295269Y-68813855D01*
X44295268Y-68813855D01*
X44267732Y-68826116D01*
X44198482Y-68835400D01*
X44135205Y-68805771D01*
X44097993Y-68746636D01*
X44094988Y-68733246D01*
X44078725Y-68635791D01*
X44001351Y-68410410D01*
X44001349Y-68410403D01*
X43887929Y-68200821D01*
X43887927Y-68200819D01*
X43887923Y-68200812D01*
X43741566Y-68012772D01*
X43741563Y-68012769D01*
X43741560Y-68012765D01*
X43566234Y-67851367D01*
X43566231Y-67851365D01*
X43566230Y-67851364D01*
X43489090Y-67800966D01*
X43366734Y-67721027D01*
X43366731Y-67721025D01*
X43366730Y-67721025D01*
X43148502Y-67625301D01*
X42917486Y-67566800D01*
X42774832Y-67554980D01*
X42739472Y-67552050D01*
X42620528Y-67552050D01*
X42588362Y-67554715D01*
X42442513Y-67566800D01*
X42389160Y-67580311D01*
X42319340Y-67577686D01*
X42262022Y-67537729D01*
X42235406Y-67473128D01*
X42240789Y-67421787D01*
X42289476Y-67271944D01*
X42289478Y-67271939D01*
X42289922Y-67267713D01*
X42316500Y-67203103D01*
X42373795Y-67163114D01*
X42441835Y-67160014D01*
X42592829Y-67195800D01*
X42592831Y-67195800D01*
X42723429Y-67195800D01*
X42723436Y-67195800D01*
X42853164Y-67180637D01*
X43016993Y-67121008D01*
X43162654Y-67025205D01*
X43282296Y-66898393D01*
X43369467Y-66747407D01*
X43419469Y-66580388D01*
X43429607Y-66406340D01*
X43399332Y-66234646D01*
X43330279Y-66074562D01*
X43320442Y-66061349D01*
X43226167Y-65934716D01*
X43092614Y-65822651D01*
X43092612Y-65822650D01*
X42936818Y-65744407D01*
X42936816Y-65744406D01*
X42936815Y-65744406D01*
X42767171Y-65704200D01*
X42636564Y-65704200D01*
X42523051Y-65717467D01*
X42506835Y-65719363D01*
X42506831Y-65719364D01*
X42455869Y-65737913D01*
X42386140Y-65742344D01*
X42325084Y-65708373D01*
X42292087Y-65646786D01*
X42290140Y-65634362D01*
X42289478Y-65628061D01*
X42263816Y-65549082D01*
X42240789Y-65478212D01*
X42238794Y-65408371D01*
X42274874Y-65348538D01*
X42337575Y-65317710D01*
X42389159Y-65319688D01*
X42442510Y-65333199D01*
X42620528Y-65347950D01*
X42620530Y-65347950D01*
X42739470Y-65347950D01*
X42739472Y-65347950D01*
X42917490Y-65333199D01*
X43148502Y-65274699D01*
X43366734Y-65178973D01*
X43566234Y-65048633D01*
X43599768Y-65017763D01*
X48745787Y-65017763D01*
X48775413Y-65287013D01*
X48775415Y-65287024D01*
X48843926Y-65549082D01*
X48843928Y-65549088D01*
X48949870Y-65798390D01*
X49041959Y-65949283D01*
X49090979Y-66029605D01*
X49090986Y-66029615D01*
X49264253Y-66237819D01*
X49264259Y-66237824D01*
X49465998Y-66418582D01*
X49691910Y-66568044D01*
X49937176Y-66683020D01*
X49937183Y-66683022D01*
X49937185Y-66683023D01*
X50196557Y-66761057D01*
X50196564Y-66761058D01*
X50196569Y-66761060D01*
X50464561Y-66800500D01*
X50464566Y-66800500D01*
X50667636Y-66800500D01*
X50719133Y-66796730D01*
X50870156Y-66785677D01*
X50983601Y-66760406D01*
X51134546Y-66726782D01*
X51134548Y-66726781D01*
X51134553Y-66726780D01*
X51387558Y-66630014D01*
X51623777Y-66497441D01*
X51838177Y-66331888D01*
X52026186Y-66136881D01*
X52183799Y-65916579D01*
X52273379Y-65742344D01*
X52307649Y-65675690D01*
X52307651Y-65675684D01*
X52307656Y-65675675D01*
X52395118Y-65419305D01*
X52444319Y-65152933D01*
X52454212Y-64882235D01*
X52424586Y-64612982D01*
X52356072Y-64350912D01*
X52250130Y-64101610D01*
X52109018Y-63870390D01*
X52042823Y-63790848D01*
X51935746Y-63662180D01*
X51935740Y-63662175D01*
X51734002Y-63481418D01*
X51508092Y-63331957D01*
X51470774Y-63314463D01*
X51262824Y-63216980D01*
X51262819Y-63216978D01*
X51262814Y-63216976D01*
X51003442Y-63138942D01*
X51003428Y-63138939D01*
X50880327Y-63120823D01*
X50735439Y-63099500D01*
X50532369Y-63099500D01*
X50532364Y-63099500D01*
X50329844Y-63114323D01*
X50329831Y-63114325D01*
X50065453Y-63173217D01*
X50065446Y-63173220D01*
X49812439Y-63269987D01*
X49576226Y-63402557D01*
X49361822Y-63568112D01*
X49173822Y-63763109D01*
X49173816Y-63763116D01*
X49016202Y-63983419D01*
X49016199Y-63983424D01*
X48892350Y-64224309D01*
X48892343Y-64224327D01*
X48804884Y-64480685D01*
X48804881Y-64480699D01*
X48780449Y-64612975D01*
X48763754Y-64703363D01*
X48755681Y-64747068D01*
X48755680Y-64747075D01*
X48745787Y-65017763D01*
X43599768Y-65017763D01*
X43741560Y-64887235D01*
X43838262Y-64762991D01*
X43887923Y-64699187D01*
X43887924Y-64699185D01*
X43887929Y-64699179D01*
X44001349Y-64489597D01*
X44078726Y-64264206D01*
X44117950Y-64029152D01*
X44117950Y-63790848D01*
X44078726Y-63555794D01*
X44001349Y-63330403D01*
X43887929Y-63120821D01*
X43887927Y-63120819D01*
X43887923Y-63120812D01*
X43741566Y-62932772D01*
X43741563Y-62932769D01*
X43741560Y-62932765D01*
X43566234Y-62771367D01*
X43566231Y-62771365D01*
X43566230Y-62771364D01*
X43489090Y-62720966D01*
X43366734Y-62641027D01*
X43366731Y-62641025D01*
X43366730Y-62641025D01*
X43148502Y-62545301D01*
X42917486Y-62486800D01*
X42774832Y-62474980D01*
X42739472Y-62472050D01*
X42620528Y-62472050D01*
X42588362Y-62474715D01*
X42442513Y-62486800D01*
X42211497Y-62545301D01*
X41993269Y-62641025D01*
X41793769Y-62771364D01*
X41618443Y-62932762D01*
X41618433Y-62932772D01*
X41472076Y-63120812D01*
X41472069Y-63120823D01*
X41358654Y-63330396D01*
X41358648Y-63330410D01*
X41281274Y-63555791D01*
X41261595Y-63673724D01*
X41242050Y-63790848D01*
X41242050Y-64029152D01*
X41254141Y-64101610D01*
X41281274Y-64264208D01*
X41358648Y-64489589D01*
X41358654Y-64489603D01*
X41472069Y-64699176D01*
X41472071Y-64699180D01*
X41488773Y-64720638D01*
X41514415Y-64785632D01*
X41500848Y-64854172D01*
X41452380Y-64904497D01*
X41390919Y-64920800D01*
X41316016Y-64920800D01*
X41132157Y-64959879D01*
X41132149Y-64959881D01*
X40960437Y-65036334D01*
X40960432Y-65036336D01*
X40847885Y-65118107D01*
X40782079Y-65141587D01*
X40714025Y-65125761D01*
X40702115Y-65118107D01*
X40589567Y-65036336D01*
X40589564Y-65036334D01*
X40589563Y-65036334D01*
X40518254Y-65004585D01*
X40417850Y-64959881D01*
X40417842Y-64959879D01*
X40233984Y-64920800D01*
X40064541Y-64920800D01*
X39997502Y-64901115D01*
X39951747Y-64848311D01*
X39941803Y-64779153D01*
X39946610Y-64758482D01*
X39965878Y-64699180D01*
X39985674Y-64638256D01*
X40005460Y-64450000D01*
X39985674Y-64261744D01*
X39927179Y-64081716D01*
X39832533Y-63917784D01*
X39705871Y-63777112D01*
X39705870Y-63777111D01*
X39552734Y-63665851D01*
X39552729Y-63665848D01*
X39379807Y-63588857D01*
X39379802Y-63588855D01*
X39224243Y-63555791D01*
X39194646Y-63549500D01*
X39005354Y-63549500D01*
X38975757Y-63555791D01*
X38820197Y-63588855D01*
X38820192Y-63588857D01*
X38650436Y-63664439D01*
X38581186Y-63673724D01*
X38549564Y-63664439D01*
X38379807Y-63588857D01*
X38379802Y-63588855D01*
X38224243Y-63555791D01*
X38194646Y-63549500D01*
X38005354Y-63549500D01*
X37975757Y-63555791D01*
X37820197Y-63588855D01*
X37820192Y-63588857D01*
X37647270Y-63665848D01*
X37647267Y-63665850D01*
X37629402Y-63678830D01*
X37563595Y-63702308D01*
X37495542Y-63686481D01*
X37446848Y-63636374D01*
X37438588Y-63616828D01*
X37427181Y-63581722D01*
X37427180Y-63581721D01*
X37427179Y-63581716D01*
X37332533Y-63417784D01*
X37205871Y-63277112D01*
X37205870Y-63277111D01*
X37052734Y-63165851D01*
X37052729Y-63165848D01*
X36879807Y-63088857D01*
X36879802Y-63088855D01*
X36734001Y-63057865D01*
X36694646Y-63049500D01*
X36505354Y-63049500D01*
X36472897Y-63056398D01*
X36320197Y-63088855D01*
X36320192Y-63088857D01*
X36147270Y-63165848D01*
X36147265Y-63165851D01*
X35994129Y-63277111D01*
X35994128Y-63277112D01*
X35938927Y-63338419D01*
X35879440Y-63375067D01*
X35809583Y-63373736D01*
X35751535Y-63334849D01*
X35737723Y-63314463D01*
X35642736Y-63138942D01*
X35632929Y-63120821D01*
X35632927Y-63120819D01*
X35632923Y-63120812D01*
X35486566Y-62932772D01*
X35486563Y-62932769D01*
X35486560Y-62932765D01*
X35311234Y-62771367D01*
X35311231Y-62771365D01*
X35311230Y-62771364D01*
X35234089Y-62720966D01*
X35111734Y-62641027D01*
X35111731Y-62641025D01*
X35111730Y-62641025D01*
X34893502Y-62545301D01*
X34662486Y-62486800D01*
X34519832Y-62474980D01*
X34484472Y-62472050D01*
X34365528Y-62472050D01*
X34333362Y-62474715D01*
X34187513Y-62486800D01*
X33956497Y-62545301D01*
X33738269Y-62641025D01*
X33538769Y-62771364D01*
X33363443Y-62932762D01*
X33363433Y-62932772D01*
X33217076Y-63120812D01*
X33217069Y-63120823D01*
X33103654Y-63330396D01*
X33103648Y-63330410D01*
X33026274Y-63555791D01*
X33006595Y-63673724D01*
X32987050Y-63790848D01*
X32987050Y-64029152D01*
X32999141Y-64101610D01*
X33026274Y-64264208D01*
X33103648Y-64489589D01*
X33103654Y-64489603D01*
X33217069Y-64699176D01*
X33217076Y-64699187D01*
X33350843Y-64871051D01*
X33376486Y-64936045D01*
X33362919Y-65004585D01*
X33325877Y-65047530D01*
X33318727Y-65052725D01*
X33252922Y-65076206D01*
X33184867Y-65060382D01*
X33146377Y-65026456D01*
X33102917Y-64968079D01*
X33066168Y-64918717D01*
X33049221Y-64904497D01*
X32932614Y-64806651D01*
X32932612Y-64806650D01*
X32776818Y-64728407D01*
X32776816Y-64728406D01*
X32776815Y-64728406D01*
X32607171Y-64688200D01*
X32476564Y-64688200D01*
X32363051Y-64701467D01*
X32346835Y-64703363D01*
X32346832Y-64703364D01*
X32183008Y-64762991D01*
X32183004Y-64762993D01*
X32037348Y-64858792D01*
X32037347Y-64858793D01*
X31917706Y-64985603D01*
X31917703Y-64985609D01*
X31830534Y-65136590D01*
X31780531Y-65303610D01*
X31780530Y-65303616D01*
X31772045Y-65449293D01*
X31770393Y-65477660D01*
X31800668Y-65649354D01*
X31869721Y-65809438D01*
X31869722Y-65809440D01*
X31869724Y-65809443D01*
X31924034Y-65882393D01*
X31973832Y-65949283D01*
X32107386Y-66061349D01*
X32263185Y-66139594D01*
X32432829Y-66179800D01*
X32432831Y-66179800D01*
X32563429Y-66179800D01*
X32563436Y-66179800D01*
X32693164Y-66164637D01*
X32815855Y-66119980D01*
X32885583Y-66115550D01*
X32946639Y-66149520D01*
X32964465Y-66175655D01*
X32965818Y-66174875D01*
X33062997Y-66343195D01*
X33084119Y-66366653D01*
X33114349Y-66429644D01*
X33105724Y-66498979D01*
X33084122Y-66532594D01*
X33062595Y-66556502D01*
X33062590Y-66556509D01*
X32965589Y-66724521D01*
X32915022Y-66772737D01*
X32846415Y-66785960D01*
X32802553Y-66773332D01*
X32776815Y-66760406D01*
X32607171Y-66720200D01*
X32476564Y-66720200D01*
X32363051Y-66733467D01*
X32346835Y-66735363D01*
X32346832Y-66735364D01*
X32183008Y-66794991D01*
X32183004Y-66794993D01*
X32037348Y-66890792D01*
X32037347Y-66890793D01*
X31917706Y-67017603D01*
X31917703Y-67017609D01*
X31830534Y-67168590D01*
X31780531Y-67335610D01*
X31780530Y-67335616D01*
X31775511Y-67421787D01*
X31770393Y-67509660D01*
X24100500Y-67509660D01*
X24100500Y-65017763D01*
X25745787Y-65017763D01*
X25775413Y-65287013D01*
X25775415Y-65287024D01*
X25843926Y-65549082D01*
X25843928Y-65549088D01*
X25949870Y-65798390D01*
X26041959Y-65949283D01*
X26090979Y-66029605D01*
X26090986Y-66029615D01*
X26264253Y-66237819D01*
X26264259Y-66237824D01*
X26465998Y-66418582D01*
X26691910Y-66568044D01*
X26937176Y-66683020D01*
X26937183Y-66683022D01*
X26937185Y-66683023D01*
X27196557Y-66761057D01*
X27196564Y-66761058D01*
X27196569Y-66761060D01*
X27464561Y-66800500D01*
X27464566Y-66800500D01*
X27667636Y-66800500D01*
X27719133Y-66796730D01*
X27870156Y-66785677D01*
X27983601Y-66760406D01*
X28134546Y-66726782D01*
X28134548Y-66726781D01*
X28134553Y-66726780D01*
X28387558Y-66630014D01*
X28623777Y-66497441D01*
X28838177Y-66331888D01*
X29026186Y-66136881D01*
X29183799Y-65916579D01*
X29273379Y-65742344D01*
X29307649Y-65675690D01*
X29307651Y-65675684D01*
X29307656Y-65675675D01*
X29395118Y-65419305D01*
X29444319Y-65152933D01*
X29454212Y-64882235D01*
X29424586Y-64612982D01*
X29356072Y-64350912D01*
X29250130Y-64101610D01*
X29109018Y-63870390D01*
X29042823Y-63790848D01*
X28935746Y-63662180D01*
X28935740Y-63662175D01*
X28734002Y-63481418D01*
X28508092Y-63331957D01*
X28470774Y-63314463D01*
X28262824Y-63216980D01*
X28262819Y-63216978D01*
X28262814Y-63216976D01*
X28003442Y-63138942D01*
X28003428Y-63138939D01*
X27880327Y-63120823D01*
X27735439Y-63099500D01*
X27532369Y-63099500D01*
X27532364Y-63099500D01*
X27329844Y-63114323D01*
X27329831Y-63114325D01*
X27065453Y-63173217D01*
X27065446Y-63173220D01*
X26812439Y-63269987D01*
X26576226Y-63402557D01*
X26361822Y-63568112D01*
X26173822Y-63763109D01*
X26173816Y-63763116D01*
X26016202Y-63983419D01*
X26016199Y-63983424D01*
X25892350Y-64224309D01*
X25892343Y-64224327D01*
X25804884Y-64480685D01*
X25804881Y-64480699D01*
X25780449Y-64612975D01*
X25763754Y-64703363D01*
X25755681Y-64747068D01*
X25755680Y-64747075D01*
X25745787Y-65017763D01*
X24100500Y-65017763D01*
X24100500Y-61574500D01*
X24120185Y-61507461D01*
X24172989Y-61461706D01*
X24224500Y-61450500D01*
X53975500Y-61450500D01*
X54042539Y-61470185D01*
G37*
%TD.AperFunction*%
%TD*%
M02*
