%TF.GenerationSoftware,KiCad,Pcbnew,7.0.8-7.0.8~ubuntu22.04.1*%
%TF.CreationDate,2023-10-23T06:40:44-04:00*%
%TF.ProjectId,DDRN_Hardware,4444524e-5f48-4617-9264-776172652e6b,rev?*%
%TF.SameCoordinates,Original*%
%TF.FileFunction,Legend,Bot*%
%TF.FilePolarity,Positive*%
%FSLAX46Y46*%
G04 Gerber Fmt 4.6, Leading zero omitted, Abs format (unit mm)*
G04 Created by KiCad (PCBNEW 7.0.8-7.0.8~ubuntu22.04.1) date 2023-10-23 06:40:44*
%MOMM*%
%LPD*%
G01*
G04 APERTURE LIST*
%ADD10C,0.150000*%
G04 APERTURE END LIST*
D10*
X60358458Y-133319819D02*
X59739411Y-133319819D01*
X59739411Y-133319819D02*
X60072744Y-133700771D01*
X60072744Y-133700771D02*
X59929887Y-133700771D01*
X59929887Y-133700771D02*
X59834649Y-133748390D01*
X59834649Y-133748390D02*
X59787030Y-133796009D01*
X59787030Y-133796009D02*
X59739411Y-133891247D01*
X59739411Y-133891247D02*
X59739411Y-134129342D01*
X59739411Y-134129342D02*
X59787030Y-134224580D01*
X59787030Y-134224580D02*
X59834649Y-134272200D01*
X59834649Y-134272200D02*
X59929887Y-134319819D01*
X59929887Y-134319819D02*
X60215601Y-134319819D01*
X60215601Y-134319819D02*
X60310839Y-134272200D01*
X60310839Y-134272200D02*
X60358458Y-134224580D01*
X59120363Y-133319819D02*
X59025125Y-133319819D01*
X59025125Y-133319819D02*
X58929887Y-133367438D01*
X58929887Y-133367438D02*
X58882268Y-133415057D01*
X58882268Y-133415057D02*
X58834649Y-133510295D01*
X58834649Y-133510295D02*
X58787030Y-133700771D01*
X58787030Y-133700771D02*
X58787030Y-133938866D01*
X58787030Y-133938866D02*
X58834649Y-134129342D01*
X58834649Y-134129342D02*
X58882268Y-134224580D01*
X58882268Y-134224580D02*
X58929887Y-134272200D01*
X58929887Y-134272200D02*
X59025125Y-134319819D01*
X59025125Y-134319819D02*
X59120363Y-134319819D01*
X59120363Y-134319819D02*
X59215601Y-134272200D01*
X59215601Y-134272200D02*
X59263220Y-134224580D01*
X59263220Y-134224580D02*
X59310839Y-134129342D01*
X59310839Y-134129342D02*
X59358458Y-133938866D01*
X59358458Y-133938866D02*
X59358458Y-133700771D01*
X59358458Y-133700771D02*
X59310839Y-133510295D01*
X59310839Y-133510295D02*
X59263220Y-133415057D01*
X59263220Y-133415057D02*
X59215601Y-133367438D01*
X59215601Y-133367438D02*
X59120363Y-133319819D01*
X58453696Y-133653152D02*
X58215601Y-134319819D01*
X58215601Y-134319819D02*
X57977506Y-133653152D01*
X57596553Y-134224580D02*
X57548934Y-134272200D01*
X57548934Y-134272200D02*
X57596553Y-134319819D01*
X57596553Y-134319819D02*
X57644172Y-134272200D01*
X57644172Y-134272200D02*
X57596553Y-134224580D01*
X57596553Y-134224580D02*
X57596553Y-134319819D01*
X57596553Y-133938866D02*
X57644172Y-133367438D01*
X57644172Y-133367438D02*
X57596553Y-133319819D01*
X57596553Y-133319819D02*
X57548934Y-133367438D01*
X57548934Y-133367438D02*
X57596553Y-133938866D01*
X57596553Y-133938866D02*
X57596553Y-133319819D01*
X57120363Y-134224580D02*
X57072744Y-134272200D01*
X57072744Y-134272200D02*
X57120363Y-134319819D01*
X57120363Y-134319819D02*
X57167982Y-134272200D01*
X57167982Y-134272200D02*
X57120363Y-134224580D01*
X57120363Y-134224580D02*
X57120363Y-134319819D01*
X57120363Y-133938866D02*
X57167982Y-133367438D01*
X57167982Y-133367438D02*
X57120363Y-133319819D01*
X57120363Y-133319819D02*
X57072744Y-133367438D01*
X57072744Y-133367438D02*
X57120363Y-133938866D01*
X57120363Y-133938866D02*
X57120363Y-133319819D01*
X56644173Y-134224580D02*
X56596554Y-134272200D01*
X56596554Y-134272200D02*
X56644173Y-134319819D01*
X56644173Y-134319819D02*
X56691792Y-134272200D01*
X56691792Y-134272200D02*
X56644173Y-134224580D01*
X56644173Y-134224580D02*
X56644173Y-134319819D01*
X56644173Y-133938866D02*
X56691792Y-133367438D01*
X56691792Y-133367438D02*
X56644173Y-133319819D01*
X56644173Y-133319819D02*
X56596554Y-133367438D01*
X56596554Y-133367438D02*
X56644173Y-133938866D01*
X56644173Y-133938866D02*
X56644173Y-133319819D01*
X85560839Y-143534104D02*
X85084649Y-143534104D01*
X85656077Y-143819819D02*
X85322744Y-142819819D01*
X85322744Y-142819819D02*
X84989411Y-143819819D01*
X84656077Y-143153152D02*
X84656077Y-143819819D01*
X84656077Y-143248390D02*
X84608458Y-143200771D01*
X84608458Y-143200771D02*
X84513220Y-143153152D01*
X84513220Y-143153152D02*
X84370363Y-143153152D01*
X84370363Y-143153152D02*
X84275125Y-143200771D01*
X84275125Y-143200771D02*
X84227506Y-143296009D01*
X84227506Y-143296009D02*
X84227506Y-143819819D01*
X83751315Y-143153152D02*
X83751315Y-143819819D01*
X83751315Y-143248390D02*
X83703696Y-143200771D01*
X83703696Y-143200771D02*
X83608458Y-143153152D01*
X83608458Y-143153152D02*
X83465601Y-143153152D01*
X83465601Y-143153152D02*
X83370363Y-143200771D01*
X83370363Y-143200771D02*
X83322744Y-143296009D01*
X83322744Y-143296009D02*
X83322744Y-143819819D01*
X82465601Y-143772200D02*
X82560839Y-143819819D01*
X82560839Y-143819819D02*
X82751315Y-143819819D01*
X82751315Y-143819819D02*
X82846553Y-143772200D01*
X82846553Y-143772200D02*
X82894172Y-143676961D01*
X82894172Y-143676961D02*
X82894172Y-143296009D01*
X82894172Y-143296009D02*
X82846553Y-143200771D01*
X82846553Y-143200771D02*
X82751315Y-143153152D01*
X82751315Y-143153152D02*
X82560839Y-143153152D01*
X82560839Y-143153152D02*
X82465601Y-143200771D01*
X82465601Y-143200771D02*
X82417982Y-143296009D01*
X82417982Y-143296009D02*
X82417982Y-143391247D01*
X82417982Y-143391247D02*
X82894172Y-143486485D01*
X81560839Y-143819819D02*
X81560839Y-143296009D01*
X81560839Y-143296009D02*
X81608458Y-143200771D01*
X81608458Y-143200771D02*
X81703696Y-143153152D01*
X81703696Y-143153152D02*
X81894172Y-143153152D01*
X81894172Y-143153152D02*
X81989410Y-143200771D01*
X81560839Y-143772200D02*
X81656077Y-143819819D01*
X81656077Y-143819819D02*
X81894172Y-143819819D01*
X81894172Y-143819819D02*
X81989410Y-143772200D01*
X81989410Y-143772200D02*
X82037029Y-143676961D01*
X82037029Y-143676961D02*
X82037029Y-143581723D01*
X82037029Y-143581723D02*
X81989410Y-143486485D01*
X81989410Y-143486485D02*
X81894172Y-143438866D01*
X81894172Y-143438866D02*
X81656077Y-143438866D01*
X81656077Y-143438866D02*
X81560839Y-143391247D01*
X80941791Y-143819819D02*
X81037029Y-143772200D01*
X81037029Y-143772200D02*
X81084648Y-143676961D01*
X81084648Y-143676961D02*
X81084648Y-142819819D01*
X80798934Y-143915057D02*
X80037029Y-143915057D01*
X79798933Y-143296009D02*
X79465600Y-143296009D01*
X79322743Y-143819819D02*
X79798933Y-143819819D01*
X79798933Y-143819819D02*
X79798933Y-142819819D01*
X79798933Y-142819819D02*
X79322743Y-142819819D01*
X78894171Y-143153152D02*
X78894171Y-143819819D01*
X78894171Y-143248390D02*
X78846552Y-143200771D01*
X78846552Y-143200771D02*
X78751314Y-143153152D01*
X78751314Y-143153152D02*
X78608457Y-143153152D01*
X78608457Y-143153152D02*
X78513219Y-143200771D01*
X78513219Y-143200771D02*
X78465600Y-143296009D01*
X78465600Y-143296009D02*
X78465600Y-143819819D01*
X77560838Y-143819819D02*
X77560838Y-143296009D01*
X77560838Y-143296009D02*
X77608457Y-143200771D01*
X77608457Y-143200771D02*
X77703695Y-143153152D01*
X77703695Y-143153152D02*
X77894171Y-143153152D01*
X77894171Y-143153152D02*
X77989409Y-143200771D01*
X77560838Y-143772200D02*
X77656076Y-143819819D01*
X77656076Y-143819819D02*
X77894171Y-143819819D01*
X77894171Y-143819819D02*
X77989409Y-143772200D01*
X77989409Y-143772200D02*
X78037028Y-143676961D01*
X78037028Y-143676961D02*
X78037028Y-143581723D01*
X78037028Y-143581723D02*
X77989409Y-143486485D01*
X77989409Y-143486485D02*
X77894171Y-143438866D01*
X77894171Y-143438866D02*
X77656076Y-143438866D01*
X77656076Y-143438866D02*
X77560838Y-143391247D01*
X77084647Y-143819819D02*
X77084647Y-142819819D01*
X77084647Y-143200771D02*
X76989409Y-143153152D01*
X76989409Y-143153152D02*
X76798933Y-143153152D01*
X76798933Y-143153152D02*
X76703695Y-143200771D01*
X76703695Y-143200771D02*
X76656076Y-143248390D01*
X76656076Y-143248390D02*
X76608457Y-143343628D01*
X76608457Y-143343628D02*
X76608457Y-143629342D01*
X76608457Y-143629342D02*
X76656076Y-143724580D01*
X76656076Y-143724580D02*
X76703695Y-143772200D01*
X76703695Y-143772200D02*
X76798933Y-143819819D01*
X76798933Y-143819819D02*
X76989409Y-143819819D01*
X76989409Y-143819819D02*
X77084647Y-143772200D01*
X76037028Y-143819819D02*
X76132266Y-143772200D01*
X76132266Y-143772200D02*
X76179885Y-143676961D01*
X76179885Y-143676961D02*
X76179885Y-142819819D01*
X75275123Y-143772200D02*
X75370361Y-143819819D01*
X75370361Y-143819819D02*
X75560837Y-143819819D01*
X75560837Y-143819819D02*
X75656075Y-143772200D01*
X75656075Y-143772200D02*
X75703694Y-143676961D01*
X75703694Y-143676961D02*
X75703694Y-143296009D01*
X75703694Y-143296009D02*
X75656075Y-143200771D01*
X75656075Y-143200771D02*
X75560837Y-143153152D01*
X75560837Y-143153152D02*
X75370361Y-143153152D01*
X75370361Y-143153152D02*
X75275123Y-143200771D01*
X75275123Y-143200771D02*
X75227504Y-143296009D01*
X75227504Y-143296009D02*
X75227504Y-143391247D01*
X75227504Y-143391247D02*
X75703694Y-143486485D01*
X84310839Y-141272200D02*
X84167982Y-141319819D01*
X84167982Y-141319819D02*
X83929887Y-141319819D01*
X83929887Y-141319819D02*
X83834649Y-141272200D01*
X83834649Y-141272200D02*
X83787030Y-141224580D01*
X83787030Y-141224580D02*
X83739411Y-141129342D01*
X83739411Y-141129342D02*
X83739411Y-141034104D01*
X83739411Y-141034104D02*
X83787030Y-140938866D01*
X83787030Y-140938866D02*
X83834649Y-140891247D01*
X83834649Y-140891247D02*
X83929887Y-140843628D01*
X83929887Y-140843628D02*
X84120363Y-140796009D01*
X84120363Y-140796009D02*
X84215601Y-140748390D01*
X84215601Y-140748390D02*
X84263220Y-140700771D01*
X84263220Y-140700771D02*
X84310839Y-140605533D01*
X84310839Y-140605533D02*
X84310839Y-140510295D01*
X84310839Y-140510295D02*
X84263220Y-140415057D01*
X84263220Y-140415057D02*
X84215601Y-140367438D01*
X84215601Y-140367438D02*
X84120363Y-140319819D01*
X84120363Y-140319819D02*
X83882268Y-140319819D01*
X83882268Y-140319819D02*
X83739411Y-140367438D01*
X83453696Y-140653152D02*
X83072744Y-140653152D01*
X83310839Y-140319819D02*
X83310839Y-141176961D01*
X83310839Y-141176961D02*
X83263220Y-141272200D01*
X83263220Y-141272200D02*
X83167982Y-141319819D01*
X83167982Y-141319819D02*
X83072744Y-141319819D01*
X82739410Y-141319819D02*
X82739410Y-140653152D01*
X82739410Y-140319819D02*
X82787029Y-140367438D01*
X82787029Y-140367438D02*
X82739410Y-140415057D01*
X82739410Y-140415057D02*
X82691791Y-140367438D01*
X82691791Y-140367438D02*
X82739410Y-140319819D01*
X82739410Y-140319819D02*
X82739410Y-140415057D01*
X82263220Y-141319819D02*
X82263220Y-140653152D01*
X82263220Y-140748390D02*
X82215601Y-140700771D01*
X82215601Y-140700771D02*
X82120363Y-140653152D01*
X82120363Y-140653152D02*
X81977506Y-140653152D01*
X81977506Y-140653152D02*
X81882268Y-140700771D01*
X81882268Y-140700771D02*
X81834649Y-140796009D01*
X81834649Y-140796009D02*
X81834649Y-141319819D01*
X81834649Y-140796009D02*
X81787030Y-140700771D01*
X81787030Y-140700771D02*
X81691792Y-140653152D01*
X81691792Y-140653152D02*
X81548935Y-140653152D01*
X81548935Y-140653152D02*
X81453696Y-140700771D01*
X81453696Y-140700771D02*
X81406077Y-140796009D01*
X81406077Y-140796009D02*
X81406077Y-141319819D01*
X81167983Y-141415057D02*
X80406078Y-141415057D01*
X80167982Y-140796009D02*
X79834649Y-140796009D01*
X79691792Y-141319819D02*
X80167982Y-141319819D01*
X80167982Y-141319819D02*
X80167982Y-140319819D01*
X80167982Y-140319819D02*
X79691792Y-140319819D01*
X79263220Y-140653152D02*
X79263220Y-141319819D01*
X79263220Y-140748390D02*
X79215601Y-140700771D01*
X79215601Y-140700771D02*
X79120363Y-140653152D01*
X79120363Y-140653152D02*
X78977506Y-140653152D01*
X78977506Y-140653152D02*
X78882268Y-140700771D01*
X78882268Y-140700771D02*
X78834649Y-140796009D01*
X78834649Y-140796009D02*
X78834649Y-141319819D01*
X77929887Y-141319819D02*
X77929887Y-140796009D01*
X77929887Y-140796009D02*
X77977506Y-140700771D01*
X77977506Y-140700771D02*
X78072744Y-140653152D01*
X78072744Y-140653152D02*
X78263220Y-140653152D01*
X78263220Y-140653152D02*
X78358458Y-140700771D01*
X77929887Y-141272200D02*
X78025125Y-141319819D01*
X78025125Y-141319819D02*
X78263220Y-141319819D01*
X78263220Y-141319819D02*
X78358458Y-141272200D01*
X78358458Y-141272200D02*
X78406077Y-141176961D01*
X78406077Y-141176961D02*
X78406077Y-141081723D01*
X78406077Y-141081723D02*
X78358458Y-140986485D01*
X78358458Y-140986485D02*
X78263220Y-140938866D01*
X78263220Y-140938866D02*
X78025125Y-140938866D01*
X78025125Y-140938866D02*
X77929887Y-140891247D01*
X77453696Y-141319819D02*
X77453696Y-140319819D01*
X77453696Y-140700771D02*
X77358458Y-140653152D01*
X77358458Y-140653152D02*
X77167982Y-140653152D01*
X77167982Y-140653152D02*
X77072744Y-140700771D01*
X77072744Y-140700771D02*
X77025125Y-140748390D01*
X77025125Y-140748390D02*
X76977506Y-140843628D01*
X76977506Y-140843628D02*
X76977506Y-141129342D01*
X76977506Y-141129342D02*
X77025125Y-141224580D01*
X77025125Y-141224580D02*
X77072744Y-141272200D01*
X77072744Y-141272200D02*
X77167982Y-141319819D01*
X77167982Y-141319819D02*
X77358458Y-141319819D01*
X77358458Y-141319819D02*
X77453696Y-141272200D01*
X76406077Y-141319819D02*
X76501315Y-141272200D01*
X76501315Y-141272200D02*
X76548934Y-141176961D01*
X76548934Y-141176961D02*
X76548934Y-140319819D01*
X75644172Y-141272200D02*
X75739410Y-141319819D01*
X75739410Y-141319819D02*
X75929886Y-141319819D01*
X75929886Y-141319819D02*
X76025124Y-141272200D01*
X76025124Y-141272200D02*
X76072743Y-141176961D01*
X76072743Y-141176961D02*
X76072743Y-140796009D01*
X76072743Y-140796009D02*
X76025124Y-140700771D01*
X76025124Y-140700771D02*
X75929886Y-140653152D01*
X75929886Y-140653152D02*
X75739410Y-140653152D01*
X75739410Y-140653152D02*
X75644172Y-140700771D01*
X75644172Y-140700771D02*
X75596553Y-140796009D01*
X75596553Y-140796009D02*
X75596553Y-140891247D01*
X75596553Y-140891247D02*
X76072743Y-140986485D01*
X56239411Y-138617438D02*
X56334649Y-138569819D01*
X56334649Y-138569819D02*
X56477506Y-138569819D01*
X56477506Y-138569819D02*
X56620363Y-138617438D01*
X56620363Y-138617438D02*
X56715601Y-138712676D01*
X56715601Y-138712676D02*
X56763220Y-138807914D01*
X56763220Y-138807914D02*
X56810839Y-138998390D01*
X56810839Y-138998390D02*
X56810839Y-139141247D01*
X56810839Y-139141247D02*
X56763220Y-139331723D01*
X56763220Y-139331723D02*
X56715601Y-139426961D01*
X56715601Y-139426961D02*
X56620363Y-139522200D01*
X56620363Y-139522200D02*
X56477506Y-139569819D01*
X56477506Y-139569819D02*
X56382268Y-139569819D01*
X56382268Y-139569819D02*
X56239411Y-139522200D01*
X56239411Y-139522200D02*
X56191792Y-139474580D01*
X56191792Y-139474580D02*
X56191792Y-139141247D01*
X56191792Y-139141247D02*
X56382268Y-139141247D01*
X55763220Y-139569819D02*
X55763220Y-138569819D01*
X55763220Y-138569819D02*
X55191792Y-139569819D01*
X55191792Y-139569819D02*
X55191792Y-138569819D01*
X54715601Y-139569819D02*
X54715601Y-138569819D01*
X54715601Y-138569819D02*
X54477506Y-138569819D01*
X54477506Y-138569819D02*
X54334649Y-138617438D01*
X54334649Y-138617438D02*
X54239411Y-138712676D01*
X54239411Y-138712676D02*
X54191792Y-138807914D01*
X54191792Y-138807914D02*
X54144173Y-138998390D01*
X54144173Y-138998390D02*
X54144173Y-139141247D01*
X54144173Y-139141247D02*
X54191792Y-139331723D01*
X54191792Y-139331723D02*
X54239411Y-139426961D01*
X54239411Y-139426961D02*
X54334649Y-139522200D01*
X54334649Y-139522200D02*
X54477506Y-139569819D01*
X54477506Y-139569819D02*
X54715601Y-139569819D01*
X56429887Y-136546009D02*
X56287030Y-136593628D01*
X56287030Y-136593628D02*
X56239411Y-136641247D01*
X56239411Y-136641247D02*
X56191792Y-136736485D01*
X56191792Y-136736485D02*
X56191792Y-136879342D01*
X56191792Y-136879342D02*
X56239411Y-136974580D01*
X56239411Y-136974580D02*
X56287030Y-137022200D01*
X56287030Y-137022200D02*
X56382268Y-137069819D01*
X56382268Y-137069819D02*
X56763220Y-137069819D01*
X56763220Y-137069819D02*
X56763220Y-136069819D01*
X56763220Y-136069819D02*
X56429887Y-136069819D01*
X56429887Y-136069819D02*
X56334649Y-136117438D01*
X56334649Y-136117438D02*
X56287030Y-136165057D01*
X56287030Y-136165057D02*
X56239411Y-136260295D01*
X56239411Y-136260295D02*
X56239411Y-136355533D01*
X56239411Y-136355533D02*
X56287030Y-136450771D01*
X56287030Y-136450771D02*
X56334649Y-136498390D01*
X56334649Y-136498390D02*
X56429887Y-136546009D01*
X56429887Y-136546009D02*
X56763220Y-136546009D01*
X55763220Y-137069819D02*
X55763220Y-136403152D01*
X55763220Y-136069819D02*
X55810839Y-136117438D01*
X55810839Y-136117438D02*
X55763220Y-136165057D01*
X55763220Y-136165057D02*
X55715601Y-136117438D01*
X55715601Y-136117438D02*
X55763220Y-136069819D01*
X55763220Y-136069819D02*
X55763220Y-136165057D01*
X54858459Y-137069819D02*
X54858459Y-136546009D01*
X54858459Y-136546009D02*
X54906078Y-136450771D01*
X54906078Y-136450771D02*
X55001316Y-136403152D01*
X55001316Y-136403152D02*
X55191792Y-136403152D01*
X55191792Y-136403152D02*
X55287030Y-136450771D01*
X54858459Y-137022200D02*
X54953697Y-137069819D01*
X54953697Y-137069819D02*
X55191792Y-137069819D01*
X55191792Y-137069819D02*
X55287030Y-137022200D01*
X55287030Y-137022200D02*
X55334649Y-136926961D01*
X55334649Y-136926961D02*
X55334649Y-136831723D01*
X55334649Y-136831723D02*
X55287030Y-136736485D01*
X55287030Y-136736485D02*
X55191792Y-136688866D01*
X55191792Y-136688866D02*
X54953697Y-136688866D01*
X54953697Y-136688866D02*
X54858459Y-136641247D01*
X54429887Y-137022200D02*
X54334649Y-137069819D01*
X54334649Y-137069819D02*
X54144173Y-137069819D01*
X54144173Y-137069819D02*
X54048935Y-137022200D01*
X54048935Y-137022200D02*
X54001316Y-136926961D01*
X54001316Y-136926961D02*
X54001316Y-136879342D01*
X54001316Y-136879342D02*
X54048935Y-136784104D01*
X54048935Y-136784104D02*
X54144173Y-136736485D01*
X54144173Y-136736485D02*
X54287030Y-136736485D01*
X54287030Y-136736485D02*
X54382268Y-136688866D01*
X54382268Y-136688866D02*
X54429887Y-136593628D01*
X54429887Y-136593628D02*
X54429887Y-136546009D01*
X54429887Y-136546009D02*
X54382268Y-136450771D01*
X54382268Y-136450771D02*
X54287030Y-136403152D01*
X54287030Y-136403152D02*
X54144173Y-136403152D01*
X54144173Y-136403152D02*
X54048935Y-136450771D01*
X84017438Y-124310588D02*
X83969819Y-124215350D01*
X83969819Y-124215350D02*
X83969819Y-124072493D01*
X83969819Y-124072493D02*
X84017438Y-123929636D01*
X84017438Y-123929636D02*
X84112676Y-123834398D01*
X84112676Y-123834398D02*
X84207914Y-123786779D01*
X84207914Y-123786779D02*
X84398390Y-123739160D01*
X84398390Y-123739160D02*
X84541247Y-123739160D01*
X84541247Y-123739160D02*
X84731723Y-123786779D01*
X84731723Y-123786779D02*
X84826961Y-123834398D01*
X84826961Y-123834398D02*
X84922200Y-123929636D01*
X84922200Y-123929636D02*
X84969819Y-124072493D01*
X84969819Y-124072493D02*
X84969819Y-124167731D01*
X84969819Y-124167731D02*
X84922200Y-124310588D01*
X84922200Y-124310588D02*
X84874580Y-124358207D01*
X84874580Y-124358207D02*
X84541247Y-124358207D01*
X84541247Y-124358207D02*
X84541247Y-124167731D01*
X84969819Y-124786779D02*
X83969819Y-124786779D01*
X83969819Y-124786779D02*
X84969819Y-125358207D01*
X84969819Y-125358207D02*
X83969819Y-125358207D01*
X84969819Y-125834398D02*
X83969819Y-125834398D01*
X83969819Y-125834398D02*
X83969819Y-126072493D01*
X83969819Y-126072493D02*
X84017438Y-126215350D01*
X84017438Y-126215350D02*
X84112676Y-126310588D01*
X84112676Y-126310588D02*
X84207914Y-126358207D01*
X84207914Y-126358207D02*
X84398390Y-126405826D01*
X84398390Y-126405826D02*
X84541247Y-126405826D01*
X84541247Y-126405826D02*
X84731723Y-126358207D01*
X84731723Y-126358207D02*
X84826961Y-126310588D01*
X84826961Y-126310588D02*
X84922200Y-126215350D01*
X84922200Y-126215350D02*
X84969819Y-126072493D01*
X84969819Y-126072493D02*
X84969819Y-125834398D01*
X81219819Y-123941541D02*
X81219819Y-124560588D01*
X81219819Y-124560588D02*
X81600771Y-124227255D01*
X81600771Y-124227255D02*
X81600771Y-124370112D01*
X81600771Y-124370112D02*
X81648390Y-124465350D01*
X81648390Y-124465350D02*
X81696009Y-124512969D01*
X81696009Y-124512969D02*
X81791247Y-124560588D01*
X81791247Y-124560588D02*
X82029342Y-124560588D01*
X82029342Y-124560588D02*
X82124580Y-124512969D01*
X82124580Y-124512969D02*
X82172200Y-124465350D01*
X82172200Y-124465350D02*
X82219819Y-124370112D01*
X82219819Y-124370112D02*
X82219819Y-124084398D01*
X82219819Y-124084398D02*
X82172200Y-123989160D01*
X82172200Y-123989160D02*
X82124580Y-123941541D01*
X81553152Y-124893922D02*
X82219819Y-125132017D01*
X82219819Y-125132017D02*
X81553152Y-125370112D01*
X81219819Y-125655827D02*
X81219819Y-126274874D01*
X81219819Y-126274874D02*
X81600771Y-125941541D01*
X81600771Y-125941541D02*
X81600771Y-126084398D01*
X81600771Y-126084398D02*
X81648390Y-126179636D01*
X81648390Y-126179636D02*
X81696009Y-126227255D01*
X81696009Y-126227255D02*
X81791247Y-126274874D01*
X81791247Y-126274874D02*
X82029342Y-126274874D01*
X82029342Y-126274874D02*
X82124580Y-126227255D01*
X82124580Y-126227255D02*
X82172200Y-126179636D01*
X82172200Y-126179636D02*
X82219819Y-126084398D01*
X82219819Y-126084398D02*
X82219819Y-125798684D01*
X82219819Y-125798684D02*
X82172200Y-125703446D01*
X82172200Y-125703446D02*
X82124580Y-125655827D01*
X84446009Y-105120112D02*
X84493628Y-105262969D01*
X84493628Y-105262969D02*
X84541247Y-105310588D01*
X84541247Y-105310588D02*
X84636485Y-105358207D01*
X84636485Y-105358207D02*
X84779342Y-105358207D01*
X84779342Y-105358207D02*
X84874580Y-105310588D01*
X84874580Y-105310588D02*
X84922200Y-105262969D01*
X84922200Y-105262969D02*
X84969819Y-105167731D01*
X84969819Y-105167731D02*
X84969819Y-104786779D01*
X84969819Y-104786779D02*
X83969819Y-104786779D01*
X83969819Y-104786779D02*
X83969819Y-105120112D01*
X83969819Y-105120112D02*
X84017438Y-105215350D01*
X84017438Y-105215350D02*
X84065057Y-105262969D01*
X84065057Y-105262969D02*
X84160295Y-105310588D01*
X84160295Y-105310588D02*
X84255533Y-105310588D01*
X84255533Y-105310588D02*
X84350771Y-105262969D01*
X84350771Y-105262969D02*
X84398390Y-105215350D01*
X84398390Y-105215350D02*
X84446009Y-105120112D01*
X84446009Y-105120112D02*
X84446009Y-104786779D01*
X84969819Y-106215350D02*
X84446009Y-106215350D01*
X84446009Y-106215350D02*
X84350771Y-106167731D01*
X84350771Y-106167731D02*
X84303152Y-106072493D01*
X84303152Y-106072493D02*
X84303152Y-105882017D01*
X84303152Y-105882017D02*
X84350771Y-105786779D01*
X84922200Y-106215350D02*
X84969819Y-106120112D01*
X84969819Y-106120112D02*
X84969819Y-105882017D01*
X84969819Y-105882017D02*
X84922200Y-105786779D01*
X84922200Y-105786779D02*
X84826961Y-105739160D01*
X84826961Y-105739160D02*
X84731723Y-105739160D01*
X84731723Y-105739160D02*
X84636485Y-105786779D01*
X84636485Y-105786779D02*
X84588866Y-105882017D01*
X84588866Y-105882017D02*
X84588866Y-106120112D01*
X84588866Y-106120112D02*
X84541247Y-106215350D01*
X84303152Y-106548684D02*
X84303152Y-106929636D01*
X83969819Y-106691541D02*
X84826961Y-106691541D01*
X84826961Y-106691541D02*
X84922200Y-106739160D01*
X84922200Y-106739160D02*
X84969819Y-106834398D01*
X84969819Y-106834398D02*
X84969819Y-106929636D01*
X84303152Y-107120113D02*
X84303152Y-107501065D01*
X83969819Y-107262970D02*
X84826961Y-107262970D01*
X84826961Y-107262970D02*
X84922200Y-107310589D01*
X84922200Y-107310589D02*
X84969819Y-107405827D01*
X84969819Y-107405827D02*
X84969819Y-107501065D01*
X84922200Y-108215351D02*
X84969819Y-108120113D01*
X84969819Y-108120113D02*
X84969819Y-107929637D01*
X84969819Y-107929637D02*
X84922200Y-107834399D01*
X84922200Y-107834399D02*
X84826961Y-107786780D01*
X84826961Y-107786780D02*
X84446009Y-107786780D01*
X84446009Y-107786780D02*
X84350771Y-107834399D01*
X84350771Y-107834399D02*
X84303152Y-107929637D01*
X84303152Y-107929637D02*
X84303152Y-108120113D01*
X84303152Y-108120113D02*
X84350771Y-108215351D01*
X84350771Y-108215351D02*
X84446009Y-108262970D01*
X84446009Y-108262970D02*
X84541247Y-108262970D01*
X84541247Y-108262970D02*
X84636485Y-107786780D01*
X84969819Y-108691542D02*
X84303152Y-108691542D01*
X84493628Y-108691542D02*
X84398390Y-108739161D01*
X84398390Y-108739161D02*
X84350771Y-108786780D01*
X84350771Y-108786780D02*
X84303152Y-108882018D01*
X84303152Y-108882018D02*
X84303152Y-108977256D01*
X84303152Y-109215352D02*
X84969819Y-109453447D01*
X84303152Y-109691542D02*
X84969819Y-109453447D01*
X84969819Y-109453447D02*
X85207914Y-109358209D01*
X85207914Y-109358209D02*
X85255533Y-109310590D01*
X85255533Y-109310590D02*
X85303152Y-109215352D01*
X85065057Y-109834400D02*
X85065057Y-110596304D01*
X84969819Y-110834400D02*
X83969819Y-110834400D01*
X83969819Y-110834400D02*
X84684104Y-111167733D01*
X84684104Y-111167733D02*
X83969819Y-111501066D01*
X83969819Y-111501066D02*
X84969819Y-111501066D01*
X84969819Y-112120114D02*
X84922200Y-112024876D01*
X84922200Y-112024876D02*
X84874580Y-111977257D01*
X84874580Y-111977257D02*
X84779342Y-111929638D01*
X84779342Y-111929638D02*
X84493628Y-111929638D01*
X84493628Y-111929638D02*
X84398390Y-111977257D01*
X84398390Y-111977257D02*
X84350771Y-112024876D01*
X84350771Y-112024876D02*
X84303152Y-112120114D01*
X84303152Y-112120114D02*
X84303152Y-112262971D01*
X84303152Y-112262971D02*
X84350771Y-112358209D01*
X84350771Y-112358209D02*
X84398390Y-112405828D01*
X84398390Y-112405828D02*
X84493628Y-112453447D01*
X84493628Y-112453447D02*
X84779342Y-112453447D01*
X84779342Y-112453447D02*
X84874580Y-112405828D01*
X84874580Y-112405828D02*
X84922200Y-112358209D01*
X84922200Y-112358209D02*
X84969819Y-112262971D01*
X84969819Y-112262971D02*
X84969819Y-112120114D01*
X84303152Y-112882019D02*
X84969819Y-112882019D01*
X84398390Y-112882019D02*
X84350771Y-112929638D01*
X84350771Y-112929638D02*
X84303152Y-113024876D01*
X84303152Y-113024876D02*
X84303152Y-113167733D01*
X84303152Y-113167733D02*
X84350771Y-113262971D01*
X84350771Y-113262971D02*
X84446009Y-113310590D01*
X84446009Y-113310590D02*
X84969819Y-113310590D01*
X84969819Y-113786781D02*
X84303152Y-113786781D01*
X83969819Y-113786781D02*
X84017438Y-113739162D01*
X84017438Y-113739162D02*
X84065057Y-113786781D01*
X84065057Y-113786781D02*
X84017438Y-113834400D01*
X84017438Y-113834400D02*
X83969819Y-113786781D01*
X83969819Y-113786781D02*
X84065057Y-113786781D01*
X84303152Y-114120114D02*
X84303152Y-114501066D01*
X83969819Y-114262971D02*
X84826961Y-114262971D01*
X84826961Y-114262971D02*
X84922200Y-114310590D01*
X84922200Y-114310590D02*
X84969819Y-114405828D01*
X84969819Y-114405828D02*
X84969819Y-114501066D01*
X84969819Y-114977257D02*
X84922200Y-114882019D01*
X84922200Y-114882019D02*
X84874580Y-114834400D01*
X84874580Y-114834400D02*
X84779342Y-114786781D01*
X84779342Y-114786781D02*
X84493628Y-114786781D01*
X84493628Y-114786781D02*
X84398390Y-114834400D01*
X84398390Y-114834400D02*
X84350771Y-114882019D01*
X84350771Y-114882019D02*
X84303152Y-114977257D01*
X84303152Y-114977257D02*
X84303152Y-115120114D01*
X84303152Y-115120114D02*
X84350771Y-115215352D01*
X84350771Y-115215352D02*
X84398390Y-115262971D01*
X84398390Y-115262971D02*
X84493628Y-115310590D01*
X84493628Y-115310590D02*
X84779342Y-115310590D01*
X84779342Y-115310590D02*
X84874580Y-115262971D01*
X84874580Y-115262971D02*
X84922200Y-115215352D01*
X84922200Y-115215352D02*
X84969819Y-115120114D01*
X84969819Y-115120114D02*
X84969819Y-114977257D01*
X84969819Y-115739162D02*
X84303152Y-115739162D01*
X84493628Y-115739162D02*
X84398390Y-115786781D01*
X84398390Y-115786781D02*
X84350771Y-115834400D01*
X84350771Y-115834400D02*
X84303152Y-115929638D01*
X84303152Y-115929638D02*
X84303152Y-116024876D01*
X82422200Y-104739160D02*
X82469819Y-104882017D01*
X82469819Y-104882017D02*
X82469819Y-105120112D01*
X82469819Y-105120112D02*
X82422200Y-105215350D01*
X82422200Y-105215350D02*
X82374580Y-105262969D01*
X82374580Y-105262969D02*
X82279342Y-105310588D01*
X82279342Y-105310588D02*
X82184104Y-105310588D01*
X82184104Y-105310588D02*
X82088866Y-105262969D01*
X82088866Y-105262969D02*
X82041247Y-105215350D01*
X82041247Y-105215350D02*
X81993628Y-105120112D01*
X81993628Y-105120112D02*
X81946009Y-104929636D01*
X81946009Y-104929636D02*
X81898390Y-104834398D01*
X81898390Y-104834398D02*
X81850771Y-104786779D01*
X81850771Y-104786779D02*
X81755533Y-104739160D01*
X81755533Y-104739160D02*
X81660295Y-104739160D01*
X81660295Y-104739160D02*
X81565057Y-104786779D01*
X81565057Y-104786779D02*
X81517438Y-104834398D01*
X81517438Y-104834398D02*
X81469819Y-104929636D01*
X81469819Y-104929636D02*
X81469819Y-105167731D01*
X81469819Y-105167731D02*
X81517438Y-105310588D01*
X82469819Y-105739160D02*
X81803152Y-105739160D01*
X81469819Y-105739160D02*
X81517438Y-105691541D01*
X81517438Y-105691541D02*
X81565057Y-105739160D01*
X81565057Y-105739160D02*
X81517438Y-105786779D01*
X81517438Y-105786779D02*
X81469819Y-105739160D01*
X81469819Y-105739160D02*
X81565057Y-105739160D01*
X82469819Y-106215350D02*
X81469819Y-106215350D01*
X81469819Y-106215350D02*
X81469819Y-106596302D01*
X81469819Y-106596302D02*
X81517438Y-106691540D01*
X81517438Y-106691540D02*
X81565057Y-106739159D01*
X81565057Y-106739159D02*
X81660295Y-106786778D01*
X81660295Y-106786778D02*
X81803152Y-106786778D01*
X81803152Y-106786778D02*
X81898390Y-106739159D01*
X81898390Y-106739159D02*
X81946009Y-106691540D01*
X81946009Y-106691540D02*
X81993628Y-106596302D01*
X81993628Y-106596302D02*
X81993628Y-106215350D01*
X82469819Y-107215350D02*
X81469819Y-107215350D01*
X81469819Y-107215350D02*
X82184104Y-107548683D01*
X82184104Y-107548683D02*
X81469819Y-107882016D01*
X81469819Y-107882016D02*
X82469819Y-107882016D01*
X82565057Y-108120112D02*
X82565057Y-108882016D01*
X82422200Y-109072493D02*
X82469819Y-109215350D01*
X82469819Y-109215350D02*
X82469819Y-109453445D01*
X82469819Y-109453445D02*
X82422200Y-109548683D01*
X82422200Y-109548683D02*
X82374580Y-109596302D01*
X82374580Y-109596302D02*
X82279342Y-109643921D01*
X82279342Y-109643921D02*
X82184104Y-109643921D01*
X82184104Y-109643921D02*
X82088866Y-109596302D01*
X82088866Y-109596302D02*
X82041247Y-109548683D01*
X82041247Y-109548683D02*
X81993628Y-109453445D01*
X81993628Y-109453445D02*
X81946009Y-109262969D01*
X81946009Y-109262969D02*
X81898390Y-109167731D01*
X81898390Y-109167731D02*
X81850771Y-109120112D01*
X81850771Y-109120112D02*
X81755533Y-109072493D01*
X81755533Y-109072493D02*
X81660295Y-109072493D01*
X81660295Y-109072493D02*
X81565057Y-109120112D01*
X81565057Y-109120112D02*
X81517438Y-109167731D01*
X81517438Y-109167731D02*
X81469819Y-109262969D01*
X81469819Y-109262969D02*
X81469819Y-109501064D01*
X81469819Y-109501064D02*
X81517438Y-109643921D01*
X82469819Y-110072493D02*
X81469819Y-110072493D01*
X81517438Y-111072492D02*
X81469819Y-110977254D01*
X81469819Y-110977254D02*
X81469819Y-110834397D01*
X81469819Y-110834397D02*
X81517438Y-110691540D01*
X81517438Y-110691540D02*
X81612676Y-110596302D01*
X81612676Y-110596302D02*
X81707914Y-110548683D01*
X81707914Y-110548683D02*
X81898390Y-110501064D01*
X81898390Y-110501064D02*
X82041247Y-110501064D01*
X82041247Y-110501064D02*
X82231723Y-110548683D01*
X82231723Y-110548683D02*
X82326961Y-110596302D01*
X82326961Y-110596302D02*
X82422200Y-110691540D01*
X82422200Y-110691540D02*
X82469819Y-110834397D01*
X82469819Y-110834397D02*
X82469819Y-110929635D01*
X82469819Y-110929635D02*
X82422200Y-111072492D01*
X82422200Y-111072492D02*
X82374580Y-111120111D01*
X82374580Y-111120111D02*
X82041247Y-111120111D01*
X82041247Y-111120111D02*
X82041247Y-110929635D01*
X82469819Y-111548683D02*
X81469819Y-111548683D01*
X81469819Y-111548683D02*
X82469819Y-112120111D01*
X82469819Y-112120111D02*
X81469819Y-112120111D01*
X82184104Y-112548683D02*
X82184104Y-113024873D01*
X82469819Y-112453445D02*
X81469819Y-112786778D01*
X81469819Y-112786778D02*
X82469819Y-113120111D01*
X82469819Y-113929635D02*
X82469819Y-113453445D01*
X82469819Y-113453445D02*
X81469819Y-113453445D01*
X79922200Y-104739160D02*
X79969819Y-104882017D01*
X79969819Y-104882017D02*
X79969819Y-105120112D01*
X79969819Y-105120112D02*
X79922200Y-105215350D01*
X79922200Y-105215350D02*
X79874580Y-105262969D01*
X79874580Y-105262969D02*
X79779342Y-105310588D01*
X79779342Y-105310588D02*
X79684104Y-105310588D01*
X79684104Y-105310588D02*
X79588866Y-105262969D01*
X79588866Y-105262969D02*
X79541247Y-105215350D01*
X79541247Y-105215350D02*
X79493628Y-105120112D01*
X79493628Y-105120112D02*
X79446009Y-104929636D01*
X79446009Y-104929636D02*
X79398390Y-104834398D01*
X79398390Y-104834398D02*
X79350771Y-104786779D01*
X79350771Y-104786779D02*
X79255533Y-104739160D01*
X79255533Y-104739160D02*
X79160295Y-104739160D01*
X79160295Y-104739160D02*
X79065057Y-104786779D01*
X79065057Y-104786779D02*
X79017438Y-104834398D01*
X79017438Y-104834398D02*
X78969819Y-104929636D01*
X78969819Y-104929636D02*
X78969819Y-105167731D01*
X78969819Y-105167731D02*
X79017438Y-105310588D01*
X79969819Y-105739160D02*
X79303152Y-105739160D01*
X78969819Y-105739160D02*
X79017438Y-105691541D01*
X79017438Y-105691541D02*
X79065057Y-105739160D01*
X79065057Y-105739160D02*
X79017438Y-105786779D01*
X79017438Y-105786779D02*
X78969819Y-105739160D01*
X78969819Y-105739160D02*
X79065057Y-105739160D01*
X79969819Y-106215350D02*
X78969819Y-106215350D01*
X78969819Y-106215350D02*
X78969819Y-106596302D01*
X78969819Y-106596302D02*
X79017438Y-106691540D01*
X79017438Y-106691540D02*
X79065057Y-106739159D01*
X79065057Y-106739159D02*
X79160295Y-106786778D01*
X79160295Y-106786778D02*
X79303152Y-106786778D01*
X79303152Y-106786778D02*
X79398390Y-106739159D01*
X79398390Y-106739159D02*
X79446009Y-106691540D01*
X79446009Y-106691540D02*
X79493628Y-106596302D01*
X79493628Y-106596302D02*
X79493628Y-106215350D01*
X79969819Y-107215350D02*
X78969819Y-107215350D01*
X78969819Y-107215350D02*
X79684104Y-107548683D01*
X79684104Y-107548683D02*
X78969819Y-107882016D01*
X78969819Y-107882016D02*
X79969819Y-107882016D01*
X80065057Y-108120112D02*
X80065057Y-108882016D01*
X78969819Y-108977255D02*
X78969819Y-109548683D01*
X79969819Y-109262969D02*
X78969819Y-109262969D01*
X79446009Y-109882017D02*
X79446009Y-110215350D01*
X79969819Y-110358207D02*
X79969819Y-109882017D01*
X79969819Y-109882017D02*
X78969819Y-109882017D01*
X78969819Y-109882017D02*
X78969819Y-110358207D01*
X79969819Y-110786779D02*
X78969819Y-110786779D01*
X78969819Y-110786779D02*
X79684104Y-111120112D01*
X79684104Y-111120112D02*
X78969819Y-111453445D01*
X78969819Y-111453445D02*
X79969819Y-111453445D01*
X79969819Y-111929636D02*
X78969819Y-111929636D01*
X78969819Y-111929636D02*
X78969819Y-112310588D01*
X78969819Y-112310588D02*
X79017438Y-112405826D01*
X79017438Y-112405826D02*
X79065057Y-112453445D01*
X79065057Y-112453445D02*
X79160295Y-112501064D01*
X79160295Y-112501064D02*
X79303152Y-112501064D01*
X79303152Y-112501064D02*
X79398390Y-112453445D01*
X79398390Y-112453445D02*
X79446009Y-112405826D01*
X79446009Y-112405826D02*
X79493628Y-112310588D01*
X79493628Y-112310588D02*
X79493628Y-111929636D01*
M02*
