M48
; DRILL file {KiCad 7.0.7} date Thu Jan 18 13:53:01 2024
; FORMAT={-:-/ absolute / inch / decimal}
; #@! TF.CreationDate,2024-01-18T13:53:01-05:00
; #@! TF.GenerationSoftware,Kicad,Pcbnew,7.0.7
; #@! TF.FileFunction,Plated,1,2,PTH
FMAT,2
INCH
; #@! TA.AperFunction,Plated,PTH,ViaDrill
T1C0.0157
%
G90
G05
T1
X1.2047Y-4.0531
X1.3639Y-3.4199
X1.3819Y-3.0492
X1.3819Y-3.187
X1.4041Y-3.2918
X1.4079Y-3.4193
X1.4409Y-2.5177
X1.4409Y-3.4626
X1.4606Y-2.7539
X1.5Y-2.5374
X1.5197Y-3.561
X1.5394Y-2.5374
X1.5394Y-3.8366
X1.5394Y-4.0138
X1.5394Y-4.0571
X1.5394Y-4.1122
X1.5551Y-3.4193
X1.5699Y-2.6968
X1.6111Y-2.6941
X1.6575Y-2.9508
X1.6969Y-3.4035
X1.7362Y-3.0886
X1.7549Y-2.7431
X1.7835Y-3.6004
X1.7953Y-2.7736
X1.815Y-3.128
X1.8386Y-3.4193
X1.8543Y-3.2264
X1.9528Y-2.8327
T0
M30
