%TF.GenerationSoftware,KiCad,Pcbnew,7.0.7*%
%TF.CreationDate,2024-01-24T10:18:05-05:00*%
%TF.ProjectId,LED_board,4c45445f-626f-4617-9264-2e6b69636164,rev?*%
%TF.SameCoordinates,Original*%
%TF.FileFunction,Legend,Top*%
%TF.FilePolarity,Positive*%
%FSLAX46Y46*%
G04 Gerber Fmt 4.6, Leading zero omitted, Abs format (unit mm)*
G04 Created by KiCad (PCBNEW 7.0.7) date 2024-01-24 10:18:05*
%MOMM*%
%LPD*%
G01*
G04 APERTURE LIST*
%ADD10C,0.150000*%
%ADD11C,0.127000*%
%ADD12C,0.200000*%
G04 APERTURE END LIST*
D10*
X89693922Y-104869819D02*
X90027255Y-105869819D01*
X90027255Y-105869819D02*
X90360588Y-104869819D01*
X90693922Y-105869819D02*
X90693922Y-105203152D01*
X90693922Y-104869819D02*
X90646303Y-104917438D01*
X90646303Y-104917438D02*
X90693922Y-104965057D01*
X90693922Y-104965057D02*
X90741541Y-104917438D01*
X90741541Y-104917438D02*
X90693922Y-104869819D01*
X90693922Y-104869819D02*
X90693922Y-104965057D01*
X91170112Y-105203152D02*
X91170112Y-105869819D01*
X91170112Y-105298390D02*
X91217731Y-105250771D01*
X91217731Y-105250771D02*
X91312969Y-105203152D01*
X91312969Y-105203152D02*
X91455826Y-105203152D01*
X91455826Y-105203152D02*
X91551064Y-105250771D01*
X91551064Y-105250771D02*
X91598683Y-105346009D01*
X91598683Y-105346009D02*
X91598683Y-105869819D01*
X108860588Y-93917438D02*
X108765350Y-93869819D01*
X108765350Y-93869819D02*
X108622493Y-93869819D01*
X108622493Y-93869819D02*
X108479636Y-93917438D01*
X108479636Y-93917438D02*
X108384398Y-94012676D01*
X108384398Y-94012676D02*
X108336779Y-94107914D01*
X108336779Y-94107914D02*
X108289160Y-94298390D01*
X108289160Y-94298390D02*
X108289160Y-94441247D01*
X108289160Y-94441247D02*
X108336779Y-94631723D01*
X108336779Y-94631723D02*
X108384398Y-94726961D01*
X108384398Y-94726961D02*
X108479636Y-94822200D01*
X108479636Y-94822200D02*
X108622493Y-94869819D01*
X108622493Y-94869819D02*
X108717731Y-94869819D01*
X108717731Y-94869819D02*
X108860588Y-94822200D01*
X108860588Y-94822200D02*
X108908207Y-94774580D01*
X108908207Y-94774580D02*
X108908207Y-94441247D01*
X108908207Y-94441247D02*
X108717731Y-94441247D01*
X109336779Y-94869819D02*
X109336779Y-93869819D01*
X109336779Y-93869819D02*
X109908207Y-94869819D01*
X109908207Y-94869819D02*
X109908207Y-93869819D01*
X110384398Y-94869819D02*
X110384398Y-93869819D01*
X110384398Y-93869819D02*
X110622493Y-93869819D01*
X110622493Y-93869819D02*
X110765350Y-93917438D01*
X110765350Y-93917438D02*
X110860588Y-94012676D01*
X110860588Y-94012676D02*
X110908207Y-94107914D01*
X110908207Y-94107914D02*
X110955826Y-94298390D01*
X110955826Y-94298390D02*
X110955826Y-94441247D01*
X110955826Y-94441247D02*
X110908207Y-94631723D01*
X110908207Y-94631723D02*
X110860588Y-94726961D01*
X110860588Y-94726961D02*
X110765350Y-94822200D01*
X110765350Y-94822200D02*
X110622493Y-94869819D01*
X110622493Y-94869819D02*
X110384398Y-94869819D01*
D11*
%TO.C,D2*%
X103556000Y-89460000D02*
X103556000Y-94540000D01*
X96444000Y-89460000D02*
X103556000Y-89460000D01*
X103556000Y-94540000D02*
X96444000Y-94540000D01*
X96444000Y-94540000D02*
X96444000Y-89460000D01*
D12*
X104164000Y-92000000D02*
G75*
G03*
X104164000Y-92000000I-100000J0D01*
G01*
D11*
%TO.C,D4*%
X105460000Y-96444000D02*
X110540000Y-96444000D01*
X105460000Y-103556000D02*
X105460000Y-96444000D01*
X110540000Y-96444000D02*
X110540000Y-103556000D01*
X110540000Y-103556000D02*
X105460000Y-103556000D01*
D12*
X108100000Y-95936000D02*
G75*
G03*
X108100000Y-95936000I-100000J0D01*
G01*
D11*
%TO.C,D1*%
X89460000Y-96444000D02*
X94540000Y-96444000D01*
X89460000Y-103556000D02*
X89460000Y-96444000D01*
X94540000Y-96444000D02*
X94540000Y-103556000D01*
X94540000Y-103556000D02*
X89460000Y-103556000D01*
D12*
X92100000Y-95936000D02*
G75*
G03*
X92100000Y-95936000I-100000J0D01*
G01*
D11*
%TO.C,D3*%
X103556000Y-105460000D02*
X103556000Y-110540000D01*
X96444000Y-105460000D02*
X103556000Y-105460000D01*
X103556000Y-110540000D02*
X96444000Y-110540000D01*
X96444000Y-110540000D02*
X96444000Y-105460000D01*
D12*
X104164000Y-108000000D02*
G75*
G03*
X104164000Y-108000000I-100000J0D01*
G01*
%TD*%
M02*
