%TF.GenerationSoftware,KiCad,Pcbnew,7.0.7*%
%TF.CreationDate,2024-01-19T08:55:37-05:00*%
%TF.ProjectId,LED_board,4c45445f-626f-4617-9264-2e6b69636164,rev?*%
%TF.SameCoordinates,Original*%
%TF.FileFunction,Copper,L1,Top*%
%TF.FilePolarity,Positive*%
%FSLAX46Y46*%
G04 Gerber Fmt 4.6, Leading zero omitted, Abs format (unit mm)*
G04 Created by KiCad (PCBNEW 7.0.7) date 2024-01-19 08:55:37*
%MOMM*%
%LPD*%
G01*
G04 APERTURE LIST*
%TA.AperFunction,SMDPad,CuDef*%
%ADD10R,1.000000X4.600000*%
%TD*%
%TA.AperFunction,SMDPad,CuDef*%
%ADD11R,3.000000X4.600000*%
%TD*%
%TA.AperFunction,SMDPad,CuDef*%
%ADD12R,4.600000X1.000000*%
%TD*%
%TA.AperFunction,SMDPad,CuDef*%
%ADD13R,4.600000X3.000000*%
%TD*%
%TA.AperFunction,ViaPad*%
%ADD14C,3.000000*%
%TD*%
G04 APERTURE END LIST*
D10*
%TO.P,D2,1*%
%TO.N,/GND*%
X102750000Y-92000000D03*
%TO.P,D2,2*%
%TO.N,Net-(D1-Pad1)*%
X97250000Y-92000000D03*
D11*
%TO.P,D2,3,EXP*%
%TO.N,unconnected-(D2-EXP-Pad3)*%
X100000000Y-92000000D03*
%TD*%
D12*
%TO.P,D4,1*%
%TO.N,/GND*%
X108000000Y-97250000D03*
%TO.P,D4,2*%
%TO.N,Net-(D3-Pad1)*%
X108000000Y-102750000D03*
D13*
%TO.P,D4,3,EXP*%
%TO.N,unconnected-(D4-EXP-Pad3)*%
X108000000Y-100000000D03*
%TD*%
D12*
%TO.P,D1,1*%
%TO.N,Net-(D1-Pad1)*%
X92000000Y-97250000D03*
%TO.P,D1,2*%
%TO.N,/Vin*%
X92000000Y-102750000D03*
D13*
%TO.P,D1,3,EXP*%
%TO.N,unconnected-(D1-EXP-Pad3)*%
X92000000Y-100000000D03*
%TD*%
D10*
%TO.P,D3,1*%
%TO.N,Net-(D3-Pad1)*%
X102750000Y-108000000D03*
%TO.P,D3,2*%
%TO.N,/Vin*%
X97250000Y-108000000D03*
D11*
%TO.P,D3,3,EXP*%
%TO.N,unconnected-(D3-EXP-Pad3)*%
X100000000Y-108000000D03*
%TD*%
D14*
%TO.N,/Vin*%
X92000000Y-108000000D03*
%TO.N,/GND*%
X108000000Y-92000000D03*
%TD*%
%TA.AperFunction,Conductor*%
%TO.N,/Vin*%
G36*
X89142539Y-100525185D02*
G01*
X89188294Y-100577989D01*
X89199500Y-100629500D01*
X89199500Y-101547870D01*
X89199501Y-101547876D01*
X89205908Y-101607483D01*
X89256202Y-101742328D01*
X89256204Y-101742331D01*
X89300202Y-101801105D01*
X89324620Y-101866568D01*
X89309769Y-101934841D01*
X89300203Y-101949726D01*
X89256649Y-102007907D01*
X89256645Y-102007913D01*
X89206403Y-102142620D01*
X89206401Y-102142627D01*
X89200000Y-102202155D01*
X89200000Y-102500000D01*
X92126000Y-102500000D01*
X92193039Y-102519685D01*
X92238794Y-102572489D01*
X92250000Y-102624000D01*
X92250000Y-103750000D01*
X94347828Y-103750000D01*
X94347844Y-103749999D01*
X94407372Y-103743598D01*
X94407379Y-103743596D01*
X94542086Y-103693354D01*
X94542093Y-103693350D01*
X94657187Y-103607190D01*
X94657190Y-103607187D01*
X94743350Y-103492093D01*
X94743355Y-103492084D01*
X94759318Y-103449286D01*
X94801189Y-103393352D01*
X94866653Y-103368934D01*
X94934926Y-103383785D01*
X94984332Y-103433190D01*
X94999500Y-103492618D01*
X94999500Y-104975467D01*
X94999416Y-104975889D01*
X94999459Y-105000001D01*
X94999500Y-105000099D01*
X94999616Y-105000382D01*
X94999618Y-105000384D01*
X94999808Y-105000462D01*
X95000000Y-105000541D01*
X95000002Y-105000539D01*
X95024616Y-105000524D01*
X95024616Y-105000528D01*
X95024760Y-105000500D01*
X96507381Y-105000500D01*
X96574420Y-105020185D01*
X96620175Y-105072989D01*
X96630119Y-105142147D01*
X96601094Y-105205703D01*
X96550714Y-105240682D01*
X96507913Y-105256645D01*
X96507906Y-105256649D01*
X96392812Y-105342809D01*
X96392809Y-105342812D01*
X96306649Y-105457906D01*
X96306645Y-105457913D01*
X96256403Y-105592620D01*
X96256401Y-105592627D01*
X96250000Y-105652155D01*
X96250000Y-107750000D01*
X97376000Y-107750000D01*
X97443039Y-107769685D01*
X97488794Y-107822489D01*
X97500000Y-107874000D01*
X97499999Y-110800000D01*
X97797828Y-110800000D01*
X97797844Y-110799999D01*
X97857372Y-110793598D01*
X97857379Y-110793596D01*
X97992086Y-110743354D01*
X97992089Y-110743352D01*
X98050271Y-110699797D01*
X98115735Y-110675379D01*
X98184008Y-110690230D01*
X98198887Y-110699792D01*
X98257076Y-110743352D01*
X98257668Y-110743795D01*
X98257671Y-110743797D01*
X98392517Y-110794091D01*
X98392516Y-110794091D01*
X98399444Y-110794835D01*
X98452127Y-110800500D01*
X99370500Y-110800499D01*
X99437539Y-110820183D01*
X99483294Y-110872987D01*
X99494500Y-110924499D01*
X99494499Y-112557788D01*
X99474814Y-112624828D01*
X99422010Y-112670582D01*
X99367035Y-112681740D01*
X99362512Y-112681613D01*
X99359133Y-112681518D01*
X99311214Y-112678827D01*
X99216958Y-112673534D01*
X98649078Y-112625634D01*
X98507583Y-112609691D01*
X97943280Y-112530025D01*
X97802895Y-112506173D01*
X97243955Y-112394993D01*
X97105123Y-112363305D01*
X96553312Y-112220964D01*
X96416447Y-112181534D01*
X95873481Y-112008475D01*
X95739080Y-111961446D01*
X95206648Y-111758206D01*
X95173542Y-111744493D01*
X95075098Y-111703716D01*
X94554901Y-111470942D01*
X94426616Y-111409164D01*
X93920300Y-111147595D01*
X93857978Y-111113151D01*
X93795665Y-111078712D01*
X93304809Y-110789163D01*
X93270566Y-110767647D01*
X93184238Y-110713403D01*
X92710383Y-110396784D01*
X92594257Y-110314388D01*
X92138911Y-109971706D01*
X92027558Y-109882903D01*
X91592161Y-109515244D01*
X91485966Y-109420343D01*
X91455251Y-109391305D01*
X91071869Y-109028849D01*
X90971150Y-108928130D01*
X90579656Y-108514033D01*
X90484755Y-108407838D01*
X90351473Y-108250000D01*
X96250000Y-108250000D01*
X96250000Y-110347844D01*
X96256401Y-110407372D01*
X96256403Y-110407379D01*
X96306645Y-110542086D01*
X96306649Y-110542093D01*
X96392809Y-110657187D01*
X96392812Y-110657190D01*
X96507906Y-110743350D01*
X96507913Y-110743354D01*
X96642620Y-110793596D01*
X96642627Y-110793598D01*
X96702155Y-110799999D01*
X96702172Y-110800000D01*
X96999999Y-110800000D01*
X97000000Y-108250000D01*
X96250000Y-108250000D01*
X90351473Y-108250000D01*
X90117096Y-107972441D01*
X90057773Y-107898054D01*
X90028301Y-107861098D01*
X89685609Y-107405739D01*
X89603215Y-107289616D01*
X89286596Y-106815761D01*
X89257350Y-106769218D01*
X89210845Y-106695206D01*
X88921285Y-106204330D01*
X88852417Y-106079725D01*
X88590832Y-105573378D01*
X88529057Y-105445098D01*
X88405694Y-105169410D01*
X88296277Y-104924887D01*
X88241787Y-104793335D01*
X88209074Y-104707636D01*
X88038545Y-104260898D01*
X87991524Y-104126516D01*
X87818464Y-103583549D01*
X87779035Y-103446687D01*
X87663811Y-103000000D01*
X89200000Y-103000000D01*
X89200000Y-103297844D01*
X89206401Y-103357372D01*
X89206403Y-103357379D01*
X89256645Y-103492086D01*
X89256649Y-103492093D01*
X89342809Y-103607187D01*
X89342812Y-103607190D01*
X89457906Y-103693350D01*
X89457913Y-103693354D01*
X89592620Y-103743596D01*
X89592627Y-103743598D01*
X89652155Y-103749999D01*
X89652172Y-103750000D01*
X91750000Y-103750000D01*
X91750000Y-103000000D01*
X89200000Y-103000000D01*
X87663811Y-103000000D01*
X87643176Y-102920003D01*
X87636692Y-102894869D01*
X87605011Y-102756065D01*
X87493824Y-102197090D01*
X87469975Y-102056725D01*
X87390307Y-101492409D01*
X87374365Y-101350925D01*
X87326463Y-100783014D01*
X87318481Y-100640881D01*
X87318260Y-100632983D01*
X87336051Y-100565420D01*
X87387547Y-100518199D01*
X87442210Y-100505500D01*
X89075500Y-100505500D01*
X89142539Y-100525185D01*
G37*
%TD.AperFunction*%
%TD*%
%TA.AperFunction,Conductor*%
%TO.N,/GND*%
G36*
X100640890Y-87318481D02*
G01*
X100783014Y-87326463D01*
X101350925Y-87374365D01*
X101492386Y-87390303D01*
X102056725Y-87469975D01*
X102197090Y-87493824D01*
X102756065Y-87605011D01*
X102894849Y-87636687D01*
X103409401Y-87769417D01*
X103446687Y-87779035D01*
X103583549Y-87818464D01*
X104126516Y-87991524D01*
X104260898Y-88038545D01*
X104793347Y-88241792D01*
X104924887Y-88296277D01*
X105247488Y-88440631D01*
X105445098Y-88529057D01*
X105573378Y-88590832D01*
X106079725Y-88852417D01*
X106204330Y-88921285D01*
X106695206Y-89210845D01*
X106767390Y-89256202D01*
X106815761Y-89286596D01*
X106899359Y-89342454D01*
X107289631Y-89603225D01*
X107358590Y-89652155D01*
X107405739Y-89685609D01*
X107861098Y-90028301D01*
X107898054Y-90057773D01*
X107972441Y-90117096D01*
X108407838Y-90484755D01*
X108514033Y-90579656D01*
X108928130Y-90971150D01*
X109028849Y-91071869D01*
X109420343Y-91485966D01*
X109515244Y-91592161D01*
X109882903Y-92027558D01*
X109952173Y-92114418D01*
X109961409Y-92126000D01*
X109971706Y-92138911D01*
X110314388Y-92594257D01*
X110396784Y-92710383D01*
X110713403Y-93184238D01*
X110789159Y-93304801D01*
X111078712Y-93795665D01*
X111147591Y-93920291D01*
X111409164Y-94426616D01*
X111470942Y-94554901D01*
X111703720Y-95075106D01*
X111758206Y-95206648D01*
X111961446Y-95739080D01*
X112008475Y-95873481D01*
X112181534Y-96416447D01*
X112220964Y-96553312D01*
X112363305Y-97105123D01*
X112394993Y-97243955D01*
X112506173Y-97802895D01*
X112530025Y-97943280D01*
X112609691Y-98507583D01*
X112625634Y-98649078D01*
X112673534Y-99216958D01*
X112681518Y-99359132D01*
X112695923Y-99872522D01*
X112678127Y-99940087D01*
X112626627Y-99987305D01*
X112571972Y-100000000D01*
X110924499Y-100000000D01*
X110857460Y-99980315D01*
X110811705Y-99927511D01*
X110800499Y-99876000D01*
X110800499Y-98452129D01*
X110800498Y-98452123D01*
X110794091Y-98392516D01*
X110743797Y-98257671D01*
X110743795Y-98257668D01*
X110742512Y-98255954D01*
X110699796Y-98198892D01*
X110675379Y-98133431D01*
X110690230Y-98065158D01*
X110699797Y-98050271D01*
X110743352Y-97992089D01*
X110743354Y-97992086D01*
X110793596Y-97857379D01*
X110793598Y-97857372D01*
X110799999Y-97797844D01*
X110800000Y-97797827D01*
X110800000Y-97500000D01*
X107874000Y-97500000D01*
X107806961Y-97480315D01*
X107761206Y-97427511D01*
X107750000Y-97376000D01*
X107750000Y-96250000D01*
X108250000Y-96250000D01*
X108250000Y-97000000D01*
X110799999Y-97000000D01*
X110800000Y-96702172D01*
X110799999Y-96702155D01*
X110793598Y-96642627D01*
X110793596Y-96642620D01*
X110743354Y-96507913D01*
X110743350Y-96507906D01*
X110657190Y-96392812D01*
X110657187Y-96392809D01*
X110542093Y-96306649D01*
X110542086Y-96306645D01*
X110407379Y-96256403D01*
X110407372Y-96256401D01*
X110347844Y-96250000D01*
X108250000Y-96250000D01*
X107750000Y-96250000D01*
X105652155Y-96250000D01*
X105592627Y-96256401D01*
X105592620Y-96256403D01*
X105457913Y-96306645D01*
X105457906Y-96306649D01*
X105342812Y-96392809D01*
X105342809Y-96392812D01*
X105256649Y-96507906D01*
X105256646Y-96507911D01*
X105240681Y-96550717D01*
X105198809Y-96606650D01*
X105133345Y-96631067D01*
X105065072Y-96616215D01*
X105015667Y-96566810D01*
X105000499Y-96507383D01*
X105000499Y-95008338D01*
X105000539Y-95000002D01*
X105000541Y-95000000D01*
X105000383Y-94999617D01*
X105000382Y-94999616D01*
X105000099Y-94999500D01*
X105000000Y-94999459D01*
X104975446Y-94999459D01*
X104975240Y-94999500D01*
X103492619Y-94999500D01*
X103425580Y-94979815D01*
X103379825Y-94927011D01*
X103369881Y-94857853D01*
X103398906Y-94794297D01*
X103449286Y-94759318D01*
X103492086Y-94743354D01*
X103492093Y-94743350D01*
X103607187Y-94657190D01*
X103607190Y-94657187D01*
X103693350Y-94542093D01*
X103693354Y-94542086D01*
X103743596Y-94407379D01*
X103743598Y-94407372D01*
X103749999Y-94347844D01*
X103750000Y-94347827D01*
X103750000Y-92250000D01*
X102624000Y-92250000D01*
X102556961Y-92230315D01*
X102511206Y-92177511D01*
X102500000Y-92126000D01*
X102500000Y-89200000D01*
X103000000Y-89200000D01*
X103000000Y-91750000D01*
X103750000Y-91750000D01*
X103750000Y-89652172D01*
X103749999Y-89652155D01*
X103743598Y-89592627D01*
X103743596Y-89592620D01*
X103693354Y-89457913D01*
X103693350Y-89457906D01*
X103607190Y-89342812D01*
X103607187Y-89342809D01*
X103492093Y-89256649D01*
X103492086Y-89256645D01*
X103357379Y-89206403D01*
X103357372Y-89206401D01*
X103297844Y-89200000D01*
X103000000Y-89200000D01*
X102500000Y-89200000D01*
X102202155Y-89200000D01*
X102142627Y-89206401D01*
X102142620Y-89206403D01*
X102007913Y-89256645D01*
X102007907Y-89256649D01*
X101949726Y-89300203D01*
X101884262Y-89324620D01*
X101815989Y-89309768D01*
X101801106Y-89300203D01*
X101742331Y-89256204D01*
X101742328Y-89256202D01*
X101607482Y-89205908D01*
X101607483Y-89205908D01*
X101547883Y-89199501D01*
X101547881Y-89199500D01*
X101547873Y-89199500D01*
X101547865Y-89199500D01*
X100123999Y-89199500D01*
X100056960Y-89179815D01*
X100011205Y-89127011D01*
X100000000Y-89075504D01*
X100000000Y-87428023D01*
X100019684Y-87360988D01*
X100072488Y-87315233D01*
X100127473Y-87304076D01*
X100640890Y-87318481D01*
G37*
%TD.AperFunction*%
%TD*%
%TA.AperFunction,Conductor*%
%TO.N,Net-(D3-Pad1)*%
G36*
X112624828Y-100525185D02*
G01*
X112670583Y-100577989D01*
X112681740Y-100632983D01*
X112681518Y-100640875D01*
X112673534Y-100783041D01*
X112625634Y-101350921D01*
X112609691Y-101492416D01*
X112530025Y-102056719D01*
X112506173Y-102197104D01*
X112394993Y-102756044D01*
X112363305Y-102894876D01*
X112220964Y-103446687D01*
X112181534Y-103583552D01*
X112008475Y-104126518D01*
X111961446Y-104260919D01*
X111758206Y-104793351D01*
X111703720Y-104924893D01*
X111470942Y-105445098D01*
X111409164Y-105573383D01*
X111147591Y-106079708D01*
X111078712Y-106204334D01*
X110789159Y-106695198D01*
X110713403Y-106815761D01*
X110396784Y-107289616D01*
X110314388Y-107405742D01*
X109971706Y-107861088D01*
X109882903Y-107972441D01*
X109515244Y-108407838D01*
X109420343Y-108514033D01*
X109028849Y-108928130D01*
X108928130Y-109028849D01*
X108514033Y-109420343D01*
X108407838Y-109515244D01*
X107972441Y-109882903D01*
X107861088Y-109971706D01*
X107405742Y-110314388D01*
X107289616Y-110396784D01*
X106815761Y-110713403D01*
X106695198Y-110789159D01*
X106204334Y-111078712D01*
X106079708Y-111147591D01*
X105573383Y-111409164D01*
X105445098Y-111470942D01*
X104924893Y-111703720D01*
X104793351Y-111758206D01*
X104260919Y-111961446D01*
X104126518Y-112008475D01*
X103583552Y-112181534D01*
X103446687Y-112220964D01*
X102894876Y-112363305D01*
X102756044Y-112394993D01*
X102197104Y-112506173D01*
X102056719Y-112530025D01*
X101492416Y-112609691D01*
X101350921Y-112625634D01*
X100783041Y-112673534D01*
X100640867Y-112681518D01*
X100127477Y-112695923D01*
X100059912Y-112678127D01*
X100012694Y-112626627D01*
X100000000Y-112571976D01*
X100000000Y-110924495D01*
X100019684Y-110857460D01*
X100072488Y-110811705D01*
X100123996Y-110800499D01*
X101547872Y-110800499D01*
X101607483Y-110794091D01*
X101742331Y-110743796D01*
X101801105Y-110699797D01*
X101866568Y-110675380D01*
X101934841Y-110690231D01*
X101949726Y-110699797D01*
X102007907Y-110743350D01*
X102007913Y-110743354D01*
X102142620Y-110793596D01*
X102142627Y-110793598D01*
X102202155Y-110799999D01*
X102202172Y-110800000D01*
X102500000Y-110800000D01*
X102500000Y-108250000D01*
X103000000Y-108250000D01*
X103000000Y-110800000D01*
X103297828Y-110800000D01*
X103297844Y-110799999D01*
X103357372Y-110793598D01*
X103357379Y-110793596D01*
X103492086Y-110743354D01*
X103492093Y-110743350D01*
X103607187Y-110657190D01*
X103607190Y-110657187D01*
X103693350Y-110542093D01*
X103693354Y-110542086D01*
X103743596Y-110407379D01*
X103743598Y-110407372D01*
X103749999Y-110347844D01*
X103750000Y-110347827D01*
X103750000Y-108250000D01*
X103000000Y-108250000D01*
X102500000Y-108250000D01*
X102500000Y-107874000D01*
X102519685Y-107806961D01*
X102572489Y-107761206D01*
X102624000Y-107750000D01*
X103750000Y-107750000D01*
X103750000Y-105652172D01*
X103749999Y-105652155D01*
X103743598Y-105592627D01*
X103743596Y-105592620D01*
X103693354Y-105457913D01*
X103693350Y-105457906D01*
X103607190Y-105342812D01*
X103607187Y-105342809D01*
X103492093Y-105256649D01*
X103492086Y-105256645D01*
X103449286Y-105240682D01*
X103393352Y-105198811D01*
X103368935Y-105133346D01*
X103383787Y-105065073D01*
X103433192Y-105015668D01*
X103492619Y-105000500D01*
X104975240Y-105000500D01*
X104975383Y-105000528D01*
X104975384Y-105000524D01*
X104999997Y-105000539D01*
X105000000Y-105000541D01*
X105000383Y-105000383D01*
X105000500Y-105000099D01*
X105000499Y-105000099D01*
X105000541Y-105000000D01*
X105000540Y-104999998D01*
X105006892Y-104985028D01*
X105000521Y-104964747D01*
X105000499Y-104962417D01*
X105000499Y-103492616D01*
X105020184Y-103425577D01*
X105072988Y-103379822D01*
X105142146Y-103369878D01*
X105205702Y-103398903D01*
X105240681Y-103449283D01*
X105256645Y-103492086D01*
X105256649Y-103492093D01*
X105342809Y-103607187D01*
X105342812Y-103607190D01*
X105457906Y-103693350D01*
X105457913Y-103693354D01*
X105592620Y-103743596D01*
X105592627Y-103743598D01*
X105652155Y-103749999D01*
X105652172Y-103750000D01*
X107750000Y-103750000D01*
X107750000Y-103000000D01*
X108250000Y-103000000D01*
X108250000Y-103750000D01*
X110347828Y-103750000D01*
X110347844Y-103749999D01*
X110407372Y-103743598D01*
X110407379Y-103743596D01*
X110542086Y-103693354D01*
X110542093Y-103693350D01*
X110657187Y-103607190D01*
X110657190Y-103607187D01*
X110743350Y-103492093D01*
X110743354Y-103492086D01*
X110793596Y-103357379D01*
X110793598Y-103357372D01*
X110799999Y-103297844D01*
X110800000Y-103297827D01*
X110800000Y-103000000D01*
X108250000Y-103000000D01*
X107750000Y-103000000D01*
X107750000Y-102624000D01*
X107769685Y-102556961D01*
X107822489Y-102511206D01*
X107874000Y-102500000D01*
X110799999Y-102500000D01*
X110800000Y-102202172D01*
X110799999Y-102202155D01*
X110793598Y-102142627D01*
X110793596Y-102142620D01*
X110743354Y-102007913D01*
X110743350Y-102007907D01*
X110699797Y-101949726D01*
X110675380Y-101884262D01*
X110690232Y-101815989D01*
X110699794Y-101801108D01*
X110743796Y-101742331D01*
X110794091Y-101607483D01*
X110800500Y-101547873D01*
X110800499Y-100629499D01*
X110820183Y-100562461D01*
X110872987Y-100516706D01*
X110924499Y-100505500D01*
X112557789Y-100505500D01*
X112624828Y-100525185D01*
G37*
%TD.AperFunction*%
%TD*%
%TA.AperFunction,Conductor*%
%TO.N,Net-(D1-Pad1)*%
G36*
X99434578Y-87336050D02*
G01*
X99481800Y-87387547D01*
X99494499Y-87442210D01*
X99494500Y-89075500D01*
X99474815Y-89142539D01*
X99422012Y-89188294D01*
X99370500Y-89199500D01*
X98452129Y-89199500D01*
X98452123Y-89199501D01*
X98392516Y-89205908D01*
X98257671Y-89256202D01*
X98257665Y-89256205D01*
X98198891Y-89300203D01*
X98133427Y-89324619D01*
X98065154Y-89309767D01*
X98050271Y-89300202D01*
X97992088Y-89256647D01*
X97992086Y-89256645D01*
X97857379Y-89206403D01*
X97857372Y-89206401D01*
X97797844Y-89200000D01*
X97500000Y-89200000D01*
X97500000Y-92126000D01*
X97480315Y-92193039D01*
X97427511Y-92238794D01*
X97376000Y-92250000D01*
X96250000Y-92250000D01*
X96250000Y-94347844D01*
X96256401Y-94407372D01*
X96256403Y-94407379D01*
X96306645Y-94542086D01*
X96306649Y-94542093D01*
X96392809Y-94657187D01*
X96392812Y-94657190D01*
X96507906Y-94743350D01*
X96507913Y-94743354D01*
X96550714Y-94759318D01*
X96606648Y-94801189D01*
X96631065Y-94866654D01*
X96616213Y-94934927D01*
X96566808Y-94984332D01*
X96507381Y-94999500D01*
X95024760Y-94999500D01*
X95024554Y-94999459D01*
X95000000Y-94999459D01*
X94999901Y-94999500D01*
X94999617Y-94999616D01*
X94999615Y-94999618D01*
X94999459Y-94999999D01*
X94999476Y-95024616D01*
X94999471Y-95024616D01*
X94999500Y-95024759D01*
X94999500Y-96507381D01*
X94979815Y-96574420D01*
X94927011Y-96620175D01*
X94857853Y-96630119D01*
X94794297Y-96601094D01*
X94759318Y-96550714D01*
X94743354Y-96507913D01*
X94743350Y-96507906D01*
X94657190Y-96392812D01*
X94657187Y-96392809D01*
X94542093Y-96306649D01*
X94542086Y-96306645D01*
X94407379Y-96256403D01*
X94407372Y-96256401D01*
X94347844Y-96250000D01*
X92250000Y-96250000D01*
X92250000Y-97376000D01*
X92230315Y-97443039D01*
X92177511Y-97488794D01*
X92126000Y-97500000D01*
X89200000Y-97500000D01*
X89200000Y-97797844D01*
X89206401Y-97857372D01*
X89206403Y-97857379D01*
X89256645Y-97992086D01*
X89256647Y-97992088D01*
X89300202Y-98050271D01*
X89324619Y-98115735D01*
X89309767Y-98184008D01*
X89300203Y-98198891D01*
X89256205Y-98257665D01*
X89256202Y-98257671D01*
X89205908Y-98392517D01*
X89202280Y-98426269D01*
X89199500Y-98452127D01*
X89199500Y-99876001D01*
X89179816Y-99943039D01*
X89127013Y-99988794D01*
X89075501Y-100000000D01*
X87428028Y-100000000D01*
X87360989Y-99980315D01*
X87315234Y-99927511D01*
X87304077Y-99872522D01*
X87318481Y-99359132D01*
X87326462Y-99216993D01*
X87374368Y-98649047D01*
X87390305Y-98507602D01*
X87469976Y-97943263D01*
X87493821Y-97802922D01*
X87605008Y-97243947D01*
X87636686Y-97105152D01*
X87663810Y-97000000D01*
X89200000Y-97000000D01*
X91750000Y-97000000D01*
X91750000Y-96250000D01*
X89652155Y-96250000D01*
X89592627Y-96256401D01*
X89592620Y-96256403D01*
X89457913Y-96306645D01*
X89457906Y-96306649D01*
X89342812Y-96392809D01*
X89342809Y-96392812D01*
X89256649Y-96507906D01*
X89256645Y-96507913D01*
X89206403Y-96642620D01*
X89206401Y-96642627D01*
X89200000Y-96702155D01*
X89200000Y-97000000D01*
X87663810Y-97000000D01*
X87779036Y-96553305D01*
X87818453Y-96416484D01*
X87991532Y-95873455D01*
X88038539Y-95739118D01*
X88241797Y-95206639D01*
X88296266Y-95075136D01*
X88529057Y-94554901D01*
X88543772Y-94524343D01*
X88590823Y-94426639D01*
X88852429Y-93920252D01*
X88921268Y-93795697D01*
X89210854Y-93304778D01*
X89286590Y-93184247D01*
X89603231Y-92710359D01*
X89685593Y-92594281D01*
X90028305Y-92138896D01*
X90117096Y-92027558D01*
X90284528Y-91829278D01*
X90351472Y-91750000D01*
X96250000Y-91750000D01*
X96999999Y-91750000D01*
X97000000Y-89200000D01*
X96702155Y-89200000D01*
X96642627Y-89206401D01*
X96642620Y-89206403D01*
X96507913Y-89256645D01*
X96507906Y-89256649D01*
X96392812Y-89342809D01*
X96392809Y-89342812D01*
X96306649Y-89457906D01*
X96306645Y-89457913D01*
X96256403Y-89592620D01*
X96256401Y-89592627D01*
X96250000Y-89652155D01*
X96250000Y-91750000D01*
X90351472Y-91750000D01*
X90484764Y-91592151D01*
X90579646Y-91485977D01*
X90971167Y-91071851D01*
X91071851Y-90971167D01*
X91485977Y-90579646D01*
X91592151Y-90484764D01*
X92027558Y-90117096D01*
X92052828Y-90096943D01*
X92138896Y-90028305D01*
X92594281Y-89685593D01*
X92710359Y-89603231D01*
X93184243Y-89286592D01*
X93304778Y-89210854D01*
X93795697Y-88921268D01*
X93920252Y-88852429D01*
X94426639Y-88590823D01*
X94554901Y-88529057D01*
X94592852Y-88512074D01*
X95075136Y-88296266D01*
X95206639Y-88241797D01*
X95739118Y-88038539D01*
X95873455Y-87991532D01*
X96416484Y-87818453D01*
X96553296Y-87779039D01*
X97105152Y-87636686D01*
X97243947Y-87605008D01*
X97802922Y-87493821D01*
X97943263Y-87469976D01*
X98507602Y-87390305D01*
X98649047Y-87374368D01*
X99216993Y-87326462D01*
X99359116Y-87318481D01*
X99367016Y-87318260D01*
X99434578Y-87336050D01*
G37*
%TD.AperFunction*%
%TD*%
M02*
