%TF.GenerationSoftware,KiCad,Pcbnew,7.0.7*%
%TF.CreationDate,2024-01-19T08:55:37-05:00*%
%TF.ProjectId,LED_board,4c45445f-626f-4617-9264-2e6b69636164,rev?*%
%TF.SameCoordinates,Original*%
%TF.FileFunction,Paste,Top*%
%TF.FilePolarity,Positive*%
%FSLAX46Y46*%
G04 Gerber Fmt 4.6, Leading zero omitted, Abs format (unit mm)*
G04 Created by KiCad (PCBNEW 7.0.7) date 2024-01-19 08:55:37*
%MOMM*%
%LPD*%
G01*
G04 APERTURE LIST*
%ADD10C,0.010000*%
%ADD11R,1.000000X4.600000*%
%ADD12R,4.600000X1.000000*%
G04 APERTURE END LIST*
%TO.C,D2*%
D10*
X100850000Y-92315000D02*
X99150000Y-92315000D01*
X99150000Y-91685000D01*
X100850000Y-91685000D01*
X100850000Y-92315000D01*
G36*
X100850000Y-92315000D02*
G01*
X99150000Y-92315000D01*
X99150000Y-91685000D01*
X100850000Y-91685000D01*
X100850000Y-92315000D01*
G37*
%TO.C,D4*%
X108315000Y-100850000D02*
X107685000Y-100850000D01*
X107685000Y-99150000D01*
X108315000Y-99150000D01*
X108315000Y-100850000D01*
G36*
X108315000Y-100850000D02*
G01*
X107685000Y-100850000D01*
X107685000Y-99150000D01*
X108315000Y-99150000D01*
X108315000Y-100850000D01*
G37*
%TO.C,D1*%
X92315000Y-100850000D02*
X91685000Y-100850000D01*
X91685000Y-99150000D01*
X92315000Y-99150000D01*
X92315000Y-100850000D01*
G36*
X92315000Y-100850000D02*
G01*
X91685000Y-100850000D01*
X91685000Y-99150000D01*
X92315000Y-99150000D01*
X92315000Y-100850000D01*
G37*
%TO.C,D3*%
X100850000Y-108315000D02*
X99150000Y-108315000D01*
X99150000Y-107685000D01*
X100850000Y-107685000D01*
X100850000Y-108315000D01*
G36*
X100850000Y-108315000D02*
G01*
X99150000Y-108315000D01*
X99150000Y-107685000D01*
X100850000Y-107685000D01*
X100850000Y-108315000D01*
G37*
%TD*%
D11*
%TO.C,D2*%
X102750000Y-92000000D03*
X97250000Y-92000000D03*
%TD*%
D12*
%TO.C,D4*%
X108000000Y-97250000D03*
X108000000Y-102750000D03*
%TD*%
%TO.C,D1*%
X92000000Y-97250000D03*
X92000000Y-102750000D03*
%TD*%
D11*
%TO.C,D3*%
X102750000Y-108000000D03*
X97250000Y-108000000D03*
%TD*%
M02*
