%TF.GenerationSoftware,KiCad,Pcbnew,7.0.7*%
%TF.CreationDate,2024-01-24T10:18:05-05:00*%
%TF.ProjectId,LED_board,4c45445f-626f-4617-9264-2e6b69636164,rev?*%
%TF.SameCoordinates,Original*%
%TF.FileFunction,Copper,L1,Top*%
%TF.FilePolarity,Positive*%
%FSLAX46Y46*%
G04 Gerber Fmt 4.6, Leading zero omitted, Abs format (unit mm)*
G04 Created by KiCad (PCBNEW 7.0.7) date 2024-01-24 10:18:05*
%MOMM*%
%LPD*%
G01*
G04 APERTURE LIST*
%TA.AperFunction,ComponentPad*%
%ADD10C,1.400000*%
%TD*%
%TA.AperFunction,ComponentPad*%
%ADD11R,0.850000X0.850000*%
%TD*%
%TA.AperFunction,SMDPad,CuDef*%
%ADD12R,1.000000X4.600000*%
%TD*%
%TA.AperFunction,SMDPad,CuDef*%
%ADD13R,3.000000X4.600000*%
%TD*%
%TA.AperFunction,SMDPad,CuDef*%
%ADD14R,4.600000X1.000000*%
%TD*%
%TA.AperFunction,SMDPad,CuDef*%
%ADD15R,4.600000X3.000000*%
%TD*%
%TA.AperFunction,ViaPad*%
%ADD16C,0.800000*%
%TD*%
G04 APERTURE END LIST*
D10*
%TO.P,J1,1,Pin_1*%
%TO.N,/Vin*%
X93000000Y-107000000D03*
%TD*%
D11*
%TO.P,J2,1,Pin_1*%
%TO.N,/GND*%
X107000000Y-93000000D03*
%TD*%
D12*
%TO.P,D2,1*%
%TO.N,/GND*%
X102750000Y-92000000D03*
%TO.P,D2,2*%
%TO.N,Net-(D1-Pad1)*%
X97250000Y-92000000D03*
D13*
%TO.P,D2,3,EXP*%
%TO.N,unconnected-(D2-EXP-Pad3)*%
X100000000Y-92000000D03*
%TD*%
D14*
%TO.P,D4,1*%
%TO.N,/GND*%
X108000000Y-97250000D03*
%TO.P,D4,2*%
%TO.N,Net-(D3-Pad1)*%
X108000000Y-102750000D03*
D15*
%TO.P,D4,3,EXP*%
%TO.N,unconnected-(D4-EXP-Pad3)*%
X108000000Y-100000000D03*
%TD*%
D14*
%TO.P,D1,1*%
%TO.N,Net-(D1-Pad1)*%
X92000000Y-97250000D03*
%TO.P,D1,2*%
%TO.N,/Vin*%
X92000000Y-102750000D03*
D15*
%TO.P,D1,3,EXP*%
%TO.N,unconnected-(D1-EXP-Pad3)*%
X92000000Y-100000000D03*
%TD*%
D12*
%TO.P,D3,1*%
%TO.N,Net-(D3-Pad1)*%
X102750000Y-108000000D03*
%TO.P,D3,2*%
%TO.N,/Vin*%
X97250000Y-108000000D03*
D13*
%TO.P,D3,3,EXP*%
%TO.N,unconnected-(D3-EXP-Pad3)*%
X100000000Y-108000000D03*
%TD*%
D16*
%TO.N,unconnected-(D3-EXP-Pad3)*%
X99000000Y-111000000D03*
X100000000Y-111000000D03*
X101000000Y-111000000D03*
X101500000Y-112000000D03*
X100500000Y-112000000D03*
X99500000Y-112000000D03*
X98500000Y-112000000D03*
%TO.N,unconnected-(D4-EXP-Pad3)*%
X111000000Y-99000000D03*
X111000000Y-100000000D03*
X111000000Y-101000000D03*
X112000000Y-101500000D03*
X112000000Y-100500000D03*
X112000000Y-99500000D03*
X112000000Y-98500000D03*
%TO.N,unconnected-(D2-EXP-Pad3)*%
X99000000Y-89000000D03*
X100000000Y-89000000D03*
X101000000Y-89000000D03*
X101500000Y-88000000D03*
X100500000Y-88000000D03*
X99500000Y-88000000D03*
X98500000Y-88000000D03*
%TO.N,unconnected-(D1-EXP-Pad3)*%
X89000000Y-99000000D03*
X89000000Y-100000000D03*
X89000000Y-101000000D03*
X88000000Y-101500000D03*
X88000000Y-100500000D03*
X88000000Y-99500000D03*
X88000000Y-98500000D03*
%TD*%
%TA.AperFunction,Conductor*%
%TO.N,/Vin*%
G36*
X89410774Y-102019685D02*
G01*
X89456529Y-102072489D01*
X89466473Y-102141647D01*
X89465352Y-102148191D01*
X89450000Y-102225371D01*
X89450000Y-102500000D01*
X94550000Y-102500000D01*
X94550000Y-102225373D01*
X94549999Y-102225371D01*
X94534648Y-102148191D01*
X94540875Y-102078599D01*
X94583739Y-102023422D01*
X94649628Y-102000178D01*
X94656265Y-102000000D01*
X94875500Y-102000000D01*
X94942539Y-102019685D01*
X94988294Y-102072489D01*
X94999500Y-102124000D01*
X94999500Y-104975467D01*
X94999416Y-104975889D01*
X94999459Y-105000001D01*
X94999500Y-105000099D01*
X94999616Y-105000382D01*
X94999618Y-105000384D01*
X94999808Y-105000462D01*
X95000000Y-105000541D01*
X95000002Y-105000539D01*
X95024616Y-105000524D01*
X95024616Y-105000528D01*
X95024760Y-105000500D01*
X97370500Y-105000500D01*
X97437539Y-105020185D01*
X97483294Y-105072989D01*
X97494500Y-105124499D01*
X97494500Y-105124500D01*
X97494500Y-105199875D01*
X97502532Y-105289627D01*
X97502531Y-105289626D01*
X97510351Y-105332967D01*
X97510352Y-105332968D01*
X97514247Y-105347167D01*
X97512999Y-105417026D01*
X97500000Y-105438496D01*
X97500000Y-110563302D01*
X97517484Y-110595322D01*
X97515375Y-110654557D01*
X97515586Y-110654599D01*
X97515326Y-110655918D01*
X97515303Y-110656588D01*
X97514982Y-110657683D01*
X97514976Y-110657705D01*
X97494500Y-110800124D01*
X97494500Y-112293734D01*
X97474815Y-112360773D01*
X97422011Y-112406528D01*
X97352853Y-112416472D01*
X97346309Y-112415351D01*
X97243948Y-112394991D01*
X97105123Y-112363305D01*
X96553312Y-112220964D01*
X96416447Y-112181534D01*
X95873481Y-112008475D01*
X95739080Y-111961446D01*
X95206648Y-111758206D01*
X95173542Y-111744493D01*
X95075098Y-111703716D01*
X94554901Y-111470942D01*
X94426616Y-111409164D01*
X93920300Y-111147595D01*
X93857978Y-111113151D01*
X93795665Y-111078712D01*
X93304809Y-110789163D01*
X93270566Y-110767647D01*
X93184238Y-110713403D01*
X92712077Y-110397916D01*
X92710380Y-110396782D01*
X92594257Y-110314388D01*
X92461456Y-110214445D01*
X92138902Y-109971699D01*
X92027558Y-109882903D01*
X91592161Y-109515244D01*
X91485966Y-109420343D01*
X91071869Y-109028849D01*
X90971150Y-108928130D01*
X90579656Y-108514033D01*
X90484755Y-108407838D01*
X90351473Y-108250000D01*
X96500000Y-108250000D01*
X96500000Y-110324628D01*
X96514503Y-110397540D01*
X96514505Y-110397544D01*
X96569760Y-110480239D01*
X96652455Y-110535494D01*
X96652459Y-110535496D01*
X96725371Y-110549999D01*
X96725374Y-110550000D01*
X97000000Y-110550000D01*
X97000000Y-108250000D01*
X96500000Y-108250000D01*
X90351473Y-108250000D01*
X90117096Y-107972441D01*
X90044915Y-107881931D01*
X90028301Y-107861098D01*
X89685609Y-107405739D01*
X89646394Y-107350471D01*
X89603225Y-107289631D01*
X89409700Y-107000000D01*
X92045403Y-107000000D01*
X92063744Y-107186230D01*
X92118069Y-107365313D01*
X92174868Y-107471577D01*
X92462580Y-107183865D01*
X92523903Y-107150380D01*
X92593594Y-107155364D01*
X92649528Y-107197235D01*
X92660742Y-107215246D01*
X92667296Y-107228109D01*
X92672358Y-107238044D01*
X92672363Y-107238050D01*
X92761949Y-107327636D01*
X92761951Y-107327637D01*
X92761955Y-107327641D01*
X92784747Y-107339254D01*
X92835542Y-107387228D01*
X92852337Y-107455049D01*
X92829799Y-107521184D01*
X92816132Y-107537419D01*
X92528421Y-107825129D01*
X92634688Y-107881931D01*
X92813769Y-107936255D01*
X93000000Y-107954596D01*
X93186230Y-107936255D01*
X93365311Y-107881931D01*
X93471577Y-107825130D01*
X93396447Y-107750000D01*
X96500000Y-107750000D01*
X97000000Y-107750000D01*
X97000000Y-105450000D01*
X96725373Y-105450000D01*
X96652459Y-105464503D01*
X96652455Y-105464505D01*
X96569760Y-105519760D01*
X96514505Y-105602455D01*
X96514503Y-105602459D01*
X96500000Y-105675371D01*
X96500000Y-107750000D01*
X93396447Y-107750000D01*
X93183866Y-107537419D01*
X93150381Y-107476096D01*
X93155365Y-107406404D01*
X93197237Y-107350471D01*
X93215245Y-107339258D01*
X93238045Y-107327641D01*
X93327641Y-107238045D01*
X93339254Y-107215252D01*
X93387225Y-107164458D01*
X93455046Y-107147661D01*
X93521181Y-107170197D01*
X93537419Y-107183866D01*
X93825130Y-107471577D01*
X93881931Y-107365311D01*
X93936255Y-107186230D01*
X93954596Y-107000000D01*
X93936255Y-106813769D01*
X93881931Y-106634688D01*
X93825129Y-106528421D01*
X93537419Y-106816132D01*
X93476096Y-106849617D01*
X93406404Y-106844633D01*
X93350471Y-106802761D01*
X93339256Y-106784751D01*
X93327641Y-106761955D01*
X93327637Y-106761951D01*
X93327636Y-106761949D01*
X93238050Y-106672363D01*
X93238044Y-106672358D01*
X93228109Y-106667296D01*
X93215250Y-106660744D01*
X93164456Y-106612773D01*
X93147660Y-106544952D01*
X93170197Y-106478817D01*
X93183865Y-106462580D01*
X93471577Y-106174868D01*
X93365313Y-106118069D01*
X93186230Y-106063744D01*
X93000000Y-106045403D01*
X92813769Y-106063744D01*
X92634692Y-106118067D01*
X92528422Y-106174869D01*
X92816133Y-106462580D01*
X92849618Y-106523903D01*
X92844634Y-106593595D01*
X92802762Y-106649528D01*
X92784748Y-106660745D01*
X92761956Y-106672358D01*
X92761949Y-106672363D01*
X92672363Y-106761949D01*
X92672358Y-106761956D01*
X92660745Y-106784748D01*
X92612770Y-106835544D01*
X92544949Y-106852338D01*
X92478814Y-106829800D01*
X92462580Y-106816133D01*
X92174869Y-106528422D01*
X92118067Y-106634692D01*
X92063744Y-106813769D01*
X92045403Y-107000000D01*
X89409700Y-107000000D01*
X89311036Y-106852338D01*
X89286596Y-106815761D01*
X89252783Y-106761949D01*
X89210845Y-106695206D01*
X88921285Y-106204330D01*
X88873610Y-106118069D01*
X88852417Y-106079725D01*
X88590832Y-105573378D01*
X88529057Y-105445098D01*
X88338920Y-105020185D01*
X88296277Y-104924887D01*
X88241787Y-104793335D01*
X88038545Y-104260898D01*
X87991524Y-104126516D01*
X87818464Y-103583549D01*
X87779035Y-103446687D01*
X87663811Y-103000000D01*
X89450000Y-103000000D01*
X89450000Y-103274628D01*
X89464503Y-103347540D01*
X89464505Y-103347544D01*
X89519760Y-103430239D01*
X89602455Y-103485494D01*
X89602459Y-103485496D01*
X89675371Y-103499999D01*
X89675374Y-103500000D01*
X91750000Y-103500000D01*
X91750000Y-103000000D01*
X92250000Y-103000000D01*
X92250000Y-103500000D01*
X94324626Y-103500000D01*
X94324628Y-103499999D01*
X94397540Y-103485496D01*
X94397544Y-103485494D01*
X94480239Y-103430239D01*
X94535494Y-103347544D01*
X94535496Y-103347540D01*
X94549999Y-103274628D01*
X94550000Y-103274626D01*
X94550000Y-103000000D01*
X92250000Y-103000000D01*
X91750000Y-103000000D01*
X89450000Y-103000000D01*
X87663811Y-103000000D01*
X87636694Y-102894876D01*
X87605008Y-102756051D01*
X87554343Y-102501340D01*
X87560570Y-102431752D01*
X87603433Y-102376574D01*
X87669323Y-102353330D01*
X87714276Y-102359220D01*
X87720200Y-102361145D01*
X87836897Y-102385949D01*
X87905354Y-102400500D01*
X87905355Y-102400500D01*
X88094644Y-102400500D01*
X88094646Y-102400500D01*
X88279803Y-102361144D01*
X88452730Y-102284151D01*
X88605871Y-102172888D01*
X88724598Y-102041028D01*
X88784086Y-102004379D01*
X88816749Y-102000000D01*
X89343735Y-102000000D01*
X89410774Y-102019685D01*
G37*
%TD.AperFunction*%
%TD*%
%TA.AperFunction,Conductor*%
%TO.N,/GND*%
G36*
X102653648Y-87584638D02*
G01*
X102756040Y-87605005D01*
X102894849Y-87636687D01*
X103409401Y-87769417D01*
X103446687Y-87779035D01*
X103583549Y-87818464D01*
X104126516Y-87991524D01*
X104260898Y-88038545D01*
X104793347Y-88241792D01*
X104924887Y-88296277D01*
X105247488Y-88440631D01*
X105445098Y-88529057D01*
X105573378Y-88590832D01*
X106079725Y-88852417D01*
X106204330Y-88921285D01*
X106695206Y-89210845D01*
X106769218Y-89257350D01*
X106815761Y-89286596D01*
X106903831Y-89345442D01*
X107289631Y-89603225D01*
X107391310Y-89675371D01*
X107405739Y-89685609D01*
X107861098Y-90028301D01*
X107898054Y-90057773D01*
X107972441Y-90117096D01*
X108407838Y-90484755D01*
X108514033Y-90579656D01*
X108928130Y-90971150D01*
X109028849Y-91071869D01*
X109420343Y-91485966D01*
X109515244Y-91592161D01*
X109882903Y-92027558D01*
X109971699Y-92138902D01*
X110214445Y-92461456D01*
X110314388Y-92594257D01*
X110396782Y-92710380D01*
X110423255Y-92750000D01*
X110713403Y-93184238D01*
X110789154Y-93304794D01*
X110819516Y-93356264D01*
X111078712Y-93795665D01*
X111147586Y-93920282D01*
X111258125Y-94134250D01*
X111409164Y-94426616D01*
X111470942Y-94554901D01*
X111703720Y-95075106D01*
X111758206Y-95206648D01*
X111961446Y-95739080D01*
X112008475Y-95873481D01*
X112181534Y-96416447D01*
X112220964Y-96553312D01*
X112363305Y-97105123D01*
X112394991Y-97243948D01*
X112415352Y-97346308D01*
X112409125Y-97415900D01*
X112366262Y-97471077D01*
X112300373Y-97494322D01*
X112293735Y-97494500D01*
X110800124Y-97494500D01*
X110789145Y-97495482D01*
X110710376Y-97502531D01*
X110667051Y-97510347D01*
X110667044Y-97510349D01*
X110667042Y-97510349D01*
X110667039Y-97510350D01*
X110662806Y-97511510D01*
X110652826Y-97514248D01*
X110582968Y-97512998D01*
X110561502Y-97500000D01*
X105436697Y-97500000D01*
X105404674Y-97517485D01*
X105345441Y-97515375D01*
X105345400Y-97515586D01*
X105344080Y-97515326D01*
X105343411Y-97515303D01*
X105342316Y-97514982D01*
X105342293Y-97514976D01*
X105280230Y-97506053D01*
X105199876Y-97494500D01*
X105124500Y-97494500D01*
X105057461Y-97474815D01*
X105011706Y-97422011D01*
X105000500Y-97370500D01*
X105000500Y-97000000D01*
X105450000Y-97000000D01*
X107750000Y-97000000D01*
X107750000Y-96500000D01*
X108250000Y-96500000D01*
X108250000Y-97000000D01*
X110550000Y-97000000D01*
X110550000Y-96725373D01*
X110549999Y-96725371D01*
X110535496Y-96652459D01*
X110535494Y-96652455D01*
X110480239Y-96569760D01*
X110397544Y-96514505D01*
X110397540Y-96514503D01*
X110324627Y-96500000D01*
X108250000Y-96500000D01*
X107750000Y-96500000D01*
X105675373Y-96500000D01*
X105602459Y-96514503D01*
X105602455Y-96514505D01*
X105519760Y-96569760D01*
X105464505Y-96652455D01*
X105464503Y-96652459D01*
X105450000Y-96725371D01*
X105450000Y-97000000D01*
X105000500Y-97000000D01*
X105000499Y-95008337D01*
X105000539Y-95000002D01*
X105000541Y-95000000D01*
X105000383Y-94999617D01*
X105000382Y-94999616D01*
X105000099Y-94999500D01*
X105000000Y-94999459D01*
X104975446Y-94999459D01*
X104975240Y-94999500D01*
X102629500Y-94999500D01*
X102562461Y-94979815D01*
X102516706Y-94927011D01*
X102505500Y-94875500D01*
X102505500Y-94800124D01*
X102497469Y-94710376D01*
X102497469Y-94710375D01*
X102489652Y-94667041D01*
X102489652Y-94667042D01*
X102485754Y-94652834D01*
X102487000Y-94582975D01*
X102500000Y-94561503D01*
X102500000Y-92250000D01*
X103000000Y-92250000D01*
X103000000Y-94550000D01*
X103274626Y-94550000D01*
X103274628Y-94549999D01*
X103347540Y-94535496D01*
X103347544Y-94535494D01*
X103430239Y-94480239D01*
X103485494Y-94397544D01*
X103485496Y-94397540D01*
X103499999Y-94324628D01*
X103500000Y-94324626D01*
X103500000Y-93449628D01*
X106325000Y-93449628D01*
X106339503Y-93522540D01*
X106339505Y-93522544D01*
X106394760Y-93605239D01*
X106477455Y-93660494D01*
X106477459Y-93660496D01*
X106550371Y-93674999D01*
X106550374Y-93675000D01*
X106750000Y-93675000D01*
X106750000Y-93356264D01*
X106769685Y-93289225D01*
X106822489Y-93243470D01*
X106891647Y-93233526D01*
X106898192Y-93234647D01*
X106975373Y-93250000D01*
X106975376Y-93250000D01*
X107024626Y-93250000D01*
X107101808Y-93234647D01*
X107171400Y-93240874D01*
X107226577Y-93283736D01*
X107249822Y-93349626D01*
X107250000Y-93356264D01*
X107250000Y-93675000D01*
X107449626Y-93675000D01*
X107449628Y-93674999D01*
X107522540Y-93660496D01*
X107522544Y-93660494D01*
X107605239Y-93605239D01*
X107660494Y-93522544D01*
X107660496Y-93522540D01*
X107674999Y-93449628D01*
X107675000Y-93449626D01*
X107675000Y-93250000D01*
X107356265Y-93250000D01*
X107289226Y-93230315D01*
X107243471Y-93177511D01*
X107233527Y-93108353D01*
X107234647Y-93101809D01*
X107237535Y-93087284D01*
X107254898Y-93000000D01*
X107235495Y-92902455D01*
X107234647Y-92898191D01*
X107240875Y-92828599D01*
X107283739Y-92773422D01*
X107349629Y-92750178D01*
X107356265Y-92750000D01*
X107675000Y-92750000D01*
X107675000Y-92550373D01*
X107674999Y-92550371D01*
X107660496Y-92477459D01*
X107660494Y-92477455D01*
X107605239Y-92394760D01*
X107522544Y-92339505D01*
X107522540Y-92339503D01*
X107449627Y-92325000D01*
X107250000Y-92325000D01*
X107250000Y-92643735D01*
X107230315Y-92710774D01*
X107177511Y-92756529D01*
X107108353Y-92766473D01*
X107101809Y-92765352D01*
X107024628Y-92750000D01*
X107024624Y-92750000D01*
X106975376Y-92750000D01*
X106975371Y-92750000D01*
X106898191Y-92765352D01*
X106828599Y-92759125D01*
X106773422Y-92716261D01*
X106750178Y-92650372D01*
X106750000Y-92643735D01*
X106750000Y-92325000D01*
X106550373Y-92325000D01*
X106477459Y-92339503D01*
X106477455Y-92339505D01*
X106394760Y-92394760D01*
X106339505Y-92477455D01*
X106339503Y-92477459D01*
X106325000Y-92550371D01*
X106325000Y-92750000D01*
X106643735Y-92750000D01*
X106710774Y-92769685D01*
X106756529Y-92822489D01*
X106766473Y-92891647D01*
X106765353Y-92898191D01*
X106745102Y-93000000D01*
X106765353Y-93101809D01*
X106759125Y-93171401D01*
X106716261Y-93226578D01*
X106650371Y-93249822D01*
X106643735Y-93250000D01*
X106325000Y-93250000D01*
X106325000Y-93449628D01*
X103500000Y-93449628D01*
X103500000Y-92250000D01*
X103000000Y-92250000D01*
X102500000Y-92250000D01*
X102500000Y-89450000D01*
X103000000Y-89450000D01*
X103000000Y-91750000D01*
X103500000Y-91750000D01*
X103500000Y-89675373D01*
X103499999Y-89675371D01*
X103485496Y-89602459D01*
X103485494Y-89602455D01*
X103430239Y-89519760D01*
X103347544Y-89464505D01*
X103347540Y-89464503D01*
X103274627Y-89450000D01*
X103000000Y-89450000D01*
X102500000Y-89450000D01*
X102500000Y-89436699D01*
X102482514Y-89404676D01*
X102484637Y-89345442D01*
X102484414Y-89345399D01*
X102484689Y-89343994D01*
X102484712Y-89343351D01*
X102485023Y-89342295D01*
X102485024Y-89342291D01*
X102505500Y-89199875D01*
X102505499Y-87706262D01*
X102525184Y-87639224D01*
X102577987Y-87593469D01*
X102647146Y-87583525D01*
X102653648Y-87584638D01*
G37*
%TD.AperFunction*%
%TD*%
%TA.AperFunction,Conductor*%
%TO.N,Net-(D3-Pad1)*%
G36*
X110654557Y-102484628D02*
G01*
X110654600Y-102484414D01*
X110655945Y-102484678D01*
X110656610Y-102484702D01*
X110657695Y-102485021D01*
X110657704Y-102485023D01*
X110657708Y-102485024D01*
X110800124Y-102505500D01*
X110800127Y-102505500D01*
X112293734Y-102505500D01*
X112360773Y-102525185D01*
X112406528Y-102577989D01*
X112416472Y-102647147D01*
X112415351Y-102653691D01*
X112394991Y-102756052D01*
X112363305Y-102894876D01*
X112220964Y-103446687D01*
X112181534Y-103583552D01*
X112008475Y-104126518D01*
X111961446Y-104260919D01*
X111758206Y-104793351D01*
X111703720Y-104924893D01*
X111470942Y-105445098D01*
X111409164Y-105573383D01*
X111147591Y-106079708D01*
X111078712Y-106204334D01*
X110789159Y-106695198D01*
X110713403Y-106815761D01*
X110396784Y-107289616D01*
X110314388Y-107405742D01*
X109971706Y-107861088D01*
X109882903Y-107972441D01*
X109515244Y-108407838D01*
X109420343Y-108514033D01*
X109028849Y-108928130D01*
X108928130Y-109028849D01*
X108514033Y-109420343D01*
X108407838Y-109515244D01*
X107972441Y-109882903D01*
X107861088Y-109971706D01*
X107405742Y-110314388D01*
X107289616Y-110396784D01*
X106815761Y-110713403D01*
X106695198Y-110789159D01*
X106204334Y-111078712D01*
X106079708Y-111147591D01*
X105573383Y-111409164D01*
X105445098Y-111470942D01*
X104924893Y-111703720D01*
X104793351Y-111758206D01*
X104260919Y-111961446D01*
X104126518Y-112008475D01*
X103583552Y-112181534D01*
X103446687Y-112220964D01*
X102894876Y-112363305D01*
X102756046Y-112394992D01*
X102653690Y-112415351D01*
X102584098Y-112409124D01*
X102528921Y-112366260D01*
X102505677Y-112300370D01*
X102505499Y-112293734D01*
X102505500Y-110800124D01*
X102497469Y-110710376D01*
X102497469Y-110710375D01*
X102489652Y-110667041D01*
X102489652Y-110667042D01*
X102485754Y-110652834D01*
X102487000Y-110582975D01*
X102500000Y-110561503D01*
X102500000Y-108250000D01*
X103000000Y-108250000D01*
X103000000Y-110550000D01*
X103274626Y-110550000D01*
X103274628Y-110549999D01*
X103347540Y-110535496D01*
X103347544Y-110535494D01*
X103430239Y-110480239D01*
X103485494Y-110397544D01*
X103485496Y-110397540D01*
X103499999Y-110324628D01*
X103500000Y-110324626D01*
X103500000Y-108250000D01*
X103000000Y-108250000D01*
X102500000Y-108250000D01*
X102500000Y-105450000D01*
X103000000Y-105450000D01*
X103000000Y-107750000D01*
X103500000Y-107750000D01*
X103500000Y-105675373D01*
X103499999Y-105675371D01*
X103485496Y-105602459D01*
X103485494Y-105602455D01*
X103430239Y-105519760D01*
X103347544Y-105464505D01*
X103347540Y-105464503D01*
X103274627Y-105450000D01*
X103000000Y-105450000D01*
X102500000Y-105450000D01*
X102500000Y-105436699D01*
X102482514Y-105404676D01*
X102484637Y-105345442D01*
X102484414Y-105345399D01*
X102484689Y-105343994D01*
X102484712Y-105343351D01*
X102485023Y-105342295D01*
X102485024Y-105342291D01*
X102505500Y-105199875D01*
X102505500Y-105124500D01*
X102525185Y-105057461D01*
X102577989Y-105011706D01*
X102629500Y-105000500D01*
X104975240Y-105000500D01*
X104975383Y-105000528D01*
X104975384Y-105000524D01*
X104999997Y-105000539D01*
X105000000Y-105000541D01*
X105000383Y-105000383D01*
X105000500Y-105000099D01*
X105000499Y-105000099D01*
X105000541Y-105000000D01*
X105000540Y-104999998D01*
X105006892Y-104985028D01*
X105000521Y-104964747D01*
X105000499Y-104962417D01*
X105000500Y-103000000D01*
X105450000Y-103000000D01*
X105450000Y-103274628D01*
X105464503Y-103347540D01*
X105464505Y-103347544D01*
X105519760Y-103430239D01*
X105602455Y-103485494D01*
X105602459Y-103485496D01*
X105675371Y-103499999D01*
X105675374Y-103500000D01*
X107750000Y-103500000D01*
X107750000Y-103000000D01*
X108250000Y-103000000D01*
X108250000Y-103500000D01*
X110324626Y-103500000D01*
X110324628Y-103499999D01*
X110397540Y-103485496D01*
X110397544Y-103485494D01*
X110480239Y-103430239D01*
X110535494Y-103347544D01*
X110535496Y-103347540D01*
X110549999Y-103274628D01*
X110550000Y-103274626D01*
X110550000Y-103000000D01*
X108250000Y-103000000D01*
X107750000Y-103000000D01*
X105450000Y-103000000D01*
X105000500Y-103000000D01*
X105000500Y-102629500D01*
X105020185Y-102562460D01*
X105072989Y-102516706D01*
X105124500Y-102505500D01*
X105199875Y-102505500D01*
X105199876Y-102505500D01*
X105210854Y-102504517D01*
X105289624Y-102497469D01*
X105332958Y-102489651D01*
X105337027Y-102488534D01*
X105347162Y-102485754D01*
X105417019Y-102486998D01*
X105438495Y-102500000D01*
X110563300Y-102500000D01*
X110595319Y-102482515D01*
X110654557Y-102484628D01*
G37*
%TD.AperFunction*%
%TD*%
%TA.AperFunction,Conductor*%
%TO.N,Net-(D1-Pad1)*%
G36*
X97415900Y-87590874D02*
G01*
X97471078Y-87633737D01*
X97494322Y-87699627D01*
X97494500Y-87706263D01*
X97494500Y-89199875D01*
X97502532Y-89289627D01*
X97502531Y-89289626D01*
X97510351Y-89332967D01*
X97510352Y-89332968D01*
X97514247Y-89347167D01*
X97512999Y-89417026D01*
X97500000Y-89438496D01*
X97500000Y-94563302D01*
X97517484Y-94595322D01*
X97515375Y-94654557D01*
X97515586Y-94654599D01*
X97515326Y-94655918D01*
X97515303Y-94656588D01*
X97514982Y-94657683D01*
X97514976Y-94657705D01*
X97494500Y-94800124D01*
X97494500Y-94875500D01*
X97474815Y-94942539D01*
X97422011Y-94988294D01*
X97370500Y-94999500D01*
X95024760Y-94999500D01*
X95024554Y-94999459D01*
X95000000Y-94999459D01*
X94999901Y-94999500D01*
X94999617Y-94999616D01*
X94999615Y-94999618D01*
X94999459Y-94999999D01*
X94999476Y-95024616D01*
X94999471Y-95024616D01*
X94999500Y-95024759D01*
X94999500Y-97876000D01*
X94979815Y-97943039D01*
X94927011Y-97988794D01*
X94875500Y-98000000D01*
X94656265Y-98000000D01*
X94589226Y-97980315D01*
X94543471Y-97927511D01*
X94533527Y-97858353D01*
X94534648Y-97851809D01*
X94549999Y-97774628D01*
X94550000Y-97774626D01*
X94550000Y-97500000D01*
X89450000Y-97500000D01*
X89450000Y-97774628D01*
X89465352Y-97851809D01*
X89459125Y-97921401D01*
X89416261Y-97976578D01*
X89350372Y-97999822D01*
X89343735Y-98000000D01*
X88816749Y-98000000D01*
X88749710Y-97980315D01*
X88724599Y-97958972D01*
X88605870Y-97827111D01*
X88452734Y-97715851D01*
X88452729Y-97715848D01*
X88279807Y-97638857D01*
X88279802Y-97638855D01*
X88128444Y-97606684D01*
X88094646Y-97599500D01*
X87905354Y-97599500D01*
X87871556Y-97606684D01*
X87720188Y-97638857D01*
X87714267Y-97640781D01*
X87644426Y-97642770D01*
X87584597Y-97606684D01*
X87553774Y-97543981D01*
X87554342Y-97498659D01*
X87605012Y-97243927D01*
X87636686Y-97105152D01*
X87663810Y-97000000D01*
X89450000Y-97000000D01*
X91750000Y-97000000D01*
X91750000Y-96500000D01*
X92250000Y-96500000D01*
X92250000Y-97000000D01*
X94550000Y-97000000D01*
X94550000Y-96725373D01*
X94549999Y-96725371D01*
X94535496Y-96652459D01*
X94535494Y-96652455D01*
X94480239Y-96569760D01*
X94397544Y-96514505D01*
X94397540Y-96514503D01*
X94324627Y-96500000D01*
X92250000Y-96500000D01*
X91750000Y-96500000D01*
X89675373Y-96500000D01*
X89602459Y-96514503D01*
X89602455Y-96514505D01*
X89519760Y-96569760D01*
X89464505Y-96652455D01*
X89464503Y-96652459D01*
X89450000Y-96725371D01*
X89450000Y-97000000D01*
X87663810Y-97000000D01*
X87779036Y-96553305D01*
X87818465Y-96416447D01*
X87991532Y-95873455D01*
X88038539Y-95739118D01*
X88241797Y-95206639D01*
X88296266Y-95075136D01*
X88529057Y-94554901D01*
X88565012Y-94480239D01*
X88590823Y-94426639D01*
X88852429Y-93920252D01*
X88921268Y-93795697D01*
X89210854Y-93304778D01*
X89286590Y-93184247D01*
X89603231Y-92710359D01*
X89685593Y-92594281D01*
X89944691Y-92250000D01*
X96500000Y-92250000D01*
X96500000Y-94324628D01*
X96514503Y-94397540D01*
X96514505Y-94397544D01*
X96569760Y-94480239D01*
X96652455Y-94535494D01*
X96652459Y-94535496D01*
X96725371Y-94549999D01*
X96725374Y-94550000D01*
X97000000Y-94550000D01*
X97000000Y-92250000D01*
X96500000Y-92250000D01*
X89944691Y-92250000D01*
X90028305Y-92138896D01*
X90117096Y-92027558D01*
X90205841Y-91922462D01*
X90351472Y-91750000D01*
X96500000Y-91750000D01*
X97000000Y-91750000D01*
X97000000Y-89450000D01*
X96725373Y-89450000D01*
X96652459Y-89464503D01*
X96652455Y-89464505D01*
X96569760Y-89519760D01*
X96514505Y-89602455D01*
X96514503Y-89602459D01*
X96500000Y-89675371D01*
X96500000Y-91750000D01*
X90351472Y-91750000D01*
X90484764Y-91592151D01*
X90579646Y-91485977D01*
X90971167Y-91071851D01*
X91071851Y-90971167D01*
X91485977Y-90579646D01*
X91592151Y-90484764D01*
X92027558Y-90117096D01*
X92052828Y-90096943D01*
X92138896Y-90028305D01*
X92594281Y-89685593D01*
X92710359Y-89603231D01*
X93184243Y-89286592D01*
X93304778Y-89210854D01*
X93795697Y-88921268D01*
X93920252Y-88852429D01*
X94426639Y-88590823D01*
X94554901Y-88529057D01*
X94592852Y-88512074D01*
X95075136Y-88296266D01*
X95206639Y-88241797D01*
X95739118Y-88038539D01*
X95873455Y-87991532D01*
X96416484Y-87818453D01*
X96553296Y-87779039D01*
X97105152Y-87636686D01*
X97243927Y-87605012D01*
X97346310Y-87584647D01*
X97415900Y-87590874D01*
G37*
%TD.AperFunction*%
%TD*%
%TA.AperFunction,Conductor*%
%TO.N,unconnected-(D1-EXP-Pad3)*%
G36*
X88054264Y-98107709D02*
G01*
X88109988Y-98119553D01*
X88134640Y-98127563D01*
X88186679Y-98150732D01*
X88209121Y-98163689D01*
X88230842Y-98179470D01*
X88255218Y-98197180D01*
X88274481Y-98214525D01*
X88360214Y-98309739D01*
X88360215Y-98309740D01*
X88384386Y-98333230D01*
X88384385Y-98333229D01*
X88422336Y-98365486D01*
X88422345Y-98365493D01*
X88422344Y-98365493D01*
X88447192Y-98383909D01*
X88476413Y-98405567D01*
X88607290Y-98465338D01*
X88645399Y-98476528D01*
X88674324Y-98485022D01*
X88674329Y-98485023D01*
X88674333Y-98485024D01*
X88816749Y-98505500D01*
X88816752Y-98505500D01*
X89326000Y-98505500D01*
X89393039Y-98525185D01*
X89438794Y-98577989D01*
X89450000Y-98629500D01*
X89450000Y-99000000D01*
X94550000Y-99000000D01*
X94550000Y-98629500D01*
X94569685Y-98562461D01*
X94622489Y-98516706D01*
X94674000Y-98505500D01*
X94875500Y-98505500D01*
X94942539Y-98525185D01*
X94988294Y-98577989D01*
X94999500Y-98629500D01*
X94999500Y-101370500D01*
X94979815Y-101437539D01*
X94927011Y-101483294D01*
X94875500Y-101494500D01*
X94674000Y-101494500D01*
X94606961Y-101474815D01*
X94561206Y-101422011D01*
X94550000Y-101370500D01*
X94550000Y-101000000D01*
X89450000Y-101000000D01*
X89450000Y-101370500D01*
X89430315Y-101437539D01*
X89377511Y-101483294D01*
X89326000Y-101494500D01*
X88799901Y-101494500D01*
X88766279Y-101496744D01*
X88766274Y-101496744D01*
X88716916Y-101503362D01*
X88683924Y-101510046D01*
X88650932Y-101516731D01*
X88609604Y-101534662D01*
X88518946Y-101573995D01*
X88518933Y-101574002D01*
X88459448Y-101610649D01*
X88459447Y-101610650D01*
X88348935Y-101702785D01*
X88274485Y-101785469D01*
X88255222Y-101802813D01*
X88209128Y-101836303D01*
X88186677Y-101849266D01*
X88134638Y-101872435D01*
X88109986Y-101880445D01*
X88072790Y-101888352D01*
X88054263Y-101892290D01*
X88028482Y-101895000D01*
X87971514Y-101895000D01*
X87945733Y-101892290D01*
X87785998Y-101858337D01*
X87782816Y-101858063D01*
X87782776Y-101858374D01*
X87735002Y-101852114D01*
X87675988Y-101849848D01*
X87642271Y-101848554D01*
X87642270Y-101848554D01*
X87642267Y-101848554D01*
X87574731Y-101861987D01*
X87505140Y-101855758D01*
X87449963Y-101812894D01*
X87427760Y-101757707D01*
X87390306Y-101492404D01*
X87382375Y-101422011D01*
X87374365Y-101350925D01*
X87326463Y-100783014D01*
X87318481Y-100640890D01*
X87302498Y-100071210D01*
X87302498Y-99928789D01*
X87318481Y-99359132D01*
X87326462Y-99216993D01*
X87374368Y-98649047D01*
X87390307Y-98507588D01*
X87427647Y-98243094D01*
X87456508Y-98179470D01*
X87515189Y-98141546D01*
X87564573Y-98137243D01*
X87658816Y-98148065D01*
X87728657Y-98146076D01*
X87728714Y-98146075D01*
X87772579Y-98138482D01*
X87791009Y-98140596D01*
X87825283Y-98133310D01*
X87825284Y-98133311D01*
X87945732Y-98107709D01*
X87971511Y-98105000D01*
X88028484Y-98105000D01*
X88054264Y-98107709D01*
G37*
%TD.AperFunction*%
%TD*%
%TA.AperFunction,Conductor*%
%TO.N,unconnected-(D2-EXP-Pad3)*%
G36*
X100640890Y-87318481D02*
G01*
X100783014Y-87326463D01*
X101350925Y-87374365D01*
X101492386Y-87390303D01*
X101893336Y-87446908D01*
X101956962Y-87475770D01*
X101994887Y-87534452D01*
X101999999Y-87569690D01*
X102000000Y-89199875D01*
X101980315Y-89266914D01*
X101950312Y-89299141D01*
X101892454Y-89342454D01*
X101803654Y-89461074D01*
X101747720Y-89502944D01*
X101678028Y-89507928D01*
X101635497Y-89489864D01*
X101597544Y-89464505D01*
X101597540Y-89464503D01*
X101524627Y-89450000D01*
X101000000Y-89450000D01*
X101000000Y-94550000D01*
X101524626Y-94550000D01*
X101524628Y-94549999D01*
X101597540Y-94535496D01*
X101597545Y-94535494D01*
X101635496Y-94510136D01*
X101702173Y-94489257D01*
X101769553Y-94507741D01*
X101803655Y-94538926D01*
X101806204Y-94542331D01*
X101892454Y-94657546D01*
X101950311Y-94700858D01*
X101992182Y-94756789D01*
X102000000Y-94800123D01*
X102000000Y-94875500D01*
X101980315Y-94942539D01*
X101927511Y-94988294D01*
X101876000Y-94999500D01*
X98124000Y-94999500D01*
X98056961Y-94979815D01*
X98011206Y-94927011D01*
X98000000Y-94875500D01*
X98000000Y-94800123D01*
X98019685Y-94733084D01*
X98049686Y-94700859D01*
X98107546Y-94657546D01*
X98193796Y-94542331D01*
X98193796Y-94542328D01*
X98196344Y-94538926D01*
X98252278Y-94497055D01*
X98321969Y-94492071D01*
X98364502Y-94510135D01*
X98402455Y-94535495D01*
X98402459Y-94535496D01*
X98475371Y-94549999D01*
X98475374Y-94550000D01*
X99000000Y-94550000D01*
X99000000Y-89450000D01*
X98475373Y-89450000D01*
X98402459Y-89464503D01*
X98402456Y-89464504D01*
X98364501Y-89489865D01*
X98297823Y-89510742D01*
X98230443Y-89492257D01*
X98196345Y-89461073D01*
X98107547Y-89342455D01*
X98049688Y-89299141D01*
X98007818Y-89243207D01*
X98000000Y-89199875D01*
X98000000Y-87569690D01*
X98019685Y-87502651D01*
X98072489Y-87456896D01*
X98106657Y-87446909D01*
X98507602Y-87390305D01*
X98649047Y-87374368D01*
X99216993Y-87326462D01*
X99359109Y-87318481D01*
X99928790Y-87302498D01*
X100071210Y-87302498D01*
X100640890Y-87318481D01*
G37*
%TD.AperFunction*%
%TD*%
%TA.AperFunction,Conductor*%
%TO.N,unconnected-(D4-EXP-Pad3)*%
G36*
X105266915Y-98019685D02*
G01*
X105299140Y-98049686D01*
X105342454Y-98107546D01*
X105364434Y-98124000D01*
X105461073Y-98196345D01*
X105502944Y-98252278D01*
X105507928Y-98321970D01*
X105489865Y-98364501D01*
X105464504Y-98402456D01*
X105464503Y-98402459D01*
X105450000Y-98475371D01*
X105450000Y-99000000D01*
X110550000Y-99000000D01*
X110550000Y-98475373D01*
X110549999Y-98475371D01*
X110535496Y-98402459D01*
X110535495Y-98402455D01*
X110510135Y-98364502D01*
X110489257Y-98297825D01*
X110507741Y-98230445D01*
X110538926Y-98196344D01*
X110542328Y-98193796D01*
X110542331Y-98193796D01*
X110657546Y-98107546D01*
X110700858Y-98049687D01*
X110756791Y-98007818D01*
X110800124Y-98000000D01*
X112430309Y-98000000D01*
X112497348Y-98019685D01*
X112543103Y-98072489D01*
X112553092Y-98106666D01*
X112609691Y-98507583D01*
X112625634Y-98649078D01*
X112673534Y-99216958D01*
X112681518Y-99359132D01*
X112699451Y-99998260D01*
X112699451Y-100001738D01*
X112681518Y-100640867D01*
X112673534Y-100783041D01*
X112625634Y-101350921D01*
X112609691Y-101492416D01*
X112572493Y-101755909D01*
X112553217Y-101892452D01*
X112553092Y-101893334D01*
X112524229Y-101956963D01*
X112465547Y-101994888D01*
X112430309Y-102000000D01*
X110800124Y-102000000D01*
X110733085Y-101980315D01*
X110700859Y-101950313D01*
X110657546Y-101892454D01*
X110634426Y-101875147D01*
X110538926Y-101803654D01*
X110497055Y-101747720D01*
X110492071Y-101678029D01*
X110510136Y-101635496D01*
X110535494Y-101597545D01*
X110535496Y-101597540D01*
X110549999Y-101524628D01*
X110550000Y-101524626D01*
X110550000Y-101000000D01*
X105450000Y-101000000D01*
X105450000Y-101524628D01*
X105464503Y-101597540D01*
X105464505Y-101597544D01*
X105489864Y-101635497D01*
X105510742Y-101702175D01*
X105492257Y-101769555D01*
X105461074Y-101803654D01*
X105342454Y-101892453D01*
X105341795Y-101893334D01*
X105299141Y-101950312D01*
X105243209Y-101992182D01*
X105199876Y-102000000D01*
X105124499Y-102000000D01*
X105057460Y-101980315D01*
X105011705Y-101927511D01*
X105000499Y-101876000D01*
X105000499Y-98124000D01*
X105020184Y-98056961D01*
X105072988Y-98011206D01*
X105124499Y-98000000D01*
X105199876Y-98000000D01*
X105266915Y-98019685D01*
G37*
%TD.AperFunction*%
%TD*%
%TA.AperFunction,Conductor*%
%TO.N,unconnected-(D3-EXP-Pad3)*%
G36*
X101943039Y-105020185D02*
G01*
X101988794Y-105072989D01*
X102000000Y-105124500D01*
X102000000Y-105199875D01*
X101980315Y-105266914D01*
X101950312Y-105299141D01*
X101892454Y-105342454D01*
X101803654Y-105461074D01*
X101747720Y-105502944D01*
X101678028Y-105507928D01*
X101635497Y-105489864D01*
X101597544Y-105464505D01*
X101597540Y-105464503D01*
X101524627Y-105450000D01*
X101000000Y-105450000D01*
X101000000Y-110550000D01*
X101524626Y-110550000D01*
X101524628Y-110549999D01*
X101597540Y-110535496D01*
X101597545Y-110535494D01*
X101635496Y-110510136D01*
X101702173Y-110489257D01*
X101769553Y-110507741D01*
X101803655Y-110538926D01*
X101806204Y-110542331D01*
X101892454Y-110657546D01*
X101950311Y-110700858D01*
X101992182Y-110756789D01*
X102000000Y-110800123D01*
X101999999Y-112430308D01*
X101980314Y-112497348D01*
X101927510Y-112543102D01*
X101893333Y-112553090D01*
X101492416Y-112609691D01*
X101350921Y-112625634D01*
X100783041Y-112673534D01*
X100640867Y-112681518D01*
X100071210Y-112697502D01*
X99928790Y-112697502D01*
X99359132Y-112681518D01*
X99216958Y-112673534D01*
X98649078Y-112625634D01*
X98507583Y-112609691D01*
X98106666Y-112553090D01*
X98043036Y-112524228D01*
X98005112Y-112465546D01*
X98000000Y-112430308D01*
X98000000Y-110800123D01*
X98019685Y-110733084D01*
X98049686Y-110700859D01*
X98107546Y-110657546D01*
X98193796Y-110542331D01*
X98193796Y-110542328D01*
X98196344Y-110538926D01*
X98252278Y-110497055D01*
X98321969Y-110492071D01*
X98364502Y-110510135D01*
X98402455Y-110535495D01*
X98402459Y-110535496D01*
X98475371Y-110549999D01*
X98475374Y-110550000D01*
X99000000Y-110550000D01*
X99000000Y-105450000D01*
X98475373Y-105450000D01*
X98402459Y-105464503D01*
X98402456Y-105464504D01*
X98364501Y-105489865D01*
X98297823Y-105510742D01*
X98230443Y-105492257D01*
X98196345Y-105461073D01*
X98107547Y-105342455D01*
X98049688Y-105299141D01*
X98007818Y-105243207D01*
X98000000Y-105199875D01*
X98000000Y-105124500D01*
X98019685Y-105057461D01*
X98072489Y-105011706D01*
X98124000Y-105000500D01*
X101876000Y-105000500D01*
X101943039Y-105020185D01*
G37*
%TD.AperFunction*%
%TD*%
M02*
