M48
; DRILL file {KiCad 7.0.7} date Wed Jan 24 10:18:04 2024
; FORMAT={-:-/ absolute / inch / decimal}
; #@! TF.CreationDate,2024-01-24T10:18:04-05:00
; #@! TF.GenerationSoftware,Kicad,Pcbnew,7.0.7
; #@! TF.FileFunction,Plated,1,2,PTH
FMAT,2
INCH
; #@! TA.AperFunction,Plated,PTH,ViaDrill
T1C0.0157
; #@! TA.AperFunction,Plated,PTH,ComponentDrill
T2C0.0197
; #@! TA.AperFunction,Plated,PTH,ComponentDrill
T3C0.0315
%
G90
G05
T1
X3.4646Y-3.878
X3.4646Y-3.9173
X3.4646Y-3.9567
X3.4646Y-3.9961
X3.5039Y-3.8976
X3.5039Y-3.937
X3.5039Y-3.9764
X3.878Y-3.4646
X3.878Y-4.4094
X3.8976Y-3.5039
X3.8976Y-4.3701
X3.9173Y-3.4646
X3.9173Y-4.4094
X3.937Y-3.5039
X3.937Y-4.3701
X3.9567Y-3.4646
X3.9567Y-4.4094
X3.9764Y-3.5039
X3.9764Y-4.3701
X3.9961Y-3.4646
X3.9961Y-4.4094
X4.3701Y-3.8976
X4.3701Y-3.937
X4.3701Y-3.9764
X4.4094Y-3.878
X4.4094Y-3.9173
X4.4094Y-3.9567
X4.4094Y-3.9961
T2
X4.2126Y-3.6614
T3
X3.6614Y-4.2126
T0
M30
