%TF.GenerationSoftware,KiCad,Pcbnew,7.0.7*%
%TF.CreationDate,2024-01-24T10:21:09-05:00*%
%TF.ProjectId,LED_board,4c45445f-626f-4617-9264-2e6b69636164,rev?*%
%TF.SameCoordinates,Original*%
%TF.FileFunction,Copper,L1,Top*%
%TF.FilePolarity,Positive*%
%FSLAX46Y46*%
G04 Gerber Fmt 4.6, Leading zero omitted, Abs format (unit mm)*
G04 Created by KiCad (PCBNEW 7.0.7) date 2024-01-24 10:21:09*
%MOMM*%
%LPD*%
G01*
G04 APERTURE LIST*
%TA.AperFunction,ComponentPad*%
%ADD10C,1.400000*%
%TD*%
%TA.AperFunction,SMDPad,CuDef*%
%ADD11R,1.500000X0.600000*%
%TD*%
G04 APERTURE END LIST*
D10*
%TO.P,J2,1,Pin_1*%
%TO.N,/GND*%
X102800000Y-100000000D03*
%TD*%
%TO.P,J1,1,Pin_1*%
%TO.N,/Vin*%
X97200000Y-100000000D03*
%TD*%
D11*
%TO.P,D3,1,K*%
%TO.N,Net-(D3-K)*%
X97500000Y-102950000D03*
%TO.P,D3,2,A*%
%TO.N,/Vin*%
X97500000Y-102050000D03*
%TD*%
%TO.P,D1,1,K*%
%TO.N,Net-(D1-K)*%
X97500000Y-97050000D03*
%TO.P,D1,2,A*%
%TO.N,/Vin*%
X97500000Y-97950000D03*
%TD*%
%TO.P,D4,1,K*%
%TO.N,/GND*%
X102500000Y-102050000D03*
%TO.P,D4,2,A*%
%TO.N,Net-(D3-K)*%
X102500000Y-102950000D03*
%TD*%
%TO.P,D2,1,K*%
%TO.N,/GND*%
X102500000Y-97950000D03*
%TO.P,D2,2,A*%
%TO.N,Net-(D1-K)*%
X102500000Y-97050000D03*
%TD*%
%TA.AperFunction,Conductor*%
%TO.N,Net-(D3-K)*%
G36*
X96408142Y-102719685D02*
G01*
X96415403Y-102724726D01*
X96507668Y-102793795D01*
X96507671Y-102793797D01*
X96642517Y-102844091D01*
X96642516Y-102844091D01*
X96649444Y-102844835D01*
X96702127Y-102850500D01*
X98297872Y-102850499D01*
X98357483Y-102844091D01*
X98492331Y-102793796D01*
X98584586Y-102724733D01*
X98650050Y-102700316D01*
X98658897Y-102700000D01*
X100744499Y-102700000D01*
X100796010Y-102711205D01*
X100914541Y-102765338D01*
X100957313Y-102777897D01*
X100981575Y-102785022D01*
X100981580Y-102785023D01*
X100981584Y-102785024D01*
X101124000Y-102805500D01*
X101124003Y-102805500D01*
X101350126Y-102805500D01*
X101350128Y-102805500D01*
X101367994Y-102804862D01*
X101386023Y-102803895D01*
X101444374Y-102791200D01*
X101514066Y-102796182D01*
X101514069Y-102796183D01*
X101642517Y-102844091D01*
X101642516Y-102844091D01*
X101649444Y-102844835D01*
X101702127Y-102850500D01*
X103297872Y-102850499D01*
X103357483Y-102844091D01*
X103486374Y-102796017D01*
X103547349Y-102789462D01*
X103658897Y-102805500D01*
X103658900Y-102805500D01*
X103875500Y-102805500D01*
X103942539Y-102825185D01*
X103988294Y-102877989D01*
X103999500Y-102929500D01*
X103999500Y-103875500D01*
X103979815Y-103942539D01*
X103927011Y-103988294D01*
X103875500Y-103999500D01*
X96124500Y-103999500D01*
X96057461Y-103979815D01*
X96011706Y-103927011D01*
X96000500Y-103875500D01*
X96000500Y-103200000D01*
X96500000Y-103200000D01*
X96500000Y-103274628D01*
X96514503Y-103347540D01*
X96514505Y-103347544D01*
X96569760Y-103430239D01*
X96652455Y-103485494D01*
X96652459Y-103485496D01*
X96725371Y-103499999D01*
X96725374Y-103500000D01*
X97250000Y-103500000D01*
X97250000Y-103200000D01*
X97750000Y-103200000D01*
X97750000Y-103500000D01*
X98274626Y-103500000D01*
X98274628Y-103499999D01*
X98347540Y-103485496D01*
X98347544Y-103485494D01*
X98430239Y-103430239D01*
X98485494Y-103347544D01*
X98485496Y-103347540D01*
X98499999Y-103274628D01*
X98500000Y-103274626D01*
X98500000Y-103200000D01*
X101500000Y-103200000D01*
X101500000Y-103274628D01*
X101514503Y-103347540D01*
X101514505Y-103347544D01*
X101569760Y-103430239D01*
X101652455Y-103485494D01*
X101652459Y-103485496D01*
X101725371Y-103499999D01*
X101725374Y-103500000D01*
X102250000Y-103500000D01*
X102250000Y-103200000D01*
X102750000Y-103200000D01*
X102750000Y-103500000D01*
X103274626Y-103500000D01*
X103274628Y-103499999D01*
X103347540Y-103485496D01*
X103347544Y-103485494D01*
X103430239Y-103430239D01*
X103485494Y-103347544D01*
X103485496Y-103347540D01*
X103499999Y-103274628D01*
X103500000Y-103274626D01*
X103500000Y-103200000D01*
X102750000Y-103200000D01*
X102250000Y-103200000D01*
X101500000Y-103200000D01*
X98500000Y-103200000D01*
X97750000Y-103200000D01*
X97250000Y-103200000D01*
X96500000Y-103200000D01*
X96000500Y-103200000D01*
X96000500Y-102824000D01*
X96020185Y-102756961D01*
X96072989Y-102711206D01*
X96124500Y-102700000D01*
X96341103Y-102700000D01*
X96408142Y-102719685D01*
G37*
%TD.AperFunction*%
%TD*%
%TA.AperFunction,Conductor*%
%TO.N,/GND*%
G36*
X101408142Y-97719685D02*
G01*
X101415403Y-97724726D01*
X101458464Y-97756961D01*
X101507668Y-97793795D01*
X101507671Y-97793797D01*
X101642517Y-97844091D01*
X101642516Y-97844091D01*
X101649444Y-97844835D01*
X101702127Y-97850500D01*
X103297872Y-97850499D01*
X103357483Y-97844091D01*
X103492331Y-97793796D01*
X103584586Y-97724733D01*
X103650050Y-97700316D01*
X103658897Y-97700000D01*
X103875500Y-97700000D01*
X103942539Y-97719685D01*
X103988294Y-97772489D01*
X103999500Y-97824000D01*
X103999500Y-99962462D01*
X103989011Y-99998181D01*
X103997328Y-100014432D01*
X103999500Y-100037537D01*
X103999500Y-102176000D01*
X103979815Y-102243039D01*
X103927011Y-102288794D01*
X103875500Y-102300000D01*
X103658897Y-102300000D01*
X103591858Y-102280315D01*
X103584596Y-102275273D01*
X103492331Y-102206204D01*
X103492328Y-102206202D01*
X103357482Y-102155908D01*
X103357483Y-102155908D01*
X103297883Y-102149501D01*
X103297881Y-102149500D01*
X103297873Y-102149500D01*
X103297864Y-102149500D01*
X101702129Y-102149500D01*
X101702123Y-102149501D01*
X101642516Y-102155908D01*
X101507671Y-102206202D01*
X101507668Y-102206204D01*
X101458464Y-102243039D01*
X101415413Y-102275266D01*
X101349950Y-102299684D01*
X101341103Y-102300000D01*
X101124000Y-102300000D01*
X101056961Y-102280315D01*
X101011206Y-102227511D01*
X101000000Y-102176000D01*
X101000000Y-101800000D01*
X101500000Y-101800000D01*
X102250000Y-101800000D01*
X102250000Y-101500000D01*
X102750000Y-101500000D01*
X102750000Y-101800000D01*
X103500000Y-101800000D01*
X103500000Y-101725373D01*
X103499999Y-101725371D01*
X103485496Y-101652459D01*
X103485494Y-101652455D01*
X103430239Y-101569760D01*
X103347544Y-101514505D01*
X103347540Y-101514503D01*
X103274627Y-101500000D01*
X102750000Y-101500000D01*
X102250000Y-101500000D01*
X101725373Y-101500000D01*
X101652459Y-101514503D01*
X101652455Y-101514505D01*
X101569760Y-101569760D01*
X101514505Y-101652455D01*
X101514503Y-101652459D01*
X101500000Y-101725371D01*
X101500000Y-101800000D01*
X101000000Y-101800000D01*
X101000000Y-101310612D01*
X101019683Y-101243577D01*
X101036318Y-101222935D01*
X101039885Y-101219367D01*
X101039916Y-101219338D01*
X101040720Y-101218533D01*
X101040724Y-101218531D01*
X101056819Y-101202435D01*
X101060347Y-101199174D01*
X101135224Y-101135224D01*
X101199175Y-101060346D01*
X101202444Y-101056810D01*
X101212296Y-101046958D01*
X101215883Y-101044999D01*
X101220843Y-101039192D01*
X101223703Y-101033605D01*
X101231906Y-101022314D01*
X101234888Y-101018532D01*
X101298836Y-100943659D01*
X101350285Y-100859701D01*
X101352977Y-100855674D01*
X101361156Y-100844418D01*
X101364394Y-100841920D01*
X101368380Y-100835415D01*
X101370336Y-100829435D01*
X101376659Y-100817025D01*
X101379017Y-100812814D01*
X101430466Y-100728859D01*
X101468153Y-100637873D01*
X101470169Y-100633500D01*
X101476492Y-100621091D01*
X101479299Y-100618119D01*
X101482220Y-100611068D01*
X101483214Y-100604865D01*
X101487524Y-100591599D01*
X101489184Y-100587098D01*
X101526873Y-100496111D01*
X101527315Y-100494273D01*
X101536731Y-100455049D01*
X101549860Y-100400358D01*
X101551168Y-100395724D01*
X101555474Y-100382472D01*
X101557783Y-100379095D01*
X101559565Y-100371676D01*
X101559577Y-100365382D01*
X101561755Y-100351632D01*
X101562701Y-100346873D01*
X101585683Y-100251148D01*
X101593409Y-100152978D01*
X101593974Y-100148201D01*
X101597534Y-100125729D01*
X101597534Y-100125726D01*
X101598201Y-100121516D01*
X101598201Y-100121510D01*
X101598502Y-100119609D01*
X101597754Y-100114502D01*
X101598155Y-100094052D01*
X101598334Y-100090402D01*
X101602204Y-100041226D01*
X101617896Y-100000055D01*
X101833532Y-100000055D01*
X101847172Y-100025464D01*
X101849224Y-100038804D01*
X101863744Y-100186230D01*
X101918069Y-100365313D01*
X101974868Y-100471577D01*
X102262580Y-100183865D01*
X102323903Y-100150380D01*
X102393594Y-100155364D01*
X102449528Y-100197235D01*
X102460742Y-100215246D01*
X102467296Y-100228109D01*
X102472358Y-100238044D01*
X102472363Y-100238050D01*
X102561949Y-100327636D01*
X102561951Y-100327637D01*
X102561955Y-100327641D01*
X102584747Y-100339254D01*
X102635542Y-100387228D01*
X102652337Y-100455049D01*
X102629799Y-100521184D01*
X102616132Y-100537419D01*
X102328421Y-100825129D01*
X102434688Y-100881931D01*
X102613769Y-100936255D01*
X102800000Y-100954596D01*
X102986230Y-100936255D01*
X103165311Y-100881931D01*
X103271577Y-100825130D01*
X102983866Y-100537419D01*
X102950381Y-100476096D01*
X102955365Y-100406404D01*
X102997237Y-100350471D01*
X103015245Y-100339258D01*
X103038045Y-100327641D01*
X103127641Y-100238045D01*
X103139254Y-100215252D01*
X103187225Y-100164458D01*
X103255046Y-100147661D01*
X103321181Y-100170197D01*
X103337419Y-100183866D01*
X103625130Y-100471577D01*
X103681931Y-100365311D01*
X103736255Y-100186230D01*
X103752097Y-100025383D01*
X103760744Y-100003966D01*
X103756523Y-99997397D01*
X103752097Y-99974616D01*
X103736255Y-99813769D01*
X103681931Y-99634688D01*
X103625129Y-99528421D01*
X103337419Y-99816132D01*
X103276096Y-99849617D01*
X103206404Y-99844633D01*
X103150471Y-99802761D01*
X103139256Y-99784751D01*
X103127641Y-99761955D01*
X103127637Y-99761951D01*
X103127636Y-99761949D01*
X103038050Y-99672363D01*
X103038044Y-99672358D01*
X103028109Y-99667296D01*
X103015250Y-99660744D01*
X102964456Y-99612773D01*
X102947660Y-99544952D01*
X102970197Y-99478817D01*
X102983865Y-99462580D01*
X103271577Y-99174868D01*
X103165313Y-99118069D01*
X102986230Y-99063744D01*
X102800000Y-99045403D01*
X102613769Y-99063744D01*
X102434692Y-99118067D01*
X102328422Y-99174869D01*
X102616133Y-99462580D01*
X102649618Y-99523903D01*
X102644634Y-99593595D01*
X102602762Y-99649528D01*
X102584748Y-99660745D01*
X102561956Y-99672358D01*
X102561949Y-99672363D01*
X102472363Y-99761949D01*
X102472358Y-99761956D01*
X102460745Y-99784748D01*
X102412770Y-99835544D01*
X102344949Y-99852338D01*
X102278814Y-99829800D01*
X102262580Y-99816133D01*
X101974869Y-99528422D01*
X101918067Y-99634692D01*
X101863744Y-99813769D01*
X101849224Y-99961196D01*
X101833532Y-100000055D01*
X101617896Y-100000055D01*
X101618058Y-99999629D01*
X101603992Y-99972145D01*
X101602205Y-99958787D01*
X101598333Y-99909595D01*
X101598155Y-99905947D01*
X101597754Y-99885494D01*
X101598739Y-99881878D01*
X101593978Y-99851817D01*
X101593407Y-99847003D01*
X101585683Y-99748852D01*
X101562705Y-99653141D01*
X101561755Y-99648365D01*
X101559577Y-99634614D01*
X101560101Y-99630558D01*
X101558319Y-99623137D01*
X101555473Y-99617525D01*
X101551165Y-99604265D01*
X101549859Y-99599634D01*
X101531678Y-99523903D01*
X101526873Y-99503886D01*
X101526872Y-99503885D01*
X101509762Y-99462580D01*
X101489192Y-99412919D01*
X101487521Y-99408390D01*
X101483214Y-99395137D01*
X101483098Y-99391047D01*
X101480180Y-99384003D01*
X101476491Y-99378905D01*
X101470178Y-99366516D01*
X101468139Y-99362092D01*
X101430468Y-99271146D01*
X101430466Y-99271141D01*
X101379014Y-99187179D01*
X101376649Y-99182954D01*
X101370335Y-99170562D01*
X101369579Y-99166538D01*
X101365592Y-99160032D01*
X101361152Y-99155575D01*
X101352969Y-99144313D01*
X101350264Y-99140264D01*
X101303372Y-99063744D01*
X101298836Y-99056341D01*
X101234901Y-98981483D01*
X101231889Y-98977662D01*
X101223701Y-98966392D01*
X101222328Y-98962544D01*
X101217378Y-98956748D01*
X101212294Y-98953039D01*
X101202456Y-98943201D01*
X101199164Y-98939640D01*
X101135224Y-98864776D01*
X101060363Y-98800839D01*
X101056795Y-98797540D01*
X101036319Y-98777063D01*
X101002834Y-98715740D01*
X101000000Y-98689382D01*
X101000000Y-98200000D01*
X101500000Y-98200000D01*
X101500000Y-98274628D01*
X101514503Y-98347540D01*
X101514505Y-98347544D01*
X101569760Y-98430239D01*
X101652455Y-98485494D01*
X101652459Y-98485496D01*
X101725371Y-98499999D01*
X101725374Y-98500000D01*
X102250000Y-98500000D01*
X102250000Y-98200000D01*
X102750000Y-98200000D01*
X102750000Y-98500000D01*
X103274626Y-98500000D01*
X103274628Y-98499999D01*
X103347540Y-98485496D01*
X103347544Y-98485494D01*
X103430239Y-98430239D01*
X103485494Y-98347544D01*
X103485496Y-98347540D01*
X103499999Y-98274628D01*
X103500000Y-98274626D01*
X103500000Y-98200000D01*
X102750000Y-98200000D01*
X102250000Y-98200000D01*
X101500000Y-98200000D01*
X101000000Y-98200000D01*
X101000000Y-97824000D01*
X101019685Y-97756961D01*
X101072489Y-97711206D01*
X101124000Y-97700000D01*
X101341103Y-97700000D01*
X101408142Y-97719685D01*
G37*
%TD.AperFunction*%
%TD*%
%TA.AperFunction,Conductor*%
%TO.N,Net-(D1-K)*%
G36*
X103942539Y-96020185D02*
G01*
X103988294Y-96072989D01*
X103999500Y-96124500D01*
X103999500Y-97070500D01*
X103979815Y-97137539D01*
X103927011Y-97183294D01*
X103875500Y-97194500D01*
X103649872Y-97194500D01*
X103632006Y-97195138D01*
X103625999Y-97195460D01*
X103613985Y-97196104D01*
X103555621Y-97208800D01*
X103485932Y-97203816D01*
X103357485Y-97155909D01*
X103357483Y-97155908D01*
X103297883Y-97149501D01*
X103297881Y-97149500D01*
X103297873Y-97149500D01*
X103297864Y-97149500D01*
X101702129Y-97149500D01*
X101702123Y-97149501D01*
X101642516Y-97155908D01*
X101513628Y-97203981D01*
X101452649Y-97210537D01*
X101341104Y-97194500D01*
X101341103Y-97194500D01*
X101124000Y-97194500D01*
X101123991Y-97194500D01*
X101123990Y-97194501D01*
X101016549Y-97206052D01*
X101016537Y-97206054D01*
X100965027Y-97217260D01*
X100862497Y-97251385D01*
X100862495Y-97251386D01*
X100817485Y-97280314D01*
X100750446Y-97300000D01*
X98658897Y-97300000D01*
X98591858Y-97280315D01*
X98584596Y-97275273D01*
X98492331Y-97206204D01*
X98492328Y-97206202D01*
X98357482Y-97155908D01*
X98357483Y-97155908D01*
X98297883Y-97149501D01*
X98297881Y-97149500D01*
X98297873Y-97149500D01*
X98297864Y-97149500D01*
X96702129Y-97149500D01*
X96702123Y-97149501D01*
X96642516Y-97155908D01*
X96507671Y-97206202D01*
X96507668Y-97206204D01*
X96469654Y-97234662D01*
X96415413Y-97275266D01*
X96349950Y-97299684D01*
X96341103Y-97300000D01*
X96124500Y-97300000D01*
X96057461Y-97280315D01*
X96011706Y-97227511D01*
X96000500Y-97176000D01*
X96000500Y-96800000D01*
X96500000Y-96800000D01*
X97250000Y-96800000D01*
X97250000Y-96500000D01*
X97750000Y-96500000D01*
X97750000Y-96800000D01*
X98500000Y-96800000D01*
X101500000Y-96800000D01*
X102250000Y-96800000D01*
X102250000Y-96500000D01*
X102750000Y-96500000D01*
X102750000Y-96800000D01*
X103500000Y-96800000D01*
X103500000Y-96725373D01*
X103499999Y-96725371D01*
X103485496Y-96652459D01*
X103485494Y-96652455D01*
X103430239Y-96569760D01*
X103347544Y-96514505D01*
X103347540Y-96514503D01*
X103274627Y-96500000D01*
X102750000Y-96500000D01*
X102250000Y-96500000D01*
X101725373Y-96500000D01*
X101652459Y-96514503D01*
X101652455Y-96514505D01*
X101569760Y-96569760D01*
X101514505Y-96652455D01*
X101514503Y-96652459D01*
X101500000Y-96725371D01*
X101500000Y-96800000D01*
X98500000Y-96800000D01*
X98500000Y-96725373D01*
X98499999Y-96725371D01*
X98485496Y-96652459D01*
X98485494Y-96652455D01*
X98430239Y-96569760D01*
X98347544Y-96514505D01*
X98347540Y-96514503D01*
X98274627Y-96500000D01*
X97750000Y-96500000D01*
X97250000Y-96500000D01*
X96725373Y-96500000D01*
X96652459Y-96514503D01*
X96652455Y-96514505D01*
X96569760Y-96569760D01*
X96514505Y-96652455D01*
X96514503Y-96652459D01*
X96500000Y-96725371D01*
X96500000Y-96800000D01*
X96000500Y-96800000D01*
X96000500Y-96124500D01*
X96020185Y-96057461D01*
X96072989Y-96011706D01*
X96124500Y-96000500D01*
X103875500Y-96000500D01*
X103942539Y-96020185D01*
G37*
%TD.AperFunction*%
%TD*%
%TA.AperFunction,Conductor*%
%TO.N,/Vin*%
G36*
X98330907Y-97711206D02*
G01*
X98449429Y-97765334D01*
X98449438Y-97765338D01*
X98494254Y-97778497D01*
X98516472Y-97785022D01*
X98516477Y-97785023D01*
X98516481Y-97785024D01*
X98658897Y-97805500D01*
X98658900Y-97805500D01*
X98876000Y-97805500D01*
X98943039Y-97825185D01*
X98988794Y-97877989D01*
X98999999Y-97929498D01*
X98999999Y-98347540D01*
X98999999Y-98689381D01*
X98980314Y-98756421D01*
X98963680Y-98777062D01*
X98943202Y-98797541D01*
X98939626Y-98800846D01*
X98864775Y-98864775D01*
X98800846Y-98939626D01*
X98797541Y-98943202D01*
X98787702Y-98953040D01*
X98784115Y-98954998D01*
X98779155Y-98960805D01*
X98776293Y-98966398D01*
X98768113Y-98977657D01*
X98765099Y-98981481D01*
X98701165Y-99056339D01*
X98649732Y-99140267D01*
X98647026Y-99144316D01*
X98638843Y-99155579D01*
X98635604Y-99158076D01*
X98631616Y-99164582D01*
X98629662Y-99170564D01*
X98623349Y-99182954D01*
X98620970Y-99187201D01*
X98569534Y-99271141D01*
X98531857Y-99362096D01*
X98529821Y-99366513D01*
X98523510Y-99378900D01*
X98520700Y-99381874D01*
X98517777Y-99388933D01*
X98516783Y-99395139D01*
X98512484Y-99408369D01*
X98510798Y-99412939D01*
X98473125Y-99503892D01*
X98450148Y-99599599D01*
X98448826Y-99604287D01*
X98444523Y-99617529D01*
X98442214Y-99620904D01*
X98440433Y-99628321D01*
X98440423Y-99634608D01*
X98438245Y-99648362D01*
X98437295Y-99653140D01*
X98414318Y-99748845D01*
X98414317Y-99748851D01*
X98406594Y-99846981D01*
X98406021Y-99851819D01*
X98403843Y-99865568D01*
X98402091Y-99869262D01*
X98401492Y-99876872D01*
X98402466Y-99883086D01*
X98402466Y-99896990D01*
X98402275Y-99901856D01*
X98397796Y-99958769D01*
X98381940Y-100000369D01*
X98396006Y-100027854D01*
X98397796Y-100041230D01*
X98402275Y-100098142D01*
X98402466Y-100103008D01*
X98402466Y-100116912D01*
X98401312Y-100120840D01*
X98401912Y-100128457D01*
X98403842Y-100134430D01*
X98406021Y-100148178D01*
X98406593Y-100153017D01*
X98410074Y-100197235D01*
X98414317Y-100251148D01*
X98414318Y-100251152D01*
X98414318Y-100251153D01*
X98437293Y-100346855D01*
X98438243Y-100351627D01*
X98440421Y-100365378D01*
X98439896Y-100369437D01*
X98441681Y-100376871D01*
X98444527Y-100382480D01*
X98448827Y-100395716D01*
X98450148Y-100400399D01*
X98473127Y-100496114D01*
X98510797Y-100587055D01*
X98512481Y-100591622D01*
X98516780Y-100604851D01*
X98516897Y-100608941D01*
X98519821Y-100616001D01*
X98523509Y-100621095D01*
X98529819Y-100633480D01*
X98531857Y-100637901D01*
X98569532Y-100728857D01*
X98620971Y-100812799D01*
X98623345Y-100817038D01*
X98626569Y-100823363D01*
X98629665Y-100829438D01*
X98630420Y-100833462D01*
X98634411Y-100839974D01*
X98638845Y-100844422D01*
X98647027Y-100855683D01*
X98649732Y-100859732D01*
X98691881Y-100928510D01*
X98701164Y-100943659D01*
X98701171Y-100943667D01*
X98765093Y-101018510D01*
X98768107Y-101022333D01*
X98776290Y-101033596D01*
X98777664Y-101037448D01*
X98782626Y-101043257D01*
X98787703Y-101046959D01*
X98797540Y-101056795D01*
X98800839Y-101060363D01*
X98864776Y-101135224D01*
X98939640Y-101199164D01*
X98943201Y-101202456D01*
X98963680Y-101222935D01*
X98997165Y-101284258D01*
X98999999Y-101310616D01*
X98999999Y-101725373D01*
X99000000Y-102070500D01*
X98980316Y-102137539D01*
X98927512Y-102183294D01*
X98876000Y-102194500D01*
X98649872Y-102194500D01*
X98632006Y-102195138D01*
X98622996Y-102195621D01*
X98613986Y-102196104D01*
X98473403Y-102226685D01*
X98407928Y-102251106D01*
X98407921Y-102251109D01*
X98346167Y-102284831D01*
X98286739Y-102300000D01*
X96720603Y-102300000D01*
X96669093Y-102288794D01*
X96586571Y-102251107D01*
X96550565Y-102234663D01*
X96483528Y-102214978D01*
X96483522Y-102214976D01*
X96398069Y-102202690D01*
X96341103Y-102194500D01*
X96124500Y-102194500D01*
X96057461Y-102174815D01*
X96011706Y-102122011D01*
X96000500Y-102070500D01*
X96000500Y-101800000D01*
X96500000Y-101800000D01*
X97250000Y-101800000D01*
X97250000Y-101500000D01*
X97750000Y-101500000D01*
X97750000Y-101800000D01*
X98500000Y-101800000D01*
X98500000Y-101725373D01*
X98499999Y-101725371D01*
X98485496Y-101652459D01*
X98485494Y-101652455D01*
X98430239Y-101569760D01*
X98347544Y-101514505D01*
X98347540Y-101514503D01*
X98274627Y-101500000D01*
X97750000Y-101500000D01*
X97250000Y-101500000D01*
X96725373Y-101500000D01*
X96652459Y-101514503D01*
X96652455Y-101514505D01*
X96569760Y-101569760D01*
X96514505Y-101652455D01*
X96514503Y-101652459D01*
X96500000Y-101725371D01*
X96500000Y-101800000D01*
X96000500Y-101800000D01*
X96000500Y-100037537D01*
X96010988Y-100001817D01*
X96008028Y-99996032D01*
X96239255Y-99996032D01*
X96243477Y-100002602D01*
X96247903Y-100025383D01*
X96263744Y-100186230D01*
X96318069Y-100365313D01*
X96374868Y-100471577D01*
X96662580Y-100183865D01*
X96723903Y-100150380D01*
X96793594Y-100155364D01*
X96849528Y-100197235D01*
X96860742Y-100215246D01*
X96867296Y-100228109D01*
X96872358Y-100238044D01*
X96872363Y-100238050D01*
X96961949Y-100327636D01*
X96961951Y-100327637D01*
X96961955Y-100327641D01*
X96984747Y-100339254D01*
X97035542Y-100387228D01*
X97052337Y-100455049D01*
X97029799Y-100521184D01*
X97016132Y-100537419D01*
X96728421Y-100825129D01*
X96834688Y-100881931D01*
X97013769Y-100936255D01*
X97200000Y-100954596D01*
X97386230Y-100936255D01*
X97565311Y-100881931D01*
X97671577Y-100825130D01*
X97383866Y-100537419D01*
X97350381Y-100476096D01*
X97355365Y-100406404D01*
X97397237Y-100350471D01*
X97415245Y-100339258D01*
X97438045Y-100327641D01*
X97527641Y-100238045D01*
X97539254Y-100215252D01*
X97587225Y-100164458D01*
X97655046Y-100147661D01*
X97721181Y-100170197D01*
X97737419Y-100183866D01*
X98025130Y-100471577D01*
X98081931Y-100365311D01*
X98136255Y-100186230D01*
X98150775Y-100038805D01*
X98166467Y-99999942D01*
X98152827Y-99974532D01*
X98150775Y-99961194D01*
X98136255Y-99813769D01*
X98081931Y-99634688D01*
X98025129Y-99528421D01*
X97737419Y-99816132D01*
X97676096Y-99849617D01*
X97606404Y-99844633D01*
X97550471Y-99802761D01*
X97539256Y-99784751D01*
X97527641Y-99761955D01*
X97527637Y-99761951D01*
X97527636Y-99761949D01*
X97438050Y-99672363D01*
X97438044Y-99672358D01*
X97428109Y-99667296D01*
X97415250Y-99660744D01*
X97364456Y-99612773D01*
X97347660Y-99544952D01*
X97370197Y-99478817D01*
X97383865Y-99462580D01*
X97671577Y-99174868D01*
X97565313Y-99118069D01*
X97386230Y-99063744D01*
X97200000Y-99045403D01*
X97013769Y-99063744D01*
X96834692Y-99118067D01*
X96728422Y-99174869D01*
X97016133Y-99462580D01*
X97049618Y-99523903D01*
X97044634Y-99593595D01*
X97002762Y-99649528D01*
X96984748Y-99660745D01*
X96961956Y-99672358D01*
X96961949Y-99672363D01*
X96872363Y-99761949D01*
X96872358Y-99761956D01*
X96860745Y-99784748D01*
X96812770Y-99835544D01*
X96744949Y-99852338D01*
X96678814Y-99829800D01*
X96662580Y-99816133D01*
X96374869Y-99528422D01*
X96318067Y-99634692D01*
X96263744Y-99813769D01*
X96247903Y-99974616D01*
X96239255Y-99996032D01*
X96008028Y-99996032D01*
X96002672Y-99985567D01*
X96000500Y-99962462D01*
X96000500Y-98200000D01*
X96500000Y-98200000D01*
X96500000Y-98274628D01*
X96514503Y-98347540D01*
X96514505Y-98347544D01*
X96569760Y-98430239D01*
X96652455Y-98485494D01*
X96652459Y-98485496D01*
X96725371Y-98499999D01*
X96725374Y-98500000D01*
X97250000Y-98500000D01*
X97250000Y-98200000D01*
X97750000Y-98200000D01*
X97750000Y-98500000D01*
X98274626Y-98500000D01*
X98274628Y-98499999D01*
X98347540Y-98485496D01*
X98347544Y-98485494D01*
X98430239Y-98430239D01*
X98485494Y-98347544D01*
X98485496Y-98347540D01*
X98499999Y-98274628D01*
X98500000Y-98274626D01*
X98500000Y-98200000D01*
X97750000Y-98200000D01*
X97250000Y-98200000D01*
X96500000Y-98200000D01*
X96000500Y-98200000D01*
X96000500Y-97929500D01*
X96020185Y-97862461D01*
X96072989Y-97816706D01*
X96124500Y-97805500D01*
X96350126Y-97805500D01*
X96350128Y-97805500D01*
X96367994Y-97804862D01*
X96386023Y-97803895D01*
X96526614Y-97773308D01*
X96526619Y-97773306D01*
X96526624Y-97773305D01*
X96592066Y-97748894D01*
X96592064Y-97748894D01*
X96592077Y-97748890D01*
X96653833Y-97715167D01*
X96713260Y-97700000D01*
X98279395Y-97700000D01*
X98330907Y-97711206D01*
G37*
%TD.AperFunction*%
%TD*%
M02*
