%TF.GenerationSoftware,KiCad,Pcbnew,7.0.7*%
%TF.CreationDate,2024-01-19T08:53:03-05:00*%
%TF.ProjectId,LED_board,4c45445f-626f-4617-9264-2e6b69636164,rev?*%
%TF.SameCoordinates,Original*%
%TF.FileFunction,Legend,Top*%
%TF.FilePolarity,Positive*%
%FSLAX46Y46*%
G04 Gerber Fmt 4.6, Leading zero omitted, Abs format (unit mm)*
G04 Created by KiCad (PCBNEW 7.0.7) date 2024-01-19 08:53:03*
%MOMM*%
%LPD*%
G01*
G04 APERTURE LIST*
%ADD10C,0.100000*%
G04 APERTURE END LIST*
D10*
X95671419Y-103238094D02*
X94671419Y-103238094D01*
X94671419Y-103238094D02*
X94671419Y-102999999D01*
X94671419Y-102999999D02*
X94719038Y-102857142D01*
X94719038Y-102857142D02*
X94814276Y-102761904D01*
X94814276Y-102761904D02*
X94909514Y-102714285D01*
X94909514Y-102714285D02*
X95099990Y-102666666D01*
X95099990Y-102666666D02*
X95242847Y-102666666D01*
X95242847Y-102666666D02*
X95433323Y-102714285D01*
X95433323Y-102714285D02*
X95528561Y-102761904D01*
X95528561Y-102761904D02*
X95623800Y-102857142D01*
X95623800Y-102857142D02*
X95671419Y-102999999D01*
X95671419Y-102999999D02*
X95671419Y-103238094D01*
X94671419Y-102333332D02*
X94671419Y-101714285D01*
X94671419Y-101714285D02*
X95052371Y-102047618D01*
X95052371Y-102047618D02*
X95052371Y-101904761D01*
X95052371Y-101904761D02*
X95099990Y-101809523D01*
X95099990Y-101809523D02*
X95147609Y-101761904D01*
X95147609Y-101761904D02*
X95242847Y-101714285D01*
X95242847Y-101714285D02*
X95480942Y-101714285D01*
X95480942Y-101714285D02*
X95576180Y-101761904D01*
X95576180Y-101761904D02*
X95623800Y-101809523D01*
X95623800Y-101809523D02*
X95671419Y-101904761D01*
X95671419Y-101904761D02*
X95671419Y-102190475D01*
X95671419Y-102190475D02*
X95623800Y-102285713D01*
X95623800Y-102285713D02*
X95576180Y-102333332D01*
X99328580Y-96761905D02*
X100328580Y-96761905D01*
X100328580Y-96761905D02*
X100328580Y-97000000D01*
X100328580Y-97000000D02*
X100280961Y-97142857D01*
X100280961Y-97142857D02*
X100185723Y-97238095D01*
X100185723Y-97238095D02*
X100090485Y-97285714D01*
X100090485Y-97285714D02*
X99900009Y-97333333D01*
X99900009Y-97333333D02*
X99757152Y-97333333D01*
X99757152Y-97333333D02*
X99566676Y-97285714D01*
X99566676Y-97285714D02*
X99471438Y-97238095D01*
X99471438Y-97238095D02*
X99376200Y-97142857D01*
X99376200Y-97142857D02*
X99328580Y-97000000D01*
X99328580Y-97000000D02*
X99328580Y-96761905D01*
X99328580Y-98285714D02*
X99328580Y-97714286D01*
X99328580Y-98000000D02*
X100328580Y-98000000D01*
X100328580Y-98000000D02*
X100185723Y-97904762D01*
X100185723Y-97904762D02*
X100090485Y-97809524D01*
X100090485Y-97809524D02*
X100042866Y-97714286D01*
X104328580Y-101761905D02*
X105328580Y-101761905D01*
X105328580Y-101761905D02*
X105328580Y-102000000D01*
X105328580Y-102000000D02*
X105280961Y-102142857D01*
X105280961Y-102142857D02*
X105185723Y-102238095D01*
X105185723Y-102238095D02*
X105090485Y-102285714D01*
X105090485Y-102285714D02*
X104900009Y-102333333D01*
X104900009Y-102333333D02*
X104757152Y-102333333D01*
X104757152Y-102333333D02*
X104566676Y-102285714D01*
X104566676Y-102285714D02*
X104471438Y-102238095D01*
X104471438Y-102238095D02*
X104376200Y-102142857D01*
X104376200Y-102142857D02*
X104328580Y-102000000D01*
X104328580Y-102000000D02*
X104328580Y-101761905D01*
X104995247Y-103190476D02*
X104328580Y-103190476D01*
X105376200Y-102952381D02*
X104661914Y-102714286D01*
X104661914Y-102714286D02*
X104661914Y-103333333D01*
X100671419Y-98238094D02*
X99671419Y-98238094D01*
X99671419Y-98238094D02*
X99671419Y-97999999D01*
X99671419Y-97999999D02*
X99719038Y-97857142D01*
X99719038Y-97857142D02*
X99814276Y-97761904D01*
X99814276Y-97761904D02*
X99909514Y-97714285D01*
X99909514Y-97714285D02*
X100099990Y-97666666D01*
X100099990Y-97666666D02*
X100242847Y-97666666D01*
X100242847Y-97666666D02*
X100433323Y-97714285D01*
X100433323Y-97714285D02*
X100528561Y-97761904D01*
X100528561Y-97761904D02*
X100623800Y-97857142D01*
X100623800Y-97857142D02*
X100671419Y-97999999D01*
X100671419Y-97999999D02*
X100671419Y-98238094D01*
X99766657Y-97285713D02*
X99719038Y-97238094D01*
X99719038Y-97238094D02*
X99671419Y-97142856D01*
X99671419Y-97142856D02*
X99671419Y-96904761D01*
X99671419Y-96904761D02*
X99719038Y-96809523D01*
X99719038Y-96809523D02*
X99766657Y-96761904D01*
X99766657Y-96761904D02*
X99861895Y-96714285D01*
X99861895Y-96714285D02*
X99957133Y-96714285D01*
X99957133Y-96714285D02*
X100099990Y-96761904D01*
X100099990Y-96761904D02*
X100671419Y-97333332D01*
X100671419Y-97333332D02*
X100671419Y-96714285D01*
%TO.C,D3*%
X96484000Y-103516000D02*
X96484000Y-101484000D01*
X98516000Y-103516000D02*
X96484000Y-103516000D01*
X96484000Y-101484000D02*
X98516000Y-101484000D01*
X98516000Y-101484000D02*
X98516000Y-103516000D01*
X97754000Y-101484000D02*
X97246000Y-101484000D01*
X97500000Y-101230000D01*
X97754000Y-101484000D01*
G36*
X97754000Y-101484000D02*
G01*
X97246000Y-101484000D01*
X97500000Y-101230000D01*
X97754000Y-101484000D01*
G37*
%TO.C,D1*%
X98516000Y-96484000D02*
X98516000Y-98516000D01*
X96484000Y-96484000D02*
X98516000Y-96484000D01*
X98516000Y-98516000D02*
X96484000Y-98516000D01*
X96484000Y-98516000D02*
X96484000Y-96484000D01*
X97500000Y-98770000D02*
X97246000Y-98516000D01*
X97754000Y-98516000D01*
X97500000Y-98770000D01*
G36*
X97500000Y-98770000D02*
G01*
X97246000Y-98516000D01*
X97754000Y-98516000D01*
X97500000Y-98770000D01*
G37*
%TO.C,D4*%
X103516000Y-101484000D02*
X103516000Y-103516000D01*
X101484000Y-101484000D02*
X103516000Y-101484000D01*
X103516000Y-103516000D02*
X101484000Y-103516000D01*
X101484000Y-103516000D02*
X101484000Y-101484000D01*
X102500000Y-103770000D02*
X102246000Y-103516000D01*
X102754000Y-103516000D01*
X102500000Y-103770000D01*
G36*
X102500000Y-103770000D02*
G01*
X102246000Y-103516000D01*
X102754000Y-103516000D01*
X102500000Y-103770000D01*
G37*
%TO.C,D2*%
X101484000Y-98516000D02*
X101484000Y-96484000D01*
X103516000Y-98516000D02*
X101484000Y-98516000D01*
X101484000Y-96484000D02*
X103516000Y-96484000D01*
X103516000Y-96484000D02*
X103516000Y-98516000D01*
X102754000Y-96484000D02*
X102246000Y-96484000D01*
X102500000Y-96230000D01*
X102754000Y-96484000D01*
G36*
X102754000Y-96484000D02*
G01*
X102246000Y-96484000D01*
X102500000Y-96230000D01*
X102754000Y-96484000D01*
G37*
%TD*%
M02*
