%TF.GenerationSoftware,KiCad,Pcbnew,7.0.7*%
%TF.CreationDate,2024-01-24T10:21:09-05:00*%
%TF.ProjectId,LED_board,4c45445f-626f-4617-9264-2e6b69636164,rev?*%
%TF.SameCoordinates,Original*%
%TF.FileFunction,Legend,Top*%
%TF.FilePolarity,Positive*%
%FSLAX46Y46*%
G04 Gerber Fmt 4.6, Leading zero omitted, Abs format (unit mm)*
G04 Created by KiCad (PCBNEW 7.0.7) date 2024-01-24 10:21:09*
%MOMM*%
%LPD*%
G01*
G04 APERTURE LIST*
%ADD10C,0.150000*%
%ADD11C,0.100000*%
G04 APERTURE END LIST*
D10*
X96100000Y-101000000D02*
X96700000Y-101000000D01*
X96400000Y-100700000D02*
X96400000Y-101300000D01*
X103300000Y-99200000D02*
X103600000Y-99200000D01*
X103700000Y-99000000D02*
X103200000Y-99000000D01*
X103100000Y-98800000D02*
X103800000Y-98800000D01*
D11*
%TO.C,D3*%
X96484000Y-103516000D02*
X96484000Y-101484000D01*
X98516000Y-103516000D02*
X96484000Y-103516000D01*
X96484000Y-101484000D02*
X98516000Y-101484000D01*
X98516000Y-101484000D02*
X98516000Y-103516000D01*
X97754000Y-101484000D02*
X97246000Y-101484000D01*
X97500000Y-101230000D01*
X97754000Y-101484000D01*
G36*
X97754000Y-101484000D02*
G01*
X97246000Y-101484000D01*
X97500000Y-101230000D01*
X97754000Y-101484000D01*
G37*
%TO.C,D1*%
X98516000Y-96484000D02*
X98516000Y-98516000D01*
X96484000Y-96484000D02*
X98516000Y-96484000D01*
X98516000Y-98516000D02*
X96484000Y-98516000D01*
X96484000Y-98516000D02*
X96484000Y-96484000D01*
X97500000Y-98770000D02*
X97246000Y-98516000D01*
X97754000Y-98516000D01*
X97500000Y-98770000D01*
G36*
X97500000Y-98770000D02*
G01*
X97246000Y-98516000D01*
X97754000Y-98516000D01*
X97500000Y-98770000D01*
G37*
%TO.C,D4*%
X103516000Y-101484000D02*
X103516000Y-103516000D01*
X101484000Y-101484000D02*
X103516000Y-101484000D01*
X103516000Y-103516000D02*
X101484000Y-103516000D01*
X101484000Y-103516000D02*
X101484000Y-101484000D01*
X102500000Y-103770000D02*
X102246000Y-103516000D01*
X102754000Y-103516000D01*
X102500000Y-103770000D01*
G36*
X102500000Y-103770000D02*
G01*
X102246000Y-103516000D01*
X102754000Y-103516000D01*
X102500000Y-103770000D01*
G37*
%TO.C,D2*%
X101484000Y-98516000D02*
X101484000Y-96484000D01*
X103516000Y-98516000D02*
X101484000Y-98516000D01*
X101484000Y-96484000D02*
X103516000Y-96484000D01*
X103516000Y-96484000D02*
X103516000Y-98516000D01*
X102754000Y-96484000D02*
X102246000Y-96484000D01*
X102500000Y-96230000D01*
X102754000Y-96484000D01*
G36*
X102754000Y-96484000D02*
G01*
X102246000Y-96484000D01*
X102500000Y-96230000D01*
X102754000Y-96484000D01*
G37*
%TD*%
M02*
