%TF.GenerationSoftware,KiCad,Pcbnew,7.0.8-7.0.8~ubuntu22.04.1*%
%TF.CreationDate,2023-10-21T10:39:39-04:00*%
%TF.ProjectId,DDRN_Hardware,4444524e-5f48-4617-9264-776172652e6b,rev?*%
%TF.SameCoordinates,Original*%
%TF.FileFunction,Copper,L1,Top*%
%TF.FilePolarity,Positive*%
%FSLAX46Y46*%
G04 Gerber Fmt 4.6, Leading zero omitted, Abs format (unit mm)*
G04 Created by KiCad (PCBNEW 7.0.8-7.0.8~ubuntu22.04.1) date 2023-10-21 10:39:39*
%MOMM*%
%LPD*%
G01*
G04 APERTURE LIST*
G04 Aperture macros list*
%AMRoundRect*
0 Rectangle with rounded corners*
0 $1 Rounding radius*
0 $2 $3 $4 $5 $6 $7 $8 $9 X,Y pos of 4 corners*
0 Add a 4 corners polygon primitive as box body*
4,1,4,$2,$3,$4,$5,$6,$7,$8,$9,$2,$3,0*
0 Add four circle primitives for the rounded corners*
1,1,$1+$1,$2,$3*
1,1,$1+$1,$4,$5*
1,1,$1+$1,$6,$7*
1,1,$1+$1,$8,$9*
0 Add four rect primitives between the rounded corners*
20,1,$1+$1,$2,$3,$4,$5,0*
20,1,$1+$1,$4,$5,$6,$7,0*
20,1,$1+$1,$6,$7,$8,$9,0*
20,1,$1+$1,$8,$9,$2,$3,0*%
G04 Aperture macros list end*
%TA.AperFunction,SMDPad,CuDef*%
%ADD10R,1.000000X4.000000*%
%TD*%
%TA.AperFunction,SMDPad,CuDef*%
%ADD11R,1.050000X0.650000*%
%TD*%
%TA.AperFunction,SMDPad,CuDef*%
%ADD12R,1.050000X1.000000*%
%TD*%
%TA.AperFunction,SMDPad,CuDef*%
%ADD13R,2.200000X1.050000*%
%TD*%
%TA.AperFunction,SMDPad,CuDef*%
%ADD14RoundRect,0.150000X-0.512500X-0.150000X0.512500X-0.150000X0.512500X0.150000X-0.512500X0.150000X0*%
%TD*%
%TA.AperFunction,SMDPad,CuDef*%
%ADD15R,0.430000X0.350000*%
%TD*%
%TA.AperFunction,SMDPad,CuDef*%
%ADD16R,0.350000X0.430000*%
%TD*%
%TA.AperFunction,SMDPad,CuDef*%
%ADD17RoundRect,0.150000X-0.650000X-0.150000X0.650000X-0.150000X0.650000X0.150000X-0.650000X0.150000X0*%
%TD*%
%TA.AperFunction,SMDPad,CuDef*%
%ADD18R,0.275000X0.250000*%
%TD*%
%TA.AperFunction,SMDPad,CuDef*%
%ADD19R,0.250000X0.275000*%
%TD*%
%TA.AperFunction,SMDPad,CuDef*%
%ADD20R,0.630000X0.360000*%
%TD*%
%TA.AperFunction,SMDPad,CuDef*%
%ADD21R,2.640000X3.540000*%
%TD*%
%TA.AperFunction,SMDPad,CuDef*%
%ADD22R,2.300000X1.000000*%
%TD*%
%TA.AperFunction,SMDPad,CuDef*%
%ADD23R,1.000000X2.300000*%
%TD*%
%TA.AperFunction,SMDPad,CuDef*%
%ADD24RoundRect,0.250000X-0.350000X-0.450000X0.350000X-0.450000X0.350000X0.450000X-0.350000X0.450000X0*%
%TD*%
%TA.AperFunction,SMDPad,CuDef*%
%ADD25RoundRect,0.150000X-0.587500X-0.150000X0.587500X-0.150000X0.587500X0.150000X-0.587500X0.150000X0*%
%TD*%
%TA.AperFunction,SMDPad,CuDef*%
%ADD26R,1.500000X3.600000*%
%TD*%
%TA.AperFunction,ComponentPad*%
%ADD27R,1.500000X1.500000*%
%TD*%
%TA.AperFunction,ComponentPad*%
%ADD28C,1.500000*%
%TD*%
%TA.AperFunction,SMDPad,CuDef*%
%ADD29R,1.500000X3.400000*%
%TD*%
%TA.AperFunction,SMDPad,CuDef*%
%ADD30R,1.000000X3.500000*%
%TD*%
%TA.AperFunction,SMDPad,CuDef*%
%ADD31RoundRect,0.250000X-0.325000X-0.450000X0.325000X-0.450000X0.325000X0.450000X-0.325000X0.450000X0*%
%TD*%
%TA.AperFunction,SMDPad,CuDef*%
%ADD32RoundRect,0.225000X-0.225000X-0.375000X0.225000X-0.375000X0.225000X0.375000X-0.225000X0.375000X0*%
%TD*%
%TA.AperFunction,SMDPad,CuDef*%
%ADD33RoundRect,0.250000X-0.337500X-0.475000X0.337500X-0.475000X0.337500X0.475000X-0.337500X0.475000X0*%
%TD*%
G04 APERTURE END LIST*
D10*
%TO.P,J8,1,Pin_1*%
%TO.N,unconnected-(J8-Pin_1-Pad1)*%
X141700000Y-76200000D03*
%TO.P,J8,2,Pin_2*%
%TO.N,unconnected-(J8-Pin_2-Pad2)*%
X139700000Y-76200000D03*
%TO.P,J8,3,Pin_3*%
%TO.N,/SWDIO*%
X137700000Y-76200000D03*
%TO.P,J8,4,Pin_4*%
%TO.N,/SWCLK*%
X135700000Y-76200000D03*
%TO.P,J8,5,Pin_5*%
%TO.N,unconnected-(J8-Pin_5-Pad5)*%
X133700000Y-76200000D03*
%TD*%
D11*
%TO.P,SW1,1,1*%
%TO.N,/RST*%
X145710000Y-112150000D03*
X149860000Y-112150000D03*
%TO.P,SW1,2,2*%
%TO.N,GND*%
X149860000Y-114300000D03*
X145710000Y-114300000D03*
%TD*%
D12*
%TO.P,J2,1,In*%
%TO.N,Net-(J2-In)*%
X161035000Y-97585000D03*
D13*
%TO.P,J2,2,Ext*%
%TO.N,GND*%
X162560000Y-99060000D03*
X162560000Y-96110000D03*
%TD*%
D14*
%TO.P,U6,1,VIN*%
%TO.N,/V_BAT*%
X150125000Y-120020000D03*
%TO.P,U6,2,GND*%
%TO.N,GND*%
X150125000Y-120970000D03*
%TO.P,U6,3,EN*%
%TO.N,/V_BAT*%
X150125000Y-121920000D03*
%TO.P,U6,4,NC*%
%TO.N,unconnected-(U6-NC-Pad4)*%
X152400000Y-121920000D03*
%TO.P,U6,5,VOUT*%
%TO.N,/3v3*%
X152400000Y-120020000D03*
%TD*%
D15*
%TO.P,U5,1,SCL/SPC*%
%TO.N,/SCL*%
X151322500Y-105997500D03*
%TO.P,U5,2,CS_XL*%
%TO.N,Net-(U5-CS_MAG)*%
X151322500Y-106497500D03*
%TO.P,U5,3,CS_MAG*%
X151322500Y-106997500D03*
%TO.P,U5,4,SDA/SDI/SDO*%
%TO.N,/SDA*%
X151322500Y-107497500D03*
D16*
%TO.P,U5,5,C1*%
%TO.N,Net-(U5-C1)*%
X151817500Y-107492500D03*
%TO.P,U5,6,GND*%
%TO.N,GND*%
X152317500Y-107492500D03*
D15*
%TO.P,U5,7,INT_MAG/DRDY*%
%TO.N,unconnected-(U5-INT_MAG{slash}DRDY-Pad7)*%
X152812500Y-107497500D03*
%TO.P,U5,8,GND*%
%TO.N,GND*%
X152812500Y-106997500D03*
%TO.P,U5,9,VDD*%
%TO.N,/3v3*%
X152812500Y-106497500D03*
%TO.P,U5,10,VDD_IO*%
X152812500Y-105997500D03*
D16*
%TO.P,U5,11,INT_2_XL*%
%TO.N,unconnected-(U5-INT_2_XL-Pad11)*%
X152317500Y-106002500D03*
%TO.P,U5,12,INT_1_XL*%
%TO.N,/ACCEL_INT*%
X151817500Y-106002500D03*
%TD*%
D17*
%TO.P,U4,1,~{CS}*%
%TO.N,/Memory_CS*%
X116082500Y-101965000D03*
%TO.P,U4,2,DO(IO1)*%
%TO.N,/MISO*%
X116082500Y-103235000D03*
%TO.P,U4,3,IO2*%
%TO.N,unconnected-(U4-IO2-Pad3)*%
X116082500Y-104505000D03*
%TO.P,U4,4,GND*%
%TO.N,GND*%
X116082500Y-105775000D03*
%TO.P,U4,5,DI(IO0)*%
%TO.N,/MOSI*%
X123282500Y-105775000D03*
%TO.P,U4,6,CLK*%
%TO.N,/SCK*%
X123282500Y-104505000D03*
%TO.P,U4,7,IO3*%
%TO.N,unconnected-(U4-IO3-Pad7)*%
X123282500Y-103235000D03*
%TO.P,U4,8,VCC*%
%TO.N,/3v3*%
X123282500Y-101965000D03*
%TD*%
D18*
%TO.P,U3,3,VSS/GND*%
%TO.N,GND*%
X149030000Y-90962500D03*
%TO.P,U3,4,SDI/SDO/SDA*%
%TO.N,/SDA*%
X149030000Y-91462500D03*
%TO.P,U3,10,VDD*%
%TO.N,/3v3*%
X150555000Y-90962500D03*
%TO.P,U3,9,VSS/GND*%
%TO.N,GND*%
X150555000Y-91462500D03*
%TO.P,U3,5,SDO/DNC/SA0*%
%TO.N,Net-(U3-SDO{slash}DNC{slash}SA0)*%
X149030000Y-91962500D03*
%TO.P,U3,8,VSS/GND*%
%TO.N,GND*%
X150555000Y-91962500D03*
D19*
%TO.P,U3,1,VDDIO*%
%TO.N,/3v3*%
X150042500Y-90700000D03*
%TO.P,U3,2,SCK/SCL*%
%TO.N,/SCL*%
X149542500Y-90700000D03*
%TO.P,U3,7,INT/DNC*%
%TO.N,unconnected-(U3-INT{slash}DNC-Pad7)*%
X150042500Y-92225000D03*
%TO.P,U3,6,~{CS}*%
%TO.N,Net-(U3-~{CS})*%
X149542500Y-92225000D03*
%TD*%
D20*
%TO.P,U2,1,SCLK*%
%TO.N,/SCK*%
X120487500Y-118525000D03*
%TO.P,U2,2,MOSI*%
%TO.N,/MOSI*%
X120487500Y-119175000D03*
%TO.P,U2,3,CL*%
%TO.N,unconnected-(U2-CL-Pad3)*%
X120487500Y-119825000D03*
%TO.P,U2,4,CS+*%
%TO.N,Net-(D1-K)*%
X120487500Y-120475000D03*
%TO.P,U2,5,CS-*%
%TO.N,/SiPM_Bias*%
X120487500Y-121125000D03*
%TO.P,U2,6,DACOUT*%
%TO.N,Net-(U2-DACOUT)*%
X120487500Y-121775000D03*
%TO.P,U2,7,FB*%
%TO.N,Net-(U2-FB)*%
X124157500Y-121775000D03*
%TO.P,U2,8,COMP*%
%TO.N,Net-(U2-COMP)*%
X124157500Y-121125000D03*
%TO.P,U2,9,GND*%
%TO.N,GND*%
X124157500Y-120475000D03*
%TO.P,U2,10,GATE*%
%TO.N,Net-(Q1-G)*%
X124157500Y-119825000D03*
%TO.P,U2,11,VIN*%
%TO.N,/V_BAT*%
X124157500Y-119175000D03*
%TO.P,U2,12,CS*%
%TO.N,/Bias_CS*%
X124157500Y-118525000D03*
D21*
%TO.P,U2,13,PAN*%
%TO.N,GND*%
X122322500Y-120150000D03*
%TD*%
D22*
%TO.P,U1,4,PA14*%
%TO.N,/SWCLK*%
X130674853Y-102645000D03*
%TO.P,U1,3,PA13*%
%TO.N,/SWDIO*%
X130674853Y-101395000D03*
%TO.P,U1,2,GND*%
%TO.N,GND*%
X130674853Y-100145000D03*
%TO.P,U1,1,VCC*%
%TO.N,/3v3*%
X130674853Y-98895000D03*
%TO.P,U1,5,PB15*%
%TO.N,/SCL*%
X130674853Y-103895000D03*
%TO.P,U1,6,PA15*%
%TO.N,/SDA*%
X130674853Y-105145000D03*
%TO.P,U1,7,PB4*%
%TO.N,/SiPM_Signal*%
X130674853Y-106395000D03*
D23*
%TO.P,U1,11,PB5*%
%TO.N,/Status_LED*%
X136674853Y-108645000D03*
%TO.P,U1,10,PB6*%
%TO.N,/USB_TX*%
X135424853Y-108645000D03*
%TO.P,U1,9,PB7*%
%TO.N,/USB_RX*%
X134174853Y-108645000D03*
%TO.P,U1,8,PB3*%
%TO.N,/SiPM_Temp*%
X132924853Y-108645000D03*
%TO.P,U1,12,PC1*%
%TO.N,/MOSI*%
X137924853Y-108645000D03*
%TO.P,U1,13,PC0*%
%TO.N,/ACCEL_INT*%
X139174853Y-108645000D03*
%TO.P,U1,14,GND*%
%TO.N,GND*%
X140424853Y-108645000D03*
D22*
%TO.P,U1,18,PA3*%
%TO.N,/Bias_Enable*%
X142674853Y-102645000D03*
%TO.P,U1,17,RST*%
%TO.N,/RST*%
X142674853Y-103895000D03*
%TO.P,U1,16,GND*%
%TO.N,GND*%
X142674853Y-105145000D03*
%TO.P,U1,15,RFIO*%
%TO.N,/ANT*%
X142674853Y-106395000D03*
%TO.P,U1,19,PA2*%
%TO.N,/Stim_Enable*%
X142674853Y-101395000D03*
%TO.P,U1,20,PB10*%
%TO.N,/Battery_Monitor_Enable*%
X142674853Y-100145000D03*
%TO.P,U1,21,PA9*%
%TO.N,/SCK*%
X142674853Y-98895000D03*
D23*
%TO.P,U1,25,PB9*%
%TO.N,/Memory_CS*%
X136674853Y-96645000D03*
%TO.P,U1,24,PB13~{}*%
%TO.N,/Battery_Monitor*%
X137924853Y-96645000D03*
%TO.P,U1,23,PA0*%
%TO.N,/Anneal_Enable*%
X139174853Y-96645000D03*
%TO.P,U1,22,GND*%
%TO.N,GND*%
X140424853Y-96645000D03*
%TO.P,U1,26,PB14*%
%TO.N,/MISO*%
X135424853Y-96645000D03*
%TO.P,U1,27,PA10*%
%TO.N,/Bias_CS*%
X134174853Y-96645000D03*
%TO.P,U1,28,PB0*%
%TO.N,unconnected-(U1-PB0-Pad28)*%
X132924853Y-96645000D03*
%TD*%
D24*
%TO.P,R16,1*%
%TO.N,Net-(J2-In)*%
X125382500Y-93110000D03*
%TO.P,R16,2*%
%TO.N,/ANT*%
X127382500Y-93110000D03*
%TD*%
%TO.P,R15,1*%
%TO.N,Net-(D2-A)*%
X125382500Y-90160000D03*
%TO.P,R15,2*%
%TO.N,/3v3*%
X127382500Y-90160000D03*
%TD*%
%TO.P,R14,1*%
%TO.N,/RST*%
X125382500Y-87210000D03*
%TO.P,R14,2*%
%TO.N,/3v3*%
X127382500Y-87210000D03*
%TD*%
%TO.P,R13,1*%
%TO.N,/Battery_Monitor*%
X125382500Y-84260000D03*
%TO.P,R13,2*%
%TO.N,Net-(R11-Pad2)*%
X127382500Y-84260000D03*
%TD*%
%TO.P,R12,1*%
%TO.N,Net-(R11-Pad2)*%
X120632500Y-99010000D03*
%TO.P,R12,2*%
%TO.N,Net-(Q2-D)*%
X122632500Y-99010000D03*
%TD*%
%TO.P,R11,1*%
%TO.N,/V_BAT*%
X120632500Y-96060000D03*
%TO.P,R11,2*%
%TO.N,Net-(R11-Pad2)*%
X122632500Y-96060000D03*
%TD*%
%TO.P,R10,1*%
%TO.N,/SDA*%
X120632500Y-93110000D03*
%TO.P,R10,2*%
%TO.N,/3v3*%
X122632500Y-93110000D03*
%TD*%
%TO.P,R9,1*%
%TO.N,/SCL*%
X120632500Y-90160000D03*
%TO.P,R9,2*%
%TO.N,/3v3*%
X122632500Y-90160000D03*
%TD*%
%TO.P,R8,1*%
%TO.N,Net-(U5-CS_MAG)*%
X120632500Y-87210000D03*
%TO.P,R8,2*%
%TO.N,/3v3*%
X122632500Y-87210000D03*
%TD*%
%TO.P,R7,1*%
%TO.N,Net-(U3-SDO{slash}DNC{slash}SA0)*%
X120632500Y-84260000D03*
%TO.P,R7,2*%
%TO.N,/3v3*%
X122632500Y-84260000D03*
%TD*%
%TO.P,R6,1*%
%TO.N,Net-(U3-~{CS})*%
X115882500Y-99010000D03*
%TO.P,R6,2*%
%TO.N,/3v3*%
X117882500Y-99010000D03*
%TD*%
%TO.P,R5,1*%
%TO.N,Net-(U2-FB)*%
X115882500Y-96060000D03*
%TO.P,R5,2*%
%TO.N,GND*%
X117882500Y-96060000D03*
%TD*%
%TO.P,R4,1*%
%TO.N,/SiPM_Bias*%
X115882500Y-93110000D03*
%TO.P,R4,2*%
%TO.N,Net-(U2-FB)*%
X117882500Y-93110000D03*
%TD*%
%TO.P,R3,1*%
%TO.N,Net-(D1-K)*%
X115882500Y-90160000D03*
%TO.P,R3,2*%
%TO.N,/SiPM_Bias*%
X117882500Y-90160000D03*
%TD*%
%TO.P,R2,1*%
%TO.N,Net-(U2-DACOUT)*%
X115882500Y-87210000D03*
%TO.P,R2,2*%
%TO.N,Net-(U2-FB)*%
X117882500Y-87210000D03*
%TD*%
%TO.P,R1,1*%
%TO.N,Net-(C3-Pad1)*%
X115882500Y-84260000D03*
%TO.P,R1,2*%
%TO.N,Net-(U2-COMP)*%
X117882500Y-84260000D03*
%TD*%
D25*
%TO.P,Q2,1,G*%
%TO.N,/Battery_Monitor_Enable*%
X116015000Y-118500000D03*
%TO.P,Q2,2,S*%
%TO.N,GND*%
X116015000Y-120400000D03*
%TO.P,Q2,3,D*%
%TO.N,Net-(Q2-D)*%
X117890000Y-119450000D03*
%TD*%
%TO.P,Q1,1,G*%
%TO.N,Net-(Q1-G)*%
X116015000Y-114050000D03*
%TO.P,Q1,2,S*%
%TO.N,GND*%
X116015000Y-115950000D03*
%TO.P,Q1,3,D*%
%TO.N,Net-(D1-A)*%
X117890000Y-115000000D03*
%TD*%
D26*
%TO.P,L1,1,1*%
%TO.N,/V_BAT*%
X145567500Y-107527000D03*
%TO.P,L1,2,2*%
%TO.N,Net-(D1-A)*%
X148617500Y-107527000D03*
%TD*%
D27*
%TO.P,J5,1,Pin_1*%
%TO.N,/3v3*%
X120647500Y-114025000D03*
D28*
%TO.P,J5,2,Pin_2*%
%TO.N,/SiPM_Temp*%
X121647500Y-116025000D03*
%TO.P,J5,3,Pin_3*%
%TO.N,/SiPM_Bias*%
X122647500Y-114025000D03*
%TO.P,J5,4,Pin_4*%
%TO.N,GND*%
X123647500Y-116025000D03*
%TO.P,J5,5,Pin_5*%
%TO.N,/SiPM_Signal*%
X124647500Y-114025000D03*
%TO.P,J5,6,Pin_6*%
%TO.N,/V_BAT*%
X125647500Y-116025000D03*
%TD*%
D27*
%TO.P,J4,1,Pin_1*%
%TO.N,/V_BAT*%
X144437500Y-119995000D03*
D28*
%TO.P,J4,2,Pin_2*%
%TO.N,GND*%
X145437500Y-121995000D03*
%TO.P,J4,3,Pin_3*%
%TO.N,/Stim_Enable*%
X146437500Y-119995000D03*
%TO.P,J4,4,Pin_4*%
%TO.N,/Anneal_Enable*%
X147437500Y-121995000D03*
%TD*%
D29*
%TO.P,J3,*%
%TO.N,*%
X145567500Y-102745000D03*
X152267500Y-102745000D03*
D30*
%TO.P,J3,1,Pin_1*%
%TO.N,/V_BAT*%
X147917500Y-97245000D03*
%TO.P,J3,2,Pin_2*%
%TO.N,GND*%
X149917500Y-97245000D03*
%TD*%
D31*
%TO.P,D2,1,K*%
%TO.N,/Status_LED*%
X149412500Y-87655000D03*
%TO.P,D2,2,A*%
%TO.N,Net-(D2-A)*%
X151462500Y-87655000D03*
%TD*%
D32*
%TO.P,D1,1,K*%
%TO.N,Net-(D1-K)*%
X149287500Y-84460000D03*
%TO.P,D1,2,A*%
%TO.N,Net-(D1-A)*%
X152587500Y-84460000D03*
%TD*%
D33*
%TO.P,C12,1*%
%TO.N,Net-(J2-In)*%
X139745000Y-120830000D03*
%TO.P,C12,2*%
%TO.N,GND*%
X141820000Y-120830000D03*
%TD*%
%TO.P,C11,1*%
%TO.N,/ANT*%
X139745000Y-117820000D03*
%TO.P,C11,2*%
%TO.N,GND*%
X141820000Y-117820000D03*
%TD*%
%TO.P,C10,1*%
%TO.N,/3v3*%
X139745000Y-114810000D03*
%TO.P,C10,2*%
%TO.N,GND*%
X141820000Y-114810000D03*
%TD*%
%TO.P,C9,1*%
%TO.N,/3v3*%
X139745000Y-111800000D03*
%TO.P,C9,2*%
%TO.N,GND*%
X141820000Y-111800000D03*
%TD*%
%TO.P,C8,1*%
%TO.N,/V_BAT*%
X134935000Y-120830000D03*
%TO.P,C8,2*%
%TO.N,GND*%
X137010000Y-120830000D03*
%TD*%
%TO.P,C7,1*%
%TO.N,/V_BAT*%
X134935000Y-117820000D03*
%TO.P,C7,2*%
%TO.N,GND*%
X137010000Y-117820000D03*
%TD*%
%TO.P,C6,1*%
%TO.N,Net-(U5-C1)*%
X134935000Y-114810000D03*
%TO.P,C6,2*%
%TO.N,GND*%
X137010000Y-114810000D03*
%TD*%
%TO.P,C5,1*%
%TO.N,/SiPM_Bias*%
X134935000Y-111800000D03*
%TO.P,C5,2*%
%TO.N,GND*%
X137010000Y-111800000D03*
%TD*%
%TO.P,C4,1*%
%TO.N,Net-(D1-K)*%
X130125000Y-120830000D03*
%TO.P,C4,2*%
%TO.N,GND*%
X132200000Y-120830000D03*
%TD*%
%TO.P,C3,1*%
%TO.N,Net-(C3-Pad1)*%
X130125000Y-117820000D03*
%TO.P,C3,2*%
%TO.N,GND*%
X132200000Y-117820000D03*
%TD*%
%TO.P,C2,1*%
%TO.N,/V_BAT*%
X130125000Y-114810000D03*
%TO.P,C2,2*%
%TO.N,GND*%
X132200000Y-114810000D03*
%TD*%
%TO.P,C1,1*%
%TO.N,/3v3*%
X130125000Y-111800000D03*
%TO.P,C1,2*%
%TO.N,GND*%
X132200000Y-111800000D03*
%TD*%
%TA.AperFunction,Conductor*%
%TO.N,GND*%
G36*
X167582372Y-73680276D02*
G01*
X167628212Y-73733007D01*
X167639500Y-73784699D01*
X167639500Y-131955500D01*
X167619815Y-132022539D01*
X167567011Y-132068294D01*
X167515500Y-132079500D01*
X109344500Y-132079500D01*
X109277461Y-132059815D01*
X109231706Y-132007011D01*
X109220500Y-131955500D01*
X109220500Y-122002870D01*
X119672000Y-122002870D01*
X119672001Y-122002876D01*
X119678408Y-122062483D01*
X119728702Y-122197328D01*
X119728706Y-122197335D01*
X119814952Y-122312544D01*
X119814955Y-122312547D01*
X119930164Y-122398793D01*
X119930171Y-122398797D01*
X119963860Y-122411362D01*
X120065017Y-122449091D01*
X120124627Y-122455500D01*
X120850372Y-122455499D01*
X120909983Y-122449091D01*
X120967019Y-122427818D01*
X121010352Y-122420000D01*
X122072500Y-122420000D01*
X122572500Y-122420000D01*
X123634648Y-122420000D01*
X123677981Y-122427818D01*
X123735017Y-122449091D01*
X123794627Y-122455500D01*
X124520372Y-122455499D01*
X124579983Y-122449091D01*
X124714831Y-122398796D01*
X124830046Y-122312546D01*
X124916296Y-122197331D01*
X124966591Y-122062483D01*
X124973000Y-122002873D01*
X124972999Y-121547128D01*
X124966591Y-121487517D01*
X124966590Y-121487515D01*
X124966590Y-121487512D01*
X124964808Y-121479969D01*
X124967760Y-121479271D01*
X124963769Y-121423674D01*
X124964834Y-121420044D01*
X124964806Y-121420038D01*
X124966589Y-121412488D01*
X124966588Y-121412488D01*
X124966591Y-121412483D01*
X124972771Y-121355001D01*
X129037000Y-121355001D01*
X129037001Y-121355019D01*
X129047500Y-121457796D01*
X129047501Y-121457799D01*
X129083249Y-121565677D01*
X129102686Y-121624334D01*
X129194788Y-121773656D01*
X129318844Y-121897712D01*
X129468166Y-121989814D01*
X129634703Y-122044999D01*
X129737491Y-122055500D01*
X130512508Y-122055499D01*
X130512516Y-122055498D01*
X130512519Y-122055498D01*
X130568802Y-122049748D01*
X130615297Y-122044999D01*
X130781834Y-121989814D01*
X130931156Y-121897712D01*
X131055212Y-121773656D01*
X131057252Y-121770347D01*
X131059245Y-121768555D01*
X131059693Y-121767989D01*
X131059789Y-121768065D01*
X131109194Y-121723623D01*
X131178156Y-121712395D01*
X131242240Y-121740234D01*
X131268329Y-121770339D01*
X131270181Y-121773341D01*
X131270183Y-121773344D01*
X131394154Y-121897315D01*
X131543375Y-121989356D01*
X131543380Y-121989358D01*
X131709802Y-122044505D01*
X131709809Y-122044506D01*
X131812519Y-122054999D01*
X131949999Y-122054999D01*
X131950000Y-122054998D01*
X131950000Y-121080000D01*
X132450000Y-121080000D01*
X132450000Y-122054999D01*
X132587472Y-122054999D01*
X132587486Y-122054998D01*
X132690197Y-122044505D01*
X132856619Y-121989358D01*
X132856624Y-121989356D01*
X133005845Y-121897315D01*
X133129815Y-121773345D01*
X133221856Y-121624124D01*
X133221858Y-121624119D01*
X133277005Y-121457697D01*
X133277006Y-121457690D01*
X133287497Y-121355001D01*
X133847000Y-121355001D01*
X133847001Y-121355019D01*
X133857500Y-121457796D01*
X133857501Y-121457799D01*
X133893249Y-121565677D01*
X133912686Y-121624334D01*
X134004788Y-121773656D01*
X134128844Y-121897712D01*
X134278166Y-121989814D01*
X134444703Y-122044999D01*
X134547491Y-122055500D01*
X135322508Y-122055499D01*
X135322516Y-122055498D01*
X135322519Y-122055498D01*
X135378802Y-122049748D01*
X135425297Y-122044999D01*
X135591834Y-121989814D01*
X135741156Y-121897712D01*
X135865212Y-121773656D01*
X135867252Y-121770347D01*
X135869245Y-121768555D01*
X135869693Y-121767989D01*
X135869789Y-121768065D01*
X135919194Y-121723623D01*
X135988156Y-121712395D01*
X136052240Y-121740234D01*
X136078329Y-121770339D01*
X136080181Y-121773341D01*
X136080183Y-121773344D01*
X136204154Y-121897315D01*
X136353375Y-121989356D01*
X136353380Y-121989358D01*
X136519802Y-122044505D01*
X136519809Y-122044506D01*
X136622519Y-122054999D01*
X136759999Y-122054999D01*
X136760000Y-122054998D01*
X136760000Y-121080000D01*
X137260000Y-121080000D01*
X137260000Y-122054999D01*
X137397472Y-122054999D01*
X137397486Y-122054998D01*
X137500197Y-122044505D01*
X137666619Y-121989358D01*
X137666624Y-121989356D01*
X137815845Y-121897315D01*
X137939815Y-121773345D01*
X138031856Y-121624124D01*
X138031858Y-121624119D01*
X138087005Y-121457697D01*
X138087006Y-121457690D01*
X138097497Y-121355001D01*
X138657000Y-121355001D01*
X138657001Y-121355019D01*
X138667500Y-121457796D01*
X138667501Y-121457799D01*
X138703249Y-121565677D01*
X138722686Y-121624334D01*
X138814788Y-121773656D01*
X138938844Y-121897712D01*
X139088166Y-121989814D01*
X139254703Y-122044999D01*
X139357491Y-122055500D01*
X140132508Y-122055499D01*
X140132516Y-122055498D01*
X140132519Y-122055498D01*
X140188802Y-122049748D01*
X140235297Y-122044999D01*
X140401834Y-121989814D01*
X140551156Y-121897712D01*
X140675212Y-121773656D01*
X140677252Y-121770347D01*
X140679245Y-121768555D01*
X140679693Y-121767989D01*
X140679789Y-121768065D01*
X140729194Y-121723623D01*
X140798156Y-121712395D01*
X140862240Y-121740234D01*
X140888329Y-121770339D01*
X140890181Y-121773341D01*
X140890183Y-121773344D01*
X141014154Y-121897315D01*
X141163375Y-121989356D01*
X141163380Y-121989358D01*
X141329802Y-122044505D01*
X141329809Y-122044506D01*
X141432519Y-122054999D01*
X141569999Y-122054999D01*
X141570000Y-122054998D01*
X141570000Y-121080000D01*
X142070000Y-121080000D01*
X142070000Y-122054999D01*
X142207472Y-122054999D01*
X142207486Y-122054998D01*
X142310197Y-122044505D01*
X142476619Y-121989358D01*
X142476624Y-121989356D01*
X142625845Y-121897315D01*
X142749815Y-121773345D01*
X142841856Y-121624124D01*
X142841858Y-121624119D01*
X142897005Y-121457697D01*
X142897006Y-121457690D01*
X142907499Y-121354986D01*
X142907500Y-121354973D01*
X142907500Y-121080000D01*
X142070000Y-121080000D01*
X141570000Y-121080000D01*
X141570000Y-120792870D01*
X143187000Y-120792870D01*
X143187001Y-120792876D01*
X143193408Y-120852483D01*
X143243702Y-120987328D01*
X143243706Y-120987335D01*
X143329952Y-121102544D01*
X143329955Y-121102547D01*
X143445164Y-121188793D01*
X143445171Y-121188797D01*
X143580017Y-121239091D01*
X143580016Y-121239091D01*
X143586944Y-121239835D01*
X143639627Y-121245500D01*
X144213136Y-121245499D01*
X144280173Y-121265183D01*
X144325928Y-121317987D01*
X144335872Y-121387146D01*
X144325516Y-121421903D01*
X144258399Y-121565835D01*
X144258394Y-121565849D01*
X144201789Y-121777105D01*
X144201787Y-121777115D01*
X144182725Y-121994999D01*
X144182725Y-121995000D01*
X144201787Y-122212884D01*
X144201789Y-122212894D01*
X144258394Y-122424150D01*
X144258398Y-122424159D01*
X144350835Y-122622391D01*
X144394373Y-122684571D01*
X144394374Y-122684572D01*
X145039546Y-122039400D01*
X145052335Y-122120148D01*
X145109859Y-122233045D01*
X145199455Y-122322641D01*
X145312352Y-122380165D01*
X145393099Y-122392953D01*
X144747926Y-123038124D01*
X144810111Y-123081666D01*
X144810113Y-123081667D01*
X145008340Y-123174101D01*
X145008349Y-123174105D01*
X145219605Y-123230710D01*
X145219615Y-123230712D01*
X145437499Y-123249775D01*
X145437501Y-123249775D01*
X145655384Y-123230712D01*
X145655394Y-123230710D01*
X145866650Y-123174105D01*
X145866659Y-123174101D01*
X146064887Y-123081666D01*
X146127072Y-123038124D01*
X145481901Y-122392953D01*
X145562648Y-122380165D01*
X145675545Y-122322641D01*
X145765141Y-122233045D01*
X145822665Y-122120148D01*
X145835453Y-122039400D01*
X146275264Y-122479211D01*
X146299965Y-122514487D01*
X146350396Y-122622636D01*
X146350397Y-122622638D01*
X146350398Y-122622639D01*
X146475902Y-122801877D01*
X146630623Y-122956598D01*
X146809861Y-123082102D01*
X147008170Y-123174575D01*
X147219523Y-123231207D01*
X147402426Y-123247208D01*
X147437498Y-123250277D01*
X147437500Y-123250277D01*
X147437502Y-123250277D01*
X147465754Y-123247805D01*
X147655477Y-123231207D01*
X147866830Y-123174575D01*
X148065139Y-123082102D01*
X148244377Y-122956598D01*
X148399098Y-122801877D01*
X148524602Y-122622639D01*
X148617075Y-122424330D01*
X148673707Y-122212977D01*
X148680468Y-122135696D01*
X148962000Y-122135696D01*
X148964901Y-122172567D01*
X148964902Y-122172573D01*
X149010754Y-122330393D01*
X149010755Y-122330396D01*
X149094232Y-122471550D01*
X149094418Y-122471864D01*
X149094423Y-122471870D01*
X149210629Y-122588076D01*
X149210633Y-122588079D01*
X149210635Y-122588081D01*
X149352102Y-122671744D01*
X149393724Y-122683836D01*
X149509926Y-122717597D01*
X149509929Y-122717597D01*
X149509931Y-122717598D01*
X149522222Y-122718565D01*
X149546804Y-122720500D01*
X149546806Y-122720500D01*
X150703196Y-122720500D01*
X150721631Y-122719049D01*
X150740069Y-122717598D01*
X150740071Y-122717597D01*
X150740073Y-122717597D01*
X150781691Y-122705505D01*
X150897898Y-122671744D01*
X151039365Y-122588081D01*
X151155581Y-122471865D01*
X151155767Y-122471549D01*
X151155977Y-122471353D01*
X151160361Y-122465702D01*
X151161272Y-122466409D01*
X151206836Y-122423866D01*
X151275577Y-122411362D01*
X151340167Y-122438006D01*
X151364355Y-122465921D01*
X151364639Y-122465702D01*
X151368679Y-122470911D01*
X151369232Y-122471548D01*
X151369419Y-122471865D01*
X151369421Y-122471867D01*
X151369423Y-122471870D01*
X151485629Y-122588076D01*
X151485633Y-122588079D01*
X151485635Y-122588081D01*
X151627102Y-122671744D01*
X151668724Y-122683836D01*
X151784926Y-122717597D01*
X151784929Y-122717597D01*
X151784931Y-122717598D01*
X151797222Y-122718565D01*
X151821804Y-122720500D01*
X151821806Y-122720500D01*
X152978196Y-122720500D01*
X152996631Y-122719049D01*
X153015069Y-122717598D01*
X153015071Y-122717597D01*
X153015073Y-122717597D01*
X153056691Y-122705505D01*
X153172898Y-122671744D01*
X153314365Y-122588081D01*
X153430581Y-122471865D01*
X153514244Y-122330398D01*
X153560098Y-122172569D01*
X153563000Y-122135694D01*
X153563000Y-121704306D01*
X153562710Y-121700627D01*
X153560098Y-121667432D01*
X153560097Y-121667426D01*
X153514245Y-121509606D01*
X153514244Y-121509603D01*
X153514244Y-121509602D01*
X153430581Y-121368135D01*
X153430579Y-121368133D01*
X153430576Y-121368129D01*
X153314370Y-121251923D01*
X153314362Y-121251917D01*
X153172896Y-121168255D01*
X153172893Y-121168254D01*
X153015073Y-121122402D01*
X153015067Y-121122401D01*
X152978196Y-121119500D01*
X152978194Y-121119500D01*
X151821806Y-121119500D01*
X151821804Y-121119500D01*
X151784932Y-121122401D01*
X151784926Y-121122402D01*
X151627106Y-121168254D01*
X151627103Y-121168255D01*
X151485637Y-121251917D01*
X151479469Y-121256702D01*
X151478164Y-121255019D01*
X151426454Y-121283246D01*
X151356763Y-121278251D01*
X151309058Y-121246247D01*
X151284796Y-121220000D01*
X151019315Y-121220000D01*
X150956194Y-121202732D01*
X150897896Y-121168255D01*
X150897893Y-121168254D01*
X150740073Y-121122402D01*
X150740067Y-121122401D01*
X150703196Y-121119500D01*
X150703194Y-121119500D01*
X149546806Y-121119500D01*
X149546804Y-121119500D01*
X149509932Y-121122401D01*
X149509926Y-121122402D01*
X149352106Y-121168254D01*
X149352103Y-121168255D01*
X149293806Y-121202732D01*
X149230685Y-121220000D01*
X148965205Y-121220000D01*
X148965204Y-121220001D01*
X148965399Y-121222488D01*
X148965400Y-121222494D01*
X149011216Y-121380193D01*
X149011220Y-121380203D01*
X149011927Y-121381398D01*
X149012195Y-121382454D01*
X149014316Y-121387356D01*
X149013524Y-121387698D01*
X149029103Y-121449123D01*
X149013493Y-121502284D01*
X149013855Y-121502441D01*
X149012587Y-121505369D01*
X149011927Y-121507620D01*
X149010759Y-121509594D01*
X149010754Y-121509607D01*
X148964902Y-121667426D01*
X148964901Y-121667432D01*
X148962000Y-121704304D01*
X148962000Y-122135696D01*
X148680468Y-122135696D01*
X148692088Y-122002872D01*
X148692777Y-121995002D01*
X148692777Y-121994997D01*
X148689069Y-121952618D01*
X148673707Y-121777023D01*
X148617075Y-121565670D01*
X148524602Y-121367362D01*
X148524600Y-121367359D01*
X148524599Y-121367357D01*
X148399099Y-121188124D01*
X148330475Y-121119500D01*
X148244377Y-121033402D01*
X148065139Y-120907898D01*
X148065140Y-120907898D01*
X148065138Y-120907897D01*
X147946301Y-120852483D01*
X147866830Y-120815425D01*
X147866826Y-120815424D01*
X147866822Y-120815422D01*
X147655482Y-120758794D01*
X147655473Y-120758792D01*
X147645144Y-120757889D01*
X147580076Y-120732435D01*
X147539098Y-120675843D01*
X147535222Y-120606081D01*
X147543569Y-120581962D01*
X147617075Y-120424330D01*
X147667619Y-120235696D01*
X148962000Y-120235696D01*
X148964901Y-120272567D01*
X148964902Y-120272573D01*
X149010754Y-120430393D01*
X149010756Y-120430399D01*
X149011926Y-120432377D01*
X149012369Y-120434126D01*
X149013853Y-120437554D01*
X149013299Y-120437793D01*
X149029103Y-120500102D01*
X149013749Y-120552395D01*
X149014317Y-120552641D01*
X149012327Y-120557239D01*
X149011928Y-120558599D01*
X149011222Y-120559791D01*
X149011216Y-120559806D01*
X148965400Y-120717505D01*
X148965399Y-120717511D01*
X148965204Y-120719998D01*
X148965205Y-120720000D01*
X149230685Y-120720000D01*
X149293806Y-120737268D01*
X149352102Y-120771744D01*
X149393724Y-120783836D01*
X149509926Y-120817597D01*
X149509929Y-120817597D01*
X149509931Y-120817598D01*
X149522222Y-120818565D01*
X149546804Y-120820500D01*
X149546806Y-120820500D01*
X150703196Y-120820500D01*
X150721631Y-120819049D01*
X150740069Y-120817598D01*
X150740071Y-120817597D01*
X150740073Y-120817597D01*
X150800641Y-120800000D01*
X150897898Y-120771744D01*
X150956194Y-120737268D01*
X151019315Y-120720000D01*
X151284794Y-120720000D01*
X151309057Y-120693752D01*
X151369018Y-120657885D01*
X151438852Y-120660129D01*
X151478512Y-120684530D01*
X151479469Y-120683298D01*
X151485632Y-120688078D01*
X151485635Y-120688081D01*
X151627102Y-120771744D01*
X151668724Y-120783836D01*
X151784926Y-120817597D01*
X151784929Y-120817597D01*
X151784931Y-120817598D01*
X151797222Y-120818565D01*
X151821804Y-120820500D01*
X151821806Y-120820500D01*
X152978196Y-120820500D01*
X152996631Y-120819049D01*
X153015069Y-120817598D01*
X153015071Y-120817597D01*
X153015073Y-120817597D01*
X153075641Y-120800000D01*
X153172898Y-120771744D01*
X153314365Y-120688081D01*
X153430581Y-120571865D01*
X153514244Y-120430398D01*
X153560098Y-120272569D01*
X153563000Y-120235694D01*
X153563000Y-119804306D01*
X153560098Y-119767431D01*
X153558604Y-119762289D01*
X153515956Y-119615494D01*
X153514244Y-119609602D01*
X153430581Y-119468135D01*
X153430579Y-119468133D01*
X153430576Y-119468129D01*
X153314370Y-119351923D01*
X153314362Y-119351917D01*
X153172896Y-119268255D01*
X153172893Y-119268254D01*
X153015073Y-119222402D01*
X153015067Y-119222401D01*
X152978196Y-119219500D01*
X152978194Y-119219500D01*
X151821806Y-119219500D01*
X151821804Y-119219500D01*
X151784932Y-119222401D01*
X151784926Y-119222402D01*
X151627106Y-119268254D01*
X151627103Y-119268255D01*
X151485637Y-119351917D01*
X151485629Y-119351923D01*
X151369423Y-119468129D01*
X151369414Y-119468140D01*
X151369229Y-119468455D01*
X151369019Y-119468650D01*
X151364639Y-119474298D01*
X151363727Y-119473591D01*
X151318157Y-119516136D01*
X151249415Y-119528637D01*
X151184827Y-119501988D01*
X151160643Y-119474078D01*
X151160361Y-119474298D01*
X151156323Y-119469092D01*
X151155771Y-119468455D01*
X151155585Y-119468140D01*
X151155576Y-119468129D01*
X151039370Y-119351923D01*
X151039362Y-119351917D01*
X150897896Y-119268255D01*
X150897893Y-119268254D01*
X150740073Y-119222402D01*
X150740067Y-119222401D01*
X150703196Y-119219500D01*
X150703194Y-119219500D01*
X149546806Y-119219500D01*
X149546804Y-119219500D01*
X149509932Y-119222401D01*
X149509926Y-119222402D01*
X149352106Y-119268254D01*
X149352103Y-119268255D01*
X149210637Y-119351917D01*
X149210629Y-119351923D01*
X149094423Y-119468129D01*
X149094417Y-119468137D01*
X149010755Y-119609603D01*
X149010754Y-119609606D01*
X148964902Y-119767426D01*
X148964901Y-119767432D01*
X148962000Y-119804304D01*
X148962000Y-120235696D01*
X147667619Y-120235696D01*
X147673707Y-120212977D01*
X147692176Y-120001870D01*
X147692777Y-119995002D01*
X147692777Y-119994997D01*
X147683782Y-119892183D01*
X147673707Y-119777023D01*
X147627614Y-119605001D01*
X147617077Y-119565677D01*
X147617076Y-119565676D01*
X147617075Y-119565670D01*
X147524602Y-119367362D01*
X147524600Y-119367359D01*
X147524599Y-119367357D01*
X147399099Y-119188124D01*
X147348492Y-119137517D01*
X147244377Y-119033402D01*
X147091503Y-118926358D01*
X147065138Y-118907897D01*
X146940976Y-118850000D01*
X146866830Y-118815425D01*
X146866826Y-118815424D01*
X146866822Y-118815422D01*
X146655477Y-118758793D01*
X146437502Y-118739723D01*
X146437498Y-118739723D01*
X146309651Y-118750908D01*
X146219523Y-118758793D01*
X146219520Y-118758793D01*
X146008177Y-118815422D01*
X146008170Y-118815424D01*
X146008170Y-118815425D01*
X145990480Y-118823674D01*
X145809863Y-118907897D01*
X145809857Y-118907901D01*
X145744557Y-118953623D01*
X145678351Y-118975950D01*
X145610584Y-118958938D01*
X145574170Y-118926359D01*
X145545046Y-118887454D01*
X145495014Y-118850000D01*
X145429835Y-118801206D01*
X145429828Y-118801202D01*
X145294982Y-118750908D01*
X145294983Y-118750908D01*
X145235383Y-118744501D01*
X145235381Y-118744500D01*
X145235373Y-118744500D01*
X145235364Y-118744500D01*
X143639629Y-118744500D01*
X143639623Y-118744501D01*
X143580016Y-118750908D01*
X143445171Y-118801202D01*
X143445164Y-118801206D01*
X143329955Y-118887452D01*
X143329952Y-118887455D01*
X143243706Y-119002664D01*
X143243702Y-119002671D01*
X143193408Y-119137517D01*
X143187001Y-119197116D01*
X143187000Y-119197135D01*
X143187000Y-120792870D01*
X141570000Y-120792870D01*
X141570000Y-119605000D01*
X142070000Y-119605000D01*
X142070000Y-120580000D01*
X142907499Y-120580000D01*
X142907499Y-120305028D01*
X142907498Y-120305013D01*
X142897005Y-120202302D01*
X142841858Y-120035880D01*
X142841856Y-120035875D01*
X142749815Y-119886654D01*
X142625845Y-119762684D01*
X142476624Y-119670643D01*
X142476619Y-119670641D01*
X142310197Y-119615494D01*
X142310190Y-119615493D01*
X142207486Y-119605000D01*
X142070000Y-119605000D01*
X141570000Y-119605000D01*
X141432527Y-119605000D01*
X141432512Y-119605001D01*
X141329802Y-119615494D01*
X141163380Y-119670641D01*
X141163375Y-119670643D01*
X141014154Y-119762684D01*
X140890183Y-119886655D01*
X140890179Y-119886660D01*
X140888326Y-119889665D01*
X140886518Y-119891290D01*
X140885702Y-119892323D01*
X140885525Y-119892183D01*
X140836374Y-119936385D01*
X140767411Y-119947601D01*
X140703331Y-119919752D01*
X140677253Y-119889653D01*
X140677237Y-119889628D01*
X140675212Y-119886344D01*
X140551156Y-119762288D01*
X140401834Y-119670186D01*
X140235297Y-119615001D01*
X140235295Y-119615000D01*
X140132510Y-119604500D01*
X139357498Y-119604500D01*
X139357480Y-119604501D01*
X139254703Y-119615000D01*
X139254700Y-119615001D01*
X139088168Y-119670185D01*
X139088163Y-119670187D01*
X138938842Y-119762289D01*
X138814789Y-119886342D01*
X138722687Y-120035663D01*
X138722685Y-120035668D01*
X138722615Y-120035880D01*
X138667501Y-120202203D01*
X138667501Y-120202204D01*
X138667500Y-120202204D01*
X138657000Y-120304983D01*
X138657000Y-121355001D01*
X138097497Y-121355001D01*
X138097499Y-121354986D01*
X138097500Y-121354973D01*
X138097500Y-121080000D01*
X137260000Y-121080000D01*
X136760000Y-121080000D01*
X136760000Y-119605000D01*
X137260000Y-119605000D01*
X137260000Y-120580000D01*
X138097499Y-120580000D01*
X138097499Y-120305028D01*
X138097498Y-120305013D01*
X138087005Y-120202302D01*
X138031858Y-120035880D01*
X138031856Y-120035875D01*
X137939815Y-119886654D01*
X137815845Y-119762684D01*
X137666624Y-119670643D01*
X137666619Y-119670641D01*
X137500197Y-119615494D01*
X137500190Y-119615493D01*
X137397486Y-119605000D01*
X137260000Y-119605000D01*
X136760000Y-119605000D01*
X136622527Y-119605000D01*
X136622512Y-119605001D01*
X136519802Y-119615494D01*
X136353380Y-119670641D01*
X136353375Y-119670643D01*
X136204154Y-119762684D01*
X136080183Y-119886655D01*
X136080179Y-119886660D01*
X136078326Y-119889665D01*
X136076518Y-119891290D01*
X136075702Y-119892323D01*
X136075525Y-119892183D01*
X136026374Y-119936385D01*
X135957411Y-119947601D01*
X135893331Y-119919752D01*
X135867253Y-119889653D01*
X135867237Y-119889628D01*
X135865212Y-119886344D01*
X135741156Y-119762288D01*
X135591834Y-119670186D01*
X135425297Y-119615001D01*
X135425295Y-119615000D01*
X135322510Y-119604500D01*
X134547498Y-119604500D01*
X134547480Y-119604501D01*
X134444703Y-119615000D01*
X134444700Y-119615001D01*
X134278168Y-119670185D01*
X134278163Y-119670187D01*
X134128842Y-119762289D01*
X134004789Y-119886342D01*
X133912687Y-120035663D01*
X133912685Y-120035668D01*
X133912615Y-120035880D01*
X133857501Y-120202203D01*
X133857501Y-120202204D01*
X133857500Y-120202204D01*
X133847000Y-120304983D01*
X133847000Y-121355001D01*
X133287497Y-121355001D01*
X133287499Y-121354986D01*
X133287500Y-121354973D01*
X133287500Y-121080000D01*
X132450000Y-121080000D01*
X131950000Y-121080000D01*
X131950000Y-119605000D01*
X132450000Y-119605000D01*
X132450000Y-120580000D01*
X133287499Y-120580000D01*
X133287499Y-120305028D01*
X133287498Y-120305013D01*
X133277005Y-120202302D01*
X133221858Y-120035880D01*
X133221856Y-120035875D01*
X133129815Y-119886654D01*
X133005845Y-119762684D01*
X132856624Y-119670643D01*
X132856619Y-119670641D01*
X132690197Y-119615494D01*
X132690190Y-119615493D01*
X132587486Y-119605000D01*
X132450000Y-119605000D01*
X131950000Y-119605000D01*
X131812527Y-119605000D01*
X131812512Y-119605001D01*
X131709802Y-119615494D01*
X131543380Y-119670641D01*
X131543375Y-119670643D01*
X131394154Y-119762684D01*
X131270183Y-119886655D01*
X131270179Y-119886660D01*
X131268326Y-119889665D01*
X131266518Y-119891290D01*
X131265702Y-119892323D01*
X131265525Y-119892183D01*
X131216374Y-119936385D01*
X131147411Y-119947601D01*
X131083331Y-119919752D01*
X131057253Y-119889653D01*
X131057237Y-119889628D01*
X131055212Y-119886344D01*
X130931156Y-119762288D01*
X130781834Y-119670186D01*
X130615297Y-119615001D01*
X130615295Y-119615000D01*
X130512510Y-119604500D01*
X129737498Y-119604500D01*
X129737480Y-119604501D01*
X129634703Y-119615000D01*
X129634700Y-119615001D01*
X129468168Y-119670185D01*
X129468163Y-119670187D01*
X129318842Y-119762289D01*
X129194789Y-119886342D01*
X129102687Y-120035663D01*
X129102685Y-120035668D01*
X129102615Y-120035880D01*
X129047501Y-120202203D01*
X129047501Y-120202204D01*
X129047500Y-120202204D01*
X129037000Y-120304983D01*
X129037000Y-121355001D01*
X124972771Y-121355001D01*
X124973000Y-121352873D01*
X124972999Y-120897128D01*
X124966591Y-120837517D01*
X124966591Y-120837516D01*
X124964807Y-120829966D01*
X124967540Y-120829319D01*
X124963512Y-120772914D01*
X124964385Y-120769942D01*
X124964314Y-120769926D01*
X124966098Y-120762375D01*
X124972499Y-120702844D01*
X124972500Y-120702827D01*
X124972500Y-120655000D01*
X124942680Y-120655000D01*
X124875641Y-120635315D01*
X124843415Y-120605313D01*
X124830046Y-120587454D01*
X124830044Y-120587453D01*
X124830044Y-120587452D01*
X124812430Y-120574267D01*
X124770558Y-120518334D01*
X124765574Y-120448642D01*
X124799058Y-120387319D01*
X124812430Y-120375733D01*
X124830046Y-120362546D01*
X124843414Y-120344687D01*
X124899347Y-120302818D01*
X124942680Y-120295000D01*
X124972500Y-120295000D01*
X124972500Y-120247172D01*
X124972499Y-120247155D01*
X124966098Y-120187627D01*
X124964314Y-120180076D01*
X124967444Y-120179336D01*
X124963503Y-120124382D01*
X124964916Y-120119570D01*
X124966589Y-120112489D01*
X124966589Y-120112488D01*
X124966591Y-120112483D01*
X124973000Y-120052873D01*
X124972999Y-119597128D01*
X124966591Y-119537517D01*
X124966590Y-119537515D01*
X124966590Y-119537512D01*
X124964808Y-119529969D01*
X124967760Y-119529271D01*
X124963769Y-119473674D01*
X124964834Y-119470044D01*
X124964806Y-119470038D01*
X124966589Y-119462488D01*
X124966588Y-119462488D01*
X124966591Y-119462483D01*
X124973000Y-119402873D01*
X124972999Y-118947128D01*
X124966591Y-118887517D01*
X124966590Y-118887515D01*
X124966590Y-118887512D01*
X124964808Y-118879969D01*
X124967760Y-118879271D01*
X124963769Y-118823674D01*
X124964834Y-118820044D01*
X124964806Y-118820038D01*
X124966589Y-118812488D01*
X124966588Y-118812488D01*
X124966591Y-118812483D01*
X124973000Y-118752873D01*
X124972999Y-118345001D01*
X129037000Y-118345001D01*
X129037001Y-118345019D01*
X129047500Y-118447796D01*
X129047501Y-118447799D01*
X129073249Y-118525500D01*
X129102686Y-118614334D01*
X129194788Y-118763656D01*
X129318844Y-118887712D01*
X129468166Y-118979814D01*
X129634703Y-119034999D01*
X129737491Y-119045500D01*
X130512508Y-119045499D01*
X130512516Y-119045498D01*
X130512519Y-119045498D01*
X130570236Y-119039602D01*
X130615297Y-119034999D01*
X130781834Y-118979814D01*
X130931156Y-118887712D01*
X131055212Y-118763656D01*
X131057252Y-118760347D01*
X131059245Y-118758555D01*
X131059693Y-118757989D01*
X131059789Y-118758065D01*
X131109194Y-118713623D01*
X131178156Y-118702395D01*
X131242240Y-118730234D01*
X131268329Y-118760339D01*
X131270181Y-118763341D01*
X131270183Y-118763344D01*
X131394154Y-118887315D01*
X131543375Y-118979356D01*
X131543380Y-118979358D01*
X131709802Y-119034505D01*
X131709809Y-119034506D01*
X131812519Y-119044999D01*
X131949999Y-119044999D01*
X131950000Y-119044998D01*
X131950000Y-118070000D01*
X132450000Y-118070000D01*
X132450000Y-119044999D01*
X132587472Y-119044999D01*
X132587486Y-119044998D01*
X132690197Y-119034505D01*
X132856619Y-118979358D01*
X132856624Y-118979356D01*
X133005845Y-118887315D01*
X133129815Y-118763345D01*
X133221856Y-118614124D01*
X133221858Y-118614119D01*
X133277005Y-118447697D01*
X133277006Y-118447690D01*
X133287497Y-118345001D01*
X133847000Y-118345001D01*
X133847001Y-118345019D01*
X133857500Y-118447796D01*
X133857501Y-118447799D01*
X133883249Y-118525500D01*
X133912686Y-118614334D01*
X134004788Y-118763656D01*
X134128844Y-118887712D01*
X134278166Y-118979814D01*
X134444703Y-119034999D01*
X134547491Y-119045500D01*
X135322508Y-119045499D01*
X135322516Y-119045498D01*
X135322519Y-119045498D01*
X135380236Y-119039602D01*
X135425297Y-119034999D01*
X135591834Y-118979814D01*
X135741156Y-118887712D01*
X135865212Y-118763656D01*
X135867252Y-118760347D01*
X135869245Y-118758555D01*
X135869693Y-118757989D01*
X135869789Y-118758065D01*
X135919194Y-118713623D01*
X135988156Y-118702395D01*
X136052240Y-118730234D01*
X136078329Y-118760339D01*
X136080181Y-118763341D01*
X136080183Y-118763344D01*
X136204154Y-118887315D01*
X136353375Y-118979356D01*
X136353380Y-118979358D01*
X136519802Y-119034505D01*
X136519809Y-119034506D01*
X136622519Y-119044999D01*
X136759999Y-119044999D01*
X136760000Y-119044998D01*
X136760000Y-118070000D01*
X137260000Y-118070000D01*
X137260000Y-119044999D01*
X137397472Y-119044999D01*
X137397486Y-119044998D01*
X137500197Y-119034505D01*
X137666619Y-118979358D01*
X137666624Y-118979356D01*
X137815845Y-118887315D01*
X137939815Y-118763345D01*
X138031856Y-118614124D01*
X138031858Y-118614119D01*
X138087005Y-118447697D01*
X138087006Y-118447690D01*
X138097497Y-118345001D01*
X138657000Y-118345001D01*
X138657001Y-118345019D01*
X138667500Y-118447796D01*
X138667501Y-118447799D01*
X138693249Y-118525500D01*
X138722686Y-118614334D01*
X138814788Y-118763656D01*
X138938844Y-118887712D01*
X139088166Y-118979814D01*
X139254703Y-119034999D01*
X139357491Y-119045500D01*
X140132508Y-119045499D01*
X140132516Y-119045498D01*
X140132519Y-119045498D01*
X140190236Y-119039602D01*
X140235297Y-119034999D01*
X140401834Y-118979814D01*
X140551156Y-118887712D01*
X140675212Y-118763656D01*
X140677252Y-118760347D01*
X140679245Y-118758555D01*
X140679693Y-118757989D01*
X140679789Y-118758065D01*
X140729194Y-118713623D01*
X140798156Y-118702395D01*
X140862240Y-118730234D01*
X140888329Y-118760339D01*
X140890181Y-118763341D01*
X140890183Y-118763344D01*
X141014154Y-118887315D01*
X141163375Y-118979356D01*
X141163380Y-118979358D01*
X141329802Y-119034505D01*
X141329809Y-119034506D01*
X141432519Y-119044999D01*
X141569999Y-119044999D01*
X141570000Y-119044998D01*
X141570000Y-118070000D01*
X142070000Y-118070000D01*
X142070000Y-119044999D01*
X142207472Y-119044999D01*
X142207486Y-119044998D01*
X142310197Y-119034505D01*
X142476619Y-118979358D01*
X142476624Y-118979356D01*
X142625845Y-118887315D01*
X142749815Y-118763345D01*
X142841856Y-118614124D01*
X142841858Y-118614119D01*
X142897005Y-118447697D01*
X142897006Y-118447690D01*
X142907499Y-118344986D01*
X142907500Y-118344973D01*
X142907500Y-118070000D01*
X142070000Y-118070000D01*
X141570000Y-118070000D01*
X141570000Y-116595000D01*
X142070000Y-116595000D01*
X142070000Y-117570000D01*
X142907499Y-117570000D01*
X142907499Y-117295028D01*
X142907498Y-117295013D01*
X142897005Y-117192302D01*
X142841858Y-117025880D01*
X142841856Y-117025875D01*
X142749815Y-116876654D01*
X142625845Y-116752684D01*
X142476624Y-116660643D01*
X142476619Y-116660641D01*
X142310197Y-116605494D01*
X142310190Y-116605493D01*
X142207486Y-116595000D01*
X142070000Y-116595000D01*
X141570000Y-116595000D01*
X141432527Y-116595000D01*
X141432512Y-116595001D01*
X141329802Y-116605494D01*
X141163380Y-116660641D01*
X141163375Y-116660643D01*
X141014154Y-116752684D01*
X140890183Y-116876655D01*
X140890179Y-116876660D01*
X140888326Y-116879665D01*
X140886518Y-116881290D01*
X140885702Y-116882323D01*
X140885525Y-116882183D01*
X140836374Y-116926385D01*
X140767411Y-116937601D01*
X140703331Y-116909752D01*
X140677253Y-116879653D01*
X140677237Y-116879628D01*
X140675212Y-116876344D01*
X140551156Y-116752288D01*
X140401834Y-116660186D01*
X140235297Y-116605001D01*
X140235295Y-116605000D01*
X140132510Y-116594500D01*
X139357498Y-116594500D01*
X139357480Y-116594501D01*
X139254703Y-116605000D01*
X139254700Y-116605001D01*
X139088168Y-116660185D01*
X139088163Y-116660187D01*
X138938842Y-116752289D01*
X138814789Y-116876342D01*
X138722687Y-117025663D01*
X138722685Y-117025668D01*
X138722615Y-117025880D01*
X138667501Y-117192203D01*
X138667501Y-117192204D01*
X138667500Y-117192204D01*
X138657000Y-117294983D01*
X138657000Y-118345001D01*
X138097497Y-118345001D01*
X138097499Y-118344986D01*
X138097500Y-118344973D01*
X138097500Y-118070000D01*
X137260000Y-118070000D01*
X136760000Y-118070000D01*
X136760000Y-116595000D01*
X137260000Y-116595000D01*
X137260000Y-117570000D01*
X138097499Y-117570000D01*
X138097499Y-117295028D01*
X138097498Y-117295013D01*
X138087005Y-117192302D01*
X138031858Y-117025880D01*
X138031856Y-117025875D01*
X137939815Y-116876654D01*
X137815845Y-116752684D01*
X137666624Y-116660643D01*
X137666619Y-116660641D01*
X137500197Y-116605494D01*
X137500190Y-116605493D01*
X137397486Y-116595000D01*
X137260000Y-116595000D01*
X136760000Y-116595000D01*
X136622527Y-116595000D01*
X136622512Y-116595001D01*
X136519802Y-116605494D01*
X136353380Y-116660641D01*
X136353375Y-116660643D01*
X136204154Y-116752684D01*
X136080183Y-116876655D01*
X136080179Y-116876660D01*
X136078326Y-116879665D01*
X136076518Y-116881290D01*
X136075702Y-116882323D01*
X136075525Y-116882183D01*
X136026374Y-116926385D01*
X135957411Y-116937601D01*
X135893331Y-116909752D01*
X135867253Y-116879653D01*
X135867237Y-116879628D01*
X135865212Y-116876344D01*
X135741156Y-116752288D01*
X135591834Y-116660186D01*
X135425297Y-116605001D01*
X135425295Y-116605000D01*
X135322510Y-116594500D01*
X134547498Y-116594500D01*
X134547480Y-116594501D01*
X134444703Y-116605000D01*
X134444700Y-116605001D01*
X134278168Y-116660185D01*
X134278163Y-116660187D01*
X134128842Y-116752289D01*
X134004789Y-116876342D01*
X133912687Y-117025663D01*
X133912685Y-117025668D01*
X133912615Y-117025880D01*
X133857501Y-117192203D01*
X133857501Y-117192204D01*
X133857500Y-117192204D01*
X133847000Y-117294983D01*
X133847000Y-118345001D01*
X133287497Y-118345001D01*
X133287499Y-118344986D01*
X133287500Y-118344973D01*
X133287500Y-118070000D01*
X132450000Y-118070000D01*
X131950000Y-118070000D01*
X131950000Y-116595000D01*
X132450000Y-116595000D01*
X132450000Y-117570000D01*
X133287499Y-117570000D01*
X133287499Y-117295028D01*
X133287498Y-117295013D01*
X133277005Y-117192302D01*
X133221858Y-117025880D01*
X133221856Y-117025875D01*
X133129815Y-116876654D01*
X133005845Y-116752684D01*
X132856624Y-116660643D01*
X132856619Y-116660641D01*
X132690197Y-116605494D01*
X132690190Y-116605493D01*
X132587486Y-116595000D01*
X132450000Y-116595000D01*
X131950000Y-116595000D01*
X131812527Y-116595000D01*
X131812512Y-116595001D01*
X131709802Y-116605494D01*
X131543380Y-116660641D01*
X131543375Y-116660643D01*
X131394154Y-116752684D01*
X131270183Y-116876655D01*
X131270179Y-116876660D01*
X131268326Y-116879665D01*
X131266518Y-116881290D01*
X131265702Y-116882323D01*
X131265525Y-116882183D01*
X131216374Y-116926385D01*
X131147411Y-116937601D01*
X131083331Y-116909752D01*
X131057253Y-116879653D01*
X131057237Y-116879628D01*
X131055212Y-116876344D01*
X130931156Y-116752288D01*
X130781834Y-116660186D01*
X130615297Y-116605001D01*
X130615295Y-116605000D01*
X130512510Y-116594500D01*
X129737498Y-116594500D01*
X129737480Y-116594501D01*
X129634703Y-116605000D01*
X129634700Y-116605001D01*
X129468168Y-116660185D01*
X129468163Y-116660187D01*
X129318842Y-116752289D01*
X129194789Y-116876342D01*
X129102687Y-117025663D01*
X129102685Y-117025668D01*
X129102615Y-117025880D01*
X129047501Y-117192203D01*
X129047501Y-117192204D01*
X129047500Y-117192204D01*
X129037000Y-117294983D01*
X129037000Y-118345001D01*
X124972999Y-118345001D01*
X124972999Y-118297128D01*
X124966591Y-118237517D01*
X124916296Y-118102669D01*
X124916295Y-118102668D01*
X124916293Y-118102664D01*
X124830047Y-117987455D01*
X124830044Y-117987452D01*
X124714835Y-117901206D01*
X124714828Y-117901202D01*
X124579986Y-117850910D01*
X124579985Y-117850909D01*
X124579983Y-117850909D01*
X124520373Y-117844500D01*
X124520363Y-117844500D01*
X123794629Y-117844500D01*
X123794623Y-117844501D01*
X123735016Y-117850908D01*
X123677981Y-117872182D01*
X123634648Y-117880000D01*
X122572500Y-117880000D01*
X122572500Y-122420000D01*
X122072500Y-122420000D01*
X122072500Y-117880000D01*
X121010352Y-117880000D01*
X120967019Y-117872182D01*
X120909986Y-117850910D01*
X120909985Y-117850909D01*
X120909983Y-117850909D01*
X120850373Y-117844500D01*
X120850363Y-117844500D01*
X120124629Y-117844500D01*
X120124623Y-117844501D01*
X120065016Y-117850908D01*
X119930171Y-117901202D01*
X119930164Y-117901206D01*
X119814955Y-117987452D01*
X119814952Y-117987455D01*
X119728706Y-118102664D01*
X119728702Y-118102671D01*
X119678410Y-118237513D01*
X119678409Y-118237517D01*
X119672000Y-118297127D01*
X119672000Y-118297134D01*
X119672000Y-118297135D01*
X119672000Y-118752870D01*
X119672001Y-118752874D01*
X119678409Y-118812484D01*
X119680192Y-118820028D01*
X119677249Y-118820723D01*
X119681219Y-118876381D01*
X119680167Y-118879961D01*
X119680193Y-118879968D01*
X119678408Y-118887520D01*
X119674233Y-118926358D01*
X119672001Y-118947123D01*
X119672000Y-118947136D01*
X119672000Y-119402870D01*
X119672001Y-119402874D01*
X119678409Y-119462484D01*
X119680192Y-119470028D01*
X119677249Y-119470723D01*
X119681219Y-119526381D01*
X119680167Y-119529961D01*
X119680193Y-119529968D01*
X119678408Y-119537520D01*
X119677815Y-119543039D01*
X119672001Y-119597123D01*
X119672000Y-119597136D01*
X119672000Y-120052870D01*
X119672001Y-120052874D01*
X119678409Y-120112484D01*
X119680192Y-120120028D01*
X119677249Y-120120723D01*
X119681219Y-120176381D01*
X119680167Y-120179961D01*
X119680193Y-120179968D01*
X119678408Y-120187520D01*
X119672001Y-120247117D01*
X119672000Y-120247136D01*
X119672000Y-120702870D01*
X119672001Y-120702874D01*
X119678409Y-120762484D01*
X119680192Y-120770028D01*
X119677249Y-120770723D01*
X119681219Y-120826381D01*
X119680167Y-120829961D01*
X119680193Y-120829968D01*
X119678408Y-120837520D01*
X119672001Y-120897117D01*
X119672001Y-120897123D01*
X119672000Y-120897136D01*
X119672000Y-121352870D01*
X119672001Y-121352874D01*
X119678409Y-121412484D01*
X119680192Y-121420028D01*
X119677249Y-121420723D01*
X119681219Y-121476381D01*
X119680167Y-121479961D01*
X119680193Y-121479968D01*
X119678408Y-121487520D01*
X119676034Y-121509603D01*
X119672001Y-121547123D01*
X119672000Y-121547136D01*
X119672000Y-122002870D01*
X109220500Y-122002870D01*
X109220500Y-120650001D01*
X114780204Y-120650001D01*
X114780399Y-120652486D01*
X114826218Y-120810198D01*
X114909814Y-120951552D01*
X114909821Y-120951561D01*
X115025938Y-121067678D01*
X115025947Y-121067685D01*
X115167303Y-121151282D01*
X115167306Y-121151283D01*
X115325004Y-121197099D01*
X115325010Y-121197100D01*
X115361856Y-121200000D01*
X115765000Y-121200000D01*
X115765000Y-120650000D01*
X116265000Y-120650000D01*
X116265000Y-121200000D01*
X116668144Y-121200000D01*
X116704989Y-121197100D01*
X116704995Y-121197099D01*
X116862693Y-121151283D01*
X116862696Y-121151282D01*
X117004052Y-121067685D01*
X117004061Y-121067678D01*
X117120178Y-120951561D01*
X117120185Y-120951552D01*
X117203781Y-120810198D01*
X117249600Y-120652486D01*
X117249795Y-120650001D01*
X117249795Y-120650000D01*
X116265000Y-120650000D01*
X115765000Y-120650000D01*
X114780205Y-120650000D01*
X114780204Y-120650001D01*
X109220500Y-120650001D01*
X109220500Y-120149998D01*
X114780204Y-120149998D01*
X114780205Y-120150000D01*
X115765000Y-120150000D01*
X115765000Y-119600000D01*
X115361856Y-119600000D01*
X115325010Y-119602899D01*
X115325004Y-119602900D01*
X115167306Y-119648716D01*
X115167303Y-119648717D01*
X115025947Y-119732314D01*
X115025938Y-119732321D01*
X114909821Y-119848438D01*
X114909814Y-119848447D01*
X114826218Y-119989801D01*
X114780399Y-120147513D01*
X114780204Y-120149998D01*
X109220500Y-120149998D01*
X109220500Y-118715696D01*
X114777000Y-118715696D01*
X114779901Y-118752567D01*
X114779902Y-118752573D01*
X114825754Y-118910393D01*
X114825755Y-118910396D01*
X114825756Y-118910398D01*
X114847475Y-118947123D01*
X114909417Y-119051862D01*
X114909423Y-119051870D01*
X115025629Y-119168076D01*
X115025633Y-119168079D01*
X115025635Y-119168081D01*
X115167102Y-119251744D01*
X115208724Y-119263836D01*
X115324926Y-119297597D01*
X115324929Y-119297597D01*
X115324931Y-119297598D01*
X115337222Y-119298565D01*
X115361804Y-119300500D01*
X115361806Y-119300500D01*
X116528000Y-119300500D01*
X116595039Y-119320185D01*
X116640794Y-119372989D01*
X116652000Y-119424500D01*
X116652000Y-119476000D01*
X116632315Y-119543039D01*
X116579511Y-119588794D01*
X116528000Y-119600000D01*
X116265000Y-119600000D01*
X116265000Y-120150000D01*
X116920685Y-120150000D01*
X116983806Y-120167268D01*
X117042102Y-120201744D01*
X117044023Y-120202302D01*
X117199926Y-120247597D01*
X117199929Y-120247597D01*
X117199931Y-120247598D01*
X117212222Y-120248565D01*
X117236804Y-120250500D01*
X117236806Y-120250500D01*
X118543196Y-120250500D01*
X118561631Y-120249049D01*
X118580069Y-120247598D01*
X118580071Y-120247597D01*
X118580073Y-120247597D01*
X118621691Y-120235505D01*
X118737898Y-120201744D01*
X118879365Y-120118081D01*
X118995581Y-120001865D01*
X119079244Y-119860398D01*
X119125098Y-119702569D01*
X119127611Y-119670641D01*
X119128000Y-119665696D01*
X119128000Y-119234304D01*
X119125098Y-119197432D01*
X119125097Y-119197426D01*
X119082806Y-119051862D01*
X119079244Y-119039602D01*
X118995581Y-118898135D01*
X118995579Y-118898133D01*
X118995576Y-118898129D01*
X118879370Y-118781923D01*
X118879362Y-118781917D01*
X118791970Y-118730234D01*
X118737898Y-118698256D01*
X118737897Y-118698255D01*
X118737896Y-118698255D01*
X118737893Y-118698254D01*
X118580073Y-118652402D01*
X118580067Y-118652401D01*
X118543196Y-118649500D01*
X118543194Y-118649500D01*
X117377000Y-118649500D01*
X117309961Y-118629815D01*
X117264206Y-118577011D01*
X117253000Y-118525500D01*
X117253000Y-118284304D01*
X117250098Y-118247432D01*
X117250097Y-118247426D01*
X117204245Y-118089606D01*
X117204244Y-118089603D01*
X117204244Y-118089602D01*
X117120581Y-117948135D01*
X117120579Y-117948133D01*
X117120576Y-117948129D01*
X117004370Y-117831923D01*
X117004362Y-117831917D01*
X116862896Y-117748255D01*
X116862893Y-117748254D01*
X116705073Y-117702402D01*
X116705067Y-117702401D01*
X116668196Y-117699500D01*
X116668194Y-117699500D01*
X115361806Y-117699500D01*
X115361804Y-117699500D01*
X115324932Y-117702401D01*
X115324926Y-117702402D01*
X115167106Y-117748254D01*
X115167103Y-117748255D01*
X115025637Y-117831917D01*
X115025629Y-117831923D01*
X114909423Y-117948129D01*
X114909417Y-117948137D01*
X114825755Y-118089603D01*
X114825754Y-118089606D01*
X114779902Y-118247426D01*
X114779901Y-118247432D01*
X114777000Y-118284304D01*
X114777000Y-118715696D01*
X109220500Y-118715696D01*
X109220500Y-116200001D01*
X114780204Y-116200001D01*
X114780399Y-116202486D01*
X114826218Y-116360198D01*
X114909814Y-116501552D01*
X114909821Y-116501561D01*
X115025938Y-116617678D01*
X115025947Y-116617685D01*
X115167303Y-116701282D01*
X115167306Y-116701283D01*
X115325004Y-116747099D01*
X115325010Y-116747100D01*
X115361856Y-116750000D01*
X115765000Y-116750000D01*
X115765000Y-116200000D01*
X116265000Y-116200000D01*
X116265000Y-116750000D01*
X116668144Y-116750000D01*
X116704989Y-116747100D01*
X116704995Y-116747099D01*
X116862693Y-116701283D01*
X116862696Y-116701282D01*
X117004052Y-116617685D01*
X117004061Y-116617678D01*
X117120178Y-116501561D01*
X117120185Y-116501552D01*
X117203781Y-116360198D01*
X117249600Y-116202486D01*
X117249795Y-116200001D01*
X117249795Y-116200000D01*
X116265000Y-116200000D01*
X115765000Y-116200000D01*
X114780205Y-116200000D01*
X114780204Y-116200001D01*
X109220500Y-116200001D01*
X109220500Y-115699998D01*
X114780204Y-115699998D01*
X114780205Y-115700000D01*
X115765000Y-115700000D01*
X115765000Y-115150000D01*
X115361856Y-115150000D01*
X115325010Y-115152899D01*
X115325004Y-115152900D01*
X115167306Y-115198716D01*
X115167303Y-115198717D01*
X115025947Y-115282314D01*
X115025938Y-115282321D01*
X114909821Y-115398438D01*
X114909814Y-115398447D01*
X114826218Y-115539801D01*
X114780399Y-115697513D01*
X114780204Y-115699998D01*
X109220500Y-115699998D01*
X109220500Y-114265696D01*
X114777000Y-114265696D01*
X114779901Y-114302567D01*
X114779902Y-114302573D01*
X114825754Y-114460393D01*
X114825755Y-114460396D01*
X114909417Y-114601862D01*
X114909423Y-114601870D01*
X115025629Y-114718076D01*
X115025633Y-114718079D01*
X115025635Y-114718081D01*
X115167102Y-114801744D01*
X115208724Y-114813836D01*
X115324926Y-114847597D01*
X115324929Y-114847597D01*
X115324931Y-114847598D01*
X115337222Y-114848565D01*
X115361804Y-114850500D01*
X115361806Y-114850500D01*
X116528000Y-114850500D01*
X116595039Y-114870185D01*
X116640794Y-114922989D01*
X116652000Y-114974500D01*
X116652000Y-115026000D01*
X116632315Y-115093039D01*
X116579511Y-115138794D01*
X116528000Y-115150000D01*
X116265000Y-115150000D01*
X116265000Y-115700000D01*
X116920685Y-115700000D01*
X116983806Y-115717268D01*
X117042102Y-115751744D01*
X117067514Y-115759127D01*
X117199926Y-115797597D01*
X117199929Y-115797597D01*
X117199931Y-115797598D01*
X117212222Y-115798565D01*
X117236804Y-115800500D01*
X117236806Y-115800500D01*
X118543196Y-115800500D01*
X118561631Y-115799049D01*
X118580069Y-115797598D01*
X118580071Y-115797597D01*
X118580073Y-115797597D01*
X118621691Y-115785505D01*
X118737898Y-115751744D01*
X118879365Y-115668081D01*
X118995581Y-115551865D01*
X119079244Y-115410398D01*
X119118436Y-115275499D01*
X119125097Y-115252573D01*
X119125098Y-115252567D01*
X119128000Y-115215696D01*
X119128000Y-114822870D01*
X119397000Y-114822870D01*
X119397001Y-114822876D01*
X119403408Y-114882483D01*
X119453702Y-115017328D01*
X119453706Y-115017335D01*
X119539952Y-115132544D01*
X119539955Y-115132547D01*
X119655164Y-115218793D01*
X119655171Y-115218797D01*
X119790017Y-115269091D01*
X119790016Y-115269091D01*
X119796944Y-115269835D01*
X119849627Y-115275500D01*
X120422582Y-115275499D01*
X120489621Y-115295183D01*
X120535376Y-115347987D01*
X120545320Y-115417146D01*
X120534964Y-115451903D01*
X120467927Y-115595663D01*
X120467922Y-115595677D01*
X120411293Y-115807020D01*
X120411293Y-115807024D01*
X120392223Y-116024997D01*
X120392223Y-116025002D01*
X120411293Y-116242975D01*
X120411293Y-116242979D01*
X120467922Y-116454322D01*
X120467924Y-116454326D01*
X120467925Y-116454330D01*
X120493517Y-116509212D01*
X120560397Y-116652638D01*
X120565682Y-116660185D01*
X120685902Y-116831877D01*
X120840623Y-116986598D01*
X121019861Y-117112102D01*
X121218170Y-117204575D01*
X121429523Y-117261207D01*
X121612426Y-117277208D01*
X121647498Y-117280277D01*
X121647500Y-117280277D01*
X121647502Y-117280277D01*
X121675754Y-117277805D01*
X121865477Y-117261207D01*
X122076830Y-117204575D01*
X122275139Y-117112102D01*
X122454377Y-116986598D01*
X122609098Y-116831877D01*
X122734602Y-116652639D01*
X122785037Y-116544479D01*
X122809733Y-116509212D01*
X123249545Y-116069399D01*
X123262335Y-116150148D01*
X123319859Y-116263045D01*
X123409455Y-116352641D01*
X123522352Y-116410165D01*
X123603099Y-116422953D01*
X122957926Y-117068124D01*
X123020111Y-117111666D01*
X123020113Y-117111667D01*
X123218340Y-117204101D01*
X123218349Y-117204105D01*
X123429605Y-117260710D01*
X123429615Y-117260712D01*
X123647499Y-117279775D01*
X123647501Y-117279775D01*
X123865384Y-117260712D01*
X123865394Y-117260710D01*
X124076650Y-117204105D01*
X124076659Y-117204101D01*
X124274887Y-117111666D01*
X124337072Y-117068124D01*
X123691901Y-116422953D01*
X123772648Y-116410165D01*
X123885545Y-116352641D01*
X123975141Y-116263045D01*
X124032665Y-116150148D01*
X124045453Y-116069400D01*
X124485264Y-116509211D01*
X124509965Y-116544487D01*
X124560396Y-116652636D01*
X124560397Y-116652638D01*
X124560398Y-116652639D01*
X124685902Y-116831877D01*
X124840623Y-116986598D01*
X125019861Y-117112102D01*
X125218170Y-117204575D01*
X125429523Y-117261207D01*
X125612426Y-117277208D01*
X125647498Y-117280277D01*
X125647500Y-117280277D01*
X125647502Y-117280277D01*
X125675754Y-117277805D01*
X125865477Y-117261207D01*
X126076830Y-117204575D01*
X126275139Y-117112102D01*
X126454377Y-116986598D01*
X126609098Y-116831877D01*
X126734602Y-116652639D01*
X126827075Y-116454330D01*
X126883707Y-116242977D01*
X126900305Y-116053254D01*
X126902777Y-116025002D01*
X126902777Y-116024997D01*
X126889891Y-115877712D01*
X126883707Y-115807023D01*
X126827075Y-115595670D01*
X126734602Y-115397362D01*
X126734600Y-115397359D01*
X126734599Y-115397357D01*
X126690937Y-115335001D01*
X129037000Y-115335001D01*
X129037001Y-115335019D01*
X129047500Y-115437796D01*
X129047501Y-115437799D01*
X129052175Y-115451903D01*
X129102686Y-115604334D01*
X129194788Y-115753656D01*
X129318844Y-115877712D01*
X129468166Y-115969814D01*
X129634703Y-116024999D01*
X129737491Y-116035500D01*
X130512508Y-116035499D01*
X130512516Y-116035498D01*
X130512519Y-116035498D01*
X130568802Y-116029748D01*
X130615297Y-116024999D01*
X130781834Y-115969814D01*
X130931156Y-115877712D01*
X131055212Y-115753656D01*
X131057252Y-115750347D01*
X131059245Y-115748555D01*
X131059693Y-115747989D01*
X131059789Y-115748065D01*
X131109194Y-115703623D01*
X131178156Y-115692395D01*
X131242240Y-115720234D01*
X131268329Y-115750339D01*
X131270181Y-115753341D01*
X131270183Y-115753344D01*
X131394154Y-115877315D01*
X131543375Y-115969356D01*
X131543380Y-115969358D01*
X131709802Y-116024505D01*
X131709809Y-116024506D01*
X131812519Y-116034999D01*
X131949999Y-116034999D01*
X131950000Y-116034998D01*
X131950000Y-115060000D01*
X132450000Y-115060000D01*
X132450000Y-116034999D01*
X132587472Y-116034999D01*
X132587486Y-116034998D01*
X132690197Y-116024505D01*
X132856619Y-115969358D01*
X132856624Y-115969356D01*
X133005845Y-115877315D01*
X133129815Y-115753345D01*
X133221856Y-115604124D01*
X133221858Y-115604119D01*
X133277005Y-115437697D01*
X133277006Y-115437690D01*
X133287497Y-115335001D01*
X133847000Y-115335001D01*
X133847001Y-115335019D01*
X133857500Y-115437796D01*
X133857501Y-115437799D01*
X133862175Y-115451903D01*
X133912686Y-115604334D01*
X134004788Y-115753656D01*
X134128844Y-115877712D01*
X134278166Y-115969814D01*
X134444703Y-116024999D01*
X134547491Y-116035500D01*
X135322508Y-116035499D01*
X135322516Y-116035498D01*
X135322519Y-116035498D01*
X135378802Y-116029748D01*
X135425297Y-116024999D01*
X135591834Y-115969814D01*
X135741156Y-115877712D01*
X135865212Y-115753656D01*
X135867252Y-115750347D01*
X135869245Y-115748555D01*
X135869693Y-115747989D01*
X135869789Y-115748065D01*
X135919194Y-115703623D01*
X135988156Y-115692395D01*
X136052240Y-115720234D01*
X136078329Y-115750339D01*
X136080181Y-115753341D01*
X136080183Y-115753344D01*
X136204154Y-115877315D01*
X136353375Y-115969356D01*
X136353380Y-115969358D01*
X136519802Y-116024505D01*
X136519809Y-116024506D01*
X136622519Y-116034999D01*
X136759999Y-116034999D01*
X136760000Y-116034998D01*
X136760000Y-115060000D01*
X137260000Y-115060000D01*
X137260000Y-116034999D01*
X137397472Y-116034999D01*
X137397486Y-116034998D01*
X137500197Y-116024505D01*
X137666619Y-115969358D01*
X137666624Y-115969356D01*
X137815845Y-115877315D01*
X137939815Y-115753345D01*
X138031856Y-115604124D01*
X138031858Y-115604119D01*
X138087005Y-115437697D01*
X138087006Y-115437690D01*
X138097497Y-115335001D01*
X138657000Y-115335001D01*
X138657001Y-115335019D01*
X138667500Y-115437796D01*
X138667501Y-115437799D01*
X138672175Y-115451903D01*
X138722686Y-115604334D01*
X138814788Y-115753656D01*
X138938844Y-115877712D01*
X139088166Y-115969814D01*
X139254703Y-116024999D01*
X139357491Y-116035500D01*
X140132508Y-116035499D01*
X140132516Y-116035498D01*
X140132519Y-116035498D01*
X140188802Y-116029748D01*
X140235297Y-116024999D01*
X140401834Y-115969814D01*
X140551156Y-115877712D01*
X140675212Y-115753656D01*
X140677252Y-115750347D01*
X140679245Y-115748555D01*
X140679693Y-115747989D01*
X140679789Y-115748065D01*
X140729194Y-115703623D01*
X140798156Y-115692395D01*
X140862240Y-115720234D01*
X140888329Y-115750339D01*
X140890181Y-115753341D01*
X140890183Y-115753344D01*
X141014154Y-115877315D01*
X141163375Y-115969356D01*
X141163380Y-115969358D01*
X141329802Y-116024505D01*
X141329809Y-116024506D01*
X141432519Y-116034999D01*
X141569999Y-116034999D01*
X141570000Y-116034998D01*
X141570000Y-115060000D01*
X142070000Y-115060000D01*
X142070000Y-116034999D01*
X142207472Y-116034999D01*
X142207486Y-116034998D01*
X142310197Y-116024505D01*
X142476619Y-115969358D01*
X142476624Y-115969356D01*
X142625845Y-115877315D01*
X142749815Y-115753345D01*
X142841856Y-115604124D01*
X142841858Y-115604119D01*
X142897005Y-115437697D01*
X142897006Y-115437690D01*
X142907499Y-115334986D01*
X142907500Y-115334973D01*
X142907500Y-115060000D01*
X142070000Y-115060000D01*
X141570000Y-115060000D01*
X141570000Y-113585000D01*
X142070000Y-113585000D01*
X142070000Y-114560000D01*
X142907499Y-114560000D01*
X142907499Y-114550000D01*
X144685000Y-114550000D01*
X144685000Y-114672844D01*
X144691401Y-114732372D01*
X144691403Y-114732379D01*
X144741645Y-114867086D01*
X144741649Y-114867093D01*
X144827809Y-114982187D01*
X144827812Y-114982190D01*
X144942906Y-115068350D01*
X144942913Y-115068354D01*
X145077620Y-115118596D01*
X145077627Y-115118598D01*
X145137155Y-115124999D01*
X145137172Y-115125000D01*
X145460000Y-115125000D01*
X145460000Y-114550000D01*
X145960000Y-114550000D01*
X145960000Y-115125000D01*
X146282828Y-115125000D01*
X146282844Y-115124999D01*
X146342372Y-115118598D01*
X146342379Y-115118596D01*
X146477086Y-115068354D01*
X146477093Y-115068350D01*
X146592187Y-114982190D01*
X146592190Y-114982187D01*
X146678350Y-114867093D01*
X146678354Y-114867086D01*
X146728596Y-114732379D01*
X146728598Y-114732372D01*
X146734999Y-114672844D01*
X146735000Y-114672827D01*
X146735000Y-114550000D01*
X148835000Y-114550000D01*
X148835000Y-114672844D01*
X148841401Y-114732372D01*
X148841403Y-114732379D01*
X148891645Y-114867086D01*
X148891649Y-114867093D01*
X148977809Y-114982187D01*
X148977812Y-114982190D01*
X149092906Y-115068350D01*
X149092913Y-115068354D01*
X149227620Y-115118596D01*
X149227627Y-115118598D01*
X149287155Y-115124999D01*
X149287172Y-115125000D01*
X149610000Y-115125000D01*
X149610000Y-114550000D01*
X150110000Y-114550000D01*
X150110000Y-115125000D01*
X150432828Y-115125000D01*
X150432844Y-115124999D01*
X150492372Y-115118598D01*
X150492379Y-115118596D01*
X150627086Y-115068354D01*
X150627093Y-115068350D01*
X150742187Y-114982190D01*
X150742190Y-114982187D01*
X150828350Y-114867093D01*
X150828354Y-114867086D01*
X150878596Y-114732379D01*
X150878598Y-114732372D01*
X150884999Y-114672844D01*
X150885000Y-114672827D01*
X150885000Y-114550000D01*
X150110000Y-114550000D01*
X149610000Y-114550000D01*
X148835000Y-114550000D01*
X146735000Y-114550000D01*
X145960000Y-114550000D01*
X145460000Y-114550000D01*
X144685000Y-114550000D01*
X142907499Y-114550000D01*
X142907499Y-114285028D01*
X142907498Y-114285013D01*
X142897005Y-114182302D01*
X142853164Y-114050000D01*
X144685000Y-114050000D01*
X145460000Y-114050000D01*
X145460000Y-113475000D01*
X145960000Y-113475000D01*
X145960000Y-114050000D01*
X146735000Y-114050000D01*
X148835000Y-114050000D01*
X149610000Y-114050000D01*
X149610000Y-113475000D01*
X150110000Y-113475000D01*
X150110000Y-114050000D01*
X150885000Y-114050000D01*
X150885000Y-113927172D01*
X150884999Y-113927155D01*
X150878598Y-113867627D01*
X150878596Y-113867620D01*
X150828354Y-113732913D01*
X150828350Y-113732906D01*
X150742190Y-113617812D01*
X150742187Y-113617809D01*
X150627093Y-113531649D01*
X150627086Y-113531645D01*
X150492379Y-113481403D01*
X150492372Y-113481401D01*
X150432844Y-113475000D01*
X150110000Y-113475000D01*
X149610000Y-113475000D01*
X149287155Y-113475000D01*
X149227627Y-113481401D01*
X149227620Y-113481403D01*
X149092913Y-113531645D01*
X149092906Y-113531649D01*
X148977812Y-113617809D01*
X148977809Y-113617812D01*
X148891649Y-113732906D01*
X148891645Y-113732913D01*
X148841403Y-113867620D01*
X148841401Y-113867627D01*
X148835000Y-113927155D01*
X148835000Y-114050000D01*
X146735000Y-114050000D01*
X146735000Y-113927172D01*
X146734999Y-113927155D01*
X146728598Y-113867627D01*
X146728596Y-113867620D01*
X146678354Y-113732913D01*
X146678350Y-113732906D01*
X146592190Y-113617812D01*
X146592187Y-113617809D01*
X146477093Y-113531649D01*
X146477086Y-113531645D01*
X146342379Y-113481403D01*
X146342372Y-113481401D01*
X146282844Y-113475000D01*
X145960000Y-113475000D01*
X145460000Y-113475000D01*
X145137155Y-113475000D01*
X145077627Y-113481401D01*
X145077620Y-113481403D01*
X144942913Y-113531645D01*
X144942906Y-113531649D01*
X144827812Y-113617809D01*
X144827809Y-113617812D01*
X144741649Y-113732906D01*
X144741645Y-113732913D01*
X144691403Y-113867620D01*
X144691401Y-113867627D01*
X144685000Y-113927155D01*
X144685000Y-114050000D01*
X142853164Y-114050000D01*
X142841858Y-114015880D01*
X142841856Y-114015875D01*
X142749815Y-113866654D01*
X142625845Y-113742684D01*
X142476624Y-113650643D01*
X142476619Y-113650641D01*
X142310197Y-113595494D01*
X142310190Y-113595493D01*
X142207486Y-113585000D01*
X142070000Y-113585000D01*
X141570000Y-113585000D01*
X141432527Y-113585000D01*
X141432512Y-113585001D01*
X141329802Y-113595494D01*
X141163380Y-113650641D01*
X141163375Y-113650643D01*
X141014154Y-113742684D01*
X140890183Y-113866655D01*
X140890179Y-113866660D01*
X140888326Y-113869665D01*
X140886518Y-113871290D01*
X140885702Y-113872323D01*
X140885525Y-113872183D01*
X140836374Y-113916385D01*
X140767411Y-113927601D01*
X140703331Y-113899752D01*
X140677253Y-113869653D01*
X140675999Y-113867620D01*
X140675212Y-113866344D01*
X140551156Y-113742288D01*
X140401834Y-113650186D01*
X140235297Y-113595001D01*
X140235295Y-113595000D01*
X140132510Y-113584500D01*
X139357498Y-113584500D01*
X139357480Y-113584501D01*
X139254703Y-113595000D01*
X139254700Y-113595001D01*
X139088168Y-113650185D01*
X139088163Y-113650187D01*
X138938842Y-113742289D01*
X138814789Y-113866342D01*
X138722687Y-114015663D01*
X138722685Y-114015668D01*
X138722615Y-114015880D01*
X138667501Y-114182203D01*
X138667501Y-114182204D01*
X138667500Y-114182204D01*
X138657000Y-114284983D01*
X138657000Y-115335001D01*
X138097497Y-115335001D01*
X138097499Y-115334986D01*
X138097500Y-115334973D01*
X138097500Y-115060000D01*
X137260000Y-115060000D01*
X136760000Y-115060000D01*
X136760000Y-113585000D01*
X137260000Y-113585000D01*
X137260000Y-114560000D01*
X138097499Y-114560000D01*
X138097499Y-114285028D01*
X138097498Y-114285013D01*
X138087005Y-114182302D01*
X138031858Y-114015880D01*
X138031856Y-114015875D01*
X137939815Y-113866654D01*
X137815845Y-113742684D01*
X137666624Y-113650643D01*
X137666619Y-113650641D01*
X137500197Y-113595494D01*
X137500190Y-113595493D01*
X137397486Y-113585000D01*
X137260000Y-113585000D01*
X136760000Y-113585000D01*
X136622527Y-113585000D01*
X136622512Y-113585001D01*
X136519802Y-113595494D01*
X136353380Y-113650641D01*
X136353375Y-113650643D01*
X136204154Y-113742684D01*
X136080183Y-113866655D01*
X136080179Y-113866660D01*
X136078326Y-113869665D01*
X136076518Y-113871290D01*
X136075702Y-113872323D01*
X136075525Y-113872183D01*
X136026374Y-113916385D01*
X135957411Y-113927601D01*
X135893331Y-113899752D01*
X135867253Y-113869653D01*
X135865999Y-113867620D01*
X135865212Y-113866344D01*
X135741156Y-113742288D01*
X135591834Y-113650186D01*
X135425297Y-113595001D01*
X135425295Y-113595000D01*
X135322510Y-113584500D01*
X134547498Y-113584500D01*
X134547480Y-113584501D01*
X134444703Y-113595000D01*
X134444700Y-113595001D01*
X134278168Y-113650185D01*
X134278163Y-113650187D01*
X134128842Y-113742289D01*
X134004789Y-113866342D01*
X133912687Y-114015663D01*
X133912685Y-114015668D01*
X133912615Y-114015880D01*
X133857501Y-114182203D01*
X133857501Y-114182204D01*
X133857500Y-114182204D01*
X133847000Y-114284983D01*
X133847000Y-115335001D01*
X133287497Y-115335001D01*
X133287499Y-115334986D01*
X133287500Y-115334973D01*
X133287500Y-115060000D01*
X132450000Y-115060000D01*
X131950000Y-115060000D01*
X131950000Y-113585000D01*
X132450000Y-113585000D01*
X132450000Y-114560000D01*
X133287499Y-114560000D01*
X133287499Y-114285028D01*
X133287498Y-114285013D01*
X133277005Y-114182302D01*
X133221858Y-114015880D01*
X133221856Y-114015875D01*
X133129815Y-113866654D01*
X133005845Y-113742684D01*
X132856624Y-113650643D01*
X132856619Y-113650641D01*
X132690197Y-113595494D01*
X132690190Y-113595493D01*
X132587486Y-113585000D01*
X132450000Y-113585000D01*
X131950000Y-113585000D01*
X131812527Y-113585000D01*
X131812512Y-113585001D01*
X131709802Y-113595494D01*
X131543380Y-113650641D01*
X131543375Y-113650643D01*
X131394154Y-113742684D01*
X131270183Y-113866655D01*
X131270179Y-113866660D01*
X131268326Y-113869665D01*
X131266518Y-113871290D01*
X131265702Y-113872323D01*
X131265525Y-113872183D01*
X131216374Y-113916385D01*
X131147411Y-113927601D01*
X131083331Y-113899752D01*
X131057253Y-113869653D01*
X131055999Y-113867620D01*
X131055212Y-113866344D01*
X130931156Y-113742288D01*
X130781834Y-113650186D01*
X130615297Y-113595001D01*
X130615295Y-113595000D01*
X130512510Y-113584500D01*
X129737498Y-113584500D01*
X129737480Y-113584501D01*
X129634703Y-113595000D01*
X129634700Y-113595001D01*
X129468168Y-113650185D01*
X129468163Y-113650187D01*
X129318842Y-113742289D01*
X129194789Y-113866342D01*
X129102687Y-114015663D01*
X129102685Y-114015668D01*
X129102615Y-114015880D01*
X129047501Y-114182203D01*
X129047501Y-114182204D01*
X129047500Y-114182204D01*
X129037000Y-114284983D01*
X129037000Y-115335001D01*
X126690937Y-115335001D01*
X126609099Y-115218124D01*
X126540975Y-115150000D01*
X126454377Y-115063402D01*
X126275139Y-114937898D01*
X126275140Y-114937898D01*
X126275138Y-114937897D01*
X126156301Y-114882483D01*
X126076830Y-114845425D01*
X126076826Y-114845424D01*
X126076822Y-114845422D01*
X125865482Y-114788794D01*
X125865473Y-114788792D01*
X125855144Y-114787889D01*
X125790076Y-114762435D01*
X125749098Y-114705843D01*
X125745222Y-114636081D01*
X125753569Y-114611962D01*
X125827075Y-114454330D01*
X125883707Y-114242977D01*
X125902777Y-114025000D01*
X125901960Y-114015666D01*
X125894217Y-113927155D01*
X125883707Y-113807023D01*
X125841805Y-113650643D01*
X125827077Y-113595677D01*
X125827076Y-113595676D01*
X125827075Y-113595670D01*
X125734602Y-113397362D01*
X125734600Y-113397359D01*
X125734599Y-113397357D01*
X125609099Y-113218124D01*
X125558492Y-113167517D01*
X125454377Y-113063402D01*
X125301503Y-112956358D01*
X125275138Y-112937897D01*
X125175984Y-112891661D01*
X125076830Y-112845425D01*
X125076826Y-112845424D01*
X125076822Y-112845422D01*
X124865477Y-112788793D01*
X124647502Y-112769723D01*
X124647498Y-112769723D01*
X124519651Y-112780908D01*
X124429523Y-112788793D01*
X124429520Y-112788793D01*
X124218177Y-112845422D01*
X124218168Y-112845426D01*
X124019861Y-112937898D01*
X124019857Y-112937900D01*
X123840624Y-113063400D01*
X123735180Y-113168844D01*
X123673857Y-113202328D01*
X123604165Y-113197344D01*
X123559818Y-113168843D01*
X123454381Y-113063406D01*
X123454377Y-113063402D01*
X123301503Y-112956358D01*
X123275138Y-112937897D01*
X123175984Y-112891661D01*
X123076830Y-112845425D01*
X123076826Y-112845424D01*
X123076822Y-112845422D01*
X122865477Y-112788793D01*
X122647502Y-112769723D01*
X122647498Y-112769723D01*
X122519651Y-112780908D01*
X122429523Y-112788793D01*
X122429520Y-112788793D01*
X122218177Y-112845422D01*
X122218168Y-112845426D01*
X122019863Y-112937897D01*
X122019857Y-112937901D01*
X121954557Y-112983623D01*
X121888351Y-113005950D01*
X121820584Y-112988938D01*
X121784170Y-112956359D01*
X121755046Y-112917454D01*
X121732209Y-112900358D01*
X121639835Y-112831206D01*
X121639828Y-112831202D01*
X121504982Y-112780908D01*
X121504983Y-112780908D01*
X121445383Y-112774501D01*
X121445381Y-112774500D01*
X121445373Y-112774500D01*
X121445364Y-112774500D01*
X119849629Y-112774500D01*
X119849623Y-112774501D01*
X119790016Y-112780908D01*
X119655171Y-112831202D01*
X119655164Y-112831206D01*
X119539955Y-112917452D01*
X119539952Y-112917455D01*
X119453706Y-113032664D01*
X119453702Y-113032671D01*
X119403408Y-113167517D01*
X119397001Y-113227116D01*
X119397000Y-113227135D01*
X119397000Y-114822870D01*
X119128000Y-114822870D01*
X119128000Y-114784304D01*
X119125098Y-114747432D01*
X119125097Y-114747426D01*
X119079245Y-114589606D01*
X119079244Y-114589603D01*
X119079244Y-114589602D01*
X118995581Y-114448135D01*
X118995579Y-114448133D01*
X118995576Y-114448129D01*
X118879370Y-114331923D01*
X118879362Y-114331917D01*
X118800000Y-114284983D01*
X118737898Y-114248256D01*
X118737897Y-114248255D01*
X118737896Y-114248255D01*
X118737893Y-114248254D01*
X118580073Y-114202402D01*
X118580067Y-114202401D01*
X118543196Y-114199500D01*
X118543194Y-114199500D01*
X117377000Y-114199500D01*
X117309961Y-114179815D01*
X117264206Y-114127011D01*
X117253000Y-114075500D01*
X117253000Y-113834304D01*
X117250098Y-113797432D01*
X117250097Y-113797426D01*
X117204245Y-113639606D01*
X117204244Y-113639603D01*
X117204244Y-113639602D01*
X117120581Y-113498135D01*
X117120579Y-113498133D01*
X117120576Y-113498129D01*
X117004370Y-113381923D01*
X117004362Y-113381917D01*
X116862896Y-113298255D01*
X116862893Y-113298254D01*
X116705073Y-113252402D01*
X116705067Y-113252401D01*
X116668196Y-113249500D01*
X116668194Y-113249500D01*
X115361806Y-113249500D01*
X115361804Y-113249500D01*
X115324932Y-113252401D01*
X115324926Y-113252402D01*
X115167106Y-113298254D01*
X115167103Y-113298255D01*
X115025637Y-113381917D01*
X115025629Y-113381923D01*
X114909423Y-113498129D01*
X114909417Y-113498137D01*
X114825755Y-113639603D01*
X114825754Y-113639606D01*
X114779902Y-113797426D01*
X114779901Y-113797432D01*
X114777000Y-113834304D01*
X114777000Y-114265696D01*
X109220500Y-114265696D01*
X109220500Y-112325001D01*
X129037000Y-112325001D01*
X129037001Y-112325019D01*
X129047500Y-112427796D01*
X129047501Y-112427799D01*
X129079003Y-112522864D01*
X129102686Y-112594334D01*
X129194788Y-112743656D01*
X129318844Y-112867712D01*
X129468166Y-112959814D01*
X129634703Y-113014999D01*
X129737491Y-113025500D01*
X130512508Y-113025499D01*
X130512516Y-113025498D01*
X130512519Y-113025498D01*
X130568802Y-113019748D01*
X130615297Y-113014999D01*
X130781834Y-112959814D01*
X130931156Y-112867712D01*
X131055212Y-112743656D01*
X131057252Y-112740347D01*
X131059245Y-112738555D01*
X131059693Y-112737989D01*
X131059789Y-112738065D01*
X131109194Y-112693623D01*
X131178156Y-112682395D01*
X131242240Y-112710234D01*
X131268329Y-112740339D01*
X131270181Y-112743341D01*
X131270183Y-112743344D01*
X131394154Y-112867315D01*
X131543375Y-112959356D01*
X131543380Y-112959358D01*
X131709802Y-113014505D01*
X131709809Y-113014506D01*
X131812519Y-113024999D01*
X131949999Y-113024999D01*
X131950000Y-113024998D01*
X131950000Y-112050000D01*
X132450000Y-112050000D01*
X132450000Y-113024999D01*
X132587472Y-113024999D01*
X132587486Y-113024998D01*
X132690197Y-113014505D01*
X132856619Y-112959358D01*
X132856624Y-112959356D01*
X133005845Y-112867315D01*
X133129815Y-112743345D01*
X133221856Y-112594124D01*
X133221858Y-112594119D01*
X133277005Y-112427697D01*
X133277006Y-112427690D01*
X133287497Y-112325001D01*
X133847000Y-112325001D01*
X133847001Y-112325019D01*
X133857500Y-112427796D01*
X133857501Y-112427799D01*
X133889003Y-112522864D01*
X133912686Y-112594334D01*
X134004788Y-112743656D01*
X134128844Y-112867712D01*
X134278166Y-112959814D01*
X134444703Y-113014999D01*
X134547491Y-113025500D01*
X135322508Y-113025499D01*
X135322516Y-113025498D01*
X135322519Y-113025498D01*
X135378802Y-113019748D01*
X135425297Y-113014999D01*
X135591834Y-112959814D01*
X135741156Y-112867712D01*
X135865212Y-112743656D01*
X135867252Y-112740347D01*
X135869245Y-112738555D01*
X135869693Y-112737989D01*
X135869789Y-112738065D01*
X135919194Y-112693623D01*
X135988156Y-112682395D01*
X136052240Y-112710234D01*
X136078329Y-112740339D01*
X136080181Y-112743341D01*
X136080183Y-112743344D01*
X136204154Y-112867315D01*
X136353375Y-112959356D01*
X136353380Y-112959358D01*
X136519802Y-113014505D01*
X136519809Y-113014506D01*
X136622519Y-113024999D01*
X136759999Y-113024999D01*
X136760000Y-113024998D01*
X136760000Y-112050000D01*
X137260000Y-112050000D01*
X137260000Y-113024999D01*
X137397472Y-113024999D01*
X137397486Y-113024998D01*
X137500197Y-113014505D01*
X137666619Y-112959358D01*
X137666624Y-112959356D01*
X137815845Y-112867315D01*
X137939815Y-112743345D01*
X138031856Y-112594124D01*
X138031858Y-112594119D01*
X138087005Y-112427697D01*
X138087006Y-112427690D01*
X138097497Y-112325001D01*
X138657000Y-112325001D01*
X138657001Y-112325019D01*
X138667500Y-112427796D01*
X138667501Y-112427799D01*
X138699003Y-112522864D01*
X138722686Y-112594334D01*
X138814788Y-112743656D01*
X138938844Y-112867712D01*
X139088166Y-112959814D01*
X139254703Y-113014999D01*
X139357491Y-113025500D01*
X140132508Y-113025499D01*
X140132516Y-113025498D01*
X140132519Y-113025498D01*
X140188802Y-113019748D01*
X140235297Y-113014999D01*
X140401834Y-112959814D01*
X140551156Y-112867712D01*
X140675212Y-112743656D01*
X140677252Y-112740347D01*
X140679245Y-112738555D01*
X140679693Y-112737989D01*
X140679789Y-112738065D01*
X140729194Y-112693623D01*
X140798156Y-112682395D01*
X140862240Y-112710234D01*
X140888329Y-112740339D01*
X140890181Y-112743341D01*
X140890183Y-112743344D01*
X141014154Y-112867315D01*
X141163375Y-112959356D01*
X141163380Y-112959358D01*
X141329802Y-113014505D01*
X141329809Y-113014506D01*
X141432519Y-113024999D01*
X141569999Y-113024999D01*
X141570000Y-113024998D01*
X141570000Y-112050000D01*
X142070000Y-112050000D01*
X142070000Y-113024999D01*
X142207472Y-113024999D01*
X142207486Y-113024998D01*
X142310197Y-113014505D01*
X142476619Y-112959358D01*
X142476624Y-112959356D01*
X142625845Y-112867315D01*
X142749815Y-112743345D01*
X142841856Y-112594124D01*
X142841858Y-112594119D01*
X142865468Y-112522870D01*
X144684500Y-112522870D01*
X144684501Y-112522876D01*
X144690908Y-112582483D01*
X144741202Y-112717328D01*
X144741206Y-112717335D01*
X144827452Y-112832544D01*
X144827455Y-112832547D01*
X144942664Y-112918793D01*
X144942671Y-112918797D01*
X145077517Y-112969091D01*
X145077516Y-112969091D01*
X145084444Y-112969835D01*
X145137127Y-112975500D01*
X146282872Y-112975499D01*
X146342483Y-112969091D01*
X146477331Y-112918796D01*
X146592546Y-112832546D01*
X146678796Y-112717331D01*
X146729091Y-112582483D01*
X146735500Y-112522873D01*
X146735500Y-112522870D01*
X148834500Y-112522870D01*
X148834501Y-112522876D01*
X148840908Y-112582483D01*
X148891202Y-112717328D01*
X148891206Y-112717335D01*
X148977452Y-112832544D01*
X148977455Y-112832547D01*
X149092664Y-112918793D01*
X149092671Y-112918797D01*
X149227517Y-112969091D01*
X149227516Y-112969091D01*
X149234444Y-112969835D01*
X149287127Y-112975500D01*
X150432872Y-112975499D01*
X150492483Y-112969091D01*
X150627331Y-112918796D01*
X150742546Y-112832546D01*
X150828796Y-112717331D01*
X150879091Y-112582483D01*
X150885500Y-112522873D01*
X150885499Y-111777128D01*
X150879091Y-111717517D01*
X150828796Y-111582669D01*
X150828795Y-111582668D01*
X150828793Y-111582664D01*
X150742547Y-111467455D01*
X150742544Y-111467452D01*
X150627335Y-111381206D01*
X150627328Y-111381202D01*
X150492482Y-111330908D01*
X150492483Y-111330908D01*
X150432883Y-111324501D01*
X150432881Y-111324500D01*
X150432873Y-111324500D01*
X150432864Y-111324500D01*
X149287129Y-111324500D01*
X149287123Y-111324501D01*
X149227516Y-111330908D01*
X149092671Y-111381202D01*
X149092664Y-111381206D01*
X148977455Y-111467452D01*
X148977452Y-111467455D01*
X148891206Y-111582664D01*
X148891202Y-111582671D01*
X148840910Y-111717513D01*
X148840909Y-111717517D01*
X148834500Y-111777127D01*
X148834500Y-111777134D01*
X148834500Y-111777135D01*
X148834500Y-112522870D01*
X146735500Y-112522870D01*
X146735499Y-111777128D01*
X146729091Y-111717517D01*
X146678796Y-111582669D01*
X146678795Y-111582668D01*
X146678793Y-111582664D01*
X146592547Y-111467455D01*
X146592544Y-111467452D01*
X146477335Y-111381206D01*
X146477328Y-111381202D01*
X146342482Y-111330908D01*
X146342483Y-111330908D01*
X146282883Y-111324501D01*
X146282881Y-111324500D01*
X146282873Y-111324500D01*
X146282864Y-111324500D01*
X145137129Y-111324500D01*
X145137123Y-111324501D01*
X145077516Y-111330908D01*
X144942671Y-111381202D01*
X144942664Y-111381206D01*
X144827455Y-111467452D01*
X144827452Y-111467455D01*
X144741206Y-111582664D01*
X144741202Y-111582671D01*
X144690910Y-111717513D01*
X144690909Y-111717517D01*
X144684500Y-111777127D01*
X144684500Y-111777134D01*
X144684500Y-111777135D01*
X144684500Y-112522870D01*
X142865468Y-112522870D01*
X142897005Y-112427697D01*
X142897006Y-112427690D01*
X142907499Y-112324986D01*
X142907500Y-112324973D01*
X142907500Y-112050000D01*
X142070000Y-112050000D01*
X141570000Y-112050000D01*
X141570000Y-110575000D01*
X142070000Y-110575000D01*
X142070000Y-111550000D01*
X142907499Y-111550000D01*
X142907499Y-111275028D01*
X142907498Y-111275013D01*
X142897005Y-111172302D01*
X142841858Y-111005880D01*
X142841856Y-111005875D01*
X142749815Y-110856654D01*
X142625845Y-110732684D01*
X142476624Y-110640643D01*
X142476619Y-110640641D01*
X142310197Y-110585494D01*
X142310190Y-110585493D01*
X142207486Y-110575000D01*
X142070000Y-110575000D01*
X141570000Y-110575000D01*
X141432527Y-110575000D01*
X141432512Y-110575001D01*
X141329802Y-110585494D01*
X141163380Y-110640641D01*
X141163375Y-110640643D01*
X141014154Y-110732684D01*
X140890183Y-110856655D01*
X140890179Y-110856660D01*
X140888326Y-110859665D01*
X140886518Y-110861290D01*
X140885702Y-110862323D01*
X140885525Y-110862183D01*
X140836374Y-110906385D01*
X140767411Y-110917601D01*
X140703331Y-110889752D01*
X140677253Y-110859653D01*
X140677237Y-110859628D01*
X140675212Y-110856344D01*
X140551156Y-110732288D01*
X140401834Y-110640186D01*
X140235297Y-110585001D01*
X140235295Y-110585000D01*
X140132510Y-110574500D01*
X139357498Y-110574500D01*
X139357480Y-110574501D01*
X139254703Y-110585000D01*
X139254700Y-110585001D01*
X139088168Y-110640185D01*
X139088163Y-110640187D01*
X138938842Y-110732289D01*
X138814789Y-110856342D01*
X138722687Y-111005663D01*
X138722685Y-111005668D01*
X138722615Y-111005880D01*
X138667501Y-111172203D01*
X138667501Y-111172204D01*
X138667500Y-111172204D01*
X138657000Y-111274983D01*
X138657000Y-112325001D01*
X138097497Y-112325001D01*
X138097499Y-112324986D01*
X138097500Y-112324973D01*
X138097500Y-112050000D01*
X137260000Y-112050000D01*
X136760000Y-112050000D01*
X136760000Y-110575000D01*
X137260000Y-110575000D01*
X137260000Y-111550000D01*
X138097499Y-111550000D01*
X138097499Y-111275028D01*
X138097498Y-111275013D01*
X138087005Y-111172302D01*
X138031858Y-111005880D01*
X138031856Y-111005875D01*
X137939815Y-110856654D01*
X137815845Y-110732684D01*
X137666624Y-110640643D01*
X137666619Y-110640641D01*
X137500197Y-110585494D01*
X137500190Y-110585493D01*
X137397486Y-110575000D01*
X137260000Y-110575000D01*
X136760000Y-110575000D01*
X136622527Y-110575000D01*
X136622512Y-110575001D01*
X136519802Y-110585494D01*
X136353380Y-110640641D01*
X136353375Y-110640643D01*
X136204154Y-110732684D01*
X136080183Y-110856655D01*
X136080179Y-110856660D01*
X136078326Y-110859665D01*
X136076518Y-110861290D01*
X136075702Y-110862323D01*
X136075525Y-110862183D01*
X136026374Y-110906385D01*
X135957411Y-110917601D01*
X135893331Y-110889752D01*
X135867253Y-110859653D01*
X135867237Y-110859628D01*
X135865212Y-110856344D01*
X135741156Y-110732288D01*
X135591834Y-110640186D01*
X135425297Y-110585001D01*
X135425295Y-110585000D01*
X135322510Y-110574500D01*
X134547498Y-110574500D01*
X134547480Y-110574501D01*
X134444703Y-110585000D01*
X134444700Y-110585001D01*
X134278168Y-110640185D01*
X134278163Y-110640187D01*
X134128842Y-110732289D01*
X134004789Y-110856342D01*
X133912687Y-111005663D01*
X133912685Y-111005668D01*
X133912615Y-111005880D01*
X133857501Y-111172203D01*
X133857501Y-111172204D01*
X133857500Y-111172204D01*
X133847000Y-111274983D01*
X133847000Y-112325001D01*
X133287497Y-112325001D01*
X133287499Y-112324986D01*
X133287500Y-112324973D01*
X133287500Y-112050000D01*
X132450000Y-112050000D01*
X131950000Y-112050000D01*
X131950000Y-110575000D01*
X132450000Y-110575000D01*
X132450000Y-111550000D01*
X133287499Y-111550000D01*
X133287499Y-111275028D01*
X133287498Y-111275013D01*
X133277005Y-111172302D01*
X133221858Y-111005880D01*
X133221856Y-111005875D01*
X133129815Y-110856654D01*
X133005845Y-110732684D01*
X132856624Y-110640643D01*
X132856619Y-110640641D01*
X132690197Y-110585494D01*
X132690190Y-110585493D01*
X132587486Y-110575000D01*
X132450000Y-110575000D01*
X131950000Y-110575000D01*
X131812527Y-110575000D01*
X131812512Y-110575001D01*
X131709802Y-110585494D01*
X131543380Y-110640641D01*
X131543375Y-110640643D01*
X131394154Y-110732684D01*
X131270183Y-110856655D01*
X131270179Y-110856660D01*
X131268326Y-110859665D01*
X131266518Y-110861290D01*
X131265702Y-110862323D01*
X131265525Y-110862183D01*
X131216374Y-110906385D01*
X131147411Y-110917601D01*
X131083331Y-110889752D01*
X131057253Y-110859653D01*
X131057237Y-110859628D01*
X131055212Y-110856344D01*
X130931156Y-110732288D01*
X130781834Y-110640186D01*
X130615297Y-110585001D01*
X130615295Y-110585000D01*
X130512510Y-110574500D01*
X129737498Y-110574500D01*
X129737480Y-110574501D01*
X129634703Y-110585000D01*
X129634700Y-110585001D01*
X129468168Y-110640185D01*
X129468163Y-110640187D01*
X129318842Y-110732289D01*
X129194789Y-110856342D01*
X129102687Y-111005663D01*
X129102685Y-111005668D01*
X129102615Y-111005880D01*
X129047501Y-111172203D01*
X129047501Y-111172204D01*
X129047500Y-111172204D01*
X129037000Y-111274983D01*
X129037000Y-112325001D01*
X109220500Y-112325001D01*
X109220500Y-106942870D01*
X129024353Y-106942870D01*
X129024354Y-106942876D01*
X129030761Y-107002483D01*
X129081055Y-107137328D01*
X129081059Y-107137335D01*
X129167305Y-107252544D01*
X129167308Y-107252547D01*
X129282517Y-107338793D01*
X129282524Y-107338797D01*
X129417370Y-107389091D01*
X129417369Y-107389091D01*
X129424297Y-107389835D01*
X129476980Y-107395500D01*
X131800353Y-107395499D01*
X131867392Y-107415184D01*
X131913147Y-107467987D01*
X131924353Y-107519499D01*
X131924353Y-109842870D01*
X131924354Y-109842876D01*
X131930761Y-109902483D01*
X131981055Y-110037328D01*
X131981059Y-110037335D01*
X132067305Y-110152544D01*
X132067308Y-110152547D01*
X132182517Y-110238793D01*
X132182524Y-110238797D01*
X132317370Y-110289091D01*
X132317369Y-110289091D01*
X132324297Y-110289835D01*
X132376980Y-110295500D01*
X133472725Y-110295499D01*
X133532336Y-110289091D01*
X133532340Y-110289089D01*
X133536596Y-110288632D01*
X133563106Y-110288632D01*
X133567367Y-110289090D01*
X133567370Y-110289091D01*
X133626980Y-110295500D01*
X134722725Y-110295499D01*
X134782336Y-110289091D01*
X134782340Y-110289089D01*
X134786596Y-110288632D01*
X134813106Y-110288632D01*
X134817367Y-110289090D01*
X134817370Y-110289091D01*
X134876980Y-110295500D01*
X135972725Y-110295499D01*
X136032336Y-110289091D01*
X136032340Y-110289089D01*
X136036596Y-110288632D01*
X136063106Y-110288632D01*
X136067367Y-110289090D01*
X136067370Y-110289091D01*
X136126980Y-110295500D01*
X137222725Y-110295499D01*
X137282336Y-110289091D01*
X137282340Y-110289089D01*
X137286596Y-110288632D01*
X137313106Y-110288632D01*
X137317367Y-110289090D01*
X137317370Y-110289091D01*
X137376980Y-110295500D01*
X138472725Y-110295499D01*
X138532336Y-110289091D01*
X138532340Y-110289089D01*
X138536596Y-110288632D01*
X138563106Y-110288632D01*
X138567367Y-110289090D01*
X138567370Y-110289091D01*
X138626980Y-110295500D01*
X139722725Y-110295499D01*
X139782336Y-110289091D01*
X139782336Y-110289090D01*
X139788949Y-110288380D01*
X139815460Y-110288381D01*
X139877010Y-110294999D01*
X139877025Y-110295000D01*
X140174853Y-110295000D01*
X140174853Y-109850845D01*
X140175209Y-109844211D01*
X140175353Y-109842873D01*
X140175352Y-108895000D01*
X140674853Y-108895000D01*
X140674853Y-110295000D01*
X140972681Y-110295000D01*
X140972697Y-110294999D01*
X141032225Y-110288598D01*
X141032232Y-110288596D01*
X141166939Y-110238354D01*
X141166946Y-110238350D01*
X141282040Y-110152190D01*
X141282043Y-110152187D01*
X141368203Y-110037093D01*
X141368207Y-110037086D01*
X141418449Y-109902379D01*
X141418451Y-109902372D01*
X141424852Y-109842844D01*
X141424853Y-109842827D01*
X141424853Y-108895000D01*
X140674853Y-108895000D01*
X140175352Y-108895000D01*
X140175352Y-108395000D01*
X140674853Y-108395000D01*
X141424853Y-108395000D01*
X141424853Y-107519499D01*
X141444538Y-107452460D01*
X141497342Y-107406705D01*
X141548848Y-107395499D01*
X143872725Y-107395499D01*
X143932336Y-107389091D01*
X144067184Y-107338796D01*
X144118690Y-107300237D01*
X144184151Y-107275821D01*
X144252425Y-107290672D01*
X144301831Y-107340076D01*
X144317000Y-107399505D01*
X144317000Y-109374870D01*
X144317001Y-109374876D01*
X144323408Y-109434483D01*
X144373702Y-109569328D01*
X144373706Y-109569335D01*
X144459952Y-109684544D01*
X144459955Y-109684547D01*
X144575164Y-109770793D01*
X144575171Y-109770797D01*
X144710017Y-109821091D01*
X144710016Y-109821091D01*
X144716944Y-109821835D01*
X144769627Y-109827500D01*
X146365372Y-109827499D01*
X146424983Y-109821091D01*
X146559831Y-109770796D01*
X146675046Y-109684546D01*
X146761296Y-109569331D01*
X146811591Y-109434483D01*
X146818000Y-109374873D01*
X146818000Y-109374870D01*
X147367000Y-109374870D01*
X147367001Y-109374876D01*
X147373408Y-109434483D01*
X147423702Y-109569328D01*
X147423706Y-109569335D01*
X147509952Y-109684544D01*
X147509955Y-109684547D01*
X147625164Y-109770793D01*
X147625171Y-109770797D01*
X147760017Y-109821091D01*
X147760016Y-109821091D01*
X147766944Y-109821835D01*
X147819627Y-109827500D01*
X149415372Y-109827499D01*
X149474983Y-109821091D01*
X149609831Y-109770796D01*
X149725046Y-109684546D01*
X149811296Y-109569331D01*
X149861591Y-109434483D01*
X149868000Y-109374873D01*
X149868000Y-107720370D01*
X150607000Y-107720370D01*
X150607001Y-107720376D01*
X150613408Y-107779983D01*
X150663702Y-107914828D01*
X150663706Y-107914835D01*
X150749952Y-108030044D01*
X150749955Y-108030047D01*
X150865164Y-108116293D01*
X150865171Y-108116297D01*
X150879494Y-108121639D01*
X151000017Y-108166591D01*
X151059627Y-108173000D01*
X151435986Y-108172999D01*
X151479319Y-108180817D01*
X151535017Y-108201591D01*
X151594627Y-108208000D01*
X152040372Y-108207999D01*
X152056596Y-108206255D01*
X152083104Y-108206255D01*
X152094677Y-108207499D01*
X152094678Y-108207500D01*
X152142499Y-108207500D01*
X152158138Y-108191861D01*
X152202486Y-108163359D01*
X152234831Y-108151296D01*
X152251848Y-108138556D01*
X152317310Y-108114137D01*
X152369493Y-108121639D01*
X152411832Y-108137430D01*
X152467766Y-108179300D01*
X152469827Y-108184827D01*
X152492500Y-108207500D01*
X152540328Y-108207500D01*
X152540344Y-108207499D01*
X152599875Y-108201098D01*
X152654247Y-108180818D01*
X152697578Y-108172999D01*
X153075372Y-108172999D01*
X153134983Y-108166591D01*
X153269831Y-108116296D01*
X153385046Y-108030046D01*
X153471296Y-107914831D01*
X153521591Y-107779983D01*
X153528000Y-107720373D01*
X153527999Y-107274628D01*
X153526255Y-107258404D01*
X153526255Y-107231894D01*
X153527500Y-107220320D01*
X153527500Y-107172500D01*
X153511860Y-107156860D01*
X153483359Y-107112513D01*
X153471296Y-107080169D01*
X153465039Y-107071812D01*
X153440621Y-107006351D01*
X153455470Y-106938078D01*
X153465034Y-106923195D01*
X153471296Y-106914831D01*
X153483359Y-106882486D01*
X153511861Y-106838138D01*
X153527500Y-106822499D01*
X153527500Y-106774682D01*
X153527499Y-106774664D01*
X153526256Y-106763103D01*
X153526256Y-106736590D01*
X153527999Y-106720378D01*
X153528000Y-106720373D01*
X153527999Y-106274628D01*
X153526508Y-106260758D01*
X153526508Y-106234248D01*
X153528000Y-106220373D01*
X153527999Y-105774628D01*
X153521591Y-105715017D01*
X153513331Y-105692872D01*
X153471297Y-105580171D01*
X153471293Y-105580164D01*
X153385047Y-105464955D01*
X153385044Y-105464952D01*
X153269835Y-105378706D01*
X153269828Y-105378702D01*
X153134982Y-105328408D01*
X153134983Y-105328408D01*
X153075383Y-105322001D01*
X153075381Y-105322000D01*
X153075373Y-105322000D01*
X153075365Y-105322000D01*
X152699012Y-105322000D01*
X152655679Y-105314182D01*
X152599986Y-105293410D01*
X152599985Y-105293409D01*
X152599983Y-105293409D01*
X152540373Y-105287000D01*
X152540363Y-105287000D01*
X152094633Y-105287000D01*
X152094621Y-105287001D01*
X152080748Y-105288492D01*
X152054256Y-105288491D01*
X152040389Y-105287001D01*
X152040375Y-105287000D01*
X152040373Y-105287000D01*
X152040370Y-105287000D01*
X151594629Y-105287000D01*
X151594623Y-105287001D01*
X151535016Y-105293408D01*
X151479320Y-105314182D01*
X151435988Y-105322000D01*
X151059630Y-105322000D01*
X151059623Y-105322001D01*
X151000016Y-105328408D01*
X150865171Y-105378702D01*
X150865164Y-105378706D01*
X150749955Y-105464952D01*
X150749952Y-105464955D01*
X150663706Y-105580164D01*
X150663702Y-105580171D01*
X150621664Y-105692883D01*
X150613409Y-105715017D01*
X150607000Y-105774627D01*
X150607000Y-105774634D01*
X150607000Y-105774635D01*
X150607000Y-106220366D01*
X150607001Y-106220373D01*
X150608492Y-106234248D01*
X150608492Y-106260739D01*
X150607000Y-106274622D01*
X150607000Y-106720366D01*
X150607001Y-106720373D01*
X150608492Y-106734248D01*
X150608492Y-106760739D01*
X150607000Y-106774622D01*
X150607000Y-107220366D01*
X150607001Y-107220373D01*
X150608492Y-107234248D01*
X150608492Y-107260739D01*
X150607000Y-107274622D01*
X150607000Y-107720370D01*
X149868000Y-107720370D01*
X149867999Y-105679128D01*
X149861591Y-105619517D01*
X149846913Y-105580164D01*
X149811297Y-105484671D01*
X149811293Y-105484664D01*
X149725047Y-105369455D01*
X149725044Y-105369452D01*
X149609835Y-105283206D01*
X149609828Y-105283202D01*
X149474982Y-105232908D01*
X149474983Y-105232908D01*
X149415383Y-105226501D01*
X149415381Y-105226500D01*
X149415373Y-105226500D01*
X149415364Y-105226500D01*
X147819629Y-105226500D01*
X147819623Y-105226501D01*
X147760016Y-105232908D01*
X147625171Y-105283202D01*
X147625164Y-105283206D01*
X147509955Y-105369452D01*
X147509952Y-105369455D01*
X147423706Y-105484664D01*
X147423702Y-105484671D01*
X147373408Y-105619517D01*
X147367001Y-105679116D01*
X147367001Y-105679123D01*
X147367000Y-105679135D01*
X147367000Y-109374870D01*
X146818000Y-109374870D01*
X146817999Y-105679128D01*
X146811591Y-105619517D01*
X146796913Y-105580164D01*
X146761297Y-105484671D01*
X146761293Y-105484664D01*
X146675047Y-105369455D01*
X146675044Y-105369452D01*
X146559835Y-105283206D01*
X146559828Y-105283202D01*
X146424982Y-105232908D01*
X146424983Y-105232908D01*
X146365383Y-105226501D01*
X146365381Y-105226500D01*
X146365373Y-105226500D01*
X146365364Y-105226500D01*
X144769629Y-105226500D01*
X144769623Y-105226501D01*
X144710016Y-105232908D01*
X144575171Y-105283202D01*
X144575168Y-105283204D01*
X144454097Y-105373838D01*
X144388632Y-105398255D01*
X144373669Y-105395000D01*
X143880698Y-105395000D01*
X143874066Y-105394644D01*
X143872726Y-105394500D01*
X143872724Y-105394500D01*
X141476982Y-105394500D01*
X141476970Y-105394501D01*
X141475646Y-105394644D01*
X141469012Y-105395000D01*
X141024853Y-105395000D01*
X141024853Y-105692844D01*
X141031472Y-105754398D01*
X141031473Y-105780909D01*
X141030762Y-105787514D01*
X141030762Y-105787517D01*
X141024353Y-105847127D01*
X141024353Y-105847132D01*
X141024353Y-105847135D01*
X141024354Y-106871000D01*
X141004670Y-106938039D01*
X140951866Y-106983794D01*
X140900354Y-106995000D01*
X140674853Y-106995000D01*
X140674853Y-108395000D01*
X140175352Y-108395000D01*
X140175352Y-107447128D01*
X140175208Y-107445785D01*
X140174853Y-107439155D01*
X140174853Y-106995000D01*
X139877019Y-106995000D01*
X139815448Y-107001619D01*
X139788941Y-107001619D01*
X139779671Y-107000622D01*
X139722726Y-106994500D01*
X139722718Y-106994500D01*
X138626982Y-106994500D01*
X138626973Y-106994501D01*
X138563101Y-107001367D01*
X138536595Y-107001367D01*
X138532336Y-107000909D01*
X138472726Y-106994500D01*
X138472718Y-106994500D01*
X137376982Y-106994500D01*
X137376973Y-106994501D01*
X137313101Y-107001367D01*
X137286595Y-107001367D01*
X137282336Y-107000909D01*
X137222726Y-106994500D01*
X137222718Y-106994500D01*
X136126982Y-106994500D01*
X136126973Y-106994501D01*
X136063101Y-107001367D01*
X136036595Y-107001367D01*
X136032336Y-107000909D01*
X135972726Y-106994500D01*
X135972718Y-106994500D01*
X134876982Y-106994500D01*
X134876973Y-106994501D01*
X134813101Y-107001367D01*
X134786595Y-107001367D01*
X134782336Y-107000909D01*
X134722726Y-106994500D01*
X134722718Y-106994500D01*
X133626982Y-106994500D01*
X133626973Y-106994501D01*
X133563101Y-107001367D01*
X133536595Y-107001367D01*
X133532336Y-107000909D01*
X133472726Y-106994500D01*
X133472720Y-106994500D01*
X132449352Y-106994500D01*
X132382313Y-106974815D01*
X132336558Y-106922011D01*
X132325352Y-106870504D01*
X132325352Y-105847128D01*
X132318944Y-105787517D01*
X132318942Y-105787513D01*
X132318485Y-105783255D01*
X132318486Y-105756745D01*
X132322972Y-105715016D01*
X132325353Y-105692873D01*
X132325352Y-104597128D01*
X132318944Y-104537517D01*
X132318942Y-104537513D01*
X132318485Y-104533255D01*
X132318486Y-104506745D01*
X132319978Y-104492864D01*
X132325353Y-104442873D01*
X132325352Y-103347128D01*
X132318944Y-103287517D01*
X132318942Y-103287513D01*
X132318485Y-103283255D01*
X132318486Y-103256745D01*
X132319858Y-103243975D01*
X132325353Y-103192873D01*
X132325352Y-102097128D01*
X132318944Y-102037517D01*
X132318942Y-102037513D01*
X132318485Y-102033255D01*
X132318486Y-102006745D01*
X132319858Y-101993975D01*
X132325353Y-101942873D01*
X132325352Y-100847128D01*
X132318944Y-100787517D01*
X132318943Y-100787516D01*
X132318233Y-100780904D01*
X132318234Y-100754393D01*
X132324852Y-100692842D01*
X132324853Y-100692827D01*
X132324853Y-100395000D01*
X131880698Y-100395000D01*
X131874066Y-100394644D01*
X131872726Y-100394500D01*
X131872724Y-100394500D01*
X129476982Y-100394500D01*
X129476970Y-100394501D01*
X129475646Y-100394644D01*
X129469012Y-100395000D01*
X129024853Y-100395000D01*
X129024853Y-100692844D01*
X129031472Y-100754398D01*
X129031473Y-100780909D01*
X129030762Y-100787514D01*
X129030762Y-100787517D01*
X129024353Y-100847127D01*
X129024353Y-100847132D01*
X129024353Y-100847135D01*
X129024353Y-101942870D01*
X129024354Y-101942879D01*
X129031220Y-102006751D01*
X129031220Y-102033257D01*
X129030762Y-102037516D01*
X129030762Y-102037517D01*
X129024353Y-102097127D01*
X129024353Y-102097128D01*
X129024353Y-102097132D01*
X129024353Y-103192870D01*
X129024354Y-103192879D01*
X129031220Y-103256751D01*
X129031220Y-103283257D01*
X129030762Y-103287516D01*
X129030762Y-103287517D01*
X129024353Y-103347127D01*
X129024353Y-103347128D01*
X129024353Y-103347132D01*
X129024353Y-104442870D01*
X129024354Y-104442879D01*
X129031220Y-104506751D01*
X129031220Y-104533257D01*
X129030762Y-104537516D01*
X129030762Y-104537517D01*
X129024353Y-104597127D01*
X129024353Y-104597128D01*
X129024353Y-104597132D01*
X129024353Y-105692870D01*
X129024354Y-105692879D01*
X129031220Y-105756751D01*
X129031220Y-105783257D01*
X129030762Y-105787516D01*
X129030762Y-105787517D01*
X129024353Y-105847127D01*
X129024353Y-105847128D01*
X129024353Y-105847132D01*
X129024353Y-106942870D01*
X109220500Y-106942870D01*
X109220500Y-106025001D01*
X114785204Y-106025001D01*
X114785399Y-106027486D01*
X114831218Y-106185198D01*
X114914814Y-106326552D01*
X114914821Y-106326561D01*
X115030938Y-106442678D01*
X115030947Y-106442685D01*
X115172303Y-106526282D01*
X115172306Y-106526283D01*
X115330004Y-106572099D01*
X115330010Y-106572100D01*
X115366856Y-106575000D01*
X115832500Y-106575000D01*
X115832500Y-106025000D01*
X116332500Y-106025000D01*
X116332500Y-106575000D01*
X116798144Y-106575000D01*
X116834989Y-106572100D01*
X116834995Y-106572099D01*
X116992693Y-106526283D01*
X116992696Y-106526282D01*
X117134052Y-106442685D01*
X117134061Y-106442678D01*
X117250178Y-106326561D01*
X117250185Y-106326552D01*
X117333781Y-106185198D01*
X117379600Y-106027486D01*
X117379795Y-106025001D01*
X117379795Y-106025000D01*
X116332500Y-106025000D01*
X115832500Y-106025000D01*
X114785205Y-106025000D01*
X114785204Y-106025001D01*
X109220500Y-106025001D01*
X109220500Y-105990696D01*
X121982000Y-105990696D01*
X121984901Y-106027567D01*
X121984902Y-106027573D01*
X122030754Y-106185393D01*
X122030755Y-106185396D01*
X122030756Y-106185398D01*
X122051440Y-106220373D01*
X122114417Y-106326862D01*
X122114423Y-106326870D01*
X122230629Y-106443076D01*
X122230633Y-106443079D01*
X122230635Y-106443081D01*
X122372102Y-106526744D01*
X122413724Y-106538836D01*
X122529926Y-106572597D01*
X122529929Y-106572597D01*
X122529931Y-106572598D01*
X122542222Y-106573565D01*
X122566804Y-106575500D01*
X122566806Y-106575500D01*
X123998196Y-106575500D01*
X124016631Y-106574049D01*
X124035069Y-106572598D01*
X124035071Y-106572597D01*
X124035073Y-106572597D01*
X124076691Y-106560505D01*
X124192898Y-106526744D01*
X124334365Y-106443081D01*
X124450581Y-106326865D01*
X124534244Y-106185398D01*
X124580098Y-106027569D01*
X124583000Y-105990694D01*
X124583000Y-105559306D01*
X124580098Y-105522431D01*
X124559404Y-105451204D01*
X124544021Y-105398255D01*
X124534244Y-105364602D01*
X124450581Y-105223135D01*
X124450578Y-105223132D01*
X124445798Y-105216969D01*
X124448250Y-105215066D01*
X124421655Y-105166421D01*
X124426604Y-105096726D01*
X124447440Y-105064304D01*
X124445798Y-105063031D01*
X124450575Y-105056870D01*
X124450581Y-105056865D01*
X124534244Y-104915398D01*
X124580098Y-104757569D01*
X124583000Y-104720694D01*
X124583000Y-104289306D01*
X124580098Y-104252431D01*
X124534244Y-104094602D01*
X124450581Y-103953135D01*
X124450578Y-103953132D01*
X124445798Y-103946969D01*
X124448250Y-103945066D01*
X124421655Y-103896421D01*
X124426604Y-103826726D01*
X124447440Y-103794304D01*
X124445798Y-103793031D01*
X124450575Y-103786870D01*
X124450581Y-103786865D01*
X124534244Y-103645398D01*
X124580098Y-103487569D01*
X124583000Y-103450694D01*
X124583000Y-103019306D01*
X124580098Y-102982431D01*
X124534244Y-102824602D01*
X124450581Y-102683135D01*
X124450578Y-102683132D01*
X124445798Y-102676969D01*
X124448250Y-102675066D01*
X124421655Y-102626421D01*
X124426604Y-102556726D01*
X124447440Y-102524304D01*
X124445798Y-102523031D01*
X124450575Y-102516870D01*
X124450581Y-102516865D01*
X124534244Y-102375398D01*
X124580098Y-102217569D01*
X124583000Y-102180694D01*
X124583000Y-101749306D01*
X124580098Y-101712431D01*
X124534244Y-101554602D01*
X124450581Y-101413135D01*
X124450579Y-101413133D01*
X124450576Y-101413129D01*
X124334370Y-101296923D01*
X124334362Y-101296917D01*
X124192896Y-101213255D01*
X124192893Y-101213254D01*
X124035073Y-101167402D01*
X124035067Y-101167401D01*
X123998196Y-101164500D01*
X123998194Y-101164500D01*
X122566806Y-101164500D01*
X122566804Y-101164500D01*
X122529932Y-101167401D01*
X122529926Y-101167402D01*
X122372106Y-101213254D01*
X122372103Y-101213255D01*
X122230637Y-101296917D01*
X122230629Y-101296923D01*
X122114423Y-101413129D01*
X122114417Y-101413137D01*
X122030755Y-101554603D01*
X122030754Y-101554606D01*
X121984902Y-101712426D01*
X121984901Y-101712432D01*
X121982000Y-101749304D01*
X121982000Y-102180696D01*
X121984901Y-102217567D01*
X121984902Y-102217573D01*
X122030754Y-102375393D01*
X122030755Y-102375396D01*
X122114417Y-102516862D01*
X122119202Y-102523031D01*
X122116756Y-102524927D01*
X122143357Y-102573642D01*
X122138373Y-102643334D01*
X122117569Y-102675703D01*
X122119202Y-102676969D01*
X122114417Y-102683137D01*
X122030755Y-102824603D01*
X122030754Y-102824606D01*
X121984902Y-102982426D01*
X121984901Y-102982432D01*
X121982000Y-103019304D01*
X121982000Y-103450696D01*
X121984901Y-103487567D01*
X121984902Y-103487573D01*
X122030754Y-103645393D01*
X122030755Y-103645396D01*
X122114417Y-103786862D01*
X122119202Y-103793031D01*
X122116756Y-103794927D01*
X122143357Y-103843642D01*
X122138373Y-103913334D01*
X122117569Y-103945703D01*
X122119202Y-103946969D01*
X122114417Y-103953137D01*
X122030755Y-104094603D01*
X122030754Y-104094606D01*
X121984902Y-104252426D01*
X121984901Y-104252432D01*
X121982000Y-104289304D01*
X121982000Y-104720696D01*
X121984901Y-104757567D01*
X121984902Y-104757573D01*
X122030754Y-104915393D01*
X122030755Y-104915396D01*
X122114417Y-105056862D01*
X122119202Y-105063031D01*
X122116756Y-105064927D01*
X122143357Y-105113642D01*
X122138373Y-105183334D01*
X122117569Y-105215703D01*
X122119202Y-105216969D01*
X122114417Y-105223137D01*
X122030755Y-105364603D01*
X122030754Y-105364606D01*
X121984902Y-105522426D01*
X121984901Y-105522432D01*
X121982000Y-105559304D01*
X121982000Y-105990696D01*
X109220500Y-105990696D01*
X109220500Y-104720696D01*
X114782000Y-104720696D01*
X114784901Y-104757567D01*
X114784902Y-104757573D01*
X114830754Y-104915393D01*
X114830755Y-104915396D01*
X114914417Y-105056862D01*
X114919202Y-105063031D01*
X114916869Y-105064840D01*
X114943710Y-105113995D01*
X114938726Y-105183687D01*
X114917970Y-105216021D01*
X114919597Y-105217283D01*
X114914813Y-105223449D01*
X114831218Y-105364801D01*
X114785399Y-105522513D01*
X114785204Y-105524998D01*
X114785205Y-105525000D01*
X117379795Y-105525000D01*
X117379795Y-105524998D01*
X117379600Y-105522513D01*
X117333781Y-105364801D01*
X117250185Y-105223447D01*
X117245400Y-105217278D01*
X117247866Y-105215364D01*
X117221302Y-105166776D01*
X117226249Y-105097082D01*
X117247356Y-105064232D01*
X117245801Y-105063026D01*
X117250577Y-105056868D01*
X117250581Y-105056865D01*
X117334244Y-104915398D01*
X117380098Y-104757569D01*
X117383000Y-104720694D01*
X117383000Y-104289306D01*
X117380098Y-104252431D01*
X117334244Y-104094602D01*
X117250581Y-103953135D01*
X117250578Y-103953132D01*
X117245798Y-103946969D01*
X117248250Y-103945066D01*
X117221655Y-103896421D01*
X117226604Y-103826726D01*
X117247440Y-103794304D01*
X117245798Y-103793031D01*
X117250575Y-103786870D01*
X117250581Y-103786865D01*
X117334244Y-103645398D01*
X117380098Y-103487569D01*
X117383000Y-103450694D01*
X117383000Y-103019306D01*
X117380098Y-102982431D01*
X117334244Y-102824602D01*
X117250581Y-102683135D01*
X117250578Y-102683132D01*
X117245798Y-102676969D01*
X117248250Y-102675066D01*
X117221655Y-102626421D01*
X117226604Y-102556726D01*
X117247440Y-102524304D01*
X117245798Y-102523031D01*
X117250575Y-102516870D01*
X117250581Y-102516865D01*
X117334244Y-102375398D01*
X117380098Y-102217569D01*
X117383000Y-102180694D01*
X117383000Y-101749306D01*
X117380098Y-101712431D01*
X117334244Y-101554602D01*
X117250581Y-101413135D01*
X117250579Y-101413133D01*
X117250576Y-101413129D01*
X117134370Y-101296923D01*
X117134362Y-101296917D01*
X116992896Y-101213255D01*
X116992893Y-101213254D01*
X116835073Y-101167402D01*
X116835067Y-101167401D01*
X116798196Y-101164500D01*
X116798194Y-101164500D01*
X115366806Y-101164500D01*
X115366804Y-101164500D01*
X115329932Y-101167401D01*
X115329926Y-101167402D01*
X115172106Y-101213254D01*
X115172103Y-101213255D01*
X115030637Y-101296917D01*
X115030629Y-101296923D01*
X114914423Y-101413129D01*
X114914417Y-101413137D01*
X114830755Y-101554603D01*
X114830754Y-101554606D01*
X114784902Y-101712426D01*
X114784901Y-101712432D01*
X114782000Y-101749304D01*
X114782000Y-102180696D01*
X114784901Y-102217567D01*
X114784902Y-102217573D01*
X114830754Y-102375393D01*
X114830755Y-102375396D01*
X114914417Y-102516862D01*
X114919202Y-102523031D01*
X114916756Y-102524927D01*
X114943357Y-102573642D01*
X114938373Y-102643334D01*
X114917569Y-102675703D01*
X114919202Y-102676969D01*
X114914417Y-102683137D01*
X114830755Y-102824603D01*
X114830754Y-102824606D01*
X114784902Y-102982426D01*
X114784901Y-102982432D01*
X114782000Y-103019304D01*
X114782000Y-103450696D01*
X114784901Y-103487567D01*
X114784902Y-103487573D01*
X114830754Y-103645393D01*
X114830755Y-103645396D01*
X114914417Y-103786862D01*
X114919202Y-103793031D01*
X114916756Y-103794927D01*
X114943357Y-103843642D01*
X114938373Y-103913334D01*
X114917569Y-103945703D01*
X114919202Y-103946969D01*
X114914417Y-103953137D01*
X114830755Y-104094603D01*
X114830754Y-104094606D01*
X114784902Y-104252426D01*
X114784901Y-104252432D01*
X114782000Y-104289304D01*
X114782000Y-104720696D01*
X109220500Y-104720696D01*
X109220500Y-99510001D01*
X114782000Y-99510001D01*
X114782001Y-99510019D01*
X114792500Y-99612796D01*
X114792501Y-99612799D01*
X114818872Y-99692379D01*
X114847686Y-99779334D01*
X114939788Y-99928656D01*
X115063844Y-100052712D01*
X115213166Y-100144814D01*
X115379703Y-100199999D01*
X115482491Y-100210500D01*
X116282508Y-100210499D01*
X116282516Y-100210498D01*
X116282519Y-100210498D01*
X116338802Y-100204748D01*
X116385297Y-100199999D01*
X116551834Y-100144814D01*
X116701156Y-100052712D01*
X116794819Y-99959049D01*
X116856142Y-99925564D01*
X116925834Y-99930548D01*
X116970181Y-99959049D01*
X117063844Y-100052712D01*
X117213166Y-100144814D01*
X117379703Y-100199999D01*
X117482491Y-100210500D01*
X118282508Y-100210499D01*
X118282516Y-100210498D01*
X118282519Y-100210498D01*
X118338802Y-100204748D01*
X118385297Y-100199999D01*
X118551834Y-100144814D01*
X118701156Y-100052712D01*
X118825212Y-99928656D01*
X118917314Y-99779334D01*
X118972499Y-99612797D01*
X118983000Y-99510009D01*
X118983000Y-99510001D01*
X119532000Y-99510001D01*
X119532001Y-99510019D01*
X119542500Y-99612796D01*
X119542501Y-99612799D01*
X119568872Y-99692379D01*
X119597686Y-99779334D01*
X119689788Y-99928656D01*
X119813844Y-100052712D01*
X119963166Y-100144814D01*
X120129703Y-100199999D01*
X120232491Y-100210500D01*
X121032508Y-100210499D01*
X121032516Y-100210498D01*
X121032519Y-100210498D01*
X121088802Y-100204748D01*
X121135297Y-100199999D01*
X121301834Y-100144814D01*
X121451156Y-100052712D01*
X121544819Y-99959049D01*
X121606142Y-99925564D01*
X121675834Y-99930548D01*
X121720181Y-99959049D01*
X121813844Y-100052712D01*
X121963166Y-100144814D01*
X122129703Y-100199999D01*
X122232491Y-100210500D01*
X123032508Y-100210499D01*
X123032516Y-100210498D01*
X123032519Y-100210498D01*
X123088802Y-100204748D01*
X123135297Y-100199999D01*
X123301834Y-100144814D01*
X123451156Y-100052712D01*
X123575212Y-99928656D01*
X123667314Y-99779334D01*
X123722499Y-99612797D01*
X123733000Y-99510009D01*
X123733000Y-99442870D01*
X129024353Y-99442870D01*
X129024354Y-99442876D01*
X129031472Y-99509092D01*
X129031472Y-99535599D01*
X129024853Y-99597169D01*
X129024853Y-99895000D01*
X129469008Y-99895000D01*
X129475639Y-99895355D01*
X129476980Y-99895500D01*
X131872725Y-99895499D01*
X131872731Y-99895498D01*
X131872735Y-99895498D01*
X131874060Y-99895356D01*
X131880694Y-99895000D01*
X132324853Y-99895000D01*
X132324853Y-99597172D01*
X132324852Y-99597160D01*
X132318233Y-99535604D01*
X132318233Y-99509089D01*
X132318942Y-99502485D01*
X132318944Y-99502483D01*
X132325353Y-99442873D01*
X132325352Y-98419498D01*
X132345036Y-98352460D01*
X132397840Y-98306705D01*
X132449347Y-98295499D01*
X133472725Y-98295499D01*
X133532336Y-98289091D01*
X133532340Y-98289089D01*
X133536596Y-98288632D01*
X133563106Y-98288632D01*
X133567367Y-98289090D01*
X133567370Y-98289091D01*
X133626980Y-98295500D01*
X134722725Y-98295499D01*
X134782336Y-98289091D01*
X134782340Y-98289089D01*
X134786596Y-98288632D01*
X134813106Y-98288632D01*
X134817367Y-98289090D01*
X134817370Y-98289091D01*
X134876980Y-98295500D01*
X135972725Y-98295499D01*
X136032336Y-98289091D01*
X136032340Y-98289089D01*
X136036596Y-98288632D01*
X136063106Y-98288632D01*
X136067367Y-98289090D01*
X136067370Y-98289091D01*
X136126980Y-98295500D01*
X137222725Y-98295499D01*
X137282336Y-98289091D01*
X137282340Y-98289089D01*
X137286596Y-98288632D01*
X137313106Y-98288632D01*
X137317367Y-98289090D01*
X137317370Y-98289091D01*
X137376980Y-98295500D01*
X138472725Y-98295499D01*
X138532336Y-98289091D01*
X138532340Y-98289089D01*
X138536596Y-98288632D01*
X138563106Y-98288632D01*
X138567367Y-98289090D01*
X138567370Y-98289091D01*
X138626980Y-98295500D01*
X139722725Y-98295499D01*
X139782336Y-98289091D01*
X139782336Y-98289090D01*
X139788949Y-98288380D01*
X139815460Y-98288381D01*
X139877010Y-98294999D01*
X139877025Y-98295000D01*
X140174853Y-98295000D01*
X140174853Y-97850845D01*
X140175209Y-97844211D01*
X140175353Y-97842873D01*
X140175353Y-96895000D01*
X140674853Y-96895000D01*
X140674853Y-98295000D01*
X140900353Y-98295000D01*
X140967392Y-98314685D01*
X141013147Y-98367489D01*
X141024353Y-98419000D01*
X141024353Y-99442870D01*
X141024354Y-99442879D01*
X141031220Y-99506751D01*
X141031220Y-99533257D01*
X141030762Y-99537516D01*
X141030762Y-99537517D01*
X141024353Y-99597127D01*
X141024353Y-99597128D01*
X141024353Y-99597132D01*
X141024353Y-100692870D01*
X141024354Y-100692879D01*
X141031220Y-100756751D01*
X141031220Y-100783257D01*
X141030762Y-100787516D01*
X141030762Y-100787517D01*
X141024353Y-100847127D01*
X141024353Y-100847128D01*
X141024353Y-100847132D01*
X141024353Y-101942870D01*
X141024354Y-101942879D01*
X141031220Y-102006751D01*
X141031220Y-102033257D01*
X141030762Y-102037516D01*
X141030762Y-102037517D01*
X141024353Y-102097127D01*
X141024353Y-102097128D01*
X141024353Y-102097132D01*
X141024353Y-103192870D01*
X141024354Y-103192879D01*
X141031220Y-103256751D01*
X141031220Y-103283257D01*
X141030762Y-103287516D01*
X141030762Y-103287517D01*
X141024353Y-103347127D01*
X141024353Y-103347128D01*
X141024353Y-103347132D01*
X141024353Y-104442870D01*
X141024354Y-104442876D01*
X141031472Y-104509092D01*
X141031472Y-104535599D01*
X141024853Y-104597169D01*
X141024853Y-104895000D01*
X141469008Y-104895000D01*
X141475639Y-104895355D01*
X141476980Y-104895500D01*
X143872725Y-104895499D01*
X143872731Y-104895498D01*
X143872735Y-104895498D01*
X143874060Y-104895356D01*
X143880694Y-104895000D01*
X144324851Y-104895000D01*
X144359587Y-104860264D01*
X144420910Y-104826779D01*
X144490602Y-104831763D01*
X144521576Y-104848676D01*
X144575165Y-104888793D01*
X144575168Y-104888795D01*
X144575171Y-104888797D01*
X144710017Y-104939091D01*
X144710016Y-104939091D01*
X144716944Y-104939835D01*
X144769627Y-104945500D01*
X146365372Y-104945499D01*
X146424983Y-104939091D01*
X146559831Y-104888796D01*
X146675046Y-104802546D01*
X146761296Y-104687331D01*
X146811591Y-104552483D01*
X146818000Y-104492873D01*
X146818000Y-104492870D01*
X151017000Y-104492870D01*
X151017001Y-104492876D01*
X151023408Y-104552483D01*
X151073702Y-104687328D01*
X151073706Y-104687335D01*
X151159952Y-104802544D01*
X151159955Y-104802547D01*
X151275164Y-104888793D01*
X151275171Y-104888797D01*
X151410017Y-104939091D01*
X151410016Y-104939091D01*
X151416944Y-104939835D01*
X151469627Y-104945500D01*
X153065372Y-104945499D01*
X153124983Y-104939091D01*
X153259831Y-104888796D01*
X153375046Y-104802546D01*
X153461296Y-104687331D01*
X153511591Y-104552483D01*
X153518000Y-104492873D01*
X153517999Y-100997128D01*
X153511591Y-100937517D01*
X153477878Y-100847129D01*
X153461297Y-100802671D01*
X153461293Y-100802664D01*
X153375047Y-100687455D01*
X153375044Y-100687452D01*
X153259835Y-100601206D01*
X153259828Y-100601202D01*
X153124982Y-100550908D01*
X153124983Y-100550908D01*
X153065383Y-100544501D01*
X153065381Y-100544500D01*
X153065373Y-100544500D01*
X153065364Y-100544500D01*
X151469629Y-100544500D01*
X151469623Y-100544501D01*
X151410016Y-100550908D01*
X151275171Y-100601202D01*
X151275164Y-100601206D01*
X151159955Y-100687452D01*
X151159952Y-100687455D01*
X151073706Y-100802664D01*
X151073702Y-100802671D01*
X151023408Y-100937517D01*
X151017001Y-100997116D01*
X151017001Y-100997123D01*
X151017000Y-100997135D01*
X151017000Y-104492870D01*
X146818000Y-104492870D01*
X146817999Y-100997128D01*
X146811591Y-100937517D01*
X146777878Y-100847129D01*
X146761297Y-100802671D01*
X146761293Y-100802664D01*
X146675047Y-100687455D01*
X146675044Y-100687452D01*
X146559835Y-100601206D01*
X146559828Y-100601202D01*
X146424982Y-100550908D01*
X146424983Y-100550908D01*
X146365383Y-100544501D01*
X146365381Y-100544500D01*
X146365373Y-100544500D01*
X146365364Y-100544500D01*
X144769629Y-100544500D01*
X144769623Y-100544501D01*
X144710016Y-100550908D01*
X144575171Y-100601202D01*
X144575168Y-100601204D01*
X144523663Y-100639761D01*
X144458198Y-100664178D01*
X144389925Y-100649326D01*
X144340520Y-100599921D01*
X144325352Y-100540497D01*
X144325352Y-99597128D01*
X144318944Y-99537517D01*
X144318942Y-99537513D01*
X144318485Y-99533255D01*
X144318486Y-99506745D01*
X144320437Y-99488596D01*
X144325353Y-99442873D01*
X144325353Y-99042870D01*
X146917000Y-99042870D01*
X146917001Y-99042876D01*
X146923408Y-99102483D01*
X146973702Y-99237328D01*
X146973706Y-99237335D01*
X147059952Y-99352544D01*
X147059955Y-99352547D01*
X147175164Y-99438793D01*
X147175171Y-99438797D01*
X147310017Y-99489091D01*
X147310016Y-99489091D01*
X147316944Y-99489835D01*
X147369627Y-99495500D01*
X148465372Y-99495499D01*
X148524983Y-99489091D01*
X148659831Y-99438796D01*
X148775046Y-99352546D01*
X148818546Y-99294436D01*
X148874479Y-99252567D01*
X148944171Y-99247583D01*
X149005494Y-99281068D01*
X149017078Y-99294438D01*
X149060309Y-99352187D01*
X149060312Y-99352190D01*
X149175406Y-99438350D01*
X149175413Y-99438354D01*
X149310120Y-99488596D01*
X149310127Y-99488598D01*
X149369655Y-99494999D01*
X149369672Y-99495000D01*
X149667500Y-99495000D01*
X149667500Y-97495000D01*
X150167500Y-97495000D01*
X150167500Y-99495000D01*
X150465328Y-99495000D01*
X150465344Y-99494999D01*
X150524872Y-99488598D01*
X150524879Y-99488596D01*
X150659586Y-99438354D01*
X150659593Y-99438350D01*
X150774687Y-99352190D01*
X150774690Y-99352187D01*
X150806271Y-99310000D01*
X160960000Y-99310000D01*
X160960000Y-99632844D01*
X160966401Y-99692372D01*
X160966403Y-99692379D01*
X161016645Y-99827086D01*
X161016649Y-99827093D01*
X161102809Y-99942187D01*
X161102812Y-99942190D01*
X161217906Y-100028350D01*
X161217913Y-100028354D01*
X161352620Y-100078596D01*
X161352627Y-100078598D01*
X161412155Y-100084999D01*
X161412172Y-100085000D01*
X162310000Y-100085000D01*
X162310000Y-99310000D01*
X162810000Y-99310000D01*
X162810000Y-100085000D01*
X163707828Y-100085000D01*
X163707844Y-100084999D01*
X163767372Y-100078598D01*
X163767379Y-100078596D01*
X163902086Y-100028354D01*
X163902093Y-100028350D01*
X164017187Y-99942190D01*
X164017190Y-99942187D01*
X164103350Y-99827093D01*
X164103354Y-99827086D01*
X164153596Y-99692379D01*
X164153598Y-99692372D01*
X164159999Y-99632844D01*
X164160000Y-99632827D01*
X164160000Y-99310000D01*
X162810000Y-99310000D01*
X162310000Y-99310000D01*
X160960000Y-99310000D01*
X150806271Y-99310000D01*
X150860850Y-99237093D01*
X150860854Y-99237086D01*
X150911096Y-99102379D01*
X150911098Y-99102372D01*
X150917499Y-99042844D01*
X150917500Y-99042827D01*
X150917500Y-98132870D01*
X160009500Y-98132870D01*
X160009501Y-98132876D01*
X160015908Y-98192483D01*
X160066202Y-98327328D01*
X160066206Y-98327335D01*
X160152452Y-98442544D01*
X160152455Y-98442547D01*
X160267664Y-98528793D01*
X160267671Y-98528797D01*
X160312618Y-98545561D01*
X160402517Y-98579091D01*
X160462127Y-98585500D01*
X160836002Y-98585499D01*
X160903039Y-98605183D01*
X160948794Y-98657987D01*
X160960000Y-98709499D01*
X160960000Y-98810000D01*
X162310000Y-98810000D01*
X162310000Y-98035000D01*
X162810000Y-98035000D01*
X162810000Y-98810000D01*
X164160000Y-98810000D01*
X164160000Y-98487172D01*
X164159999Y-98487155D01*
X164153598Y-98427627D01*
X164153596Y-98427620D01*
X164103354Y-98292913D01*
X164103350Y-98292906D01*
X164017190Y-98177812D01*
X164017187Y-98177809D01*
X163902093Y-98091649D01*
X163902086Y-98091645D01*
X163767379Y-98041403D01*
X163767372Y-98041401D01*
X163707844Y-98035000D01*
X162810000Y-98035000D01*
X162310000Y-98035000D01*
X162184500Y-98035000D01*
X162117461Y-98015315D01*
X162071706Y-97962511D01*
X162060500Y-97911000D01*
X162060499Y-97259000D01*
X162080183Y-97191961D01*
X162132987Y-97146206D01*
X162184499Y-97135000D01*
X162310000Y-97135000D01*
X162310000Y-96360000D01*
X162810000Y-96360000D01*
X162810000Y-97135000D01*
X163707828Y-97135000D01*
X163707844Y-97134999D01*
X163767372Y-97128598D01*
X163767379Y-97128596D01*
X163902086Y-97078354D01*
X163902093Y-97078350D01*
X164017187Y-96992190D01*
X164017190Y-96992187D01*
X164103350Y-96877093D01*
X164103354Y-96877086D01*
X164153596Y-96742379D01*
X164153598Y-96742372D01*
X164159999Y-96682844D01*
X164160000Y-96682827D01*
X164160000Y-96360000D01*
X162810000Y-96360000D01*
X162310000Y-96360000D01*
X160960000Y-96360000D01*
X160960000Y-96460500D01*
X160940315Y-96527539D01*
X160887511Y-96573294D01*
X160836000Y-96584500D01*
X160462130Y-96584500D01*
X160462123Y-96584501D01*
X160402516Y-96590908D01*
X160267671Y-96641202D01*
X160267664Y-96641206D01*
X160152455Y-96727452D01*
X160152452Y-96727455D01*
X160066206Y-96842664D01*
X160066202Y-96842671D01*
X160015908Y-96977517D01*
X160009501Y-97037116D01*
X160009500Y-97037135D01*
X160009500Y-98132870D01*
X150917500Y-98132870D01*
X150917500Y-97495000D01*
X150167500Y-97495000D01*
X149667500Y-97495000D01*
X149667500Y-94995000D01*
X150167500Y-94995000D01*
X150167500Y-96995000D01*
X150917500Y-96995000D01*
X150917500Y-95860000D01*
X160960000Y-95860000D01*
X162310000Y-95860000D01*
X162310000Y-95085000D01*
X162810000Y-95085000D01*
X162810000Y-95860000D01*
X164160000Y-95860000D01*
X164160000Y-95537172D01*
X164159999Y-95537155D01*
X164153598Y-95477627D01*
X164153596Y-95477620D01*
X164103354Y-95342913D01*
X164103350Y-95342906D01*
X164017190Y-95227812D01*
X164017187Y-95227809D01*
X163902093Y-95141649D01*
X163902086Y-95141645D01*
X163767379Y-95091403D01*
X163767372Y-95091401D01*
X163707844Y-95085000D01*
X162810000Y-95085000D01*
X162310000Y-95085000D01*
X161412155Y-95085000D01*
X161352627Y-95091401D01*
X161352620Y-95091403D01*
X161217913Y-95141645D01*
X161217906Y-95141649D01*
X161102812Y-95227809D01*
X161102809Y-95227812D01*
X161016649Y-95342906D01*
X161016645Y-95342913D01*
X160966403Y-95477620D01*
X160966401Y-95477627D01*
X160960000Y-95537155D01*
X160960000Y-95860000D01*
X150917500Y-95860000D01*
X150917500Y-95447172D01*
X150917499Y-95447155D01*
X150911098Y-95387627D01*
X150911096Y-95387620D01*
X150860854Y-95252913D01*
X150860850Y-95252906D01*
X150774690Y-95137812D01*
X150774687Y-95137809D01*
X150659593Y-95051649D01*
X150659586Y-95051645D01*
X150524879Y-95001403D01*
X150524872Y-95001401D01*
X150465344Y-94995000D01*
X150167500Y-94995000D01*
X149667500Y-94995000D01*
X149369655Y-94995000D01*
X149310127Y-95001401D01*
X149310120Y-95001403D01*
X149175413Y-95051645D01*
X149175406Y-95051649D01*
X149060312Y-95137809D01*
X149017078Y-95195562D01*
X148961144Y-95237432D01*
X148891452Y-95242416D01*
X148830129Y-95208930D01*
X148818546Y-95195562D01*
X148780537Y-95144789D01*
X148775046Y-95137454D01*
X148775044Y-95137453D01*
X148775044Y-95137452D01*
X148659835Y-95051206D01*
X148659828Y-95051202D01*
X148524982Y-95000908D01*
X148524983Y-95000908D01*
X148465383Y-94994501D01*
X148465381Y-94994500D01*
X148465373Y-94994500D01*
X148465364Y-94994500D01*
X147369629Y-94994500D01*
X147369623Y-94994501D01*
X147310016Y-95000908D01*
X147175171Y-95051202D01*
X147175164Y-95051206D01*
X147059955Y-95137452D01*
X147059952Y-95137455D01*
X146973706Y-95252664D01*
X146973702Y-95252671D01*
X146923408Y-95387517D01*
X146917001Y-95447116D01*
X146917000Y-95447135D01*
X146917000Y-99042870D01*
X144325353Y-99042870D01*
X144325352Y-98347128D01*
X144318944Y-98287517D01*
X144301470Y-98240668D01*
X144268650Y-98152671D01*
X144268646Y-98152664D01*
X144182400Y-98037455D01*
X144182397Y-98037452D01*
X144067188Y-97951206D01*
X144067181Y-97951202D01*
X143932335Y-97900908D01*
X143932336Y-97900908D01*
X143872736Y-97894501D01*
X143872734Y-97894500D01*
X143872726Y-97894500D01*
X143872718Y-97894500D01*
X141548853Y-97894500D01*
X141481814Y-97874815D01*
X141436059Y-97822011D01*
X141424853Y-97770500D01*
X141424853Y-96895000D01*
X140674853Y-96895000D01*
X140175353Y-96895000D01*
X140175352Y-95447128D01*
X140175208Y-95445785D01*
X140174853Y-95439155D01*
X140174853Y-94995000D01*
X140674853Y-94995000D01*
X140674853Y-96395000D01*
X141424853Y-96395000D01*
X141424853Y-95447172D01*
X141424852Y-95447155D01*
X141418451Y-95387627D01*
X141418449Y-95387620D01*
X141368207Y-95252913D01*
X141368203Y-95252906D01*
X141282043Y-95137812D01*
X141282040Y-95137809D01*
X141166946Y-95051649D01*
X141166939Y-95051645D01*
X141032232Y-95001403D01*
X141032225Y-95001401D01*
X140972697Y-94995000D01*
X140674853Y-94995000D01*
X140174853Y-94995000D01*
X139877019Y-94995000D01*
X139815448Y-95001619D01*
X139788941Y-95001619D01*
X139779671Y-95000622D01*
X139722726Y-94994500D01*
X139722718Y-94994500D01*
X138626982Y-94994500D01*
X138626973Y-94994501D01*
X138563101Y-95001367D01*
X138536595Y-95001367D01*
X138532336Y-95000909D01*
X138472726Y-94994500D01*
X138472718Y-94994500D01*
X137376982Y-94994500D01*
X137376973Y-94994501D01*
X137313101Y-95001367D01*
X137286595Y-95001367D01*
X137282336Y-95000909D01*
X137222726Y-94994500D01*
X137222718Y-94994500D01*
X136126982Y-94994500D01*
X136126973Y-94994501D01*
X136063101Y-95001367D01*
X136036595Y-95001367D01*
X136032336Y-95000909D01*
X135972726Y-94994500D01*
X135972718Y-94994500D01*
X134876982Y-94994500D01*
X134876973Y-94994501D01*
X134813101Y-95001367D01*
X134786595Y-95001367D01*
X134782336Y-95000909D01*
X134722726Y-94994500D01*
X134722718Y-94994500D01*
X133626982Y-94994500D01*
X133626973Y-94994501D01*
X133563101Y-95001367D01*
X133536595Y-95001367D01*
X133532336Y-95000909D01*
X133472726Y-94994500D01*
X133472718Y-94994500D01*
X132376982Y-94994500D01*
X132376976Y-94994501D01*
X132317369Y-95000908D01*
X132182524Y-95051202D01*
X132182517Y-95051206D01*
X132067308Y-95137452D01*
X132067305Y-95137455D01*
X131981059Y-95252664D01*
X131981055Y-95252671D01*
X131930761Y-95387517D01*
X131924354Y-95447116D01*
X131924353Y-95447135D01*
X131924353Y-97770500D01*
X131904668Y-97837539D01*
X131851864Y-97883294D01*
X131800353Y-97894500D01*
X129476982Y-97894500D01*
X129476976Y-97894501D01*
X129417369Y-97900908D01*
X129282524Y-97951202D01*
X129282517Y-97951206D01*
X129167308Y-98037452D01*
X129167305Y-98037455D01*
X129081059Y-98152664D01*
X129081055Y-98152671D01*
X129030761Y-98287517D01*
X129024354Y-98347116D01*
X129024354Y-98347123D01*
X129024353Y-98347135D01*
X129024353Y-99442870D01*
X123733000Y-99442870D01*
X123732999Y-98509992D01*
X123726109Y-98442547D01*
X123722499Y-98407203D01*
X123722498Y-98407200D01*
X123696031Y-98327328D01*
X123667314Y-98240666D01*
X123575212Y-98091344D01*
X123451156Y-97967288D01*
X123333147Y-97894500D01*
X123301836Y-97875187D01*
X123301831Y-97875185D01*
X123300362Y-97874698D01*
X123135297Y-97820001D01*
X123135295Y-97820000D01*
X123032510Y-97809500D01*
X122232498Y-97809500D01*
X122232480Y-97809501D01*
X122129703Y-97820000D01*
X122129700Y-97820001D01*
X121963168Y-97875185D01*
X121963163Y-97875187D01*
X121813842Y-97967289D01*
X121720181Y-98060951D01*
X121658858Y-98094436D01*
X121589166Y-98089452D01*
X121544819Y-98060951D01*
X121451157Y-97967289D01*
X121451156Y-97967288D01*
X121333147Y-97894500D01*
X121301836Y-97875187D01*
X121301831Y-97875185D01*
X121300362Y-97874698D01*
X121135297Y-97820001D01*
X121135295Y-97820000D01*
X121032510Y-97809500D01*
X120232498Y-97809500D01*
X120232480Y-97809501D01*
X120129703Y-97820000D01*
X120129700Y-97820001D01*
X119963168Y-97875185D01*
X119963163Y-97875187D01*
X119813842Y-97967289D01*
X119689789Y-98091342D01*
X119597687Y-98240663D01*
X119597685Y-98240668D01*
X119581577Y-98289280D01*
X119542501Y-98407203D01*
X119542501Y-98407204D01*
X119542500Y-98407204D01*
X119532000Y-98509983D01*
X119532000Y-99510001D01*
X118983000Y-99510001D01*
X118982999Y-98509992D01*
X118976109Y-98442547D01*
X118972499Y-98407203D01*
X118972498Y-98407200D01*
X118946031Y-98327328D01*
X118917314Y-98240666D01*
X118825212Y-98091344D01*
X118701156Y-97967288D01*
X118583147Y-97894500D01*
X118551836Y-97875187D01*
X118551831Y-97875185D01*
X118550362Y-97874698D01*
X118385297Y-97820001D01*
X118385295Y-97820000D01*
X118282510Y-97809500D01*
X117482498Y-97809500D01*
X117482480Y-97809501D01*
X117379703Y-97820000D01*
X117379700Y-97820001D01*
X117213168Y-97875185D01*
X117213163Y-97875187D01*
X117063842Y-97967289D01*
X116970181Y-98060951D01*
X116908858Y-98094436D01*
X116839166Y-98089452D01*
X116794819Y-98060951D01*
X116701157Y-97967289D01*
X116701156Y-97967288D01*
X116583147Y-97894500D01*
X116551836Y-97875187D01*
X116551831Y-97875185D01*
X116550362Y-97874698D01*
X116385297Y-97820001D01*
X116385295Y-97820000D01*
X116282510Y-97809500D01*
X115482498Y-97809500D01*
X115482480Y-97809501D01*
X115379703Y-97820000D01*
X115379700Y-97820001D01*
X115213168Y-97875185D01*
X115213163Y-97875187D01*
X115063842Y-97967289D01*
X114939789Y-98091342D01*
X114847687Y-98240663D01*
X114847685Y-98240668D01*
X114831577Y-98289280D01*
X114792501Y-98407203D01*
X114792501Y-98407204D01*
X114792500Y-98407204D01*
X114782000Y-98509983D01*
X114782000Y-99510001D01*
X109220500Y-99510001D01*
X109220500Y-96560001D01*
X114782000Y-96560001D01*
X114782001Y-96560019D01*
X114792500Y-96662796D01*
X114792501Y-96662799D01*
X114818872Y-96742379D01*
X114847686Y-96829334D01*
X114939788Y-96978656D01*
X115063844Y-97102712D01*
X115213166Y-97194814D01*
X115379703Y-97249999D01*
X115482491Y-97260500D01*
X116282508Y-97260499D01*
X116282516Y-97260498D01*
X116282519Y-97260498D01*
X116338802Y-97254748D01*
X116385297Y-97249999D01*
X116551834Y-97194814D01*
X116701156Y-97102712D01*
X116795175Y-97008692D01*
X116856494Y-96975210D01*
X116926186Y-96980194D01*
X116970534Y-97008695D01*
X117064154Y-97102315D01*
X117213375Y-97194356D01*
X117213380Y-97194358D01*
X117379802Y-97249505D01*
X117379809Y-97249506D01*
X117482519Y-97259999D01*
X117632499Y-97259999D01*
X117632500Y-97259998D01*
X117632500Y-96310000D01*
X118132500Y-96310000D01*
X118132500Y-97259999D01*
X118282472Y-97259999D01*
X118282486Y-97259998D01*
X118385197Y-97249505D01*
X118551619Y-97194358D01*
X118551624Y-97194356D01*
X118700845Y-97102315D01*
X118824815Y-96978345D01*
X118916856Y-96829124D01*
X118916858Y-96829119D01*
X118972005Y-96662697D01*
X118972006Y-96662690D01*
X118982497Y-96560001D01*
X119532000Y-96560001D01*
X119532001Y-96560019D01*
X119542500Y-96662796D01*
X119542501Y-96662799D01*
X119568872Y-96742379D01*
X119597686Y-96829334D01*
X119689788Y-96978656D01*
X119813844Y-97102712D01*
X119963166Y-97194814D01*
X120129703Y-97249999D01*
X120232491Y-97260500D01*
X121032508Y-97260499D01*
X121032516Y-97260498D01*
X121032519Y-97260498D01*
X121088802Y-97254748D01*
X121135297Y-97249999D01*
X121301834Y-97194814D01*
X121451156Y-97102712D01*
X121544819Y-97009049D01*
X121606142Y-96975564D01*
X121675834Y-96980548D01*
X121720181Y-97009049D01*
X121813844Y-97102712D01*
X121963166Y-97194814D01*
X122129703Y-97249999D01*
X122232491Y-97260500D01*
X123032508Y-97260499D01*
X123032516Y-97260498D01*
X123032519Y-97260498D01*
X123088802Y-97254748D01*
X123135297Y-97249999D01*
X123301834Y-97194814D01*
X123451156Y-97102712D01*
X123575212Y-96978656D01*
X123667314Y-96829334D01*
X123722499Y-96662797D01*
X123733000Y-96560009D01*
X123732999Y-95559992D01*
X123722499Y-95457203D01*
X123667314Y-95290666D01*
X123575212Y-95141344D01*
X123451156Y-95017288D01*
X123301834Y-94925186D01*
X123135297Y-94870001D01*
X123135295Y-94870000D01*
X123032510Y-94859500D01*
X122232498Y-94859500D01*
X122232480Y-94859501D01*
X122129703Y-94870000D01*
X122129700Y-94870001D01*
X121963168Y-94925185D01*
X121963163Y-94925187D01*
X121813842Y-95017289D01*
X121720181Y-95110951D01*
X121658858Y-95144436D01*
X121589166Y-95139452D01*
X121544819Y-95110951D01*
X121451157Y-95017289D01*
X121451156Y-95017288D01*
X121301834Y-94925186D01*
X121135297Y-94870001D01*
X121135295Y-94870000D01*
X121032510Y-94859500D01*
X120232498Y-94859500D01*
X120232480Y-94859501D01*
X120129703Y-94870000D01*
X120129700Y-94870001D01*
X119963168Y-94925185D01*
X119963163Y-94925187D01*
X119813842Y-95017289D01*
X119689789Y-95141342D01*
X119597687Y-95290663D01*
X119597685Y-95290668D01*
X119597615Y-95290880D01*
X119542501Y-95457203D01*
X119542501Y-95457204D01*
X119542500Y-95457204D01*
X119532000Y-95559983D01*
X119532000Y-96560001D01*
X118982497Y-96560001D01*
X118982499Y-96559986D01*
X118982500Y-96559973D01*
X118982500Y-96310000D01*
X118132500Y-96310000D01*
X117632500Y-96310000D01*
X117632500Y-94860000D01*
X118132500Y-94860000D01*
X118132500Y-95810000D01*
X118982499Y-95810000D01*
X118982499Y-95560028D01*
X118982498Y-95560013D01*
X118972005Y-95457302D01*
X118916858Y-95290880D01*
X118916856Y-95290875D01*
X118824815Y-95141654D01*
X118700845Y-95017684D01*
X118551624Y-94925643D01*
X118551619Y-94925641D01*
X118385197Y-94870494D01*
X118385190Y-94870493D01*
X118282486Y-94860000D01*
X118132500Y-94860000D01*
X117632500Y-94860000D01*
X117482527Y-94860000D01*
X117482512Y-94860001D01*
X117379802Y-94870494D01*
X117213380Y-94925641D01*
X117213375Y-94925643D01*
X117064157Y-95017682D01*
X116970534Y-95111305D01*
X116909210Y-95144789D01*
X116839519Y-95139805D01*
X116795172Y-95111304D01*
X116701157Y-95017289D01*
X116701156Y-95017288D01*
X116551834Y-94925186D01*
X116385297Y-94870001D01*
X116385295Y-94870000D01*
X116282510Y-94859500D01*
X115482498Y-94859500D01*
X115482480Y-94859501D01*
X115379703Y-94870000D01*
X115379700Y-94870001D01*
X115213168Y-94925185D01*
X115213163Y-94925187D01*
X115063842Y-95017289D01*
X114939789Y-95141342D01*
X114847687Y-95290663D01*
X114847685Y-95290668D01*
X114847615Y-95290880D01*
X114792501Y-95457203D01*
X114792501Y-95457204D01*
X114792500Y-95457204D01*
X114782000Y-95559983D01*
X114782000Y-96560001D01*
X109220500Y-96560001D01*
X109220500Y-93610001D01*
X114782000Y-93610001D01*
X114782001Y-93610019D01*
X114792500Y-93712796D01*
X114792501Y-93712799D01*
X114847685Y-93879331D01*
X114847686Y-93879334D01*
X114939788Y-94028656D01*
X115063844Y-94152712D01*
X115213166Y-94244814D01*
X115379703Y-94299999D01*
X115482491Y-94310500D01*
X116282508Y-94310499D01*
X116282516Y-94310498D01*
X116282519Y-94310498D01*
X116338802Y-94304748D01*
X116385297Y-94299999D01*
X116551834Y-94244814D01*
X116701156Y-94152712D01*
X116794819Y-94059049D01*
X116856142Y-94025564D01*
X116925834Y-94030548D01*
X116970181Y-94059049D01*
X117063844Y-94152712D01*
X117213166Y-94244814D01*
X117379703Y-94299999D01*
X117482491Y-94310500D01*
X118282508Y-94310499D01*
X118282516Y-94310498D01*
X118282519Y-94310498D01*
X118338802Y-94304748D01*
X118385297Y-94299999D01*
X118551834Y-94244814D01*
X118701156Y-94152712D01*
X118825212Y-94028656D01*
X118917314Y-93879334D01*
X118972499Y-93712797D01*
X118983000Y-93610009D01*
X118983000Y-93610001D01*
X119532000Y-93610001D01*
X119532001Y-93610019D01*
X119542500Y-93712796D01*
X119542501Y-93712799D01*
X119597685Y-93879331D01*
X119597686Y-93879334D01*
X119689788Y-94028656D01*
X119813844Y-94152712D01*
X119963166Y-94244814D01*
X120129703Y-94299999D01*
X120232491Y-94310500D01*
X121032508Y-94310499D01*
X121032516Y-94310498D01*
X121032519Y-94310498D01*
X121088802Y-94304748D01*
X121135297Y-94299999D01*
X121301834Y-94244814D01*
X121451156Y-94152712D01*
X121544819Y-94059049D01*
X121606142Y-94025564D01*
X121675834Y-94030548D01*
X121720181Y-94059049D01*
X121813844Y-94152712D01*
X121963166Y-94244814D01*
X122129703Y-94299999D01*
X122232491Y-94310500D01*
X123032508Y-94310499D01*
X123032516Y-94310498D01*
X123032519Y-94310498D01*
X123088802Y-94304748D01*
X123135297Y-94299999D01*
X123301834Y-94244814D01*
X123451156Y-94152712D01*
X123575212Y-94028656D01*
X123667314Y-93879334D01*
X123722499Y-93712797D01*
X123733000Y-93610009D01*
X123733000Y-93610001D01*
X124282000Y-93610001D01*
X124282001Y-93610019D01*
X124292500Y-93712796D01*
X124292501Y-93712799D01*
X124347685Y-93879331D01*
X124347686Y-93879334D01*
X124439788Y-94028656D01*
X124563844Y-94152712D01*
X124713166Y-94244814D01*
X124879703Y-94299999D01*
X124982491Y-94310500D01*
X125782508Y-94310499D01*
X125782516Y-94310498D01*
X125782519Y-94310498D01*
X125838802Y-94304748D01*
X125885297Y-94299999D01*
X126051834Y-94244814D01*
X126201156Y-94152712D01*
X126294819Y-94059049D01*
X126356142Y-94025564D01*
X126425834Y-94030548D01*
X126470181Y-94059049D01*
X126563844Y-94152712D01*
X126713166Y-94244814D01*
X126879703Y-94299999D01*
X126982491Y-94310500D01*
X127782508Y-94310499D01*
X127782516Y-94310498D01*
X127782519Y-94310498D01*
X127838802Y-94304748D01*
X127885297Y-94299999D01*
X128051834Y-94244814D01*
X128201156Y-94152712D01*
X128325212Y-94028656D01*
X128417314Y-93879334D01*
X128472499Y-93712797D01*
X128483000Y-93610009D01*
X128482999Y-92609992D01*
X128480752Y-92588000D01*
X128472499Y-92507203D01*
X128472498Y-92507200D01*
X128460165Y-92469983D01*
X128417314Y-92340666D01*
X128325212Y-92191344D01*
X128269237Y-92135369D01*
X148392000Y-92135369D01*
X148392001Y-92135376D01*
X148398408Y-92194983D01*
X148448702Y-92329828D01*
X148448706Y-92329835D01*
X148534952Y-92445044D01*
X148534955Y-92445047D01*
X148650164Y-92531293D01*
X148650171Y-92531297D01*
X148785016Y-92581591D01*
X148810919Y-92584375D01*
X148844627Y-92588000D01*
X148899033Y-92587999D01*
X148966072Y-92607682D01*
X148998300Y-92637688D01*
X149059952Y-92720044D01*
X149059955Y-92720047D01*
X149175164Y-92806293D01*
X149175171Y-92806297D01*
X149220118Y-92823061D01*
X149310017Y-92856591D01*
X149369627Y-92863000D01*
X149715372Y-92862999D01*
X149774983Y-92856591D01*
X149774986Y-92856589D01*
X149779244Y-92856132D01*
X149805754Y-92856132D01*
X149810014Y-92856589D01*
X149810017Y-92856591D01*
X149869627Y-92863000D01*
X150215372Y-92862999D01*
X150274983Y-92856591D01*
X150409831Y-92806296D01*
X150525046Y-92720046D01*
X150570281Y-92659619D01*
X150587074Y-92637188D01*
X150643008Y-92595318D01*
X150686340Y-92587500D01*
X150740328Y-92587500D01*
X150740344Y-92587499D01*
X150799872Y-92581098D01*
X150799879Y-92581096D01*
X150934586Y-92530854D01*
X150934593Y-92530850D01*
X151049687Y-92444690D01*
X151049690Y-92444687D01*
X151135850Y-92329593D01*
X151135854Y-92329586D01*
X151186096Y-92194879D01*
X151186098Y-92194872D01*
X151192499Y-92135344D01*
X151192500Y-92135327D01*
X151192500Y-92087500D01*
X150784530Y-92087500D01*
X150717491Y-92067815D01*
X150671736Y-92015011D01*
X150661240Y-91976754D01*
X150661025Y-91974754D01*
X150673432Y-91905994D01*
X150721043Y-91854858D01*
X150784315Y-91837500D01*
X151192500Y-91837500D01*
X151192500Y-91789672D01*
X151192499Y-91789658D01*
X151185628Y-91725757D01*
X151185628Y-91699243D01*
X151192499Y-91635341D01*
X151192500Y-91635327D01*
X151192500Y-91587500D01*
X151191127Y-91587500D01*
X151124088Y-91567815D01*
X151078333Y-91515011D01*
X151068389Y-91445853D01*
X151091856Y-91389195D01*
X151093353Y-91387194D01*
X151149284Y-91345321D01*
X151192472Y-91337527D01*
X151192500Y-91337500D01*
X151192500Y-91289672D01*
X151192499Y-91289660D01*
X151185880Y-91228104D01*
X151185880Y-91201590D01*
X151186590Y-91194985D01*
X151186591Y-91194983D01*
X151193000Y-91135373D01*
X151192999Y-90789628D01*
X151186591Y-90730017D01*
X151160483Y-90660019D01*
X151136297Y-90595171D01*
X151136293Y-90595164D01*
X151050047Y-90479955D01*
X151050044Y-90479952D01*
X150934835Y-90393706D01*
X150934828Y-90393702D01*
X150799982Y-90343408D01*
X150799983Y-90343408D01*
X150740383Y-90337001D01*
X150740381Y-90337000D01*
X150740373Y-90337000D01*
X150740365Y-90337000D01*
X150685965Y-90337000D01*
X150618926Y-90317315D01*
X150586698Y-90287311D01*
X150525046Y-90204954D01*
X150502209Y-90187858D01*
X150409835Y-90118706D01*
X150409828Y-90118702D01*
X150274986Y-90068410D01*
X150274985Y-90068409D01*
X150274983Y-90068409D01*
X150215373Y-90062000D01*
X150215363Y-90062000D01*
X149869630Y-90062000D01*
X149869620Y-90062001D01*
X149805748Y-90068867D01*
X149779242Y-90068867D01*
X149774983Y-90068409D01*
X149715373Y-90062000D01*
X149715365Y-90062000D01*
X149369630Y-90062000D01*
X149369623Y-90062001D01*
X149310016Y-90068408D01*
X149175171Y-90118702D01*
X149175164Y-90118706D01*
X149059955Y-90204952D01*
X148997926Y-90287812D01*
X148941992Y-90329682D01*
X148898660Y-90337500D01*
X148844655Y-90337500D01*
X148785127Y-90343901D01*
X148785120Y-90343903D01*
X148650413Y-90394145D01*
X148650406Y-90394149D01*
X148535312Y-90480309D01*
X148535309Y-90480312D01*
X148449149Y-90595406D01*
X148449145Y-90595413D01*
X148398903Y-90730120D01*
X148398901Y-90730127D01*
X148392500Y-90789655D01*
X148392500Y-90837500D01*
X148393873Y-90837500D01*
X148460912Y-90857185D01*
X148506667Y-90909989D01*
X148516611Y-90979147D01*
X148493144Y-91035805D01*
X148491647Y-91037805D01*
X148435716Y-91079679D01*
X148392527Y-91087472D01*
X148392500Y-91087500D01*
X148392500Y-91135344D01*
X148399119Y-91196898D01*
X148399120Y-91223409D01*
X148398409Y-91230014D01*
X148398409Y-91230017D01*
X148392000Y-91289627D01*
X148392000Y-91289634D01*
X148392000Y-91289635D01*
X148392000Y-91635369D01*
X148392001Y-91635379D01*
X148398867Y-91699251D01*
X148398867Y-91725757D01*
X148398409Y-91730016D01*
X148398409Y-91730017D01*
X148392000Y-91789627D01*
X148392000Y-91789632D01*
X148392000Y-91789633D01*
X148392000Y-92135369D01*
X128269237Y-92135369D01*
X128201156Y-92067288D01*
X128108388Y-92010069D01*
X128051836Y-91975187D01*
X128051831Y-91975185D01*
X128050362Y-91974698D01*
X127885297Y-91920001D01*
X127885295Y-91920000D01*
X127782510Y-91909500D01*
X126982498Y-91909500D01*
X126982480Y-91909501D01*
X126879703Y-91920000D01*
X126879700Y-91920001D01*
X126713168Y-91975185D01*
X126713163Y-91975187D01*
X126563842Y-92067289D01*
X126470181Y-92160951D01*
X126408858Y-92194436D01*
X126339166Y-92189452D01*
X126294819Y-92160951D01*
X126201157Y-92067289D01*
X126201156Y-92067288D01*
X126108388Y-92010069D01*
X126051836Y-91975187D01*
X126051831Y-91975185D01*
X126050362Y-91974698D01*
X125885297Y-91920001D01*
X125885295Y-91920000D01*
X125782510Y-91909500D01*
X124982498Y-91909500D01*
X124982480Y-91909501D01*
X124879703Y-91920000D01*
X124879700Y-91920001D01*
X124713168Y-91975185D01*
X124713163Y-91975187D01*
X124563842Y-92067289D01*
X124439789Y-92191342D01*
X124347687Y-92340663D01*
X124347686Y-92340666D01*
X124292501Y-92507203D01*
X124292501Y-92507204D01*
X124292500Y-92507204D01*
X124282000Y-92609983D01*
X124282000Y-93610001D01*
X123733000Y-93610001D01*
X123732999Y-92609992D01*
X123730752Y-92588000D01*
X123722499Y-92507203D01*
X123722498Y-92507200D01*
X123710165Y-92469983D01*
X123667314Y-92340666D01*
X123575212Y-92191344D01*
X123451156Y-92067288D01*
X123358388Y-92010069D01*
X123301836Y-91975187D01*
X123301831Y-91975185D01*
X123300362Y-91974698D01*
X123135297Y-91920001D01*
X123135295Y-91920000D01*
X123032510Y-91909500D01*
X122232498Y-91909500D01*
X122232480Y-91909501D01*
X122129703Y-91920000D01*
X122129700Y-91920001D01*
X121963168Y-91975185D01*
X121963163Y-91975187D01*
X121813842Y-92067289D01*
X121720181Y-92160951D01*
X121658858Y-92194436D01*
X121589166Y-92189452D01*
X121544819Y-92160951D01*
X121451157Y-92067289D01*
X121451156Y-92067288D01*
X121358388Y-92010069D01*
X121301836Y-91975187D01*
X121301831Y-91975185D01*
X121300362Y-91974698D01*
X121135297Y-91920001D01*
X121135295Y-91920000D01*
X121032510Y-91909500D01*
X120232498Y-91909500D01*
X120232480Y-91909501D01*
X120129703Y-91920000D01*
X120129700Y-91920001D01*
X119963168Y-91975185D01*
X119963163Y-91975187D01*
X119813842Y-92067289D01*
X119689789Y-92191342D01*
X119597687Y-92340663D01*
X119597686Y-92340666D01*
X119542501Y-92507203D01*
X119542501Y-92507204D01*
X119542500Y-92507204D01*
X119532000Y-92609983D01*
X119532000Y-93610001D01*
X118983000Y-93610001D01*
X118982999Y-92609992D01*
X118980752Y-92588000D01*
X118972499Y-92507203D01*
X118972498Y-92507200D01*
X118960165Y-92469983D01*
X118917314Y-92340666D01*
X118825212Y-92191344D01*
X118701156Y-92067288D01*
X118608388Y-92010069D01*
X118551836Y-91975187D01*
X118551831Y-91975185D01*
X118550362Y-91974698D01*
X118385297Y-91920001D01*
X118385295Y-91920000D01*
X118282510Y-91909500D01*
X117482498Y-91909500D01*
X117482480Y-91909501D01*
X117379703Y-91920000D01*
X117379700Y-91920001D01*
X117213168Y-91975185D01*
X117213163Y-91975187D01*
X117063842Y-92067289D01*
X116970181Y-92160951D01*
X116908858Y-92194436D01*
X116839166Y-92189452D01*
X116794819Y-92160951D01*
X116701157Y-92067289D01*
X116701156Y-92067288D01*
X116608388Y-92010069D01*
X116551836Y-91975187D01*
X116551831Y-91975185D01*
X116550362Y-91974698D01*
X116385297Y-91920001D01*
X116385295Y-91920000D01*
X116282510Y-91909500D01*
X115482498Y-91909500D01*
X115482480Y-91909501D01*
X115379703Y-91920000D01*
X115379700Y-91920001D01*
X115213168Y-91975185D01*
X115213163Y-91975187D01*
X115063842Y-92067289D01*
X114939789Y-92191342D01*
X114847687Y-92340663D01*
X114847686Y-92340666D01*
X114792501Y-92507203D01*
X114792501Y-92507204D01*
X114792500Y-92507204D01*
X114782000Y-92609983D01*
X114782000Y-93610001D01*
X109220500Y-93610001D01*
X109220500Y-90660001D01*
X114782000Y-90660001D01*
X114782001Y-90660019D01*
X114792500Y-90762796D01*
X114792501Y-90762799D01*
X114817255Y-90837500D01*
X114847686Y-90929334D01*
X114939788Y-91078656D01*
X115063844Y-91202712D01*
X115213166Y-91294814D01*
X115379703Y-91349999D01*
X115482491Y-91360500D01*
X116282508Y-91360499D01*
X116282516Y-91360498D01*
X116282519Y-91360498D01*
X116338802Y-91354748D01*
X116385297Y-91349999D01*
X116551834Y-91294814D01*
X116701156Y-91202712D01*
X116794819Y-91109049D01*
X116856142Y-91075564D01*
X116925834Y-91080548D01*
X116970181Y-91109049D01*
X117063844Y-91202712D01*
X117213166Y-91294814D01*
X117379703Y-91349999D01*
X117482491Y-91360500D01*
X118282508Y-91360499D01*
X118282516Y-91360498D01*
X118282519Y-91360498D01*
X118338802Y-91354748D01*
X118385297Y-91349999D01*
X118551834Y-91294814D01*
X118701156Y-91202712D01*
X118825212Y-91078656D01*
X118917314Y-90929334D01*
X118972499Y-90762797D01*
X118983000Y-90660009D01*
X118983000Y-90660001D01*
X119532000Y-90660001D01*
X119532001Y-90660019D01*
X119542500Y-90762796D01*
X119542501Y-90762799D01*
X119567255Y-90837500D01*
X119597686Y-90929334D01*
X119689788Y-91078656D01*
X119813844Y-91202712D01*
X119963166Y-91294814D01*
X120129703Y-91349999D01*
X120232491Y-91360500D01*
X121032508Y-91360499D01*
X121032516Y-91360498D01*
X121032519Y-91360498D01*
X121088802Y-91354748D01*
X121135297Y-91349999D01*
X121301834Y-91294814D01*
X121451156Y-91202712D01*
X121544819Y-91109049D01*
X121606142Y-91075564D01*
X121675834Y-91080548D01*
X121720181Y-91109049D01*
X121813844Y-91202712D01*
X121963166Y-91294814D01*
X122129703Y-91349999D01*
X122232491Y-91360500D01*
X123032508Y-91360499D01*
X123032516Y-91360498D01*
X123032519Y-91360498D01*
X123088802Y-91354748D01*
X123135297Y-91349999D01*
X123301834Y-91294814D01*
X123451156Y-91202712D01*
X123575212Y-91078656D01*
X123667314Y-90929334D01*
X123722499Y-90762797D01*
X123733000Y-90660009D01*
X123733000Y-90660001D01*
X124282000Y-90660001D01*
X124282001Y-90660019D01*
X124292500Y-90762796D01*
X124292501Y-90762799D01*
X124317255Y-90837500D01*
X124347686Y-90929334D01*
X124439788Y-91078656D01*
X124563844Y-91202712D01*
X124713166Y-91294814D01*
X124879703Y-91349999D01*
X124982491Y-91360500D01*
X125782508Y-91360499D01*
X125782516Y-91360498D01*
X125782519Y-91360498D01*
X125838802Y-91354748D01*
X125885297Y-91349999D01*
X126051834Y-91294814D01*
X126201156Y-91202712D01*
X126294819Y-91109049D01*
X126356142Y-91075564D01*
X126425834Y-91080548D01*
X126470181Y-91109049D01*
X126563844Y-91202712D01*
X126713166Y-91294814D01*
X126879703Y-91349999D01*
X126982491Y-91360500D01*
X127782508Y-91360499D01*
X127782516Y-91360498D01*
X127782519Y-91360498D01*
X127838802Y-91354748D01*
X127885297Y-91349999D01*
X128051834Y-91294814D01*
X128201156Y-91202712D01*
X128325212Y-91078656D01*
X128417314Y-90929334D01*
X128472499Y-90762797D01*
X128483000Y-90660009D01*
X128482999Y-89659992D01*
X128472499Y-89557203D01*
X128417314Y-89390666D01*
X128325212Y-89241344D01*
X128201156Y-89117288D01*
X128051834Y-89025186D01*
X127885297Y-88970001D01*
X127885295Y-88970000D01*
X127782510Y-88959500D01*
X126982498Y-88959500D01*
X126982480Y-88959501D01*
X126879703Y-88970000D01*
X126879700Y-88970001D01*
X126713168Y-89025185D01*
X126713163Y-89025187D01*
X126563842Y-89117289D01*
X126470181Y-89210951D01*
X126408858Y-89244436D01*
X126339166Y-89239452D01*
X126294819Y-89210951D01*
X126201157Y-89117289D01*
X126201156Y-89117288D01*
X126051834Y-89025186D01*
X125885297Y-88970001D01*
X125885295Y-88970000D01*
X125782510Y-88959500D01*
X124982498Y-88959500D01*
X124982480Y-88959501D01*
X124879703Y-88970000D01*
X124879700Y-88970001D01*
X124713168Y-89025185D01*
X124713163Y-89025187D01*
X124563842Y-89117289D01*
X124439789Y-89241342D01*
X124347687Y-89390663D01*
X124347686Y-89390666D01*
X124292501Y-89557203D01*
X124292501Y-89557204D01*
X124292500Y-89557204D01*
X124282000Y-89659983D01*
X124282000Y-90660001D01*
X123733000Y-90660001D01*
X123732999Y-89659992D01*
X123722499Y-89557203D01*
X123667314Y-89390666D01*
X123575212Y-89241344D01*
X123451156Y-89117288D01*
X123301834Y-89025186D01*
X123135297Y-88970001D01*
X123135295Y-88970000D01*
X123032510Y-88959500D01*
X122232498Y-88959500D01*
X122232480Y-88959501D01*
X122129703Y-88970000D01*
X122129700Y-88970001D01*
X121963168Y-89025185D01*
X121963163Y-89025187D01*
X121813842Y-89117289D01*
X121720181Y-89210951D01*
X121658858Y-89244436D01*
X121589166Y-89239452D01*
X121544819Y-89210951D01*
X121451157Y-89117289D01*
X121451156Y-89117288D01*
X121301834Y-89025186D01*
X121135297Y-88970001D01*
X121135295Y-88970000D01*
X121032510Y-88959500D01*
X120232498Y-88959500D01*
X120232480Y-88959501D01*
X120129703Y-88970000D01*
X120129700Y-88970001D01*
X119963168Y-89025185D01*
X119963163Y-89025187D01*
X119813842Y-89117289D01*
X119689789Y-89241342D01*
X119597687Y-89390663D01*
X119597686Y-89390666D01*
X119542501Y-89557203D01*
X119542501Y-89557204D01*
X119542500Y-89557204D01*
X119532000Y-89659983D01*
X119532000Y-90660001D01*
X118983000Y-90660001D01*
X118982999Y-89659992D01*
X118972499Y-89557203D01*
X118917314Y-89390666D01*
X118825212Y-89241344D01*
X118701156Y-89117288D01*
X118551834Y-89025186D01*
X118385297Y-88970001D01*
X118385295Y-88970000D01*
X118282510Y-88959500D01*
X117482498Y-88959500D01*
X117482480Y-88959501D01*
X117379703Y-88970000D01*
X117379700Y-88970001D01*
X117213168Y-89025185D01*
X117213163Y-89025187D01*
X117063842Y-89117289D01*
X116970181Y-89210951D01*
X116908858Y-89244436D01*
X116839166Y-89239452D01*
X116794819Y-89210951D01*
X116701157Y-89117289D01*
X116701156Y-89117288D01*
X116551834Y-89025186D01*
X116385297Y-88970001D01*
X116385295Y-88970000D01*
X116282510Y-88959500D01*
X115482498Y-88959500D01*
X115482480Y-88959501D01*
X115379703Y-88970000D01*
X115379700Y-88970001D01*
X115213168Y-89025185D01*
X115213163Y-89025187D01*
X115063842Y-89117289D01*
X114939789Y-89241342D01*
X114847687Y-89390663D01*
X114847686Y-89390666D01*
X114792501Y-89557203D01*
X114792501Y-89557204D01*
X114792500Y-89557204D01*
X114782000Y-89659983D01*
X114782000Y-90660001D01*
X109220500Y-90660001D01*
X109220500Y-87710001D01*
X114782000Y-87710001D01*
X114782001Y-87710019D01*
X114792500Y-87812796D01*
X114792501Y-87812799D01*
X114847685Y-87979331D01*
X114847686Y-87979334D01*
X114939788Y-88128656D01*
X115063844Y-88252712D01*
X115213166Y-88344814D01*
X115379703Y-88399999D01*
X115482491Y-88410500D01*
X116282508Y-88410499D01*
X116282516Y-88410498D01*
X116282519Y-88410498D01*
X116338802Y-88404748D01*
X116385297Y-88399999D01*
X116551834Y-88344814D01*
X116701156Y-88252712D01*
X116794819Y-88159049D01*
X116856142Y-88125564D01*
X116925834Y-88130548D01*
X116970181Y-88159049D01*
X117063844Y-88252712D01*
X117213166Y-88344814D01*
X117379703Y-88399999D01*
X117482491Y-88410500D01*
X118282508Y-88410499D01*
X118282516Y-88410498D01*
X118282519Y-88410498D01*
X118338802Y-88404748D01*
X118385297Y-88399999D01*
X118551834Y-88344814D01*
X118701156Y-88252712D01*
X118825212Y-88128656D01*
X118917314Y-87979334D01*
X118972499Y-87812797D01*
X118983000Y-87710009D01*
X118983000Y-87710001D01*
X119532000Y-87710001D01*
X119532001Y-87710019D01*
X119542500Y-87812796D01*
X119542501Y-87812799D01*
X119597685Y-87979331D01*
X119597686Y-87979334D01*
X119689788Y-88128656D01*
X119813844Y-88252712D01*
X119963166Y-88344814D01*
X120129703Y-88399999D01*
X120232491Y-88410500D01*
X121032508Y-88410499D01*
X121032516Y-88410498D01*
X121032519Y-88410498D01*
X121088802Y-88404748D01*
X121135297Y-88399999D01*
X121301834Y-88344814D01*
X121451156Y-88252712D01*
X121544819Y-88159049D01*
X121606142Y-88125564D01*
X121675834Y-88130548D01*
X121720181Y-88159049D01*
X121813844Y-88252712D01*
X121963166Y-88344814D01*
X122129703Y-88399999D01*
X122232491Y-88410500D01*
X123032508Y-88410499D01*
X123032516Y-88410498D01*
X123032519Y-88410498D01*
X123088802Y-88404748D01*
X123135297Y-88399999D01*
X123301834Y-88344814D01*
X123451156Y-88252712D01*
X123575212Y-88128656D01*
X123667314Y-87979334D01*
X123722499Y-87812797D01*
X123733000Y-87710009D01*
X123733000Y-87710001D01*
X124282000Y-87710001D01*
X124282001Y-87710019D01*
X124292500Y-87812796D01*
X124292501Y-87812799D01*
X124347685Y-87979331D01*
X124347686Y-87979334D01*
X124439788Y-88128656D01*
X124563844Y-88252712D01*
X124713166Y-88344814D01*
X124879703Y-88399999D01*
X124982491Y-88410500D01*
X125782508Y-88410499D01*
X125782516Y-88410498D01*
X125782519Y-88410498D01*
X125838802Y-88404748D01*
X125885297Y-88399999D01*
X126051834Y-88344814D01*
X126201156Y-88252712D01*
X126294819Y-88159049D01*
X126356142Y-88125564D01*
X126425834Y-88130548D01*
X126470181Y-88159049D01*
X126563844Y-88252712D01*
X126713166Y-88344814D01*
X126879703Y-88399999D01*
X126982491Y-88410500D01*
X127782508Y-88410499D01*
X127782516Y-88410498D01*
X127782519Y-88410498D01*
X127838802Y-88404748D01*
X127885297Y-88399999D01*
X128051834Y-88344814D01*
X128201156Y-88252712D01*
X128298867Y-88155001D01*
X148337000Y-88155001D01*
X148337001Y-88155019D01*
X148347500Y-88257796D01*
X148347501Y-88257799D01*
X148398102Y-88410500D01*
X148402686Y-88424334D01*
X148494788Y-88573656D01*
X148618844Y-88697712D01*
X148768166Y-88789814D01*
X148934703Y-88844999D01*
X149037491Y-88855500D01*
X149787508Y-88855499D01*
X149787516Y-88855498D01*
X149787519Y-88855498D01*
X149843802Y-88849748D01*
X149890297Y-88844999D01*
X150056834Y-88789814D01*
X150206156Y-88697712D01*
X150330212Y-88573656D01*
X150331961Y-88570819D01*
X150333669Y-88569283D01*
X150334693Y-88567989D01*
X150334914Y-88568163D01*
X150383906Y-88524096D01*
X150452868Y-88512872D01*
X150516951Y-88540713D01*
X150543037Y-88570817D01*
X150544788Y-88573656D01*
X150668844Y-88697712D01*
X150818166Y-88789814D01*
X150984703Y-88844999D01*
X151087491Y-88855500D01*
X151837508Y-88855499D01*
X151837516Y-88855498D01*
X151837519Y-88855498D01*
X151893802Y-88849748D01*
X151940297Y-88844999D01*
X152106834Y-88789814D01*
X152256156Y-88697712D01*
X152380212Y-88573656D01*
X152472314Y-88424334D01*
X152527499Y-88257797D01*
X152538000Y-88155009D01*
X152537999Y-87154992D01*
X152527499Y-87052203D01*
X152472314Y-86885666D01*
X152380212Y-86736344D01*
X152256156Y-86612288D01*
X152106834Y-86520186D01*
X151940297Y-86465001D01*
X151940295Y-86465000D01*
X151837510Y-86454500D01*
X151087498Y-86454500D01*
X151087480Y-86454501D01*
X150984703Y-86465000D01*
X150984700Y-86465001D01*
X150818168Y-86520185D01*
X150818163Y-86520187D01*
X150668842Y-86612289D01*
X150544785Y-86736346D01*
X150543037Y-86739182D01*
X150541329Y-86740717D01*
X150540307Y-86742011D01*
X150540085Y-86741836D01*
X150491089Y-86785905D01*
X150422126Y-86797126D01*
X150358044Y-86769282D01*
X150331963Y-86739182D01*
X150330214Y-86736346D01*
X150206157Y-86612289D01*
X150206156Y-86612288D01*
X150056834Y-86520186D01*
X149890297Y-86465001D01*
X149890295Y-86465000D01*
X149787510Y-86454500D01*
X149037498Y-86454500D01*
X149037480Y-86454501D01*
X148934703Y-86465000D01*
X148934700Y-86465001D01*
X148768168Y-86520185D01*
X148768163Y-86520187D01*
X148618842Y-86612289D01*
X148494789Y-86736342D01*
X148402687Y-86885663D01*
X148402686Y-86885666D01*
X148347501Y-87052203D01*
X148347501Y-87052204D01*
X148347500Y-87052204D01*
X148337000Y-87154983D01*
X148337000Y-88155001D01*
X128298867Y-88155001D01*
X128325212Y-88128656D01*
X128417314Y-87979334D01*
X128472499Y-87812797D01*
X128483000Y-87710009D01*
X128482999Y-86709992D01*
X128472499Y-86607203D01*
X128417314Y-86440666D01*
X128325212Y-86291344D01*
X128201156Y-86167288D01*
X128051834Y-86075186D01*
X127885297Y-86020001D01*
X127885295Y-86020000D01*
X127782510Y-86009500D01*
X126982498Y-86009500D01*
X126982480Y-86009501D01*
X126879703Y-86020000D01*
X126879700Y-86020001D01*
X126713168Y-86075185D01*
X126713163Y-86075187D01*
X126563842Y-86167289D01*
X126470181Y-86260951D01*
X126408858Y-86294436D01*
X126339166Y-86289452D01*
X126294819Y-86260951D01*
X126201157Y-86167289D01*
X126201156Y-86167288D01*
X126051834Y-86075186D01*
X125885297Y-86020001D01*
X125885295Y-86020000D01*
X125782510Y-86009500D01*
X124982498Y-86009500D01*
X124982480Y-86009501D01*
X124879703Y-86020000D01*
X124879700Y-86020001D01*
X124713168Y-86075185D01*
X124713163Y-86075187D01*
X124563842Y-86167289D01*
X124439789Y-86291342D01*
X124347687Y-86440663D01*
X124347685Y-86440668D01*
X124339622Y-86465000D01*
X124292501Y-86607203D01*
X124292501Y-86607204D01*
X124292500Y-86607204D01*
X124282000Y-86709983D01*
X124282000Y-87710001D01*
X123733000Y-87710001D01*
X123732999Y-86709992D01*
X123722499Y-86607203D01*
X123667314Y-86440666D01*
X123575212Y-86291344D01*
X123451156Y-86167288D01*
X123301834Y-86075186D01*
X123135297Y-86020001D01*
X123135295Y-86020000D01*
X123032510Y-86009500D01*
X122232498Y-86009500D01*
X122232480Y-86009501D01*
X122129703Y-86020000D01*
X122129700Y-86020001D01*
X121963168Y-86075185D01*
X121963163Y-86075187D01*
X121813842Y-86167289D01*
X121720181Y-86260951D01*
X121658858Y-86294436D01*
X121589166Y-86289452D01*
X121544819Y-86260951D01*
X121451157Y-86167289D01*
X121451156Y-86167288D01*
X121301834Y-86075186D01*
X121135297Y-86020001D01*
X121135295Y-86020000D01*
X121032510Y-86009500D01*
X120232498Y-86009500D01*
X120232480Y-86009501D01*
X120129703Y-86020000D01*
X120129700Y-86020001D01*
X119963168Y-86075185D01*
X119963163Y-86075187D01*
X119813842Y-86167289D01*
X119689789Y-86291342D01*
X119597687Y-86440663D01*
X119597685Y-86440668D01*
X119589622Y-86465000D01*
X119542501Y-86607203D01*
X119542501Y-86607204D01*
X119542500Y-86607204D01*
X119532000Y-86709983D01*
X119532000Y-87710001D01*
X118983000Y-87710001D01*
X118982999Y-86709992D01*
X118972499Y-86607203D01*
X118917314Y-86440666D01*
X118825212Y-86291344D01*
X118701156Y-86167288D01*
X118551834Y-86075186D01*
X118385297Y-86020001D01*
X118385295Y-86020000D01*
X118282510Y-86009500D01*
X117482498Y-86009500D01*
X117482480Y-86009501D01*
X117379703Y-86020000D01*
X117379700Y-86020001D01*
X117213168Y-86075185D01*
X117213163Y-86075187D01*
X117063842Y-86167289D01*
X116970181Y-86260951D01*
X116908858Y-86294436D01*
X116839166Y-86289452D01*
X116794819Y-86260951D01*
X116701157Y-86167289D01*
X116701156Y-86167288D01*
X116551834Y-86075186D01*
X116385297Y-86020001D01*
X116385295Y-86020000D01*
X116282510Y-86009500D01*
X115482498Y-86009500D01*
X115482480Y-86009501D01*
X115379703Y-86020000D01*
X115379700Y-86020001D01*
X115213168Y-86075185D01*
X115213163Y-86075187D01*
X115063842Y-86167289D01*
X114939789Y-86291342D01*
X114847687Y-86440663D01*
X114847685Y-86440668D01*
X114839622Y-86465000D01*
X114792501Y-86607203D01*
X114792501Y-86607204D01*
X114792500Y-86607204D01*
X114782000Y-86709983D01*
X114782000Y-87710001D01*
X109220500Y-87710001D01*
X109220500Y-84760001D01*
X114782000Y-84760001D01*
X114782001Y-84760019D01*
X114792500Y-84862796D01*
X114792501Y-84862799D01*
X114832236Y-84982709D01*
X114847686Y-85029334D01*
X114939788Y-85178656D01*
X115063844Y-85302712D01*
X115213166Y-85394814D01*
X115379703Y-85449999D01*
X115482491Y-85460500D01*
X116282508Y-85460499D01*
X116282516Y-85460498D01*
X116282519Y-85460498D01*
X116338802Y-85454748D01*
X116385297Y-85449999D01*
X116551834Y-85394814D01*
X116701156Y-85302712D01*
X116794819Y-85209049D01*
X116856142Y-85175564D01*
X116925834Y-85180548D01*
X116970181Y-85209049D01*
X117063844Y-85302712D01*
X117213166Y-85394814D01*
X117379703Y-85449999D01*
X117482491Y-85460500D01*
X118282508Y-85460499D01*
X118282516Y-85460498D01*
X118282519Y-85460498D01*
X118338802Y-85454748D01*
X118385297Y-85449999D01*
X118551834Y-85394814D01*
X118701156Y-85302712D01*
X118825212Y-85178656D01*
X118917314Y-85029334D01*
X118972499Y-84862797D01*
X118983000Y-84760009D01*
X118983000Y-84760001D01*
X119532000Y-84760001D01*
X119532001Y-84760019D01*
X119542500Y-84862796D01*
X119542501Y-84862799D01*
X119582236Y-84982709D01*
X119597686Y-85029334D01*
X119689788Y-85178656D01*
X119813844Y-85302712D01*
X119963166Y-85394814D01*
X120129703Y-85449999D01*
X120232491Y-85460500D01*
X121032508Y-85460499D01*
X121032516Y-85460498D01*
X121032519Y-85460498D01*
X121088802Y-85454748D01*
X121135297Y-85449999D01*
X121301834Y-85394814D01*
X121451156Y-85302712D01*
X121544819Y-85209049D01*
X121606142Y-85175564D01*
X121675834Y-85180548D01*
X121720181Y-85209049D01*
X121813844Y-85302712D01*
X121963166Y-85394814D01*
X122129703Y-85449999D01*
X122232491Y-85460500D01*
X123032508Y-85460499D01*
X123032516Y-85460498D01*
X123032519Y-85460498D01*
X123088802Y-85454748D01*
X123135297Y-85449999D01*
X123301834Y-85394814D01*
X123451156Y-85302712D01*
X123575212Y-85178656D01*
X123667314Y-85029334D01*
X123722499Y-84862797D01*
X123733000Y-84760009D01*
X123733000Y-84760001D01*
X124282000Y-84760001D01*
X124282001Y-84760019D01*
X124292500Y-84862796D01*
X124292501Y-84862799D01*
X124332236Y-84982709D01*
X124347686Y-85029334D01*
X124439788Y-85178656D01*
X124563844Y-85302712D01*
X124713166Y-85394814D01*
X124879703Y-85449999D01*
X124982491Y-85460500D01*
X125782508Y-85460499D01*
X125782516Y-85460498D01*
X125782519Y-85460498D01*
X125838802Y-85454748D01*
X125885297Y-85449999D01*
X126051834Y-85394814D01*
X126201156Y-85302712D01*
X126294819Y-85209049D01*
X126356142Y-85175564D01*
X126425834Y-85180548D01*
X126470181Y-85209049D01*
X126563844Y-85302712D01*
X126713166Y-85394814D01*
X126879703Y-85449999D01*
X126982491Y-85460500D01*
X127782508Y-85460499D01*
X127782516Y-85460498D01*
X127782519Y-85460498D01*
X127838802Y-85454748D01*
X127885297Y-85449999D01*
X128051834Y-85394814D01*
X128201156Y-85302712D01*
X128325212Y-85178656D01*
X128417314Y-85029334D01*
X128465693Y-84883337D01*
X148337000Y-84883337D01*
X148337001Y-84883355D01*
X148347150Y-84982707D01*
X148347151Y-84982710D01*
X148400496Y-85143694D01*
X148400501Y-85143705D01*
X148489529Y-85288040D01*
X148489532Y-85288044D01*
X148609455Y-85407967D01*
X148609459Y-85407970D01*
X148753794Y-85496998D01*
X148753797Y-85496999D01*
X148753803Y-85497003D01*
X148914792Y-85550349D01*
X149014155Y-85560500D01*
X149560844Y-85560499D01*
X149560852Y-85560498D01*
X149560855Y-85560498D01*
X149615260Y-85554940D01*
X149660208Y-85550349D01*
X149821197Y-85497003D01*
X149965544Y-85407968D01*
X150085468Y-85288044D01*
X150174503Y-85143697D01*
X150227849Y-84982708D01*
X150238000Y-84883345D01*
X150238000Y-84883337D01*
X151637000Y-84883337D01*
X151637001Y-84883355D01*
X151647150Y-84982707D01*
X151647151Y-84982710D01*
X151700496Y-85143694D01*
X151700501Y-85143705D01*
X151789529Y-85288040D01*
X151789532Y-85288044D01*
X151909455Y-85407967D01*
X151909459Y-85407970D01*
X152053794Y-85496998D01*
X152053797Y-85496999D01*
X152053803Y-85497003D01*
X152214792Y-85550349D01*
X152314155Y-85560500D01*
X152860844Y-85560499D01*
X152860852Y-85560498D01*
X152860855Y-85560498D01*
X152915260Y-85554940D01*
X152960208Y-85550349D01*
X153121197Y-85497003D01*
X153265544Y-85407968D01*
X153385468Y-85288044D01*
X153474503Y-85143697D01*
X153527849Y-84982708D01*
X153538000Y-84883345D01*
X153537999Y-84036656D01*
X153527849Y-83937292D01*
X153474503Y-83776303D01*
X153474499Y-83776297D01*
X153474498Y-83776294D01*
X153385470Y-83631959D01*
X153385467Y-83631955D01*
X153265544Y-83512032D01*
X153265540Y-83512029D01*
X153121205Y-83423001D01*
X153121199Y-83422998D01*
X153121197Y-83422997D01*
X153121194Y-83422996D01*
X152960209Y-83369651D01*
X152860846Y-83359500D01*
X152314162Y-83359500D01*
X152314144Y-83359501D01*
X152214792Y-83369650D01*
X152214789Y-83369651D01*
X152053805Y-83422996D01*
X152053794Y-83423001D01*
X151909459Y-83512029D01*
X151909455Y-83512032D01*
X151789532Y-83631955D01*
X151789529Y-83631959D01*
X151700501Y-83776294D01*
X151700496Y-83776305D01*
X151647151Y-83937290D01*
X151637000Y-84036647D01*
X151637000Y-84883337D01*
X150238000Y-84883337D01*
X150237999Y-84036656D01*
X150227849Y-83937292D01*
X150174503Y-83776303D01*
X150174499Y-83776297D01*
X150174498Y-83776294D01*
X150085470Y-83631959D01*
X150085467Y-83631955D01*
X149965544Y-83512032D01*
X149965540Y-83512029D01*
X149821205Y-83423001D01*
X149821199Y-83422998D01*
X149821197Y-83422997D01*
X149821194Y-83422996D01*
X149660209Y-83369651D01*
X149560846Y-83359500D01*
X149014162Y-83359500D01*
X149014144Y-83359501D01*
X148914792Y-83369650D01*
X148914789Y-83369651D01*
X148753805Y-83422996D01*
X148753794Y-83423001D01*
X148609459Y-83512029D01*
X148609455Y-83512032D01*
X148489532Y-83631955D01*
X148489529Y-83631959D01*
X148400501Y-83776294D01*
X148400496Y-83776305D01*
X148347151Y-83937290D01*
X148337000Y-84036647D01*
X148337000Y-84883337D01*
X128465693Y-84883337D01*
X128472499Y-84862797D01*
X128483000Y-84760009D01*
X128482999Y-83759992D01*
X128472499Y-83657203D01*
X128417314Y-83490666D01*
X128325212Y-83341344D01*
X128201156Y-83217288D01*
X128051834Y-83125186D01*
X127885297Y-83070001D01*
X127885295Y-83070000D01*
X127782510Y-83059500D01*
X126982498Y-83059500D01*
X126982480Y-83059501D01*
X126879703Y-83070000D01*
X126879700Y-83070001D01*
X126713168Y-83125185D01*
X126713163Y-83125187D01*
X126563842Y-83217289D01*
X126470181Y-83310951D01*
X126408858Y-83344436D01*
X126339166Y-83339452D01*
X126294819Y-83310951D01*
X126201157Y-83217289D01*
X126201156Y-83217288D01*
X126051834Y-83125186D01*
X125885297Y-83070001D01*
X125885295Y-83070000D01*
X125782510Y-83059500D01*
X124982498Y-83059500D01*
X124982480Y-83059501D01*
X124879703Y-83070000D01*
X124879700Y-83070001D01*
X124713168Y-83125185D01*
X124713163Y-83125187D01*
X124563842Y-83217289D01*
X124439789Y-83341342D01*
X124347687Y-83490663D01*
X124347686Y-83490666D01*
X124292501Y-83657203D01*
X124292501Y-83657204D01*
X124292500Y-83657204D01*
X124282000Y-83759983D01*
X124282000Y-84760001D01*
X123733000Y-84760001D01*
X123732999Y-83759992D01*
X123722499Y-83657203D01*
X123667314Y-83490666D01*
X123575212Y-83341344D01*
X123451156Y-83217288D01*
X123301834Y-83125186D01*
X123135297Y-83070001D01*
X123135295Y-83070000D01*
X123032510Y-83059500D01*
X122232498Y-83059500D01*
X122232480Y-83059501D01*
X122129703Y-83070000D01*
X122129700Y-83070001D01*
X121963168Y-83125185D01*
X121963163Y-83125187D01*
X121813842Y-83217289D01*
X121720181Y-83310951D01*
X121658858Y-83344436D01*
X121589166Y-83339452D01*
X121544819Y-83310951D01*
X121451157Y-83217289D01*
X121451156Y-83217288D01*
X121301834Y-83125186D01*
X121135297Y-83070001D01*
X121135295Y-83070000D01*
X121032510Y-83059500D01*
X120232498Y-83059500D01*
X120232480Y-83059501D01*
X120129703Y-83070000D01*
X120129700Y-83070001D01*
X119963168Y-83125185D01*
X119963163Y-83125187D01*
X119813842Y-83217289D01*
X119689789Y-83341342D01*
X119597687Y-83490663D01*
X119597686Y-83490666D01*
X119542501Y-83657203D01*
X119542501Y-83657204D01*
X119542500Y-83657204D01*
X119532000Y-83759983D01*
X119532000Y-84760001D01*
X118983000Y-84760001D01*
X118982999Y-83759992D01*
X118972499Y-83657203D01*
X118917314Y-83490666D01*
X118825212Y-83341344D01*
X118701156Y-83217288D01*
X118551834Y-83125186D01*
X118385297Y-83070001D01*
X118385295Y-83070000D01*
X118282510Y-83059500D01*
X117482498Y-83059500D01*
X117482480Y-83059501D01*
X117379703Y-83070000D01*
X117379700Y-83070001D01*
X117213168Y-83125185D01*
X117213163Y-83125187D01*
X117063842Y-83217289D01*
X116970181Y-83310951D01*
X116908858Y-83344436D01*
X116839166Y-83339452D01*
X116794819Y-83310951D01*
X116701157Y-83217289D01*
X116701156Y-83217288D01*
X116551834Y-83125186D01*
X116385297Y-83070001D01*
X116385295Y-83070000D01*
X116282510Y-83059500D01*
X115482498Y-83059500D01*
X115482480Y-83059501D01*
X115379703Y-83070000D01*
X115379700Y-83070001D01*
X115213168Y-83125185D01*
X115213163Y-83125187D01*
X115063842Y-83217289D01*
X114939789Y-83341342D01*
X114847687Y-83490663D01*
X114847686Y-83490666D01*
X114792501Y-83657203D01*
X114792501Y-83657204D01*
X114792500Y-83657204D01*
X114782000Y-83759983D01*
X114782000Y-84760001D01*
X109220500Y-84760001D01*
X109220500Y-73784712D01*
X109240185Y-73717673D01*
X109292989Y-73671918D01*
X109344708Y-73660712D01*
X132675343Y-73700457D01*
X132675559Y-73700500D01*
X132699901Y-73700500D01*
X132700098Y-73700500D01*
X132700999Y-73700500D01*
X132768038Y-73720185D01*
X132813793Y-73772989D01*
X132823737Y-73842147D01*
X132800265Y-73898810D01*
X132780238Y-73925562D01*
X132756204Y-73957668D01*
X132756202Y-73957671D01*
X132705908Y-74092517D01*
X132699501Y-74152116D01*
X132699501Y-74152123D01*
X132699500Y-74152135D01*
X132699500Y-78247870D01*
X132699501Y-78247876D01*
X132705908Y-78307483D01*
X132756202Y-78442328D01*
X132756206Y-78442335D01*
X132842452Y-78557544D01*
X132842455Y-78557547D01*
X132957664Y-78643793D01*
X132957671Y-78643797D01*
X133092517Y-78694091D01*
X133092516Y-78694091D01*
X133099444Y-78694835D01*
X133152127Y-78700500D01*
X134247872Y-78700499D01*
X134307483Y-78694091D01*
X134442331Y-78643796D01*
X134557546Y-78557546D01*
X134600734Y-78499854D01*
X134656667Y-78457984D01*
X134726359Y-78453000D01*
X134787682Y-78486485D01*
X134799263Y-78499850D01*
X134842454Y-78557546D01*
X134888643Y-78592123D01*
X134957664Y-78643793D01*
X134957671Y-78643797D01*
X135092517Y-78694091D01*
X135092516Y-78694091D01*
X135099444Y-78694835D01*
X135152127Y-78700500D01*
X136247872Y-78700499D01*
X136307483Y-78694091D01*
X136442331Y-78643796D01*
X136557546Y-78557546D01*
X136600734Y-78499854D01*
X136656667Y-78457984D01*
X136726359Y-78453000D01*
X136787682Y-78486485D01*
X136799263Y-78499850D01*
X136842454Y-78557546D01*
X136888643Y-78592123D01*
X136957664Y-78643793D01*
X136957671Y-78643797D01*
X137092517Y-78694091D01*
X137092516Y-78694091D01*
X137099444Y-78694835D01*
X137152127Y-78700500D01*
X138247872Y-78700499D01*
X138307483Y-78694091D01*
X138442331Y-78643796D01*
X138557546Y-78557546D01*
X138600734Y-78499854D01*
X138656667Y-78457984D01*
X138726359Y-78453000D01*
X138787682Y-78486485D01*
X138799263Y-78499850D01*
X138842454Y-78557546D01*
X138888643Y-78592123D01*
X138957664Y-78643793D01*
X138957671Y-78643797D01*
X139092517Y-78694091D01*
X139092516Y-78694091D01*
X139099444Y-78694835D01*
X139152127Y-78700500D01*
X140247872Y-78700499D01*
X140307483Y-78694091D01*
X140442331Y-78643796D01*
X140557546Y-78557546D01*
X140600734Y-78499854D01*
X140656667Y-78457984D01*
X140726359Y-78453000D01*
X140787682Y-78486485D01*
X140799263Y-78499850D01*
X140842454Y-78557546D01*
X140888643Y-78592123D01*
X140957664Y-78643793D01*
X140957671Y-78643797D01*
X141092517Y-78694091D01*
X141092516Y-78694091D01*
X141099444Y-78694835D01*
X141152127Y-78700500D01*
X142247872Y-78700499D01*
X142307483Y-78694091D01*
X142442331Y-78643796D01*
X142557546Y-78557546D01*
X142643796Y-78442331D01*
X142694091Y-78307483D01*
X142700500Y-78247873D01*
X142700499Y-74152128D01*
X142694091Y-74092517D01*
X142643796Y-73957669D01*
X142599734Y-73898810D01*
X142575317Y-73833348D01*
X142590168Y-73765075D01*
X142639573Y-73715669D01*
X142699001Y-73700500D01*
X142750591Y-73700500D01*
X142751337Y-73700416D01*
X167515301Y-73660699D01*
X167582372Y-73680276D01*
G37*
%TD.AperFunction*%
%TD*%
M02*
