%TF.GenerationSoftware,KiCad,Pcbnew,7.0.8-7.0.8~ubuntu22.04.1*%
%TF.CreationDate,2023-10-22T09:32:13-04:00*%
%TF.ProjectId,DDRN_Hardware,4444524e-5f48-4617-9264-776172652e6b,rev?*%
%TF.SameCoordinates,Original*%
%TF.FileFunction,Copper,L2,Bot*%
%TF.FilePolarity,Positive*%
%FSLAX46Y46*%
G04 Gerber Fmt 4.6, Leading zero omitted, Abs format (unit mm)*
G04 Created by KiCad (PCBNEW 7.0.8-7.0.8~ubuntu22.04.1) date 2023-10-22 09:32:13*
%MOMM*%
%LPD*%
G01*
G04 APERTURE LIST*
%TA.AperFunction,SMDPad,CuDef*%
%ADD10R,1.000000X4.000000*%
%TD*%
%TA.AperFunction,ComponentPad*%
%ADD11R,1.500000X1.500000*%
%TD*%
%TA.AperFunction,ComponentPad*%
%ADD12C,1.500000*%
%TD*%
%TA.AperFunction,ViaPad*%
%ADD13C,0.800000*%
%TD*%
%TA.AperFunction,Conductor*%
%ADD14C,0.200000*%
%TD*%
%TA.AperFunction,Conductor*%
%ADD15C,0.250000*%
%TD*%
G04 APERTURE END LIST*
D10*
%TO.P,J8,6,Pin_6*%
%TO.N,GND*%
X76290000Y-93935000D03*
%TO.P,J8,7,Pin_7*%
%TO.N,/USB_RX*%
X74290000Y-93935000D03*
%TO.P,J8,8,Pin_8*%
%TO.N,/USB_TX*%
X72290000Y-93935000D03*
%TO.P,J8,9,Pin_9*%
%TO.N,/RST*%
X70290000Y-93935000D03*
%TO.P,J8,10,Pin_10*%
%TO.N,/3v3*%
X68290000Y-93935000D03*
%TD*%
D11*
%TO.P,J5,1,Pin_1*%
%TO.N,/3v3*%
X56462500Y-141750000D03*
D12*
%TO.P,J5,2,Pin_2*%
%TO.N,/SiPM_Temp*%
X57462500Y-143750000D03*
%TO.P,J5,3,Pin_3*%
%TO.N,/SiPM_Bias*%
X58462500Y-141750000D03*
%TO.P,J5,4,Pin_4*%
%TO.N,GND*%
X59462500Y-143750000D03*
%TO.P,J5,5,Pin_5*%
%TO.N,/SiPM_Signal*%
X60462500Y-141750000D03*
%TO.P,J5,6,Pin_6*%
%TO.N,/V_BAT*%
X61462500Y-143750000D03*
%TD*%
%TO.P,J4,4,Pin_4*%
%TO.N,/Anneal_Enable*%
X70262500Y-143750000D03*
%TO.P,J4,3,Pin_3*%
%TO.N,/Stim_Enable*%
X69262500Y-141750000D03*
%TO.P,J4,2,Pin_2*%
%TO.N,GND*%
X68262500Y-143750000D03*
D11*
%TO.P,J4,1,Pin_1*%
%TO.N,/V_BAT*%
X67262500Y-141750000D03*
%TD*%
D13*
%TO.N,GND*%
X67662500Y-119650000D03*
%TO.N,/3v3*%
X69162500Y-118150000D03*
X61262500Y-118950000D03*
%TO.N,GND*%
X80462500Y-125350000D03*
X56062500Y-105650000D03*
%TO.N,/3v3*%
X68362500Y-99450000D03*
X57762500Y-109350000D03*
X58862500Y-121850000D03*
%TO.N,GND*%
X68300000Y-106700000D03*
X72200000Y-124950000D03*
X75400000Y-111700000D03*
X84400000Y-121300000D03*
X75550000Y-123350000D03*
X60462500Y-135150000D03*
%TO.N,/SiPM_Temp*%
X70650000Y-110800000D03*
%TO.N,/SiPM_Signal*%
X70250000Y-112400000D03*
%TO.N,/MISO*%
X68100000Y-113250000D03*
%TO.N,/ACCEL_INT*%
X69250000Y-106000000D03*
%TO.N,/Stim_Enable*%
X71150000Y-117350000D03*
%TO.N,/Anneal_Enable*%
X72250000Y-117350000D03*
%TO.N,GND*%
X67624258Y-116860856D03*
X79600000Y-117000000D03*
%TO.N,/SCL*%
X81950000Y-117850000D03*
X79675000Y-107950000D03*
X74250000Y-122600000D03*
%TO.N,/SDA*%
X79550000Y-106650000D03*
X75850000Y-121000000D03*
X81225000Y-121000000D03*
%TO.N,/ACCEL_INT*%
X71664950Y-119925000D03*
%TO.N,GND*%
X76050000Y-118100000D03*
X63150000Y-106700000D03*
%TO.N,/SWDIO*%
X75900000Y-110400000D03*
X73200000Y-96750000D03*
%TO.N,/SWCLK*%
X75900000Y-109200000D03*
X71192111Y-96751456D03*
%TO.N,/USB_RX*%
X74346971Y-96777794D03*
%TO.N,/USB_TX*%
X72191988Y-96767294D03*
%TO.N,/RST*%
X70193930Y-96691140D03*
%TO.N,/MISO*%
X61700000Y-114450000D03*
%TO.N,/MOSI*%
X63850000Y-113700000D03*
X70550000Y-105150000D03*
%TO.N,/Bias_CS*%
X65250113Y-119550000D03*
X65016958Y-121999504D03*
%TO.N,/SCK*%
X58050000Y-117750000D03*
X63800000Y-121822120D03*
%TO.N,/MOSI*%
X62712347Y-121759773D03*
X56962500Y-117750000D03*
%TD*%
D14*
%TO.N,/3v3*%
X58862500Y-121850000D02*
X56462500Y-124250000D01*
X56462500Y-124250000D02*
X56462500Y-141750000D01*
%TO.N,/SiPM_Temp*%
X58512500Y-144800000D02*
X70062500Y-144800000D01*
X71312500Y-144250000D02*
X70762500Y-144800000D01*
X70937580Y-119662420D02*
X70937580Y-142946824D01*
X70937580Y-142946824D02*
X71312500Y-143321744D01*
X71312500Y-143321744D02*
X71312500Y-144250000D01*
X70762500Y-144800000D02*
X70062500Y-144800000D01*
X57462500Y-143750000D02*
X58512500Y-144800000D01*
%TO.N,/Anneal_Enable*%
X70262500Y-143750000D02*
X70450000Y-143562500D01*
X70450000Y-143562500D02*
X70450000Y-119284314D01*
%TO.N,/SiPM_Signal*%
X69600000Y-138100000D02*
X69600000Y-137950000D01*
X69600000Y-137950000D02*
X69600000Y-119002943D01*
X60462500Y-141750000D02*
X61512500Y-140700000D01*
X61512500Y-140700000D02*
X68612500Y-140700000D01*
X68612500Y-140700000D02*
X69600000Y-139712500D01*
X69600000Y-139712500D02*
X69600000Y-137950000D01*
%TO.N,/Stim_Enable*%
X69262500Y-141750000D02*
X70050000Y-140962500D01*
X70050000Y-140962500D02*
X70050000Y-119118629D01*
X70050000Y-119118629D02*
X71150000Y-118018629D01*
X71150000Y-118018629D02*
X71150000Y-117350000D01*
D15*
%TO.N,/3v3*%
X62062500Y-118150000D02*
X61262500Y-118950000D01*
X69162500Y-118150000D02*
X62062500Y-118150000D01*
D14*
X68290000Y-93935000D02*
X68290000Y-99377500D01*
X68290000Y-99377500D02*
X68362500Y-99450000D01*
X57762500Y-109350000D02*
X67662500Y-99450000D01*
X67662500Y-99450000D02*
X68362500Y-99450000D01*
D15*
%TO.N,/MOSI*%
X56962500Y-118162500D02*
X56962500Y-117750000D01*
D14*
%TO.N,/3v3*%
X56262500Y-110850000D02*
X57762500Y-109350000D01*
D15*
%TO.N,/MOSI*%
X62712347Y-121759773D02*
X60559773Y-121759773D01*
D14*
%TO.N,/3v3*%
X56262500Y-119250000D02*
X56262500Y-110850000D01*
D15*
%TO.N,/MOSI*%
X60559773Y-121759773D02*
X56962500Y-118162500D01*
D14*
%TO.N,/3v3*%
X58862500Y-121850000D02*
X56262500Y-119250000D01*
%TO.N,/SiPM_Signal*%
X69600000Y-119002943D02*
X70250000Y-118352943D01*
%TO.N,/SiPM_Temp*%
X70937580Y-119662420D02*
X73300000Y-117300000D01*
X73300000Y-117300000D02*
X73300000Y-113450000D01*
X73300000Y-113450000D02*
X70650000Y-110800000D01*
%TO.N,/ACCEL_INT*%
X74150000Y-117300000D02*
X71664950Y-119785050D01*
X71664950Y-119785050D02*
X71664950Y-119925000D01*
%TO.N,/Anneal_Enable*%
X72250000Y-117350000D02*
X72250000Y-117484314D01*
%TO.N,/ACCEL_INT*%
X74150000Y-113200000D02*
X74150000Y-117300000D01*
X69250000Y-106000000D02*
X69250000Y-108300000D01*
%TO.N,/SiPM_Signal*%
X70250000Y-112400000D02*
X70250000Y-118352943D01*
%TO.N,/ACCEL_INT*%
X69250000Y-108300000D02*
X74150000Y-113200000D01*
%TO.N,/Anneal_Enable*%
X72250000Y-117484314D02*
X70450000Y-119284314D01*
D15*
%TO.N,/MISO*%
X61700000Y-114450000D02*
X66900000Y-114450000D01*
X66900000Y-114450000D02*
X68100000Y-113250000D01*
%TO.N,/MOSI*%
X69074695Y-105150000D02*
X70550000Y-105150000D01*
X63850000Y-113700000D02*
X63850000Y-110374695D01*
X63850000Y-110374695D02*
X69074695Y-105150000D01*
%TO.N,/Bias_CS*%
X65016958Y-121999504D02*
X65016958Y-119783155D01*
X65016958Y-119783155D02*
X65250113Y-119550000D01*
%TO.N,/SDA*%
X78950000Y-107250000D02*
X78950000Y-113800000D01*
X79550000Y-106650000D02*
X78950000Y-107250000D01*
X78950000Y-113800000D02*
X81200000Y-116050000D01*
%TO.N,/SCL*%
X81950000Y-121550000D02*
X80900000Y-122600000D01*
%TO.N,/SDA*%
X81200000Y-116050000D02*
X81200000Y-120975000D01*
X81200000Y-120975000D02*
X81225000Y-121000000D01*
D14*
X75850000Y-121000000D02*
X77900000Y-121000000D01*
X77900000Y-121000000D02*
X81225000Y-121000000D01*
D15*
%TO.N,/SCL*%
X81950000Y-117850000D02*
X81950000Y-121550000D01*
X79550000Y-113600000D02*
X81950000Y-116000000D01*
X81950000Y-116000000D02*
X81950000Y-117850000D01*
X79550000Y-113600000D02*
X79550000Y-108075000D01*
X79550000Y-108075000D02*
X79675000Y-107950000D01*
X74250000Y-122600000D02*
X80900000Y-122600000D01*
%TO.N,/SWCLK*%
X72089027Y-97492294D02*
X71891683Y-97492294D01*
%TO.N,/SWDIO*%
X76650000Y-100200000D02*
X76650000Y-107450000D01*
%TO.N,/USB_RX*%
X74290000Y-96720823D02*
X74346971Y-96777794D01*
%TO.N,/USB_TX*%
X72290000Y-96669282D02*
X72191988Y-96767294D01*
%TO.N,/SWCLK*%
X71348189Y-96751456D02*
X71192111Y-96751456D01*
%TO.N,/SWDIO*%
X73200000Y-96750000D02*
X76650000Y-100200000D01*
X76650000Y-107450000D02*
X76650000Y-109650000D01*
%TO.N,/SWCLK*%
X71466988Y-96870255D02*
X71348189Y-96751456D01*
X75900000Y-101303267D02*
X72089027Y-97492294D01*
%TO.N,/USB_TX*%
X72290000Y-93935000D02*
X72290000Y-96669282D01*
%TO.N,/SWCLK*%
X71891683Y-97492294D02*
X71466988Y-97067599D01*
X75900000Y-109200000D02*
X75900000Y-101303267D01*
%TO.N,/SWDIO*%
X76650000Y-109650000D02*
X75900000Y-110400000D01*
%TO.N,/USB_RX*%
X74290000Y-93935000D02*
X74290000Y-96720823D01*
%TO.N,/RST*%
X70290000Y-93935000D02*
X70290000Y-96595070D01*
%TO.N,/SWCLK*%
X71466988Y-97067599D02*
X71466988Y-96870255D01*
%TO.N,/RST*%
X70290000Y-96595070D02*
X70193930Y-96691140D01*
%TO.N,/SCK*%
X62777880Y-120800000D02*
X63800000Y-121822120D01*
X58050000Y-118600000D02*
X60250000Y-120800000D01*
X58050000Y-117750000D02*
X58050000Y-118600000D01*
X60250000Y-120800000D02*
X62777880Y-120800000D01*
%TD*%
%TA.AperFunction,Conductor*%
%TO.N,GND*%
G36*
X67347183Y-91469685D02*
G01*
X67392938Y-91522489D01*
X67402882Y-91591647D01*
X67379410Y-91648311D01*
X67376997Y-91651535D01*
X67346204Y-91692668D01*
X67346202Y-91692671D01*
X67295908Y-91827517D01*
X67289501Y-91887116D01*
X67289500Y-91887135D01*
X67289500Y-95982870D01*
X67289501Y-95982876D01*
X67295908Y-96042483D01*
X67346202Y-96177328D01*
X67346206Y-96177335D01*
X67432452Y-96292544D01*
X67432455Y-96292547D01*
X67547664Y-96378793D01*
X67547669Y-96378796D01*
X67608833Y-96401608D01*
X67664766Y-96443478D01*
X67689184Y-96508942D01*
X67689500Y-96517790D01*
X67689500Y-98732018D01*
X67669815Y-98799057D01*
X67617011Y-98844812D01*
X67581686Y-98854957D01*
X67526787Y-98862184D01*
X67505738Y-98864956D01*
X67505737Y-98864956D01*
X67359657Y-98925464D01*
X67234219Y-99021716D01*
X67212519Y-99049994D01*
X67207168Y-99056096D01*
X57850084Y-108413181D01*
X57788761Y-108446666D01*
X57762403Y-108449500D01*
X57667854Y-108449500D01*
X57635397Y-108456398D01*
X57482697Y-108488855D01*
X57482692Y-108488857D01*
X57309770Y-108565848D01*
X57309765Y-108565851D01*
X57156629Y-108677111D01*
X57029966Y-108817785D01*
X56935321Y-108981715D01*
X56935318Y-108981722D01*
X56876827Y-109161740D01*
X56876826Y-109161744D01*
X56857040Y-109350000D01*
X56857040Y-109350002D01*
X56857040Y-109354862D01*
X56837355Y-109421901D01*
X56820721Y-109442543D01*
X55868596Y-110394668D01*
X55862494Y-110400019D01*
X55834220Y-110421715D01*
X55745350Y-110537533D01*
X55737963Y-110547160D01*
X55677456Y-110693237D01*
X55677455Y-110693239D01*
X55656818Y-110849998D01*
X55656818Y-110849999D01*
X55661469Y-110885326D01*
X55662000Y-110893428D01*
X55662000Y-119206571D01*
X55661469Y-119214673D01*
X55656818Y-119249999D01*
X55656818Y-119250000D01*
X55662000Y-119289360D01*
X55677455Y-119406760D01*
X55677456Y-119406762D01*
X55737964Y-119552841D01*
X55834218Y-119678282D01*
X55862495Y-119699980D01*
X55868585Y-119705320D01*
X56949407Y-120786142D01*
X57920721Y-121757456D01*
X57954206Y-121818779D01*
X57957040Y-121845137D01*
X57957040Y-121854862D01*
X57937355Y-121921901D01*
X57920721Y-121942543D01*
X56068596Y-123794668D01*
X56062493Y-123800020D01*
X56034219Y-123821716D01*
X56010050Y-123853215D01*
X55937961Y-123947162D01*
X55937961Y-123947163D01*
X55877457Y-124093234D01*
X55877455Y-124093239D01*
X55856818Y-124249998D01*
X55856818Y-124249999D01*
X55861469Y-124285326D01*
X55862000Y-124293428D01*
X55862000Y-140375500D01*
X55842315Y-140442539D01*
X55789511Y-140488294D01*
X55738002Y-140499500D01*
X55664630Y-140499500D01*
X55664623Y-140499501D01*
X55605016Y-140505908D01*
X55470171Y-140556202D01*
X55470164Y-140556206D01*
X55354955Y-140642452D01*
X55354952Y-140642455D01*
X55268706Y-140757664D01*
X55268702Y-140757671D01*
X55218408Y-140892517D01*
X55212001Y-140952116D01*
X55212000Y-140952135D01*
X55212000Y-142547870D01*
X55212001Y-142547876D01*
X55218408Y-142607483D01*
X55268702Y-142742328D01*
X55268706Y-142742335D01*
X55354952Y-142857544D01*
X55354955Y-142857547D01*
X55470164Y-142943793D01*
X55470171Y-142943797D01*
X55605017Y-142994091D01*
X55605016Y-142994091D01*
X55611944Y-142994835D01*
X55664627Y-143000500D01*
X56237582Y-143000499D01*
X56304621Y-143020183D01*
X56350376Y-143072987D01*
X56360320Y-143142146D01*
X56349964Y-143176903D01*
X56282927Y-143320663D01*
X56282922Y-143320677D01*
X56226293Y-143532020D01*
X56226293Y-143532023D01*
X56207223Y-143750000D01*
X56224526Y-143947785D01*
X56226293Y-143967975D01*
X56226293Y-143967979D01*
X56282922Y-144179322D01*
X56282924Y-144179326D01*
X56282925Y-144179330D01*
X56315879Y-144250000D01*
X56375397Y-144377638D01*
X56381409Y-144386224D01*
X56500902Y-144556877D01*
X56655623Y-144711598D01*
X56834861Y-144837102D01*
X57033170Y-144929575D01*
X57244523Y-144986207D01*
X57414950Y-145001117D01*
X57462498Y-145005277D01*
X57462500Y-145005277D01*
X57462502Y-145005277D01*
X57490754Y-145002805D01*
X57680477Y-144986207D01*
X57744608Y-144969023D01*
X57814457Y-144970686D01*
X57864382Y-145001117D01*
X58057169Y-145193904D01*
X58062520Y-145200005D01*
X58071310Y-145211460D01*
X58084218Y-145228282D01*
X58089965Y-145234029D01*
X58088685Y-145235308D01*
X58123913Y-145283555D01*
X58128066Y-145353301D01*
X58093853Y-145414220D01*
X58032135Y-145446972D01*
X58007223Y-145449500D01*
X55602214Y-145449500D01*
X55597791Y-145449342D01*
X55564655Y-145446972D01*
X55530373Y-145444520D01*
X55383361Y-145432949D01*
X55375038Y-145431722D01*
X55280272Y-145411107D01*
X55163786Y-145383141D01*
X55156586Y-145380943D01*
X55060269Y-145345019D01*
X54954135Y-145301056D01*
X54948144Y-145298190D01*
X54857086Y-145248469D01*
X54854405Y-145246916D01*
X54759110Y-145188520D01*
X54754347Y-145185288D01*
X54670574Y-145122576D01*
X54667471Y-145120094D01*
X54583061Y-145048001D01*
X54579485Y-145044695D01*
X54505303Y-144970513D01*
X54501997Y-144966937D01*
X54501992Y-144966931D01*
X54429898Y-144882520D01*
X54427430Y-144879434D01*
X54364701Y-144795638D01*
X54361487Y-144790901D01*
X54303079Y-144695588D01*
X54301546Y-144692943D01*
X54251802Y-144601841D01*
X54248945Y-144595870D01*
X54204983Y-144489737D01*
X54169052Y-144393404D01*
X54166860Y-144386224D01*
X54138900Y-144269764D01*
X54118275Y-144174953D01*
X54117051Y-144166651D01*
X54105480Y-144019626D01*
X54100658Y-143952211D01*
X54100500Y-143947787D01*
X54100500Y-94917763D01*
X55308287Y-94917763D01*
X55337913Y-95187013D01*
X55337915Y-95187024D01*
X55406426Y-95449082D01*
X55406428Y-95449088D01*
X55512370Y-95698390D01*
X55584498Y-95816575D01*
X55653479Y-95929605D01*
X55653486Y-95929615D01*
X55826753Y-96137819D01*
X55826759Y-96137824D01*
X55931740Y-96231887D01*
X56028498Y-96318582D01*
X56254410Y-96468044D01*
X56499676Y-96583020D01*
X56499683Y-96583022D01*
X56499685Y-96583023D01*
X56759057Y-96661057D01*
X56759064Y-96661058D01*
X56759069Y-96661060D01*
X57027061Y-96700500D01*
X57027066Y-96700500D01*
X57230136Y-96700500D01*
X57281633Y-96696730D01*
X57432656Y-96685677D01*
X57545258Y-96660593D01*
X57697046Y-96626782D01*
X57697048Y-96626781D01*
X57697053Y-96626780D01*
X57950058Y-96530014D01*
X58186277Y-96397441D01*
X58400677Y-96231888D01*
X58588686Y-96036881D01*
X58746299Y-95816579D01*
X58820287Y-95672669D01*
X58870149Y-95575690D01*
X58870151Y-95575684D01*
X58870156Y-95575675D01*
X58957618Y-95319305D01*
X59006819Y-95052933D01*
X59016712Y-94782235D01*
X58987086Y-94512982D01*
X58918572Y-94250912D01*
X58812630Y-94001610D01*
X58671518Y-93770390D01*
X58582247Y-93663119D01*
X58498246Y-93562180D01*
X58498240Y-93562175D01*
X58296502Y-93381418D01*
X58070592Y-93231957D01*
X58070590Y-93231956D01*
X57825324Y-93116980D01*
X57825319Y-93116978D01*
X57825314Y-93116976D01*
X57565942Y-93038942D01*
X57565928Y-93038939D01*
X57450291Y-93021921D01*
X57297939Y-92999500D01*
X57094869Y-92999500D01*
X57094864Y-92999500D01*
X56892344Y-93014323D01*
X56892331Y-93014325D01*
X56627953Y-93073217D01*
X56627946Y-93073220D01*
X56374939Y-93169987D01*
X56138726Y-93302557D01*
X55924322Y-93468112D01*
X55736322Y-93663109D01*
X55736316Y-93663116D01*
X55578702Y-93883419D01*
X55578699Y-93883424D01*
X55454850Y-94124309D01*
X55454843Y-94124327D01*
X55367384Y-94380685D01*
X55367381Y-94380699D01*
X55318181Y-94647068D01*
X55318180Y-94647075D01*
X55308287Y-94917763D01*
X54100500Y-94917763D01*
X54100500Y-92952212D01*
X54100658Y-92947788D01*
X54105480Y-92880373D01*
X54106282Y-92870170D01*
X54117051Y-92733344D01*
X54118275Y-92725051D01*
X54138902Y-92630231D01*
X54166862Y-92513766D01*
X54169049Y-92506604D01*
X54204989Y-92410246D01*
X54248951Y-92304114D01*
X54251794Y-92298172D01*
X54301566Y-92207021D01*
X54303058Y-92204446D01*
X54361499Y-92109077D01*
X54364687Y-92104380D01*
X54427458Y-92020527D01*
X54429873Y-92017508D01*
X54502020Y-91933036D01*
X54505278Y-91929511D01*
X54579511Y-91855278D01*
X54583036Y-91852020D01*
X54667508Y-91779873D01*
X54670527Y-91777458D01*
X54754380Y-91714687D01*
X54759077Y-91711499D01*
X54854446Y-91653058D01*
X54857021Y-91651566D01*
X54948172Y-91601794D01*
X54954114Y-91598951D01*
X55060246Y-91554989D01*
X55156604Y-91519049D01*
X55163766Y-91516862D01*
X55280243Y-91488899D01*
X55375051Y-91468275D01*
X55383344Y-91467051D01*
X55530235Y-91455489D01*
X55597792Y-91450657D01*
X55602213Y-91450500D01*
X55651171Y-91450500D01*
X55651767Y-91450433D01*
X55989400Y-91450000D01*
X67280144Y-91450000D01*
X67347183Y-91469685D01*
G37*
%TD.AperFunction*%
%TA.AperFunction,Conductor*%
G36*
X84548287Y-91450392D02*
G01*
X84548649Y-91450500D01*
X84597787Y-91450500D01*
X84602207Y-91450657D01*
X84669755Y-91455489D01*
X84816644Y-91467049D01*
X84824947Y-91468274D01*
X84919760Y-91488899D01*
X85036225Y-91516860D01*
X85043401Y-91519051D01*
X85139737Y-91554983D01*
X85207007Y-91582847D01*
X85245856Y-91598939D01*
X85251847Y-91601805D01*
X85342937Y-91651543D01*
X85345580Y-91653073D01*
X85440903Y-91711488D01*
X85445643Y-91714705D01*
X85529440Y-91777435D01*
X85532520Y-91779898D01*
X85616937Y-91851997D01*
X85620513Y-91855303D01*
X85694695Y-91929485D01*
X85698001Y-91933061D01*
X85770094Y-92017471D01*
X85772576Y-92020574D01*
X85835289Y-92104349D01*
X85838521Y-92109111D01*
X85896910Y-92204393D01*
X85898463Y-92207076D01*
X85948193Y-92298151D01*
X85951059Y-92304141D01*
X85995016Y-92410260D01*
X86030942Y-92506582D01*
X86033140Y-92513781D01*
X86061098Y-92630231D01*
X86081723Y-92725044D01*
X86082950Y-92733367D01*
X86094517Y-92880331D01*
X86099342Y-92947789D01*
X86099500Y-92952213D01*
X86099500Y-143947785D01*
X86099342Y-143952209D01*
X86094521Y-144019621D01*
X86082950Y-144166636D01*
X86081722Y-144174959D01*
X86061102Y-144269751D01*
X86033142Y-144386213D01*
X86030944Y-144393412D01*
X85995016Y-144489742D01*
X85951055Y-144595866D01*
X85948189Y-144601857D01*
X85898464Y-144692923D01*
X85896911Y-144695605D01*
X85838525Y-144790883D01*
X85835292Y-144795646D01*
X85772569Y-144879434D01*
X85770080Y-144882544D01*
X85698008Y-144966931D01*
X85694702Y-144970507D01*
X85620507Y-145044702D01*
X85616931Y-145048008D01*
X85532544Y-145120080D01*
X85529434Y-145122569D01*
X85445646Y-145185292D01*
X85440883Y-145188525D01*
X85345605Y-145246911D01*
X85342923Y-145248464D01*
X85251857Y-145298189D01*
X85245866Y-145301055D01*
X85139742Y-145345016D01*
X85043412Y-145380944D01*
X85036213Y-145383142D01*
X84919751Y-145411102D01*
X84824959Y-145431722D01*
X84816636Y-145432950D01*
X84669723Y-145444513D01*
X84602210Y-145449342D01*
X84597786Y-145449500D01*
X71267778Y-145449500D01*
X71200739Y-145429815D01*
X71154984Y-145377011D01*
X71145040Y-145307853D01*
X71174065Y-145244297D01*
X71186229Y-145232835D01*
X71190778Y-145228286D01*
X71190779Y-145228283D01*
X71190782Y-145228282D01*
X71212484Y-145199998D01*
X71217810Y-145193923D01*
X71706416Y-144705318D01*
X71712506Y-144699977D01*
X71740782Y-144678282D01*
X71837036Y-144552841D01*
X71897544Y-144406762D01*
X71913000Y-144289361D01*
X71918182Y-144250000D01*
X71913530Y-144214669D01*
X71913000Y-144206571D01*
X71913000Y-143365172D01*
X71913531Y-143357070D01*
X71918182Y-143321743D01*
X71918182Y-143321742D01*
X71897544Y-143164983D01*
X71897542Y-143164978D01*
X71837038Y-143018907D01*
X71837038Y-143018906D01*
X71837036Y-143018903D01*
X71817997Y-142994091D01*
X71740782Y-142893462D01*
X71712505Y-142871764D01*
X71706404Y-142866413D01*
X71574399Y-142734408D01*
X71540914Y-142673085D01*
X71538080Y-142646727D01*
X71538080Y-133117763D01*
X81008287Y-133117763D01*
X81037913Y-133387013D01*
X81037915Y-133387024D01*
X81106426Y-133649082D01*
X81106428Y-133649088D01*
X81212370Y-133898390D01*
X81284498Y-134016575D01*
X81353479Y-134129605D01*
X81353486Y-134129615D01*
X81526753Y-134337819D01*
X81526759Y-134337824D01*
X81728498Y-134518582D01*
X81954410Y-134668044D01*
X82199676Y-134783020D01*
X82199683Y-134783022D01*
X82199685Y-134783023D01*
X82459057Y-134861057D01*
X82459064Y-134861058D01*
X82459069Y-134861060D01*
X82727061Y-134900500D01*
X82727066Y-134900500D01*
X82930136Y-134900500D01*
X82981633Y-134896730D01*
X83132656Y-134885677D01*
X83245258Y-134860593D01*
X83397046Y-134826782D01*
X83397048Y-134826781D01*
X83397053Y-134826780D01*
X83650058Y-134730014D01*
X83886277Y-134597441D01*
X84100677Y-134431888D01*
X84288686Y-134236881D01*
X84446299Y-134016579D01*
X84520287Y-133872669D01*
X84570149Y-133775690D01*
X84570151Y-133775684D01*
X84570156Y-133775675D01*
X84657618Y-133519305D01*
X84706819Y-133252933D01*
X84716712Y-132982235D01*
X84687086Y-132712982D01*
X84618572Y-132450912D01*
X84512630Y-132201610D01*
X84371518Y-131970390D01*
X84282247Y-131863119D01*
X84198246Y-131762180D01*
X84198240Y-131762175D01*
X83996502Y-131581418D01*
X83770592Y-131431957D01*
X83770590Y-131431956D01*
X83525324Y-131316980D01*
X83525319Y-131316978D01*
X83525314Y-131316976D01*
X83265942Y-131238942D01*
X83265928Y-131238939D01*
X83150291Y-131221921D01*
X82997939Y-131199500D01*
X82794869Y-131199500D01*
X82794864Y-131199500D01*
X82592344Y-131214323D01*
X82592331Y-131214325D01*
X82327953Y-131273217D01*
X82327946Y-131273220D01*
X82074939Y-131369987D01*
X81838726Y-131502557D01*
X81624322Y-131668112D01*
X81436322Y-131863109D01*
X81436316Y-131863116D01*
X81278702Y-132083419D01*
X81278699Y-132083424D01*
X81154850Y-132324309D01*
X81154843Y-132324327D01*
X81067384Y-132580685D01*
X81067381Y-132580699D01*
X81018181Y-132847068D01*
X81018180Y-132847075D01*
X81008287Y-133117763D01*
X71538080Y-133117763D01*
X71538080Y-122600000D01*
X73344540Y-122600000D01*
X73364326Y-122788256D01*
X73364327Y-122788259D01*
X73422818Y-122968277D01*
X73422821Y-122968284D01*
X73517467Y-123132216D01*
X73638401Y-123266526D01*
X73644129Y-123272888D01*
X73797265Y-123384148D01*
X73797270Y-123384151D01*
X73970192Y-123461142D01*
X73970197Y-123461144D01*
X74155354Y-123500500D01*
X74155355Y-123500500D01*
X74344644Y-123500500D01*
X74344646Y-123500500D01*
X74529803Y-123461144D01*
X74702730Y-123384151D01*
X74855871Y-123272888D01*
X74858788Y-123269647D01*
X74861600Y-123266526D01*
X74921087Y-123229879D01*
X74953748Y-123225500D01*
X80817257Y-123225500D01*
X80832877Y-123227224D01*
X80832904Y-123226939D01*
X80840660Y-123227671D01*
X80840667Y-123227673D01*
X80909814Y-123225500D01*
X80939350Y-123225500D01*
X80946228Y-123224630D01*
X80952041Y-123224172D01*
X80998627Y-123222709D01*
X81017869Y-123217117D01*
X81036912Y-123213174D01*
X81056792Y-123210664D01*
X81100122Y-123193507D01*
X81105646Y-123191617D01*
X81109396Y-123190527D01*
X81150390Y-123178618D01*
X81167629Y-123168422D01*
X81185103Y-123159862D01*
X81203727Y-123152488D01*
X81203727Y-123152487D01*
X81203732Y-123152486D01*
X81241449Y-123125082D01*
X81246305Y-123121892D01*
X81286420Y-123098170D01*
X81300589Y-123083999D01*
X81315379Y-123071368D01*
X81331587Y-123059594D01*
X81361299Y-123023676D01*
X81365212Y-123019376D01*
X82333787Y-122050802D01*
X82346042Y-122040986D01*
X82345859Y-122040764D01*
X82351866Y-122035792D01*
X82351877Y-122035786D01*
X82385948Y-121999504D01*
X82399227Y-121985364D01*
X82409671Y-121974918D01*
X82420120Y-121964471D01*
X82424379Y-121958978D01*
X82428152Y-121954561D01*
X82460062Y-121920582D01*
X82469713Y-121903024D01*
X82480396Y-121886761D01*
X82492673Y-121870936D01*
X82511185Y-121828153D01*
X82513738Y-121822941D01*
X82536197Y-121782092D01*
X82541180Y-121762680D01*
X82547481Y-121744280D01*
X82555437Y-121725896D01*
X82562729Y-121679852D01*
X82563906Y-121674171D01*
X82575500Y-121629019D01*
X82575500Y-121608983D01*
X82577027Y-121589582D01*
X82580160Y-121569804D01*
X82575775Y-121523415D01*
X82575500Y-121517577D01*
X82575500Y-118548687D01*
X82595185Y-118481648D01*
X82607350Y-118465715D01*
X82625891Y-118445122D01*
X82682533Y-118382216D01*
X82777179Y-118218284D01*
X82835674Y-118038256D01*
X82855460Y-117850000D01*
X82835674Y-117661744D01*
X82777179Y-117481716D01*
X82682533Y-117317784D01*
X82678135Y-117312900D01*
X82607350Y-117234284D01*
X82577120Y-117171292D01*
X82575500Y-117151312D01*
X82575500Y-116082742D01*
X82577224Y-116067122D01*
X82576939Y-116067095D01*
X82577673Y-116059333D01*
X82575500Y-115990172D01*
X82575500Y-115960656D01*
X82575500Y-115960650D01*
X82574631Y-115953779D01*
X82574173Y-115947952D01*
X82572710Y-115901373D01*
X82567119Y-115882130D01*
X82563173Y-115863078D01*
X82560664Y-115843208D01*
X82543504Y-115799867D01*
X82541624Y-115794379D01*
X82528618Y-115749610D01*
X82518422Y-115732370D01*
X82509861Y-115714894D01*
X82502487Y-115696270D01*
X82502486Y-115696268D01*
X82475079Y-115658545D01*
X82471888Y-115653686D01*
X82448172Y-115613583D01*
X82448165Y-115613574D01*
X82434006Y-115599415D01*
X82421368Y-115584619D01*
X82409594Y-115568413D01*
X82373688Y-115538709D01*
X82369376Y-115534786D01*
X80211819Y-113377228D01*
X80178334Y-113315905D01*
X80175500Y-113289547D01*
X80175500Y-108762625D01*
X80195185Y-108695586D01*
X80226616Y-108662306D01*
X80280871Y-108622888D01*
X80407533Y-108482216D01*
X80502179Y-108318284D01*
X80560674Y-108138256D01*
X80580460Y-107950000D01*
X80560674Y-107761744D01*
X80502179Y-107581716D01*
X80407533Y-107417784D01*
X80308781Y-107308109D01*
X80278553Y-107245121D01*
X80287178Y-107175786D01*
X80293542Y-107163146D01*
X80377179Y-107018284D01*
X80435674Y-106838256D01*
X80455460Y-106650000D01*
X80435674Y-106461744D01*
X80377179Y-106281716D01*
X80282533Y-106117784D01*
X80155871Y-105977112D01*
X80155870Y-105977111D01*
X80002734Y-105865851D01*
X80002729Y-105865848D01*
X79829807Y-105788857D01*
X79829802Y-105788855D01*
X79684001Y-105757865D01*
X79644646Y-105749500D01*
X79455354Y-105749500D01*
X79422897Y-105756398D01*
X79270197Y-105788855D01*
X79270192Y-105788857D01*
X79097270Y-105865848D01*
X79097265Y-105865851D01*
X78944129Y-105977111D01*
X78817466Y-106117785D01*
X78722821Y-106281715D01*
X78722818Y-106281722D01*
X78664327Y-106461740D01*
X78664326Y-106461744D01*
X78653623Y-106563578D01*
X78646679Y-106629649D01*
X78620094Y-106694263D01*
X78611039Y-106704368D01*
X78566208Y-106749199D01*
X78553951Y-106759020D01*
X78554134Y-106759241D01*
X78548123Y-106764213D01*
X78500772Y-106814636D01*
X78479889Y-106835519D01*
X78479877Y-106835532D01*
X78475621Y-106841017D01*
X78471837Y-106845447D01*
X78439937Y-106879418D01*
X78439936Y-106879420D01*
X78430284Y-106896976D01*
X78419610Y-106913226D01*
X78407329Y-106929061D01*
X78407324Y-106929068D01*
X78388815Y-106971838D01*
X78386245Y-106977084D01*
X78363803Y-107017906D01*
X78358822Y-107037307D01*
X78352521Y-107055710D01*
X78344562Y-107074102D01*
X78344561Y-107074105D01*
X78337271Y-107120127D01*
X78336087Y-107125846D01*
X78324501Y-107170972D01*
X78324500Y-107170982D01*
X78324500Y-107191016D01*
X78322973Y-107210415D01*
X78319840Y-107230194D01*
X78319840Y-107230195D01*
X78324225Y-107276583D01*
X78324500Y-107282421D01*
X78324500Y-113717255D01*
X78322775Y-113732872D01*
X78323061Y-113732899D01*
X78322326Y-113740665D01*
X78324500Y-113809814D01*
X78324500Y-113839343D01*
X78324501Y-113839360D01*
X78325368Y-113846231D01*
X78325826Y-113852050D01*
X78327290Y-113898624D01*
X78327291Y-113898627D01*
X78332880Y-113917867D01*
X78336824Y-113936911D01*
X78339336Y-113956791D01*
X78356490Y-114000119D01*
X78358382Y-114005647D01*
X78371381Y-114050388D01*
X78381580Y-114067634D01*
X78390138Y-114085103D01*
X78397514Y-114103732D01*
X78424898Y-114141423D01*
X78428106Y-114146307D01*
X78451827Y-114186416D01*
X78451833Y-114186424D01*
X78465990Y-114200580D01*
X78478628Y-114215376D01*
X78490405Y-114231586D01*
X78490406Y-114231587D01*
X78526309Y-114261288D01*
X78530620Y-114265210D01*
X79576552Y-115311142D01*
X80538181Y-116272771D01*
X80571666Y-116334094D01*
X80574500Y-116360452D01*
X80574500Y-120275500D01*
X80554815Y-120342539D01*
X80502011Y-120388294D01*
X80450500Y-120399500D01*
X76576258Y-120399500D01*
X76509219Y-120379815D01*
X76484109Y-120358473D01*
X76455871Y-120327112D01*
X76455864Y-120327106D01*
X76302734Y-120215851D01*
X76302729Y-120215848D01*
X76129807Y-120138857D01*
X76129802Y-120138855D01*
X75984001Y-120107865D01*
X75944646Y-120099500D01*
X75755354Y-120099500D01*
X75722897Y-120106398D01*
X75570197Y-120138855D01*
X75570192Y-120138857D01*
X75397270Y-120215848D01*
X75397265Y-120215851D01*
X75244129Y-120327111D01*
X75117466Y-120467785D01*
X75022821Y-120631715D01*
X75022818Y-120631722D01*
X74972644Y-120786144D01*
X74964326Y-120811744D01*
X74944540Y-121000000D01*
X74964326Y-121188256D01*
X74964327Y-121188259D01*
X75022818Y-121368277D01*
X75022821Y-121368284D01*
X75117467Y-121532216D01*
X75244128Y-121672887D01*
X75244129Y-121672888D01*
X75350515Y-121750182D01*
X75393181Y-121805512D01*
X75399160Y-121875125D01*
X75366554Y-121936920D01*
X75305716Y-121971277D01*
X75277630Y-121974500D01*
X74953748Y-121974500D01*
X74886709Y-121954815D01*
X74861600Y-121933474D01*
X74855873Y-121927114D01*
X74855869Y-121927110D01*
X74702734Y-121815851D01*
X74702729Y-121815848D01*
X74529807Y-121738857D01*
X74529802Y-121738855D01*
X74384001Y-121707865D01*
X74344646Y-121699500D01*
X74155354Y-121699500D01*
X74122897Y-121706398D01*
X73970197Y-121738855D01*
X73970192Y-121738857D01*
X73797270Y-121815848D01*
X73797265Y-121815851D01*
X73644129Y-121927111D01*
X73517466Y-122067785D01*
X73422821Y-122231715D01*
X73422818Y-122231722D01*
X73366531Y-122404958D01*
X73364326Y-122411744D01*
X73344540Y-122600000D01*
X71538080Y-122600000D01*
X71538080Y-120949500D01*
X71557765Y-120882461D01*
X71610569Y-120836706D01*
X71662080Y-120825500D01*
X71759594Y-120825500D01*
X71759596Y-120825500D01*
X71944753Y-120786144D01*
X72117680Y-120709151D01*
X72270821Y-120597888D01*
X72397483Y-120457216D01*
X72492129Y-120293284D01*
X72550624Y-120113256D01*
X72570410Y-119925000D01*
X72557934Y-119806301D01*
X72570503Y-119737572D01*
X72593571Y-119705662D01*
X74543922Y-117755311D01*
X74549999Y-117749983D01*
X74578282Y-117728282D01*
X74674536Y-117602841D01*
X74735044Y-117456762D01*
X74750500Y-117339361D01*
X74755682Y-117300000D01*
X74751030Y-117264669D01*
X74750500Y-117256571D01*
X74750500Y-113243428D01*
X74751031Y-113235326D01*
X74751779Y-113229649D01*
X74755682Y-113200000D01*
X74735044Y-113043238D01*
X74674536Y-112897159D01*
X74674535Y-112897158D01*
X74674535Y-112897157D01*
X74601463Y-112801927D01*
X74601448Y-112801909D01*
X74578281Y-112771717D01*
X74550013Y-112750026D01*
X74543917Y-112744681D01*
X69886819Y-108087583D01*
X69853334Y-108026260D01*
X69850500Y-107999902D01*
X69850500Y-106726452D01*
X69870185Y-106659413D01*
X69882350Y-106643480D01*
X69887302Y-106637980D01*
X69982533Y-106532216D01*
X70077179Y-106368284D01*
X70135674Y-106188256D01*
X70142426Y-106124004D01*
X70169010Y-106059392D01*
X70226308Y-106019407D01*
X70291528Y-106015678D01*
X70455354Y-106050500D01*
X70455355Y-106050500D01*
X70644644Y-106050500D01*
X70644646Y-106050500D01*
X70829803Y-106011144D01*
X71002730Y-105934151D01*
X71155871Y-105822888D01*
X71282533Y-105682216D01*
X71377179Y-105518284D01*
X71435674Y-105338256D01*
X71455460Y-105150000D01*
X71435674Y-104961744D01*
X71377179Y-104781716D01*
X71282533Y-104617784D01*
X71155871Y-104477112D01*
X71155870Y-104477111D01*
X71002734Y-104365851D01*
X71002729Y-104365848D01*
X70829807Y-104288857D01*
X70829802Y-104288855D01*
X70684001Y-104257865D01*
X70644646Y-104249500D01*
X70455354Y-104249500D01*
X70422897Y-104256398D01*
X70270197Y-104288855D01*
X70270192Y-104288857D01*
X70097270Y-104365848D01*
X70097265Y-104365851D01*
X69944130Y-104477110D01*
X69944126Y-104477114D01*
X69938400Y-104483474D01*
X69878913Y-104520121D01*
X69846252Y-104524500D01*
X69157438Y-104524500D01*
X69141817Y-104522775D01*
X69141790Y-104523061D01*
X69134028Y-104522326D01*
X69064867Y-104524500D01*
X69035344Y-104524500D01*
X69028473Y-104525367D01*
X69022654Y-104525825D01*
X68976069Y-104527289D01*
X68976063Y-104527290D01*
X68956821Y-104532880D01*
X68937782Y-104536823D01*
X68917912Y-104539334D01*
X68917898Y-104539337D01*
X68874578Y-104556488D01*
X68869053Y-104558380D01*
X68824308Y-104571380D01*
X68824305Y-104571381D01*
X68807061Y-104581579D01*
X68789600Y-104590133D01*
X68770969Y-104597510D01*
X68770957Y-104597517D01*
X68733265Y-104624902D01*
X68728382Y-104628109D01*
X68688275Y-104651829D01*
X68674109Y-104665995D01*
X68659319Y-104678627D01*
X68643109Y-104690404D01*
X68643106Y-104690407D01*
X68613405Y-104726309D01*
X68609472Y-104730631D01*
X63466208Y-109873894D01*
X63453951Y-109883715D01*
X63454134Y-109883936D01*
X63448123Y-109888908D01*
X63400772Y-109939331D01*
X63379889Y-109960214D01*
X63379877Y-109960227D01*
X63375621Y-109965712D01*
X63371837Y-109970142D01*
X63339937Y-110004113D01*
X63339936Y-110004115D01*
X63330284Y-110021671D01*
X63319610Y-110037921D01*
X63307329Y-110053756D01*
X63307324Y-110053763D01*
X63288815Y-110096533D01*
X63286245Y-110101779D01*
X63263803Y-110142601D01*
X63258822Y-110162002D01*
X63252521Y-110180405D01*
X63244562Y-110198797D01*
X63244561Y-110198800D01*
X63237271Y-110244822D01*
X63236087Y-110250541D01*
X63224501Y-110295667D01*
X63224500Y-110295677D01*
X63224500Y-110315711D01*
X63222973Y-110335110D01*
X63219840Y-110354889D01*
X63219840Y-110354890D01*
X63224225Y-110401278D01*
X63224500Y-110407116D01*
X63224500Y-113001312D01*
X63204815Y-113068351D01*
X63192650Y-113084284D01*
X63117466Y-113167784D01*
X63022821Y-113331715D01*
X63022818Y-113331722D01*
X62964327Y-113511740D01*
X62964326Y-113511744D01*
X62948129Y-113665851D01*
X62944540Y-113700002D01*
X62944540Y-113700500D01*
X62944458Y-113700777D01*
X62943861Y-113706463D01*
X62942821Y-113706353D01*
X62924855Y-113767539D01*
X62872051Y-113813294D01*
X62820540Y-113824500D01*
X62403748Y-113824500D01*
X62336709Y-113804815D01*
X62311600Y-113783474D01*
X62305873Y-113777114D01*
X62305869Y-113777110D01*
X62152734Y-113665851D01*
X62152729Y-113665848D01*
X61979807Y-113588857D01*
X61979802Y-113588855D01*
X61834001Y-113557865D01*
X61794646Y-113549500D01*
X61605354Y-113549500D01*
X61572897Y-113556398D01*
X61420197Y-113588855D01*
X61420192Y-113588857D01*
X61247270Y-113665848D01*
X61247265Y-113665851D01*
X61094129Y-113777111D01*
X60967466Y-113917785D01*
X60872821Y-114081715D01*
X60872818Y-114081722D01*
X60814474Y-114261288D01*
X60814326Y-114261744D01*
X60794540Y-114450000D01*
X60814326Y-114638256D01*
X60814327Y-114638259D01*
X60872818Y-114818277D01*
X60872821Y-114818284D01*
X60967467Y-114982216D01*
X61088401Y-115116526D01*
X61094129Y-115122888D01*
X61247265Y-115234148D01*
X61247270Y-115234151D01*
X61420192Y-115311142D01*
X61420197Y-115311144D01*
X61605354Y-115350500D01*
X61605355Y-115350500D01*
X61794644Y-115350500D01*
X61794646Y-115350500D01*
X61979803Y-115311144D01*
X62152730Y-115234151D01*
X62305871Y-115122888D01*
X62308788Y-115119647D01*
X62311600Y-115116526D01*
X62371087Y-115079879D01*
X62403748Y-115075500D01*
X66817257Y-115075500D01*
X66832877Y-115077224D01*
X66832904Y-115076939D01*
X66840660Y-115077671D01*
X66840667Y-115077673D01*
X66909814Y-115075500D01*
X66939350Y-115075500D01*
X66946228Y-115074630D01*
X66952041Y-115074172D01*
X66998627Y-115072709D01*
X67017869Y-115067117D01*
X67036912Y-115063174D01*
X67056792Y-115060664D01*
X67100122Y-115043507D01*
X67105646Y-115041617D01*
X67109396Y-115040527D01*
X67150390Y-115028618D01*
X67167629Y-115018422D01*
X67185103Y-115009862D01*
X67203727Y-115002488D01*
X67203727Y-115002487D01*
X67203732Y-115002486D01*
X67241449Y-114975082D01*
X67246305Y-114971892D01*
X67286420Y-114948170D01*
X67300589Y-114933999D01*
X67315379Y-114921368D01*
X67331587Y-114909594D01*
X67361299Y-114873676D01*
X67365212Y-114869376D01*
X68047772Y-114186819D01*
X68109095Y-114153334D01*
X68135453Y-114150500D01*
X68194644Y-114150500D01*
X68194646Y-114150500D01*
X68379803Y-114111144D01*
X68552730Y-114034151D01*
X68705871Y-113922888D01*
X68832533Y-113782216D01*
X68927179Y-113618284D01*
X68985674Y-113438256D01*
X69005460Y-113250000D01*
X68985674Y-113061744D01*
X68927179Y-112881716D01*
X68832533Y-112717784D01*
X68705871Y-112577112D01*
X68705870Y-112577111D01*
X68552734Y-112465851D01*
X68552729Y-112465848D01*
X68379807Y-112388857D01*
X68379802Y-112388855D01*
X68234001Y-112357865D01*
X68194646Y-112349500D01*
X68005354Y-112349500D01*
X67972897Y-112356398D01*
X67820197Y-112388855D01*
X67820192Y-112388857D01*
X67647270Y-112465848D01*
X67647265Y-112465851D01*
X67494129Y-112577111D01*
X67367466Y-112717785D01*
X67272821Y-112881715D01*
X67272818Y-112881722D01*
X67220260Y-113043480D01*
X67214326Y-113061744D01*
X67207525Y-113126452D01*
X67196679Y-113229649D01*
X67170094Y-113294263D01*
X67161039Y-113304368D01*
X66677228Y-113788181D01*
X66615905Y-113821666D01*
X66589547Y-113824500D01*
X64879460Y-113824500D01*
X64812421Y-113804815D01*
X64766666Y-113752011D01*
X64756743Y-113706399D01*
X64756139Y-113706463D01*
X64755561Y-113700964D01*
X64755460Y-113700500D01*
X64755460Y-113700002D01*
X64755327Y-113698735D01*
X64735674Y-113511744D01*
X64677179Y-113331716D01*
X64582533Y-113167784D01*
X64507350Y-113084284D01*
X64477120Y-113021292D01*
X64475500Y-113001312D01*
X64475500Y-110685146D01*
X64495185Y-110618107D01*
X64511814Y-110597470D01*
X68437819Y-106671464D01*
X68499142Y-106637980D01*
X68568834Y-106642964D01*
X68624767Y-106684836D01*
X68649184Y-106750300D01*
X68649500Y-106759146D01*
X68649500Y-108256571D01*
X68648969Y-108264673D01*
X68644318Y-108299999D01*
X68644318Y-108300000D01*
X68649500Y-108339360D01*
X68664955Y-108456760D01*
X68664956Y-108456762D01*
X68725464Y-108602841D01*
X68821718Y-108728282D01*
X68849995Y-108749980D01*
X68856085Y-108755320D01*
X69455627Y-109354862D01*
X70048420Y-109947655D01*
X70081905Y-110008978D01*
X70076921Y-110078670D01*
X70047720Y-110121600D01*
X70048477Y-110122282D01*
X69917466Y-110267785D01*
X69822821Y-110431715D01*
X69822818Y-110431722D01*
X69764327Y-110611740D01*
X69764326Y-110611744D01*
X69744540Y-110800000D01*
X69764326Y-110988256D01*
X69764327Y-110988259D01*
X69822818Y-111168277D01*
X69822821Y-111168284D01*
X69917467Y-111332216D01*
X69933142Y-111349625D01*
X69951171Y-111369649D01*
X69981400Y-111432641D01*
X69972774Y-111501976D01*
X69928032Y-111555641D01*
X69909457Y-111565899D01*
X69797267Y-111615850D01*
X69797265Y-111615851D01*
X69644129Y-111727111D01*
X69517466Y-111867785D01*
X69422821Y-112031715D01*
X69422818Y-112031722D01*
X69364327Y-112211740D01*
X69364326Y-112211744D01*
X69344540Y-112400000D01*
X69364326Y-112588256D01*
X69364327Y-112588259D01*
X69422818Y-112768277D01*
X69422821Y-112768284D01*
X69517467Y-112932216D01*
X69597672Y-113021292D01*
X69617650Y-113043480D01*
X69647880Y-113106471D01*
X69649500Y-113126452D01*
X69649500Y-117190162D01*
X69629815Y-117257201D01*
X69577011Y-117302956D01*
X69507853Y-117312900D01*
X69475066Y-117303442D01*
X69442307Y-117288857D01*
X69442302Y-117288855D01*
X69290413Y-117256571D01*
X69257146Y-117249500D01*
X69067854Y-117249500D01*
X69035397Y-117256398D01*
X68882697Y-117288855D01*
X68882692Y-117288857D01*
X68709770Y-117365848D01*
X68709765Y-117365851D01*
X68556630Y-117477110D01*
X68556626Y-117477114D01*
X68550900Y-117483474D01*
X68491413Y-117520121D01*
X68458752Y-117524500D01*
X62145243Y-117524500D01*
X62129622Y-117522775D01*
X62129596Y-117523061D01*
X62121834Y-117522327D01*
X62121833Y-117522327D01*
X62052686Y-117524500D01*
X62023149Y-117524500D01*
X62016266Y-117525369D01*
X62010449Y-117525826D01*
X61963873Y-117527290D01*
X61944629Y-117532881D01*
X61925579Y-117536825D01*
X61905711Y-117539334D01*
X61862384Y-117556488D01*
X61856858Y-117558379D01*
X61812114Y-117571379D01*
X61812110Y-117571381D01*
X61794866Y-117581579D01*
X61777405Y-117590133D01*
X61758774Y-117597510D01*
X61758762Y-117597517D01*
X61721070Y-117624902D01*
X61716187Y-117628109D01*
X61676080Y-117651829D01*
X61661914Y-117665995D01*
X61647124Y-117678627D01*
X61630914Y-117690404D01*
X61630911Y-117690407D01*
X61601210Y-117726309D01*
X61597277Y-117730631D01*
X61314727Y-118013182D01*
X61253407Y-118046666D01*
X61227048Y-118049500D01*
X61167854Y-118049500D01*
X61135397Y-118056398D01*
X60982697Y-118088855D01*
X60982692Y-118088857D01*
X60809770Y-118165848D01*
X60809765Y-118165851D01*
X60656629Y-118277111D01*
X60529966Y-118417785D01*
X60435321Y-118581715D01*
X60435318Y-118581722D01*
X60376827Y-118761740D01*
X60376826Y-118761744D01*
X60357040Y-118950000D01*
X60376826Y-119138256D01*
X60376827Y-119138259D01*
X60435318Y-119318277D01*
X60435321Y-119318284D01*
X60529967Y-119482216D01*
X60656629Y-119622888D01*
X60809765Y-119734148D01*
X60809770Y-119734151D01*
X60982692Y-119811142D01*
X60982697Y-119811144D01*
X61167854Y-119850500D01*
X61167855Y-119850500D01*
X61357144Y-119850500D01*
X61357146Y-119850500D01*
X61542303Y-119811144D01*
X61715230Y-119734151D01*
X61868371Y-119622888D01*
X61995033Y-119482216D01*
X62089679Y-119318284D01*
X62148174Y-119138256D01*
X62165821Y-118970346D01*
X62192404Y-118905735D01*
X62201461Y-118895629D01*
X62285274Y-118811818D01*
X62346597Y-118778333D01*
X62372954Y-118775500D01*
X64457225Y-118775500D01*
X64524264Y-118795185D01*
X64570019Y-118847989D01*
X64579963Y-118917147D01*
X64550938Y-118980703D01*
X64549375Y-118982472D01*
X64517579Y-119017785D01*
X64422934Y-119181715D01*
X64422931Y-119181722D01*
X64378562Y-119318277D01*
X64364439Y-119361744D01*
X64351777Y-119482216D01*
X64344653Y-119550000D01*
X64364007Y-119734151D01*
X64364439Y-119738256D01*
X64385389Y-119802734D01*
X64391458Y-119841050D01*
X64391458Y-120908791D01*
X64371773Y-120975830D01*
X64318969Y-121021585D01*
X64249811Y-121031529D01*
X64217022Y-121022070D01*
X64079807Y-120960977D01*
X64079802Y-120960975D01*
X63934001Y-120929985D01*
X63894646Y-120921620D01*
X63894645Y-120921620D01*
X63835452Y-120921620D01*
X63768413Y-120901935D01*
X63747771Y-120885301D01*
X63278683Y-120416212D01*
X63268860Y-120403950D01*
X63268639Y-120404134D01*
X63263666Y-120398123D01*
X63244170Y-120379815D01*
X63213244Y-120350773D01*
X63200442Y-120337971D01*
X63192355Y-120329883D01*
X63186866Y-120325625D01*
X63182441Y-120321847D01*
X63148462Y-120289938D01*
X63148460Y-120289936D01*
X63148457Y-120289935D01*
X63130909Y-120280288D01*
X63114643Y-120269604D01*
X63098813Y-120257325D01*
X63056048Y-120238818D01*
X63050802Y-120236248D01*
X63009973Y-120213803D01*
X63009972Y-120213802D01*
X62990573Y-120208822D01*
X62972161Y-120202518D01*
X62953778Y-120194562D01*
X62953772Y-120194560D01*
X62907754Y-120187272D01*
X62902032Y-120186087D01*
X62856901Y-120174500D01*
X62856899Y-120174500D01*
X62836864Y-120174500D01*
X62817466Y-120172973D01*
X62810042Y-120171797D01*
X62797685Y-120169840D01*
X62797684Y-120169840D01*
X62751296Y-120174225D01*
X62745458Y-120174500D01*
X60560452Y-120174500D01*
X60493413Y-120154815D01*
X60472771Y-120138181D01*
X58787218Y-118452627D01*
X58753733Y-118391304D01*
X58758717Y-118321612D01*
X58779204Y-118287826D01*
X58778715Y-118287471D01*
X58782529Y-118282220D01*
X58782533Y-118282216D01*
X58877179Y-118118284D01*
X58935674Y-117938256D01*
X58955460Y-117750000D01*
X58935674Y-117561744D01*
X58877179Y-117381716D01*
X58782533Y-117217784D01*
X58655871Y-117077112D01*
X58655870Y-117077111D01*
X58502734Y-116965851D01*
X58502729Y-116965848D01*
X58329807Y-116888857D01*
X58329802Y-116888855D01*
X58184001Y-116857865D01*
X58144646Y-116849500D01*
X57955354Y-116849500D01*
X57922897Y-116856398D01*
X57770197Y-116888855D01*
X57770192Y-116888857D01*
X57597270Y-116965848D01*
X57597269Y-116965849D01*
X57579132Y-116979026D01*
X57513325Y-117002503D01*
X57445271Y-116986675D01*
X57433368Y-116979026D01*
X57415230Y-116965849D01*
X57415229Y-116965848D01*
X57242307Y-116888857D01*
X57242302Y-116888855D01*
X57096501Y-116857865D01*
X57057146Y-116849500D01*
X56987000Y-116849500D01*
X56919961Y-116829815D01*
X56874206Y-116777011D01*
X56863000Y-116725500D01*
X56863000Y-111150097D01*
X56882685Y-111083058D01*
X56899319Y-111062416D01*
X57674916Y-110286819D01*
X57736239Y-110253334D01*
X57762597Y-110250500D01*
X57857144Y-110250500D01*
X57857146Y-110250500D01*
X58042303Y-110211144D01*
X58215230Y-110134151D01*
X58368371Y-110022888D01*
X58495033Y-109882216D01*
X58589679Y-109718284D01*
X58648174Y-109538256D01*
X58667960Y-109350000D01*
X58667960Y-109349997D01*
X58667960Y-109345136D01*
X58687645Y-109278097D01*
X58704279Y-109257455D01*
X63180019Y-104781715D01*
X67729363Y-100232370D01*
X67790684Y-100198887D01*
X67860376Y-100203871D01*
X67889926Y-100219733D01*
X67909770Y-100234151D01*
X67909771Y-100234151D01*
X67909772Y-100234152D01*
X68082692Y-100311142D01*
X68082697Y-100311144D01*
X68267854Y-100350500D01*
X68267855Y-100350500D01*
X68457144Y-100350500D01*
X68457146Y-100350500D01*
X68642303Y-100311144D01*
X68815230Y-100234151D01*
X68968371Y-100122888D01*
X69095033Y-99982216D01*
X69189679Y-99818284D01*
X69248174Y-99638256D01*
X69267960Y-99450000D01*
X69248174Y-99261744D01*
X69189679Y-99081716D01*
X69095033Y-98917784D01*
X69028884Y-98844318D01*
X68968376Y-98777116D01*
X68968367Y-98777109D01*
X68941614Y-98757671D01*
X68898948Y-98702341D01*
X68890500Y-98657354D01*
X68890500Y-96517790D01*
X68910185Y-96450751D01*
X68962989Y-96404996D01*
X68971146Y-96401616D01*
X69032331Y-96378796D01*
X69137116Y-96300353D01*
X69202580Y-96275936D01*
X69270853Y-96290787D01*
X69320259Y-96340192D01*
X69335111Y-96408465D01*
X69329358Y-96437938D01*
X69308257Y-96502880D01*
X69308256Y-96502884D01*
X69288470Y-96691140D01*
X69308256Y-96879396D01*
X69308257Y-96879399D01*
X69366748Y-97059417D01*
X69366751Y-97059424D01*
X69461397Y-97223356D01*
X69539421Y-97310010D01*
X69588059Y-97364028D01*
X69741195Y-97475288D01*
X69741200Y-97475291D01*
X69914122Y-97552282D01*
X69914127Y-97552284D01*
X70099284Y-97591640D01*
X70099285Y-97591640D01*
X70288574Y-97591640D01*
X70288576Y-97591640D01*
X70473733Y-97552284D01*
X70587273Y-97501731D01*
X70656522Y-97492447D01*
X70710593Y-97514691D01*
X70739381Y-97535607D01*
X70912303Y-97612598D01*
X70912308Y-97612600D01*
X71097465Y-97651956D01*
X71115393Y-97651956D01*
X71182432Y-97671641D01*
X71203074Y-97688275D01*
X71390877Y-97876078D01*
X71400700Y-97888339D01*
X71400922Y-97888157D01*
X71405895Y-97894169D01*
X71456319Y-97941521D01*
X71477206Y-97962409D01*
X71477210Y-97962412D01*
X71477212Y-97962414D01*
X71482694Y-97966667D01*
X71487126Y-97970451D01*
X71521101Y-98002356D01*
X71538659Y-98012008D01*
X71554918Y-98022689D01*
X71570747Y-98034967D01*
X71613521Y-98053476D01*
X71618739Y-98056032D01*
X71659591Y-98078491D01*
X71678999Y-98083474D01*
X71697400Y-98089774D01*
X71715787Y-98097731D01*
X71759171Y-98104602D01*
X71761802Y-98105019D01*
X71767526Y-98106204D01*
X71803048Y-98115325D01*
X71859890Y-98147747D01*
X75238181Y-101526038D01*
X75271666Y-101587361D01*
X75274500Y-101613719D01*
X75274500Y-108501312D01*
X75254815Y-108568351D01*
X75242650Y-108584284D01*
X75167466Y-108667784D01*
X75072821Y-108831715D01*
X75072818Y-108831722D01*
X75014327Y-109011740D01*
X75014326Y-109011744D01*
X74994540Y-109200000D01*
X75014326Y-109388256D01*
X75014327Y-109388259D01*
X75072818Y-109568277D01*
X75072821Y-109568284D01*
X75170716Y-109737844D01*
X75168150Y-109739325D01*
X75187250Y-109793098D01*
X75171327Y-109861129D01*
X75170680Y-109862135D01*
X75170716Y-109862156D01*
X75072821Y-110031715D01*
X75072818Y-110031722D01*
X75014521Y-110211144D01*
X75014326Y-110211744D01*
X74994540Y-110400000D01*
X75014326Y-110588256D01*
X75014327Y-110588259D01*
X75072818Y-110768277D01*
X75072821Y-110768284D01*
X75167467Y-110932216D01*
X75284700Y-111062416D01*
X75294129Y-111072888D01*
X75447265Y-111184148D01*
X75447270Y-111184151D01*
X75620192Y-111261142D01*
X75620197Y-111261144D01*
X75805354Y-111300500D01*
X75805355Y-111300500D01*
X75994644Y-111300500D01*
X75994646Y-111300500D01*
X76179803Y-111261144D01*
X76352730Y-111184151D01*
X76505871Y-111072888D01*
X76632533Y-110932216D01*
X76727179Y-110768284D01*
X76785674Y-110588256D01*
X76803321Y-110420344D01*
X76829904Y-110355734D01*
X76838951Y-110345638D01*
X77033788Y-110150801D01*
X77046042Y-110140986D01*
X77045859Y-110140764D01*
X77051866Y-110135792D01*
X77051877Y-110135786D01*
X77088738Y-110096533D01*
X77099227Y-110085364D01*
X77109671Y-110074918D01*
X77120120Y-110064471D01*
X77124379Y-110058978D01*
X77128152Y-110054561D01*
X77160062Y-110020582D01*
X77169713Y-110003024D01*
X77180396Y-109986761D01*
X77192673Y-109970936D01*
X77211185Y-109928153D01*
X77213738Y-109922941D01*
X77236197Y-109882092D01*
X77241180Y-109862680D01*
X77247481Y-109844280D01*
X77255437Y-109825896D01*
X77262729Y-109779852D01*
X77263906Y-109774171D01*
X77275500Y-109729019D01*
X77275500Y-109708983D01*
X77277027Y-109689582D01*
X77280160Y-109669804D01*
X77275775Y-109623415D01*
X77275500Y-109617577D01*
X77275500Y-100282742D01*
X77277224Y-100267122D01*
X77276939Y-100267096D01*
X77277671Y-100259340D01*
X77277673Y-100259333D01*
X77275500Y-100190185D01*
X77275500Y-100160650D01*
X77274631Y-100153772D01*
X77274172Y-100147943D01*
X77272709Y-100101372D01*
X77267122Y-100082144D01*
X77263174Y-100063084D01*
X77260663Y-100043204D01*
X77243512Y-99999887D01*
X77241619Y-99994358D01*
X77228618Y-99949609D01*
X77228616Y-99949606D01*
X77218423Y-99932371D01*
X77209861Y-99914894D01*
X77202487Y-99896270D01*
X77202486Y-99896268D01*
X77175079Y-99858545D01*
X77171888Y-99853686D01*
X77148172Y-99813583D01*
X77148165Y-99813574D01*
X77134006Y-99799415D01*
X77121368Y-99784619D01*
X77109594Y-99768413D01*
X77073688Y-99738709D01*
X77069376Y-99734786D01*
X75452353Y-98117763D01*
X80208287Y-98117763D01*
X80237913Y-98387013D01*
X80237915Y-98387024D01*
X80306426Y-98649082D01*
X80306428Y-98649088D01*
X80412370Y-98898390D01*
X80504893Y-99049994D01*
X80553479Y-99129605D01*
X80553486Y-99129615D01*
X80726753Y-99337819D01*
X80726759Y-99337824D01*
X80928498Y-99518582D01*
X81154410Y-99668044D01*
X81399676Y-99783020D01*
X81399683Y-99783022D01*
X81399685Y-99783023D01*
X81659057Y-99861057D01*
X81659064Y-99861058D01*
X81659069Y-99861060D01*
X81927061Y-99900500D01*
X81927066Y-99900500D01*
X82130136Y-99900500D01*
X82181633Y-99896730D01*
X82332656Y-99885677D01*
X82464969Y-99856203D01*
X82597046Y-99826782D01*
X82597048Y-99826781D01*
X82597053Y-99826780D01*
X82850058Y-99730014D01*
X83086277Y-99597441D01*
X83300677Y-99431888D01*
X83488686Y-99236881D01*
X83646299Y-99016579D01*
X83724254Y-98864956D01*
X83770149Y-98775690D01*
X83770151Y-98775684D01*
X83770156Y-98775675D01*
X83857618Y-98519305D01*
X83906819Y-98252933D01*
X83916712Y-97982235D01*
X83887086Y-97712982D01*
X83818572Y-97450912D01*
X83712630Y-97201610D01*
X83571518Y-96970390D01*
X83482247Y-96863119D01*
X83398246Y-96762180D01*
X83398240Y-96762175D01*
X83196502Y-96581418D01*
X82970592Y-96431957D01*
X82913079Y-96404996D01*
X82725324Y-96316980D01*
X82725319Y-96316978D01*
X82725314Y-96316976D01*
X82465942Y-96238942D01*
X82465928Y-96238939D01*
X82344492Y-96221068D01*
X82197939Y-96199500D01*
X81994869Y-96199500D01*
X81994864Y-96199500D01*
X81792344Y-96214323D01*
X81792331Y-96214325D01*
X81527953Y-96273217D01*
X81527946Y-96273220D01*
X81274939Y-96369987D01*
X81038726Y-96502557D01*
X81038724Y-96502558D01*
X81038723Y-96502559D01*
X81030457Y-96508942D01*
X80824322Y-96668112D01*
X80636322Y-96863109D01*
X80636316Y-96863116D01*
X80478702Y-97083419D01*
X80478699Y-97083424D01*
X80354850Y-97324309D01*
X80354843Y-97324327D01*
X80267384Y-97580685D01*
X80267381Y-97580699D01*
X80218181Y-97847068D01*
X80218180Y-97847075D01*
X80208287Y-98117763D01*
X75452353Y-98117763D01*
X74956654Y-97622064D01*
X74923169Y-97560741D01*
X74928153Y-97491049D01*
X74952185Y-97451410D01*
X74952837Y-97450685D01*
X74952842Y-97450682D01*
X75079504Y-97310010D01*
X75174150Y-97146078D01*
X75232645Y-96966050D01*
X75252431Y-96777794D01*
X75232645Y-96589538D01*
X75174150Y-96409510D01*
X75165336Y-96394244D01*
X75148863Y-96326347D01*
X75171714Y-96260319D01*
X75173433Y-96257964D01*
X75191046Y-96234436D01*
X75246979Y-96192567D01*
X75316670Y-96187583D01*
X75377994Y-96221068D01*
X75389578Y-96234438D01*
X75432809Y-96292187D01*
X75432812Y-96292190D01*
X75547906Y-96378350D01*
X75547913Y-96378354D01*
X75682620Y-96428596D01*
X75682627Y-96428598D01*
X75742155Y-96434999D01*
X75742172Y-96435000D01*
X76837828Y-96435000D01*
X76837844Y-96434999D01*
X76897372Y-96428598D01*
X76897379Y-96428596D01*
X77032086Y-96378354D01*
X77032093Y-96378350D01*
X77147187Y-96292190D01*
X77147190Y-96292187D01*
X77233350Y-96177093D01*
X77233354Y-96177086D01*
X77283596Y-96042379D01*
X77283598Y-96042372D01*
X77289999Y-95982844D01*
X77290000Y-95982827D01*
X77290000Y-95288553D01*
X76024128Y-94022681D01*
X75990643Y-93961358D01*
X75992528Y-93935000D01*
X76643553Y-93935000D01*
X77289999Y-94581447D01*
X77290000Y-94581446D01*
X77290000Y-93288553D01*
X77289999Y-93288552D01*
X76643553Y-93934999D01*
X76643553Y-93935000D01*
X75992528Y-93935000D01*
X75995627Y-93891666D01*
X76024128Y-93847319D01*
X77289999Y-92581447D01*
X77290000Y-92581446D01*
X77290000Y-91887172D01*
X77289999Y-91887155D01*
X77283598Y-91827627D01*
X77283596Y-91827620D01*
X77233354Y-91692913D01*
X77233350Y-91692906D01*
X77199966Y-91648311D01*
X77175548Y-91582847D01*
X77190399Y-91514574D01*
X77239804Y-91465168D01*
X77299232Y-91450000D01*
X84356789Y-91450000D01*
X84548287Y-91450392D01*
G37*
%TD.AperFunction*%
%TA.AperFunction,Conductor*%
G36*
X68525791Y-118795185D02*
G01*
X68550900Y-118816526D01*
X68556626Y-118822885D01*
X68556630Y-118822889D01*
X68709765Y-118934148D01*
X68709770Y-118934151D01*
X68882691Y-119011142D01*
X68882694Y-119011142D01*
X68882697Y-119011144D01*
X68901278Y-119015093D01*
X68962759Y-119048282D01*
X68996538Y-119109443D01*
X68999500Y-119136383D01*
X68999500Y-139412403D01*
X68979815Y-139479442D01*
X68963181Y-139500084D01*
X68400084Y-140063181D01*
X68338761Y-140096666D01*
X68312403Y-140099500D01*
X61555928Y-140099500D01*
X61547829Y-140098969D01*
X61512500Y-140094318D01*
X61473139Y-140099500D01*
X61355739Y-140114955D01*
X61355737Y-140114956D01*
X61209660Y-140175463D01*
X61084214Y-140271721D01*
X61062524Y-140299990D01*
X61057170Y-140306094D01*
X60864381Y-140498882D01*
X60803058Y-140532367D01*
X60744608Y-140530976D01*
X60680484Y-140513795D01*
X60680486Y-140513795D01*
X60680477Y-140513793D01*
X60680473Y-140513792D01*
X60680470Y-140513792D01*
X60462502Y-140494723D01*
X60462498Y-140494723D01*
X60334651Y-140505908D01*
X60244523Y-140513793D01*
X60244520Y-140513793D01*
X60033177Y-140570422D01*
X60033168Y-140570426D01*
X59834861Y-140662898D01*
X59834857Y-140662900D01*
X59655624Y-140788400D01*
X59550180Y-140893844D01*
X59488857Y-140927328D01*
X59419165Y-140922344D01*
X59374818Y-140893843D01*
X59269381Y-140788406D01*
X59269377Y-140788402D01*
X59116503Y-140681358D01*
X59090138Y-140662897D01*
X58990984Y-140616661D01*
X58891830Y-140570425D01*
X58891826Y-140570424D01*
X58891822Y-140570422D01*
X58680477Y-140513793D01*
X58462502Y-140494723D01*
X58462498Y-140494723D01*
X58334651Y-140505908D01*
X58244523Y-140513793D01*
X58244520Y-140513793D01*
X58033177Y-140570422D01*
X58033168Y-140570426D01*
X57834863Y-140662897D01*
X57834857Y-140662901D01*
X57769557Y-140708623D01*
X57703351Y-140730950D01*
X57635584Y-140713938D01*
X57599170Y-140681359D01*
X57570046Y-140642454D01*
X57547209Y-140625358D01*
X57454835Y-140556206D01*
X57454828Y-140556202D01*
X57319982Y-140505908D01*
X57319983Y-140505908D01*
X57260383Y-140499501D01*
X57260381Y-140499500D01*
X57260373Y-140499500D01*
X57260365Y-140499500D01*
X57187000Y-140499500D01*
X57119961Y-140479815D01*
X57074206Y-140427011D01*
X57063000Y-140375500D01*
X57063000Y-137817763D01*
X61808287Y-137817763D01*
X61837913Y-138087013D01*
X61837915Y-138087024D01*
X61906426Y-138349082D01*
X61906428Y-138349088D01*
X62012370Y-138598390D01*
X62084498Y-138716575D01*
X62153479Y-138829605D01*
X62153486Y-138829615D01*
X62326753Y-139037819D01*
X62326759Y-139037824D01*
X62528498Y-139218582D01*
X62754410Y-139368044D01*
X62999676Y-139483020D01*
X62999683Y-139483022D01*
X62999685Y-139483023D01*
X63259057Y-139561057D01*
X63259064Y-139561058D01*
X63259069Y-139561060D01*
X63527061Y-139600500D01*
X63527066Y-139600500D01*
X63730136Y-139600500D01*
X63781633Y-139596730D01*
X63932656Y-139585677D01*
X64045258Y-139560593D01*
X64197046Y-139526782D01*
X64197048Y-139526781D01*
X64197053Y-139526780D01*
X64450058Y-139430014D01*
X64686277Y-139297441D01*
X64900677Y-139131888D01*
X65088686Y-138936881D01*
X65246299Y-138716579D01*
X65320287Y-138572669D01*
X65370149Y-138475690D01*
X65370151Y-138475684D01*
X65370156Y-138475675D01*
X65457618Y-138219305D01*
X65506819Y-137952933D01*
X65516712Y-137682235D01*
X65487086Y-137412982D01*
X65418572Y-137150912D01*
X65312630Y-136901610D01*
X65171518Y-136670390D01*
X65082247Y-136563119D01*
X64998246Y-136462180D01*
X64998240Y-136462175D01*
X64796502Y-136281418D01*
X64570592Y-136131957D01*
X64570590Y-136131956D01*
X64325324Y-136016980D01*
X64325319Y-136016978D01*
X64325314Y-136016976D01*
X64065942Y-135938942D01*
X64065928Y-135938939D01*
X63950291Y-135921921D01*
X63797939Y-135899500D01*
X63594869Y-135899500D01*
X63594864Y-135899500D01*
X63392344Y-135914323D01*
X63392331Y-135914325D01*
X63127953Y-135973217D01*
X63127946Y-135973220D01*
X62874939Y-136069987D01*
X62638726Y-136202557D01*
X62424322Y-136368112D01*
X62236322Y-136563109D01*
X62236316Y-136563116D01*
X62078702Y-136783419D01*
X62078699Y-136783424D01*
X61954850Y-137024309D01*
X61954843Y-137024327D01*
X61867384Y-137280685D01*
X61867381Y-137280699D01*
X61818181Y-137547068D01*
X61818180Y-137547075D01*
X61808287Y-137817763D01*
X57063000Y-137817763D01*
X57063000Y-124550097D01*
X57082685Y-124483058D01*
X57099319Y-124462416D01*
X58774916Y-122786819D01*
X58836239Y-122753334D01*
X58862597Y-122750500D01*
X58957144Y-122750500D01*
X58957146Y-122750500D01*
X59142303Y-122711144D01*
X59315230Y-122634151D01*
X59468371Y-122522888D01*
X59595033Y-122382216D01*
X59689679Y-122218284D01*
X59736038Y-122075603D01*
X59775475Y-122017929D01*
X59839833Y-121990730D01*
X59908680Y-122002644D01*
X59941650Y-122026241D01*
X60058970Y-122143561D01*
X60068795Y-122155824D01*
X60069016Y-122155642D01*
X60073987Y-122161651D01*
X60099990Y-122186068D01*
X60124408Y-122208999D01*
X60145302Y-122229893D01*
X60150784Y-122234146D01*
X60155216Y-122237930D01*
X60189191Y-122269835D01*
X60206749Y-122279487D01*
X60223008Y-122290168D01*
X60238837Y-122302446D01*
X60281611Y-122320955D01*
X60286829Y-122323511D01*
X60327681Y-122345970D01*
X60347089Y-122350953D01*
X60365490Y-122357253D01*
X60383877Y-122365210D01*
X60427261Y-122372081D01*
X60429892Y-122372498D01*
X60435612Y-122373682D01*
X60480754Y-122385273D01*
X60500789Y-122385273D01*
X60520187Y-122386799D01*
X60539967Y-122389932D01*
X60539968Y-122389933D01*
X60539968Y-122389932D01*
X60539969Y-122389933D01*
X60586357Y-122385548D01*
X60592195Y-122385273D01*
X62008599Y-122385273D01*
X62075638Y-122404958D01*
X62100747Y-122426299D01*
X62106473Y-122432658D01*
X62106477Y-122432662D01*
X62259612Y-122543921D01*
X62259617Y-122543924D01*
X62432539Y-122620915D01*
X62432544Y-122620917D01*
X62617701Y-122660273D01*
X62617702Y-122660273D01*
X62806991Y-122660273D01*
X62806993Y-122660273D01*
X62992150Y-122620917D01*
X63159433Y-122546437D01*
X63228683Y-122537152D01*
X63282754Y-122559398D01*
X63347265Y-122606268D01*
X63347270Y-122606271D01*
X63520192Y-122683262D01*
X63520197Y-122683264D01*
X63705354Y-122722620D01*
X63705355Y-122722620D01*
X63894644Y-122722620D01*
X63894646Y-122722620D01*
X64079803Y-122683264D01*
X64240970Y-122611506D01*
X64310218Y-122602222D01*
X64373495Y-122631850D01*
X64383549Y-122641808D01*
X64411087Y-122672392D01*
X64464422Y-122711142D01*
X64564223Y-122783652D01*
X64564228Y-122783655D01*
X64737150Y-122860646D01*
X64737155Y-122860648D01*
X64922312Y-122900004D01*
X64922313Y-122900004D01*
X65111602Y-122900004D01*
X65111604Y-122900004D01*
X65296761Y-122860648D01*
X65469688Y-122783655D01*
X65622829Y-122672392D01*
X65749491Y-122531720D01*
X65844137Y-122367788D01*
X65902632Y-122187760D01*
X65922418Y-121999504D01*
X65902632Y-121811248D01*
X65844137Y-121631220D01*
X65749491Y-121467288D01*
X65674308Y-121383788D01*
X65644078Y-121320796D01*
X65642458Y-121300816D01*
X65642458Y-120440606D01*
X65662143Y-120373567D01*
X65698358Y-120339034D01*
X65697586Y-120337971D01*
X65776979Y-120280288D01*
X65855984Y-120222888D01*
X65982646Y-120082216D01*
X66077292Y-119918284D01*
X66135787Y-119738256D01*
X66155573Y-119550000D01*
X66135787Y-119361744D01*
X66077292Y-119181716D01*
X65982646Y-119017784D01*
X65950851Y-118982472D01*
X65920621Y-118919480D01*
X65929246Y-118850145D01*
X65973988Y-118796480D01*
X66040640Y-118775522D01*
X66043001Y-118775500D01*
X68458752Y-118775500D01*
X68525791Y-118795185D01*
G37*
%TD.AperFunction*%
%TD*%
M02*
