M48
; DRILL file {KiCad 7.0.8-7.0.8~ubuntu22.04.1} date Sun 22 Oct 2023 09:31:53 AM EDT
; FORMAT={-:-/ absolute / inch / decimal}
; #@! TF.CreationDate,2023-10-22T09:31:53-04:00
; #@! TF.GenerationSoftware,Kicad,Pcbnew,7.0.8-7.0.8~ubuntu22.04.1
; #@! TF.FileFunction,Plated,1,2,PTH
FMAT,2
INCH
; #@! TA.AperFunction,Plated,PTH,ViaDrill
T1C0.0157
; #@! TA.AperFunction,Plated,PTH,ComponentDrill
T2C0.0315
%
G90
G05
T1
X2.2072Y-4.1594
X2.2426Y-4.6358
X2.2741Y-4.3051
X2.2854Y-4.6358
X2.3174Y-4.7972
X2.3804Y-5.3209
X2.4119Y-4.6831
X2.4291Y-4.5059
X2.469Y-4.7937
X2.4862Y-4.2008
X2.5118Y-4.7961
X2.5138Y-4.4764
X2.5597Y-4.8031
X2.5689Y-4.7067
X2.6624Y-4.6008
X2.6639Y-4.7106
X2.6811Y-4.4587
X2.689Y-4.2008
X2.6914Y-3.9154
X2.7229Y-4.6516
X2.7264Y-4.1732
X2.7635Y-3.8067
X2.7657Y-4.4252
X2.7776Y-4.1398
X2.7815Y-4.3622
X2.8012Y-4.6201
X2.8028Y-3.8091
X2.8215Y-4.7215
X2.8422Y-3.8097
X2.8425Y-4.9193
X2.8445Y-4.6201
X2.8819Y-3.8091
X2.9232Y-4.8268
X2.927Y-3.8101
X2.9685Y-4.3976
X2.9744Y-4.8563
X2.9862Y-4.7638
X2.9882Y-4.2992
X2.9882Y-4.3465
X2.9941Y-4.6496
X3.1319Y-4.1988
X3.1339Y-4.6063
X3.1368Y-4.25
X3.1678Y-4.935
X3.1978Y-4.7638
X3.2264Y-4.6398
X3.3228Y-4.7756
T2
X2.2229Y-5.5807
X2.2623Y-5.6594
X2.3017Y-5.5807
X2.341Y-5.6594
X2.3804Y-5.5807
X2.4198Y-5.6594
X2.6481Y-5.5807
X2.6875Y-5.6594
X2.7269Y-5.5807
X2.7662Y-5.6594
T0
M30
