%TF.GenerationSoftware,KiCad,Pcbnew,7.0.8-7.0.8~ubuntu22.04.1*%
%TF.CreationDate,2023-10-22T09:32:13-04:00*%
%TF.ProjectId,DDRN_Hardware,4444524e-5f48-4617-9264-776172652e6b,rev?*%
%TF.SameCoordinates,Original*%
%TF.FileFunction,Copper,L1,Top*%
%TF.FilePolarity,Positive*%
%FSLAX46Y46*%
G04 Gerber Fmt 4.6, Leading zero omitted, Abs format (unit mm)*
G04 Created by KiCad (PCBNEW 7.0.8-7.0.8~ubuntu22.04.1) date 2023-10-22 09:32:13*
%MOMM*%
%LPD*%
G01*
G04 APERTURE LIST*
G04 Aperture macros list*
%AMRoundRect*
0 Rectangle with rounded corners*
0 $1 Rounding radius*
0 $2 $3 $4 $5 $6 $7 $8 $9 X,Y pos of 4 corners*
0 Add a 4 corners polygon primitive as box body*
4,1,4,$2,$3,$4,$5,$6,$7,$8,$9,$2,$3,0*
0 Add four circle primitives for the rounded corners*
1,1,$1+$1,$2,$3*
1,1,$1+$1,$4,$5*
1,1,$1+$1,$6,$7*
1,1,$1+$1,$8,$9*
0 Add four rect primitives between the rounded corners*
20,1,$1+$1,$2,$3,$4,$5,0*
20,1,$1+$1,$4,$5,$6,$7,0*
20,1,$1+$1,$6,$7,$8,$9,0*
20,1,$1+$1,$8,$9,$2,$3,0*%
G04 Aperture macros list end*
%TA.AperFunction,SMDPad,CuDef*%
%ADD10R,2.300000X1.000000*%
%TD*%
%TA.AperFunction,SMDPad,CuDef*%
%ADD11R,1.000000X2.300000*%
%TD*%
%TA.AperFunction,SMDPad,CuDef*%
%ADD12R,0.350000X1.500000*%
%TD*%
%TA.AperFunction,SMDPad,CuDef*%
%ADD13R,1.500000X0.350000*%
%TD*%
%TA.AperFunction,HeatsinkPad*%
%ADD14R,1.500000X1.500000*%
%TD*%
%TA.AperFunction,SMDPad,CuDef*%
%ADD15R,0.325000X1.500000*%
%TD*%
%TA.AperFunction,SMDPad,CuDef*%
%ADD16RoundRect,0.250000X-0.350000X-0.450000X0.350000X-0.450000X0.350000X0.450000X-0.350000X0.450000X0*%
%TD*%
%TA.AperFunction,SMDPad,CuDef*%
%ADD17RoundRect,0.250000X0.350000X0.450000X-0.350000X0.450000X-0.350000X-0.450000X0.350000X-0.450000X0*%
%TD*%
%TA.AperFunction,SMDPad,CuDef*%
%ADD18R,0.650000X1.050000*%
%TD*%
%TA.AperFunction,SMDPad,CuDef*%
%ADD19RoundRect,0.250000X0.450000X-0.350000X0.450000X0.350000X-0.450000X0.350000X-0.450000X-0.350000X0*%
%TD*%
%TA.AperFunction,SMDPad,CuDef*%
%ADD20RoundRect,0.250000X-0.450000X0.350000X-0.450000X-0.350000X0.450000X-0.350000X0.450000X0.350000X0*%
%TD*%
%TA.AperFunction,SMDPad,CuDef*%
%ADD21R,0.250000X1.500000*%
%TD*%
%TA.AperFunction,SMDPad,CuDef*%
%ADD22R,1.500000X0.250000*%
%TD*%
%TA.AperFunction,SMDPad,CuDef*%
%ADD23R,1.050000X2.200000*%
%TD*%
%TA.AperFunction,SMDPad,CuDef*%
%ADD24R,1.000000X1.050000*%
%TD*%
%TA.AperFunction,SMDPad,CuDef*%
%ADD25RoundRect,0.150000X-0.150000X0.650000X-0.150000X-0.650000X0.150000X-0.650000X0.150000X0.650000X0*%
%TD*%
%TA.AperFunction,SMDPad,CuDef*%
%ADD26RoundRect,0.250000X0.337500X0.475000X-0.337500X0.475000X-0.337500X-0.475000X0.337500X-0.475000X0*%
%TD*%
%TA.AperFunction,SMDPad,CuDef*%
%ADD27RoundRect,0.250000X-0.337500X-0.475000X0.337500X-0.475000X0.337500X0.475000X-0.337500X0.475000X0*%
%TD*%
%TA.AperFunction,SMDPad,CuDef*%
%ADD28R,3.600000X1.500000*%
%TD*%
%TA.AperFunction,SMDPad,CuDef*%
%ADD29R,1.000000X4.000000*%
%TD*%
%TA.AperFunction,ComponentPad*%
%ADD30R,1.500000X1.500000*%
%TD*%
%TA.AperFunction,ComponentPad*%
%ADD31C,1.500000*%
%TD*%
%TA.AperFunction,SMDPad,CuDef*%
%ADD32RoundRect,0.150000X-0.512500X-0.150000X0.512500X-0.150000X0.512500X0.150000X-0.512500X0.150000X0*%
%TD*%
%TA.AperFunction,SMDPad,CuDef*%
%ADD33RoundRect,0.150000X0.587500X0.150000X-0.587500X0.150000X-0.587500X-0.150000X0.587500X-0.150000X0*%
%TD*%
%TA.AperFunction,SMDPad,CuDef*%
%ADD34R,1.500000X3.400000*%
%TD*%
%TA.AperFunction,SMDPad,CuDef*%
%ADD35R,1.000000X3.500000*%
%TD*%
%TA.AperFunction,SMDPad,CuDef*%
%ADD36RoundRect,0.225000X-0.225000X-0.375000X0.225000X-0.375000X0.225000X0.375000X-0.225000X0.375000X0*%
%TD*%
%TA.AperFunction,SMDPad,CuDef*%
%ADD37RoundRect,0.250000X0.450000X-0.325000X0.450000X0.325000X-0.450000X0.325000X-0.450000X-0.325000X0*%
%TD*%
%TA.AperFunction,SMDPad,CuDef*%
%ADD38RoundRect,0.150000X-0.587500X-0.150000X0.587500X-0.150000X0.587500X0.150000X-0.587500X0.150000X0*%
%TD*%
%TA.AperFunction,ViaPad*%
%ADD39C,0.800000*%
%TD*%
%TA.AperFunction,Conductor*%
%ADD40C,1.000000*%
%TD*%
%TA.AperFunction,Conductor*%
%ADD41C,0.250000*%
%TD*%
%TA.AperFunction,Conductor*%
%ADD42C,0.200000*%
%TD*%
%TA.AperFunction,Conductor*%
%ADD43C,0.500000*%
%TD*%
G04 APERTURE END LIST*
D10*
%TO.P,U1,1,VCC*%
%TO.N,/3v3*%
X77750000Y-112925000D03*
%TO.P,U1,2,GND*%
%TO.N,GND*%
X77750000Y-111675000D03*
%TO.P,U1,3,PA13*%
%TO.N,/SWDIO*%
X77750000Y-110425000D03*
%TO.P,U1,4,PA14*%
%TO.N,/SWCLK*%
X77750000Y-109175000D03*
%TO.P,U1,5,PB15*%
%TO.N,/SCL*%
X77750000Y-107925000D03*
%TO.P,U1,6,PA15*%
%TO.N,/SDA*%
X77750000Y-106675000D03*
%TO.P,U1,7,PB4*%
%TO.N,/SiPM_Signal*%
X77750000Y-105425000D03*
D11*
%TO.P,U1,8,PB3*%
%TO.N,/SiPM_Temp*%
X75500000Y-103175000D03*
%TO.P,U1,9,PB7*%
%TO.N,/USB_RX*%
X74250000Y-103175000D03*
%TO.P,U1,10,PB6*%
%TO.N,/USB_TX*%
X73000000Y-103175000D03*
%TO.P,U1,11,PB5*%
%TO.N,/Status_LED*%
X71750000Y-103175000D03*
%TO.P,U1,12,PC1*%
%TO.N,/MOSI*%
X70500000Y-103175000D03*
%TO.P,U1,13,PC0*%
%TO.N,/ACCEL_INT*%
X69250000Y-103175000D03*
%TO.P,U1,14,GND*%
%TO.N,GND*%
X68000000Y-103175000D03*
D10*
%TO.P,U1,15,RFIO*%
%TO.N,/ANT*%
X65750000Y-105425000D03*
%TO.P,U1,16,GND*%
%TO.N,GND*%
X65750000Y-106675000D03*
%TO.P,U1,17,RST*%
%TO.N,/RST*%
X65750000Y-107925000D03*
%TO.P,U1,18,PA3*%
%TO.N,unconnected-(U1-PA3-Pad18)*%
X65750000Y-109175000D03*
%TO.P,U1,19,PA2*%
%TO.N,/Memory_CS*%
X65750000Y-110425000D03*
%TO.P,U1,20,PB10*%
%TO.N,/Bias_CS*%
X65750000Y-111675000D03*
%TO.P,U1,21,PA9*%
%TO.N,/SCK*%
X65750000Y-112925000D03*
D11*
%TO.P,U1,22,GND*%
%TO.N,GND*%
X68000000Y-115175000D03*
%TO.P,U1,23,PA0*%
%TO.N,/Battery_Monitor_Enable*%
X69250000Y-115175000D03*
%TO.P,U1,24,PB13~{}*%
%TO.N,/Battery_Monitor*%
X70500000Y-115175000D03*
%TO.P,U1,25,PB9*%
%TO.N,/Stim_Enable*%
X71750000Y-115175000D03*
%TO.P,U1,26,PB14*%
%TO.N,/MISO*%
X73000000Y-115175000D03*
%TO.P,U1,27,PA10*%
%TO.N,/Anneal_Enable*%
X74250000Y-115175000D03*
%TO.P,U1,28,PB0*%
%TO.N,unconnected-(U1-PB0-Pad28)*%
X75500000Y-115175000D03*
%TD*%
D12*
%TO.P,U2,1,SCLK*%
%TO.N,/SCK*%
X63450000Y-123137500D03*
%TO.P,U2,2,MOSI*%
%TO.N,/MOSI*%
X62650000Y-123137500D03*
%TO.P,U2,3,CL*%
%TO.N,unconnected-(U2-CL-Pad3)*%
X61850000Y-123137500D03*
D13*
%TO.P,U2,4,CS+*%
%TO.N,Net-(D1-K)*%
X60650000Y-124337500D03*
%TO.P,U2,5,CS-*%
%TO.N,/SiPM_Bias*%
X60650000Y-125137500D03*
%TO.P,U2,6,DACOUT*%
%TO.N,Net-(U2-DACOUT)*%
X60650000Y-125937500D03*
D12*
%TO.P,U2,7,FB*%
%TO.N,Net-(U2-FB)*%
X61850000Y-127137500D03*
%TO.P,U2,8,COMP*%
%TO.N,Net-(U2-COMP)*%
X62650000Y-127137500D03*
%TO.P,U2,9,GND*%
%TO.N,GND*%
X63450000Y-127137500D03*
D13*
%TO.P,U2,10,GATE*%
%TO.N,Net-(Q1-G)*%
X64650000Y-125937500D03*
%TO.P,U2,11,VIN*%
%TO.N,/V_BAT*%
X64650000Y-125137500D03*
%TO.P,U2,12,CS*%
%TO.N,/Bias_CS*%
X64650000Y-124337500D03*
D14*
%TO.P,U2,13,PAN*%
%TO.N,GND*%
X62650000Y-125137500D03*
%TD*%
D12*
%TO.P,U5,1,SCL/SPC*%
%TO.N,/SCL*%
X73500000Y-121000000D03*
%TO.P,U5,2,CS_XL*%
%TO.N,Net-(U5-CS_MAG)*%
X74000000Y-121000000D03*
%TO.P,U5,3,CS_MAG*%
X74500000Y-121000000D03*
%TO.P,U5,4,SDA/SDI/SDO*%
%TO.N,/SDA*%
X75000000Y-121000000D03*
D13*
%TO.P,U5,5,C1*%
%TO.N,Net-(U5-C1)*%
X75550000Y-119950000D03*
%TO.P,U5,6,GND*%
%TO.N,GND*%
X75550000Y-119450000D03*
D12*
%TO.P,U5,7,INT_MAG/DRDY*%
%TO.N,unconnected-(U5-INT_MAG{slash}DRDY-Pad7)*%
X75000000Y-118400000D03*
%TO.P,U5,8,GND*%
%TO.N,GND*%
X74500000Y-118400000D03*
D15*
%TO.P,U5,9,VDD*%
%TO.N,/3v3*%
X73987500Y-118400000D03*
D12*
%TO.P,U5,10,VDD_IO*%
X73500000Y-118400000D03*
D13*
%TO.P,U5,11,INT_2_XL*%
%TO.N,unconnected-(U5-INT_2_XL-Pad11)*%
X72950000Y-119450000D03*
%TO.P,U5,12,INT_1_XL*%
%TO.N,/ACCEL_INT*%
X72950000Y-119950000D03*
%TD*%
D16*
%TO.P,R1,1*%
%TO.N,Net-(C3-Pad1)*%
X60456250Y-131531250D03*
%TO.P,R1,2*%
%TO.N,Net-(U2-COMP)*%
X62456250Y-131531250D03*
%TD*%
D17*
%TO.P,R14,1*%
%TO.N,/RST*%
X61150000Y-109300000D03*
%TO.P,R14,2*%
%TO.N,/3v3*%
X59150000Y-109300000D03*
%TD*%
D18*
%TO.P,SW1,1,1*%
%TO.N,/RST*%
X61250000Y-103300000D03*
X61250000Y-107450000D03*
%TO.P,SW1,2,2*%
%TO.N,GND*%
X59100000Y-103300000D03*
X59100000Y-107450000D03*
%TD*%
D19*
%TO.P,R15,1*%
%TO.N,Net-(D2-A)*%
X69450000Y-100450000D03*
%TO.P,R15,2*%
%TO.N,/3v3*%
X69450000Y-98450000D03*
%TD*%
D20*
%TO.P,R7,1*%
%TO.N,Net-(U3-SDO{slash}DNC{slash}SA0)*%
X82150000Y-122750000D03*
%TO.P,R7,2*%
%TO.N,/3v3*%
X82150000Y-124750000D03*
%TD*%
D21*
%TO.P,U3,1,VDDIO*%
%TO.N,/3v3*%
X83300000Y-118250000D03*
%TO.P,U3,2,SCK/SCL*%
%TO.N,/SCL*%
X82800000Y-118250000D03*
D22*
%TO.P,U3,3,VSS/GND*%
%TO.N,GND*%
X81700000Y-119050000D03*
%TO.P,U3,4,SDI/SDO/SDA*%
%TO.N,/SDA*%
X81700000Y-119550000D03*
%TO.P,U3,5,SDO/DNC/SA0*%
%TO.N,Net-(U3-SDO{slash}DNC{slash}SA0)*%
X81700000Y-120050000D03*
D21*
%TO.P,U3,6,~{CS}*%
%TO.N,Net-(U3-~{CS})*%
X82800000Y-120850000D03*
%TO.P,U3,7,INT/DNC*%
%TO.N,unconnected-(U3-INT{slash}DNC-Pad7)*%
X83300000Y-120850000D03*
D22*
%TO.P,U3,8,VSS/GND*%
%TO.N,GND*%
X84400000Y-120050000D03*
%TO.P,U3,9,VSS/GND*%
X84400000Y-119550000D03*
%TO.P,U3,10,VDD*%
%TO.N,/3v3*%
X84400000Y-119050000D03*
%TD*%
D23*
%TO.P,J2,2,Ext*%
%TO.N,GND*%
X64362500Y-93850000D03*
X61412500Y-93850000D03*
D24*
%TO.P,J2,1,In*%
%TO.N,Net-(J2-In)*%
X62887500Y-95375000D03*
%TD*%
D25*
%TO.P,U4,1,~{CS}*%
%TO.N,/Memory_CS*%
X60355000Y-112750000D03*
%TO.P,U4,2,DO(IO1)*%
%TO.N,/MISO*%
X59085000Y-112750000D03*
%TO.P,U4,3,IO2*%
%TO.N,unconnected-(U4-IO2-Pad3)*%
X57815000Y-112750000D03*
%TO.P,U4,4,GND*%
%TO.N,GND*%
X56545000Y-112750000D03*
%TO.P,U4,5,DI(IO0)*%
%TO.N,/MOSI*%
X56545000Y-119950000D03*
%TO.P,U4,6,CLK*%
%TO.N,/SCK*%
X57815000Y-119950000D03*
%TO.P,U4,7,IO3*%
%TO.N,unconnected-(U4-IO3-Pad7)*%
X59085000Y-119950000D03*
%TO.P,U4,8,VCC*%
%TO.N,/3v3*%
X60355000Y-119950000D03*
%TD*%
D16*
%TO.P,R4,1*%
%TO.N,/SiPM_Bias*%
X56387500Y-131512500D03*
%TO.P,R4,2*%
%TO.N,Net-(U2-FB)*%
X58387500Y-131512500D03*
%TD*%
D26*
%TO.P,C10,1*%
%TO.N,/3v3*%
X78837500Y-126322120D03*
%TO.P,C10,2*%
%TO.N,GND*%
X76762500Y-126322120D03*
%TD*%
%TO.P,C11,1*%
%TO.N,/ANT*%
X63937500Y-101350000D03*
%TO.P,C11,2*%
%TO.N,GND*%
X61862500Y-101350000D03*
%TD*%
D27*
%TO.P,C12,1*%
%TO.N,Net-(J2-In)*%
X61787500Y-97350000D03*
%TO.P,C12,2*%
%TO.N,GND*%
X63862500Y-97350000D03*
%TD*%
D17*
%TO.P,R2,1*%
%TO.N,Net-(U2-DACOUT)*%
X58387500Y-129462500D03*
%TO.P,R2,2*%
%TO.N,Net-(U2-FB)*%
X56387500Y-129462500D03*
%TD*%
D16*
%TO.P,R9,1*%
%TO.N,/SCL*%
X80950000Y-109050000D03*
%TO.P,R9,2*%
%TO.N,/3v3*%
X82950000Y-109050000D03*
%TD*%
D26*
%TO.P,C4,2*%
%TO.N,GND*%
X56300000Y-125162500D03*
%TO.P,C4,1*%
%TO.N,Net-(D1-K)*%
X58375000Y-125162500D03*
%TD*%
D28*
%TO.P,L1,2,2*%
%TO.N,Net-(D1-A)*%
X68400000Y-128400000D03*
%TO.P,L1,1,1*%
%TO.N,/V_BAT*%
X68400000Y-131450000D03*
%TD*%
D20*
%TO.P,R6,1*%
%TO.N,Net-(U3-~{CS})*%
X84150000Y-122750000D03*
%TO.P,R6,2*%
%TO.N,/3v3*%
X84150000Y-124750000D03*
%TD*%
D16*
%TO.P,R5,1*%
%TO.N,Net-(U2-FB)*%
X60450000Y-129537500D03*
%TO.P,R5,2*%
%TO.N,GND*%
X62450000Y-129537500D03*
%TD*%
%TO.P,R12,1*%
%TO.N,Net-(R11-Pad2)*%
X72100000Y-129972120D03*
%TO.P,R12,2*%
%TO.N,Net-(Q2-D)*%
X74100000Y-129972120D03*
%TD*%
D29*
%TO.P,J8,1,Pin_1*%
%TO.N,unconnected-(J8-Pin_1-Pad1)*%
X76290000Y-93935000D03*
%TO.P,J8,2,Pin_2*%
%TO.N,unconnected-(J8-Pin_2-Pad2)*%
X74290000Y-93935000D03*
%TO.P,J8,3,Pin_3*%
%TO.N,/SWDIO*%
X72290000Y-93935000D03*
%TO.P,J8,4,Pin_4*%
%TO.N,/SWCLK*%
X70290000Y-93935000D03*
%TO.P,J8,5,Pin_5*%
%TO.N,unconnected-(J8-Pin_5-Pad5)*%
X68290000Y-93935000D03*
%TD*%
D27*
%TO.P,C7,1*%
%TO.N,/V_BAT*%
X76725000Y-132322120D03*
%TO.P,C7,2*%
%TO.N,GND*%
X78800000Y-132322120D03*
%TD*%
D30*
%TO.P,J5,1,Pin_1*%
%TO.N,/3v3*%
X56462500Y-141750000D03*
D31*
%TO.P,J5,2,Pin_2*%
%TO.N,/SiPM_Temp*%
X57462500Y-143750000D03*
%TO.P,J5,3,Pin_3*%
%TO.N,/SiPM_Bias*%
X58462500Y-141750000D03*
%TO.P,J5,4,Pin_4*%
%TO.N,GND*%
X59462500Y-143750000D03*
%TO.P,J5,5,Pin_5*%
%TO.N,/SiPM_Signal*%
X60462500Y-141750000D03*
%TO.P,J5,6,Pin_6*%
%TO.N,/V_BAT*%
X61462500Y-143750000D03*
%TD*%
D27*
%TO.P,C8,1*%
%TO.N,/V_BAT*%
X76687500Y-134322120D03*
%TO.P,C8,2*%
%TO.N,GND*%
X78762500Y-134322120D03*
%TD*%
D31*
%TO.P,J4,4,Pin_4*%
%TO.N,/Anneal_Enable*%
X70262500Y-143750000D03*
%TO.P,J4,3,Pin_3*%
%TO.N,/Stim_Enable*%
X69262500Y-141750000D03*
%TO.P,J4,2,Pin_2*%
%TO.N,GND*%
X68262500Y-143750000D03*
D30*
%TO.P,J4,1,Pin_1*%
%TO.N,/V_BAT*%
X67262500Y-141750000D03*
%TD*%
D17*
%TO.P,R13,1*%
%TO.N,/Battery_Monitor*%
X74100000Y-127972120D03*
%TO.P,R13,2*%
%TO.N,Net-(R11-Pad2)*%
X72100000Y-127972120D03*
%TD*%
D32*
%TO.P,U6,1,VIN*%
%TO.N,/V_BAT*%
X76625000Y-128372120D03*
%TO.P,U6,2,GND*%
%TO.N,GND*%
X76625000Y-129322120D03*
%TO.P,U6,3,EN*%
%TO.N,/V_BAT*%
X76625000Y-130272120D03*
%TO.P,U6,4,NC*%
%TO.N,unconnected-(U6-NC-Pad4)*%
X78900000Y-130272120D03*
%TO.P,U6,5,VOUT*%
%TO.N,/3v3*%
X78900000Y-128372120D03*
%TD*%
D26*
%TO.P,C2,1*%
%TO.N,/V_BAT*%
X69337500Y-133700000D03*
%TO.P,C2,2*%
%TO.N,GND*%
X67262500Y-133700000D03*
%TD*%
D27*
%TO.P,C6,1*%
%TO.N,Net-(U5-C1)*%
X77525000Y-118750000D03*
%TO.P,C6,2*%
%TO.N,GND*%
X79600000Y-118750000D03*
%TD*%
D17*
%TO.P,R3,1*%
%TO.N,Net-(D1-K)*%
X58325000Y-127212500D03*
%TO.P,R3,2*%
%TO.N,/SiPM_Bias*%
X56325000Y-127212500D03*
%TD*%
D33*
%TO.P,Q1,3,D*%
%TO.N,Net-(D1-A)*%
X66762500Y-124950000D03*
%TO.P,Q1,2,S*%
%TO.N,GND*%
X68637500Y-124000000D03*
%TO.P,Q1,1,G*%
%TO.N,Net-(Q1-G)*%
X68637500Y-125900000D03*
%TD*%
D26*
%TO.P,C1,1*%
%TO.N,/3v3*%
X83037500Y-111100000D03*
%TO.P,C1,2*%
%TO.N,GND*%
X80962500Y-111100000D03*
%TD*%
D34*
%TO.P,J3,*%
%TO.N,*%
X74412500Y-143322120D03*
X81112500Y-143322120D03*
D35*
%TO.P,J3,1,Pin_1*%
%TO.N,/V_BAT*%
X76762500Y-137822120D03*
%TO.P,J3,2,Pin_2*%
%TO.N,GND*%
X78762500Y-137822120D03*
%TD*%
D27*
%TO.P,C5,1*%
%TO.N,/SiPM_Bias*%
X56387500Y-133612500D03*
%TO.P,C5,2*%
%TO.N,GND*%
X58462500Y-133612500D03*
%TD*%
D16*
%TO.P,R8,1*%
%TO.N,Net-(U5-CS_MAG)*%
X77550000Y-120750000D03*
%TO.P,R8,2*%
%TO.N,/3v3*%
X79550000Y-120750000D03*
%TD*%
%TO.P,R16,1*%
%TO.N,Net-(J2-In)*%
X61862500Y-99350000D03*
%TO.P,R16,2*%
%TO.N,/ANT*%
X63862500Y-99350000D03*
%TD*%
D26*
%TO.P,C9,1*%
%TO.N,/3v3*%
X78837500Y-124322120D03*
%TO.P,C9,2*%
%TO.N,GND*%
X76762500Y-124322120D03*
%TD*%
D36*
%TO.P,D1,1,K*%
%TO.N,Net-(D1-K)*%
X66850000Y-121900000D03*
%TO.P,D1,2,A*%
%TO.N,Net-(D1-A)*%
X70150000Y-121900000D03*
%TD*%
D17*
%TO.P,R11,1*%
%TO.N,/V_BAT*%
X74100000Y-131972120D03*
%TO.P,R11,2*%
%TO.N,Net-(R11-Pad2)*%
X72100000Y-131972120D03*
%TD*%
D37*
%TO.P,D2,1,K*%
%TO.N,/Status_LED*%
X71500000Y-100425000D03*
%TO.P,D2,2,A*%
%TO.N,Net-(D2-A)*%
X71500000Y-98375000D03*
%TD*%
D16*
%TO.P,R10,1*%
%TO.N,/SDA*%
X80950000Y-107050000D03*
%TO.P,R10,2*%
%TO.N,/3v3*%
X82950000Y-107050000D03*
%TD*%
D38*
%TO.P,Q2,1,G*%
%TO.N,/Battery_Monitor_Enable*%
X72225000Y-124022120D03*
%TO.P,Q2,2,S*%
%TO.N,GND*%
X72225000Y-125922120D03*
%TO.P,Q2,3,D*%
%TO.N,Net-(Q2-D)*%
X74100000Y-124972120D03*
%TD*%
D26*
%TO.P,C3,1*%
%TO.N,Net-(C3-Pad1)*%
X62518750Y-133581250D03*
%TO.P,C3,2*%
%TO.N,GND*%
X60443750Y-133581250D03*
%TD*%
D39*
%TO.N,GND*%
X67662500Y-119650000D03*
%TO.N,/3v3*%
X69162500Y-118150000D03*
X61262500Y-118950000D03*
%TO.N,GND*%
X80462500Y-125350000D03*
X56062500Y-105650000D03*
%TO.N,/3v3*%
X68362500Y-99450000D03*
X57762500Y-109350000D03*
X58862500Y-121850000D03*
%TO.N,GND*%
X68300000Y-106700000D03*
X72200000Y-124950000D03*
X75400000Y-111700000D03*
X84400000Y-121300000D03*
X75550000Y-123350000D03*
X60462500Y-135150000D03*
%TO.N,/SiPM_Temp*%
X70650000Y-110800000D03*
%TO.N,/SiPM_Signal*%
X70250000Y-112400000D03*
%TO.N,/MISO*%
X68100000Y-113250000D03*
%TO.N,/ACCEL_INT*%
X69250000Y-106000000D03*
%TO.N,/Stim_Enable*%
X71150000Y-117350000D03*
%TO.N,/Anneal_Enable*%
X72250000Y-117350000D03*
%TO.N,GND*%
X67624258Y-116860856D03*
X79600000Y-117000000D03*
%TO.N,/SCL*%
X81950000Y-117850000D03*
X79675000Y-107950000D03*
X74250000Y-122600000D03*
%TO.N,/SDA*%
X79550000Y-106650000D03*
X75850000Y-121000000D03*
X81225000Y-121000000D03*
%TO.N,/ACCEL_INT*%
X71664950Y-119925000D03*
%TO.N,GND*%
X76050000Y-118100000D03*
X63150000Y-106700000D03*
%TO.N,/SWDIO*%
X75900000Y-110400000D03*
X73200000Y-96750000D03*
%TO.N,/SWCLK*%
X75900000Y-109200000D03*
X71192111Y-96751456D03*
%TO.N,/USB_RX*%
X74346971Y-96777794D03*
%TO.N,/USB_TX*%
X72191988Y-96767294D03*
%TO.N,/RST*%
X70193930Y-96691140D03*
%TO.N,/MISO*%
X61700000Y-114450000D03*
%TO.N,/MOSI*%
X63850000Y-113700000D03*
X70550000Y-105150000D03*
%TO.N,/Bias_CS*%
X65250113Y-119550000D03*
X65016958Y-121999504D03*
%TO.N,/SCK*%
X58050000Y-117750000D03*
X63800000Y-121822120D03*
%TO.N,/MOSI*%
X62712347Y-121759773D03*
X56962500Y-117750000D03*
%TD*%
D40*
%TO.N,/V_BAT*%
X67262500Y-141750000D02*
X67262500Y-139909620D01*
X67262500Y-139909620D02*
X69350000Y-137822120D01*
X61462500Y-143750000D02*
X65262500Y-143750000D01*
X65262500Y-143750000D02*
X67262500Y-141750000D01*
%TO.N,/SiPM_Bias*%
X56387500Y-133612500D02*
X56387500Y-139185050D01*
X56387500Y-139185050D02*
X58462500Y-141260050D01*
X58462500Y-141260050D02*
X58462500Y-141750000D01*
%TO.N,/V_BAT*%
X76762500Y-137822120D02*
X69350000Y-137822120D01*
D41*
X76687500Y-134322120D02*
X76687500Y-137747120D01*
D42*
%TO.N,/ANT*%
X65750000Y-105425000D02*
X63937500Y-103612500D01*
X63937500Y-103612500D02*
X63937500Y-101350000D01*
D41*
%TO.N,/Battery_Monitor*%
X69451104Y-118875000D02*
X68862195Y-118875000D01*
X68862195Y-118875000D02*
X68437500Y-118450305D01*
X68437500Y-118450305D02*
X68437500Y-117649695D01*
D42*
%TO.N,/Battery_Monitor_Enable*%
X69250000Y-116225064D02*
X69250000Y-115175000D01*
D41*
%TO.N,/Battery_Monitor*%
X74100000Y-127972120D02*
X75200000Y-126872120D01*
X75200000Y-124623896D02*
X69451104Y-118875000D01*
X68862195Y-117225000D02*
X69600000Y-117225000D01*
X70500000Y-116325000D02*
X70500000Y-115175000D01*
D42*
%TO.N,/Battery_Monitor_Enable*%
X68012500Y-117462564D02*
X69250000Y-116225064D01*
X72225000Y-124022120D02*
X72225000Y-122349936D01*
X69175064Y-119300000D02*
X68686155Y-119300000D01*
D41*
%TO.N,/3v3*%
X61262500Y-118950000D02*
X61262500Y-119042500D01*
X73250000Y-118150000D02*
X69162500Y-118150000D01*
%TO.N,/Battery_Monitor*%
X69600000Y-117225000D02*
X70500000Y-116325000D01*
D42*
%TO.N,/Battery_Monitor_Enable*%
X72225000Y-122349936D02*
X69175064Y-119300000D01*
X68686155Y-119300000D02*
X68012500Y-118626345D01*
D41*
%TO.N,/Battery_Monitor*%
X68437500Y-117649695D02*
X68862195Y-117225000D01*
%TO.N,/3v3*%
X73500000Y-118400000D02*
X73250000Y-118150000D01*
D42*
%TO.N,/Battery_Monitor_Enable*%
X68012500Y-118626345D02*
X68012500Y-117462564D01*
D41*
%TO.N,/Battery_Monitor*%
X75200000Y-126872120D02*
X75200000Y-124623896D01*
%TO.N,/3v3*%
X61262500Y-119042500D02*
X60355000Y-119950000D01*
D42*
X68362500Y-99450000D02*
X68450000Y-99450000D01*
X68450000Y-99450000D02*
X69450000Y-98450000D01*
D41*
%TO.N,/MOSI*%
X57626752Y-116950000D02*
X56962500Y-117614252D01*
X63850000Y-113700000D02*
X60600000Y-116950000D01*
X56962500Y-117614252D02*
X56962500Y-117750000D01*
X60600000Y-116950000D02*
X57626752Y-116950000D01*
D42*
%TO.N,/3v3*%
X59100000Y-109350000D02*
X59150000Y-109300000D01*
D41*
%TO.N,/MOSI*%
X56550000Y-119945000D02*
X56550000Y-118162500D01*
X56550000Y-118162500D02*
X56962500Y-117750000D01*
D42*
%TO.N,/3v3*%
X57762500Y-109350000D02*
X59100000Y-109350000D01*
X58862500Y-121850000D02*
X60355000Y-120357500D01*
X60355000Y-120357500D02*
X60355000Y-119950000D01*
X84400000Y-119050000D02*
X85199264Y-119050000D01*
X85199264Y-119050000D02*
X85450000Y-119300736D01*
X85450000Y-119300736D02*
X85450000Y-123450000D01*
X85450000Y-123450000D02*
X84150000Y-124750000D01*
X84400000Y-119050000D02*
X84100000Y-119050000D01*
X84100000Y-119050000D02*
X83300000Y-118250000D01*
D41*
X78837500Y-124322120D02*
X79550000Y-124322120D01*
X79550000Y-120750000D02*
X79550000Y-124322120D01*
X79550000Y-124322120D02*
X81722120Y-124322120D01*
D42*
%TO.N,/SiPM_Signal*%
X71350000Y-110675000D02*
X71350000Y-111300000D01*
X76600000Y-105425000D02*
X71350000Y-110675000D01*
X77750000Y-105425000D02*
X76600000Y-105425000D01*
%TO.N,/ACCEL_INT*%
X72950000Y-119950000D02*
X71689950Y-119950000D01*
%TO.N,/SiPM_Temp*%
X75500000Y-105950000D02*
X70650000Y-110800000D01*
%TO.N,/SiPM_Signal*%
X71350000Y-111300000D02*
X70250000Y-112400000D01*
%TO.N,/ACCEL_INT*%
X71689950Y-119950000D02*
X71664950Y-119925000D01*
%TO.N,/SiPM_Temp*%
X75500000Y-103175000D02*
X75500000Y-105950000D01*
D41*
%TO.N,/MISO*%
X68100000Y-113250000D02*
X72225000Y-113250000D01*
X72225000Y-113250000D02*
X73000000Y-114025000D01*
X73000000Y-114025000D02*
X73000000Y-115175000D01*
D42*
%TO.N,/ACCEL_INT*%
X69250000Y-106000000D02*
X69250000Y-103175000D01*
%TO.N,/Stim_Enable*%
X71750000Y-115175000D02*
X71750000Y-116750000D01*
X71750000Y-116750000D02*
X71150000Y-117350000D01*
%TO.N,/Anneal_Enable*%
X74250000Y-115175000D02*
X74250000Y-116300736D01*
X74250000Y-116300736D02*
X73200736Y-117350000D01*
X73200736Y-117350000D02*
X72250000Y-117350000D01*
D40*
%TO.N,Net-(D1-A)*%
X70475000Y-122225000D02*
X70475000Y-124750000D01*
X70475000Y-124750000D02*
X70475000Y-128125000D01*
D43*
X66762500Y-124950000D02*
X66962500Y-124750000D01*
X66962500Y-124750000D02*
X70475000Y-124750000D01*
D40*
X70150000Y-121900000D02*
X70475000Y-122225000D01*
D43*
%TO.N,Net-(Q1-G)*%
X64912500Y-126200000D02*
X64650000Y-125937500D01*
D40*
%TO.N,Net-(D1-A)*%
X70475000Y-128125000D02*
X70200000Y-128400000D01*
D42*
%TO.N,/V_BAT*%
X64650000Y-125137500D02*
X65201104Y-125137500D01*
X67863604Y-125300000D02*
X69411396Y-125300000D01*
D43*
%TO.N,Net-(Q1-G)*%
X68337500Y-126200000D02*
X64912500Y-126200000D01*
D40*
%TO.N,Net-(D1-A)*%
X70200000Y-128400000D02*
X68400000Y-128400000D01*
D43*
%TO.N,Net-(Q1-G)*%
X68637500Y-125900000D02*
X68337500Y-126200000D01*
D42*
%TO.N,/V_BAT*%
X67600000Y-125563604D02*
X67863604Y-125300000D01*
X65201104Y-125137500D02*
X65627208Y-125563604D01*
X65627208Y-125563604D02*
X67600000Y-125563604D01*
X66300000Y-127525736D02*
X66300000Y-129350000D01*
X69411396Y-125300000D02*
X69675000Y-125563604D01*
X69675000Y-125563604D02*
X69675000Y-126236396D01*
X68561396Y-127350000D02*
X66475736Y-127350000D01*
X66300000Y-129350000D02*
X68400000Y-131450000D01*
X69675000Y-126236396D02*
X68561396Y-127350000D01*
X66475736Y-127350000D02*
X66300000Y-127525736D01*
D40*
X69337500Y-133700000D02*
X69337500Y-132387500D01*
X69337500Y-132387500D02*
X68400000Y-131450000D01*
X69337500Y-133700000D02*
X69337500Y-137809620D01*
X69337500Y-137809620D02*
X69350000Y-137822120D01*
%TO.N,Net-(D1-K)*%
X58375000Y-123932082D02*
X59303541Y-123003541D01*
X59303541Y-123003541D02*
X59850000Y-122457082D01*
D42*
X60650000Y-124337500D02*
X59316041Y-123003541D01*
X59316041Y-123003541D02*
X59303541Y-123003541D01*
D41*
%TO.N,/Bias_CS*%
X65750000Y-111675000D02*
X66900000Y-111675000D01*
D40*
%TO.N,Net-(D1-K)*%
X61657082Y-120650000D02*
X65600000Y-120650000D01*
D41*
%TO.N,/Bias_CS*%
X65016958Y-123970542D02*
X65016958Y-121999504D01*
X64650000Y-124337500D02*
X65016958Y-123970542D01*
X67225000Y-113559620D02*
X65250113Y-115534507D01*
D40*
%TO.N,Net-(D1-K)*%
X65600000Y-120650000D02*
X66850000Y-121900000D01*
D41*
%TO.N,/Bias_CS*%
X66900000Y-111675000D02*
X67225000Y-112000000D01*
D40*
%TO.N,Net-(D1-K)*%
X58375000Y-125162500D02*
X58375000Y-123932082D01*
D41*
%TO.N,/Bias_CS*%
X67225000Y-112000000D02*
X67225000Y-113559620D01*
X65250113Y-115534507D02*
X65250113Y-119550000D01*
D40*
%TO.N,Net-(D1-K)*%
X59850000Y-122457082D02*
X59850000Y-122450000D01*
X59850000Y-122450000D02*
X59857082Y-122450000D01*
X59857082Y-122450000D02*
X61657082Y-120650000D01*
X58375000Y-125162500D02*
X58375000Y-127162500D01*
X58375000Y-127162500D02*
X58325000Y-127212500D01*
%TO.N,/SiPM_Bias*%
X56387500Y-131512500D02*
X55787500Y-131512500D01*
X55787500Y-131512500D02*
X55087500Y-130812500D01*
X55087500Y-130812500D02*
X55087500Y-128450000D01*
X55087500Y-128450000D02*
X56325000Y-127212500D01*
X56387500Y-133612500D02*
X56387500Y-131512500D01*
D41*
%TO.N,/V_BAT*%
X76625000Y-128372120D02*
X75962500Y-128372120D01*
X75962500Y-128372120D02*
X75637500Y-128697120D01*
X75637500Y-128697120D02*
X75637500Y-129737500D01*
X75637500Y-129737500D02*
X76172120Y-130272120D01*
X76172120Y-130272120D02*
X76625000Y-130272120D01*
%TO.N,GND*%
X84400000Y-120050000D02*
X84400000Y-121000000D01*
X84400000Y-119550000D02*
X84400000Y-120050000D01*
X81700000Y-119050000D02*
X79900000Y-119050000D01*
X79900000Y-119050000D02*
X79600000Y-118750000D01*
D42*
%TO.N,/SDA*%
X80650000Y-120425000D02*
X81225000Y-121000000D01*
X81700000Y-119550000D02*
X80900736Y-119550000D01*
X80900736Y-119550000D02*
X80650000Y-119800736D01*
X80650000Y-119800736D02*
X80650000Y-120425000D01*
D41*
%TO.N,/SCL*%
X81950000Y-117850000D02*
X82400000Y-117850000D01*
X82400000Y-117850000D02*
X82800000Y-118250000D01*
X79650000Y-107925000D02*
X79675000Y-107950000D01*
X77750000Y-107925000D02*
X79650000Y-107925000D01*
X79675000Y-108375000D02*
X79675000Y-107950000D01*
X80350000Y-109050000D02*
X79675000Y-108375000D01*
X80950000Y-109050000D02*
X80350000Y-109050000D01*
X73500000Y-121000000D02*
X73500000Y-121884620D01*
X73500000Y-121884620D02*
X74215380Y-122600000D01*
X74215380Y-122600000D02*
X74250000Y-122600000D01*
%TO.N,/SDA*%
X79575000Y-106675000D02*
X80575000Y-106675000D01*
X79550000Y-106650000D02*
X79575000Y-106675000D01*
X79525000Y-106675000D02*
X79550000Y-106650000D01*
D42*
X75000000Y-121000000D02*
X75850000Y-121000000D01*
%TO.N,Net-(U5-CS_MAG)*%
X74500000Y-121000000D02*
X74500000Y-121849264D01*
X74500000Y-121849264D02*
X74700736Y-122050000D01*
X74700736Y-122050000D02*
X76250000Y-122050000D01*
X76250000Y-122050000D02*
X77550000Y-120750000D01*
X74000000Y-121000000D02*
X74500000Y-121000000D01*
%TO.N,GND*%
X75550000Y-119450000D02*
X74700736Y-119450000D01*
X74700736Y-119450000D02*
X74500000Y-119249264D01*
X74500000Y-119249264D02*
X74500000Y-118400000D01*
D41*
X76050000Y-118100000D02*
X76050000Y-118950000D01*
X76050000Y-118950000D02*
X75550000Y-119450000D01*
%TO.N,/3v3*%
X74215380Y-117300000D02*
X77750000Y-117300000D01*
X77750000Y-117300000D02*
X77950000Y-117300000D01*
X77750000Y-112925000D02*
X77750000Y-117300000D01*
X73987500Y-118400000D02*
X73987500Y-117527880D01*
X73987500Y-117527880D02*
X74215380Y-117300000D01*
X77950000Y-117300000D02*
X78687500Y-118037500D01*
X78687500Y-118037500D02*
X78687500Y-119887500D01*
X78687500Y-119887500D02*
X79550000Y-120750000D01*
X73500000Y-118400000D02*
X73987500Y-118400000D01*
%TO.N,Net-(U5-C1)*%
X75550000Y-119950000D02*
X76434620Y-119950000D01*
X76434620Y-119950000D02*
X77525000Y-118859620D01*
X77525000Y-118859620D02*
X77525000Y-118750000D01*
%TO.N,Net-(U3-SDO{slash}DNC{slash}SA0)*%
X81700000Y-120050000D02*
X82150000Y-120500000D01*
X82150000Y-120500000D02*
X82150000Y-122750000D01*
%TO.N,Net-(U3-~{CS})*%
X82800000Y-120850000D02*
X82800000Y-121684620D01*
X82800000Y-121684620D02*
X83865380Y-122750000D01*
X83865380Y-122750000D02*
X84150000Y-122750000D01*
%TO.N,/3v3*%
X82150000Y-124750000D02*
X84150000Y-124750000D01*
X81722120Y-124322120D02*
X82150000Y-124750000D01*
X83037500Y-111100000D02*
X81212500Y-112925000D01*
X81212500Y-112925000D02*
X77750000Y-112925000D01*
X82950000Y-109050000D02*
X82950000Y-111012500D01*
X82950000Y-111012500D02*
X83037500Y-111100000D01*
X82950000Y-107050000D02*
X82950000Y-109050000D01*
%TO.N,/SDA*%
X77750000Y-106675000D02*
X79525000Y-106675000D01*
X80575000Y-106675000D02*
X80950000Y-107050000D01*
%TO.N,GND*%
X76762500Y-124322120D02*
X76762500Y-126322120D01*
%TO.N,/RST*%
X66900000Y-107925000D02*
X67225000Y-107600000D01*
X69595686Y-96691140D02*
X70193930Y-96691140D01*
%TO.N,/USB_TX*%
X73000000Y-97575306D02*
X72191988Y-96767294D01*
%TO.N,/RST*%
X67225000Y-107600000D02*
X67225000Y-104525000D01*
%TO.N,/SWCLK*%
X70290000Y-93935000D02*
X71192111Y-94837111D01*
%TO.N,/RST*%
X65750000Y-107925000D02*
X66900000Y-107925000D01*
X67175000Y-104475000D02*
X67175000Y-99111826D01*
%TO.N,/SWDIO*%
X72290000Y-93935000D02*
X72290000Y-95840000D01*
%TO.N,/USB_RX*%
X74250000Y-103175000D02*
X74250000Y-96874765D01*
%TO.N,/SWDIO*%
X75900000Y-110400000D02*
X77725000Y-110400000D01*
%TO.N,/USB_TX*%
X73000000Y-103175000D02*
X73000000Y-97575306D01*
%TO.N,/RST*%
X67175000Y-99111826D02*
X69595686Y-96691140D01*
%TO.N,/SWDIO*%
X72290000Y-95840000D02*
X73200000Y-96750000D01*
%TO.N,/RST*%
X67225000Y-104525000D02*
X67175000Y-104475000D01*
%TO.N,/SWCLK*%
X71192111Y-94837111D02*
X71192111Y-96751456D01*
%TO.N,/USB_RX*%
X74250000Y-96874765D02*
X74346971Y-96777794D01*
%TO.N,/SWDIO*%
X77725000Y-110400000D02*
X77750000Y-110425000D01*
%TO.N,/SWCLK*%
X77725000Y-109200000D02*
X77750000Y-109175000D01*
X75900000Y-109200000D02*
X77725000Y-109200000D01*
%TO.N,Net-(D2-A)*%
X71500000Y-98375000D02*
X71500000Y-98400000D01*
X71500000Y-98400000D02*
X69450000Y-100450000D01*
%TO.N,/Status_LED*%
X71500000Y-100425000D02*
X71500000Y-102925000D01*
X71500000Y-102925000D02*
X71750000Y-103175000D01*
%TO.N,/MISO*%
X59085000Y-112750000D02*
X59085000Y-113550000D01*
X59085000Y-113550000D02*
X59985000Y-114450000D01*
X59985000Y-114450000D02*
X61700000Y-114450000D01*
%TO.N,/ANT*%
X63937500Y-101350000D02*
X64395000Y-101350000D01*
%TO.N,/RST*%
X61250000Y-107450000D02*
X61725000Y-107925000D01*
X61725000Y-107925000D02*
X65750000Y-107925000D01*
%TO.N,/Memory_CS*%
X65750000Y-110425000D02*
X62680000Y-110425000D01*
X62680000Y-110425000D02*
X60355000Y-112750000D01*
%TO.N,/SCK*%
X60925000Y-117750000D02*
X58050000Y-117750000D01*
X65750000Y-112925000D02*
X60925000Y-117750000D01*
%TO.N,/MOSI*%
X70550000Y-105150000D02*
X70550000Y-103225000D01*
X70550000Y-103225000D02*
X70500000Y-103175000D01*
X62650000Y-121822120D02*
X62712347Y-121759773D01*
X62650000Y-123137500D02*
X62650000Y-121822120D01*
%TO.N,Net-(J2-In)*%
X62887500Y-95375000D02*
X62887500Y-96250000D01*
X62887500Y-96250000D02*
X61787500Y-97350000D01*
X61787500Y-97350000D02*
X61787500Y-99275000D01*
X61787500Y-99275000D02*
X61862500Y-99350000D01*
%TO.N,/ANT*%
X63862500Y-99350000D02*
X63862500Y-101275000D01*
X63862500Y-101275000D02*
X63937500Y-101350000D01*
%TO.N,/RST*%
X61250000Y-107450000D02*
X61250000Y-109200000D01*
X61250000Y-109200000D02*
X61150000Y-109300000D01*
X61250000Y-103300000D02*
X61250000Y-107450000D01*
%TO.N,/SCK*%
X63450000Y-122172120D02*
X63800000Y-121822120D01*
X58050000Y-119715000D02*
X57815000Y-119950000D01*
X63450000Y-123137500D02*
X63450000Y-122172120D01*
X58050000Y-117750000D02*
X58050000Y-119715000D01*
%TO.N,GND*%
X62650000Y-125137500D02*
X63450000Y-125937500D01*
X63450000Y-125937500D02*
X63450000Y-127137500D01*
%TO.N,/V_BAT*%
X74100000Y-131972120D02*
X76375000Y-131972120D01*
X76375000Y-131972120D02*
X76725000Y-132322120D01*
X76687500Y-137747120D02*
X76762500Y-137822120D01*
X76725000Y-132322120D02*
X76725000Y-134284620D01*
X76725000Y-134284620D02*
X76687500Y-134322120D01*
X76625000Y-130272120D02*
X76625000Y-132222120D01*
X76625000Y-132222120D02*
X76725000Y-132322120D01*
%TO.N,/3v3*%
X78837500Y-126322120D02*
X78837500Y-128309620D01*
X78837500Y-128309620D02*
X78900000Y-128372120D01*
X78837500Y-124322120D02*
X78837500Y-126322120D01*
%TO.N,Net-(Q2-D)*%
X74100000Y-129972120D02*
X73175000Y-129047120D01*
X73175000Y-129047120D02*
X73175000Y-126422120D01*
X73175000Y-126422120D02*
X74100000Y-125497120D01*
X74100000Y-125497120D02*
X74100000Y-124972120D01*
%TO.N,Net-(R11-Pad2)*%
X72100000Y-127972120D02*
X72100000Y-129972120D01*
X72100000Y-131972120D02*
X72100000Y-129972120D01*
%TO.N,Net-(C3-Pad1)*%
X60456250Y-131531250D02*
X60468750Y-131531250D01*
X60468750Y-131531250D02*
X62518750Y-133581250D01*
%TO.N,Net-(U2-FB)*%
X60450000Y-128537500D02*
X60450000Y-129537500D01*
X61850000Y-127137500D02*
X60450000Y-128537500D01*
%TO.N,Net-(U2-COMP)*%
X62650000Y-127137500D02*
X62650000Y-127722120D01*
X62650000Y-127722120D02*
X61525000Y-128847120D01*
X61525000Y-128847120D02*
X61525000Y-130600000D01*
X61525000Y-130600000D02*
X62456250Y-131531250D01*
%TO.N,/SiPM_Bias*%
X57350000Y-128237500D02*
X56325000Y-127212500D01*
%TO.N,Net-(U2-DACOUT)*%
X59700000Y-126887500D02*
X60650000Y-125937500D01*
%TO.N,/SiPM_Bias*%
X58976104Y-128237500D02*
X57350000Y-128237500D01*
X59250000Y-125952880D02*
X59250000Y-127963604D01*
X60065380Y-125137500D02*
X59250000Y-125952880D01*
%TO.N,Net-(U2-DACOUT)*%
X58387500Y-129462500D02*
X59700000Y-128150000D01*
%TO.N,/SiPM_Bias*%
X59250000Y-127963604D02*
X58976104Y-128237500D01*
X60650000Y-125137500D02*
X60065380Y-125137500D01*
%TO.N,Net-(U2-DACOUT)*%
X59700000Y-128150000D02*
X59700000Y-126887500D01*
%TO.N,Net-(U2-FB)*%
X60450000Y-129537500D02*
X58475000Y-131512500D01*
X58475000Y-131512500D02*
X58387500Y-131512500D01*
%TO.N,GND*%
X60443750Y-133581250D02*
X60443750Y-133543750D01*
%TO.N,/MOSI*%
X62650000Y-122537500D02*
X62600000Y-122587500D01*
%TO.N,Net-(U2-FB)*%
X58387500Y-131512500D02*
X58387500Y-131462500D01*
X58387500Y-131462500D02*
X56387500Y-129462500D01*
%TD*%
%TA.AperFunction,Conductor*%
%TO.N,GND*%
G36*
X86064203Y-123868629D02*
G01*
X86096967Y-123930341D01*
X86099500Y-123955276D01*
X86099500Y-143947785D01*
X86099342Y-143952209D01*
X86094521Y-144019621D01*
X86082950Y-144166636D01*
X86081722Y-144174959D01*
X86061102Y-144269751D01*
X86033142Y-144386213D01*
X86030944Y-144393412D01*
X85995016Y-144489742D01*
X85951055Y-144595866D01*
X85948189Y-144601857D01*
X85898464Y-144692923D01*
X85896911Y-144695605D01*
X85838525Y-144790883D01*
X85835292Y-144795646D01*
X85772569Y-144879434D01*
X85770080Y-144882544D01*
X85698008Y-144966931D01*
X85694702Y-144970507D01*
X85620507Y-145044702D01*
X85616931Y-145048008D01*
X85532544Y-145120080D01*
X85529434Y-145122569D01*
X85445646Y-145185292D01*
X85440883Y-145188525D01*
X85345605Y-145246911D01*
X85342923Y-145248464D01*
X85251857Y-145298189D01*
X85245866Y-145301055D01*
X85139742Y-145345016D01*
X85043412Y-145380944D01*
X85036213Y-145383142D01*
X84919751Y-145411102D01*
X84824959Y-145431722D01*
X84816636Y-145432950D01*
X84669723Y-145444513D01*
X84602210Y-145449342D01*
X84597786Y-145449500D01*
X82414243Y-145449500D01*
X82347204Y-145429815D01*
X82301449Y-145377011D01*
X82291505Y-145307853D01*
X82305410Y-145266074D01*
X82306291Y-145264456D01*
X82306296Y-145264451D01*
X82356591Y-145129603D01*
X82363000Y-145069993D01*
X82362999Y-141574248D01*
X82356591Y-141514637D01*
X82306296Y-141379789D01*
X82306295Y-141379788D01*
X82306293Y-141379784D01*
X82220047Y-141264575D01*
X82220044Y-141264572D01*
X82104835Y-141178326D01*
X82104828Y-141178322D01*
X81969982Y-141128028D01*
X81969983Y-141128028D01*
X81910383Y-141121621D01*
X81910381Y-141121620D01*
X81910373Y-141121620D01*
X81910364Y-141121620D01*
X80314629Y-141121620D01*
X80314623Y-141121621D01*
X80255016Y-141128028D01*
X80120171Y-141178322D01*
X80120164Y-141178326D01*
X80004955Y-141264572D01*
X80004952Y-141264575D01*
X79918706Y-141379784D01*
X79918702Y-141379791D01*
X79868408Y-141514637D01*
X79862001Y-141574236D01*
X79862001Y-141574243D01*
X79862000Y-141574255D01*
X79862000Y-145069990D01*
X79862001Y-145069996D01*
X79868408Y-145129603D01*
X79918703Y-145264449D01*
X79919590Y-145266074D01*
X79919983Y-145267882D01*
X79921803Y-145272761D01*
X79921101Y-145273022D01*
X79934441Y-145334347D01*
X79910024Y-145399811D01*
X79854090Y-145441682D01*
X79810757Y-145449500D01*
X75714243Y-145449500D01*
X75647204Y-145429815D01*
X75601449Y-145377011D01*
X75591505Y-145307853D01*
X75605410Y-145266074D01*
X75606291Y-145264456D01*
X75606296Y-145264451D01*
X75656591Y-145129603D01*
X75663000Y-145069993D01*
X75662999Y-141574248D01*
X75656591Y-141514637D01*
X75606296Y-141379789D01*
X75606295Y-141379788D01*
X75606293Y-141379784D01*
X75520047Y-141264575D01*
X75520044Y-141264572D01*
X75404835Y-141178326D01*
X75404828Y-141178322D01*
X75269982Y-141128028D01*
X75269983Y-141128028D01*
X75210383Y-141121621D01*
X75210381Y-141121620D01*
X75210373Y-141121620D01*
X75210364Y-141121620D01*
X73614629Y-141121620D01*
X73614623Y-141121621D01*
X73555016Y-141128028D01*
X73420171Y-141178322D01*
X73420164Y-141178326D01*
X73304955Y-141264572D01*
X73304952Y-141264575D01*
X73218706Y-141379784D01*
X73218702Y-141379791D01*
X73168408Y-141514637D01*
X73162001Y-141574236D01*
X73162001Y-141574243D01*
X73162000Y-141574255D01*
X73162000Y-145069990D01*
X73162001Y-145069996D01*
X73168408Y-145129603D01*
X73218703Y-145264449D01*
X73219590Y-145266074D01*
X73219983Y-145267882D01*
X73221803Y-145272761D01*
X73221101Y-145273022D01*
X73234441Y-145334347D01*
X73210024Y-145399811D01*
X73154090Y-145441682D01*
X73110757Y-145449500D01*
X55602214Y-145449500D01*
X55597791Y-145449342D01*
X55570244Y-145447371D01*
X55530373Y-145444520D01*
X55383361Y-145432949D01*
X55375038Y-145431722D01*
X55280272Y-145411107D01*
X55163786Y-145383141D01*
X55156586Y-145380943D01*
X55060269Y-145345019D01*
X54954135Y-145301056D01*
X54948144Y-145298190D01*
X54892639Y-145267882D01*
X54857077Y-145248464D01*
X54854405Y-145246916D01*
X54759110Y-145188520D01*
X54754347Y-145185288D01*
X54670574Y-145122576D01*
X54667471Y-145120094D01*
X54583061Y-145048001D01*
X54579485Y-145044695D01*
X54505303Y-144970513D01*
X54501997Y-144966937D01*
X54501992Y-144966931D01*
X54429898Y-144882520D01*
X54427430Y-144879434D01*
X54364701Y-144795638D01*
X54361487Y-144790901D01*
X54303079Y-144695588D01*
X54301546Y-144692943D01*
X54251802Y-144601841D01*
X54248945Y-144595870D01*
X54204983Y-144489737D01*
X54169052Y-144393404D01*
X54166860Y-144386224D01*
X54138900Y-144269764D01*
X54118275Y-144174953D01*
X54117051Y-144166651D01*
X54105480Y-144019626D01*
X54100658Y-143952211D01*
X54100500Y-143947787D01*
X54100500Y-131539783D01*
X54120185Y-131472744D01*
X54172989Y-131426989D01*
X54242147Y-131417045D01*
X54305703Y-131446070D01*
X54312181Y-131452102D01*
X54351466Y-131491387D01*
X54354670Y-131494843D01*
X54394631Y-131541393D01*
X54421794Y-131562418D01*
X54427690Y-131567611D01*
X55071066Y-132210987D01*
X55132441Y-132275553D01*
X55132444Y-132275555D01*
X55132445Y-132275556D01*
X55182795Y-132310601D01*
X55186547Y-132313429D01*
X55234092Y-132352197D01*
X55234095Y-132352198D01*
X55234097Y-132352200D01*
X55264539Y-132368101D01*
X55271253Y-132372168D01*
X55299451Y-132391795D01*
X55299456Y-132391797D01*
X55311899Y-132397137D01*
X55365743Y-132441663D01*
X55386967Y-132508231D01*
X55387000Y-132511088D01*
X55387000Y-132747634D01*
X55368541Y-132812725D01*
X55366188Y-132816539D01*
X55365185Y-132818167D01*
X55342150Y-132887684D01*
X55310001Y-132984703D01*
X55310001Y-132984704D01*
X55310000Y-132984704D01*
X55299500Y-133087483D01*
X55299500Y-134137501D01*
X55299501Y-134137519D01*
X55310000Y-134240296D01*
X55310001Y-134240299D01*
X55365185Y-134406831D01*
X55365188Y-134406838D01*
X55368538Y-134412268D01*
X55387000Y-134477366D01*
X55387000Y-139172333D01*
X55384743Y-139261412D01*
X55384743Y-139261420D01*
X55395564Y-139321789D01*
X55396218Y-139326454D01*
X55402425Y-139387480D01*
X55402427Y-139387494D01*
X55412708Y-139420263D01*
X55414579Y-139427887D01*
X55420642Y-139461702D01*
X55420642Y-139461705D01*
X55443394Y-139518662D01*
X55444974Y-139523101D01*
X55463341Y-139581638D01*
X55463344Y-139581645D01*
X55480009Y-139611669D01*
X55483379Y-139618764D01*
X55496122Y-139650664D01*
X55496127Y-139650674D01*
X55529877Y-139701883D01*
X55532318Y-139705913D01*
X55562088Y-139759548D01*
X55562089Y-139759549D01*
X55562091Y-139759552D01*
X55584468Y-139785617D01*
X55589193Y-139791885D01*
X55601763Y-139810956D01*
X55608098Y-139820569D01*
X55651478Y-139863949D01*
X55654669Y-139867393D01*
X55694631Y-139913942D01*
X55694630Y-139913942D01*
X55721799Y-139934973D01*
X55727686Y-139940157D01*
X56075250Y-140287721D01*
X56075348Y-140287819D01*
X56108833Y-140349142D01*
X56103849Y-140418834D01*
X56061977Y-140474767D01*
X55996513Y-140499184D01*
X55987667Y-140499500D01*
X55664630Y-140499500D01*
X55664623Y-140499501D01*
X55605016Y-140505908D01*
X55470171Y-140556202D01*
X55470164Y-140556206D01*
X55354955Y-140642452D01*
X55354952Y-140642455D01*
X55268706Y-140757664D01*
X55268702Y-140757671D01*
X55218408Y-140892517D01*
X55212001Y-140952116D01*
X55212000Y-140952135D01*
X55212000Y-142547870D01*
X55212001Y-142547876D01*
X55218408Y-142607483D01*
X55268702Y-142742328D01*
X55268706Y-142742335D01*
X55354952Y-142857544D01*
X55354955Y-142857547D01*
X55470164Y-142943793D01*
X55470171Y-142943797D01*
X55605017Y-142994091D01*
X55605016Y-142994091D01*
X55611944Y-142994835D01*
X55664627Y-143000500D01*
X56237582Y-143000499D01*
X56304621Y-143020183D01*
X56350376Y-143072987D01*
X56360320Y-143142146D01*
X56349964Y-143176903D01*
X56282927Y-143320663D01*
X56282922Y-143320677D01*
X56226293Y-143532020D01*
X56226293Y-143532024D01*
X56207224Y-143749993D01*
X56207223Y-143750000D01*
X56224526Y-143947785D01*
X56226293Y-143967975D01*
X56226293Y-143967979D01*
X56282922Y-144179322D01*
X56282924Y-144179326D01*
X56282925Y-144179330D01*
X56308517Y-144234212D01*
X56375397Y-144377638D01*
X56381409Y-144386224D01*
X56500902Y-144556877D01*
X56655623Y-144711598D01*
X56834861Y-144837102D01*
X57033170Y-144929575D01*
X57244523Y-144986207D01*
X57427426Y-145002208D01*
X57462498Y-145005277D01*
X57462500Y-145005277D01*
X57462502Y-145005277D01*
X57490754Y-145002805D01*
X57680477Y-144986207D01*
X57891830Y-144929575D01*
X58090139Y-144837102D01*
X58269377Y-144711598D01*
X58424098Y-144556877D01*
X58549602Y-144377639D01*
X58600037Y-144269479D01*
X58624733Y-144234212D01*
X59064545Y-143794399D01*
X59077335Y-143875148D01*
X59134859Y-143988045D01*
X59224455Y-144077641D01*
X59337352Y-144135165D01*
X59418099Y-144147953D01*
X58772926Y-144793124D01*
X58835111Y-144836666D01*
X58835113Y-144836667D01*
X59033340Y-144929101D01*
X59033349Y-144929105D01*
X59244605Y-144985710D01*
X59244615Y-144985712D01*
X59462499Y-145004775D01*
X59462501Y-145004775D01*
X59680384Y-144985712D01*
X59680394Y-144985710D01*
X59891650Y-144929105D01*
X59891659Y-144929101D01*
X60089887Y-144836666D01*
X60152072Y-144793124D01*
X59506901Y-144147953D01*
X59587648Y-144135165D01*
X59700545Y-144077641D01*
X59790141Y-143988045D01*
X59847665Y-143875148D01*
X59860453Y-143794400D01*
X60300264Y-144234211D01*
X60324965Y-144269487D01*
X60375396Y-144377636D01*
X60375397Y-144377638D01*
X60375398Y-144377639D01*
X60500902Y-144556877D01*
X60655623Y-144711598D01*
X60834861Y-144837102D01*
X61033170Y-144929575D01*
X61244523Y-144986207D01*
X61427426Y-145002208D01*
X61462498Y-145005277D01*
X61462500Y-145005277D01*
X61462502Y-145005277D01*
X61490754Y-145002805D01*
X61680477Y-144986207D01*
X61891830Y-144929575D01*
X62090139Y-144837102D01*
X62109021Y-144823880D01*
X62181794Y-144772925D01*
X62248000Y-144750598D01*
X62252917Y-144750500D01*
X65249784Y-144750500D01*
X65338858Y-144752757D01*
X65338858Y-144752756D01*
X65338863Y-144752757D01*
X65399253Y-144741932D01*
X65403912Y-144741280D01*
X65446107Y-144736988D01*
X65464938Y-144735074D01*
X65497727Y-144724786D01*
X65505340Y-144722918D01*
X65539153Y-144716858D01*
X65596121Y-144694101D01*
X65600553Y-144692524D01*
X65659088Y-144674159D01*
X65689127Y-144657484D01*
X65696208Y-144654122D01*
X65728117Y-144641377D01*
X65779354Y-144607608D01*
X65783351Y-144605187D01*
X65837002Y-144575409D01*
X65863068Y-144553030D01*
X65869343Y-144548300D01*
X65898019Y-144529402D01*
X65941392Y-144486027D01*
X65944850Y-144482823D01*
X65948113Y-144480020D01*
X65991395Y-144442866D01*
X66012428Y-144415691D01*
X66017598Y-144409821D01*
X66798496Y-143628923D01*
X66859814Y-143595441D01*
X66929505Y-143600425D01*
X66985439Y-143642296D01*
X67009856Y-143707761D01*
X67009700Y-143727411D01*
X67007725Y-143749993D01*
X67007725Y-143750000D01*
X67026787Y-143967884D01*
X67026789Y-143967894D01*
X67083394Y-144179150D01*
X67083398Y-144179159D01*
X67175835Y-144377391D01*
X67219373Y-144439571D01*
X67219374Y-144439572D01*
X67864546Y-143794400D01*
X67877335Y-143875148D01*
X67934859Y-143988045D01*
X68024455Y-144077641D01*
X68137352Y-144135165D01*
X68218099Y-144147953D01*
X67572926Y-144793124D01*
X67635111Y-144836666D01*
X67635113Y-144836667D01*
X67833340Y-144929101D01*
X67833349Y-144929105D01*
X68044605Y-144985710D01*
X68044615Y-144985712D01*
X68262499Y-145004775D01*
X68262501Y-145004775D01*
X68480384Y-144985712D01*
X68480394Y-144985710D01*
X68691650Y-144929105D01*
X68691659Y-144929101D01*
X68889887Y-144836666D01*
X68952072Y-144793124D01*
X68306901Y-144147953D01*
X68387648Y-144135165D01*
X68500545Y-144077641D01*
X68590141Y-143988045D01*
X68647665Y-143875148D01*
X68660453Y-143794400D01*
X69100264Y-144234211D01*
X69124965Y-144269487D01*
X69175396Y-144377636D01*
X69175397Y-144377638D01*
X69175398Y-144377639D01*
X69300902Y-144556877D01*
X69455623Y-144711598D01*
X69634861Y-144837102D01*
X69833170Y-144929575D01*
X70044523Y-144986207D01*
X70227426Y-145002208D01*
X70262498Y-145005277D01*
X70262500Y-145005277D01*
X70262502Y-145005277D01*
X70290754Y-145002805D01*
X70480477Y-144986207D01*
X70691830Y-144929575D01*
X70890139Y-144837102D01*
X71069377Y-144711598D01*
X71224098Y-144556877D01*
X71349602Y-144377639D01*
X71442075Y-144179330D01*
X71498707Y-143967977D01*
X71517777Y-143750000D01*
X71517776Y-143749993D01*
X71508354Y-143642296D01*
X71498707Y-143532023D01*
X71442075Y-143320670D01*
X71349602Y-143122362D01*
X71349600Y-143122359D01*
X71349599Y-143122357D01*
X71224099Y-142943124D01*
X71210550Y-142929575D01*
X71069377Y-142788402D01*
X70890139Y-142662898D01*
X70890140Y-142662898D01*
X70890138Y-142662897D01*
X70771301Y-142607483D01*
X70691830Y-142570425D01*
X70691826Y-142570424D01*
X70691822Y-142570422D01*
X70480482Y-142513794D01*
X70480473Y-142513792D01*
X70470144Y-142512889D01*
X70405076Y-142487435D01*
X70364098Y-142430843D01*
X70360222Y-142361081D01*
X70368569Y-142336962D01*
X70442075Y-142179330D01*
X70498707Y-141967977D01*
X70517777Y-141750000D01*
X70498707Y-141532023D01*
X70442075Y-141320670D01*
X70349602Y-141122362D01*
X70349600Y-141122359D01*
X70349599Y-141122357D01*
X70224099Y-140943124D01*
X70152841Y-140871866D01*
X70069377Y-140788402D01*
X69916503Y-140681358D01*
X69890138Y-140662897D01*
X69790984Y-140616661D01*
X69691830Y-140570425D01*
X69691826Y-140570424D01*
X69691822Y-140570422D01*
X69480477Y-140513793D01*
X69262502Y-140494723D01*
X69262498Y-140494723D01*
X69145807Y-140504932D01*
X69044523Y-140513793D01*
X69044520Y-140513793D01*
X68833177Y-140570422D01*
X68833168Y-140570426D01*
X68634863Y-140662897D01*
X68634857Y-140662901D01*
X68569557Y-140708623D01*
X68503351Y-140730950D01*
X68435584Y-140713938D01*
X68399170Y-140681359D01*
X68370046Y-140642454D01*
X68346100Y-140624528D01*
X68312688Y-140599515D01*
X68270818Y-140543581D01*
X68263000Y-140500249D01*
X68263000Y-140375402D01*
X68282685Y-140308363D01*
X68299319Y-140287721D01*
X69728101Y-138858939D01*
X69789424Y-138825454D01*
X69815782Y-138822620D01*
X75638001Y-138822620D01*
X75705040Y-138842305D01*
X75750795Y-138895109D01*
X75762001Y-138946620D01*
X75762001Y-139619996D01*
X75768408Y-139679603D01*
X75818702Y-139814448D01*
X75818706Y-139814455D01*
X75904952Y-139929664D01*
X75904955Y-139929667D01*
X76020164Y-140015913D01*
X76020171Y-140015917D01*
X76155017Y-140066211D01*
X76155016Y-140066211D01*
X76161944Y-140066955D01*
X76214627Y-140072620D01*
X77310372Y-140072619D01*
X77369983Y-140066211D01*
X77504831Y-140015916D01*
X77620046Y-139929666D01*
X77663546Y-139871556D01*
X77719479Y-139829687D01*
X77789171Y-139824703D01*
X77850494Y-139858188D01*
X77862078Y-139871558D01*
X77905309Y-139929307D01*
X77905312Y-139929310D01*
X78020406Y-140015470D01*
X78020413Y-140015474D01*
X78155120Y-140065716D01*
X78155127Y-140065718D01*
X78214655Y-140072119D01*
X78214672Y-140072120D01*
X78512500Y-140072120D01*
X78512500Y-138072120D01*
X79012500Y-138072120D01*
X79012500Y-140072120D01*
X79310328Y-140072120D01*
X79310344Y-140072119D01*
X79369872Y-140065718D01*
X79369879Y-140065716D01*
X79504586Y-140015474D01*
X79504593Y-140015470D01*
X79619687Y-139929310D01*
X79619690Y-139929307D01*
X79705850Y-139814213D01*
X79705854Y-139814206D01*
X79756096Y-139679499D01*
X79756098Y-139679492D01*
X79762499Y-139619964D01*
X79762500Y-139619947D01*
X79762500Y-138072120D01*
X79012500Y-138072120D01*
X78512500Y-138072120D01*
X78512500Y-134572120D01*
X79012500Y-134572120D01*
X79012500Y-137572120D01*
X79762500Y-137572120D01*
X79762500Y-136024292D01*
X79762499Y-136024275D01*
X79756098Y-135964747D01*
X79756096Y-135964740D01*
X79705854Y-135830033D01*
X79705850Y-135830026D01*
X79619690Y-135714932D01*
X79503941Y-135628281D01*
X79462071Y-135572347D01*
X79457087Y-135502655D01*
X79490573Y-135441333D01*
X79513157Y-135423476D01*
X79568343Y-135389437D01*
X79692315Y-135265465D01*
X79784356Y-135116244D01*
X79784358Y-135116239D01*
X79839505Y-134949817D01*
X79839506Y-134949810D01*
X79849999Y-134847106D01*
X79850000Y-134847093D01*
X79850000Y-134572120D01*
X79012500Y-134572120D01*
X78512500Y-134572120D01*
X78512500Y-134072120D01*
X79012500Y-134072120D01*
X79849999Y-134072120D01*
X79849999Y-133797148D01*
X79849998Y-133797133D01*
X79839505Y-133694422D01*
X79784358Y-133528000D01*
X79784356Y-133527995D01*
X79714866Y-133415334D01*
X79696426Y-133347941D01*
X79717349Y-133281278D01*
X79725550Y-133271293D01*
X79725339Y-133271127D01*
X79729815Y-133265466D01*
X79820919Y-133117763D01*
X81008287Y-133117763D01*
X81037913Y-133387013D01*
X81037915Y-133387024D01*
X81090227Y-133587120D01*
X81106428Y-133649088D01*
X81212370Y-133898390D01*
X81339231Y-134106259D01*
X81353479Y-134129605D01*
X81353486Y-134129615D01*
X81526753Y-134337819D01*
X81526759Y-134337824D01*
X81728498Y-134518582D01*
X81954410Y-134668044D01*
X82199676Y-134783020D01*
X82199683Y-134783022D01*
X82199685Y-134783023D01*
X82459057Y-134861057D01*
X82459064Y-134861058D01*
X82459069Y-134861060D01*
X82727061Y-134900500D01*
X82727066Y-134900500D01*
X82930136Y-134900500D01*
X82981633Y-134896730D01*
X83132656Y-134885677D01*
X83305659Y-134847139D01*
X83397046Y-134826782D01*
X83397048Y-134826781D01*
X83397053Y-134826780D01*
X83650058Y-134730014D01*
X83886277Y-134597441D01*
X84100677Y-134431888D01*
X84288686Y-134236881D01*
X84446299Y-134016579D01*
X84541583Y-133831250D01*
X84570149Y-133775690D01*
X84570151Y-133775684D01*
X84570156Y-133775675D01*
X84657618Y-133519305D01*
X84706819Y-133252933D01*
X84716712Y-132982235D01*
X84687086Y-132712982D01*
X84618572Y-132450912D01*
X84512630Y-132201610D01*
X84371518Y-131970390D01*
X84282247Y-131863119D01*
X84198246Y-131762180D01*
X84198240Y-131762175D01*
X83996502Y-131581418D01*
X83770592Y-131431957D01*
X83738782Y-131417045D01*
X83525324Y-131316980D01*
X83525319Y-131316978D01*
X83525314Y-131316976D01*
X83265942Y-131238942D01*
X83265928Y-131238939D01*
X83150291Y-131221921D01*
X82997939Y-131199500D01*
X82794869Y-131199500D01*
X82794864Y-131199500D01*
X82592344Y-131214323D01*
X82592331Y-131214325D01*
X82327953Y-131273217D01*
X82327946Y-131273220D01*
X82074939Y-131369987D01*
X81838726Y-131502557D01*
X81624322Y-131668112D01*
X81436322Y-131863109D01*
X81436316Y-131863116D01*
X81278702Y-132083419D01*
X81278699Y-132083424D01*
X81154850Y-132324309D01*
X81154843Y-132324327D01*
X81067384Y-132580685D01*
X81067381Y-132580699D01*
X81018181Y-132847068D01*
X81018180Y-132847075D01*
X81008287Y-133117763D01*
X79820919Y-133117763D01*
X79821856Y-133116244D01*
X79821858Y-133116239D01*
X79877005Y-132949817D01*
X79877006Y-132949810D01*
X79887499Y-132847106D01*
X79887500Y-132847093D01*
X79887500Y-132572120D01*
X79050000Y-132572120D01*
X79050000Y-133498258D01*
X79030315Y-133565297D01*
X79013681Y-133585939D01*
X79012500Y-133587120D01*
X79012500Y-134072120D01*
X78512500Y-134072120D01*
X78512500Y-133145982D01*
X78532185Y-133078943D01*
X78548819Y-133058301D01*
X78550000Y-133057120D01*
X78550000Y-132196120D01*
X78569685Y-132129081D01*
X78622489Y-132083326D01*
X78674000Y-132072120D01*
X79887499Y-132072120D01*
X79887499Y-131797148D01*
X79887498Y-131797133D01*
X79877005Y-131694422D01*
X79821858Y-131528000D01*
X79821856Y-131527995D01*
X79729815Y-131378774D01*
X79605844Y-131254803D01*
X79600177Y-131250322D01*
X79601925Y-131248110D01*
X79563841Y-131205749D01*
X79552635Y-131136784D01*
X79580493Y-131072708D01*
X79638571Y-131033865D01*
X79641038Y-131033120D01*
X79672898Y-131023864D01*
X79814365Y-130940201D01*
X79930581Y-130823985D01*
X80014244Y-130682518D01*
X80060098Y-130524689D01*
X80063000Y-130487814D01*
X80063000Y-130056426D01*
X80060098Y-130019551D01*
X80014244Y-129861722D01*
X79930581Y-129720255D01*
X79930579Y-129720253D01*
X79930576Y-129720249D01*
X79814370Y-129604043D01*
X79814362Y-129604037D01*
X79672896Y-129520375D01*
X79672893Y-129520374D01*
X79515073Y-129474522D01*
X79515067Y-129474521D01*
X79478196Y-129471620D01*
X79478194Y-129471620D01*
X78321806Y-129471620D01*
X78321804Y-129471620D01*
X78284932Y-129474521D01*
X78284926Y-129474522D01*
X78127106Y-129520374D01*
X78127103Y-129520375D01*
X77985637Y-129604037D01*
X77979469Y-129608822D01*
X77978164Y-129607139D01*
X77926454Y-129635366D01*
X77856763Y-129630371D01*
X77809058Y-129598367D01*
X77784796Y-129572120D01*
X77519315Y-129572120D01*
X77456194Y-129554852D01*
X77397896Y-129520375D01*
X77397893Y-129520374D01*
X77240073Y-129474522D01*
X77240067Y-129474521D01*
X77203196Y-129471620D01*
X77203194Y-129471620D01*
X76499000Y-129471620D01*
X76431961Y-129451935D01*
X76386206Y-129399131D01*
X76375000Y-129347620D01*
X76375000Y-129296620D01*
X76394685Y-129229581D01*
X76447489Y-129183826D01*
X76499000Y-129172620D01*
X77203196Y-129172620D01*
X77221631Y-129171169D01*
X77240069Y-129169718D01*
X77240071Y-129169717D01*
X77240073Y-129169717D01*
X77286656Y-129156183D01*
X77397898Y-129123864D01*
X77456194Y-129089388D01*
X77519315Y-129072120D01*
X77784794Y-129072120D01*
X77809057Y-129045872D01*
X77869018Y-129010005D01*
X77938852Y-129012249D01*
X77978512Y-129036650D01*
X77979469Y-129035418D01*
X77985632Y-129040198D01*
X77985635Y-129040201D01*
X78127102Y-129123864D01*
X78163219Y-129134357D01*
X78284926Y-129169717D01*
X78284929Y-129169717D01*
X78284931Y-129169718D01*
X78297222Y-129170685D01*
X78321804Y-129172620D01*
X78321806Y-129172620D01*
X79478196Y-129172620D01*
X79496631Y-129171169D01*
X79515069Y-129169718D01*
X79515071Y-129169717D01*
X79515073Y-129169717D01*
X79561656Y-129156183D01*
X79672898Y-129123864D01*
X79814365Y-129040201D01*
X79930581Y-128923985D01*
X80014244Y-128782518D01*
X80060098Y-128624689D01*
X80063000Y-128587814D01*
X80063000Y-128156426D01*
X80060098Y-128119551D01*
X80058414Y-128113756D01*
X80023875Y-127994872D01*
X80014244Y-127961722D01*
X79930581Y-127820255D01*
X79930578Y-127820252D01*
X79930576Y-127820249D01*
X79814370Y-127704043D01*
X79814362Y-127704037D01*
X79736181Y-127657801D01*
X79672898Y-127620376D01*
X79672897Y-127620375D01*
X79672896Y-127620375D01*
X79667214Y-127618724D01*
X79608330Y-127581114D01*
X79579127Y-127517640D01*
X79588877Y-127448454D01*
X79634483Y-127395522D01*
X79636636Y-127394161D01*
X79643656Y-127389832D01*
X79767712Y-127265776D01*
X79859814Y-127116454D01*
X79914999Y-126949917D01*
X79925500Y-126847129D01*
X79925499Y-125797112D01*
X79914999Y-125694323D01*
X79859814Y-125527786D01*
X79773109Y-125387214D01*
X79754670Y-125319824D01*
X79773109Y-125257025D01*
X79859814Y-125116454D01*
X79887595Y-125032615D01*
X79927368Y-124975171D01*
X79991884Y-124948348D01*
X80005301Y-124947620D01*
X80825501Y-124947620D01*
X80892540Y-124967305D01*
X80938295Y-125020109D01*
X80949501Y-125071620D01*
X80949501Y-125150018D01*
X80960000Y-125252796D01*
X80960001Y-125252799D01*
X80982972Y-125322120D01*
X81015186Y-125419334D01*
X81107288Y-125568656D01*
X81231344Y-125692712D01*
X81380666Y-125784814D01*
X81547203Y-125839999D01*
X81649991Y-125850500D01*
X82650008Y-125850499D01*
X82650016Y-125850498D01*
X82650019Y-125850498D01*
X82706302Y-125844748D01*
X82752797Y-125839999D01*
X82919334Y-125784814D01*
X83068656Y-125692712D01*
X83068664Y-125692703D01*
X83073085Y-125689209D01*
X83137879Y-125663066D01*
X83206522Y-125676103D01*
X83226915Y-125689209D01*
X83231339Y-125692707D01*
X83231344Y-125692712D01*
X83380666Y-125784814D01*
X83547203Y-125839999D01*
X83649991Y-125850500D01*
X84650008Y-125850499D01*
X84650016Y-125850498D01*
X84650019Y-125850498D01*
X84706302Y-125844748D01*
X84752797Y-125839999D01*
X84919334Y-125784814D01*
X85068656Y-125692712D01*
X85192712Y-125568656D01*
X85284814Y-125419334D01*
X85339999Y-125252797D01*
X85350500Y-125150009D01*
X85350499Y-124450095D01*
X85370183Y-124383057D01*
X85386813Y-124362420D01*
X85843922Y-123905311D01*
X85849999Y-123899983D01*
X85878282Y-123878282D01*
X85878285Y-123878277D01*
X85884033Y-123872532D01*
X85885315Y-123873814D01*
X85933532Y-123838594D01*
X86003277Y-123834427D01*
X86064203Y-123868629D01*
G37*
%TD.AperFunction*%
%TA.AperFunction,Conductor*%
G36*
X64330203Y-126679517D02*
G01*
X64336681Y-126685549D01*
X64336770Y-126685638D01*
X64348551Y-126699270D01*
X64362888Y-126718528D01*
X64402909Y-126752111D01*
X64406897Y-126755766D01*
X64412716Y-126761585D01*
X64412720Y-126761588D01*
X64412723Y-126761591D01*
X64438459Y-126781940D01*
X64497286Y-126831302D01*
X64497287Y-126831302D01*
X64497289Y-126831304D01*
X64503318Y-126835270D01*
X64503285Y-126835319D01*
X64509647Y-126839372D01*
X64509679Y-126839321D01*
X64515819Y-126843108D01*
X64515823Y-126843111D01*
X64524440Y-126847129D01*
X64585441Y-126875575D01*
X64654065Y-126910039D01*
X64654067Y-126910040D01*
X64654069Y-126910040D01*
X64660857Y-126912511D01*
X64660836Y-126912567D01*
X64667957Y-126915043D01*
X64667976Y-126914986D01*
X64674822Y-126917254D01*
X64674827Y-126917257D01*
X64674832Y-126917258D01*
X64674835Y-126917259D01*
X64750065Y-126932792D01*
X64824779Y-126950500D01*
X64824782Y-126950500D01*
X64824786Y-126950501D01*
X64831953Y-126951339D01*
X64831946Y-126951398D01*
X64839444Y-126952164D01*
X64839450Y-126952105D01*
X64846639Y-126952734D01*
X64846643Y-126952733D01*
X64846644Y-126952734D01*
X64923417Y-126950500D01*
X65733033Y-126950500D01*
X65800072Y-126970185D01*
X65845827Y-127022989D01*
X65855771Y-127092147D01*
X65831409Y-127149986D01*
X65775464Y-127222894D01*
X65775461Y-127222899D01*
X65714957Y-127368970D01*
X65714955Y-127368975D01*
X65694318Y-127525734D01*
X65694318Y-127525735D01*
X65698969Y-127561062D01*
X65699500Y-127569164D01*
X65699500Y-129306571D01*
X65698969Y-129314669D01*
X65694318Y-129350000D01*
X65710394Y-129472111D01*
X65710711Y-129474522D01*
X65714956Y-129506760D01*
X65714956Y-129506762D01*
X65771839Y-129644091D01*
X65775464Y-129652841D01*
X65871718Y-129778282D01*
X65899995Y-129799980D01*
X65906085Y-129805320D01*
X66120311Y-130019546D01*
X66256079Y-130155314D01*
X66289564Y-130216637D01*
X66284580Y-130286329D01*
X66247891Y-130335343D01*
X66248728Y-130336180D01*
X66242910Y-130341998D01*
X66242718Y-130342255D01*
X66242461Y-130342447D01*
X66242451Y-130342457D01*
X66156206Y-130457664D01*
X66156202Y-130457671D01*
X66105908Y-130592517D01*
X66103750Y-130612594D01*
X66099501Y-130652123D01*
X66099500Y-130652135D01*
X66099500Y-132247870D01*
X66099501Y-132247876D01*
X66105908Y-132307483D01*
X66156202Y-132442328D01*
X66156206Y-132442335D01*
X66213411Y-132518750D01*
X66242454Y-132557546D01*
X66297480Y-132598738D01*
X66339350Y-132654671D01*
X66344334Y-132724363D01*
X66328707Y-132763100D01*
X66240645Y-132905871D01*
X66240641Y-132905880D01*
X66185494Y-133072302D01*
X66185493Y-133072309D01*
X66175000Y-133175013D01*
X66175000Y-133450000D01*
X67388500Y-133450000D01*
X67455539Y-133469685D01*
X67501294Y-133522489D01*
X67512500Y-133574000D01*
X67512500Y-134924999D01*
X67649972Y-134924999D01*
X67649986Y-134924998D01*
X67752697Y-134914505D01*
X67919119Y-134859358D01*
X67919124Y-134859356D01*
X68068345Y-134767315D01*
X68125319Y-134710342D01*
X68186642Y-134676857D01*
X68256334Y-134681841D01*
X68312267Y-134723713D01*
X68336684Y-134789177D01*
X68337000Y-134798023D01*
X68337000Y-137368837D01*
X68317315Y-137435876D01*
X68300681Y-137456518D01*
X66564032Y-139193166D01*
X66499446Y-139254562D01*
X66464399Y-139304914D01*
X66461562Y-139308676D01*
X66422802Y-139356212D01*
X66422799Y-139356217D01*
X66406892Y-139386667D01*
X66402824Y-139393381D01*
X66383202Y-139421574D01*
X66359009Y-139477950D01*
X66356988Y-139482204D01*
X66328591Y-139536571D01*
X66328590Y-139536572D01*
X66319140Y-139569595D01*
X66316507Y-139576991D01*
X66302959Y-139608563D01*
X66290613Y-139668639D01*
X66289490Y-139673215D01*
X66272613Y-139732197D01*
X66272613Y-139732199D01*
X66270003Y-139766461D01*
X66268914Y-139774228D01*
X66263480Y-139800672D01*
X66262000Y-139807878D01*
X66262000Y-139869217D01*
X66261821Y-139873926D01*
X66257162Y-139935094D01*
X66259207Y-139951147D01*
X66261503Y-139969180D01*
X66262000Y-139977008D01*
X66262000Y-140500249D01*
X66242315Y-140567288D01*
X66212312Y-140599515D01*
X66154957Y-140642451D01*
X66154951Y-140642457D01*
X66068706Y-140757664D01*
X66068702Y-140757671D01*
X66018408Y-140892517D01*
X66012001Y-140952116D01*
X66012000Y-140952135D01*
X66012000Y-141534216D01*
X65992315Y-141601255D01*
X65975681Y-141621897D01*
X64884399Y-142713181D01*
X64823076Y-142746666D01*
X64796718Y-142749500D01*
X62252917Y-142749500D01*
X62185878Y-142729815D01*
X62181794Y-142727075D01*
X62090143Y-142662900D01*
X62090139Y-142662898D01*
X62090137Y-142662897D01*
X61891830Y-142570425D01*
X61891826Y-142570424D01*
X61891822Y-142570422D01*
X61680482Y-142513794D01*
X61680473Y-142513792D01*
X61670144Y-142512889D01*
X61605076Y-142487435D01*
X61564098Y-142430843D01*
X61560222Y-142361081D01*
X61568569Y-142336962D01*
X61642075Y-142179330D01*
X61698707Y-141967977D01*
X61717777Y-141750000D01*
X61698707Y-141532023D01*
X61642075Y-141320670D01*
X61549602Y-141122362D01*
X61549600Y-141122359D01*
X61549599Y-141122357D01*
X61424099Y-140943124D01*
X61352841Y-140871866D01*
X61269377Y-140788402D01*
X61116503Y-140681358D01*
X61090138Y-140662897D01*
X60990984Y-140616661D01*
X60891830Y-140570425D01*
X60891826Y-140570424D01*
X60891822Y-140570422D01*
X60680477Y-140513793D01*
X60462502Y-140494723D01*
X60462498Y-140494723D01*
X60345807Y-140504932D01*
X60244523Y-140513793D01*
X60244520Y-140513793D01*
X60033177Y-140570422D01*
X60033168Y-140570426D01*
X59834861Y-140662898D01*
X59834857Y-140662900D01*
X59655621Y-140788402D01*
X59572158Y-140871866D01*
X59510835Y-140905351D01*
X59441143Y-140900367D01*
X59385210Y-140858495D01*
X59376062Y-140844369D01*
X59369990Y-140833431D01*
X59366617Y-140826329D01*
X59353878Y-140794435D01*
X59353875Y-140794430D01*
X59320121Y-140743214D01*
X59317680Y-140739184D01*
X59303667Y-140713938D01*
X59287909Y-140685548D01*
X59287907Y-140685545D01*
X59265533Y-140659484D01*
X59260802Y-140653209D01*
X59253716Y-140642457D01*
X59241902Y-140624531D01*
X59198512Y-140581141D01*
X59195322Y-140577698D01*
X59155367Y-140531156D01*
X59155363Y-140531152D01*
X59128198Y-140510124D01*
X59122303Y-140504932D01*
X57424319Y-138806948D01*
X57390834Y-138745625D01*
X57388000Y-138719267D01*
X57388000Y-137817763D01*
X61808287Y-137817763D01*
X61837913Y-138087013D01*
X61837915Y-138087024D01*
X61906426Y-138349082D01*
X61906428Y-138349088D01*
X62012370Y-138598390D01*
X62102227Y-138745625D01*
X62153479Y-138829605D01*
X62153486Y-138829615D01*
X62326753Y-139037819D01*
X62326759Y-139037824D01*
X62528498Y-139218582D01*
X62754410Y-139368044D01*
X62999676Y-139483020D01*
X62999683Y-139483022D01*
X62999685Y-139483023D01*
X63259057Y-139561057D01*
X63259064Y-139561058D01*
X63259069Y-139561060D01*
X63527061Y-139600500D01*
X63527066Y-139600500D01*
X63730136Y-139600500D01*
X63781633Y-139596730D01*
X63932656Y-139585677D01*
X64045258Y-139560593D01*
X64197046Y-139526782D01*
X64197048Y-139526781D01*
X64197053Y-139526780D01*
X64450058Y-139430014D01*
X64686277Y-139297441D01*
X64900677Y-139131888D01*
X65088686Y-138936881D01*
X65246299Y-138716579D01*
X65320287Y-138572669D01*
X65370149Y-138475690D01*
X65370151Y-138475684D01*
X65370156Y-138475675D01*
X65457618Y-138219305D01*
X65506819Y-137952933D01*
X65516712Y-137682235D01*
X65487086Y-137412982D01*
X65418572Y-137150912D01*
X65312630Y-136901610D01*
X65171518Y-136670390D01*
X65082247Y-136563119D01*
X64998246Y-136462180D01*
X64998240Y-136462175D01*
X64796502Y-136281418D01*
X64570592Y-136131957D01*
X64570590Y-136131956D01*
X64325324Y-136016980D01*
X64325319Y-136016978D01*
X64325314Y-136016976D01*
X64065942Y-135938942D01*
X64065928Y-135938939D01*
X63950291Y-135921921D01*
X63797939Y-135899500D01*
X63594869Y-135899500D01*
X63594864Y-135899500D01*
X63392344Y-135914323D01*
X63392331Y-135914325D01*
X63127953Y-135973217D01*
X63127946Y-135973220D01*
X62874939Y-136069987D01*
X62638726Y-136202557D01*
X62424322Y-136368112D01*
X62236322Y-136563109D01*
X62236316Y-136563116D01*
X62078702Y-136783419D01*
X62078699Y-136783424D01*
X61954850Y-137024309D01*
X61954843Y-137024327D01*
X61867384Y-137280685D01*
X61867381Y-137280699D01*
X61818181Y-137547068D01*
X61818180Y-137547075D01*
X61808287Y-137817763D01*
X57388000Y-137817763D01*
X57388000Y-134710523D01*
X57407685Y-134643484D01*
X57460489Y-134597729D01*
X57529647Y-134587785D01*
X57593203Y-134616810D01*
X57599681Y-134622842D01*
X57656654Y-134679815D01*
X57805875Y-134771856D01*
X57805880Y-134771858D01*
X57972302Y-134827005D01*
X57972309Y-134827006D01*
X58075019Y-134837499D01*
X58212499Y-134837499D01*
X58712500Y-134837499D01*
X58849972Y-134837499D01*
X58849986Y-134837498D01*
X58952697Y-134827005D01*
X59119119Y-134771858D01*
X59119124Y-134771856D01*
X59268345Y-134679815D01*
X59381069Y-134567092D01*
X59442392Y-134533607D01*
X59512084Y-134538591D01*
X59556431Y-134567092D01*
X59637904Y-134648565D01*
X59787125Y-134740606D01*
X59787130Y-134740608D01*
X59953552Y-134795755D01*
X59953559Y-134795756D01*
X60056269Y-134806249D01*
X60193749Y-134806249D01*
X60193750Y-134806248D01*
X60193750Y-133831250D01*
X59585786Y-133831250D01*
X59533746Y-133859666D01*
X59507388Y-133862500D01*
X58712500Y-133862500D01*
X58712500Y-134837499D01*
X58212499Y-134837499D01*
X58212500Y-134837498D01*
X58212500Y-133486500D01*
X58232185Y-133419461D01*
X58284989Y-133373706D01*
X58336500Y-133362500D01*
X59320464Y-133362500D01*
X59372504Y-133334084D01*
X59398862Y-133331250D01*
X60569750Y-133331250D01*
X60636789Y-133350935D01*
X60682544Y-133403739D01*
X60693750Y-133455250D01*
X60693750Y-134806249D01*
X60831222Y-134806249D01*
X60831236Y-134806248D01*
X60933947Y-134795755D01*
X61100369Y-134740608D01*
X61100374Y-134740606D01*
X61249595Y-134648565D01*
X61373568Y-134524592D01*
X61375415Y-134521598D01*
X61377219Y-134519974D01*
X61378048Y-134518927D01*
X61378226Y-134519068D01*
X61427360Y-134474871D01*
X61496323Y-134463646D01*
X61560406Y-134491486D01*
X61586493Y-134521591D01*
X61588538Y-134524906D01*
X61712594Y-134648962D01*
X61861916Y-134741064D01*
X62028453Y-134796249D01*
X62131241Y-134806750D01*
X62906258Y-134806749D01*
X62906266Y-134806748D01*
X62906269Y-134806748D01*
X62962552Y-134800998D01*
X63009047Y-134796249D01*
X63175584Y-134741064D01*
X63324906Y-134648962D01*
X63448962Y-134524906D01*
X63541064Y-134375584D01*
X63596249Y-134209047D01*
X63606750Y-134106259D01*
X63606750Y-133950000D01*
X66175001Y-133950000D01*
X66175001Y-134224986D01*
X66185494Y-134327697D01*
X66240641Y-134494119D01*
X66240643Y-134494124D01*
X66332684Y-134643345D01*
X66456654Y-134767315D01*
X66605875Y-134859356D01*
X66605880Y-134859358D01*
X66772302Y-134914505D01*
X66772309Y-134914506D01*
X66875019Y-134924999D01*
X67012499Y-134924999D01*
X67012500Y-134924998D01*
X67012500Y-133950000D01*
X66175001Y-133950000D01*
X63606750Y-133950000D01*
X63606749Y-133056242D01*
X63596249Y-132953453D01*
X63541064Y-132786916D01*
X63448962Y-132637594D01*
X63415763Y-132604395D01*
X63382278Y-132543072D01*
X63387262Y-132473380D01*
X63397906Y-132451617D01*
X63398960Y-132449907D01*
X63398962Y-132449906D01*
X63491064Y-132300584D01*
X63546249Y-132134047D01*
X63556750Y-132031259D01*
X63556749Y-131031242D01*
X63555995Y-131023865D01*
X63546249Y-130928453D01*
X63546248Y-130928450D01*
X63511633Y-130823990D01*
X63491064Y-130761916D01*
X63398962Y-130612594D01*
X63398959Y-130612591D01*
X63394484Y-130606931D01*
X63397070Y-130604886D01*
X63370581Y-130556375D01*
X63375565Y-130486683D01*
X63389232Y-130462427D01*
X63388525Y-130461991D01*
X63484356Y-130306624D01*
X63484358Y-130306619D01*
X63539505Y-130140197D01*
X63539506Y-130140190D01*
X63549999Y-130037486D01*
X63550000Y-130037473D01*
X63550000Y-129787500D01*
X62324000Y-129787500D01*
X62256961Y-129767815D01*
X62211206Y-129715011D01*
X62200000Y-129663500D01*
X62200000Y-129411500D01*
X62219685Y-129344461D01*
X62272489Y-129298706D01*
X62324000Y-129287500D01*
X63549999Y-129287500D01*
X63549999Y-129037528D01*
X63549998Y-129037513D01*
X63539505Y-128934802D01*
X63484358Y-128768380D01*
X63484356Y-128768375D01*
X63392315Y-128619154D01*
X63305511Y-128532350D01*
X63272026Y-128471027D01*
X63275000Y-128429441D01*
X63275000Y-128135568D01*
X63282817Y-128092237D01*
X63319091Y-127994983D01*
X63325500Y-127935373D01*
X63325499Y-127312500D01*
X63625000Y-127312500D01*
X63625000Y-128387500D01*
X63672828Y-128387500D01*
X63672844Y-128387499D01*
X63732372Y-128381098D01*
X63732379Y-128381096D01*
X63867086Y-128330854D01*
X63867093Y-128330850D01*
X63982187Y-128244690D01*
X63982190Y-128244687D01*
X64068350Y-128129593D01*
X64068354Y-128129586D01*
X64118596Y-127994879D01*
X64118598Y-127994872D01*
X64124999Y-127935344D01*
X64125000Y-127935327D01*
X64125000Y-127312500D01*
X63625000Y-127312500D01*
X63325499Y-127312500D01*
X63325499Y-127086498D01*
X63345183Y-127019461D01*
X63397987Y-126973706D01*
X63449499Y-126962500D01*
X64125000Y-126962500D01*
X64125000Y-126773230D01*
X64144685Y-126706191D01*
X64197489Y-126660436D01*
X64266647Y-126650492D01*
X64330203Y-126679517D01*
G37*
%TD.AperFunction*%
%TA.AperFunction,Conductor*%
G36*
X67347183Y-91469685D02*
G01*
X67392938Y-91522489D01*
X67402882Y-91591647D01*
X67379410Y-91648311D01*
X67376997Y-91651535D01*
X67346204Y-91692668D01*
X67346202Y-91692671D01*
X67295908Y-91827517D01*
X67289591Y-91886276D01*
X67289501Y-91887123D01*
X67289500Y-91887135D01*
X67289500Y-95982870D01*
X67289501Y-95982876D01*
X67295908Y-96042483D01*
X67346202Y-96177328D01*
X67346206Y-96177335D01*
X67432452Y-96292544D01*
X67432455Y-96292547D01*
X67547664Y-96378793D01*
X67547671Y-96378797D01*
X67682517Y-96429091D01*
X67682516Y-96429091D01*
X67689444Y-96429835D01*
X67742127Y-96435500D01*
X68667373Y-96435499D01*
X68734412Y-96455183D01*
X68780167Y-96507987D01*
X68790111Y-96577146D01*
X68761086Y-96640702D01*
X68755054Y-96647180D01*
X66791208Y-98611025D01*
X66778951Y-98620846D01*
X66779134Y-98621067D01*
X66773123Y-98626039D01*
X66725772Y-98676462D01*
X66704889Y-98697345D01*
X66704877Y-98697358D01*
X66700621Y-98702843D01*
X66696837Y-98707273D01*
X66664937Y-98741244D01*
X66664936Y-98741246D01*
X66655284Y-98758802D01*
X66644610Y-98775052D01*
X66632329Y-98790887D01*
X66632324Y-98790894D01*
X66613815Y-98833664D01*
X66611245Y-98838910D01*
X66588803Y-98879732D01*
X66583822Y-98899133D01*
X66577521Y-98917536D01*
X66569562Y-98935928D01*
X66569561Y-98935931D01*
X66562271Y-98981953D01*
X66561087Y-98987672D01*
X66549501Y-99032798D01*
X66549500Y-99032808D01*
X66549500Y-99052842D01*
X66547973Y-99072241D01*
X66544840Y-99092020D01*
X66544840Y-99092021D01*
X66549225Y-99138409D01*
X66549500Y-99144247D01*
X66549500Y-104300500D01*
X66529815Y-104367539D01*
X66477011Y-104413294D01*
X66425500Y-104424500D01*
X65650097Y-104424500D01*
X65583058Y-104404815D01*
X65562416Y-104388181D01*
X64574319Y-103400084D01*
X64540834Y-103338761D01*
X64538000Y-103312403D01*
X64538000Y-102613767D01*
X64557685Y-102546728D01*
X64596901Y-102508230D01*
X64743656Y-102417712D01*
X64867712Y-102293656D01*
X64959814Y-102144334D01*
X65014999Y-101977797D01*
X65025500Y-101875009D01*
X65025499Y-100824992D01*
X65014999Y-100722203D01*
X64959814Y-100555666D01*
X64867712Y-100406344D01*
X64845857Y-100384489D01*
X64812372Y-100323166D01*
X64817356Y-100253474D01*
X64827996Y-100231716D01*
X64897314Y-100119334D01*
X64952499Y-99952797D01*
X64963000Y-99850009D01*
X64962999Y-98849992D01*
X64961604Y-98836340D01*
X64952499Y-98747203D01*
X64952498Y-98747200D01*
X64938562Y-98705145D01*
X64897314Y-98580666D01*
X64805212Y-98431344D01*
X64805206Y-98431338D01*
X64804008Y-98429822D01*
X64803507Y-98428580D01*
X64801420Y-98425197D01*
X64801997Y-98424840D01*
X64777863Y-98365028D01*
X64790899Y-98296385D01*
X64795731Y-98287808D01*
X64884353Y-98144130D01*
X64884358Y-98144119D01*
X64939505Y-97977697D01*
X64939506Y-97977690D01*
X64949999Y-97874986D01*
X64950000Y-97874973D01*
X64950000Y-97600000D01*
X63736500Y-97600000D01*
X63669461Y-97580315D01*
X63623706Y-97527511D01*
X63612500Y-97476000D01*
X63612500Y-97224000D01*
X63632185Y-97156961D01*
X63684989Y-97111206D01*
X63736500Y-97100000D01*
X64949999Y-97100000D01*
X64949999Y-96825028D01*
X64949998Y-96825013D01*
X64939505Y-96722302D01*
X64884358Y-96555880D01*
X64884356Y-96555875D01*
X64792315Y-96406654D01*
X64668345Y-96282684D01*
X64519124Y-96190643D01*
X64519119Y-96190641D01*
X64352697Y-96135494D01*
X64352690Y-96135493D01*
X64249986Y-96125000D01*
X64007002Y-96125000D01*
X63939963Y-96105315D01*
X63894208Y-96052511D01*
X63883713Y-95987744D01*
X63883738Y-95987518D01*
X63888000Y-95947873D01*
X63888000Y-95574000D01*
X63907685Y-95506961D01*
X63960489Y-95461206D01*
X64012000Y-95450000D01*
X64112500Y-95450000D01*
X64112500Y-94100000D01*
X64612500Y-94100000D01*
X64612500Y-95450000D01*
X64935328Y-95450000D01*
X64935344Y-95449999D01*
X64994872Y-95443598D01*
X64994879Y-95443596D01*
X65129586Y-95393354D01*
X65129593Y-95393350D01*
X65244687Y-95307190D01*
X65244690Y-95307187D01*
X65330850Y-95192093D01*
X65330854Y-95192086D01*
X65381096Y-95057379D01*
X65381098Y-95057372D01*
X65387499Y-94997844D01*
X65387500Y-94997827D01*
X65387500Y-94100000D01*
X64612500Y-94100000D01*
X64112500Y-94100000D01*
X63337500Y-94100000D01*
X63337500Y-94225500D01*
X63317815Y-94292539D01*
X63265011Y-94338294D01*
X63213500Y-94349500D01*
X62561500Y-94349500D01*
X62494461Y-94329815D01*
X62448706Y-94277011D01*
X62437500Y-94225500D01*
X62437500Y-94100000D01*
X61662500Y-94100000D01*
X61662500Y-95450000D01*
X61763001Y-95450000D01*
X61830040Y-95469685D01*
X61875795Y-95522489D01*
X61887001Y-95574000D01*
X61887001Y-95947878D01*
X61891233Y-95987248D01*
X61878825Y-96056007D01*
X61831214Y-96107143D01*
X61767943Y-96124500D01*
X61399998Y-96124500D01*
X61399980Y-96124501D01*
X61297203Y-96135000D01*
X61297200Y-96135001D01*
X61130668Y-96190185D01*
X61130663Y-96190187D01*
X60981342Y-96282289D01*
X60857289Y-96406342D01*
X60765187Y-96555663D01*
X60765185Y-96555668D01*
X60756122Y-96583020D01*
X60710001Y-96722203D01*
X60710001Y-96722204D01*
X60710000Y-96722204D01*
X60699500Y-96824983D01*
X60699500Y-97875001D01*
X60699501Y-97875019D01*
X60710000Y-97977796D01*
X60710001Y-97977799D01*
X60756381Y-98117763D01*
X60765186Y-98144334D01*
X60832164Y-98252924D01*
X60857289Y-98293657D01*
X60879142Y-98315510D01*
X60912627Y-98376833D01*
X60907643Y-98446525D01*
X60897000Y-98468287D01*
X60827690Y-98580659D01*
X60827685Y-98580668D01*
X60805015Y-98649082D01*
X60772501Y-98747203D01*
X60772501Y-98747204D01*
X60772500Y-98747204D01*
X60762000Y-98849983D01*
X60762000Y-99850001D01*
X60762001Y-99850019D01*
X60772500Y-99952796D01*
X60772501Y-99952799D01*
X60827685Y-100119331D01*
X60827686Y-100119334D01*
X60919788Y-100268656D01*
X60919791Y-100268659D01*
X60920993Y-100270179D01*
X60921494Y-100271421D01*
X60923580Y-100274803D01*
X60923002Y-100275159D01*
X60947136Y-100334973D01*
X60934099Y-100403616D01*
X60929269Y-100412191D01*
X60840643Y-100555875D01*
X60840641Y-100555880D01*
X60785494Y-100722302D01*
X60785493Y-100722309D01*
X60775000Y-100825013D01*
X60775000Y-101100000D01*
X61988500Y-101100000D01*
X62055539Y-101119685D01*
X62101294Y-101172489D01*
X62112500Y-101224000D01*
X62112500Y-101476000D01*
X62092815Y-101543039D01*
X62040011Y-101588794D01*
X61988500Y-101600000D01*
X60775001Y-101600000D01*
X60775001Y-101874986D01*
X60785494Y-101977697D01*
X60840853Y-102144758D01*
X60843255Y-102214586D01*
X60807523Y-102274628D01*
X60766480Y-102299944D01*
X60682671Y-102331202D01*
X60682664Y-102331206D01*
X60567455Y-102417452D01*
X60567452Y-102417455D01*
X60481206Y-102532664D01*
X60481202Y-102532671D01*
X60430908Y-102667517D01*
X60426099Y-102712252D01*
X60424501Y-102727123D01*
X60424500Y-102727135D01*
X60424500Y-103872870D01*
X60424501Y-103872876D01*
X60430908Y-103932483D01*
X60481202Y-104067328D01*
X60481203Y-104067329D01*
X60481204Y-104067331D01*
X60567454Y-104182546D01*
X60574808Y-104188051D01*
X60616681Y-104243983D01*
X60624500Y-104287320D01*
X60624500Y-106462679D01*
X60604815Y-106529718D01*
X60574813Y-106561944D01*
X60567459Y-106567449D01*
X60567451Y-106567457D01*
X60481206Y-106682664D01*
X60481202Y-106682671D01*
X60430908Y-106817517D01*
X60426218Y-106861144D01*
X60424501Y-106877123D01*
X60424500Y-106877135D01*
X60424500Y-108022870D01*
X60424501Y-108022876D01*
X60430909Y-108082487D01*
X60432692Y-108090031D01*
X60430513Y-108090545D01*
X60434688Y-108148953D01*
X60401200Y-108210274D01*
X60378620Y-108228127D01*
X60331347Y-108257285D01*
X60331343Y-108257288D01*
X60237681Y-108350951D01*
X60176358Y-108384436D01*
X60106666Y-108379452D01*
X60062319Y-108350951D01*
X59968655Y-108257287D01*
X59961594Y-108252932D01*
X59914870Y-108200983D01*
X59903649Y-108132021D01*
X59910511Y-108104059D01*
X59918597Y-108082379D01*
X59918597Y-108082377D01*
X59924999Y-108022844D01*
X59925000Y-108022827D01*
X59925000Y-107700000D01*
X58275000Y-107700000D01*
X58275000Y-108022844D01*
X58281401Y-108082372D01*
X58281403Y-108082379D01*
X58314636Y-108171482D01*
X58319620Y-108241174D01*
X58286136Y-108302496D01*
X58207286Y-108381346D01*
X58175400Y-108433041D01*
X58123451Y-108479765D01*
X58054488Y-108490986D01*
X58044082Y-108489233D01*
X57857147Y-108449500D01*
X57857146Y-108449500D01*
X57667854Y-108449500D01*
X57635397Y-108456398D01*
X57482697Y-108488855D01*
X57482692Y-108488857D01*
X57309770Y-108565848D01*
X57309765Y-108565851D01*
X57156629Y-108677111D01*
X57029966Y-108817785D01*
X56935321Y-108981715D01*
X56935318Y-108981722D01*
X56876836Y-109161713D01*
X56876826Y-109161744D01*
X56857040Y-109350000D01*
X56876826Y-109538256D01*
X56876827Y-109538259D01*
X56935318Y-109718277D01*
X56935321Y-109718284D01*
X57029967Y-109882216D01*
X57080967Y-109938857D01*
X57156629Y-110022888D01*
X57309765Y-110134148D01*
X57309770Y-110134151D01*
X57482692Y-110211142D01*
X57482697Y-110211144D01*
X57667854Y-110250500D01*
X57667855Y-110250500D01*
X57857144Y-110250500D01*
X57857146Y-110250500D01*
X58042303Y-110211144D01*
X58073408Y-110197294D01*
X58142656Y-110188009D01*
X58205933Y-110217637D01*
X58211525Y-110222893D01*
X58331344Y-110342712D01*
X58480666Y-110434814D01*
X58647203Y-110489999D01*
X58749991Y-110500500D01*
X59550008Y-110500499D01*
X59550016Y-110500498D01*
X59550019Y-110500498D01*
X59606302Y-110494748D01*
X59652797Y-110489999D01*
X59819334Y-110434814D01*
X59968656Y-110342712D01*
X60062319Y-110249049D01*
X60123642Y-110215564D01*
X60193334Y-110220548D01*
X60237681Y-110249049D01*
X60331344Y-110342712D01*
X60480666Y-110434814D01*
X60647203Y-110489999D01*
X60749991Y-110500500D01*
X61420547Y-110500499D01*
X61487586Y-110520183D01*
X61533341Y-110572987D01*
X61543285Y-110642146D01*
X61514260Y-110705702D01*
X61508228Y-110712180D01*
X60783742Y-111436665D01*
X60722419Y-111470150D01*
X60661466Y-111468060D01*
X60607573Y-111452402D01*
X60607567Y-111452401D01*
X60570696Y-111449500D01*
X60570694Y-111449500D01*
X60139306Y-111449500D01*
X60139304Y-111449500D01*
X60102432Y-111452401D01*
X60102426Y-111452402D01*
X59944606Y-111498254D01*
X59944603Y-111498255D01*
X59803137Y-111581917D01*
X59796969Y-111586702D01*
X59795072Y-111584256D01*
X59746358Y-111610857D01*
X59676666Y-111605873D01*
X59644296Y-111585069D01*
X59643031Y-111586702D01*
X59636862Y-111581917D01*
X59501688Y-111501976D01*
X59495398Y-111498256D01*
X59495397Y-111498255D01*
X59495396Y-111498255D01*
X59495393Y-111498254D01*
X59337573Y-111452402D01*
X59337567Y-111452401D01*
X59300696Y-111449500D01*
X59300694Y-111449500D01*
X58869306Y-111449500D01*
X58869304Y-111449500D01*
X58832432Y-111452401D01*
X58832426Y-111452402D01*
X58674606Y-111498254D01*
X58674603Y-111498255D01*
X58533137Y-111581917D01*
X58526969Y-111586702D01*
X58525072Y-111584256D01*
X58476358Y-111610857D01*
X58406666Y-111605873D01*
X58374296Y-111585069D01*
X58373031Y-111586702D01*
X58366862Y-111581917D01*
X58231688Y-111501976D01*
X58225398Y-111498256D01*
X58225397Y-111498255D01*
X58225396Y-111498255D01*
X58225393Y-111498254D01*
X58067573Y-111452402D01*
X58067567Y-111452401D01*
X58030696Y-111449500D01*
X58030694Y-111449500D01*
X57599306Y-111449500D01*
X57599304Y-111449500D01*
X57562432Y-111452401D01*
X57562426Y-111452402D01*
X57404606Y-111498254D01*
X57404603Y-111498255D01*
X57263140Y-111581915D01*
X57256974Y-111586699D01*
X57255174Y-111584379D01*
X57205913Y-111611230D01*
X57136225Y-111606193D01*
X57103992Y-111585461D01*
X57102722Y-111587100D01*
X57096552Y-111582314D01*
X56955196Y-111498717D01*
X56955193Y-111498716D01*
X56797494Y-111452900D01*
X56797497Y-111452900D01*
X56795000Y-111452703D01*
X56795000Y-114047295D01*
X56795001Y-114047295D01*
X56797486Y-114047100D01*
X56955198Y-114001281D01*
X57096550Y-113917686D01*
X57102717Y-113912903D01*
X57104630Y-113915369D01*
X57153222Y-113888802D01*
X57222917Y-113893749D01*
X57255762Y-113914853D01*
X57256969Y-113913298D01*
X57263132Y-113918078D01*
X57263135Y-113918081D01*
X57404602Y-114001744D01*
X57409872Y-114003275D01*
X57562426Y-114047597D01*
X57562429Y-114047597D01*
X57562431Y-114047598D01*
X57574722Y-114048565D01*
X57599304Y-114050500D01*
X57599306Y-114050500D01*
X58030696Y-114050500D01*
X58049131Y-114049049D01*
X58067569Y-114047598D01*
X58067571Y-114047597D01*
X58067573Y-114047597D01*
X58128458Y-114029908D01*
X58225398Y-114001744D01*
X58366865Y-113918081D01*
X58366870Y-113918075D01*
X58373031Y-113913298D01*
X58374933Y-113915750D01*
X58423579Y-113889155D01*
X58493274Y-113894104D01*
X58525695Y-113914940D01*
X58526969Y-113913298D01*
X58533129Y-113918075D01*
X58533135Y-113918081D01*
X58564627Y-113936705D01*
X58591916Y-113952844D01*
X58618687Y-113977195D01*
X58620066Y-113975901D01*
X58625405Y-113981587D01*
X58661309Y-114011288D01*
X58665621Y-114015211D01*
X59474786Y-114824377D01*
X59484197Y-114833788D01*
X59494022Y-114846051D01*
X59494243Y-114845869D01*
X59499214Y-114851878D01*
X59525217Y-114876295D01*
X59549635Y-114899226D01*
X59570529Y-114920120D01*
X59576011Y-114924373D01*
X59580443Y-114928157D01*
X59614418Y-114960062D01*
X59631976Y-114969714D01*
X59648235Y-114980395D01*
X59664064Y-114992673D01*
X59706838Y-115011182D01*
X59712056Y-115013738D01*
X59752908Y-115036197D01*
X59772316Y-115041180D01*
X59790717Y-115047480D01*
X59809104Y-115055437D01*
X59852488Y-115062308D01*
X59855119Y-115062725D01*
X59860839Y-115063909D01*
X59905981Y-115075500D01*
X59926016Y-115075500D01*
X59945414Y-115077026D01*
X59965194Y-115080159D01*
X59965195Y-115080160D01*
X59965195Y-115080159D01*
X59965196Y-115080160D01*
X60011584Y-115075775D01*
X60017422Y-115075500D01*
X60996252Y-115075500D01*
X61063291Y-115095185D01*
X61088400Y-115116526D01*
X61091561Y-115120036D01*
X61094129Y-115122888D01*
X61236376Y-115226236D01*
X61279042Y-115281566D01*
X61285021Y-115351179D01*
X61252416Y-115412974D01*
X61251172Y-115414235D01*
X60377228Y-116288181D01*
X60315905Y-116321666D01*
X60289547Y-116324500D01*
X57709489Y-116324500D01*
X57693872Y-116322776D01*
X57693845Y-116323062D01*
X57686083Y-116322327D01*
X57616955Y-116324500D01*
X57587402Y-116324500D01*
X57586681Y-116324590D01*
X57580509Y-116325369D01*
X57574697Y-116325826D01*
X57528125Y-116327290D01*
X57528124Y-116327290D01*
X57508881Y-116332881D01*
X57489831Y-116336825D01*
X57469963Y-116339334D01*
X57469961Y-116339335D01*
X57426636Y-116356488D01*
X57421109Y-116358380D01*
X57376362Y-116371381D01*
X57376361Y-116371382D01*
X57359119Y-116381579D01*
X57341651Y-116390137D01*
X57323021Y-116397513D01*
X57323019Y-116397514D01*
X57285328Y-116424898D01*
X57280446Y-116428105D01*
X57240331Y-116451830D01*
X57226160Y-116466000D01*
X57211375Y-116478628D01*
X57195164Y-116490407D01*
X57165461Y-116526310D01*
X57161529Y-116530631D01*
X56861832Y-116830327D01*
X56800509Y-116863812D01*
X56799933Y-116863936D01*
X56682696Y-116888856D01*
X56682692Y-116888857D01*
X56509770Y-116965848D01*
X56509765Y-116965851D01*
X56356629Y-117077111D01*
X56229966Y-117217785D01*
X56135321Y-117381715D01*
X56135318Y-117381722D01*
X56085355Y-117535494D01*
X56076826Y-117561744D01*
X56058746Y-117733768D01*
X56058249Y-117738499D01*
X56043588Y-117785278D01*
X56030285Y-117809474D01*
X56019610Y-117825726D01*
X56007329Y-117841561D01*
X56007324Y-117841568D01*
X55988815Y-117884338D01*
X55986245Y-117889584D01*
X55963803Y-117930406D01*
X55958822Y-117949807D01*
X55952521Y-117968210D01*
X55944562Y-117986602D01*
X55944561Y-117986605D01*
X55937271Y-118032627D01*
X55936087Y-118038346D01*
X55924501Y-118083472D01*
X55924500Y-118083482D01*
X55924500Y-118103516D01*
X55922973Y-118122915D01*
X55919840Y-118142694D01*
X55919840Y-118142695D01*
X55924225Y-118189083D01*
X55924500Y-118194921D01*
X55924500Y-118799191D01*
X55904815Y-118866230D01*
X55888181Y-118886872D01*
X55876923Y-118898129D01*
X55876917Y-118898137D01*
X55793255Y-119039603D01*
X55793254Y-119039606D01*
X55747402Y-119197426D01*
X55747401Y-119197432D01*
X55744500Y-119234304D01*
X55744500Y-120665696D01*
X55747401Y-120702567D01*
X55747402Y-120702573D01*
X55793254Y-120860393D01*
X55793255Y-120860396D01*
X55793256Y-120860398D01*
X55830681Y-120923681D01*
X55876917Y-121001862D01*
X55876923Y-121001870D01*
X55993129Y-121118076D01*
X55993133Y-121118079D01*
X55993135Y-121118081D01*
X56134602Y-121201744D01*
X56176224Y-121213836D01*
X56292426Y-121247597D01*
X56292429Y-121247597D01*
X56292431Y-121247598D01*
X56304722Y-121248565D01*
X56329304Y-121250500D01*
X56329306Y-121250500D01*
X56760696Y-121250500D01*
X56779131Y-121249049D01*
X56797569Y-121247598D01*
X56797571Y-121247597D01*
X56797573Y-121247597D01*
X56839191Y-121235505D01*
X56955398Y-121201744D01*
X57096865Y-121118081D01*
X57096870Y-121118075D01*
X57103031Y-121113298D01*
X57104933Y-121115750D01*
X57153579Y-121089155D01*
X57223274Y-121094104D01*
X57255695Y-121114940D01*
X57256969Y-121113298D01*
X57263132Y-121118078D01*
X57263135Y-121118081D01*
X57404602Y-121201744D01*
X57446224Y-121213836D01*
X57562426Y-121247597D01*
X57562429Y-121247597D01*
X57562431Y-121247598D01*
X57574722Y-121248565D01*
X57599304Y-121250500D01*
X57954040Y-121250500D01*
X58021079Y-121270185D01*
X58066834Y-121322989D01*
X58076778Y-121392147D01*
X58061427Y-121436497D01*
X58048332Y-121459180D01*
X58035321Y-121481715D01*
X58035318Y-121481722D01*
X57977392Y-121660001D01*
X57976826Y-121661744D01*
X57957040Y-121850000D01*
X57976826Y-122038256D01*
X57976827Y-122038259D01*
X58035318Y-122218277D01*
X58035321Y-122218284D01*
X58129967Y-122382216D01*
X58230854Y-122494262D01*
X58231261Y-122494714D01*
X58261491Y-122557705D01*
X58252866Y-122627040D01*
X58226792Y-122665367D01*
X57676531Y-123215629D01*
X57611946Y-123277024D01*
X57576899Y-123327376D01*
X57574062Y-123331138D01*
X57535302Y-123378674D01*
X57535299Y-123378679D01*
X57519392Y-123409129D01*
X57515324Y-123415843D01*
X57495702Y-123444036D01*
X57471509Y-123500412D01*
X57469488Y-123504666D01*
X57441091Y-123559033D01*
X57441090Y-123559034D01*
X57431640Y-123592057D01*
X57429007Y-123599453D01*
X57415459Y-123631025D01*
X57403113Y-123691101D01*
X57401990Y-123695677D01*
X57385113Y-123754659D01*
X57385113Y-123754661D01*
X57382503Y-123788923D01*
X57381414Y-123796690D01*
X57379237Y-123807288D01*
X57374500Y-123830340D01*
X57374500Y-123891679D01*
X57374321Y-123896388D01*
X57369662Y-123957556D01*
X57371707Y-123973609D01*
X57374003Y-123991642D01*
X57374500Y-123999470D01*
X57374500Y-124064477D01*
X57354815Y-124131516D01*
X57302011Y-124177271D01*
X57232853Y-124187215D01*
X57169297Y-124158190D01*
X57162819Y-124152158D01*
X57105845Y-124095184D01*
X56956624Y-124003143D01*
X56956619Y-124003141D01*
X56790197Y-123947994D01*
X56790190Y-123947993D01*
X56687486Y-123937500D01*
X56550000Y-123937500D01*
X56550000Y-125288500D01*
X56530315Y-125355539D01*
X56477511Y-125401294D01*
X56426000Y-125412500D01*
X55212501Y-125412500D01*
X55212501Y-125687486D01*
X55222994Y-125790197D01*
X55278141Y-125956619D01*
X55278143Y-125956624D01*
X55370184Y-126105845D01*
X55382553Y-126118214D01*
X55416038Y-126179537D01*
X55411054Y-126249229D01*
X55386281Y-126287784D01*
X55386772Y-126288172D01*
X55382820Y-126293170D01*
X55382570Y-126293560D01*
X55382294Y-126293835D01*
X55382293Y-126293836D01*
X55290187Y-126443163D01*
X55290186Y-126443166D01*
X55235001Y-126609703D01*
X55235001Y-126609704D01*
X55235000Y-126609704D01*
X55224500Y-126712483D01*
X55224500Y-126846716D01*
X55204815Y-126913755D01*
X55188181Y-126934397D01*
X54389031Y-127733547D01*
X54324445Y-127794943D01*
X54320349Y-127799715D01*
X54318766Y-127798356D01*
X54271803Y-127836100D01*
X54202324Y-127843478D01*
X54139886Y-127812121D01*
X54104312Y-127751986D01*
X54100500Y-127721477D01*
X54100500Y-124912500D01*
X55212500Y-124912500D01*
X56050000Y-124912500D01*
X56050000Y-123937500D01*
X55912527Y-123937500D01*
X55912512Y-123937501D01*
X55809802Y-123947994D01*
X55643380Y-124003141D01*
X55643375Y-124003143D01*
X55494154Y-124095184D01*
X55370184Y-124219154D01*
X55278143Y-124368375D01*
X55278141Y-124368380D01*
X55222994Y-124534802D01*
X55222993Y-124534809D01*
X55212500Y-124637513D01*
X55212500Y-124912500D01*
X54100500Y-124912500D01*
X54100500Y-113000000D01*
X55745000Y-113000000D01*
X55745000Y-113465644D01*
X55747899Y-113502489D01*
X55747900Y-113502495D01*
X55793716Y-113660193D01*
X55793717Y-113660196D01*
X55877314Y-113801552D01*
X55877321Y-113801561D01*
X55993438Y-113917678D01*
X55993447Y-113917685D01*
X56134801Y-114001281D01*
X56292514Y-114047100D01*
X56292511Y-114047100D01*
X56294998Y-114047295D01*
X56295000Y-114047295D01*
X56295000Y-113000000D01*
X55745000Y-113000000D01*
X54100500Y-113000000D01*
X54100500Y-112500000D01*
X55745000Y-112500000D01*
X56295000Y-112500000D01*
X56295000Y-111452703D01*
X56292503Y-111452900D01*
X56134806Y-111498716D01*
X56134803Y-111498717D01*
X55993447Y-111582314D01*
X55993438Y-111582321D01*
X55877321Y-111698438D01*
X55877314Y-111698447D01*
X55793717Y-111839803D01*
X55793716Y-111839806D01*
X55747900Y-111997504D01*
X55747899Y-111997510D01*
X55745000Y-112034356D01*
X55745000Y-112500000D01*
X54100500Y-112500000D01*
X54100500Y-107200000D01*
X58275000Y-107200000D01*
X58850000Y-107200000D01*
X58850000Y-106425000D01*
X59350000Y-106425000D01*
X59350000Y-107200000D01*
X59925000Y-107200000D01*
X59925000Y-106877172D01*
X59924999Y-106877155D01*
X59918598Y-106817627D01*
X59918596Y-106817620D01*
X59868354Y-106682913D01*
X59868350Y-106682906D01*
X59782190Y-106567812D01*
X59782187Y-106567809D01*
X59667093Y-106481649D01*
X59667086Y-106481645D01*
X59532379Y-106431403D01*
X59532372Y-106431401D01*
X59472844Y-106425000D01*
X59350000Y-106425000D01*
X58850000Y-106425000D01*
X58727155Y-106425000D01*
X58667627Y-106431401D01*
X58667620Y-106431403D01*
X58532913Y-106481645D01*
X58532906Y-106481649D01*
X58417812Y-106567809D01*
X58417809Y-106567812D01*
X58331649Y-106682906D01*
X58331645Y-106682913D01*
X58281403Y-106817620D01*
X58281401Y-106817627D01*
X58275000Y-106877155D01*
X58275000Y-107200000D01*
X54100500Y-107200000D01*
X54100500Y-103550000D01*
X58275000Y-103550000D01*
X58275000Y-103872844D01*
X58281401Y-103932372D01*
X58281403Y-103932379D01*
X58331645Y-104067086D01*
X58331649Y-104067093D01*
X58417809Y-104182187D01*
X58417812Y-104182190D01*
X58532906Y-104268350D01*
X58532913Y-104268354D01*
X58667620Y-104318596D01*
X58667627Y-104318598D01*
X58727155Y-104324999D01*
X58727172Y-104325000D01*
X58850000Y-104325000D01*
X58850000Y-103550000D01*
X59350000Y-103550000D01*
X59350000Y-104325000D01*
X59472828Y-104325000D01*
X59472844Y-104324999D01*
X59532372Y-104318598D01*
X59532379Y-104318596D01*
X59667086Y-104268354D01*
X59667093Y-104268350D01*
X59782187Y-104182190D01*
X59782190Y-104182187D01*
X59868350Y-104067093D01*
X59868354Y-104067086D01*
X59918596Y-103932379D01*
X59918598Y-103932372D01*
X59924999Y-103872844D01*
X59925000Y-103872827D01*
X59925000Y-103550000D01*
X59350000Y-103550000D01*
X58850000Y-103550000D01*
X58275000Y-103550000D01*
X54100500Y-103550000D01*
X54100500Y-103050000D01*
X58275000Y-103050000D01*
X58850000Y-103050000D01*
X58850000Y-102275000D01*
X59350000Y-102275000D01*
X59350000Y-103050000D01*
X59925000Y-103050000D01*
X59925000Y-102727172D01*
X59924999Y-102727155D01*
X59918598Y-102667627D01*
X59918596Y-102667620D01*
X59868354Y-102532913D01*
X59868350Y-102532906D01*
X59782190Y-102417812D01*
X59782187Y-102417809D01*
X59667093Y-102331649D01*
X59667086Y-102331645D01*
X59532379Y-102281403D01*
X59532372Y-102281401D01*
X59472844Y-102275000D01*
X59350000Y-102275000D01*
X58850000Y-102275000D01*
X58727155Y-102275000D01*
X58667627Y-102281401D01*
X58667620Y-102281403D01*
X58532913Y-102331645D01*
X58532906Y-102331649D01*
X58417812Y-102417809D01*
X58417809Y-102417812D01*
X58331649Y-102532906D01*
X58331645Y-102532913D01*
X58281403Y-102667620D01*
X58281401Y-102667627D01*
X58275000Y-102727155D01*
X58275000Y-103050000D01*
X54100500Y-103050000D01*
X54100500Y-94917763D01*
X55308287Y-94917763D01*
X55337913Y-95187013D01*
X55337915Y-95187024D01*
X55406426Y-95449082D01*
X55406428Y-95449088D01*
X55512370Y-95698390D01*
X55584498Y-95816575D01*
X55653479Y-95929605D01*
X55653486Y-95929615D01*
X55826753Y-96137819D01*
X55826759Y-96137824D01*
X55960811Y-96257934D01*
X56028498Y-96318582D01*
X56254410Y-96468044D01*
X56499676Y-96583020D01*
X56499683Y-96583022D01*
X56499685Y-96583023D01*
X56759057Y-96661057D01*
X56759064Y-96661058D01*
X56759069Y-96661060D01*
X57027061Y-96700500D01*
X57027066Y-96700500D01*
X57230136Y-96700500D01*
X57281633Y-96696730D01*
X57432656Y-96685677D01*
X57605475Y-96647180D01*
X57697046Y-96626782D01*
X57697048Y-96626781D01*
X57697053Y-96626780D01*
X57950058Y-96530014D01*
X58186277Y-96397441D01*
X58400677Y-96231888D01*
X58588686Y-96036881D01*
X58746299Y-95816579D01*
X58820287Y-95672669D01*
X58870149Y-95575690D01*
X58870151Y-95575684D01*
X58870156Y-95575675D01*
X58957618Y-95319305D01*
X59006819Y-95052933D01*
X59016712Y-94782235D01*
X58987086Y-94512982D01*
X58918572Y-94250912D01*
X58854441Y-94100000D01*
X60387500Y-94100000D01*
X60387500Y-94997844D01*
X60393901Y-95057372D01*
X60393903Y-95057379D01*
X60444145Y-95192086D01*
X60444149Y-95192093D01*
X60530309Y-95307187D01*
X60530312Y-95307190D01*
X60645406Y-95393350D01*
X60645413Y-95393354D01*
X60780120Y-95443596D01*
X60780127Y-95443598D01*
X60839655Y-95449999D01*
X60839672Y-95450000D01*
X61162500Y-95450000D01*
X61162500Y-94100000D01*
X60387500Y-94100000D01*
X58854441Y-94100000D01*
X58812630Y-94001610D01*
X58671518Y-93770390D01*
X58582247Y-93663119D01*
X58529720Y-93600000D01*
X60387500Y-93600000D01*
X61162500Y-93600000D01*
X61162500Y-92250000D01*
X61662500Y-92250000D01*
X61662500Y-93600000D01*
X62437500Y-93600000D01*
X63337500Y-93600000D01*
X64112500Y-93600000D01*
X64112500Y-92250000D01*
X64612500Y-92250000D01*
X64612500Y-93600000D01*
X65387500Y-93600000D01*
X65387500Y-92702172D01*
X65387499Y-92702155D01*
X65381098Y-92642627D01*
X65381096Y-92642620D01*
X65330854Y-92507913D01*
X65330850Y-92507906D01*
X65244690Y-92392812D01*
X65244687Y-92392809D01*
X65129593Y-92306649D01*
X65129586Y-92306645D01*
X64994879Y-92256403D01*
X64994872Y-92256401D01*
X64935344Y-92250000D01*
X64612500Y-92250000D01*
X64112500Y-92250000D01*
X63789655Y-92250000D01*
X63730127Y-92256401D01*
X63730120Y-92256403D01*
X63595413Y-92306645D01*
X63595406Y-92306649D01*
X63480312Y-92392809D01*
X63480309Y-92392812D01*
X63394149Y-92507906D01*
X63394145Y-92507913D01*
X63343903Y-92642620D01*
X63343901Y-92642627D01*
X63337500Y-92702155D01*
X63337500Y-93600000D01*
X62437500Y-93600000D01*
X62437500Y-92702172D01*
X62437499Y-92702155D01*
X62431098Y-92642627D01*
X62431096Y-92642620D01*
X62380854Y-92507913D01*
X62380850Y-92507906D01*
X62294690Y-92392812D01*
X62294687Y-92392809D01*
X62179593Y-92306649D01*
X62179586Y-92306645D01*
X62044879Y-92256403D01*
X62044872Y-92256401D01*
X61985344Y-92250000D01*
X61662500Y-92250000D01*
X61162500Y-92250000D01*
X60839655Y-92250000D01*
X60780127Y-92256401D01*
X60780120Y-92256403D01*
X60645413Y-92306645D01*
X60645406Y-92306649D01*
X60530312Y-92392809D01*
X60530309Y-92392812D01*
X60444149Y-92507906D01*
X60444145Y-92507913D01*
X60393903Y-92642620D01*
X60393901Y-92642627D01*
X60387500Y-92702155D01*
X60387500Y-93600000D01*
X58529720Y-93600000D01*
X58498246Y-93562180D01*
X58498240Y-93562175D01*
X58296502Y-93381418D01*
X58070592Y-93231957D01*
X58070590Y-93231956D01*
X57825324Y-93116980D01*
X57825319Y-93116978D01*
X57825314Y-93116976D01*
X57565942Y-93038942D01*
X57565928Y-93038939D01*
X57450291Y-93021921D01*
X57297939Y-92999500D01*
X57094869Y-92999500D01*
X57094864Y-92999500D01*
X56892344Y-93014323D01*
X56892331Y-93014325D01*
X56627953Y-93073217D01*
X56627946Y-93073220D01*
X56374939Y-93169987D01*
X56138726Y-93302557D01*
X55924322Y-93468112D01*
X55736322Y-93663109D01*
X55736316Y-93663116D01*
X55578702Y-93883419D01*
X55578699Y-93883424D01*
X55454850Y-94124309D01*
X55454843Y-94124327D01*
X55367384Y-94380685D01*
X55367381Y-94380699D01*
X55318181Y-94647068D01*
X55318180Y-94647075D01*
X55308287Y-94917763D01*
X54100500Y-94917763D01*
X54100500Y-92952212D01*
X54100658Y-92947788D01*
X54105480Y-92880373D01*
X54106282Y-92870170D01*
X54117051Y-92733344D01*
X54118275Y-92725051D01*
X54138902Y-92630231D01*
X54166862Y-92513766D01*
X54169049Y-92506604D01*
X54204989Y-92410246D01*
X54248951Y-92304114D01*
X54251794Y-92298172D01*
X54301566Y-92207021D01*
X54303058Y-92204446D01*
X54361499Y-92109077D01*
X54364687Y-92104380D01*
X54427458Y-92020527D01*
X54429873Y-92017508D01*
X54502020Y-91933036D01*
X54505278Y-91929511D01*
X54579511Y-91855278D01*
X54583036Y-91852020D01*
X54667508Y-91779873D01*
X54670527Y-91777458D01*
X54754380Y-91714687D01*
X54759077Y-91711499D01*
X54854446Y-91653058D01*
X54857021Y-91651566D01*
X54948172Y-91601794D01*
X54954114Y-91598951D01*
X55060246Y-91554989D01*
X55156604Y-91519049D01*
X55163766Y-91516862D01*
X55280243Y-91488899D01*
X55375051Y-91468275D01*
X55383344Y-91467051D01*
X55530235Y-91455489D01*
X55597792Y-91450657D01*
X55602213Y-91450500D01*
X55651171Y-91450500D01*
X55651767Y-91450433D01*
X55989400Y-91450000D01*
X67280144Y-91450000D01*
X67347183Y-91469685D01*
G37*
%TD.AperFunction*%
%TA.AperFunction,Conductor*%
G36*
X78593334Y-121670548D02*
G01*
X78637681Y-121699049D01*
X78731344Y-121792712D01*
X78865597Y-121875519D01*
X78912321Y-121927465D01*
X78924500Y-121981057D01*
X78924500Y-122972620D01*
X78904815Y-123039659D01*
X78852011Y-123085414D01*
X78800500Y-123096620D01*
X78449998Y-123096620D01*
X78449980Y-123096621D01*
X78347203Y-123107120D01*
X78347200Y-123107121D01*
X78180668Y-123162305D01*
X78180663Y-123162307D01*
X78031342Y-123254409D01*
X77907288Y-123378463D01*
X77907283Y-123378469D01*
X77905241Y-123381781D01*
X77903247Y-123383573D01*
X77902807Y-123384131D01*
X77902711Y-123384055D01*
X77853291Y-123428503D01*
X77784328Y-123439722D01*
X77720247Y-123411875D01*
X77694168Y-123381776D01*
X77692319Y-123378779D01*
X77692316Y-123378775D01*
X77568345Y-123254804D01*
X77419124Y-123162763D01*
X77419119Y-123162761D01*
X77252697Y-123107614D01*
X77252690Y-123107613D01*
X77149986Y-123097120D01*
X77012500Y-123097120D01*
X77012500Y-126448120D01*
X76992815Y-126515159D01*
X76940011Y-126560914D01*
X76888500Y-126572120D01*
X76636500Y-126572120D01*
X76569461Y-126552435D01*
X76523706Y-126499631D01*
X76512500Y-126448120D01*
X76512500Y-123097120D01*
X76375027Y-123097120D01*
X76375012Y-123097121D01*
X76272302Y-123107614D01*
X76105880Y-123162761D01*
X76105875Y-123162763D01*
X75956654Y-123254804D01*
X75832684Y-123378774D01*
X75740643Y-123527995D01*
X75740641Y-123528000D01*
X75685494Y-123694422D01*
X75685493Y-123694429D01*
X75675000Y-123797133D01*
X75675000Y-123914943D01*
X75655315Y-123981982D01*
X75602511Y-124027737D01*
X75533353Y-124037681D01*
X75469797Y-124008656D01*
X75463319Y-124002624D01*
X74881137Y-123420442D01*
X74847652Y-123359119D01*
X74852636Y-123289427D01*
X74876666Y-123249792D01*
X74982533Y-123132216D01*
X75077179Y-122968284D01*
X75135674Y-122788256D01*
X75138482Y-122761540D01*
X75165066Y-122696925D01*
X75222363Y-122656940D01*
X75261803Y-122650500D01*
X76206572Y-122650500D01*
X76214670Y-122651030D01*
X76250000Y-122655682D01*
X76250001Y-122655682D01*
X76302254Y-122648802D01*
X76406762Y-122635044D01*
X76552841Y-122574536D01*
X76620499Y-122522620D01*
X76678282Y-122478282D01*
X76699983Y-122449999D01*
X76705319Y-122443914D01*
X77162416Y-121986818D01*
X77223739Y-121953333D01*
X77250097Y-121950499D01*
X77950002Y-121950499D01*
X77950008Y-121950499D01*
X78052797Y-121939999D01*
X78219334Y-121884814D01*
X78368656Y-121792712D01*
X78462319Y-121699049D01*
X78523642Y-121665564D01*
X78593334Y-121670548D01*
G37*
%TD.AperFunction*%
%TA.AperFunction,Conductor*%
G36*
X72805039Y-124842305D02*
G01*
X72850794Y-124895109D01*
X72862000Y-124946620D01*
X72862000Y-124998120D01*
X72842315Y-125065159D01*
X72789511Y-125110914D01*
X72738000Y-125122120D01*
X72475000Y-125122120D01*
X72475000Y-126048120D01*
X72455315Y-126115159D01*
X72402511Y-126160914D01*
X72351000Y-126172120D01*
X72099000Y-126172120D01*
X72031961Y-126152435D01*
X71986206Y-126099631D01*
X71975000Y-126048120D01*
X71975000Y-125122120D01*
X71599500Y-125122120D01*
X71532461Y-125102435D01*
X71486706Y-125049631D01*
X71475500Y-124998120D01*
X71475500Y-124946620D01*
X71495185Y-124879581D01*
X71547989Y-124833826D01*
X71599500Y-124822620D01*
X72738000Y-124822620D01*
X72805039Y-124842305D01*
G37*
%TD.AperFunction*%
%TA.AperFunction,Conductor*%
G36*
X66919334Y-114852390D02*
G01*
X66975267Y-114894262D01*
X66978839Y-114903839D01*
X67000000Y-114925000D01*
X68125500Y-114925000D01*
X68192539Y-114944685D01*
X68238294Y-114997489D01*
X68249500Y-115049000D01*
X68249500Y-115234151D01*
X68249501Y-115301000D01*
X68229817Y-115368039D01*
X68177013Y-115413794D01*
X68125501Y-115425000D01*
X67000000Y-115425000D01*
X67000000Y-116372844D01*
X67006401Y-116432372D01*
X67006403Y-116432379D01*
X67056645Y-116567086D01*
X67056649Y-116567093D01*
X67142809Y-116682187D01*
X67142812Y-116682190D01*
X67257906Y-116768350D01*
X67257913Y-116768354D01*
X67392620Y-116818596D01*
X67392627Y-116818598D01*
X67452155Y-116824999D01*
X67452172Y-116825000D01*
X67494137Y-116825000D01*
X67561176Y-116844685D01*
X67606931Y-116897489D01*
X67616875Y-116966647D01*
X67588992Y-117027701D01*
X67589165Y-117027834D01*
X67588589Y-117028584D01*
X67587850Y-117030203D01*
X67584992Y-117033271D01*
X67501215Y-117142454D01*
X67487962Y-117159725D01*
X67487961Y-117159727D01*
X67427457Y-117305798D01*
X67427455Y-117305803D01*
X67407931Y-117454108D01*
X67406818Y-117462564D01*
X67409339Y-117481716D01*
X67411469Y-117497890D01*
X67412000Y-117505992D01*
X67412000Y-118582916D01*
X67411469Y-118591014D01*
X67406818Y-118626345D01*
X67410734Y-118656093D01*
X67412000Y-118665705D01*
X67427455Y-118783105D01*
X67427456Y-118783107D01*
X67465933Y-118876000D01*
X67487964Y-118929186D01*
X67584218Y-119054627D01*
X67612495Y-119076325D01*
X67618585Y-119081665D01*
X67929704Y-119392784D01*
X68230824Y-119693904D01*
X68236173Y-119700002D01*
X68257873Y-119728282D01*
X68352297Y-119800736D01*
X68383314Y-119824536D01*
X68529393Y-119885044D01*
X68607774Y-119895363D01*
X68686154Y-119905682D01*
X68686155Y-119905682D01*
X68721484Y-119901030D01*
X68729583Y-119900500D01*
X68874967Y-119900500D01*
X68942006Y-119920185D01*
X68962648Y-119936819D01*
X69678845Y-120653016D01*
X69712330Y-120714339D01*
X69707346Y-120784031D01*
X69665474Y-120839964D01*
X69630169Y-120858402D01*
X69622959Y-120860791D01*
X69616305Y-120862996D01*
X69616294Y-120863001D01*
X69471959Y-120952029D01*
X69471955Y-120952032D01*
X69352032Y-121071955D01*
X69352029Y-121071959D01*
X69263001Y-121216294D01*
X69262996Y-121216305D01*
X69209651Y-121377290D01*
X69199500Y-121476647D01*
X69199500Y-121555770D01*
X69196290Y-121583801D01*
X69152396Y-121772945D01*
X69147242Y-121976358D01*
X69183140Y-122176648D01*
X69183141Y-122176650D01*
X69190654Y-122195459D01*
X69199500Y-122241454D01*
X69199500Y-122323336D01*
X69199501Y-122323355D01*
X69209650Y-122422707D01*
X69209651Y-122422710D01*
X69262996Y-122583694D01*
X69263001Y-122583705D01*
X69352029Y-122728040D01*
X69352032Y-122728044D01*
X69438181Y-122814193D01*
X69471666Y-122875516D01*
X69474500Y-122901874D01*
X69474500Y-123081051D01*
X69454815Y-123148090D01*
X69402011Y-123193845D01*
X69332853Y-123203789D01*
X69328220Y-123203033D01*
X69327491Y-123202899D01*
X69290644Y-123200000D01*
X68887500Y-123200000D01*
X68887500Y-123875500D01*
X68867815Y-123942539D01*
X68815011Y-123988294D01*
X68763500Y-123999500D01*
X68511500Y-123999500D01*
X68444461Y-123979815D01*
X68398706Y-123927011D01*
X68387500Y-123875500D01*
X68387500Y-123200000D01*
X67984356Y-123200000D01*
X67947510Y-123202899D01*
X67947504Y-123202900D01*
X67789806Y-123248716D01*
X67789803Y-123248717D01*
X67648447Y-123332314D01*
X67648438Y-123332321D01*
X67532321Y-123448438D01*
X67532314Y-123448447D01*
X67448717Y-123589803D01*
X67448716Y-123589806D01*
X67402900Y-123747504D01*
X67402899Y-123747510D01*
X67400000Y-123784356D01*
X67400000Y-123875500D01*
X67380315Y-123942539D01*
X67327511Y-123988294D01*
X67276000Y-123999500D01*
X67026205Y-123999500D01*
X67008235Y-123998191D01*
X66984472Y-123994710D01*
X66939033Y-123998686D01*
X66932431Y-123999264D01*
X66927030Y-123999500D01*
X66918789Y-123999500D01*
X66897079Y-124002037D01*
X66886224Y-124003306D01*
X66870919Y-124004645D01*
X66809699Y-124010001D01*
X66802632Y-124011460D01*
X66802620Y-124011404D01*
X66795263Y-124013035D01*
X66795277Y-124013092D01*
X66788243Y-124014759D01*
X66716075Y-124041025D01*
X66643175Y-124065181D01*
X66636626Y-124068236D01*
X66636601Y-124068183D01*
X66629808Y-124071471D01*
X66629834Y-124071523D01*
X66623380Y-124074764D01*
X66559208Y-124116971D01*
X66536402Y-124131038D01*
X66471304Y-124149500D01*
X66109304Y-124149500D01*
X66072432Y-124152401D01*
X66072429Y-124152402D01*
X66051710Y-124158421D01*
X65981841Y-124158219D01*
X65923172Y-124120274D01*
X65896909Y-124062323D01*
X65895876Y-124062568D01*
X65894628Y-124057289D01*
X65894332Y-124056635D01*
X65894174Y-124055368D01*
X65894092Y-124055020D01*
X65843797Y-123920171D01*
X65843793Y-123920164D01*
X65757547Y-123804955D01*
X65747098Y-123797133D01*
X65708433Y-123768188D01*
X65692146Y-123755995D01*
X65650276Y-123700061D01*
X65642458Y-123656729D01*
X65642458Y-122698191D01*
X65662143Y-122631152D01*
X65674307Y-122615220D01*
X65702693Y-122583694D01*
X65749491Y-122531720D01*
X65749493Y-122531715D01*
X65750218Y-122530911D01*
X65809705Y-122494262D01*
X65879562Y-122495591D01*
X65937610Y-122534477D01*
X65960073Y-122574874D01*
X65962996Y-122583694D01*
X65962997Y-122583696D01*
X65963001Y-122583705D01*
X66052029Y-122728040D01*
X66052032Y-122728044D01*
X66171955Y-122847967D01*
X66171959Y-122847970D01*
X66316294Y-122936998D01*
X66316297Y-122936999D01*
X66316303Y-122937003D01*
X66477292Y-122990349D01*
X66576655Y-123000500D01*
X67123344Y-123000499D01*
X67123352Y-123000498D01*
X67123355Y-123000498D01*
X67177760Y-122994940D01*
X67222708Y-122990349D01*
X67383697Y-122937003D01*
X67528044Y-122847968D01*
X67647968Y-122728044D01*
X67737003Y-122583697D01*
X67790349Y-122422708D01*
X67800500Y-122323345D01*
X67800499Y-122244231D01*
X67803709Y-122216200D01*
X67808523Y-122195459D01*
X67847603Y-122027054D01*
X67848887Y-121976363D01*
X67852757Y-121823641D01*
X67852756Y-121823640D01*
X67852757Y-121823637D01*
X67827020Y-121680045D01*
X67816859Y-121623351D01*
X67816856Y-121623341D01*
X67809346Y-121604539D01*
X67800499Y-121558542D01*
X67800499Y-121476662D01*
X67800498Y-121476644D01*
X67790349Y-121377292D01*
X67790348Y-121377289D01*
X67770630Y-121317784D01*
X67737003Y-121216303D01*
X67736999Y-121216297D01*
X67736998Y-121216294D01*
X67647970Y-121071959D01*
X67647967Y-121071955D01*
X67528044Y-120952032D01*
X67528040Y-120952029D01*
X67383705Y-120863001D01*
X67383699Y-120862998D01*
X67383697Y-120862997D01*
X67222708Y-120809651D01*
X67222706Y-120809650D01*
X67222704Y-120809650D01*
X67222700Y-120809649D01*
X67212973Y-120808655D01*
X67148282Y-120782256D01*
X67137900Y-120772979D01*
X66316451Y-119951531D01*
X66255061Y-119886949D01*
X66255060Y-119886948D01*
X66255059Y-119886947D01*
X66212994Y-119857669D01*
X66204709Y-119851902D01*
X66200946Y-119849065D01*
X66182171Y-119833756D01*
X66142654Y-119776135D01*
X66137211Y-119724699D01*
X66155573Y-119550000D01*
X66135787Y-119361744D01*
X66077292Y-119181716D01*
X65982646Y-119017784D01*
X65964738Y-118997895D01*
X65907463Y-118934284D01*
X65877233Y-118871292D01*
X65875613Y-118851312D01*
X65875613Y-115844959D01*
X65895298Y-115777920D01*
X65911932Y-115757278D01*
X66788319Y-114880891D01*
X66849642Y-114847406D01*
X66919334Y-114852390D01*
G37*
%TD.AperFunction*%
%TA.AperFunction,Conductor*%
G36*
X84468039Y-119944685D02*
G01*
X84513794Y-119997489D01*
X84525000Y-120049000D01*
X84525000Y-120675000D01*
X84725500Y-120675000D01*
X84792539Y-120694685D01*
X84838294Y-120747489D01*
X84849500Y-120799000D01*
X84849500Y-121532566D01*
X84829815Y-121599605D01*
X84777011Y-121645360D01*
X84712899Y-121655924D01*
X84650021Y-121649500D01*
X84650009Y-121649500D01*
X84049500Y-121649500D01*
X83982461Y-121629815D01*
X83936706Y-121577011D01*
X83925500Y-121525500D01*
X83925500Y-121177238D01*
X83925499Y-120798998D01*
X83945183Y-120731961D01*
X83997987Y-120686206D01*
X84049499Y-120675000D01*
X84275000Y-120675000D01*
X84275000Y-120049000D01*
X84294685Y-119981961D01*
X84347489Y-119936206D01*
X84399000Y-119925000D01*
X84401000Y-119925000D01*
X84468039Y-119944685D01*
G37*
%TD.AperFunction*%
%TA.AperFunction,Conductor*%
G36*
X84548287Y-91450392D02*
G01*
X84548649Y-91450500D01*
X84597787Y-91450500D01*
X84602207Y-91450657D01*
X84669755Y-91455489D01*
X84816644Y-91467049D01*
X84824947Y-91468274D01*
X84919760Y-91488899D01*
X85036225Y-91516860D01*
X85043401Y-91519051D01*
X85139737Y-91554983D01*
X85217922Y-91587368D01*
X85245856Y-91598939D01*
X85251847Y-91601805D01*
X85342937Y-91651543D01*
X85345580Y-91653073D01*
X85440903Y-91711488D01*
X85445643Y-91714705D01*
X85529440Y-91777435D01*
X85532520Y-91779898D01*
X85588275Y-91827517D01*
X85616937Y-91851997D01*
X85620513Y-91855303D01*
X85694695Y-91929485D01*
X85698001Y-91933061D01*
X85770094Y-92017471D01*
X85772576Y-92020574D01*
X85835289Y-92104349D01*
X85838521Y-92109111D01*
X85896910Y-92204393D01*
X85898463Y-92207076D01*
X85948193Y-92298151D01*
X85951059Y-92304141D01*
X85995016Y-92410260D01*
X86030942Y-92506582D01*
X86033140Y-92513781D01*
X86061098Y-92630231D01*
X86081723Y-92725044D01*
X86082950Y-92733367D01*
X86094517Y-92880331D01*
X86099342Y-92947789D01*
X86099500Y-92952213D01*
X86099500Y-118795459D01*
X86079815Y-118862498D01*
X86027011Y-118908253D01*
X85957853Y-118918197D01*
X85894297Y-118889172D01*
X85882833Y-118877005D01*
X85878282Y-118872454D01*
X85865307Y-118862498D01*
X85850005Y-118850756D01*
X85843904Y-118845405D01*
X85654592Y-118656093D01*
X85649238Y-118649988D01*
X85627550Y-118621722D01*
X85627547Y-118621720D01*
X85627546Y-118621718D01*
X85502105Y-118525464D01*
X85482026Y-118517147D01*
X85356022Y-118464954D01*
X85348175Y-118462852D01*
X85348217Y-118462691D01*
X85331618Y-118458559D01*
X85257482Y-118430908D01*
X85257483Y-118430908D01*
X85197883Y-118424501D01*
X85197881Y-118424500D01*
X85197873Y-118424500D01*
X85197865Y-118424500D01*
X84375097Y-118424500D01*
X84308058Y-118404815D01*
X84287416Y-118388181D01*
X83961818Y-118062583D01*
X83928333Y-118001260D01*
X83925499Y-117974902D01*
X83925499Y-117452129D01*
X83925498Y-117452123D01*
X83919091Y-117392516D01*
X83868797Y-117257671D01*
X83868793Y-117257664D01*
X83782546Y-117142454D01*
X83782544Y-117142452D01*
X83667335Y-117056206D01*
X83667328Y-117056202D01*
X83532486Y-117005910D01*
X83532485Y-117005909D01*
X83532483Y-117005909D01*
X83472873Y-116999500D01*
X83472863Y-116999500D01*
X83127130Y-116999500D01*
X83127120Y-116999501D01*
X83063248Y-117006367D01*
X83036742Y-117006367D01*
X83032483Y-117005909D01*
X82972873Y-116999500D01*
X82972865Y-116999500D01*
X82627130Y-116999500D01*
X82627123Y-116999501D01*
X82567515Y-117005909D01*
X82452065Y-117048968D01*
X82382373Y-117053952D01*
X82358297Y-117046065D01*
X82229807Y-116988857D01*
X82229802Y-116988855D01*
X82084001Y-116957865D01*
X82044646Y-116949500D01*
X81855354Y-116949500D01*
X81822897Y-116956398D01*
X81670197Y-116988855D01*
X81670192Y-116988857D01*
X81497270Y-117065848D01*
X81497265Y-117065851D01*
X81344129Y-117177111D01*
X81217466Y-117317785D01*
X81122821Y-117481715D01*
X81122818Y-117481722D01*
X81067791Y-117651080D01*
X81064326Y-117661744D01*
X81044540Y-117850000D01*
X81064326Y-118038256D01*
X81064327Y-118038259D01*
X81122818Y-118218277D01*
X81122819Y-118218279D01*
X81122821Y-118218284D01*
X81134782Y-118239002D01*
X81151255Y-118306899D01*
X81128403Y-118372926D01*
X81073482Y-118416117D01*
X81027395Y-118425000D01*
X80902155Y-118425000D01*
X80842619Y-118431402D01*
X80840000Y-118432021D01*
X80837910Y-118431908D01*
X80834913Y-118432231D01*
X80834860Y-118431744D01*
X80770231Y-118428272D01*
X80713564Y-118387399D01*
X80687991Y-118322377D01*
X80687499Y-118311341D01*
X80687499Y-118225028D01*
X80687498Y-118225013D01*
X80677005Y-118122302D01*
X80621858Y-117955880D01*
X80621856Y-117955875D01*
X80529815Y-117806654D01*
X80405845Y-117682684D01*
X80256624Y-117590643D01*
X80256619Y-117590641D01*
X80090197Y-117535494D01*
X80090190Y-117535493D01*
X79987486Y-117525000D01*
X79850000Y-117525000D01*
X79850000Y-118876000D01*
X79830315Y-118943039D01*
X79777511Y-118988794D01*
X79726000Y-119000000D01*
X79474000Y-119000000D01*
X79406961Y-118980315D01*
X79361206Y-118927511D01*
X79350000Y-118876000D01*
X79350000Y-117525000D01*
X79212527Y-117525000D01*
X79212509Y-117525001D01*
X79132383Y-117533187D01*
X79063690Y-117520417D01*
X79032101Y-117497510D01*
X78450803Y-116916212D01*
X78440980Y-116903950D01*
X78440759Y-116904134D01*
X78435785Y-116898122D01*
X78414615Y-116878241D01*
X78379221Y-116817999D01*
X78375500Y-116787850D01*
X78375500Y-114049499D01*
X78395185Y-113982460D01*
X78447989Y-113936705D01*
X78499500Y-113925499D01*
X78947871Y-113925499D01*
X78947872Y-113925499D01*
X79007483Y-113919091D01*
X79142331Y-113868796D01*
X79257546Y-113782546D01*
X79343796Y-113667331D01*
X79350547Y-113649229D01*
X79357285Y-113631166D01*
X79399157Y-113575233D01*
X79464621Y-113550816D01*
X79473467Y-113550500D01*
X81129757Y-113550500D01*
X81145377Y-113552224D01*
X81145404Y-113551939D01*
X81153160Y-113552671D01*
X81153167Y-113552673D01*
X81222314Y-113550500D01*
X81251850Y-113550500D01*
X81258728Y-113549630D01*
X81264541Y-113549172D01*
X81311127Y-113547709D01*
X81330369Y-113542117D01*
X81349412Y-113538174D01*
X81369292Y-113535664D01*
X81412622Y-113518507D01*
X81418146Y-113516617D01*
X81429584Y-113513294D01*
X81462890Y-113503618D01*
X81480129Y-113493422D01*
X81497603Y-113484862D01*
X81516227Y-113477488D01*
X81516227Y-113477487D01*
X81516232Y-113477486D01*
X81553949Y-113450082D01*
X81558805Y-113446892D01*
X81598920Y-113423170D01*
X81613089Y-113408999D01*
X81627879Y-113396368D01*
X81644087Y-113384594D01*
X81673799Y-113348676D01*
X81677712Y-113344376D01*
X82660271Y-112361818D01*
X82721594Y-112328333D01*
X82747952Y-112325499D01*
X83425002Y-112325499D01*
X83425008Y-112325499D01*
X83527797Y-112314999D01*
X83694334Y-112259814D01*
X83843656Y-112167712D01*
X83967712Y-112043656D01*
X84059814Y-111894334D01*
X84114999Y-111727797D01*
X84125500Y-111625009D01*
X84125499Y-110574992D01*
X84117889Y-110500499D01*
X84114999Y-110472203D01*
X84114998Y-110472200D01*
X84101583Y-110431716D01*
X84059814Y-110305666D01*
X83967712Y-110156344D01*
X83919051Y-110107683D01*
X83885566Y-110046360D01*
X83890550Y-109976668D01*
X83901190Y-109954909D01*
X83984814Y-109819334D01*
X84039999Y-109652797D01*
X84050500Y-109550009D01*
X84050499Y-108549992D01*
X84048710Y-108532483D01*
X84039999Y-108447203D01*
X84039998Y-108447200D01*
X84017548Y-108379452D01*
X83984814Y-108280666D01*
X83892712Y-108131344D01*
X83892707Y-108131339D01*
X83889209Y-108126915D01*
X83863066Y-108062121D01*
X83876103Y-107993478D01*
X83889209Y-107973085D01*
X83892703Y-107968664D01*
X83892712Y-107968656D01*
X83984814Y-107819334D01*
X84039999Y-107652797D01*
X84050500Y-107550009D01*
X84050499Y-106549992D01*
X84047920Y-106524749D01*
X84039999Y-106447203D01*
X84039998Y-106447200D01*
X84032642Y-106425000D01*
X83984814Y-106280666D01*
X83892712Y-106131344D01*
X83768656Y-106007288D01*
X83653721Y-105936396D01*
X83619336Y-105915187D01*
X83619331Y-105915185D01*
X83617862Y-105914698D01*
X83452797Y-105860001D01*
X83452795Y-105860000D01*
X83350010Y-105849500D01*
X82549998Y-105849500D01*
X82549980Y-105849501D01*
X82447203Y-105860000D01*
X82447200Y-105860001D01*
X82280668Y-105915185D01*
X82280663Y-105915187D01*
X82131342Y-106007289D01*
X82037681Y-106100951D01*
X81976358Y-106134436D01*
X81906666Y-106129452D01*
X81862319Y-106100951D01*
X81768657Y-106007289D01*
X81768656Y-106007288D01*
X81653721Y-105936396D01*
X81619336Y-105915187D01*
X81619331Y-105915185D01*
X81617862Y-105914698D01*
X81452797Y-105860001D01*
X81452795Y-105860000D01*
X81350010Y-105849500D01*
X80549998Y-105849500D01*
X80549980Y-105849501D01*
X80447203Y-105860000D01*
X80447200Y-105860001D01*
X80280667Y-105915185D01*
X80237810Y-105941619D01*
X80170417Y-105960057D01*
X80103754Y-105939132D01*
X80099831Y-105936396D01*
X80002734Y-105865851D01*
X80002729Y-105865848D01*
X79829807Y-105788857D01*
X79829802Y-105788855D01*
X79684001Y-105757865D01*
X79644646Y-105749500D01*
X79524499Y-105749500D01*
X79457460Y-105729815D01*
X79411705Y-105677011D01*
X79400499Y-105625500D01*
X79400499Y-104877129D01*
X79400498Y-104877123D01*
X79400497Y-104877116D01*
X79394091Y-104817517D01*
X79375919Y-104768796D01*
X79343797Y-104682671D01*
X79343793Y-104682664D01*
X79257547Y-104567455D01*
X79257544Y-104567452D01*
X79142335Y-104481206D01*
X79142328Y-104481202D01*
X79007482Y-104430908D01*
X79007483Y-104430908D01*
X78947883Y-104424501D01*
X78947881Y-104424500D01*
X78947873Y-104424500D01*
X78947865Y-104424500D01*
X76624499Y-104424500D01*
X76557460Y-104404815D01*
X76511705Y-104352011D01*
X76500499Y-104300504D01*
X76500499Y-101977128D01*
X76494091Y-101917517D01*
X76478239Y-101875016D01*
X76443797Y-101782671D01*
X76443793Y-101782664D01*
X76357547Y-101667455D01*
X76357544Y-101667452D01*
X76242335Y-101581206D01*
X76242328Y-101581202D01*
X76107482Y-101530908D01*
X76107483Y-101530908D01*
X76047883Y-101524501D01*
X76047881Y-101524500D01*
X76047873Y-101524500D01*
X76047865Y-101524500D01*
X74999500Y-101524500D01*
X74932461Y-101504815D01*
X74886706Y-101452011D01*
X74875500Y-101400500D01*
X74875500Y-98117763D01*
X80208287Y-98117763D01*
X80237913Y-98387013D01*
X80237915Y-98387024D01*
X80299102Y-98621067D01*
X80306428Y-98649088D01*
X80412370Y-98898390D01*
X80506631Y-99052842D01*
X80553479Y-99129605D01*
X80553486Y-99129615D01*
X80726753Y-99337819D01*
X80726759Y-99337824D01*
X80796152Y-99400000D01*
X80928498Y-99518582D01*
X81154410Y-99668044D01*
X81399676Y-99783020D01*
X81399683Y-99783022D01*
X81399685Y-99783023D01*
X81659057Y-99861057D01*
X81659064Y-99861058D01*
X81659069Y-99861060D01*
X81927061Y-99900500D01*
X81927066Y-99900500D01*
X82130136Y-99900500D01*
X82181633Y-99896730D01*
X82332656Y-99885677D01*
X82492730Y-99850019D01*
X82597046Y-99826782D01*
X82597048Y-99826781D01*
X82597053Y-99826780D01*
X82850058Y-99730014D01*
X83086277Y-99597441D01*
X83300677Y-99431888D01*
X83488686Y-99236881D01*
X83646299Y-99016579D01*
X83740342Y-98833664D01*
X83770149Y-98775690D01*
X83770151Y-98775684D01*
X83770156Y-98775675D01*
X83857618Y-98519305D01*
X83906819Y-98252933D01*
X83916712Y-97982235D01*
X83887086Y-97712982D01*
X83818572Y-97450912D01*
X83712630Y-97201610D01*
X83571518Y-96970390D01*
X83482247Y-96863119D01*
X83398246Y-96762180D01*
X83398240Y-96762175D01*
X83196502Y-96581418D01*
X82970592Y-96431957D01*
X82916616Y-96406654D01*
X82725324Y-96316980D01*
X82725319Y-96316978D01*
X82725314Y-96316976D01*
X82465942Y-96238942D01*
X82465928Y-96238939D01*
X82350291Y-96221921D01*
X82197939Y-96199500D01*
X81994869Y-96199500D01*
X81994864Y-96199500D01*
X81792344Y-96214323D01*
X81792331Y-96214325D01*
X81527953Y-96273217D01*
X81527946Y-96273220D01*
X81274939Y-96369987D01*
X81038726Y-96502557D01*
X81038724Y-96502558D01*
X81038723Y-96502559D01*
X81009033Y-96525485D01*
X80824322Y-96668112D01*
X80636322Y-96863109D01*
X80636316Y-96863116D01*
X80478702Y-97083419D01*
X80478699Y-97083424D01*
X80354850Y-97324309D01*
X80354843Y-97324327D01*
X80267384Y-97580685D01*
X80267381Y-97580699D01*
X80218181Y-97847068D01*
X80218180Y-97847075D01*
X80208287Y-98117763D01*
X74875500Y-98117763D01*
X74875500Y-97570055D01*
X74895185Y-97503016D01*
X74926615Y-97469736D01*
X74952842Y-97450682D01*
X75079504Y-97310010D01*
X75174150Y-97146078D01*
X75232645Y-96966050D01*
X75252431Y-96777794D01*
X75232645Y-96589538D01*
X75174150Y-96409510D01*
X75165336Y-96394244D01*
X75148863Y-96326347D01*
X75171714Y-96260319D01*
X75173433Y-96257964D01*
X75190734Y-96234854D01*
X75246667Y-96192984D01*
X75316359Y-96188000D01*
X75377682Y-96221485D01*
X75389263Y-96234850D01*
X75432454Y-96292546D01*
X75461029Y-96313937D01*
X75547664Y-96378793D01*
X75547671Y-96378797D01*
X75682517Y-96429091D01*
X75682516Y-96429091D01*
X75689444Y-96429835D01*
X75742127Y-96435500D01*
X76837872Y-96435499D01*
X76897483Y-96429091D01*
X77032331Y-96378796D01*
X77147546Y-96292546D01*
X77233796Y-96177331D01*
X77284091Y-96042483D01*
X77290500Y-95982873D01*
X77290499Y-91887128D01*
X77284091Y-91827517D01*
X77266330Y-91779898D01*
X77233797Y-91692671D01*
X77233795Y-91692668D01*
X77203003Y-91651535D01*
X77200589Y-91648311D01*
X77176172Y-91582848D01*
X77191023Y-91514575D01*
X77240428Y-91465169D01*
X77299856Y-91450000D01*
X84356789Y-91450000D01*
X84548287Y-91450392D01*
G37*
%TD.AperFunction*%
%TA.AperFunction,Conductor*%
G36*
X76408001Y-117945185D02*
G01*
X76453756Y-117997989D01*
X76463700Y-118067147D01*
X76458668Y-118088504D01*
X76447501Y-118122203D01*
X76447500Y-118122204D01*
X76437000Y-118224983D01*
X76437000Y-118651000D01*
X76417315Y-118718039D01*
X76364511Y-118763794D01*
X76313000Y-118775000D01*
X75799500Y-118775000D01*
X75732461Y-118755315D01*
X75686706Y-118702511D01*
X75675500Y-118651000D01*
X75675499Y-118049500D01*
X75695183Y-117982461D01*
X75747987Y-117936706D01*
X75799499Y-117925500D01*
X76340962Y-117925500D01*
X76408001Y-117945185D01*
G37*
%TD.AperFunction*%
%TA.AperFunction,Conductor*%
G36*
X76018834Y-106957913D02*
G01*
X76074767Y-106999785D01*
X76099184Y-107065249D01*
X76099500Y-107074094D01*
X76099500Y-107222869D01*
X76099501Y-107222879D01*
X76106367Y-107286751D01*
X76106367Y-107313257D01*
X76105909Y-107317516D01*
X76105909Y-107317517D01*
X76099500Y-107377127D01*
X76099500Y-107377132D01*
X76099500Y-108175500D01*
X76079815Y-108242539D01*
X76027011Y-108288294D01*
X75975500Y-108299500D01*
X75805354Y-108299500D01*
X75791259Y-108302496D01*
X75620197Y-108338855D01*
X75620192Y-108338857D01*
X75447270Y-108415848D01*
X75447265Y-108415851D01*
X75294129Y-108527111D01*
X75167466Y-108667785D01*
X75072821Y-108831715D01*
X75072818Y-108831722D01*
X75014327Y-109011740D01*
X75014326Y-109011744D01*
X74994540Y-109200000D01*
X75014326Y-109388256D01*
X75014327Y-109388259D01*
X75072818Y-109568277D01*
X75072821Y-109568284D01*
X75170716Y-109737844D01*
X75168150Y-109739325D01*
X75187250Y-109793098D01*
X75171327Y-109861129D01*
X75170680Y-109862135D01*
X75170716Y-109862156D01*
X75072821Y-110031715D01*
X75072818Y-110031722D01*
X75014521Y-110211144D01*
X75014326Y-110211744D01*
X74994540Y-110400000D01*
X75014326Y-110588256D01*
X75014327Y-110588259D01*
X75072818Y-110768277D01*
X75072821Y-110768284D01*
X75167467Y-110932216D01*
X75285455Y-111063255D01*
X75294129Y-111072888D01*
X75447265Y-111184148D01*
X75447270Y-111184151D01*
X75620192Y-111261142D01*
X75620197Y-111261144D01*
X75805354Y-111300500D01*
X75805355Y-111300500D01*
X75976000Y-111300500D01*
X76043039Y-111320185D01*
X76088794Y-111372989D01*
X76100000Y-111424500D01*
X76100000Y-111425000D01*
X76544155Y-111425000D01*
X76550786Y-111425355D01*
X76552127Y-111425500D01*
X78947872Y-111425499D01*
X78947878Y-111425498D01*
X78947882Y-111425498D01*
X78949207Y-111425356D01*
X78955841Y-111425000D01*
X79400000Y-111425000D01*
X79400000Y-111127172D01*
X79399999Y-111127160D01*
X79393380Y-111065604D01*
X79393380Y-111039089D01*
X79394089Y-111032485D01*
X79394091Y-111032483D01*
X79400500Y-110972873D01*
X79400499Y-109877128D01*
X79394091Y-109817517D01*
X79394089Y-109817513D01*
X79393632Y-109813255D01*
X79393632Y-109786745D01*
X79394089Y-109782486D01*
X79394091Y-109782483D01*
X79400500Y-109722873D01*
X79400499Y-109284449D01*
X79420183Y-109217412D01*
X79472987Y-109171657D01*
X79542146Y-109161713D01*
X79605702Y-109190738D01*
X79612173Y-109196763D01*
X79765409Y-109350000D01*
X79813181Y-109397772D01*
X79846666Y-109459095D01*
X79849500Y-109485451D01*
X79849500Y-109550000D01*
X79849501Y-109550019D01*
X79860000Y-109652796D01*
X79860001Y-109652799D01*
X79915185Y-109819331D01*
X79915187Y-109819336D01*
X79931868Y-109846380D01*
X80005283Y-109965406D01*
X80007289Y-109968657D01*
X80026452Y-109987820D01*
X80059937Y-110049143D01*
X80054953Y-110118835D01*
X80036046Y-110152401D01*
X80032687Y-110156648D01*
X79940643Y-110305875D01*
X79940641Y-110305880D01*
X79885494Y-110472302D01*
X79885493Y-110472309D01*
X79875000Y-110575013D01*
X79875000Y-110850000D01*
X81088500Y-110850000D01*
X81155539Y-110869685D01*
X81201294Y-110922489D01*
X81212500Y-110974000D01*
X81212500Y-111226000D01*
X81192815Y-111293039D01*
X81140011Y-111338794D01*
X81088500Y-111350000D01*
X79875001Y-111350000D01*
X79875001Y-111624986D01*
X79885494Y-111727697D01*
X79940641Y-111894119D01*
X79940643Y-111894124D01*
X80032684Y-112043345D01*
X80077158Y-112087819D01*
X80110643Y-112149142D01*
X80105659Y-112218834D01*
X80063787Y-112274767D01*
X79998323Y-112299184D01*
X79989477Y-112299500D01*
X79524000Y-112299500D01*
X79456961Y-112279815D01*
X79411206Y-112227011D01*
X79400000Y-112175500D01*
X79400000Y-111925000D01*
X78955845Y-111925000D01*
X78949213Y-111924644D01*
X78947873Y-111924500D01*
X78947871Y-111924500D01*
X76552129Y-111924500D01*
X76552117Y-111924501D01*
X76550793Y-111924644D01*
X76544159Y-111925000D01*
X76100000Y-111925000D01*
X76100000Y-112222844D01*
X76106619Y-112284398D01*
X76106620Y-112310909D01*
X76105909Y-112317514D01*
X76105909Y-112317517D01*
X76099500Y-112377127D01*
X76099500Y-112377132D01*
X76099500Y-112377135D01*
X76099500Y-113400500D01*
X76079815Y-113467539D01*
X76027011Y-113513294D01*
X75975500Y-113524500D01*
X74952129Y-113524500D01*
X74952120Y-113524501D01*
X74888248Y-113531367D01*
X74861742Y-113531367D01*
X74857483Y-113530909D01*
X74797873Y-113524500D01*
X74797865Y-113524500D01*
X73702129Y-113524500D01*
X73702120Y-113524501D01*
X73638248Y-113531367D01*
X73611742Y-113531367D01*
X73607483Y-113530909D01*
X73547873Y-113524500D01*
X73547867Y-113524500D01*
X73435453Y-113524500D01*
X73368414Y-113504815D01*
X73347772Y-113488181D01*
X72725803Y-112866212D01*
X72715980Y-112853950D01*
X72715759Y-112854134D01*
X72710786Y-112848123D01*
X72700917Y-112838855D01*
X72660364Y-112800773D01*
X72649919Y-112790328D01*
X72639475Y-112779883D01*
X72633986Y-112775625D01*
X72629561Y-112771847D01*
X72595582Y-112739938D01*
X72595580Y-112739936D01*
X72595577Y-112739935D01*
X72578029Y-112730288D01*
X72561763Y-112719604D01*
X72545933Y-112707325D01*
X72503168Y-112688818D01*
X72497922Y-112686248D01*
X72457093Y-112663803D01*
X72457092Y-112663802D01*
X72437693Y-112658822D01*
X72419281Y-112652518D01*
X72400898Y-112644562D01*
X72400892Y-112644560D01*
X72354874Y-112637272D01*
X72349152Y-112636087D01*
X72304021Y-112624500D01*
X72304019Y-112624500D01*
X72283984Y-112624500D01*
X72264586Y-112622973D01*
X72257162Y-112621797D01*
X72244805Y-112619840D01*
X72244804Y-112619840D01*
X72198416Y-112624225D01*
X72192578Y-112624500D01*
X71269580Y-112624500D01*
X71202541Y-112604815D01*
X71156786Y-112552011D01*
X71146259Y-112487540D01*
X71155460Y-112400000D01*
X71155460Y-112399996D01*
X71155460Y-112395136D01*
X71175145Y-112328097D01*
X71191779Y-112307455D01*
X71467519Y-112031715D01*
X71743914Y-111755319D01*
X71749999Y-111749983D01*
X71778282Y-111728282D01*
X71874536Y-111602841D01*
X71935044Y-111456762D01*
X71950500Y-111339361D01*
X71955682Y-111300000D01*
X71951030Y-111264669D01*
X71950500Y-111256571D01*
X71950500Y-110975096D01*
X71970185Y-110908057D01*
X71986814Y-110887420D01*
X75887821Y-106986412D01*
X75949142Y-106952929D01*
X76018834Y-106957913D01*
G37*
%TD.AperFunction*%
%TA.AperFunction,Conductor*%
G36*
X67974935Y-100263164D02*
G01*
X68082697Y-100311144D01*
X68151284Y-100325722D01*
X68212762Y-100358912D01*
X68246539Y-100420075D01*
X68249500Y-100447011D01*
X68249500Y-100850001D01*
X68249501Y-100850019D01*
X68260000Y-100952796D01*
X68260001Y-100952799D01*
X68315185Y-101119331D01*
X68315187Y-101119336D01*
X68407289Y-101268657D01*
X68451951Y-101313319D01*
X68485436Y-101374642D01*
X68480452Y-101444334D01*
X68438580Y-101500267D01*
X68373116Y-101524684D01*
X68364270Y-101525000D01*
X68250000Y-101525000D01*
X68250000Y-101969146D01*
X68249645Y-101975777D01*
X68249500Y-101977122D01*
X68249500Y-104372863D01*
X68249501Y-104372880D01*
X68249644Y-104374202D01*
X68250000Y-104380835D01*
X68250000Y-104825000D01*
X68525500Y-104825000D01*
X68592539Y-104844685D01*
X68638294Y-104897489D01*
X68649500Y-104949000D01*
X68649500Y-105273547D01*
X68629815Y-105340586D01*
X68617650Y-105356519D01*
X68517466Y-105467785D01*
X68422821Y-105631715D01*
X68422818Y-105631722D01*
X68371762Y-105788857D01*
X68364326Y-105811744D01*
X68344540Y-106000000D01*
X68364326Y-106188256D01*
X68364327Y-106188259D01*
X68422818Y-106368277D01*
X68422821Y-106368284D01*
X68517467Y-106532216D01*
X68549518Y-106567812D01*
X68644129Y-106672888D01*
X68797265Y-106784148D01*
X68797270Y-106784151D01*
X68970192Y-106861142D01*
X68970197Y-106861144D01*
X69155354Y-106900500D01*
X69155355Y-106900500D01*
X69344644Y-106900500D01*
X69344646Y-106900500D01*
X69529803Y-106861144D01*
X69702730Y-106784151D01*
X69855871Y-106672888D01*
X69982533Y-106532216D01*
X70077179Y-106368284D01*
X70135674Y-106188256D01*
X70142426Y-106124004D01*
X70169010Y-106059392D01*
X70226308Y-106019407D01*
X70291528Y-106015678D01*
X70455354Y-106050500D01*
X70455355Y-106050500D01*
X70644644Y-106050500D01*
X70644646Y-106050500D01*
X70829803Y-106011144D01*
X71002730Y-105934151D01*
X71155871Y-105822888D01*
X71282533Y-105682216D01*
X71377179Y-105518284D01*
X71435674Y-105338256D01*
X71455460Y-105150000D01*
X71435749Y-104962459D01*
X71448319Y-104893730D01*
X71496051Y-104842707D01*
X71559070Y-104825499D01*
X72297871Y-104825499D01*
X72297872Y-104825499D01*
X72357483Y-104819091D01*
X72357487Y-104819089D01*
X72361743Y-104818632D01*
X72388253Y-104818632D01*
X72392514Y-104819090D01*
X72392517Y-104819091D01*
X72452127Y-104825500D01*
X73547872Y-104825499D01*
X73607483Y-104819091D01*
X73607487Y-104819089D01*
X73611743Y-104818632D01*
X73638253Y-104818632D01*
X73642514Y-104819090D01*
X73642517Y-104819091D01*
X73702127Y-104825500D01*
X74775500Y-104825499D01*
X74842539Y-104845183D01*
X74888294Y-104897987D01*
X74899500Y-104949499D01*
X74899500Y-105649903D01*
X74879815Y-105716942D01*
X74863181Y-105737584D01*
X70737584Y-109863181D01*
X70676261Y-109896666D01*
X70649903Y-109899500D01*
X70555354Y-109899500D01*
X70545371Y-109901622D01*
X70370197Y-109938855D01*
X70370192Y-109938857D01*
X70197270Y-110015848D01*
X70197265Y-110015851D01*
X70044129Y-110127111D01*
X69917466Y-110267785D01*
X69822821Y-110431715D01*
X69822818Y-110431722D01*
X69764327Y-110611740D01*
X69764326Y-110611744D01*
X69744540Y-110800000D01*
X69764326Y-110988256D01*
X69764327Y-110988259D01*
X69822818Y-111168277D01*
X69822821Y-111168284D01*
X69917467Y-111332216D01*
X69933142Y-111349625D01*
X69951171Y-111369649D01*
X69981400Y-111432641D01*
X69972774Y-111501976D01*
X69928032Y-111555641D01*
X69909457Y-111565899D01*
X69797267Y-111615850D01*
X69797265Y-111615851D01*
X69644129Y-111727111D01*
X69517466Y-111867785D01*
X69422821Y-112031715D01*
X69422818Y-112031722D01*
X69376102Y-112175500D01*
X69364326Y-112211744D01*
X69344540Y-112400000D01*
X69353740Y-112487540D01*
X69341172Y-112556268D01*
X69293439Y-112607292D01*
X69230420Y-112624500D01*
X68803748Y-112624500D01*
X68736709Y-112604815D01*
X68711600Y-112583474D01*
X68705873Y-112577114D01*
X68705869Y-112577110D01*
X68552734Y-112465851D01*
X68552729Y-112465848D01*
X68379807Y-112388857D01*
X68379802Y-112388855D01*
X68234001Y-112357865D01*
X68194646Y-112349500D01*
X68005354Y-112349500D01*
X68005349Y-112349500D01*
X68000276Y-112350578D01*
X67930609Y-112345259D01*
X67874877Y-112303120D01*
X67850775Y-112237539D01*
X67850500Y-112229287D01*
X67850500Y-112082737D01*
X67852224Y-112067123D01*
X67851938Y-112067096D01*
X67852672Y-112059333D01*
X67852179Y-112043657D01*
X67850500Y-111990202D01*
X67850500Y-111960650D01*
X67849629Y-111953759D01*
X67849172Y-111947945D01*
X67848435Y-111924500D01*
X67847709Y-111901372D01*
X67842120Y-111882137D01*
X67838174Y-111863084D01*
X67835664Y-111843208D01*
X67818501Y-111799859D01*
X67816614Y-111794346D01*
X67803617Y-111749610D01*
X67803616Y-111749608D01*
X67793421Y-111732369D01*
X67784860Y-111714893D01*
X67783308Y-111710975D01*
X67777486Y-111696268D01*
X67777486Y-111696267D01*
X67767474Y-111682488D01*
X67750083Y-111658550D01*
X67746900Y-111653705D01*
X67723170Y-111613579D01*
X67723165Y-111613573D01*
X67709005Y-111599413D01*
X67696370Y-111584620D01*
X67684593Y-111568412D01*
X67648693Y-111538713D01*
X67644381Y-111534790D01*
X67436818Y-111327227D01*
X67403333Y-111265904D01*
X67400499Y-111239546D01*
X67400499Y-111127129D01*
X67400499Y-111127128D01*
X67394091Y-111067517D01*
X67394089Y-111067513D01*
X67393632Y-111063255D01*
X67393633Y-111036745D01*
X67395005Y-111023975D01*
X67400500Y-110972873D01*
X67400499Y-109877128D01*
X67394091Y-109817517D01*
X67394089Y-109817513D01*
X67393632Y-109813255D01*
X67393633Y-109786745D01*
X67395684Y-109767668D01*
X67400500Y-109722873D01*
X67400499Y-108627128D01*
X67394091Y-108567517D01*
X67394089Y-108567513D01*
X67393632Y-108563255D01*
X67393632Y-108536745D01*
X67394089Y-108532486D01*
X67394091Y-108532483D01*
X67400500Y-108472873D01*
X67400499Y-108360450D01*
X67420183Y-108293412D01*
X67436813Y-108272775D01*
X67608785Y-108100803D01*
X67621046Y-108090983D01*
X67620862Y-108090761D01*
X67626870Y-108085790D01*
X67626877Y-108085786D01*
X67674227Y-108035363D01*
X67695120Y-108014471D01*
X67699379Y-108008978D01*
X67703152Y-108004561D01*
X67735062Y-107970582D01*
X67744713Y-107953024D01*
X67755396Y-107936761D01*
X67767673Y-107920936D01*
X67786185Y-107878153D01*
X67788738Y-107872941D01*
X67811197Y-107832092D01*
X67816180Y-107812680D01*
X67822481Y-107794280D01*
X67830437Y-107775896D01*
X67837729Y-107729852D01*
X67838906Y-107724171D01*
X67850500Y-107679019D01*
X67850500Y-107658983D01*
X67852027Y-107639582D01*
X67855160Y-107619804D01*
X67850775Y-107573415D01*
X67850500Y-107567577D01*
X67850500Y-104607742D01*
X67852224Y-104592122D01*
X67851939Y-104592095D01*
X67852673Y-104584333D01*
X67850500Y-104515172D01*
X67850500Y-104485656D01*
X67850500Y-104485650D01*
X67849631Y-104478779D01*
X67849173Y-104472952D01*
X67847710Y-104426373D01*
X67842119Y-104407130D01*
X67838173Y-104388078D01*
X67835664Y-104368208D01*
X67818504Y-104324867D01*
X67816616Y-104319351D01*
X67816397Y-104318598D01*
X67805422Y-104280821D01*
X67800500Y-104246231D01*
X67800500Y-100376444D01*
X67820185Y-100309405D01*
X67872989Y-100263650D01*
X67942147Y-100253706D01*
X67974935Y-100263164D01*
G37*
%TD.AperFunction*%
%TA.AperFunction,Conductor*%
G36*
X62979156Y-102260236D02*
G01*
X63005243Y-102290341D01*
X63007288Y-102293656D01*
X63131344Y-102417712D01*
X63278097Y-102508229D01*
X63324821Y-102560175D01*
X63337000Y-102613767D01*
X63337000Y-103569071D01*
X63336469Y-103577173D01*
X63331818Y-103612499D01*
X63331818Y-103612500D01*
X63337000Y-103651860D01*
X63352455Y-103769260D01*
X63352456Y-103769262D01*
X63412964Y-103915341D01*
X63509218Y-104040782D01*
X63537495Y-104062480D01*
X63543585Y-104067820D01*
X63827776Y-104352011D01*
X64100460Y-104624695D01*
X64133945Y-104686018D01*
X64128961Y-104755708D01*
X64105909Y-104817514D01*
X64105908Y-104817516D01*
X64102934Y-104845183D01*
X64099501Y-104877123D01*
X64099500Y-104877135D01*
X64099500Y-105972870D01*
X64099501Y-105972876D01*
X64106619Y-106039092D01*
X64106619Y-106065599D01*
X64100000Y-106127169D01*
X64100000Y-106425000D01*
X64544155Y-106425000D01*
X64550786Y-106425355D01*
X64552127Y-106425500D01*
X65876001Y-106425499D01*
X65943039Y-106445184D01*
X65988794Y-106497987D01*
X66000000Y-106549499D01*
X66000000Y-106800500D01*
X65980315Y-106867539D01*
X65927511Y-106913294D01*
X65876000Y-106924500D01*
X64552129Y-106924500D01*
X64552116Y-106924501D01*
X64550793Y-106924644D01*
X64544159Y-106925000D01*
X64100000Y-106925000D01*
X64100000Y-107175500D01*
X64080315Y-107242539D01*
X64027511Y-107288294D01*
X63976000Y-107299500D01*
X62199499Y-107299500D01*
X62132460Y-107279815D01*
X62086705Y-107227011D01*
X62075499Y-107175500D01*
X62075499Y-106877129D01*
X62075498Y-106877123D01*
X62075497Y-106877116D01*
X62069091Y-106817517D01*
X62056646Y-106784151D01*
X62018797Y-106682671D01*
X62018793Y-106682664D01*
X61932548Y-106567457D01*
X61932546Y-106567454D01*
X61932542Y-106567451D01*
X61932540Y-106567449D01*
X61925187Y-106561944D01*
X61883317Y-106506009D01*
X61875500Y-106462679D01*
X61875500Y-104287320D01*
X61895185Y-104220281D01*
X61925192Y-104188051D01*
X61932546Y-104182546D01*
X62018796Y-104067331D01*
X62069091Y-103932483D01*
X62075500Y-103872873D01*
X62075499Y-102727128D01*
X62073900Y-102712252D01*
X62086307Y-102643493D01*
X62133918Y-102592356D01*
X62197190Y-102574999D01*
X62249972Y-102574999D01*
X62249986Y-102574998D01*
X62352697Y-102564505D01*
X62519119Y-102509358D01*
X62519124Y-102509356D01*
X62668345Y-102417315D01*
X62792318Y-102293342D01*
X62794165Y-102290348D01*
X62795969Y-102288724D01*
X62796798Y-102287677D01*
X62796976Y-102287818D01*
X62846110Y-102243621D01*
X62915073Y-102232396D01*
X62979156Y-102260236D01*
G37*
%TD.AperFunction*%
%TD*%
M02*
