%TF.GenerationSoftware,KiCad,Pcbnew,7.0.8-7.0.8~ubuntu22.04.1*%
%TF.CreationDate,2023-10-22T09:32:13-04:00*%
%TF.ProjectId,DDRN_Hardware,4444524e-5f48-4617-9264-776172652e6b,rev?*%
%TF.SameCoordinates,Original*%
%TF.FileFunction,Legend,Top*%
%TF.FilePolarity,Positive*%
%FSLAX46Y46*%
G04 Gerber Fmt 4.6, Leading zero omitted, Abs format (unit mm)*
G04 Created by KiCad (PCBNEW 7.0.8-7.0.8~ubuntu22.04.1) date 2023-10-22 09:32:13*
%MOMM*%
%LPD*%
G01*
G04 APERTURE LIST*
%ADD10C,0.150000*%
%ADD11C,0.100000*%
%ADD12C,0.080000*%
%ADD13C,0.127000*%
%ADD14C,0.200000*%
%ADD15C,0.120000*%
G04 APERTURE END LIST*
D10*
X78300595Y-114904819D02*
X78300595Y-115714342D01*
X78300595Y-115714342D02*
X78348214Y-115809580D01*
X78348214Y-115809580D02*
X78395833Y-115857200D01*
X78395833Y-115857200D02*
X78491071Y-115904819D01*
X78491071Y-115904819D02*
X78681547Y-115904819D01*
X78681547Y-115904819D02*
X78776785Y-115857200D01*
X78776785Y-115857200D02*
X78824404Y-115809580D01*
X78824404Y-115809580D02*
X78872023Y-115714342D01*
X78872023Y-115714342D02*
X78872023Y-114904819D01*
X79872023Y-115904819D02*
X79300595Y-115904819D01*
X79586309Y-115904819D02*
X79586309Y-114904819D01*
X79586309Y-114904819D02*
X79491071Y-115047676D01*
X79491071Y-115047676D02*
X79395833Y-115142914D01*
X79395833Y-115142914D02*
X79300595Y-115190533D01*
D11*
X61105080Y-121788095D02*
X60295557Y-121788095D01*
X60295557Y-121788095D02*
X60200319Y-121835714D01*
X60200319Y-121835714D02*
X60152700Y-121883333D01*
X60152700Y-121883333D02*
X60105080Y-121978571D01*
X60105080Y-121978571D02*
X60105080Y-122169047D01*
X60105080Y-122169047D02*
X60152700Y-122264285D01*
X60152700Y-122264285D02*
X60200319Y-122311904D01*
X60200319Y-122311904D02*
X60295557Y-122359523D01*
X60295557Y-122359523D02*
X61105080Y-122359523D01*
X61009842Y-122788095D02*
X61057461Y-122835714D01*
X61057461Y-122835714D02*
X61105080Y-122930952D01*
X61105080Y-122930952D02*
X61105080Y-123169047D01*
X61105080Y-123169047D02*
X61057461Y-123264285D01*
X61057461Y-123264285D02*
X61009842Y-123311904D01*
X61009842Y-123311904D02*
X60914604Y-123359523D01*
X60914604Y-123359523D02*
X60819366Y-123359523D01*
X60819366Y-123359523D02*
X60676509Y-123311904D01*
X60676509Y-123311904D02*
X60105080Y-122740476D01*
X60105080Y-122740476D02*
X60105080Y-123359523D01*
D10*
X71910776Y-121537619D02*
X72428871Y-121537619D01*
X72428871Y-121537619D02*
X72489823Y-121507142D01*
X72489823Y-121507142D02*
X72520300Y-121476666D01*
X72520300Y-121476666D02*
X72550776Y-121415714D01*
X72550776Y-121415714D02*
X72550776Y-121293809D01*
X72550776Y-121293809D02*
X72520300Y-121232857D01*
X72520300Y-121232857D02*
X72489823Y-121202380D01*
X72489823Y-121202380D02*
X72428871Y-121171904D01*
X72428871Y-121171904D02*
X71910776Y-121171904D01*
X71910776Y-120562381D02*
X71910776Y-120867143D01*
X71910776Y-120867143D02*
X72215538Y-120897619D01*
X72215538Y-120897619D02*
X72185061Y-120867143D01*
X72185061Y-120867143D02*
X72154585Y-120806190D01*
X72154585Y-120806190D02*
X72154585Y-120653809D01*
X72154585Y-120653809D02*
X72185061Y-120592857D01*
X72185061Y-120592857D02*
X72215538Y-120562381D01*
X72215538Y-120562381D02*
X72276490Y-120531904D01*
X72276490Y-120531904D02*
X72428871Y-120531904D01*
X72428871Y-120531904D02*
X72489823Y-120562381D01*
X72489823Y-120562381D02*
X72520300Y-120592857D01*
X72520300Y-120592857D02*
X72550776Y-120653809D01*
X72550776Y-120653809D02*
X72550776Y-120806190D01*
X72550776Y-120806190D02*
X72520300Y-120867143D01*
X72520300Y-120867143D02*
X72489823Y-120897619D01*
X63995833Y-131904819D02*
X63662500Y-131428628D01*
X63424405Y-131904819D02*
X63424405Y-130904819D01*
X63424405Y-130904819D02*
X63805357Y-130904819D01*
X63805357Y-130904819D02*
X63900595Y-130952438D01*
X63900595Y-130952438D02*
X63948214Y-131000057D01*
X63948214Y-131000057D02*
X63995833Y-131095295D01*
X63995833Y-131095295D02*
X63995833Y-131238152D01*
X63995833Y-131238152D02*
X63948214Y-131333390D01*
X63948214Y-131333390D02*
X63900595Y-131381009D01*
X63900595Y-131381009D02*
X63805357Y-131428628D01*
X63805357Y-131428628D02*
X63424405Y-131428628D01*
X64948214Y-131904819D02*
X64376786Y-131904819D01*
X64662500Y-131904819D02*
X64662500Y-130904819D01*
X64662500Y-130904819D02*
X64567262Y-131047676D01*
X64567262Y-131047676D02*
X64472024Y-131142914D01*
X64472024Y-131142914D02*
X64376786Y-131190533D01*
X56119642Y-109704819D02*
X55786309Y-109228628D01*
X55548214Y-109704819D02*
X55548214Y-108704819D01*
X55548214Y-108704819D02*
X55929166Y-108704819D01*
X55929166Y-108704819D02*
X56024404Y-108752438D01*
X56024404Y-108752438D02*
X56072023Y-108800057D01*
X56072023Y-108800057D02*
X56119642Y-108895295D01*
X56119642Y-108895295D02*
X56119642Y-109038152D01*
X56119642Y-109038152D02*
X56072023Y-109133390D01*
X56072023Y-109133390D02*
X56024404Y-109181009D01*
X56024404Y-109181009D02*
X55929166Y-109228628D01*
X55929166Y-109228628D02*
X55548214Y-109228628D01*
X57072023Y-109704819D02*
X56500595Y-109704819D01*
X56786309Y-109704819D02*
X56786309Y-108704819D01*
X56786309Y-108704819D02*
X56691071Y-108847676D01*
X56691071Y-108847676D02*
X56595833Y-108942914D01*
X56595833Y-108942914D02*
X56500595Y-108990533D01*
X57929166Y-109038152D02*
X57929166Y-109704819D01*
X57691071Y-108657200D02*
X57452976Y-109371485D01*
X57452976Y-109371485D02*
X58072023Y-109371485D01*
X66319642Y-99904819D02*
X65986309Y-99428628D01*
X65748214Y-99904819D02*
X65748214Y-98904819D01*
X65748214Y-98904819D02*
X66129166Y-98904819D01*
X66129166Y-98904819D02*
X66224404Y-98952438D01*
X66224404Y-98952438D02*
X66272023Y-99000057D01*
X66272023Y-99000057D02*
X66319642Y-99095295D01*
X66319642Y-99095295D02*
X66319642Y-99238152D01*
X66319642Y-99238152D02*
X66272023Y-99333390D01*
X66272023Y-99333390D02*
X66224404Y-99381009D01*
X66224404Y-99381009D02*
X66129166Y-99428628D01*
X66129166Y-99428628D02*
X65748214Y-99428628D01*
X67272023Y-99904819D02*
X66700595Y-99904819D01*
X66986309Y-99904819D02*
X66986309Y-98904819D01*
X66986309Y-98904819D02*
X66891071Y-99047676D01*
X66891071Y-99047676D02*
X66795833Y-99142914D01*
X66795833Y-99142914D02*
X66700595Y-99190533D01*
X68176785Y-98904819D02*
X67700595Y-98904819D01*
X67700595Y-98904819D02*
X67652976Y-99381009D01*
X67652976Y-99381009D02*
X67700595Y-99333390D01*
X67700595Y-99333390D02*
X67795833Y-99285771D01*
X67795833Y-99285771D02*
X68033928Y-99285771D01*
X68033928Y-99285771D02*
X68129166Y-99333390D01*
X68129166Y-99333390D02*
X68176785Y-99381009D01*
X68176785Y-99381009D02*
X68224404Y-99476247D01*
X68224404Y-99476247D02*
X68224404Y-99714342D01*
X68224404Y-99714342D02*
X68176785Y-99809580D01*
X68176785Y-99809580D02*
X68129166Y-99857200D01*
X68129166Y-99857200D02*
X68033928Y-99904819D01*
X68033928Y-99904819D02*
X67795833Y-99904819D01*
X67795833Y-99904819D02*
X67700595Y-99857200D01*
X67700595Y-99857200D02*
X67652976Y-99809580D01*
X82617319Y-126816666D02*
X82141128Y-127149999D01*
X82617319Y-127388094D02*
X81617319Y-127388094D01*
X81617319Y-127388094D02*
X81617319Y-127007142D01*
X81617319Y-127007142D02*
X81664938Y-126911904D01*
X81664938Y-126911904D02*
X81712557Y-126864285D01*
X81712557Y-126864285D02*
X81807795Y-126816666D01*
X81807795Y-126816666D02*
X81950652Y-126816666D01*
X81950652Y-126816666D02*
X82045890Y-126864285D01*
X82045890Y-126864285D02*
X82093509Y-126911904D01*
X82093509Y-126911904D02*
X82141128Y-127007142D01*
X82141128Y-127007142D02*
X82141128Y-127388094D01*
X81617319Y-126483332D02*
X81617319Y-125816666D01*
X81617319Y-125816666D02*
X82617319Y-126245237D01*
D12*
X84418690Y-117673878D02*
X84418690Y-117932925D01*
X84418690Y-117932925D02*
X84433928Y-117963401D01*
X84433928Y-117963401D02*
X84449166Y-117978640D01*
X84449166Y-117978640D02*
X84479642Y-117993878D01*
X84479642Y-117993878D02*
X84540595Y-117993878D01*
X84540595Y-117993878D02*
X84571071Y-117978640D01*
X84571071Y-117978640D02*
X84586309Y-117963401D01*
X84586309Y-117963401D02*
X84601547Y-117932925D01*
X84601547Y-117932925D02*
X84601547Y-117673878D01*
X84723452Y-117673878D02*
X84921547Y-117673878D01*
X84921547Y-117673878D02*
X84814880Y-117795782D01*
X84814880Y-117795782D02*
X84860595Y-117795782D01*
X84860595Y-117795782D02*
X84891071Y-117811020D01*
X84891071Y-117811020D02*
X84906309Y-117826259D01*
X84906309Y-117826259D02*
X84921547Y-117856735D01*
X84921547Y-117856735D02*
X84921547Y-117932925D01*
X84921547Y-117932925D02*
X84906309Y-117963401D01*
X84906309Y-117963401D02*
X84891071Y-117978640D01*
X84891071Y-117978640D02*
X84860595Y-117993878D01*
X84860595Y-117993878D02*
X84769166Y-117993878D01*
X84769166Y-117993878D02*
X84738690Y-117978640D01*
X84738690Y-117978640D02*
X84723452Y-117963401D01*
D10*
X61517319Y-117111904D02*
X62326842Y-117111904D01*
X62326842Y-117111904D02*
X62422080Y-117064285D01*
X62422080Y-117064285D02*
X62469700Y-117016666D01*
X62469700Y-117016666D02*
X62517319Y-116921428D01*
X62517319Y-116921428D02*
X62517319Y-116730952D01*
X62517319Y-116730952D02*
X62469700Y-116635714D01*
X62469700Y-116635714D02*
X62422080Y-116588095D01*
X62422080Y-116588095D02*
X62326842Y-116540476D01*
X62326842Y-116540476D02*
X61517319Y-116540476D01*
X61850652Y-115635714D02*
X62517319Y-115635714D01*
X61469700Y-115873809D02*
X62183985Y-116111904D01*
X62183985Y-116111904D02*
X62183985Y-115492857D01*
X55417319Y-131816666D02*
X54941128Y-132149999D01*
X55417319Y-132388094D02*
X54417319Y-132388094D01*
X54417319Y-132388094D02*
X54417319Y-132007142D01*
X54417319Y-132007142D02*
X54464938Y-131911904D01*
X54464938Y-131911904D02*
X54512557Y-131864285D01*
X54512557Y-131864285D02*
X54607795Y-131816666D01*
X54607795Y-131816666D02*
X54750652Y-131816666D01*
X54750652Y-131816666D02*
X54845890Y-131864285D01*
X54845890Y-131864285D02*
X54893509Y-131911904D01*
X54893509Y-131911904D02*
X54941128Y-132007142D01*
X54941128Y-132007142D02*
X54941128Y-132388094D01*
X54750652Y-130959523D02*
X55417319Y-130959523D01*
X54369700Y-131197618D02*
X55083985Y-131435713D01*
X55083985Y-131435713D02*
X55083985Y-130816666D01*
X80722080Y-126792857D02*
X80769700Y-126840476D01*
X80769700Y-126840476D02*
X80817319Y-126983333D01*
X80817319Y-126983333D02*
X80817319Y-127078571D01*
X80817319Y-127078571D02*
X80769700Y-127221428D01*
X80769700Y-127221428D02*
X80674461Y-127316666D01*
X80674461Y-127316666D02*
X80579223Y-127364285D01*
X80579223Y-127364285D02*
X80388747Y-127411904D01*
X80388747Y-127411904D02*
X80245890Y-127411904D01*
X80245890Y-127411904D02*
X80055414Y-127364285D01*
X80055414Y-127364285D02*
X79960176Y-127316666D01*
X79960176Y-127316666D02*
X79864938Y-127221428D01*
X79864938Y-127221428D02*
X79817319Y-127078571D01*
X79817319Y-127078571D02*
X79817319Y-126983333D01*
X79817319Y-126983333D02*
X79864938Y-126840476D01*
X79864938Y-126840476D02*
X79912557Y-126792857D01*
X80817319Y-125840476D02*
X80817319Y-126411904D01*
X80817319Y-126126190D02*
X79817319Y-126126190D01*
X79817319Y-126126190D02*
X79960176Y-126221428D01*
X79960176Y-126221428D02*
X80055414Y-126316666D01*
X80055414Y-126316666D02*
X80103033Y-126411904D01*
X79817319Y-125221428D02*
X79817319Y-125126190D01*
X79817319Y-125126190D02*
X79864938Y-125030952D01*
X79864938Y-125030952D02*
X79912557Y-124983333D01*
X79912557Y-124983333D02*
X80007795Y-124935714D01*
X80007795Y-124935714D02*
X80198271Y-124888095D01*
X80198271Y-124888095D02*
X80436366Y-124888095D01*
X80436366Y-124888095D02*
X80626842Y-124935714D01*
X80626842Y-124935714D02*
X80722080Y-124983333D01*
X80722080Y-124983333D02*
X80769700Y-125030952D01*
X80769700Y-125030952D02*
X80817319Y-125126190D01*
X80817319Y-125126190D02*
X80817319Y-125221428D01*
X80817319Y-125221428D02*
X80769700Y-125316666D01*
X80769700Y-125316666D02*
X80722080Y-125364285D01*
X80722080Y-125364285D02*
X80626842Y-125411904D01*
X80626842Y-125411904D02*
X80436366Y-125459523D01*
X80436366Y-125459523D02*
X80198271Y-125459523D01*
X80198271Y-125459523D02*
X80007795Y-125411904D01*
X80007795Y-125411904D02*
X79912557Y-125364285D01*
X79912557Y-125364285D02*
X79864938Y-125316666D01*
X79864938Y-125316666D02*
X79817319Y-125221428D01*
X58804642Y-101774580D02*
X58757023Y-101822200D01*
X58757023Y-101822200D02*
X58614166Y-101869819D01*
X58614166Y-101869819D02*
X58518928Y-101869819D01*
X58518928Y-101869819D02*
X58376071Y-101822200D01*
X58376071Y-101822200D02*
X58280833Y-101726961D01*
X58280833Y-101726961D02*
X58233214Y-101631723D01*
X58233214Y-101631723D02*
X58185595Y-101441247D01*
X58185595Y-101441247D02*
X58185595Y-101298390D01*
X58185595Y-101298390D02*
X58233214Y-101107914D01*
X58233214Y-101107914D02*
X58280833Y-101012676D01*
X58280833Y-101012676D02*
X58376071Y-100917438D01*
X58376071Y-100917438D02*
X58518928Y-100869819D01*
X58518928Y-100869819D02*
X58614166Y-100869819D01*
X58614166Y-100869819D02*
X58757023Y-100917438D01*
X58757023Y-100917438D02*
X58804642Y-100965057D01*
X59757023Y-101869819D02*
X59185595Y-101869819D01*
X59471309Y-101869819D02*
X59471309Y-100869819D01*
X59471309Y-100869819D02*
X59376071Y-101012676D01*
X59376071Y-101012676D02*
X59280833Y-101107914D01*
X59280833Y-101107914D02*
X59185595Y-101155533D01*
X60709404Y-101869819D02*
X60137976Y-101869819D01*
X60423690Y-101869819D02*
X60423690Y-100869819D01*
X60423690Y-100869819D02*
X60328452Y-101012676D01*
X60328452Y-101012676D02*
X60233214Y-101107914D01*
X60233214Y-101107914D02*
X60137976Y-101155533D01*
X58804642Y-97774580D02*
X58757023Y-97822200D01*
X58757023Y-97822200D02*
X58614166Y-97869819D01*
X58614166Y-97869819D02*
X58518928Y-97869819D01*
X58518928Y-97869819D02*
X58376071Y-97822200D01*
X58376071Y-97822200D02*
X58280833Y-97726961D01*
X58280833Y-97726961D02*
X58233214Y-97631723D01*
X58233214Y-97631723D02*
X58185595Y-97441247D01*
X58185595Y-97441247D02*
X58185595Y-97298390D01*
X58185595Y-97298390D02*
X58233214Y-97107914D01*
X58233214Y-97107914D02*
X58280833Y-97012676D01*
X58280833Y-97012676D02*
X58376071Y-96917438D01*
X58376071Y-96917438D02*
X58518928Y-96869819D01*
X58518928Y-96869819D02*
X58614166Y-96869819D01*
X58614166Y-96869819D02*
X58757023Y-96917438D01*
X58757023Y-96917438D02*
X58804642Y-96965057D01*
X59757023Y-97869819D02*
X59185595Y-97869819D01*
X59471309Y-97869819D02*
X59471309Y-96869819D01*
X59471309Y-96869819D02*
X59376071Y-97012676D01*
X59376071Y-97012676D02*
X59280833Y-97107914D01*
X59280833Y-97107914D02*
X59185595Y-97155533D01*
X60137976Y-96965057D02*
X60185595Y-96917438D01*
X60185595Y-96917438D02*
X60280833Y-96869819D01*
X60280833Y-96869819D02*
X60518928Y-96869819D01*
X60518928Y-96869819D02*
X60614166Y-96917438D01*
X60614166Y-96917438D02*
X60661785Y-96965057D01*
X60661785Y-96965057D02*
X60709404Y-97060295D01*
X60709404Y-97060295D02*
X60709404Y-97155533D01*
X60709404Y-97155533D02*
X60661785Y-97298390D01*
X60661785Y-97298390D02*
X60090357Y-97869819D01*
X60090357Y-97869819D02*
X60709404Y-97869819D01*
X55417319Y-129816666D02*
X54941128Y-130149999D01*
X55417319Y-130388094D02*
X54417319Y-130388094D01*
X54417319Y-130388094D02*
X54417319Y-130007142D01*
X54417319Y-130007142D02*
X54464938Y-129911904D01*
X54464938Y-129911904D02*
X54512557Y-129864285D01*
X54512557Y-129864285D02*
X54607795Y-129816666D01*
X54607795Y-129816666D02*
X54750652Y-129816666D01*
X54750652Y-129816666D02*
X54845890Y-129864285D01*
X54845890Y-129864285D02*
X54893509Y-129911904D01*
X54893509Y-129911904D02*
X54941128Y-130007142D01*
X54941128Y-130007142D02*
X54941128Y-130388094D01*
X54512557Y-129435713D02*
X54464938Y-129388094D01*
X54464938Y-129388094D02*
X54417319Y-129292856D01*
X54417319Y-129292856D02*
X54417319Y-129054761D01*
X54417319Y-129054761D02*
X54464938Y-128959523D01*
X54464938Y-128959523D02*
X54512557Y-128911904D01*
X54512557Y-128911904D02*
X54607795Y-128864285D01*
X54607795Y-128864285D02*
X54703033Y-128864285D01*
X54703033Y-128864285D02*
X54845890Y-128911904D01*
X54845890Y-128911904D02*
X55417319Y-129483332D01*
X55417319Y-129483332D02*
X55417319Y-128864285D01*
X81695833Y-105904819D02*
X81362500Y-105428628D01*
X81124405Y-105904819D02*
X81124405Y-104904819D01*
X81124405Y-104904819D02*
X81505357Y-104904819D01*
X81505357Y-104904819D02*
X81600595Y-104952438D01*
X81600595Y-104952438D02*
X81648214Y-105000057D01*
X81648214Y-105000057D02*
X81695833Y-105095295D01*
X81695833Y-105095295D02*
X81695833Y-105238152D01*
X81695833Y-105238152D02*
X81648214Y-105333390D01*
X81648214Y-105333390D02*
X81600595Y-105381009D01*
X81600595Y-105381009D02*
X81505357Y-105428628D01*
X81505357Y-105428628D02*
X81124405Y-105428628D01*
X82172024Y-105904819D02*
X82362500Y-105904819D01*
X82362500Y-105904819D02*
X82457738Y-105857200D01*
X82457738Y-105857200D02*
X82505357Y-105809580D01*
X82505357Y-105809580D02*
X82600595Y-105666723D01*
X82600595Y-105666723D02*
X82648214Y-105476247D01*
X82648214Y-105476247D02*
X82648214Y-105095295D01*
X82648214Y-105095295D02*
X82600595Y-105000057D01*
X82600595Y-105000057D02*
X82552976Y-104952438D01*
X82552976Y-104952438D02*
X82457738Y-104904819D01*
X82457738Y-104904819D02*
X82267262Y-104904819D01*
X82267262Y-104904819D02*
X82172024Y-104952438D01*
X82172024Y-104952438D02*
X82124405Y-105000057D01*
X82124405Y-105000057D02*
X82076786Y-105095295D01*
X82076786Y-105095295D02*
X82076786Y-105333390D01*
X82076786Y-105333390D02*
X82124405Y-105428628D01*
X82124405Y-105428628D02*
X82172024Y-105476247D01*
X82172024Y-105476247D02*
X82267262Y-105523866D01*
X82267262Y-105523866D02*
X82457738Y-105523866D01*
X82457738Y-105523866D02*
X82552976Y-105476247D01*
X82552976Y-105476247D02*
X82600595Y-105428628D01*
X82600595Y-105428628D02*
X82648214Y-105333390D01*
X55222080Y-125416666D02*
X55269700Y-125464285D01*
X55269700Y-125464285D02*
X55317319Y-125607142D01*
X55317319Y-125607142D02*
X55317319Y-125702380D01*
X55317319Y-125702380D02*
X55269700Y-125845237D01*
X55269700Y-125845237D02*
X55174461Y-125940475D01*
X55174461Y-125940475D02*
X55079223Y-125988094D01*
X55079223Y-125988094D02*
X54888747Y-126035713D01*
X54888747Y-126035713D02*
X54745890Y-126035713D01*
X54745890Y-126035713D02*
X54555414Y-125988094D01*
X54555414Y-125988094D02*
X54460176Y-125940475D01*
X54460176Y-125940475D02*
X54364938Y-125845237D01*
X54364938Y-125845237D02*
X54317319Y-125702380D01*
X54317319Y-125702380D02*
X54317319Y-125607142D01*
X54317319Y-125607142D02*
X54364938Y-125464285D01*
X54364938Y-125464285D02*
X54412557Y-125416666D01*
X54650652Y-124559523D02*
X55317319Y-124559523D01*
X54269700Y-124797618D02*
X54983985Y-125035713D01*
X54983985Y-125035713D02*
X54983985Y-124416666D01*
D11*
X66219919Y-130091666D02*
X66219919Y-130567856D01*
X66219919Y-130567856D02*
X65219919Y-130567856D01*
X66219919Y-129234523D02*
X66219919Y-129805951D01*
X66219919Y-129520237D02*
X65219919Y-129520237D01*
X65219919Y-129520237D02*
X65362776Y-129615475D01*
X65362776Y-129615475D02*
X65458014Y-129710713D01*
X65458014Y-129710713D02*
X65505633Y-129805951D01*
D10*
X84617319Y-126816666D02*
X84141128Y-127149999D01*
X84617319Y-127388094D02*
X83617319Y-127388094D01*
X83617319Y-127388094D02*
X83617319Y-127007142D01*
X83617319Y-127007142D02*
X83664938Y-126911904D01*
X83664938Y-126911904D02*
X83712557Y-126864285D01*
X83712557Y-126864285D02*
X83807795Y-126816666D01*
X83807795Y-126816666D02*
X83950652Y-126816666D01*
X83950652Y-126816666D02*
X84045890Y-126864285D01*
X84045890Y-126864285D02*
X84093509Y-126911904D01*
X84093509Y-126911904D02*
X84141128Y-127007142D01*
X84141128Y-127007142D02*
X84141128Y-127388094D01*
X83617319Y-125959523D02*
X83617319Y-126149999D01*
X83617319Y-126149999D02*
X83664938Y-126245237D01*
X83664938Y-126245237D02*
X83712557Y-126292856D01*
X83712557Y-126292856D02*
X83855414Y-126388094D01*
X83855414Y-126388094D02*
X84045890Y-126435713D01*
X84045890Y-126435713D02*
X84426842Y-126435713D01*
X84426842Y-126435713D02*
X84522080Y-126388094D01*
X84522080Y-126388094D02*
X84569700Y-126340475D01*
X84569700Y-126340475D02*
X84617319Y-126245237D01*
X84617319Y-126245237D02*
X84617319Y-126054761D01*
X84617319Y-126054761D02*
X84569700Y-125959523D01*
X84569700Y-125959523D02*
X84522080Y-125911904D01*
X84522080Y-125911904D02*
X84426842Y-125864285D01*
X84426842Y-125864285D02*
X84188747Y-125864285D01*
X84188747Y-125864285D02*
X84093509Y-125911904D01*
X84093509Y-125911904D02*
X84045890Y-125959523D01*
X84045890Y-125959523D02*
X83998271Y-126054761D01*
X83998271Y-126054761D02*
X83998271Y-126245237D01*
X83998271Y-126245237D02*
X84045890Y-126340475D01*
X84045890Y-126340475D02*
X84093509Y-126388094D01*
X84093509Y-126388094D02*
X84188747Y-126435713D01*
X63995833Y-130104819D02*
X63662500Y-129628628D01*
X63424405Y-130104819D02*
X63424405Y-129104819D01*
X63424405Y-129104819D02*
X63805357Y-129104819D01*
X63805357Y-129104819D02*
X63900595Y-129152438D01*
X63900595Y-129152438D02*
X63948214Y-129200057D01*
X63948214Y-129200057D02*
X63995833Y-129295295D01*
X63995833Y-129295295D02*
X63995833Y-129438152D01*
X63995833Y-129438152D02*
X63948214Y-129533390D01*
X63948214Y-129533390D02*
X63900595Y-129581009D01*
X63900595Y-129581009D02*
X63805357Y-129628628D01*
X63805357Y-129628628D02*
X63424405Y-129628628D01*
X64900595Y-129104819D02*
X64424405Y-129104819D01*
X64424405Y-129104819D02*
X64376786Y-129581009D01*
X64376786Y-129581009D02*
X64424405Y-129533390D01*
X64424405Y-129533390D02*
X64519643Y-129485771D01*
X64519643Y-129485771D02*
X64757738Y-129485771D01*
X64757738Y-129485771D02*
X64852976Y-129533390D01*
X64852976Y-129533390D02*
X64900595Y-129581009D01*
X64900595Y-129581009D02*
X64948214Y-129676247D01*
X64948214Y-129676247D02*
X64948214Y-129914342D01*
X64948214Y-129914342D02*
X64900595Y-130009580D01*
X64900595Y-130009580D02*
X64852976Y-130057200D01*
X64852976Y-130057200D02*
X64757738Y-130104819D01*
X64757738Y-130104819D02*
X64519643Y-130104819D01*
X64519643Y-130104819D02*
X64424405Y-130057200D01*
X64424405Y-130057200D02*
X64376786Y-130009580D01*
X71819642Y-135504819D02*
X71486309Y-135028628D01*
X71248214Y-135504819D02*
X71248214Y-134504819D01*
X71248214Y-134504819D02*
X71629166Y-134504819D01*
X71629166Y-134504819D02*
X71724404Y-134552438D01*
X71724404Y-134552438D02*
X71772023Y-134600057D01*
X71772023Y-134600057D02*
X71819642Y-134695295D01*
X71819642Y-134695295D02*
X71819642Y-134838152D01*
X71819642Y-134838152D02*
X71772023Y-134933390D01*
X71772023Y-134933390D02*
X71724404Y-134981009D01*
X71724404Y-134981009D02*
X71629166Y-135028628D01*
X71629166Y-135028628D02*
X71248214Y-135028628D01*
X72772023Y-135504819D02*
X72200595Y-135504819D01*
X72486309Y-135504819D02*
X72486309Y-134504819D01*
X72486309Y-134504819D02*
X72391071Y-134647676D01*
X72391071Y-134647676D02*
X72295833Y-134742914D01*
X72295833Y-134742914D02*
X72200595Y-134790533D01*
X73152976Y-134600057D02*
X73200595Y-134552438D01*
X73200595Y-134552438D02*
X73295833Y-134504819D01*
X73295833Y-134504819D02*
X73533928Y-134504819D01*
X73533928Y-134504819D02*
X73629166Y-134552438D01*
X73629166Y-134552438D02*
X73676785Y-134600057D01*
X73676785Y-134600057D02*
X73724404Y-134695295D01*
X73724404Y-134695295D02*
X73724404Y-134790533D01*
X73724404Y-134790533D02*
X73676785Y-134933390D01*
X73676785Y-134933390D02*
X73105357Y-135504819D01*
X73105357Y-135504819D02*
X73724404Y-135504819D01*
X80395833Y-132809580D02*
X80348214Y-132857200D01*
X80348214Y-132857200D02*
X80205357Y-132904819D01*
X80205357Y-132904819D02*
X80110119Y-132904819D01*
X80110119Y-132904819D02*
X79967262Y-132857200D01*
X79967262Y-132857200D02*
X79872024Y-132761961D01*
X79872024Y-132761961D02*
X79824405Y-132666723D01*
X79824405Y-132666723D02*
X79776786Y-132476247D01*
X79776786Y-132476247D02*
X79776786Y-132333390D01*
X79776786Y-132333390D02*
X79824405Y-132142914D01*
X79824405Y-132142914D02*
X79872024Y-132047676D01*
X79872024Y-132047676D02*
X79967262Y-131952438D01*
X79967262Y-131952438D02*
X80110119Y-131904819D01*
X80110119Y-131904819D02*
X80205357Y-131904819D01*
X80205357Y-131904819D02*
X80348214Y-131952438D01*
X80348214Y-131952438D02*
X80395833Y-132000057D01*
X80729167Y-131904819D02*
X81395833Y-131904819D01*
X81395833Y-131904819D02*
X80967262Y-132904819D01*
D11*
X59129166Y-139207419D02*
X59129166Y-139921704D01*
X59129166Y-139921704D02*
X59081547Y-140064561D01*
X59081547Y-140064561D02*
X58986309Y-140159800D01*
X58986309Y-140159800D02*
X58843452Y-140207419D01*
X58843452Y-140207419D02*
X58748214Y-140207419D01*
X60081547Y-139207419D02*
X59605357Y-139207419D01*
X59605357Y-139207419D02*
X59557738Y-139683609D01*
X59557738Y-139683609D02*
X59605357Y-139635990D01*
X59605357Y-139635990D02*
X59700595Y-139588371D01*
X59700595Y-139588371D02*
X59938690Y-139588371D01*
X59938690Y-139588371D02*
X60033928Y-139635990D01*
X60033928Y-139635990D02*
X60081547Y-139683609D01*
X60081547Y-139683609D02*
X60129166Y-139778847D01*
X60129166Y-139778847D02*
X60129166Y-140016942D01*
X60129166Y-140016942D02*
X60081547Y-140112180D01*
X60081547Y-140112180D02*
X60033928Y-140159800D01*
X60033928Y-140159800D02*
X59938690Y-140207419D01*
X59938690Y-140207419D02*
X59700595Y-140207419D01*
X59700595Y-140207419D02*
X59605357Y-140159800D01*
X59605357Y-140159800D02*
X59557738Y-140112180D01*
D10*
X80395833Y-134709580D02*
X80348214Y-134757200D01*
X80348214Y-134757200D02*
X80205357Y-134804819D01*
X80205357Y-134804819D02*
X80110119Y-134804819D01*
X80110119Y-134804819D02*
X79967262Y-134757200D01*
X79967262Y-134757200D02*
X79872024Y-134661961D01*
X79872024Y-134661961D02*
X79824405Y-134566723D01*
X79824405Y-134566723D02*
X79776786Y-134376247D01*
X79776786Y-134376247D02*
X79776786Y-134233390D01*
X79776786Y-134233390D02*
X79824405Y-134042914D01*
X79824405Y-134042914D02*
X79872024Y-133947676D01*
X79872024Y-133947676D02*
X79967262Y-133852438D01*
X79967262Y-133852438D02*
X80110119Y-133804819D01*
X80110119Y-133804819D02*
X80205357Y-133804819D01*
X80205357Y-133804819D02*
X80348214Y-133852438D01*
X80348214Y-133852438D02*
X80395833Y-133900057D01*
X80967262Y-134233390D02*
X80872024Y-134185771D01*
X80872024Y-134185771D02*
X80824405Y-134138152D01*
X80824405Y-134138152D02*
X80776786Y-134042914D01*
X80776786Y-134042914D02*
X80776786Y-133995295D01*
X80776786Y-133995295D02*
X80824405Y-133900057D01*
X80824405Y-133900057D02*
X80872024Y-133852438D01*
X80872024Y-133852438D02*
X80967262Y-133804819D01*
X80967262Y-133804819D02*
X81157738Y-133804819D01*
X81157738Y-133804819D02*
X81252976Y-133852438D01*
X81252976Y-133852438D02*
X81300595Y-133900057D01*
X81300595Y-133900057D02*
X81348214Y-133995295D01*
X81348214Y-133995295D02*
X81348214Y-134042914D01*
X81348214Y-134042914D02*
X81300595Y-134138152D01*
X81300595Y-134138152D02*
X81252976Y-134185771D01*
X81252976Y-134185771D02*
X81157738Y-134233390D01*
X81157738Y-134233390D02*
X80967262Y-134233390D01*
X80967262Y-134233390D02*
X80872024Y-134281009D01*
X80872024Y-134281009D02*
X80824405Y-134328628D01*
X80824405Y-134328628D02*
X80776786Y-134423866D01*
X80776786Y-134423866D02*
X80776786Y-134614342D01*
X80776786Y-134614342D02*
X80824405Y-134709580D01*
X80824405Y-134709580D02*
X80872024Y-134757200D01*
X80872024Y-134757200D02*
X80967262Y-134804819D01*
X80967262Y-134804819D02*
X81157738Y-134804819D01*
X81157738Y-134804819D02*
X81252976Y-134757200D01*
X81252976Y-134757200D02*
X81300595Y-134709580D01*
X81300595Y-134709580D02*
X81348214Y-134614342D01*
X81348214Y-134614342D02*
X81348214Y-134423866D01*
X81348214Y-134423866D02*
X81300595Y-134328628D01*
X81300595Y-134328628D02*
X81252976Y-134281009D01*
X81252976Y-134281009D02*
X81157738Y-134233390D01*
D11*
X67929166Y-139207419D02*
X67929166Y-139921704D01*
X67929166Y-139921704D02*
X67881547Y-140064561D01*
X67881547Y-140064561D02*
X67786309Y-140159800D01*
X67786309Y-140159800D02*
X67643452Y-140207419D01*
X67643452Y-140207419D02*
X67548214Y-140207419D01*
X68833928Y-139540752D02*
X68833928Y-140207419D01*
X68595833Y-139159800D02*
X68357738Y-139874085D01*
X68357738Y-139874085D02*
X68976785Y-139874085D01*
D10*
X71819642Y-134204819D02*
X71486309Y-133728628D01*
X71248214Y-134204819D02*
X71248214Y-133204819D01*
X71248214Y-133204819D02*
X71629166Y-133204819D01*
X71629166Y-133204819D02*
X71724404Y-133252438D01*
X71724404Y-133252438D02*
X71772023Y-133300057D01*
X71772023Y-133300057D02*
X71819642Y-133395295D01*
X71819642Y-133395295D02*
X71819642Y-133538152D01*
X71819642Y-133538152D02*
X71772023Y-133633390D01*
X71772023Y-133633390D02*
X71724404Y-133681009D01*
X71724404Y-133681009D02*
X71629166Y-133728628D01*
X71629166Y-133728628D02*
X71248214Y-133728628D01*
X72772023Y-134204819D02*
X72200595Y-134204819D01*
X72486309Y-134204819D02*
X72486309Y-133204819D01*
X72486309Y-133204819D02*
X72391071Y-133347676D01*
X72391071Y-133347676D02*
X72295833Y-133442914D01*
X72295833Y-133442914D02*
X72200595Y-133490533D01*
X73105357Y-133204819D02*
X73724404Y-133204819D01*
X73724404Y-133204819D02*
X73391071Y-133585771D01*
X73391071Y-133585771D02*
X73533928Y-133585771D01*
X73533928Y-133585771D02*
X73629166Y-133633390D01*
X73629166Y-133633390D02*
X73676785Y-133681009D01*
X73676785Y-133681009D02*
X73724404Y-133776247D01*
X73724404Y-133776247D02*
X73724404Y-134014342D01*
X73724404Y-134014342D02*
X73676785Y-134109580D01*
X73676785Y-134109580D02*
X73629166Y-134157200D01*
X73629166Y-134157200D02*
X73533928Y-134204819D01*
X73533928Y-134204819D02*
X73248214Y-134204819D01*
X73248214Y-134204819D02*
X73152976Y-134157200D01*
X73152976Y-134157200D02*
X73105357Y-134109580D01*
X80000595Y-128804819D02*
X80000595Y-129614342D01*
X80000595Y-129614342D02*
X80048214Y-129709580D01*
X80048214Y-129709580D02*
X80095833Y-129757200D01*
X80095833Y-129757200D02*
X80191071Y-129804819D01*
X80191071Y-129804819D02*
X80381547Y-129804819D01*
X80381547Y-129804819D02*
X80476785Y-129757200D01*
X80476785Y-129757200D02*
X80524404Y-129709580D01*
X80524404Y-129709580D02*
X80572023Y-129614342D01*
X80572023Y-129614342D02*
X80572023Y-128804819D01*
X81476785Y-128804819D02*
X81286309Y-128804819D01*
X81286309Y-128804819D02*
X81191071Y-128852438D01*
X81191071Y-128852438D02*
X81143452Y-128900057D01*
X81143452Y-128900057D02*
X81048214Y-129042914D01*
X81048214Y-129042914D02*
X81000595Y-129233390D01*
X81000595Y-129233390D02*
X81000595Y-129614342D01*
X81000595Y-129614342D02*
X81048214Y-129709580D01*
X81048214Y-129709580D02*
X81095833Y-129757200D01*
X81095833Y-129757200D02*
X81191071Y-129804819D01*
X81191071Y-129804819D02*
X81381547Y-129804819D01*
X81381547Y-129804819D02*
X81476785Y-129757200D01*
X81476785Y-129757200D02*
X81524404Y-129709580D01*
X81524404Y-129709580D02*
X81572023Y-129614342D01*
X81572023Y-129614342D02*
X81572023Y-129376247D01*
X81572023Y-129376247D02*
X81524404Y-129281009D01*
X81524404Y-129281009D02*
X81476785Y-129233390D01*
X81476785Y-129233390D02*
X81381547Y-129185771D01*
X81381547Y-129185771D02*
X81191071Y-129185771D01*
X81191071Y-129185771D02*
X81095833Y-129233390D01*
X81095833Y-129233390D02*
X81048214Y-129281009D01*
X81048214Y-129281009D02*
X81000595Y-129376247D01*
X68133333Y-135739580D02*
X68085714Y-135787200D01*
X68085714Y-135787200D02*
X67942857Y-135834819D01*
X67942857Y-135834819D02*
X67847619Y-135834819D01*
X67847619Y-135834819D02*
X67704762Y-135787200D01*
X67704762Y-135787200D02*
X67609524Y-135691961D01*
X67609524Y-135691961D02*
X67561905Y-135596723D01*
X67561905Y-135596723D02*
X67514286Y-135406247D01*
X67514286Y-135406247D02*
X67514286Y-135263390D01*
X67514286Y-135263390D02*
X67561905Y-135072914D01*
X67561905Y-135072914D02*
X67609524Y-134977676D01*
X67609524Y-134977676D02*
X67704762Y-134882438D01*
X67704762Y-134882438D02*
X67847619Y-134834819D01*
X67847619Y-134834819D02*
X67942857Y-134834819D01*
X67942857Y-134834819D02*
X68085714Y-134882438D01*
X68085714Y-134882438D02*
X68133333Y-134930057D01*
X68514286Y-134930057D02*
X68561905Y-134882438D01*
X68561905Y-134882438D02*
X68657143Y-134834819D01*
X68657143Y-134834819D02*
X68895238Y-134834819D01*
X68895238Y-134834819D02*
X68990476Y-134882438D01*
X68990476Y-134882438D02*
X69038095Y-134930057D01*
X69038095Y-134930057D02*
X69085714Y-135025295D01*
X69085714Y-135025295D02*
X69085714Y-135120533D01*
X69085714Y-135120533D02*
X69038095Y-135263390D01*
X69038095Y-135263390D02*
X68466667Y-135834819D01*
X68466667Y-135834819D02*
X69085714Y-135834819D01*
X78395833Y-117509580D02*
X78348214Y-117557200D01*
X78348214Y-117557200D02*
X78205357Y-117604819D01*
X78205357Y-117604819D02*
X78110119Y-117604819D01*
X78110119Y-117604819D02*
X77967262Y-117557200D01*
X77967262Y-117557200D02*
X77872024Y-117461961D01*
X77872024Y-117461961D02*
X77824405Y-117366723D01*
X77824405Y-117366723D02*
X77776786Y-117176247D01*
X77776786Y-117176247D02*
X77776786Y-117033390D01*
X77776786Y-117033390D02*
X77824405Y-116842914D01*
X77824405Y-116842914D02*
X77872024Y-116747676D01*
X77872024Y-116747676D02*
X77967262Y-116652438D01*
X77967262Y-116652438D02*
X78110119Y-116604819D01*
X78110119Y-116604819D02*
X78205357Y-116604819D01*
X78205357Y-116604819D02*
X78348214Y-116652438D01*
X78348214Y-116652438D02*
X78395833Y-116700057D01*
X79252976Y-116604819D02*
X79062500Y-116604819D01*
X79062500Y-116604819D02*
X78967262Y-116652438D01*
X78967262Y-116652438D02*
X78919643Y-116700057D01*
X78919643Y-116700057D02*
X78824405Y-116842914D01*
X78824405Y-116842914D02*
X78776786Y-117033390D01*
X78776786Y-117033390D02*
X78776786Y-117414342D01*
X78776786Y-117414342D02*
X78824405Y-117509580D01*
X78824405Y-117509580D02*
X78872024Y-117557200D01*
X78872024Y-117557200D02*
X78967262Y-117604819D01*
X78967262Y-117604819D02*
X79157738Y-117604819D01*
X79157738Y-117604819D02*
X79252976Y-117557200D01*
X79252976Y-117557200D02*
X79300595Y-117509580D01*
X79300595Y-117509580D02*
X79348214Y-117414342D01*
X79348214Y-117414342D02*
X79348214Y-117176247D01*
X79348214Y-117176247D02*
X79300595Y-117081009D01*
X79300595Y-117081009D02*
X79252976Y-117033390D01*
X79252976Y-117033390D02*
X79157738Y-116985771D01*
X79157738Y-116985771D02*
X78967262Y-116985771D01*
X78967262Y-116985771D02*
X78872024Y-117033390D01*
X78872024Y-117033390D02*
X78824405Y-117081009D01*
X78824405Y-117081009D02*
X78776786Y-117176247D01*
X55317319Y-127416666D02*
X54841128Y-127749999D01*
X55317319Y-127988094D02*
X54317319Y-127988094D01*
X54317319Y-127988094D02*
X54317319Y-127607142D01*
X54317319Y-127607142D02*
X54364938Y-127511904D01*
X54364938Y-127511904D02*
X54412557Y-127464285D01*
X54412557Y-127464285D02*
X54507795Y-127416666D01*
X54507795Y-127416666D02*
X54650652Y-127416666D01*
X54650652Y-127416666D02*
X54745890Y-127464285D01*
X54745890Y-127464285D02*
X54793509Y-127511904D01*
X54793509Y-127511904D02*
X54841128Y-127607142D01*
X54841128Y-127607142D02*
X54841128Y-127988094D01*
X54317319Y-127083332D02*
X54317319Y-126464285D01*
X54317319Y-126464285D02*
X54698271Y-126797618D01*
X54698271Y-126797618D02*
X54698271Y-126654761D01*
X54698271Y-126654761D02*
X54745890Y-126559523D01*
X54745890Y-126559523D02*
X54793509Y-126511904D01*
X54793509Y-126511904D02*
X54888747Y-126464285D01*
X54888747Y-126464285D02*
X55126842Y-126464285D01*
X55126842Y-126464285D02*
X55222080Y-126511904D01*
X55222080Y-126511904D02*
X55269700Y-126559523D01*
X55269700Y-126559523D02*
X55317319Y-126654761D01*
X55317319Y-126654761D02*
X55317319Y-126940475D01*
X55317319Y-126940475D02*
X55269700Y-127035713D01*
X55269700Y-127035713D02*
X55222080Y-127083332D01*
X65712557Y-127145238D02*
X65664938Y-127240476D01*
X65664938Y-127240476D02*
X65569700Y-127335714D01*
X65569700Y-127335714D02*
X65426842Y-127478571D01*
X65426842Y-127478571D02*
X65379223Y-127573809D01*
X65379223Y-127573809D02*
X65379223Y-127669047D01*
X65617319Y-127621428D02*
X65569700Y-127716666D01*
X65569700Y-127716666D02*
X65474461Y-127811904D01*
X65474461Y-127811904D02*
X65283985Y-127859523D01*
X65283985Y-127859523D02*
X64950652Y-127859523D01*
X64950652Y-127859523D02*
X64760176Y-127811904D01*
X64760176Y-127811904D02*
X64664938Y-127716666D01*
X64664938Y-127716666D02*
X64617319Y-127621428D01*
X64617319Y-127621428D02*
X64617319Y-127430952D01*
X64617319Y-127430952D02*
X64664938Y-127335714D01*
X64664938Y-127335714D02*
X64760176Y-127240476D01*
X64760176Y-127240476D02*
X64950652Y-127192857D01*
X64950652Y-127192857D02*
X65283985Y-127192857D01*
X65283985Y-127192857D02*
X65474461Y-127240476D01*
X65474461Y-127240476D02*
X65569700Y-127335714D01*
X65569700Y-127335714D02*
X65617319Y-127430952D01*
X65617319Y-127430952D02*
X65617319Y-127621428D01*
X65617319Y-126240476D02*
X65617319Y-126811904D01*
X65617319Y-126526190D02*
X64617319Y-126526190D01*
X64617319Y-126526190D02*
X64760176Y-126621428D01*
X64760176Y-126621428D02*
X64855414Y-126716666D01*
X64855414Y-126716666D02*
X64903033Y-126811904D01*
X81833333Y-113139580D02*
X81785714Y-113187200D01*
X81785714Y-113187200D02*
X81642857Y-113234819D01*
X81642857Y-113234819D02*
X81547619Y-113234819D01*
X81547619Y-113234819D02*
X81404762Y-113187200D01*
X81404762Y-113187200D02*
X81309524Y-113091961D01*
X81309524Y-113091961D02*
X81261905Y-112996723D01*
X81261905Y-112996723D02*
X81214286Y-112806247D01*
X81214286Y-112806247D02*
X81214286Y-112663390D01*
X81214286Y-112663390D02*
X81261905Y-112472914D01*
X81261905Y-112472914D02*
X81309524Y-112377676D01*
X81309524Y-112377676D02*
X81404762Y-112282438D01*
X81404762Y-112282438D02*
X81547619Y-112234819D01*
X81547619Y-112234819D02*
X81642857Y-112234819D01*
X81642857Y-112234819D02*
X81785714Y-112282438D01*
X81785714Y-112282438D02*
X81833333Y-112330057D01*
X82785714Y-113234819D02*
X82214286Y-113234819D01*
X82500000Y-113234819D02*
X82500000Y-112234819D01*
X82500000Y-112234819D02*
X82404762Y-112377676D01*
X82404762Y-112377676D02*
X82309524Y-112472914D01*
X82309524Y-112472914D02*
X82214286Y-112520533D01*
D11*
X72629166Y-140107419D02*
X72629166Y-140821704D01*
X72629166Y-140821704D02*
X72581547Y-140964561D01*
X72581547Y-140964561D02*
X72486309Y-141059800D01*
X72486309Y-141059800D02*
X72343452Y-141107419D01*
X72343452Y-141107419D02*
X72248214Y-141107419D01*
X73010119Y-140107419D02*
X73629166Y-140107419D01*
X73629166Y-140107419D02*
X73295833Y-140488371D01*
X73295833Y-140488371D02*
X73438690Y-140488371D01*
X73438690Y-140488371D02*
X73533928Y-140535990D01*
X73533928Y-140535990D02*
X73581547Y-140583609D01*
X73581547Y-140583609D02*
X73629166Y-140678847D01*
X73629166Y-140678847D02*
X73629166Y-140916942D01*
X73629166Y-140916942D02*
X73581547Y-141012180D01*
X73581547Y-141012180D02*
X73533928Y-141059800D01*
X73533928Y-141059800D02*
X73438690Y-141107419D01*
X73438690Y-141107419D02*
X73152976Y-141107419D01*
X73152976Y-141107419D02*
X73057738Y-141059800D01*
X73057738Y-141059800D02*
X73010119Y-141012180D01*
D10*
X55322080Y-133716666D02*
X55369700Y-133764285D01*
X55369700Y-133764285D02*
X55417319Y-133907142D01*
X55417319Y-133907142D02*
X55417319Y-134002380D01*
X55417319Y-134002380D02*
X55369700Y-134145237D01*
X55369700Y-134145237D02*
X55274461Y-134240475D01*
X55274461Y-134240475D02*
X55179223Y-134288094D01*
X55179223Y-134288094D02*
X54988747Y-134335713D01*
X54988747Y-134335713D02*
X54845890Y-134335713D01*
X54845890Y-134335713D02*
X54655414Y-134288094D01*
X54655414Y-134288094D02*
X54560176Y-134240475D01*
X54560176Y-134240475D02*
X54464938Y-134145237D01*
X54464938Y-134145237D02*
X54417319Y-134002380D01*
X54417319Y-134002380D02*
X54417319Y-133907142D01*
X54417319Y-133907142D02*
X54464938Y-133764285D01*
X54464938Y-133764285D02*
X54512557Y-133716666D01*
X54417319Y-132811904D02*
X54417319Y-133288094D01*
X54417319Y-133288094D02*
X54893509Y-133335713D01*
X54893509Y-133335713D02*
X54845890Y-133288094D01*
X54845890Y-133288094D02*
X54798271Y-133192856D01*
X54798271Y-133192856D02*
X54798271Y-132954761D01*
X54798271Y-132954761D02*
X54845890Y-132859523D01*
X54845890Y-132859523D02*
X54893509Y-132811904D01*
X54893509Y-132811904D02*
X54988747Y-132764285D01*
X54988747Y-132764285D02*
X55226842Y-132764285D01*
X55226842Y-132764285D02*
X55322080Y-132811904D01*
X55322080Y-132811904D02*
X55369700Y-132859523D01*
X55369700Y-132859523D02*
X55417319Y-132954761D01*
X55417319Y-132954761D02*
X55417319Y-133192856D01*
X55417319Y-133192856D02*
X55369700Y-133288094D01*
X55369700Y-133288094D02*
X55322080Y-133335713D01*
X77495833Y-122704819D02*
X77162500Y-122228628D01*
X76924405Y-122704819D02*
X76924405Y-121704819D01*
X76924405Y-121704819D02*
X77305357Y-121704819D01*
X77305357Y-121704819D02*
X77400595Y-121752438D01*
X77400595Y-121752438D02*
X77448214Y-121800057D01*
X77448214Y-121800057D02*
X77495833Y-121895295D01*
X77495833Y-121895295D02*
X77495833Y-122038152D01*
X77495833Y-122038152D02*
X77448214Y-122133390D01*
X77448214Y-122133390D02*
X77400595Y-122181009D01*
X77400595Y-122181009D02*
X77305357Y-122228628D01*
X77305357Y-122228628D02*
X76924405Y-122228628D01*
X78067262Y-122133390D02*
X77972024Y-122085771D01*
X77972024Y-122085771D02*
X77924405Y-122038152D01*
X77924405Y-122038152D02*
X77876786Y-121942914D01*
X77876786Y-121942914D02*
X77876786Y-121895295D01*
X77876786Y-121895295D02*
X77924405Y-121800057D01*
X77924405Y-121800057D02*
X77972024Y-121752438D01*
X77972024Y-121752438D02*
X78067262Y-121704819D01*
X78067262Y-121704819D02*
X78257738Y-121704819D01*
X78257738Y-121704819D02*
X78352976Y-121752438D01*
X78352976Y-121752438D02*
X78400595Y-121800057D01*
X78400595Y-121800057D02*
X78448214Y-121895295D01*
X78448214Y-121895295D02*
X78448214Y-121942914D01*
X78448214Y-121942914D02*
X78400595Y-122038152D01*
X78400595Y-122038152D02*
X78352976Y-122085771D01*
X78352976Y-122085771D02*
X78257738Y-122133390D01*
X78257738Y-122133390D02*
X78067262Y-122133390D01*
X78067262Y-122133390D02*
X77972024Y-122181009D01*
X77972024Y-122181009D02*
X77924405Y-122228628D01*
X77924405Y-122228628D02*
X77876786Y-122323866D01*
X77876786Y-122323866D02*
X77876786Y-122514342D01*
X77876786Y-122514342D02*
X77924405Y-122609580D01*
X77924405Y-122609580D02*
X77972024Y-122657200D01*
X77972024Y-122657200D02*
X78067262Y-122704819D01*
X78067262Y-122704819D02*
X78257738Y-122704819D01*
X78257738Y-122704819D02*
X78352976Y-122657200D01*
X78352976Y-122657200D02*
X78400595Y-122609580D01*
X78400595Y-122609580D02*
X78448214Y-122514342D01*
X78448214Y-122514342D02*
X78448214Y-122323866D01*
X78448214Y-122323866D02*
X78400595Y-122228628D01*
X78400595Y-122228628D02*
X78352976Y-122181009D01*
X78352976Y-122181009D02*
X78257738Y-122133390D01*
X58804642Y-99769819D02*
X58471309Y-99293628D01*
X58233214Y-99769819D02*
X58233214Y-98769819D01*
X58233214Y-98769819D02*
X58614166Y-98769819D01*
X58614166Y-98769819D02*
X58709404Y-98817438D01*
X58709404Y-98817438D02*
X58757023Y-98865057D01*
X58757023Y-98865057D02*
X58804642Y-98960295D01*
X58804642Y-98960295D02*
X58804642Y-99103152D01*
X58804642Y-99103152D02*
X58757023Y-99198390D01*
X58757023Y-99198390D02*
X58709404Y-99246009D01*
X58709404Y-99246009D02*
X58614166Y-99293628D01*
X58614166Y-99293628D02*
X58233214Y-99293628D01*
X59757023Y-99769819D02*
X59185595Y-99769819D01*
X59471309Y-99769819D02*
X59471309Y-98769819D01*
X59471309Y-98769819D02*
X59376071Y-98912676D01*
X59376071Y-98912676D02*
X59280833Y-99007914D01*
X59280833Y-99007914D02*
X59185595Y-99055533D01*
X60614166Y-98769819D02*
X60423690Y-98769819D01*
X60423690Y-98769819D02*
X60328452Y-98817438D01*
X60328452Y-98817438D02*
X60280833Y-98865057D01*
X60280833Y-98865057D02*
X60185595Y-99007914D01*
X60185595Y-99007914D02*
X60137976Y-99198390D01*
X60137976Y-99198390D02*
X60137976Y-99579342D01*
X60137976Y-99579342D02*
X60185595Y-99674580D01*
X60185595Y-99674580D02*
X60233214Y-99722200D01*
X60233214Y-99722200D02*
X60328452Y-99769819D01*
X60328452Y-99769819D02*
X60518928Y-99769819D01*
X60518928Y-99769819D02*
X60614166Y-99722200D01*
X60614166Y-99722200D02*
X60661785Y-99674580D01*
X60661785Y-99674580D02*
X60709404Y-99579342D01*
X60709404Y-99579342D02*
X60709404Y-99341247D01*
X60709404Y-99341247D02*
X60661785Y-99246009D01*
X60661785Y-99246009D02*
X60614166Y-99198390D01*
X60614166Y-99198390D02*
X60518928Y-99150771D01*
X60518928Y-99150771D02*
X60328452Y-99150771D01*
X60328452Y-99150771D02*
X60233214Y-99198390D01*
X60233214Y-99198390D02*
X60185595Y-99246009D01*
X60185595Y-99246009D02*
X60137976Y-99341247D01*
X79195833Y-123309580D02*
X79148214Y-123357200D01*
X79148214Y-123357200D02*
X79005357Y-123404819D01*
X79005357Y-123404819D02*
X78910119Y-123404819D01*
X78910119Y-123404819D02*
X78767262Y-123357200D01*
X78767262Y-123357200D02*
X78672024Y-123261961D01*
X78672024Y-123261961D02*
X78624405Y-123166723D01*
X78624405Y-123166723D02*
X78576786Y-122976247D01*
X78576786Y-122976247D02*
X78576786Y-122833390D01*
X78576786Y-122833390D02*
X78624405Y-122642914D01*
X78624405Y-122642914D02*
X78672024Y-122547676D01*
X78672024Y-122547676D02*
X78767262Y-122452438D01*
X78767262Y-122452438D02*
X78910119Y-122404819D01*
X78910119Y-122404819D02*
X79005357Y-122404819D01*
X79005357Y-122404819D02*
X79148214Y-122452438D01*
X79148214Y-122452438D02*
X79195833Y-122500057D01*
X79672024Y-123404819D02*
X79862500Y-123404819D01*
X79862500Y-123404819D02*
X79957738Y-123357200D01*
X79957738Y-123357200D02*
X80005357Y-123309580D01*
X80005357Y-123309580D02*
X80100595Y-123166723D01*
X80100595Y-123166723D02*
X80148214Y-122976247D01*
X80148214Y-122976247D02*
X80148214Y-122595295D01*
X80148214Y-122595295D02*
X80100595Y-122500057D01*
X80100595Y-122500057D02*
X80052976Y-122452438D01*
X80052976Y-122452438D02*
X79957738Y-122404819D01*
X79957738Y-122404819D02*
X79767262Y-122404819D01*
X79767262Y-122404819D02*
X79672024Y-122452438D01*
X79672024Y-122452438D02*
X79624405Y-122500057D01*
X79624405Y-122500057D02*
X79576786Y-122595295D01*
X79576786Y-122595295D02*
X79576786Y-122833390D01*
X79576786Y-122833390D02*
X79624405Y-122928628D01*
X79624405Y-122928628D02*
X79672024Y-122976247D01*
X79672024Y-122976247D02*
X79767262Y-123023866D01*
X79767262Y-123023866D02*
X79957738Y-123023866D01*
X79957738Y-123023866D02*
X80052976Y-122976247D01*
X80052976Y-122976247D02*
X80100595Y-122928628D01*
X80100595Y-122928628D02*
X80148214Y-122833390D01*
X67761905Y-120604819D02*
X67761905Y-119604819D01*
X67761905Y-119604819D02*
X68000000Y-119604819D01*
X68000000Y-119604819D02*
X68142857Y-119652438D01*
X68142857Y-119652438D02*
X68238095Y-119747676D01*
X68238095Y-119747676D02*
X68285714Y-119842914D01*
X68285714Y-119842914D02*
X68333333Y-120033390D01*
X68333333Y-120033390D02*
X68333333Y-120176247D01*
X68333333Y-120176247D02*
X68285714Y-120366723D01*
X68285714Y-120366723D02*
X68238095Y-120461961D01*
X68238095Y-120461961D02*
X68142857Y-120557200D01*
X68142857Y-120557200D02*
X68000000Y-120604819D01*
X68000000Y-120604819D02*
X67761905Y-120604819D01*
X69285714Y-120604819D02*
X68714286Y-120604819D01*
X69000000Y-120604819D02*
X69000000Y-119604819D01*
X69000000Y-119604819D02*
X68904762Y-119747676D01*
X68904762Y-119747676D02*
X68809524Y-119842914D01*
X68809524Y-119842914D02*
X68714286Y-119890533D01*
X71819642Y-136804819D02*
X71486309Y-136328628D01*
X71248214Y-136804819D02*
X71248214Y-135804819D01*
X71248214Y-135804819D02*
X71629166Y-135804819D01*
X71629166Y-135804819D02*
X71724404Y-135852438D01*
X71724404Y-135852438D02*
X71772023Y-135900057D01*
X71772023Y-135900057D02*
X71819642Y-135995295D01*
X71819642Y-135995295D02*
X71819642Y-136138152D01*
X71819642Y-136138152D02*
X71772023Y-136233390D01*
X71772023Y-136233390D02*
X71724404Y-136281009D01*
X71724404Y-136281009D02*
X71629166Y-136328628D01*
X71629166Y-136328628D02*
X71248214Y-136328628D01*
X72772023Y-136804819D02*
X72200595Y-136804819D01*
X72486309Y-136804819D02*
X72486309Y-135804819D01*
X72486309Y-135804819D02*
X72391071Y-135947676D01*
X72391071Y-135947676D02*
X72295833Y-136042914D01*
X72295833Y-136042914D02*
X72200595Y-136090533D01*
X73724404Y-136804819D02*
X73152976Y-136804819D01*
X73438690Y-136804819D02*
X73438690Y-135804819D01*
X73438690Y-135804819D02*
X73343452Y-135947676D01*
X73343452Y-135947676D02*
X73248214Y-136042914D01*
X73248214Y-136042914D02*
X73152976Y-136090533D01*
X85217319Y-109592857D02*
X84741128Y-109926190D01*
X85217319Y-110164285D02*
X84217319Y-110164285D01*
X84217319Y-110164285D02*
X84217319Y-109783333D01*
X84217319Y-109783333D02*
X84264938Y-109688095D01*
X84264938Y-109688095D02*
X84312557Y-109640476D01*
X84312557Y-109640476D02*
X84407795Y-109592857D01*
X84407795Y-109592857D02*
X84550652Y-109592857D01*
X84550652Y-109592857D02*
X84645890Y-109640476D01*
X84645890Y-109640476D02*
X84693509Y-109688095D01*
X84693509Y-109688095D02*
X84741128Y-109783333D01*
X84741128Y-109783333D02*
X84741128Y-110164285D01*
X85217319Y-108640476D02*
X85217319Y-109211904D01*
X85217319Y-108926190D02*
X84217319Y-108926190D01*
X84217319Y-108926190D02*
X84360176Y-109021428D01*
X84360176Y-109021428D02*
X84455414Y-109116666D01*
X84455414Y-109116666D02*
X84503033Y-109211904D01*
X84217319Y-108021428D02*
X84217319Y-107926190D01*
X84217319Y-107926190D02*
X84264938Y-107830952D01*
X84264938Y-107830952D02*
X84312557Y-107783333D01*
X84312557Y-107783333D02*
X84407795Y-107735714D01*
X84407795Y-107735714D02*
X84598271Y-107688095D01*
X84598271Y-107688095D02*
X84836366Y-107688095D01*
X84836366Y-107688095D02*
X85026842Y-107735714D01*
X85026842Y-107735714D02*
X85122080Y-107783333D01*
X85122080Y-107783333D02*
X85169700Y-107830952D01*
X85169700Y-107830952D02*
X85217319Y-107926190D01*
X85217319Y-107926190D02*
X85217319Y-108021428D01*
X85217319Y-108021428D02*
X85169700Y-108116666D01*
X85169700Y-108116666D02*
X85122080Y-108164285D01*
X85122080Y-108164285D02*
X85026842Y-108211904D01*
X85026842Y-108211904D02*
X84836366Y-108259523D01*
X84836366Y-108259523D02*
X84598271Y-108259523D01*
X84598271Y-108259523D02*
X84407795Y-108211904D01*
X84407795Y-108211904D02*
X84312557Y-108164285D01*
X84312557Y-108164285D02*
X84264938Y-108116666D01*
X84264938Y-108116666D02*
X84217319Y-108021428D01*
X64095833Y-133909580D02*
X64048214Y-133957200D01*
X64048214Y-133957200D02*
X63905357Y-134004819D01*
X63905357Y-134004819D02*
X63810119Y-134004819D01*
X63810119Y-134004819D02*
X63667262Y-133957200D01*
X63667262Y-133957200D02*
X63572024Y-133861961D01*
X63572024Y-133861961D02*
X63524405Y-133766723D01*
X63524405Y-133766723D02*
X63476786Y-133576247D01*
X63476786Y-133576247D02*
X63476786Y-133433390D01*
X63476786Y-133433390D02*
X63524405Y-133242914D01*
X63524405Y-133242914D02*
X63572024Y-133147676D01*
X63572024Y-133147676D02*
X63667262Y-133052438D01*
X63667262Y-133052438D02*
X63810119Y-133004819D01*
X63810119Y-133004819D02*
X63905357Y-133004819D01*
X63905357Y-133004819D02*
X64048214Y-133052438D01*
X64048214Y-133052438D02*
X64095833Y-133100057D01*
X64429167Y-133004819D02*
X65048214Y-133004819D01*
X65048214Y-133004819D02*
X64714881Y-133385771D01*
X64714881Y-133385771D02*
X64857738Y-133385771D01*
X64857738Y-133385771D02*
X64952976Y-133433390D01*
X64952976Y-133433390D02*
X65000595Y-133481009D01*
X65000595Y-133481009D02*
X65048214Y-133576247D01*
X65048214Y-133576247D02*
X65048214Y-133814342D01*
X65048214Y-133814342D02*
X65000595Y-133909580D01*
X65000595Y-133909580D02*
X64952976Y-133957200D01*
X64952976Y-133957200D02*
X64857738Y-134004819D01*
X64857738Y-134004819D02*
X64572024Y-134004819D01*
X64572024Y-134004819D02*
X64476786Y-133957200D01*
X64476786Y-133957200D02*
X64429167Y-133909580D01*
D11*
%TO.C,U1*%
X77750000Y-115175000D02*
X76350000Y-115175000D01*
X77750000Y-113875000D02*
X77750000Y-115175000D01*
X77700000Y-103175000D02*
X77700000Y-104575000D01*
X76400000Y-103175000D02*
X77700000Y-103175000D01*
X67100000Y-115275000D02*
X65800000Y-115275000D01*
X65800000Y-115275000D02*
X65800000Y-113875000D01*
X65750000Y-104425000D02*
X65750000Y-103125000D01*
X65750000Y-103125000D02*
X67150000Y-103125000D01*
D10*
X79092353Y-114335000D02*
G75*
G03*
X79092353Y-114335000I-362353J0D01*
G01*
D11*
%TO.C,U2*%
X64250000Y-123537500D02*
X64250000Y-123737500D01*
X64050000Y-123537500D02*
X64250000Y-123537500D01*
X61050000Y-123537500D02*
X61250000Y-123537500D01*
X61050000Y-123737500D02*
X61050000Y-123537500D01*
X64250000Y-126537500D02*
X64250000Y-126737500D01*
X64250000Y-126737500D02*
X64050000Y-126737500D01*
X61250000Y-126737500D02*
X61050000Y-126737500D01*
X61050000Y-126737500D02*
X61050000Y-126537500D01*
X64850000Y-123137500D02*
G75*
G03*
X64850000Y-123137500I-200000J0D01*
G01*
D13*
%TO.C,U5*%
X73011000Y-120440000D02*
X73011000Y-120750000D01*
X75489000Y-120440000D02*
X75489000Y-120750000D01*
X73011000Y-118960000D02*
X73011000Y-118650000D01*
X75489000Y-118960000D02*
X75489000Y-118650000D01*
D14*
X73050000Y-121200000D02*
G75*
G03*
X73050000Y-121200000I-100000J0D01*
G01*
D15*
%TO.C,R1*%
X61229186Y-130796250D02*
X61683314Y-130796250D01*
X61229186Y-132266250D02*
X61683314Y-132266250D01*
%TO.C,R14*%
X60377064Y-110035000D02*
X59922936Y-110035000D01*
X60377064Y-108565000D02*
X59922936Y-108565000D01*
%TO.C,SW1*%
X61875000Y-103175000D02*
X61755000Y-103175000D01*
X60745000Y-103175000D02*
X59605000Y-103175000D01*
X58595000Y-103175000D02*
X58475000Y-103175000D01*
X58475000Y-103175000D02*
X58475000Y-107575000D01*
X61875000Y-107575000D02*
X61875000Y-103175000D01*
X61755000Y-107575000D02*
X61875000Y-107575000D01*
X59605000Y-107575000D02*
X60745000Y-107575000D01*
X58475000Y-107575000D02*
X58595000Y-107575000D01*
%TO.C,R15*%
X68715000Y-99677064D02*
X68715000Y-99222936D01*
X70185000Y-99677064D02*
X70185000Y-99222936D01*
%TO.C,R7*%
X82885000Y-123522936D02*
X82885000Y-123977064D01*
X81415000Y-123522936D02*
X81415000Y-123977064D01*
D13*
%TO.C,U3*%
X82050000Y-118550000D02*
X82342500Y-118550000D01*
X82050000Y-118592500D02*
X82050000Y-118550000D01*
X82050000Y-120550000D02*
X82050000Y-120507500D01*
X82050000Y-120550000D02*
X82342500Y-120550000D01*
X83757500Y-118550000D02*
X84050000Y-118550000D01*
X84050000Y-118550000D02*
X84050000Y-118592500D01*
X84050000Y-120507500D02*
X84050000Y-120550000D01*
X84050000Y-120550000D02*
X83757500Y-120550000D01*
D14*
X84050000Y-117962500D02*
G75*
G03*
X84050000Y-117962500I-100000J0D01*
G01*
D15*
%TO.C,J2*%
X61537500Y-92490000D02*
X64237500Y-92490000D01*
X64287500Y-95210000D02*
X63647500Y-95210000D01*
X62127500Y-95210000D02*
X62127500Y-95840000D01*
X61487500Y-95210000D02*
X62127500Y-95210000D01*
%TO.C,U4*%
X61175000Y-113625000D02*
X60915000Y-113625000D01*
X60915000Y-113625000D02*
X60915000Y-111950000D01*
X55725000Y-113625000D02*
X55985000Y-113625000D01*
X61175000Y-116350000D02*
X61175000Y-113625000D01*
X61175000Y-116350000D02*
X61175000Y-119075000D01*
X55725000Y-116350000D02*
X55725000Y-113625000D01*
X55725000Y-116350000D02*
X55725000Y-119075000D01*
X61175000Y-119075000D02*
X60915000Y-119075000D01*
X55725000Y-119075000D02*
X55985000Y-119075000D01*
%TO.C,R4*%
X57160436Y-130777500D02*
X57614564Y-130777500D01*
X57160436Y-132247500D02*
X57614564Y-132247500D01*
%TO.C,C10*%
X78061252Y-127057120D02*
X77538748Y-127057120D01*
X78061252Y-125587120D02*
X77538748Y-125587120D01*
%TO.C,C11*%
X63161252Y-102085000D02*
X62638748Y-102085000D01*
X63161252Y-100615000D02*
X62638748Y-100615000D01*
%TO.C,C12*%
X62563748Y-96615000D02*
X63086252Y-96615000D01*
X62563748Y-98085000D02*
X63086252Y-98085000D01*
%TO.C,R2*%
X57614564Y-130197500D02*
X57160436Y-130197500D01*
X57614564Y-128727500D02*
X57160436Y-128727500D01*
%TO.C,R9*%
X81722936Y-108315000D02*
X82177064Y-108315000D01*
X81722936Y-109785000D02*
X82177064Y-109785000D01*
%TO.C,C4*%
X57598752Y-124427500D02*
X57076248Y-124427500D01*
X57598752Y-125897500D02*
X57076248Y-125897500D01*
D11*
%TO.C,L1*%
X70432000Y-131957000D02*
X70432000Y-127893000D01*
X66368000Y-131957000D02*
X66368000Y-127893000D01*
D15*
%TO.C,R6*%
X84885000Y-123522936D02*
X84885000Y-123977064D01*
X83415000Y-123522936D02*
X83415000Y-123977064D01*
%TO.C,R5*%
X61222936Y-128802500D02*
X61677064Y-128802500D01*
X61222936Y-130272500D02*
X61677064Y-130272500D01*
%TO.C,R12*%
X72872936Y-129237120D02*
X73327064Y-129237120D01*
X72872936Y-130707120D02*
X73327064Y-130707120D01*
%TO.C,C7*%
X77501248Y-131587120D02*
X78023752Y-131587120D01*
X77501248Y-133057120D02*
X78023752Y-133057120D01*
%TO.C,C8*%
X77463748Y-133587120D02*
X77986252Y-133587120D01*
X77463748Y-135057120D02*
X77986252Y-135057120D01*
%TO.C,R13*%
X73327064Y-128707120D02*
X72872936Y-128707120D01*
X73327064Y-127237120D02*
X72872936Y-127237120D01*
%TO.C,U6*%
X77762500Y-127762120D02*
X75962500Y-127762120D01*
X77762500Y-127762120D02*
X78562500Y-127762120D01*
X77762500Y-130882120D02*
X76962500Y-130882120D01*
X77762500Y-130882120D02*
X78562500Y-130882120D01*
%TO.C,C2*%
X68561252Y-134435000D02*
X68038748Y-134435000D01*
X68561252Y-132965000D02*
X68038748Y-132965000D01*
%TO.C,C6*%
X78301248Y-118015000D02*
X78823752Y-118015000D01*
X78301248Y-119485000D02*
X78823752Y-119485000D01*
%TO.C,R3*%
X57552064Y-127947500D02*
X57097936Y-127947500D01*
X57552064Y-126477500D02*
X57097936Y-126477500D01*
%TO.C,Q1*%
X67700000Y-123390000D02*
X67050000Y-123390000D01*
X67700000Y-123390000D02*
X68350000Y-123390000D01*
X67700000Y-126510000D02*
X67050000Y-126510000D01*
X67700000Y-126510000D02*
X69375000Y-126510000D01*
%TO.C,C1*%
X82261252Y-111835000D02*
X81738748Y-111835000D01*
X82261252Y-110365000D02*
X81738748Y-110365000D01*
D11*
%TO.C,J3*%
X74012500Y-136322120D02*
X75762500Y-136322120D01*
X74012500Y-141322120D02*
X74012500Y-136322120D01*
X80012500Y-136322120D02*
X81512500Y-136322120D01*
X81512500Y-136322120D02*
X81512500Y-141322120D01*
D15*
%TO.C,C5*%
X57163748Y-132877500D02*
X57686252Y-132877500D01*
X57163748Y-134347500D02*
X57686252Y-134347500D01*
%TO.C,R8*%
X78322936Y-120015000D02*
X78777064Y-120015000D01*
X78322936Y-121485000D02*
X78777064Y-121485000D01*
%TO.C,R16*%
X62635436Y-98615000D02*
X63089564Y-98615000D01*
X62635436Y-100085000D02*
X63089564Y-100085000D01*
%TO.C,C9*%
X78061252Y-125057120D02*
X77538748Y-125057120D01*
X78061252Y-123587120D02*
X77538748Y-123587120D01*
%TO.C,D1*%
X66140000Y-120900000D02*
X66140000Y-122900000D01*
X66140000Y-120900000D02*
X70150000Y-120900000D01*
X66140000Y-122900000D02*
X70150000Y-122900000D01*
%TO.C,R11*%
X73327064Y-132707120D02*
X72872936Y-132707120D01*
X73327064Y-131237120D02*
X72872936Y-131237120D01*
%TO.C,D2*%
X70540000Y-101260000D02*
X72460000Y-101260000D01*
X72460000Y-101260000D02*
X72460000Y-98400000D01*
X70540000Y-98400000D02*
X70540000Y-101260000D01*
%TO.C,R10*%
X81722936Y-106315000D02*
X82177064Y-106315000D01*
X81722936Y-107785000D02*
X82177064Y-107785000D01*
%TO.C,Q2*%
X73162500Y-123412120D02*
X71487500Y-123412120D01*
X73162500Y-123412120D02*
X73812500Y-123412120D01*
X73162500Y-126532120D02*
X72512500Y-126532120D01*
X73162500Y-126532120D02*
X73812500Y-126532120D01*
%TO.C,C3*%
X61742502Y-134316250D02*
X61219998Y-134316250D01*
X61742502Y-132846250D02*
X61219998Y-132846250D01*
%TD*%
M02*
