%TF.GenerationSoftware,KiCad,Pcbnew,7.0.8-7.0.8~ubuntu22.04.1*%
%TF.CreationDate,2023-10-23T06:40:44-04:00*%
%TF.ProjectId,DDRN_Hardware,4444524e-5f48-4617-9264-776172652e6b,rev?*%
%TF.SameCoordinates,Original*%
%TF.FileFunction,Legend,Top*%
%TF.FilePolarity,Positive*%
%FSLAX46Y46*%
G04 Gerber Fmt 4.6, Leading zero omitted, Abs format (unit mm)*
G04 Created by KiCad (PCBNEW 7.0.8-7.0.8~ubuntu22.04.1) date 2023-10-23 06:40:44*
%MOMM*%
%LPD*%
G01*
G04 APERTURE LIST*
%ADD10C,0.150000*%
%ADD11C,0.100000*%
%ADD12C,0.120000*%
%ADD13C,0.127000*%
%ADD14C,0.200000*%
G04 APERTURE END LIST*
D10*
X57457142Y-111404819D02*
X57123809Y-110928628D01*
X56885714Y-111404819D02*
X56885714Y-110404819D01*
X56885714Y-110404819D02*
X57266666Y-110404819D01*
X57266666Y-110404819D02*
X57361904Y-110452438D01*
X57361904Y-110452438D02*
X57409523Y-110500057D01*
X57409523Y-110500057D02*
X57457142Y-110595295D01*
X57457142Y-110595295D02*
X57457142Y-110738152D01*
X57457142Y-110738152D02*
X57409523Y-110833390D01*
X57409523Y-110833390D02*
X57361904Y-110881009D01*
X57361904Y-110881009D02*
X57266666Y-110928628D01*
X57266666Y-110928628D02*
X56885714Y-110928628D01*
X58409523Y-111404819D02*
X57838095Y-111404819D01*
X58123809Y-111404819D02*
X58123809Y-110404819D01*
X58123809Y-110404819D02*
X58028571Y-110547676D01*
X58028571Y-110547676D02*
X57933333Y-110642914D01*
X57933333Y-110642914D02*
X57838095Y-110690533D01*
X58885714Y-111404819D02*
X59076190Y-111404819D01*
X59076190Y-111404819D02*
X59171428Y-111357200D01*
X59171428Y-111357200D02*
X59219047Y-111309580D01*
X59219047Y-111309580D02*
X59314285Y-111166723D01*
X59314285Y-111166723D02*
X59361904Y-110976247D01*
X59361904Y-110976247D02*
X59361904Y-110595295D01*
X59361904Y-110595295D02*
X59314285Y-110500057D01*
X59314285Y-110500057D02*
X59266666Y-110452438D01*
X59266666Y-110452438D02*
X59171428Y-110404819D01*
X59171428Y-110404819D02*
X58980952Y-110404819D01*
X58980952Y-110404819D02*
X58885714Y-110452438D01*
X58885714Y-110452438D02*
X58838095Y-110500057D01*
X58838095Y-110500057D02*
X58790476Y-110595295D01*
X58790476Y-110595295D02*
X58790476Y-110833390D01*
X58790476Y-110833390D02*
X58838095Y-110928628D01*
X58838095Y-110928628D02*
X58885714Y-110976247D01*
X58885714Y-110976247D02*
X58980952Y-111023866D01*
X58980952Y-111023866D02*
X59171428Y-111023866D01*
X59171428Y-111023866D02*
X59266666Y-110976247D01*
X59266666Y-110976247D02*
X59314285Y-110928628D01*
X59314285Y-110928628D02*
X59361904Y-110833390D01*
X63995833Y-131904819D02*
X63662500Y-131428628D01*
X63424405Y-131904819D02*
X63424405Y-130904819D01*
X63424405Y-130904819D02*
X63805357Y-130904819D01*
X63805357Y-130904819D02*
X63900595Y-130952438D01*
X63900595Y-130952438D02*
X63948214Y-131000057D01*
X63948214Y-131000057D02*
X63995833Y-131095295D01*
X63995833Y-131095295D02*
X63995833Y-131238152D01*
X63995833Y-131238152D02*
X63948214Y-131333390D01*
X63948214Y-131333390D02*
X63900595Y-131381009D01*
X63900595Y-131381009D02*
X63805357Y-131428628D01*
X63805357Y-131428628D02*
X63424405Y-131428628D01*
X64948214Y-131904819D02*
X64376786Y-131904819D01*
X64662500Y-131904819D02*
X64662500Y-130904819D01*
X64662500Y-130904819D02*
X64567262Y-131047676D01*
X64567262Y-131047676D02*
X64472024Y-131142914D01*
X64472024Y-131142914D02*
X64376786Y-131190533D01*
X61207142Y-111404819D02*
X60873809Y-110928628D01*
X60635714Y-111404819D02*
X60635714Y-110404819D01*
X60635714Y-110404819D02*
X61016666Y-110404819D01*
X61016666Y-110404819D02*
X61111904Y-110452438D01*
X61111904Y-110452438D02*
X61159523Y-110500057D01*
X61159523Y-110500057D02*
X61207142Y-110595295D01*
X61207142Y-110595295D02*
X61207142Y-110738152D01*
X61207142Y-110738152D02*
X61159523Y-110833390D01*
X61159523Y-110833390D02*
X61111904Y-110881009D01*
X61111904Y-110881009D02*
X61016666Y-110928628D01*
X61016666Y-110928628D02*
X60635714Y-110928628D01*
X62159523Y-111404819D02*
X61588095Y-111404819D01*
X61873809Y-111404819D02*
X61873809Y-110404819D01*
X61873809Y-110404819D02*
X61778571Y-110547676D01*
X61778571Y-110547676D02*
X61683333Y-110642914D01*
X61683333Y-110642914D02*
X61588095Y-110690533D01*
X63016666Y-110738152D02*
X63016666Y-111404819D01*
X62778571Y-110357200D02*
X62540476Y-111071485D01*
X62540476Y-111071485D02*
X63159523Y-111071485D01*
X68304819Y-100092857D02*
X67828628Y-100426190D01*
X68304819Y-100664285D02*
X67304819Y-100664285D01*
X67304819Y-100664285D02*
X67304819Y-100283333D01*
X67304819Y-100283333D02*
X67352438Y-100188095D01*
X67352438Y-100188095D02*
X67400057Y-100140476D01*
X67400057Y-100140476D02*
X67495295Y-100092857D01*
X67495295Y-100092857D02*
X67638152Y-100092857D01*
X67638152Y-100092857D02*
X67733390Y-100140476D01*
X67733390Y-100140476D02*
X67781009Y-100188095D01*
X67781009Y-100188095D02*
X67828628Y-100283333D01*
X67828628Y-100283333D02*
X67828628Y-100664285D01*
X68304819Y-99140476D02*
X68304819Y-99711904D01*
X68304819Y-99426190D02*
X67304819Y-99426190D01*
X67304819Y-99426190D02*
X67447676Y-99521428D01*
X67447676Y-99521428D02*
X67542914Y-99616666D01*
X67542914Y-99616666D02*
X67590533Y-99711904D01*
X67304819Y-98235714D02*
X67304819Y-98711904D01*
X67304819Y-98711904D02*
X67781009Y-98759523D01*
X67781009Y-98759523D02*
X67733390Y-98711904D01*
X67733390Y-98711904D02*
X67685771Y-98616666D01*
X67685771Y-98616666D02*
X67685771Y-98378571D01*
X67685771Y-98378571D02*
X67733390Y-98283333D01*
X67733390Y-98283333D02*
X67781009Y-98235714D01*
X67781009Y-98235714D02*
X67876247Y-98188095D01*
X67876247Y-98188095D02*
X68114342Y-98188095D01*
X68114342Y-98188095D02*
X68209580Y-98235714D01*
X68209580Y-98235714D02*
X68257200Y-98283333D01*
X68257200Y-98283333D02*
X68304819Y-98378571D01*
X68304819Y-98378571D02*
X68304819Y-98616666D01*
X68304819Y-98616666D02*
X68257200Y-98711904D01*
X68257200Y-98711904D02*
X68209580Y-98759523D01*
X82029167Y-126562295D02*
X81762500Y-126181342D01*
X81572024Y-126562295D02*
X81572024Y-125762295D01*
X81572024Y-125762295D02*
X81876786Y-125762295D01*
X81876786Y-125762295D02*
X81952976Y-125800390D01*
X81952976Y-125800390D02*
X81991071Y-125838485D01*
X81991071Y-125838485D02*
X82029167Y-125914676D01*
X82029167Y-125914676D02*
X82029167Y-126028961D01*
X82029167Y-126028961D02*
X81991071Y-126105152D01*
X81991071Y-126105152D02*
X81952976Y-126143247D01*
X81952976Y-126143247D02*
X81876786Y-126181342D01*
X81876786Y-126181342D02*
X81572024Y-126181342D01*
X82295833Y-125762295D02*
X82829167Y-125762295D01*
X82829167Y-125762295D02*
X82486309Y-126562295D01*
X84240476Y-117412295D02*
X84240476Y-118059914D01*
X84240476Y-118059914D02*
X84278571Y-118136104D01*
X84278571Y-118136104D02*
X84316666Y-118174200D01*
X84316666Y-118174200D02*
X84392857Y-118212295D01*
X84392857Y-118212295D02*
X84545238Y-118212295D01*
X84545238Y-118212295D02*
X84621428Y-118174200D01*
X84621428Y-118174200D02*
X84659523Y-118136104D01*
X84659523Y-118136104D02*
X84697619Y-118059914D01*
X84697619Y-118059914D02*
X84697619Y-117412295D01*
X85002380Y-117412295D02*
X85497618Y-117412295D01*
X85497618Y-117412295D02*
X85230952Y-117717057D01*
X85230952Y-117717057D02*
X85345237Y-117717057D01*
X85345237Y-117717057D02*
X85421428Y-117755152D01*
X85421428Y-117755152D02*
X85459523Y-117793247D01*
X85459523Y-117793247D02*
X85497618Y-117869438D01*
X85497618Y-117869438D02*
X85497618Y-118059914D01*
X85497618Y-118059914D02*
X85459523Y-118136104D01*
X85459523Y-118136104D02*
X85421428Y-118174200D01*
X85421428Y-118174200D02*
X85345237Y-118212295D01*
X85345237Y-118212295D02*
X85116666Y-118212295D01*
X85116666Y-118212295D02*
X85040475Y-118174200D01*
X85040475Y-118174200D02*
X85002380Y-118136104D01*
X78300595Y-114904819D02*
X78300595Y-115714342D01*
X78300595Y-115714342D02*
X78348214Y-115809580D01*
X78348214Y-115809580D02*
X78395833Y-115857200D01*
X78395833Y-115857200D02*
X78491071Y-115904819D01*
X78491071Y-115904819D02*
X78681547Y-115904819D01*
X78681547Y-115904819D02*
X78776785Y-115857200D01*
X78776785Y-115857200D02*
X78824404Y-115809580D01*
X78824404Y-115809580D02*
X78872023Y-115714342D01*
X78872023Y-115714342D02*
X78872023Y-114904819D01*
X79872023Y-115904819D02*
X79300595Y-115904819D01*
X79586309Y-115904819D02*
X79586309Y-114904819D01*
X79586309Y-114904819D02*
X79491071Y-115047676D01*
X79491071Y-115047676D02*
X79395833Y-115142914D01*
X79395833Y-115142914D02*
X79300595Y-115190533D01*
X54554819Y-116961904D02*
X55364342Y-116961904D01*
X55364342Y-116961904D02*
X55459580Y-116914285D01*
X55459580Y-116914285D02*
X55507200Y-116866666D01*
X55507200Y-116866666D02*
X55554819Y-116771428D01*
X55554819Y-116771428D02*
X55554819Y-116580952D01*
X55554819Y-116580952D02*
X55507200Y-116485714D01*
X55507200Y-116485714D02*
X55459580Y-116438095D01*
X55459580Y-116438095D02*
X55364342Y-116390476D01*
X55364342Y-116390476D02*
X54554819Y-116390476D01*
X54888152Y-115485714D02*
X55554819Y-115485714D01*
X54507200Y-115723809D02*
X55221485Y-115961904D01*
X55221485Y-115961904D02*
X55221485Y-115342857D01*
X54433333Y-132104819D02*
X54100000Y-131628628D01*
X53861905Y-132104819D02*
X53861905Y-131104819D01*
X53861905Y-131104819D02*
X54242857Y-131104819D01*
X54242857Y-131104819D02*
X54338095Y-131152438D01*
X54338095Y-131152438D02*
X54385714Y-131200057D01*
X54385714Y-131200057D02*
X54433333Y-131295295D01*
X54433333Y-131295295D02*
X54433333Y-131438152D01*
X54433333Y-131438152D02*
X54385714Y-131533390D01*
X54385714Y-131533390D02*
X54338095Y-131581009D01*
X54338095Y-131581009D02*
X54242857Y-131628628D01*
X54242857Y-131628628D02*
X53861905Y-131628628D01*
X55290476Y-131438152D02*
X55290476Y-132104819D01*
X55052381Y-131057200D02*
X54814286Y-131771485D01*
X54814286Y-131771485D02*
X55433333Y-131771485D01*
X80722080Y-125842857D02*
X80769700Y-125890476D01*
X80769700Y-125890476D02*
X80817319Y-126033333D01*
X80817319Y-126033333D02*
X80817319Y-126128571D01*
X80817319Y-126128571D02*
X80769700Y-126271428D01*
X80769700Y-126271428D02*
X80674461Y-126366666D01*
X80674461Y-126366666D02*
X80579223Y-126414285D01*
X80579223Y-126414285D02*
X80388747Y-126461904D01*
X80388747Y-126461904D02*
X80245890Y-126461904D01*
X80245890Y-126461904D02*
X80055414Y-126414285D01*
X80055414Y-126414285D02*
X79960176Y-126366666D01*
X79960176Y-126366666D02*
X79864938Y-126271428D01*
X79864938Y-126271428D02*
X79817319Y-126128571D01*
X79817319Y-126128571D02*
X79817319Y-126033333D01*
X79817319Y-126033333D02*
X79864938Y-125890476D01*
X79864938Y-125890476D02*
X79912557Y-125842857D01*
X80817319Y-124890476D02*
X80817319Y-125461904D01*
X80817319Y-125176190D02*
X79817319Y-125176190D01*
X79817319Y-125176190D02*
X79960176Y-125271428D01*
X79960176Y-125271428D02*
X80055414Y-125366666D01*
X80055414Y-125366666D02*
X80103033Y-125461904D01*
X79817319Y-124271428D02*
X79817319Y-124176190D01*
X79817319Y-124176190D02*
X79864938Y-124080952D01*
X79864938Y-124080952D02*
X79912557Y-124033333D01*
X79912557Y-124033333D02*
X80007795Y-123985714D01*
X80007795Y-123985714D02*
X80198271Y-123938095D01*
X80198271Y-123938095D02*
X80436366Y-123938095D01*
X80436366Y-123938095D02*
X80626842Y-123985714D01*
X80626842Y-123985714D02*
X80722080Y-124033333D01*
X80722080Y-124033333D02*
X80769700Y-124080952D01*
X80769700Y-124080952D02*
X80817319Y-124176190D01*
X80817319Y-124176190D02*
X80817319Y-124271428D01*
X80817319Y-124271428D02*
X80769700Y-124366666D01*
X80769700Y-124366666D02*
X80722080Y-124414285D01*
X80722080Y-124414285D02*
X80626842Y-124461904D01*
X80626842Y-124461904D02*
X80436366Y-124509523D01*
X80436366Y-124509523D02*
X80198271Y-124509523D01*
X80198271Y-124509523D02*
X80007795Y-124461904D01*
X80007795Y-124461904D02*
X79912557Y-124414285D01*
X79912557Y-124414285D02*
X79864938Y-124366666D01*
X79864938Y-124366666D02*
X79817319Y-124271428D01*
X58804642Y-101774580D02*
X58757023Y-101822200D01*
X58757023Y-101822200D02*
X58614166Y-101869819D01*
X58614166Y-101869819D02*
X58518928Y-101869819D01*
X58518928Y-101869819D02*
X58376071Y-101822200D01*
X58376071Y-101822200D02*
X58280833Y-101726961D01*
X58280833Y-101726961D02*
X58233214Y-101631723D01*
X58233214Y-101631723D02*
X58185595Y-101441247D01*
X58185595Y-101441247D02*
X58185595Y-101298390D01*
X58185595Y-101298390D02*
X58233214Y-101107914D01*
X58233214Y-101107914D02*
X58280833Y-101012676D01*
X58280833Y-101012676D02*
X58376071Y-100917438D01*
X58376071Y-100917438D02*
X58518928Y-100869819D01*
X58518928Y-100869819D02*
X58614166Y-100869819D01*
X58614166Y-100869819D02*
X58757023Y-100917438D01*
X58757023Y-100917438D02*
X58804642Y-100965057D01*
X59757023Y-101869819D02*
X59185595Y-101869819D01*
X59471309Y-101869819D02*
X59471309Y-100869819D01*
X59471309Y-100869819D02*
X59376071Y-101012676D01*
X59376071Y-101012676D02*
X59280833Y-101107914D01*
X59280833Y-101107914D02*
X59185595Y-101155533D01*
X60709404Y-101869819D02*
X60137976Y-101869819D01*
X60423690Y-101869819D02*
X60423690Y-100869819D01*
X60423690Y-100869819D02*
X60328452Y-101012676D01*
X60328452Y-101012676D02*
X60233214Y-101107914D01*
X60233214Y-101107914D02*
X60137976Y-101155533D01*
D11*
X61105080Y-121788095D02*
X60295557Y-121788095D01*
X60295557Y-121788095D02*
X60200319Y-121835714D01*
X60200319Y-121835714D02*
X60152700Y-121883333D01*
X60152700Y-121883333D02*
X60105080Y-121978571D01*
X60105080Y-121978571D02*
X60105080Y-122169047D01*
X60105080Y-122169047D02*
X60152700Y-122264285D01*
X60152700Y-122264285D02*
X60200319Y-122311904D01*
X60200319Y-122311904D02*
X60295557Y-122359523D01*
X60295557Y-122359523D02*
X61105080Y-122359523D01*
X61009842Y-122788095D02*
X61057461Y-122835714D01*
X61057461Y-122835714D02*
X61105080Y-122930952D01*
X61105080Y-122930952D02*
X61105080Y-123169047D01*
X61105080Y-123169047D02*
X61057461Y-123264285D01*
X61057461Y-123264285D02*
X61009842Y-123311904D01*
X61009842Y-123311904D02*
X60914604Y-123359523D01*
X60914604Y-123359523D02*
X60819366Y-123359523D01*
X60819366Y-123359523D02*
X60676509Y-123311904D01*
X60676509Y-123311904D02*
X60105080Y-122740476D01*
X60105080Y-122740476D02*
X60105080Y-123359523D01*
D10*
X58804642Y-97774580D02*
X58757023Y-97822200D01*
X58757023Y-97822200D02*
X58614166Y-97869819D01*
X58614166Y-97869819D02*
X58518928Y-97869819D01*
X58518928Y-97869819D02*
X58376071Y-97822200D01*
X58376071Y-97822200D02*
X58280833Y-97726961D01*
X58280833Y-97726961D02*
X58233214Y-97631723D01*
X58233214Y-97631723D02*
X58185595Y-97441247D01*
X58185595Y-97441247D02*
X58185595Y-97298390D01*
X58185595Y-97298390D02*
X58233214Y-97107914D01*
X58233214Y-97107914D02*
X58280833Y-97012676D01*
X58280833Y-97012676D02*
X58376071Y-96917438D01*
X58376071Y-96917438D02*
X58518928Y-96869819D01*
X58518928Y-96869819D02*
X58614166Y-96869819D01*
X58614166Y-96869819D02*
X58757023Y-96917438D01*
X58757023Y-96917438D02*
X58804642Y-96965057D01*
X59757023Y-97869819D02*
X59185595Y-97869819D01*
X59471309Y-97869819D02*
X59471309Y-96869819D01*
X59471309Y-96869819D02*
X59376071Y-97012676D01*
X59376071Y-97012676D02*
X59280833Y-97107914D01*
X59280833Y-97107914D02*
X59185595Y-97155533D01*
X60137976Y-96965057D02*
X60185595Y-96917438D01*
X60185595Y-96917438D02*
X60280833Y-96869819D01*
X60280833Y-96869819D02*
X60518928Y-96869819D01*
X60518928Y-96869819D02*
X60614166Y-96917438D01*
X60614166Y-96917438D02*
X60661785Y-96965057D01*
X60661785Y-96965057D02*
X60709404Y-97060295D01*
X60709404Y-97060295D02*
X60709404Y-97155533D01*
X60709404Y-97155533D02*
X60661785Y-97298390D01*
X60661785Y-97298390D02*
X60090357Y-97869819D01*
X60090357Y-97869819D02*
X60709404Y-97869819D01*
X54433333Y-130104819D02*
X54100000Y-129628628D01*
X53861905Y-130104819D02*
X53861905Y-129104819D01*
X53861905Y-129104819D02*
X54242857Y-129104819D01*
X54242857Y-129104819D02*
X54338095Y-129152438D01*
X54338095Y-129152438D02*
X54385714Y-129200057D01*
X54385714Y-129200057D02*
X54433333Y-129295295D01*
X54433333Y-129295295D02*
X54433333Y-129438152D01*
X54433333Y-129438152D02*
X54385714Y-129533390D01*
X54385714Y-129533390D02*
X54338095Y-129581009D01*
X54338095Y-129581009D02*
X54242857Y-129628628D01*
X54242857Y-129628628D02*
X53861905Y-129628628D01*
X54814286Y-129200057D02*
X54861905Y-129152438D01*
X54861905Y-129152438D02*
X54957143Y-129104819D01*
X54957143Y-129104819D02*
X55195238Y-129104819D01*
X55195238Y-129104819D02*
X55290476Y-129152438D01*
X55290476Y-129152438D02*
X55338095Y-129200057D01*
X55338095Y-129200057D02*
X55385714Y-129295295D01*
X55385714Y-129295295D02*
X55385714Y-129390533D01*
X55385714Y-129390533D02*
X55338095Y-129533390D01*
X55338095Y-129533390D02*
X54766667Y-130104819D01*
X54766667Y-130104819D02*
X55385714Y-130104819D01*
X84433333Y-109404819D02*
X84100000Y-108928628D01*
X83861905Y-109404819D02*
X83861905Y-108404819D01*
X83861905Y-108404819D02*
X84242857Y-108404819D01*
X84242857Y-108404819D02*
X84338095Y-108452438D01*
X84338095Y-108452438D02*
X84385714Y-108500057D01*
X84385714Y-108500057D02*
X84433333Y-108595295D01*
X84433333Y-108595295D02*
X84433333Y-108738152D01*
X84433333Y-108738152D02*
X84385714Y-108833390D01*
X84385714Y-108833390D02*
X84338095Y-108881009D01*
X84338095Y-108881009D02*
X84242857Y-108928628D01*
X84242857Y-108928628D02*
X83861905Y-108928628D01*
X84909524Y-109404819D02*
X85100000Y-109404819D01*
X85100000Y-109404819D02*
X85195238Y-109357200D01*
X85195238Y-109357200D02*
X85242857Y-109309580D01*
X85242857Y-109309580D02*
X85338095Y-109166723D01*
X85338095Y-109166723D02*
X85385714Y-108976247D01*
X85385714Y-108976247D02*
X85385714Y-108595295D01*
X85385714Y-108595295D02*
X85338095Y-108500057D01*
X85338095Y-108500057D02*
X85290476Y-108452438D01*
X85290476Y-108452438D02*
X85195238Y-108404819D01*
X85195238Y-108404819D02*
X85004762Y-108404819D01*
X85004762Y-108404819D02*
X84909524Y-108452438D01*
X84909524Y-108452438D02*
X84861905Y-108500057D01*
X84861905Y-108500057D02*
X84814286Y-108595295D01*
X84814286Y-108595295D02*
X84814286Y-108833390D01*
X84814286Y-108833390D02*
X84861905Y-108928628D01*
X84861905Y-108928628D02*
X84909524Y-108976247D01*
X84909524Y-108976247D02*
X85004762Y-109023866D01*
X85004762Y-109023866D02*
X85195238Y-109023866D01*
X85195238Y-109023866D02*
X85290476Y-108976247D01*
X85290476Y-108976247D02*
X85338095Y-108928628D01*
X85338095Y-108928628D02*
X85385714Y-108833390D01*
X54433333Y-125559580D02*
X54385714Y-125607200D01*
X54385714Y-125607200D02*
X54242857Y-125654819D01*
X54242857Y-125654819D02*
X54147619Y-125654819D01*
X54147619Y-125654819D02*
X54004762Y-125607200D01*
X54004762Y-125607200D02*
X53909524Y-125511961D01*
X53909524Y-125511961D02*
X53861905Y-125416723D01*
X53861905Y-125416723D02*
X53814286Y-125226247D01*
X53814286Y-125226247D02*
X53814286Y-125083390D01*
X53814286Y-125083390D02*
X53861905Y-124892914D01*
X53861905Y-124892914D02*
X53909524Y-124797676D01*
X53909524Y-124797676D02*
X54004762Y-124702438D01*
X54004762Y-124702438D02*
X54147619Y-124654819D01*
X54147619Y-124654819D02*
X54242857Y-124654819D01*
X54242857Y-124654819D02*
X54385714Y-124702438D01*
X54385714Y-124702438D02*
X54433333Y-124750057D01*
X55290476Y-124988152D02*
X55290476Y-125654819D01*
X55052381Y-124607200D02*
X54814286Y-125321485D01*
X54814286Y-125321485D02*
X55433333Y-125321485D01*
D11*
X66219919Y-130091666D02*
X66219919Y-130567856D01*
X66219919Y-130567856D02*
X65219919Y-130567856D01*
X66219919Y-129234523D02*
X66219919Y-129805951D01*
X66219919Y-129520237D02*
X65219919Y-129520237D01*
X65219919Y-129520237D02*
X65362776Y-129615475D01*
X65362776Y-129615475D02*
X65458014Y-129710713D01*
X65458014Y-129710713D02*
X65505633Y-129805951D01*
D10*
X84029167Y-126562295D02*
X83762500Y-126181342D01*
X83572024Y-126562295D02*
X83572024Y-125762295D01*
X83572024Y-125762295D02*
X83876786Y-125762295D01*
X83876786Y-125762295D02*
X83952976Y-125800390D01*
X83952976Y-125800390D02*
X83991071Y-125838485D01*
X83991071Y-125838485D02*
X84029167Y-125914676D01*
X84029167Y-125914676D02*
X84029167Y-126028961D01*
X84029167Y-126028961D02*
X83991071Y-126105152D01*
X83991071Y-126105152D02*
X83952976Y-126143247D01*
X83952976Y-126143247D02*
X83876786Y-126181342D01*
X83876786Y-126181342D02*
X83572024Y-126181342D01*
X84714881Y-125762295D02*
X84562500Y-125762295D01*
X84562500Y-125762295D02*
X84486309Y-125800390D01*
X84486309Y-125800390D02*
X84448214Y-125838485D01*
X84448214Y-125838485D02*
X84372024Y-125952771D01*
X84372024Y-125952771D02*
X84333928Y-126105152D01*
X84333928Y-126105152D02*
X84333928Y-126409914D01*
X84333928Y-126409914D02*
X84372024Y-126486104D01*
X84372024Y-126486104D02*
X84410119Y-126524200D01*
X84410119Y-126524200D02*
X84486309Y-126562295D01*
X84486309Y-126562295D02*
X84638690Y-126562295D01*
X84638690Y-126562295D02*
X84714881Y-126524200D01*
X84714881Y-126524200D02*
X84752976Y-126486104D01*
X84752976Y-126486104D02*
X84791071Y-126409914D01*
X84791071Y-126409914D02*
X84791071Y-126219438D01*
X84791071Y-126219438D02*
X84752976Y-126143247D01*
X84752976Y-126143247D02*
X84714881Y-126105152D01*
X84714881Y-126105152D02*
X84638690Y-126067057D01*
X84638690Y-126067057D02*
X84486309Y-126067057D01*
X84486309Y-126067057D02*
X84410119Y-126105152D01*
X84410119Y-126105152D02*
X84372024Y-126143247D01*
X84372024Y-126143247D02*
X84333928Y-126219438D01*
X63995833Y-130104819D02*
X63662500Y-129628628D01*
X63424405Y-130104819D02*
X63424405Y-129104819D01*
X63424405Y-129104819D02*
X63805357Y-129104819D01*
X63805357Y-129104819D02*
X63900595Y-129152438D01*
X63900595Y-129152438D02*
X63948214Y-129200057D01*
X63948214Y-129200057D02*
X63995833Y-129295295D01*
X63995833Y-129295295D02*
X63995833Y-129438152D01*
X63995833Y-129438152D02*
X63948214Y-129533390D01*
X63948214Y-129533390D02*
X63900595Y-129581009D01*
X63900595Y-129581009D02*
X63805357Y-129628628D01*
X63805357Y-129628628D02*
X63424405Y-129628628D01*
X64900595Y-129104819D02*
X64424405Y-129104819D01*
X64424405Y-129104819D02*
X64376786Y-129581009D01*
X64376786Y-129581009D02*
X64424405Y-129533390D01*
X64424405Y-129533390D02*
X64519643Y-129485771D01*
X64519643Y-129485771D02*
X64757738Y-129485771D01*
X64757738Y-129485771D02*
X64852976Y-129533390D01*
X64852976Y-129533390D02*
X64900595Y-129581009D01*
X64900595Y-129581009D02*
X64948214Y-129676247D01*
X64948214Y-129676247D02*
X64948214Y-129914342D01*
X64948214Y-129914342D02*
X64900595Y-130009580D01*
X64900595Y-130009580D02*
X64852976Y-130057200D01*
X64852976Y-130057200D02*
X64757738Y-130104819D01*
X64757738Y-130104819D02*
X64519643Y-130104819D01*
X64519643Y-130104819D02*
X64424405Y-130057200D01*
X64424405Y-130057200D02*
X64376786Y-130009580D01*
X71819642Y-135504819D02*
X71486309Y-135028628D01*
X71248214Y-135504819D02*
X71248214Y-134504819D01*
X71248214Y-134504819D02*
X71629166Y-134504819D01*
X71629166Y-134504819D02*
X71724404Y-134552438D01*
X71724404Y-134552438D02*
X71772023Y-134600057D01*
X71772023Y-134600057D02*
X71819642Y-134695295D01*
X71819642Y-134695295D02*
X71819642Y-134838152D01*
X71819642Y-134838152D02*
X71772023Y-134933390D01*
X71772023Y-134933390D02*
X71724404Y-134981009D01*
X71724404Y-134981009D02*
X71629166Y-135028628D01*
X71629166Y-135028628D02*
X71248214Y-135028628D01*
X72772023Y-135504819D02*
X72200595Y-135504819D01*
X72486309Y-135504819D02*
X72486309Y-134504819D01*
X72486309Y-134504819D02*
X72391071Y-134647676D01*
X72391071Y-134647676D02*
X72295833Y-134742914D01*
X72295833Y-134742914D02*
X72200595Y-134790533D01*
X73152976Y-134600057D02*
X73200595Y-134552438D01*
X73200595Y-134552438D02*
X73295833Y-134504819D01*
X73295833Y-134504819D02*
X73533928Y-134504819D01*
X73533928Y-134504819D02*
X73629166Y-134552438D01*
X73629166Y-134552438D02*
X73676785Y-134600057D01*
X73676785Y-134600057D02*
X73724404Y-134695295D01*
X73724404Y-134695295D02*
X73724404Y-134790533D01*
X73724404Y-134790533D02*
X73676785Y-134933390D01*
X73676785Y-134933390D02*
X73105357Y-135504819D01*
X73105357Y-135504819D02*
X73724404Y-135504819D01*
X71910776Y-121537619D02*
X72428871Y-121537619D01*
X72428871Y-121537619D02*
X72489823Y-121507142D01*
X72489823Y-121507142D02*
X72520300Y-121476666D01*
X72520300Y-121476666D02*
X72550776Y-121415714D01*
X72550776Y-121415714D02*
X72550776Y-121293809D01*
X72550776Y-121293809D02*
X72520300Y-121232857D01*
X72520300Y-121232857D02*
X72489823Y-121202380D01*
X72489823Y-121202380D02*
X72428871Y-121171904D01*
X72428871Y-121171904D02*
X71910776Y-121171904D01*
X71910776Y-120562381D02*
X71910776Y-120867143D01*
X71910776Y-120867143D02*
X72215538Y-120897619D01*
X72215538Y-120897619D02*
X72185061Y-120867143D01*
X72185061Y-120867143D02*
X72154585Y-120806190D01*
X72154585Y-120806190D02*
X72154585Y-120653809D01*
X72154585Y-120653809D02*
X72185061Y-120592857D01*
X72185061Y-120592857D02*
X72215538Y-120562381D01*
X72215538Y-120562381D02*
X72276490Y-120531904D01*
X72276490Y-120531904D02*
X72428871Y-120531904D01*
X72428871Y-120531904D02*
X72489823Y-120562381D01*
X72489823Y-120562381D02*
X72520300Y-120592857D01*
X72520300Y-120592857D02*
X72550776Y-120653809D01*
X72550776Y-120653809D02*
X72550776Y-120806190D01*
X72550776Y-120806190D02*
X72520300Y-120867143D01*
X72520300Y-120867143D02*
X72489823Y-120897619D01*
X80433333Y-132059580D02*
X80385714Y-132107200D01*
X80385714Y-132107200D02*
X80242857Y-132154819D01*
X80242857Y-132154819D02*
X80147619Y-132154819D01*
X80147619Y-132154819D02*
X80004762Y-132107200D01*
X80004762Y-132107200D02*
X79909524Y-132011961D01*
X79909524Y-132011961D02*
X79861905Y-131916723D01*
X79861905Y-131916723D02*
X79814286Y-131726247D01*
X79814286Y-131726247D02*
X79814286Y-131583390D01*
X79814286Y-131583390D02*
X79861905Y-131392914D01*
X79861905Y-131392914D02*
X79909524Y-131297676D01*
X79909524Y-131297676D02*
X80004762Y-131202438D01*
X80004762Y-131202438D02*
X80147619Y-131154819D01*
X80147619Y-131154819D02*
X80242857Y-131154819D01*
X80242857Y-131154819D02*
X80385714Y-131202438D01*
X80385714Y-131202438D02*
X80433333Y-131250057D01*
X80766667Y-131154819D02*
X81433333Y-131154819D01*
X81433333Y-131154819D02*
X81004762Y-132154819D01*
X80395833Y-135559580D02*
X80348214Y-135607200D01*
X80348214Y-135607200D02*
X80205357Y-135654819D01*
X80205357Y-135654819D02*
X80110119Y-135654819D01*
X80110119Y-135654819D02*
X79967262Y-135607200D01*
X79967262Y-135607200D02*
X79872024Y-135511961D01*
X79872024Y-135511961D02*
X79824405Y-135416723D01*
X79824405Y-135416723D02*
X79776786Y-135226247D01*
X79776786Y-135226247D02*
X79776786Y-135083390D01*
X79776786Y-135083390D02*
X79824405Y-134892914D01*
X79824405Y-134892914D02*
X79872024Y-134797676D01*
X79872024Y-134797676D02*
X79967262Y-134702438D01*
X79967262Y-134702438D02*
X80110119Y-134654819D01*
X80110119Y-134654819D02*
X80205357Y-134654819D01*
X80205357Y-134654819D02*
X80348214Y-134702438D01*
X80348214Y-134702438D02*
X80395833Y-134750057D01*
X80967262Y-135083390D02*
X80872024Y-135035771D01*
X80872024Y-135035771D02*
X80824405Y-134988152D01*
X80824405Y-134988152D02*
X80776786Y-134892914D01*
X80776786Y-134892914D02*
X80776786Y-134845295D01*
X80776786Y-134845295D02*
X80824405Y-134750057D01*
X80824405Y-134750057D02*
X80872024Y-134702438D01*
X80872024Y-134702438D02*
X80967262Y-134654819D01*
X80967262Y-134654819D02*
X81157738Y-134654819D01*
X81157738Y-134654819D02*
X81252976Y-134702438D01*
X81252976Y-134702438D02*
X81300595Y-134750057D01*
X81300595Y-134750057D02*
X81348214Y-134845295D01*
X81348214Y-134845295D02*
X81348214Y-134892914D01*
X81348214Y-134892914D02*
X81300595Y-134988152D01*
X81300595Y-134988152D02*
X81252976Y-135035771D01*
X81252976Y-135035771D02*
X81157738Y-135083390D01*
X81157738Y-135083390D02*
X80967262Y-135083390D01*
X80967262Y-135083390D02*
X80872024Y-135131009D01*
X80872024Y-135131009D02*
X80824405Y-135178628D01*
X80824405Y-135178628D02*
X80776786Y-135273866D01*
X80776786Y-135273866D02*
X80776786Y-135464342D01*
X80776786Y-135464342D02*
X80824405Y-135559580D01*
X80824405Y-135559580D02*
X80872024Y-135607200D01*
X80872024Y-135607200D02*
X80967262Y-135654819D01*
X80967262Y-135654819D02*
X81157738Y-135654819D01*
X81157738Y-135654819D02*
X81252976Y-135607200D01*
X81252976Y-135607200D02*
X81300595Y-135559580D01*
X81300595Y-135559580D02*
X81348214Y-135464342D01*
X81348214Y-135464342D02*
X81348214Y-135273866D01*
X81348214Y-135273866D02*
X81300595Y-135178628D01*
X81300595Y-135178628D02*
X81252976Y-135131009D01*
X81252976Y-135131009D02*
X81157738Y-135083390D01*
X71819642Y-134204819D02*
X71486309Y-133728628D01*
X71248214Y-134204819D02*
X71248214Y-133204819D01*
X71248214Y-133204819D02*
X71629166Y-133204819D01*
X71629166Y-133204819D02*
X71724404Y-133252438D01*
X71724404Y-133252438D02*
X71772023Y-133300057D01*
X71772023Y-133300057D02*
X71819642Y-133395295D01*
X71819642Y-133395295D02*
X71819642Y-133538152D01*
X71819642Y-133538152D02*
X71772023Y-133633390D01*
X71772023Y-133633390D02*
X71724404Y-133681009D01*
X71724404Y-133681009D02*
X71629166Y-133728628D01*
X71629166Y-133728628D02*
X71248214Y-133728628D01*
X72772023Y-134204819D02*
X72200595Y-134204819D01*
X72486309Y-134204819D02*
X72486309Y-133204819D01*
X72486309Y-133204819D02*
X72391071Y-133347676D01*
X72391071Y-133347676D02*
X72295833Y-133442914D01*
X72295833Y-133442914D02*
X72200595Y-133490533D01*
X73105357Y-133204819D02*
X73724404Y-133204819D01*
X73724404Y-133204819D02*
X73391071Y-133585771D01*
X73391071Y-133585771D02*
X73533928Y-133585771D01*
X73533928Y-133585771D02*
X73629166Y-133633390D01*
X73629166Y-133633390D02*
X73676785Y-133681009D01*
X73676785Y-133681009D02*
X73724404Y-133776247D01*
X73724404Y-133776247D02*
X73724404Y-134014342D01*
X73724404Y-134014342D02*
X73676785Y-134109580D01*
X73676785Y-134109580D02*
X73629166Y-134157200D01*
X73629166Y-134157200D02*
X73533928Y-134204819D01*
X73533928Y-134204819D02*
X73248214Y-134204819D01*
X73248214Y-134204819D02*
X73152976Y-134157200D01*
X73152976Y-134157200D02*
X73105357Y-134109580D01*
X80000595Y-129404819D02*
X80000595Y-130214342D01*
X80000595Y-130214342D02*
X80048214Y-130309580D01*
X80048214Y-130309580D02*
X80095833Y-130357200D01*
X80095833Y-130357200D02*
X80191071Y-130404819D01*
X80191071Y-130404819D02*
X80381547Y-130404819D01*
X80381547Y-130404819D02*
X80476785Y-130357200D01*
X80476785Y-130357200D02*
X80524404Y-130309580D01*
X80524404Y-130309580D02*
X80572023Y-130214342D01*
X80572023Y-130214342D02*
X80572023Y-129404819D01*
X81476785Y-129404819D02*
X81286309Y-129404819D01*
X81286309Y-129404819D02*
X81191071Y-129452438D01*
X81191071Y-129452438D02*
X81143452Y-129500057D01*
X81143452Y-129500057D02*
X81048214Y-129642914D01*
X81048214Y-129642914D02*
X81000595Y-129833390D01*
X81000595Y-129833390D02*
X81000595Y-130214342D01*
X81000595Y-130214342D02*
X81048214Y-130309580D01*
X81048214Y-130309580D02*
X81095833Y-130357200D01*
X81095833Y-130357200D02*
X81191071Y-130404819D01*
X81191071Y-130404819D02*
X81381547Y-130404819D01*
X81381547Y-130404819D02*
X81476785Y-130357200D01*
X81476785Y-130357200D02*
X81524404Y-130309580D01*
X81524404Y-130309580D02*
X81572023Y-130214342D01*
X81572023Y-130214342D02*
X81572023Y-129976247D01*
X81572023Y-129976247D02*
X81524404Y-129881009D01*
X81524404Y-129881009D02*
X81476785Y-129833390D01*
X81476785Y-129833390D02*
X81381547Y-129785771D01*
X81381547Y-129785771D02*
X81191071Y-129785771D01*
X81191071Y-129785771D02*
X81095833Y-129833390D01*
X81095833Y-129833390D02*
X81048214Y-129881009D01*
X81048214Y-129881009D02*
X81000595Y-129976247D01*
X68133333Y-135739580D02*
X68085714Y-135787200D01*
X68085714Y-135787200D02*
X67942857Y-135834819D01*
X67942857Y-135834819D02*
X67847619Y-135834819D01*
X67847619Y-135834819D02*
X67704762Y-135787200D01*
X67704762Y-135787200D02*
X67609524Y-135691961D01*
X67609524Y-135691961D02*
X67561905Y-135596723D01*
X67561905Y-135596723D02*
X67514286Y-135406247D01*
X67514286Y-135406247D02*
X67514286Y-135263390D01*
X67514286Y-135263390D02*
X67561905Y-135072914D01*
X67561905Y-135072914D02*
X67609524Y-134977676D01*
X67609524Y-134977676D02*
X67704762Y-134882438D01*
X67704762Y-134882438D02*
X67847619Y-134834819D01*
X67847619Y-134834819D02*
X67942857Y-134834819D01*
X67942857Y-134834819D02*
X68085714Y-134882438D01*
X68085714Y-134882438D02*
X68133333Y-134930057D01*
X68514286Y-134930057D02*
X68561905Y-134882438D01*
X68561905Y-134882438D02*
X68657143Y-134834819D01*
X68657143Y-134834819D02*
X68895238Y-134834819D01*
X68895238Y-134834819D02*
X68990476Y-134882438D01*
X68990476Y-134882438D02*
X69038095Y-134930057D01*
X69038095Y-134930057D02*
X69085714Y-135025295D01*
X69085714Y-135025295D02*
X69085714Y-135120533D01*
X69085714Y-135120533D02*
X69038095Y-135263390D01*
X69038095Y-135263390D02*
X68466667Y-135834819D01*
X68466667Y-135834819D02*
X69085714Y-135834819D01*
X78395833Y-117509580D02*
X78348214Y-117557200D01*
X78348214Y-117557200D02*
X78205357Y-117604819D01*
X78205357Y-117604819D02*
X78110119Y-117604819D01*
X78110119Y-117604819D02*
X77967262Y-117557200D01*
X77967262Y-117557200D02*
X77872024Y-117461961D01*
X77872024Y-117461961D02*
X77824405Y-117366723D01*
X77824405Y-117366723D02*
X77776786Y-117176247D01*
X77776786Y-117176247D02*
X77776786Y-117033390D01*
X77776786Y-117033390D02*
X77824405Y-116842914D01*
X77824405Y-116842914D02*
X77872024Y-116747676D01*
X77872024Y-116747676D02*
X77967262Y-116652438D01*
X77967262Y-116652438D02*
X78110119Y-116604819D01*
X78110119Y-116604819D02*
X78205357Y-116604819D01*
X78205357Y-116604819D02*
X78348214Y-116652438D01*
X78348214Y-116652438D02*
X78395833Y-116700057D01*
X79252976Y-116604819D02*
X79062500Y-116604819D01*
X79062500Y-116604819D02*
X78967262Y-116652438D01*
X78967262Y-116652438D02*
X78919643Y-116700057D01*
X78919643Y-116700057D02*
X78824405Y-116842914D01*
X78824405Y-116842914D02*
X78776786Y-117033390D01*
X78776786Y-117033390D02*
X78776786Y-117414342D01*
X78776786Y-117414342D02*
X78824405Y-117509580D01*
X78824405Y-117509580D02*
X78872024Y-117557200D01*
X78872024Y-117557200D02*
X78967262Y-117604819D01*
X78967262Y-117604819D02*
X79157738Y-117604819D01*
X79157738Y-117604819D02*
X79252976Y-117557200D01*
X79252976Y-117557200D02*
X79300595Y-117509580D01*
X79300595Y-117509580D02*
X79348214Y-117414342D01*
X79348214Y-117414342D02*
X79348214Y-117176247D01*
X79348214Y-117176247D02*
X79300595Y-117081009D01*
X79300595Y-117081009D02*
X79252976Y-117033390D01*
X79252976Y-117033390D02*
X79157738Y-116985771D01*
X79157738Y-116985771D02*
X78967262Y-116985771D01*
X78967262Y-116985771D02*
X78872024Y-117033390D01*
X78872024Y-117033390D02*
X78824405Y-117081009D01*
X78824405Y-117081009D02*
X78776786Y-117176247D01*
X54683333Y-127704819D02*
X54350000Y-127228628D01*
X54111905Y-127704819D02*
X54111905Y-126704819D01*
X54111905Y-126704819D02*
X54492857Y-126704819D01*
X54492857Y-126704819D02*
X54588095Y-126752438D01*
X54588095Y-126752438D02*
X54635714Y-126800057D01*
X54635714Y-126800057D02*
X54683333Y-126895295D01*
X54683333Y-126895295D02*
X54683333Y-127038152D01*
X54683333Y-127038152D02*
X54635714Y-127133390D01*
X54635714Y-127133390D02*
X54588095Y-127181009D01*
X54588095Y-127181009D02*
X54492857Y-127228628D01*
X54492857Y-127228628D02*
X54111905Y-127228628D01*
X55016667Y-126704819D02*
X55635714Y-126704819D01*
X55635714Y-126704819D02*
X55302381Y-127085771D01*
X55302381Y-127085771D02*
X55445238Y-127085771D01*
X55445238Y-127085771D02*
X55540476Y-127133390D01*
X55540476Y-127133390D02*
X55588095Y-127181009D01*
X55588095Y-127181009D02*
X55635714Y-127276247D01*
X55635714Y-127276247D02*
X55635714Y-127514342D01*
X55635714Y-127514342D02*
X55588095Y-127609580D01*
X55588095Y-127609580D02*
X55540476Y-127657200D01*
X55540476Y-127657200D02*
X55445238Y-127704819D01*
X55445238Y-127704819D02*
X55159524Y-127704819D01*
X55159524Y-127704819D02*
X55064286Y-127657200D01*
X55064286Y-127657200D02*
X55016667Y-127609580D01*
X65712557Y-127145238D02*
X65664938Y-127240476D01*
X65664938Y-127240476D02*
X65569700Y-127335714D01*
X65569700Y-127335714D02*
X65426842Y-127478571D01*
X65426842Y-127478571D02*
X65379223Y-127573809D01*
X65379223Y-127573809D02*
X65379223Y-127669047D01*
X65617319Y-127621428D02*
X65569700Y-127716666D01*
X65569700Y-127716666D02*
X65474461Y-127811904D01*
X65474461Y-127811904D02*
X65283985Y-127859523D01*
X65283985Y-127859523D02*
X64950652Y-127859523D01*
X64950652Y-127859523D02*
X64760176Y-127811904D01*
X64760176Y-127811904D02*
X64664938Y-127716666D01*
X64664938Y-127716666D02*
X64617319Y-127621428D01*
X64617319Y-127621428D02*
X64617319Y-127430952D01*
X64617319Y-127430952D02*
X64664938Y-127335714D01*
X64664938Y-127335714D02*
X64760176Y-127240476D01*
X64760176Y-127240476D02*
X64950652Y-127192857D01*
X64950652Y-127192857D02*
X65283985Y-127192857D01*
X65283985Y-127192857D02*
X65474461Y-127240476D01*
X65474461Y-127240476D02*
X65569700Y-127335714D01*
X65569700Y-127335714D02*
X65617319Y-127430952D01*
X65617319Y-127430952D02*
X65617319Y-127621428D01*
X65617319Y-126240476D02*
X65617319Y-126811904D01*
X65617319Y-126526190D02*
X64617319Y-126526190D01*
X64617319Y-126526190D02*
X64760176Y-126621428D01*
X64760176Y-126621428D02*
X64855414Y-126716666D01*
X64855414Y-126716666D02*
X64903033Y-126811904D01*
X84683333Y-111559580D02*
X84635714Y-111607200D01*
X84635714Y-111607200D02*
X84492857Y-111654819D01*
X84492857Y-111654819D02*
X84397619Y-111654819D01*
X84397619Y-111654819D02*
X84254762Y-111607200D01*
X84254762Y-111607200D02*
X84159524Y-111511961D01*
X84159524Y-111511961D02*
X84111905Y-111416723D01*
X84111905Y-111416723D02*
X84064286Y-111226247D01*
X84064286Y-111226247D02*
X84064286Y-111083390D01*
X84064286Y-111083390D02*
X84111905Y-110892914D01*
X84111905Y-110892914D02*
X84159524Y-110797676D01*
X84159524Y-110797676D02*
X84254762Y-110702438D01*
X84254762Y-110702438D02*
X84397619Y-110654819D01*
X84397619Y-110654819D02*
X84492857Y-110654819D01*
X84492857Y-110654819D02*
X84635714Y-110702438D01*
X84635714Y-110702438D02*
X84683333Y-110750057D01*
X85635714Y-111654819D02*
X85064286Y-111654819D01*
X85350000Y-111654819D02*
X85350000Y-110654819D01*
X85350000Y-110654819D02*
X85254762Y-110797676D01*
X85254762Y-110797676D02*
X85159524Y-110892914D01*
X85159524Y-110892914D02*
X85064286Y-110940533D01*
X54433333Y-133909580D02*
X54385714Y-133957200D01*
X54385714Y-133957200D02*
X54242857Y-134004819D01*
X54242857Y-134004819D02*
X54147619Y-134004819D01*
X54147619Y-134004819D02*
X54004762Y-133957200D01*
X54004762Y-133957200D02*
X53909524Y-133861961D01*
X53909524Y-133861961D02*
X53861905Y-133766723D01*
X53861905Y-133766723D02*
X53814286Y-133576247D01*
X53814286Y-133576247D02*
X53814286Y-133433390D01*
X53814286Y-133433390D02*
X53861905Y-133242914D01*
X53861905Y-133242914D02*
X53909524Y-133147676D01*
X53909524Y-133147676D02*
X54004762Y-133052438D01*
X54004762Y-133052438D02*
X54147619Y-133004819D01*
X54147619Y-133004819D02*
X54242857Y-133004819D01*
X54242857Y-133004819D02*
X54385714Y-133052438D01*
X54385714Y-133052438D02*
X54433333Y-133100057D01*
X55338095Y-133004819D02*
X54861905Y-133004819D01*
X54861905Y-133004819D02*
X54814286Y-133481009D01*
X54814286Y-133481009D02*
X54861905Y-133433390D01*
X54861905Y-133433390D02*
X54957143Y-133385771D01*
X54957143Y-133385771D02*
X55195238Y-133385771D01*
X55195238Y-133385771D02*
X55290476Y-133433390D01*
X55290476Y-133433390D02*
X55338095Y-133481009D01*
X55338095Y-133481009D02*
X55385714Y-133576247D01*
X55385714Y-133576247D02*
X55385714Y-133814342D01*
X55385714Y-133814342D02*
X55338095Y-133909580D01*
X55338095Y-133909580D02*
X55290476Y-133957200D01*
X55290476Y-133957200D02*
X55195238Y-134004819D01*
X55195238Y-134004819D02*
X54957143Y-134004819D01*
X54957143Y-134004819D02*
X54861905Y-133957200D01*
X54861905Y-133957200D02*
X54814286Y-133909580D01*
X77495833Y-122704819D02*
X77162500Y-122228628D01*
X76924405Y-122704819D02*
X76924405Y-121704819D01*
X76924405Y-121704819D02*
X77305357Y-121704819D01*
X77305357Y-121704819D02*
X77400595Y-121752438D01*
X77400595Y-121752438D02*
X77448214Y-121800057D01*
X77448214Y-121800057D02*
X77495833Y-121895295D01*
X77495833Y-121895295D02*
X77495833Y-122038152D01*
X77495833Y-122038152D02*
X77448214Y-122133390D01*
X77448214Y-122133390D02*
X77400595Y-122181009D01*
X77400595Y-122181009D02*
X77305357Y-122228628D01*
X77305357Y-122228628D02*
X76924405Y-122228628D01*
X78067262Y-122133390D02*
X77972024Y-122085771D01*
X77972024Y-122085771D02*
X77924405Y-122038152D01*
X77924405Y-122038152D02*
X77876786Y-121942914D01*
X77876786Y-121942914D02*
X77876786Y-121895295D01*
X77876786Y-121895295D02*
X77924405Y-121800057D01*
X77924405Y-121800057D02*
X77972024Y-121752438D01*
X77972024Y-121752438D02*
X78067262Y-121704819D01*
X78067262Y-121704819D02*
X78257738Y-121704819D01*
X78257738Y-121704819D02*
X78352976Y-121752438D01*
X78352976Y-121752438D02*
X78400595Y-121800057D01*
X78400595Y-121800057D02*
X78448214Y-121895295D01*
X78448214Y-121895295D02*
X78448214Y-121942914D01*
X78448214Y-121942914D02*
X78400595Y-122038152D01*
X78400595Y-122038152D02*
X78352976Y-122085771D01*
X78352976Y-122085771D02*
X78257738Y-122133390D01*
X78257738Y-122133390D02*
X78067262Y-122133390D01*
X78067262Y-122133390D02*
X77972024Y-122181009D01*
X77972024Y-122181009D02*
X77924405Y-122228628D01*
X77924405Y-122228628D02*
X77876786Y-122323866D01*
X77876786Y-122323866D02*
X77876786Y-122514342D01*
X77876786Y-122514342D02*
X77924405Y-122609580D01*
X77924405Y-122609580D02*
X77972024Y-122657200D01*
X77972024Y-122657200D02*
X78067262Y-122704819D01*
X78067262Y-122704819D02*
X78257738Y-122704819D01*
X78257738Y-122704819D02*
X78352976Y-122657200D01*
X78352976Y-122657200D02*
X78400595Y-122609580D01*
X78400595Y-122609580D02*
X78448214Y-122514342D01*
X78448214Y-122514342D02*
X78448214Y-122323866D01*
X78448214Y-122323866D02*
X78400595Y-122228628D01*
X78400595Y-122228628D02*
X78352976Y-122181009D01*
X78352976Y-122181009D02*
X78257738Y-122133390D01*
X58804642Y-99769819D02*
X58471309Y-99293628D01*
X58233214Y-99769819D02*
X58233214Y-98769819D01*
X58233214Y-98769819D02*
X58614166Y-98769819D01*
X58614166Y-98769819D02*
X58709404Y-98817438D01*
X58709404Y-98817438D02*
X58757023Y-98865057D01*
X58757023Y-98865057D02*
X58804642Y-98960295D01*
X58804642Y-98960295D02*
X58804642Y-99103152D01*
X58804642Y-99103152D02*
X58757023Y-99198390D01*
X58757023Y-99198390D02*
X58709404Y-99246009D01*
X58709404Y-99246009D02*
X58614166Y-99293628D01*
X58614166Y-99293628D02*
X58233214Y-99293628D01*
X59757023Y-99769819D02*
X59185595Y-99769819D01*
X59471309Y-99769819D02*
X59471309Y-98769819D01*
X59471309Y-98769819D02*
X59376071Y-98912676D01*
X59376071Y-98912676D02*
X59280833Y-99007914D01*
X59280833Y-99007914D02*
X59185595Y-99055533D01*
X60614166Y-98769819D02*
X60423690Y-98769819D01*
X60423690Y-98769819D02*
X60328452Y-98817438D01*
X60328452Y-98817438D02*
X60280833Y-98865057D01*
X60280833Y-98865057D02*
X60185595Y-99007914D01*
X60185595Y-99007914D02*
X60137976Y-99198390D01*
X60137976Y-99198390D02*
X60137976Y-99579342D01*
X60137976Y-99579342D02*
X60185595Y-99674580D01*
X60185595Y-99674580D02*
X60233214Y-99722200D01*
X60233214Y-99722200D02*
X60328452Y-99769819D01*
X60328452Y-99769819D02*
X60518928Y-99769819D01*
X60518928Y-99769819D02*
X60614166Y-99722200D01*
X60614166Y-99722200D02*
X60661785Y-99674580D01*
X60661785Y-99674580D02*
X60709404Y-99579342D01*
X60709404Y-99579342D02*
X60709404Y-99341247D01*
X60709404Y-99341247D02*
X60661785Y-99246009D01*
X60661785Y-99246009D02*
X60614166Y-99198390D01*
X60614166Y-99198390D02*
X60518928Y-99150771D01*
X60518928Y-99150771D02*
X60328452Y-99150771D01*
X60328452Y-99150771D02*
X60233214Y-99198390D01*
X60233214Y-99198390D02*
X60185595Y-99246009D01*
X60185595Y-99246009D02*
X60137976Y-99341247D01*
X79195833Y-123309580D02*
X79148214Y-123357200D01*
X79148214Y-123357200D02*
X79005357Y-123404819D01*
X79005357Y-123404819D02*
X78910119Y-123404819D01*
X78910119Y-123404819D02*
X78767262Y-123357200D01*
X78767262Y-123357200D02*
X78672024Y-123261961D01*
X78672024Y-123261961D02*
X78624405Y-123166723D01*
X78624405Y-123166723D02*
X78576786Y-122976247D01*
X78576786Y-122976247D02*
X78576786Y-122833390D01*
X78576786Y-122833390D02*
X78624405Y-122642914D01*
X78624405Y-122642914D02*
X78672024Y-122547676D01*
X78672024Y-122547676D02*
X78767262Y-122452438D01*
X78767262Y-122452438D02*
X78910119Y-122404819D01*
X78910119Y-122404819D02*
X79005357Y-122404819D01*
X79005357Y-122404819D02*
X79148214Y-122452438D01*
X79148214Y-122452438D02*
X79195833Y-122500057D01*
X79672024Y-123404819D02*
X79862500Y-123404819D01*
X79862500Y-123404819D02*
X79957738Y-123357200D01*
X79957738Y-123357200D02*
X80005357Y-123309580D01*
X80005357Y-123309580D02*
X80100595Y-123166723D01*
X80100595Y-123166723D02*
X80148214Y-122976247D01*
X80148214Y-122976247D02*
X80148214Y-122595295D01*
X80148214Y-122595295D02*
X80100595Y-122500057D01*
X80100595Y-122500057D02*
X80052976Y-122452438D01*
X80052976Y-122452438D02*
X79957738Y-122404819D01*
X79957738Y-122404819D02*
X79767262Y-122404819D01*
X79767262Y-122404819D02*
X79672024Y-122452438D01*
X79672024Y-122452438D02*
X79624405Y-122500057D01*
X79624405Y-122500057D02*
X79576786Y-122595295D01*
X79576786Y-122595295D02*
X79576786Y-122833390D01*
X79576786Y-122833390D02*
X79624405Y-122928628D01*
X79624405Y-122928628D02*
X79672024Y-122976247D01*
X79672024Y-122976247D02*
X79767262Y-123023866D01*
X79767262Y-123023866D02*
X79957738Y-123023866D01*
X79957738Y-123023866D02*
X80052976Y-122976247D01*
X80052976Y-122976247D02*
X80100595Y-122928628D01*
X80100595Y-122928628D02*
X80148214Y-122833390D01*
X67761905Y-120604819D02*
X67761905Y-119604819D01*
X67761905Y-119604819D02*
X68000000Y-119604819D01*
X68000000Y-119604819D02*
X68142857Y-119652438D01*
X68142857Y-119652438D02*
X68238095Y-119747676D01*
X68238095Y-119747676D02*
X68285714Y-119842914D01*
X68285714Y-119842914D02*
X68333333Y-120033390D01*
X68333333Y-120033390D02*
X68333333Y-120176247D01*
X68333333Y-120176247D02*
X68285714Y-120366723D01*
X68285714Y-120366723D02*
X68238095Y-120461961D01*
X68238095Y-120461961D02*
X68142857Y-120557200D01*
X68142857Y-120557200D02*
X68000000Y-120604819D01*
X68000000Y-120604819D02*
X67761905Y-120604819D01*
X69285714Y-120604819D02*
X68714286Y-120604819D01*
X69000000Y-120604819D02*
X69000000Y-119604819D01*
X69000000Y-119604819D02*
X68904762Y-119747676D01*
X68904762Y-119747676D02*
X68809524Y-119842914D01*
X68809524Y-119842914D02*
X68714286Y-119890533D01*
X71819642Y-136804819D02*
X71486309Y-136328628D01*
X71248214Y-136804819D02*
X71248214Y-135804819D01*
X71248214Y-135804819D02*
X71629166Y-135804819D01*
X71629166Y-135804819D02*
X71724404Y-135852438D01*
X71724404Y-135852438D02*
X71772023Y-135900057D01*
X71772023Y-135900057D02*
X71819642Y-135995295D01*
X71819642Y-135995295D02*
X71819642Y-136138152D01*
X71819642Y-136138152D02*
X71772023Y-136233390D01*
X71772023Y-136233390D02*
X71724404Y-136281009D01*
X71724404Y-136281009D02*
X71629166Y-136328628D01*
X71629166Y-136328628D02*
X71248214Y-136328628D01*
X72772023Y-136804819D02*
X72200595Y-136804819D01*
X72486309Y-136804819D02*
X72486309Y-135804819D01*
X72486309Y-135804819D02*
X72391071Y-135947676D01*
X72391071Y-135947676D02*
X72295833Y-136042914D01*
X72295833Y-136042914D02*
X72200595Y-136090533D01*
X73724404Y-136804819D02*
X73152976Y-136804819D01*
X73438690Y-136804819D02*
X73438690Y-135804819D01*
X73438690Y-135804819D02*
X73343452Y-135947676D01*
X73343452Y-135947676D02*
X73248214Y-136042914D01*
X73248214Y-136042914D02*
X73152976Y-136090533D01*
X84457142Y-107654819D02*
X84123809Y-107178628D01*
X83885714Y-107654819D02*
X83885714Y-106654819D01*
X83885714Y-106654819D02*
X84266666Y-106654819D01*
X84266666Y-106654819D02*
X84361904Y-106702438D01*
X84361904Y-106702438D02*
X84409523Y-106750057D01*
X84409523Y-106750057D02*
X84457142Y-106845295D01*
X84457142Y-106845295D02*
X84457142Y-106988152D01*
X84457142Y-106988152D02*
X84409523Y-107083390D01*
X84409523Y-107083390D02*
X84361904Y-107131009D01*
X84361904Y-107131009D02*
X84266666Y-107178628D01*
X84266666Y-107178628D02*
X83885714Y-107178628D01*
X85409523Y-107654819D02*
X84838095Y-107654819D01*
X85123809Y-107654819D02*
X85123809Y-106654819D01*
X85123809Y-106654819D02*
X85028571Y-106797676D01*
X85028571Y-106797676D02*
X84933333Y-106892914D01*
X84933333Y-106892914D02*
X84838095Y-106940533D01*
X86028571Y-106654819D02*
X86123809Y-106654819D01*
X86123809Y-106654819D02*
X86219047Y-106702438D01*
X86219047Y-106702438D02*
X86266666Y-106750057D01*
X86266666Y-106750057D02*
X86314285Y-106845295D01*
X86314285Y-106845295D02*
X86361904Y-107035771D01*
X86361904Y-107035771D02*
X86361904Y-107273866D01*
X86361904Y-107273866D02*
X86314285Y-107464342D01*
X86314285Y-107464342D02*
X86266666Y-107559580D01*
X86266666Y-107559580D02*
X86219047Y-107607200D01*
X86219047Y-107607200D02*
X86123809Y-107654819D01*
X86123809Y-107654819D02*
X86028571Y-107654819D01*
X86028571Y-107654819D02*
X85933333Y-107607200D01*
X85933333Y-107607200D02*
X85885714Y-107559580D01*
X85885714Y-107559580D02*
X85838095Y-107464342D01*
X85838095Y-107464342D02*
X85790476Y-107273866D01*
X85790476Y-107273866D02*
X85790476Y-107035771D01*
X85790476Y-107035771D02*
X85838095Y-106845295D01*
X85838095Y-106845295D02*
X85885714Y-106750057D01*
X85885714Y-106750057D02*
X85933333Y-106702438D01*
X85933333Y-106702438D02*
X86028571Y-106654819D01*
X64095833Y-133909580D02*
X64048214Y-133957200D01*
X64048214Y-133957200D02*
X63905357Y-134004819D01*
X63905357Y-134004819D02*
X63810119Y-134004819D01*
X63810119Y-134004819D02*
X63667262Y-133957200D01*
X63667262Y-133957200D02*
X63572024Y-133861961D01*
X63572024Y-133861961D02*
X63524405Y-133766723D01*
X63524405Y-133766723D02*
X63476786Y-133576247D01*
X63476786Y-133576247D02*
X63476786Y-133433390D01*
X63476786Y-133433390D02*
X63524405Y-133242914D01*
X63524405Y-133242914D02*
X63572024Y-133147676D01*
X63572024Y-133147676D02*
X63667262Y-133052438D01*
X63667262Y-133052438D02*
X63810119Y-133004819D01*
X63810119Y-133004819D02*
X63905357Y-133004819D01*
X63905357Y-133004819D02*
X64048214Y-133052438D01*
X64048214Y-133052438D02*
X64095833Y-133100057D01*
X64429167Y-133004819D02*
X65048214Y-133004819D01*
X65048214Y-133004819D02*
X64714881Y-133385771D01*
X64714881Y-133385771D02*
X64857738Y-133385771D01*
X64857738Y-133385771D02*
X64952976Y-133433390D01*
X64952976Y-133433390D02*
X65000595Y-133481009D01*
X65000595Y-133481009D02*
X65048214Y-133576247D01*
X65048214Y-133576247D02*
X65048214Y-133814342D01*
X65048214Y-133814342D02*
X65000595Y-133909580D01*
X65000595Y-133909580D02*
X64952976Y-133957200D01*
X64952976Y-133957200D02*
X64857738Y-134004819D01*
X64857738Y-134004819D02*
X64572024Y-134004819D01*
X64572024Y-134004819D02*
X64476786Y-133957200D01*
X64476786Y-133957200D02*
X64429167Y-133909580D01*
D12*
%TO.C,J7*%
X72270000Y-140950000D02*
X72270000Y-139620000D01*
X72270000Y-144820000D02*
X74930000Y-144820000D01*
X72270000Y-142220000D02*
X72270000Y-144820000D01*
X72270000Y-142220000D02*
X74930000Y-142220000D01*
X72270000Y-139620000D02*
X73600000Y-139620000D01*
X74930000Y-142220000D02*
X74930000Y-144820000D01*
%TO.C,J9*%
X84375000Y-126620000D02*
X85705000Y-126620000D01*
X80505000Y-126620000D02*
X80505000Y-129280000D01*
X83105000Y-126620000D02*
X80505000Y-126620000D01*
X83105000Y-126620000D02*
X83105000Y-129280000D01*
X85705000Y-126620000D02*
X85705000Y-127950000D01*
X83105000Y-129280000D02*
X80505000Y-129280000D01*
%TO.C,J6*%
X59930000Y-138975000D02*
X59930000Y-140305000D01*
X59930000Y-135105000D02*
X57270000Y-135105000D01*
X59930000Y-137705000D02*
X59930000Y-135105000D01*
X59930000Y-137705000D02*
X57270000Y-137705000D01*
X59930000Y-140305000D02*
X58600000Y-140305000D01*
X57270000Y-137705000D02*
X57270000Y-135105000D01*
%TO.C,J1*%
X85985000Y-104280000D02*
X85985000Y-101620000D01*
X80845000Y-104280000D02*
X85985000Y-104280000D01*
X79575000Y-104280000D02*
X78245000Y-104280000D01*
X80845000Y-101620000D02*
X85985000Y-101620000D01*
X78245000Y-104280000D02*
X78245000Y-102950000D01*
X80845000Y-104280000D02*
X80845000Y-101620000D01*
%TO.C,SW2*%
X56520000Y-103250000D02*
X56400000Y-103250000D01*
X59680000Y-107650000D02*
X59800000Y-107650000D01*
X56400000Y-103250000D02*
X56400000Y-107650000D01*
X59800000Y-107650000D02*
X59800000Y-103250000D01*
X57530000Y-107650000D02*
X58670000Y-107650000D01*
X56400000Y-107650000D02*
X56520000Y-107650000D01*
X59800000Y-103250000D02*
X59680000Y-103250000D01*
X58670000Y-103250000D02*
X57530000Y-103250000D01*
%TO.C,R19*%
X58327064Y-110185000D02*
X57872936Y-110185000D01*
X58327064Y-108715000D02*
X57872936Y-108715000D01*
%TO.C,R1*%
X61229186Y-130796250D02*
X61683314Y-130796250D01*
X61229186Y-132266250D02*
X61683314Y-132266250D01*
%TO.C,R14*%
X62077064Y-110185000D02*
X61622936Y-110185000D01*
X62077064Y-108715000D02*
X61622936Y-108715000D01*
%TO.C,SW1*%
X63550000Y-103250000D02*
X63430000Y-103250000D01*
X62420000Y-103250000D02*
X61280000Y-103250000D01*
X60270000Y-103250000D02*
X60150000Y-103250000D01*
X60150000Y-103250000D02*
X60150000Y-107650000D01*
X63550000Y-107650000D02*
X63550000Y-103250000D01*
X63430000Y-107650000D02*
X63550000Y-107650000D01*
X61280000Y-107650000D02*
X62420000Y-107650000D01*
X60150000Y-107650000D02*
X60270000Y-107650000D01*
%TO.C,R15*%
X68715000Y-99677064D02*
X68715000Y-99222936D01*
X70185000Y-99677064D02*
X70185000Y-99222936D01*
%TO.C,R7*%
X82885000Y-123522936D02*
X82885000Y-123977064D01*
X81415000Y-123522936D02*
X81415000Y-123977064D01*
D13*
%TO.C,U3*%
X82050000Y-118550000D02*
X82342500Y-118550000D01*
X82050000Y-118592500D02*
X82050000Y-118550000D01*
X82050000Y-120550000D02*
X82050000Y-120507500D01*
X82050000Y-120550000D02*
X82342500Y-120550000D01*
X83757500Y-118550000D02*
X84050000Y-118550000D01*
X84050000Y-118550000D02*
X84050000Y-118592500D01*
X84050000Y-120507500D02*
X84050000Y-120550000D01*
X84050000Y-120550000D02*
X83757500Y-120550000D01*
D14*
X84050000Y-117962500D02*
G75*
G03*
X84050000Y-117962500I-100000J0D01*
G01*
D12*
%TO.C,J2*%
X61487500Y-95210000D02*
X62127500Y-95210000D01*
X62127500Y-95210000D02*
X62127500Y-95840000D01*
X64287500Y-95210000D02*
X63647500Y-95210000D01*
X61537500Y-92490000D02*
X64237500Y-92490000D01*
D11*
%TO.C,U1*%
X77750000Y-115175000D02*
X76350000Y-115175000D01*
X77750000Y-113875000D02*
X77750000Y-115175000D01*
X77700000Y-103175000D02*
X77700000Y-104575000D01*
X76400000Y-103175000D02*
X77700000Y-103175000D01*
X67100000Y-115275000D02*
X65800000Y-115275000D01*
X65800000Y-115275000D02*
X65800000Y-113875000D01*
X65750000Y-104425000D02*
X65750000Y-103125000D01*
X65750000Y-103125000D02*
X67150000Y-103125000D01*
D10*
X79092353Y-114335000D02*
G75*
G03*
X79092353Y-114335000I-362353J0D01*
G01*
D12*
%TO.C,U4*%
X61175000Y-113625000D02*
X60915000Y-113625000D01*
X60915000Y-113625000D02*
X60915000Y-111950000D01*
X55725000Y-113625000D02*
X55985000Y-113625000D01*
X61175000Y-116350000D02*
X61175000Y-113625000D01*
X61175000Y-116350000D02*
X61175000Y-119075000D01*
X55725000Y-116350000D02*
X55725000Y-113625000D01*
X55725000Y-116350000D02*
X55725000Y-119075000D01*
X61175000Y-119075000D02*
X60915000Y-119075000D01*
X55725000Y-119075000D02*
X55985000Y-119075000D01*
%TO.C,R4*%
X57160436Y-130777500D02*
X57614564Y-130777500D01*
X57160436Y-132247500D02*
X57614564Y-132247500D01*
%TO.C,C10*%
X78061252Y-127057120D02*
X77538748Y-127057120D01*
X78061252Y-125587120D02*
X77538748Y-125587120D01*
%TO.C,C11*%
X63161252Y-102085000D02*
X62638748Y-102085000D01*
X63161252Y-100615000D02*
X62638748Y-100615000D01*
D11*
%TO.C,U2*%
X64250000Y-123537500D02*
X64250000Y-123737500D01*
X64050000Y-123537500D02*
X64250000Y-123537500D01*
X61050000Y-123537500D02*
X61250000Y-123537500D01*
X61050000Y-123737500D02*
X61050000Y-123537500D01*
X64250000Y-126537500D02*
X64250000Y-126737500D01*
X64250000Y-126737500D02*
X64050000Y-126737500D01*
X61250000Y-126737500D02*
X61050000Y-126737500D01*
X61050000Y-126737500D02*
X61050000Y-126537500D01*
X64850000Y-123137500D02*
G75*
G03*
X64850000Y-123137500I-200000J0D01*
G01*
D12*
%TO.C,C12*%
X62563748Y-96615000D02*
X63086252Y-96615000D01*
X62563748Y-98085000D02*
X63086252Y-98085000D01*
%TO.C,R2*%
X57614564Y-130197500D02*
X57160436Y-130197500D01*
X57614564Y-128727500D02*
X57160436Y-128727500D01*
%TO.C,R9*%
X81722936Y-108315000D02*
X82177064Y-108315000D01*
X81722936Y-109785000D02*
X82177064Y-109785000D01*
%TO.C,C4*%
X57598752Y-125897500D02*
X57076248Y-125897500D01*
X57598752Y-124427500D02*
X57076248Y-124427500D01*
D11*
%TO.C,L1*%
X66368000Y-131957000D02*
X66368000Y-127893000D01*
X70432000Y-131957000D02*
X70432000Y-127893000D01*
D12*
%TO.C,R6*%
X84885000Y-123522936D02*
X84885000Y-123977064D01*
X83415000Y-123522936D02*
X83415000Y-123977064D01*
%TO.C,R5*%
X61222936Y-128802500D02*
X61677064Y-128802500D01*
X61222936Y-130272500D02*
X61677064Y-130272500D01*
%TO.C,R12*%
X72872936Y-129237120D02*
X73327064Y-129237120D01*
X72872936Y-130707120D02*
X73327064Y-130707120D01*
D13*
%TO.C,U5*%
X73011000Y-120440000D02*
X73011000Y-120750000D01*
X75489000Y-120440000D02*
X75489000Y-120750000D01*
X73011000Y-118960000D02*
X73011000Y-118650000D01*
X75489000Y-118960000D02*
X75489000Y-118650000D01*
D14*
X73050000Y-121200000D02*
G75*
G03*
X73050000Y-121200000I-100000J0D01*
G01*
D12*
%TO.C,C7*%
X77501248Y-131587120D02*
X78023752Y-131587120D01*
X77501248Y-133057120D02*
X78023752Y-133057120D01*
%TO.C,C8*%
X77463748Y-133587120D02*
X77986252Y-133587120D01*
X77463748Y-135057120D02*
X77986252Y-135057120D01*
%TO.C,R13*%
X73327064Y-128707120D02*
X72872936Y-128707120D01*
X73327064Y-127237120D02*
X72872936Y-127237120D01*
%TO.C,U6*%
X77762500Y-127762120D02*
X75962500Y-127762120D01*
X77762500Y-127762120D02*
X78562500Y-127762120D01*
X77762500Y-130882120D02*
X76962500Y-130882120D01*
X77762500Y-130882120D02*
X78562500Y-130882120D01*
%TO.C,C2*%
X68561252Y-134435000D02*
X68038748Y-134435000D01*
X68561252Y-132965000D02*
X68038748Y-132965000D01*
%TO.C,C6*%
X78301248Y-118015000D02*
X78823752Y-118015000D01*
X78301248Y-119485000D02*
X78823752Y-119485000D01*
%TO.C,R3*%
X57552064Y-127947500D02*
X57097936Y-127947500D01*
X57552064Y-126477500D02*
X57097936Y-126477500D01*
%TO.C,Q1*%
X67700000Y-126510000D02*
X69375000Y-126510000D01*
X67700000Y-126510000D02*
X67050000Y-126510000D01*
X67700000Y-123390000D02*
X68350000Y-123390000D01*
X67700000Y-123390000D02*
X67050000Y-123390000D01*
%TO.C,C1*%
X82261252Y-111835000D02*
X81738748Y-111835000D01*
X82261252Y-110365000D02*
X81738748Y-110365000D01*
D11*
%TO.C,J3*%
X76600000Y-136450000D02*
X78350000Y-136450000D01*
X76600000Y-141450000D02*
X76600000Y-136450000D01*
X82600000Y-136450000D02*
X84100000Y-136450000D01*
X84100000Y-136450000D02*
X84100000Y-141450000D01*
D12*
%TO.C,C5*%
X57163748Y-132877500D02*
X57686252Y-132877500D01*
X57163748Y-134347500D02*
X57686252Y-134347500D01*
%TO.C,R8*%
X78322936Y-120015000D02*
X78777064Y-120015000D01*
X78322936Y-121485000D02*
X78777064Y-121485000D01*
%TO.C,R16*%
X62635436Y-98615000D02*
X63089564Y-98615000D01*
X62635436Y-100085000D02*
X63089564Y-100085000D01*
%TO.C,C9*%
X78061252Y-125057120D02*
X77538748Y-125057120D01*
X78061252Y-123587120D02*
X77538748Y-123587120D01*
%TO.C,D1*%
X66140000Y-120900000D02*
X66140000Y-122900000D01*
X66140000Y-120900000D02*
X70150000Y-120900000D01*
X66140000Y-122900000D02*
X70150000Y-122900000D01*
%TO.C,R11*%
X73327064Y-132707120D02*
X72872936Y-132707120D01*
X73327064Y-131237120D02*
X72872936Y-131237120D01*
%TO.C,D2*%
X70540000Y-101260000D02*
X72460000Y-101260000D01*
X72460000Y-101260000D02*
X72460000Y-98400000D01*
X70540000Y-98400000D02*
X70540000Y-101260000D01*
%TO.C,R10*%
X81722936Y-106315000D02*
X82177064Y-106315000D01*
X81722936Y-107785000D02*
X82177064Y-107785000D01*
%TO.C,Q2*%
X73162500Y-123412120D02*
X71487500Y-123412120D01*
X73162500Y-123412120D02*
X73812500Y-123412120D01*
X73162500Y-126532120D02*
X72512500Y-126532120D01*
X73162500Y-126532120D02*
X73812500Y-126532120D01*
%TO.C,C3*%
X61742502Y-134316250D02*
X61219998Y-134316250D01*
X61742502Y-132846250D02*
X61219998Y-132846250D01*
%TD*%
M02*
