%TF.GenerationSoftware,KiCad,Pcbnew,7.0.8-7.0.8~ubuntu22.04.1*%
%TF.CreationDate,2023-10-23T06:40:44-04:00*%
%TF.ProjectId,DDRN_Hardware,4444524e-5f48-4617-9264-776172652e6b,rev?*%
%TF.SameCoordinates,Original*%
%TF.FileFunction,Paste,Top*%
%TF.FilePolarity,Positive*%
%FSLAX46Y46*%
G04 Gerber Fmt 4.6, Leading zero omitted, Abs format (unit mm)*
G04 Created by KiCad (PCBNEW 7.0.8-7.0.8~ubuntu22.04.1) date 2023-10-23 06:40:44*
%MOMM*%
%LPD*%
G01*
G04 APERTURE LIST*
G04 Aperture macros list*
%AMRoundRect*
0 Rectangle with rounded corners*
0 $1 Rounding radius*
0 $2 $3 $4 $5 $6 $7 $8 $9 X,Y pos of 4 corners*
0 Add a 4 corners polygon primitive as box body*
4,1,4,$2,$3,$4,$5,$6,$7,$8,$9,$2,$3,0*
0 Add four circle primitives for the rounded corners*
1,1,$1+$1,$2,$3*
1,1,$1+$1,$4,$5*
1,1,$1+$1,$6,$7*
1,1,$1+$1,$8,$9*
0 Add four rect primitives between the rounded corners*
20,1,$1+$1,$2,$3,$4,$5,0*
20,1,$1+$1,$4,$5,$6,$7,0*
20,1,$1+$1,$6,$7,$8,$9,0*
20,1,$1+$1,$8,$9,$2,$3,0*%
G04 Aperture macros list end*
%ADD10R,0.650000X1.050000*%
%ADD11RoundRect,0.250000X0.350000X0.450000X-0.350000X0.450000X-0.350000X-0.450000X0.350000X-0.450000X0*%
%ADD12RoundRect,0.250000X-0.350000X-0.450000X0.350000X-0.450000X0.350000X0.450000X-0.350000X0.450000X0*%
%ADD13RoundRect,0.250000X0.450000X-0.350000X0.450000X0.350000X-0.450000X0.350000X-0.450000X-0.350000X0*%
%ADD14RoundRect,0.250000X-0.450000X0.350000X-0.450000X-0.350000X0.450000X-0.350000X0.450000X0.350000X0*%
%ADD15R,0.250000X1.500000*%
%ADD16R,1.500000X0.250000*%
%ADD17R,1.000000X1.050000*%
%ADD18R,1.050000X2.200000*%
%ADD19R,2.300000X1.000000*%
%ADD20R,1.000000X2.300000*%
%ADD21RoundRect,0.150000X-0.150000X0.650000X-0.150000X-0.650000X0.150000X-0.650000X0.150000X0.650000X0*%
%ADD22RoundRect,0.250000X0.337500X0.475000X-0.337500X0.475000X-0.337500X-0.475000X0.337500X-0.475000X0*%
%ADD23R,0.350000X1.500000*%
%ADD24R,1.500000X0.350000*%
%ADD25R,1.500000X1.500000*%
%ADD26RoundRect,0.250000X-0.337500X-0.475000X0.337500X-0.475000X0.337500X0.475000X-0.337500X0.475000X0*%
%ADD27R,3.600000X1.500000*%
%ADD28R,1.000000X4.000000*%
%ADD29R,0.325000X1.500000*%
%ADD30RoundRect,0.150000X-0.512500X-0.150000X0.512500X-0.150000X0.512500X0.150000X-0.512500X0.150000X0*%
%ADD31RoundRect,0.150000X0.587500X0.150000X-0.587500X0.150000X-0.587500X-0.150000X0.587500X-0.150000X0*%
%ADD32R,1.500000X3.400000*%
%ADD33R,1.000000X3.500000*%
%ADD34RoundRect,0.225000X-0.225000X-0.375000X0.225000X-0.375000X0.225000X0.375000X-0.225000X0.375000X0*%
%ADD35RoundRect,0.250000X0.450000X-0.325000X0.450000X0.325000X-0.450000X0.325000X-0.450000X-0.325000X0*%
%ADD36RoundRect,0.150000X-0.587500X-0.150000X0.587500X-0.150000X0.587500X0.150000X-0.587500X0.150000X0*%
G04 APERTURE END LIST*
D10*
%TO.C,SW2*%
X59175000Y-103375000D03*
X59175000Y-107525000D03*
X57025000Y-107525000D03*
X57025000Y-103375000D03*
%TD*%
D11*
%TO.C,R19*%
X59100000Y-109450000D03*
X57100000Y-109450000D03*
%TD*%
D12*
%TO.C,R1*%
X60456250Y-131531250D03*
X62456250Y-131531250D03*
%TD*%
D11*
%TO.C,R14*%
X62850000Y-109450000D03*
X60850000Y-109450000D03*
%TD*%
D10*
%TO.C,SW1*%
X62925000Y-103375000D03*
X62925000Y-107525000D03*
X60775000Y-103375000D03*
X60775000Y-107525000D03*
%TD*%
D13*
%TO.C,R15*%
X69450000Y-100450000D03*
X69450000Y-98450000D03*
%TD*%
D14*
%TO.C,R7*%
X82150000Y-122750000D03*
X82150000Y-124750000D03*
%TD*%
D15*
%TO.C,U3*%
X83300000Y-118250000D03*
X82800000Y-118250000D03*
D16*
X81700000Y-119050000D03*
X81700000Y-119550000D03*
X81700000Y-120050000D03*
D15*
X82800000Y-120850000D03*
X83300000Y-120850000D03*
D16*
X84400000Y-120050000D03*
X84400000Y-119550000D03*
X84400000Y-119050000D03*
%TD*%
D17*
%TO.C,J2*%
X62887500Y-95375000D03*
D18*
X61412500Y-93850000D03*
X64362500Y-93850000D03*
%TD*%
D19*
%TO.C,U1*%
X77750000Y-112925000D03*
X77750000Y-111675000D03*
X77750000Y-110425000D03*
X77750000Y-109175000D03*
X77750000Y-107925000D03*
X77750000Y-106675000D03*
X77750000Y-105425000D03*
D20*
X75500000Y-103175000D03*
X74250000Y-103175000D03*
X73000000Y-103175000D03*
X71750000Y-103175000D03*
X70500000Y-103175000D03*
X69250000Y-103175000D03*
X68000000Y-103175000D03*
D19*
X65750000Y-105425000D03*
X65750000Y-106675000D03*
X65750000Y-107925000D03*
X65750000Y-109175000D03*
X65750000Y-110425000D03*
X65750000Y-111675000D03*
X65750000Y-112925000D03*
D20*
X68000000Y-115175000D03*
X69250000Y-115175000D03*
X70500000Y-115175000D03*
X71750000Y-115175000D03*
X73000000Y-115175000D03*
X74250000Y-115175000D03*
X75500000Y-115175000D03*
%TD*%
D21*
%TO.C,U4*%
X60355000Y-112750000D03*
X59085000Y-112750000D03*
X57815000Y-112750000D03*
X56545000Y-112750000D03*
X56545000Y-119950000D03*
X57815000Y-119950000D03*
X59085000Y-119950000D03*
X60355000Y-119950000D03*
%TD*%
D12*
%TO.C,R4*%
X56387500Y-131512500D03*
X58387500Y-131512500D03*
%TD*%
D22*
%TO.C,C10*%
X78837500Y-126322120D03*
X76762500Y-126322120D03*
%TD*%
%TO.C,C11*%
X63937500Y-101350000D03*
X61862500Y-101350000D03*
%TD*%
D23*
%TO.C,U2*%
X63450000Y-123137500D03*
X62650000Y-123137500D03*
X61850000Y-123137500D03*
D24*
X60650000Y-124337500D03*
X60650000Y-125137500D03*
X60650000Y-125937500D03*
D23*
X61850000Y-127137500D03*
X62650000Y-127137500D03*
X63450000Y-127137500D03*
D24*
X64650000Y-125937500D03*
X64650000Y-125137500D03*
X64650000Y-124337500D03*
D25*
X62650000Y-125137500D03*
%TD*%
D26*
%TO.C,C12*%
X61787500Y-97350000D03*
X63862500Y-97350000D03*
%TD*%
D11*
%TO.C,R2*%
X58387500Y-129462500D03*
X56387500Y-129462500D03*
%TD*%
D12*
%TO.C,R9*%
X80950000Y-109050000D03*
X82950000Y-109050000D03*
%TD*%
D22*
%TO.C,C4*%
X58375000Y-125162500D03*
X56300000Y-125162500D03*
%TD*%
D27*
%TO.C,L1*%
X68400000Y-131450000D03*
X68400000Y-128400000D03*
%TD*%
D14*
%TO.C,R6*%
X84150000Y-122750000D03*
X84150000Y-124750000D03*
%TD*%
D12*
%TO.C,R5*%
X60450000Y-129537500D03*
X62450000Y-129537500D03*
%TD*%
%TO.C,R12*%
X72100000Y-129972120D03*
X74100000Y-129972120D03*
%TD*%
D28*
%TO.C,J8*%
X76290000Y-93935000D03*
X74290000Y-93935000D03*
X72290000Y-93935000D03*
X70290000Y-93935000D03*
X68290000Y-93935000D03*
%TD*%
D23*
%TO.C,U5*%
X73500000Y-121000000D03*
X74000000Y-121000000D03*
X74500000Y-121000000D03*
X75000000Y-121000000D03*
D24*
X75550000Y-119950000D03*
X75550000Y-119450000D03*
D23*
X75000000Y-118400000D03*
X74500000Y-118400000D03*
D29*
X73987500Y-118400000D03*
D23*
X73500000Y-118400000D03*
D24*
X72950000Y-119450000D03*
X72950000Y-119950000D03*
%TD*%
D26*
%TO.C,C7*%
X76725000Y-132322120D03*
X78800000Y-132322120D03*
%TD*%
%TO.C,C8*%
X76687500Y-134322120D03*
X78762500Y-134322120D03*
%TD*%
D11*
%TO.C,R13*%
X74100000Y-127972120D03*
X72100000Y-127972120D03*
%TD*%
D30*
%TO.C,U6*%
X76625000Y-128372120D03*
X76625000Y-129322120D03*
X76625000Y-130272120D03*
X78900000Y-130272120D03*
X78900000Y-128372120D03*
%TD*%
D22*
%TO.C,C2*%
X69337500Y-133700000D03*
X67262500Y-133700000D03*
%TD*%
D26*
%TO.C,C6*%
X77525000Y-118750000D03*
X79600000Y-118750000D03*
%TD*%
D11*
%TO.C,R3*%
X58325000Y-127212500D03*
X56325000Y-127212500D03*
%TD*%
D31*
%TO.C,Q1*%
X68637500Y-125900000D03*
X68637500Y-124000000D03*
X66762500Y-124950000D03*
%TD*%
D22*
%TO.C,C1*%
X83037500Y-111100000D03*
X80962500Y-111100000D03*
%TD*%
D32*
%TO.C,J3*%
X77000000Y-143450000D03*
X83700000Y-143450000D03*
D33*
X79350000Y-137950000D03*
X81350000Y-137950000D03*
%TD*%
D26*
%TO.C,C5*%
X56387500Y-133612500D03*
X58462500Y-133612500D03*
%TD*%
D12*
%TO.C,R8*%
X77550000Y-120750000D03*
X79550000Y-120750000D03*
%TD*%
%TO.C,R16*%
X61862500Y-99350000D03*
X63862500Y-99350000D03*
%TD*%
D22*
%TO.C,C9*%
X78837500Y-124322120D03*
X76762500Y-124322120D03*
%TD*%
D34*
%TO.C,D1*%
X66850000Y-121900000D03*
X70150000Y-121900000D03*
%TD*%
D11*
%TO.C,R11*%
X74100000Y-131972120D03*
X72100000Y-131972120D03*
%TD*%
D35*
%TO.C,D2*%
X71500000Y-100425000D03*
X71500000Y-98375000D03*
%TD*%
D12*
%TO.C,R10*%
X80950000Y-107050000D03*
X82950000Y-107050000D03*
%TD*%
D36*
%TO.C,Q2*%
X72225000Y-124022120D03*
X72225000Y-125922120D03*
X74100000Y-124972120D03*
%TD*%
D22*
%TO.C,C3*%
X62518750Y-133581250D03*
X60443750Y-133581250D03*
%TD*%
M02*
