%TF.GenerationSoftware,KiCad,Pcbnew,7.0.8-7.0.8~ubuntu22.04.1*%
%TF.CreationDate,2023-10-21T10:39:40-04:00*%
%TF.ProjectId,DDRN_Hardware,4444524e-5f48-4617-9264-776172652e6b,rev?*%
%TF.SameCoordinates,Original*%
%TF.FileFunction,Legend,Top*%
%TF.FilePolarity,Positive*%
%FSLAX46Y46*%
G04 Gerber Fmt 4.6, Leading zero omitted, Abs format (unit mm)*
G04 Created by KiCad (PCBNEW 7.0.8-7.0.8~ubuntu22.04.1) date 2023-10-21 10:39:40*
%MOMM*%
%LPD*%
G01*
G04 APERTURE LIST*
%ADD10C,0.150000*%
%ADD11C,0.080000*%
%ADD12C,0.100000*%
%ADD13C,0.120000*%
%ADD14C,0.127000*%
%ADD15C,0.200000*%
G04 APERTURE END LIST*
D10*
X146451667Y-111032200D02*
X146594524Y-111079819D01*
X146594524Y-111079819D02*
X146832619Y-111079819D01*
X146832619Y-111079819D02*
X146927857Y-111032200D01*
X146927857Y-111032200D02*
X146975476Y-110984580D01*
X146975476Y-110984580D02*
X147023095Y-110889342D01*
X147023095Y-110889342D02*
X147023095Y-110794104D01*
X147023095Y-110794104D02*
X146975476Y-110698866D01*
X146975476Y-110698866D02*
X146927857Y-110651247D01*
X146927857Y-110651247D02*
X146832619Y-110603628D01*
X146832619Y-110603628D02*
X146642143Y-110556009D01*
X146642143Y-110556009D02*
X146546905Y-110508390D01*
X146546905Y-110508390D02*
X146499286Y-110460771D01*
X146499286Y-110460771D02*
X146451667Y-110365533D01*
X146451667Y-110365533D02*
X146451667Y-110270295D01*
X146451667Y-110270295D02*
X146499286Y-110175057D01*
X146499286Y-110175057D02*
X146546905Y-110127438D01*
X146546905Y-110127438D02*
X146642143Y-110079819D01*
X146642143Y-110079819D02*
X146880238Y-110079819D01*
X146880238Y-110079819D02*
X147023095Y-110127438D01*
X147356429Y-110079819D02*
X147594524Y-111079819D01*
X147594524Y-111079819D02*
X147785000Y-110365533D01*
X147785000Y-110365533D02*
X147975476Y-111079819D01*
X147975476Y-111079819D02*
X148213572Y-110079819D01*
X149118333Y-111079819D02*
X148546905Y-111079819D01*
X148832619Y-111079819D02*
X148832619Y-110079819D01*
X148832619Y-110079819D02*
X148737381Y-110222676D01*
X148737381Y-110222676D02*
X148642143Y-110317914D01*
X148642143Y-110317914D02*
X148546905Y-110365533D01*
X162226666Y-93839819D02*
X162226666Y-94554104D01*
X162226666Y-94554104D02*
X162179047Y-94696961D01*
X162179047Y-94696961D02*
X162083809Y-94792200D01*
X162083809Y-94792200D02*
X161940952Y-94839819D01*
X161940952Y-94839819D02*
X161845714Y-94839819D01*
X162655238Y-93935057D02*
X162702857Y-93887438D01*
X162702857Y-93887438D02*
X162798095Y-93839819D01*
X162798095Y-93839819D02*
X163036190Y-93839819D01*
X163036190Y-93839819D02*
X163131428Y-93887438D01*
X163131428Y-93887438D02*
X163179047Y-93935057D01*
X163179047Y-93935057D02*
X163226666Y-94030295D01*
X163226666Y-94030295D02*
X163226666Y-94125533D01*
X163226666Y-94125533D02*
X163179047Y-94268390D01*
X163179047Y-94268390D02*
X162607619Y-94839819D01*
X162607619Y-94839819D02*
X163226666Y-94839819D01*
X150500595Y-118024819D02*
X150500595Y-118834342D01*
X150500595Y-118834342D02*
X150548214Y-118929580D01*
X150548214Y-118929580D02*
X150595833Y-118977200D01*
X150595833Y-118977200D02*
X150691071Y-119024819D01*
X150691071Y-119024819D02*
X150881547Y-119024819D01*
X150881547Y-119024819D02*
X150976785Y-118977200D01*
X150976785Y-118977200D02*
X151024404Y-118929580D01*
X151024404Y-118929580D02*
X151072023Y-118834342D01*
X151072023Y-118834342D02*
X151072023Y-118024819D01*
X151976785Y-118024819D02*
X151786309Y-118024819D01*
X151786309Y-118024819D02*
X151691071Y-118072438D01*
X151691071Y-118072438D02*
X151643452Y-118120057D01*
X151643452Y-118120057D02*
X151548214Y-118262914D01*
X151548214Y-118262914D02*
X151500595Y-118453390D01*
X151500595Y-118453390D02*
X151500595Y-118834342D01*
X151500595Y-118834342D02*
X151548214Y-118929580D01*
X151548214Y-118929580D02*
X151595833Y-118977200D01*
X151595833Y-118977200D02*
X151691071Y-119024819D01*
X151691071Y-119024819D02*
X151881547Y-119024819D01*
X151881547Y-119024819D02*
X151976785Y-118977200D01*
X151976785Y-118977200D02*
X152024404Y-118929580D01*
X152024404Y-118929580D02*
X152072023Y-118834342D01*
X152072023Y-118834342D02*
X152072023Y-118596247D01*
X152072023Y-118596247D02*
X152024404Y-118501009D01*
X152024404Y-118501009D02*
X151976785Y-118453390D01*
X151976785Y-118453390D02*
X151881547Y-118405771D01*
X151881547Y-118405771D02*
X151691071Y-118405771D01*
X151691071Y-118405771D02*
X151595833Y-118453390D01*
X151595833Y-118453390D02*
X151548214Y-118501009D01*
X151548214Y-118501009D02*
X151500595Y-118596247D01*
X151611880Y-104489376D02*
X151611880Y-105007471D01*
X151611880Y-105007471D02*
X151642357Y-105068423D01*
X151642357Y-105068423D02*
X151672833Y-105098900D01*
X151672833Y-105098900D02*
X151733785Y-105129376D01*
X151733785Y-105129376D02*
X151855690Y-105129376D01*
X151855690Y-105129376D02*
X151916642Y-105098900D01*
X151916642Y-105098900D02*
X151947119Y-105068423D01*
X151947119Y-105068423D02*
X151977595Y-105007471D01*
X151977595Y-105007471D02*
X151977595Y-104489376D01*
X152587118Y-104489376D02*
X152282356Y-104489376D01*
X152282356Y-104489376D02*
X152251880Y-104794138D01*
X152251880Y-104794138D02*
X152282356Y-104763661D01*
X152282356Y-104763661D02*
X152343309Y-104733185D01*
X152343309Y-104733185D02*
X152495690Y-104733185D01*
X152495690Y-104733185D02*
X152556642Y-104763661D01*
X152556642Y-104763661D02*
X152587118Y-104794138D01*
X152587118Y-104794138D02*
X152617595Y-104855090D01*
X152617595Y-104855090D02*
X152617595Y-105007471D01*
X152617595Y-105007471D02*
X152587118Y-105068423D01*
X152587118Y-105068423D02*
X152556642Y-105098900D01*
X152556642Y-105098900D02*
X152495690Y-105129376D01*
X152495690Y-105129376D02*
X152343309Y-105129376D01*
X152343309Y-105129376D02*
X152282356Y-105098900D01*
X152282356Y-105098900D02*
X152251880Y-105068423D01*
X118920595Y-99764819D02*
X118920595Y-100574342D01*
X118920595Y-100574342D02*
X118968214Y-100669580D01*
X118968214Y-100669580D02*
X119015833Y-100717200D01*
X119015833Y-100717200D02*
X119111071Y-100764819D01*
X119111071Y-100764819D02*
X119301547Y-100764819D01*
X119301547Y-100764819D02*
X119396785Y-100717200D01*
X119396785Y-100717200D02*
X119444404Y-100669580D01*
X119444404Y-100669580D02*
X119492023Y-100574342D01*
X119492023Y-100574342D02*
X119492023Y-99764819D01*
X120396785Y-100098152D02*
X120396785Y-100764819D01*
X120158690Y-99717200D02*
X119920595Y-100431485D01*
X119920595Y-100431485D02*
X120539642Y-100431485D01*
D11*
X149314690Y-89133178D02*
X149314690Y-89392225D01*
X149314690Y-89392225D02*
X149329928Y-89422701D01*
X149329928Y-89422701D02*
X149345166Y-89437940D01*
X149345166Y-89437940D02*
X149375642Y-89453178D01*
X149375642Y-89453178D02*
X149436595Y-89453178D01*
X149436595Y-89453178D02*
X149467071Y-89437940D01*
X149467071Y-89437940D02*
X149482309Y-89422701D01*
X149482309Y-89422701D02*
X149497547Y-89392225D01*
X149497547Y-89392225D02*
X149497547Y-89133178D01*
X149619452Y-89133178D02*
X149817547Y-89133178D01*
X149817547Y-89133178D02*
X149710880Y-89255082D01*
X149710880Y-89255082D02*
X149756595Y-89255082D01*
X149756595Y-89255082D02*
X149787071Y-89270320D01*
X149787071Y-89270320D02*
X149802309Y-89285559D01*
X149802309Y-89285559D02*
X149817547Y-89316035D01*
X149817547Y-89316035D02*
X149817547Y-89392225D01*
X149817547Y-89392225D02*
X149802309Y-89422701D01*
X149802309Y-89422701D02*
X149787071Y-89437940D01*
X149787071Y-89437940D02*
X149756595Y-89453178D01*
X149756595Y-89453178D02*
X149665166Y-89453178D01*
X149665166Y-89453178D02*
X149634690Y-89437940D01*
X149634690Y-89437940D02*
X149619452Y-89422701D01*
D10*
X121560595Y-116529819D02*
X121560595Y-117339342D01*
X121560595Y-117339342D02*
X121608214Y-117434580D01*
X121608214Y-117434580D02*
X121655833Y-117482200D01*
X121655833Y-117482200D02*
X121751071Y-117529819D01*
X121751071Y-117529819D02*
X121941547Y-117529819D01*
X121941547Y-117529819D02*
X122036785Y-117482200D01*
X122036785Y-117482200D02*
X122084404Y-117434580D01*
X122084404Y-117434580D02*
X122132023Y-117339342D01*
X122132023Y-117339342D02*
X122132023Y-116529819D01*
X122560595Y-116625057D02*
X122608214Y-116577438D01*
X122608214Y-116577438D02*
X122703452Y-116529819D01*
X122703452Y-116529819D02*
X122941547Y-116529819D01*
X122941547Y-116529819D02*
X123036785Y-116577438D01*
X123036785Y-116577438D02*
X123084404Y-116625057D01*
X123084404Y-116625057D02*
X123132023Y-116720295D01*
X123132023Y-116720295D02*
X123132023Y-116815533D01*
X123132023Y-116815533D02*
X123084404Y-116958390D01*
X123084404Y-116958390D02*
X122512976Y-117529819D01*
X122512976Y-117529819D02*
X123132023Y-117529819D01*
X135912948Y-102599819D02*
X135912948Y-103409342D01*
X135912948Y-103409342D02*
X135960567Y-103504580D01*
X135960567Y-103504580D02*
X136008186Y-103552200D01*
X136008186Y-103552200D02*
X136103424Y-103599819D01*
X136103424Y-103599819D02*
X136293900Y-103599819D01*
X136293900Y-103599819D02*
X136389138Y-103552200D01*
X136389138Y-103552200D02*
X136436757Y-103504580D01*
X136436757Y-103504580D02*
X136484376Y-103409342D01*
X136484376Y-103409342D02*
X136484376Y-102599819D01*
X137484376Y-103599819D02*
X136912948Y-103599819D01*
X137198662Y-103599819D02*
X137198662Y-102599819D01*
X137198662Y-102599819D02*
X137103424Y-102742676D01*
X137103424Y-102742676D02*
X137008186Y-102837914D01*
X137008186Y-102837914D02*
X136912948Y-102885533D01*
X125739642Y-91914819D02*
X125406309Y-91438628D01*
X125168214Y-91914819D02*
X125168214Y-90914819D01*
X125168214Y-90914819D02*
X125549166Y-90914819D01*
X125549166Y-90914819D02*
X125644404Y-90962438D01*
X125644404Y-90962438D02*
X125692023Y-91010057D01*
X125692023Y-91010057D02*
X125739642Y-91105295D01*
X125739642Y-91105295D02*
X125739642Y-91248152D01*
X125739642Y-91248152D02*
X125692023Y-91343390D01*
X125692023Y-91343390D02*
X125644404Y-91391009D01*
X125644404Y-91391009D02*
X125549166Y-91438628D01*
X125549166Y-91438628D02*
X125168214Y-91438628D01*
X126692023Y-91914819D02*
X126120595Y-91914819D01*
X126406309Y-91914819D02*
X126406309Y-90914819D01*
X126406309Y-90914819D02*
X126311071Y-91057676D01*
X126311071Y-91057676D02*
X126215833Y-91152914D01*
X126215833Y-91152914D02*
X126120595Y-91200533D01*
X127549166Y-90914819D02*
X127358690Y-90914819D01*
X127358690Y-90914819D02*
X127263452Y-90962438D01*
X127263452Y-90962438D02*
X127215833Y-91010057D01*
X127215833Y-91010057D02*
X127120595Y-91152914D01*
X127120595Y-91152914D02*
X127072976Y-91343390D01*
X127072976Y-91343390D02*
X127072976Y-91724342D01*
X127072976Y-91724342D02*
X127120595Y-91819580D01*
X127120595Y-91819580D02*
X127168214Y-91867200D01*
X127168214Y-91867200D02*
X127263452Y-91914819D01*
X127263452Y-91914819D02*
X127453928Y-91914819D01*
X127453928Y-91914819D02*
X127549166Y-91867200D01*
X127549166Y-91867200D02*
X127596785Y-91819580D01*
X127596785Y-91819580D02*
X127644404Y-91724342D01*
X127644404Y-91724342D02*
X127644404Y-91486247D01*
X127644404Y-91486247D02*
X127596785Y-91391009D01*
X127596785Y-91391009D02*
X127549166Y-91343390D01*
X127549166Y-91343390D02*
X127453928Y-91295771D01*
X127453928Y-91295771D02*
X127263452Y-91295771D01*
X127263452Y-91295771D02*
X127168214Y-91343390D01*
X127168214Y-91343390D02*
X127120595Y-91391009D01*
X127120595Y-91391009D02*
X127072976Y-91486247D01*
X125739642Y-88964819D02*
X125406309Y-88488628D01*
X125168214Y-88964819D02*
X125168214Y-87964819D01*
X125168214Y-87964819D02*
X125549166Y-87964819D01*
X125549166Y-87964819D02*
X125644404Y-88012438D01*
X125644404Y-88012438D02*
X125692023Y-88060057D01*
X125692023Y-88060057D02*
X125739642Y-88155295D01*
X125739642Y-88155295D02*
X125739642Y-88298152D01*
X125739642Y-88298152D02*
X125692023Y-88393390D01*
X125692023Y-88393390D02*
X125644404Y-88441009D01*
X125644404Y-88441009D02*
X125549166Y-88488628D01*
X125549166Y-88488628D02*
X125168214Y-88488628D01*
X126692023Y-88964819D02*
X126120595Y-88964819D01*
X126406309Y-88964819D02*
X126406309Y-87964819D01*
X126406309Y-87964819D02*
X126311071Y-88107676D01*
X126311071Y-88107676D02*
X126215833Y-88202914D01*
X126215833Y-88202914D02*
X126120595Y-88250533D01*
X127596785Y-87964819D02*
X127120595Y-87964819D01*
X127120595Y-87964819D02*
X127072976Y-88441009D01*
X127072976Y-88441009D02*
X127120595Y-88393390D01*
X127120595Y-88393390D02*
X127215833Y-88345771D01*
X127215833Y-88345771D02*
X127453928Y-88345771D01*
X127453928Y-88345771D02*
X127549166Y-88393390D01*
X127549166Y-88393390D02*
X127596785Y-88441009D01*
X127596785Y-88441009D02*
X127644404Y-88536247D01*
X127644404Y-88536247D02*
X127644404Y-88774342D01*
X127644404Y-88774342D02*
X127596785Y-88869580D01*
X127596785Y-88869580D02*
X127549166Y-88917200D01*
X127549166Y-88917200D02*
X127453928Y-88964819D01*
X127453928Y-88964819D02*
X127215833Y-88964819D01*
X127215833Y-88964819D02*
X127120595Y-88917200D01*
X127120595Y-88917200D02*
X127072976Y-88869580D01*
X125739642Y-86014819D02*
X125406309Y-85538628D01*
X125168214Y-86014819D02*
X125168214Y-85014819D01*
X125168214Y-85014819D02*
X125549166Y-85014819D01*
X125549166Y-85014819D02*
X125644404Y-85062438D01*
X125644404Y-85062438D02*
X125692023Y-85110057D01*
X125692023Y-85110057D02*
X125739642Y-85205295D01*
X125739642Y-85205295D02*
X125739642Y-85348152D01*
X125739642Y-85348152D02*
X125692023Y-85443390D01*
X125692023Y-85443390D02*
X125644404Y-85491009D01*
X125644404Y-85491009D02*
X125549166Y-85538628D01*
X125549166Y-85538628D02*
X125168214Y-85538628D01*
X126692023Y-86014819D02*
X126120595Y-86014819D01*
X126406309Y-86014819D02*
X126406309Y-85014819D01*
X126406309Y-85014819D02*
X126311071Y-85157676D01*
X126311071Y-85157676D02*
X126215833Y-85252914D01*
X126215833Y-85252914D02*
X126120595Y-85300533D01*
X127549166Y-85348152D02*
X127549166Y-86014819D01*
X127311071Y-84967200D02*
X127072976Y-85681485D01*
X127072976Y-85681485D02*
X127692023Y-85681485D01*
X125739642Y-83064819D02*
X125406309Y-82588628D01*
X125168214Y-83064819D02*
X125168214Y-82064819D01*
X125168214Y-82064819D02*
X125549166Y-82064819D01*
X125549166Y-82064819D02*
X125644404Y-82112438D01*
X125644404Y-82112438D02*
X125692023Y-82160057D01*
X125692023Y-82160057D02*
X125739642Y-82255295D01*
X125739642Y-82255295D02*
X125739642Y-82398152D01*
X125739642Y-82398152D02*
X125692023Y-82493390D01*
X125692023Y-82493390D02*
X125644404Y-82541009D01*
X125644404Y-82541009D02*
X125549166Y-82588628D01*
X125549166Y-82588628D02*
X125168214Y-82588628D01*
X126692023Y-83064819D02*
X126120595Y-83064819D01*
X126406309Y-83064819D02*
X126406309Y-82064819D01*
X126406309Y-82064819D02*
X126311071Y-82207676D01*
X126311071Y-82207676D02*
X126215833Y-82302914D01*
X126215833Y-82302914D02*
X126120595Y-82350533D01*
X127025357Y-82064819D02*
X127644404Y-82064819D01*
X127644404Y-82064819D02*
X127311071Y-82445771D01*
X127311071Y-82445771D02*
X127453928Y-82445771D01*
X127453928Y-82445771D02*
X127549166Y-82493390D01*
X127549166Y-82493390D02*
X127596785Y-82541009D01*
X127596785Y-82541009D02*
X127644404Y-82636247D01*
X127644404Y-82636247D02*
X127644404Y-82874342D01*
X127644404Y-82874342D02*
X127596785Y-82969580D01*
X127596785Y-82969580D02*
X127549166Y-83017200D01*
X127549166Y-83017200D02*
X127453928Y-83064819D01*
X127453928Y-83064819D02*
X127168214Y-83064819D01*
X127168214Y-83064819D02*
X127072976Y-83017200D01*
X127072976Y-83017200D02*
X127025357Y-82969580D01*
X120989642Y-97814819D02*
X120656309Y-97338628D01*
X120418214Y-97814819D02*
X120418214Y-96814819D01*
X120418214Y-96814819D02*
X120799166Y-96814819D01*
X120799166Y-96814819D02*
X120894404Y-96862438D01*
X120894404Y-96862438D02*
X120942023Y-96910057D01*
X120942023Y-96910057D02*
X120989642Y-97005295D01*
X120989642Y-97005295D02*
X120989642Y-97148152D01*
X120989642Y-97148152D02*
X120942023Y-97243390D01*
X120942023Y-97243390D02*
X120894404Y-97291009D01*
X120894404Y-97291009D02*
X120799166Y-97338628D01*
X120799166Y-97338628D02*
X120418214Y-97338628D01*
X121942023Y-97814819D02*
X121370595Y-97814819D01*
X121656309Y-97814819D02*
X121656309Y-96814819D01*
X121656309Y-96814819D02*
X121561071Y-96957676D01*
X121561071Y-96957676D02*
X121465833Y-97052914D01*
X121465833Y-97052914D02*
X121370595Y-97100533D01*
X122322976Y-96910057D02*
X122370595Y-96862438D01*
X122370595Y-96862438D02*
X122465833Y-96814819D01*
X122465833Y-96814819D02*
X122703928Y-96814819D01*
X122703928Y-96814819D02*
X122799166Y-96862438D01*
X122799166Y-96862438D02*
X122846785Y-96910057D01*
X122846785Y-96910057D02*
X122894404Y-97005295D01*
X122894404Y-97005295D02*
X122894404Y-97100533D01*
X122894404Y-97100533D02*
X122846785Y-97243390D01*
X122846785Y-97243390D02*
X122275357Y-97814819D01*
X122275357Y-97814819D02*
X122894404Y-97814819D01*
X120989642Y-94864819D02*
X120656309Y-94388628D01*
X120418214Y-94864819D02*
X120418214Y-93864819D01*
X120418214Y-93864819D02*
X120799166Y-93864819D01*
X120799166Y-93864819D02*
X120894404Y-93912438D01*
X120894404Y-93912438D02*
X120942023Y-93960057D01*
X120942023Y-93960057D02*
X120989642Y-94055295D01*
X120989642Y-94055295D02*
X120989642Y-94198152D01*
X120989642Y-94198152D02*
X120942023Y-94293390D01*
X120942023Y-94293390D02*
X120894404Y-94341009D01*
X120894404Y-94341009D02*
X120799166Y-94388628D01*
X120799166Y-94388628D02*
X120418214Y-94388628D01*
X121942023Y-94864819D02*
X121370595Y-94864819D01*
X121656309Y-94864819D02*
X121656309Y-93864819D01*
X121656309Y-93864819D02*
X121561071Y-94007676D01*
X121561071Y-94007676D02*
X121465833Y-94102914D01*
X121465833Y-94102914D02*
X121370595Y-94150533D01*
X122894404Y-94864819D02*
X122322976Y-94864819D01*
X122608690Y-94864819D02*
X122608690Y-93864819D01*
X122608690Y-93864819D02*
X122513452Y-94007676D01*
X122513452Y-94007676D02*
X122418214Y-94102914D01*
X122418214Y-94102914D02*
X122322976Y-94150533D01*
X120989642Y-91914819D02*
X120656309Y-91438628D01*
X120418214Y-91914819D02*
X120418214Y-90914819D01*
X120418214Y-90914819D02*
X120799166Y-90914819D01*
X120799166Y-90914819D02*
X120894404Y-90962438D01*
X120894404Y-90962438D02*
X120942023Y-91010057D01*
X120942023Y-91010057D02*
X120989642Y-91105295D01*
X120989642Y-91105295D02*
X120989642Y-91248152D01*
X120989642Y-91248152D02*
X120942023Y-91343390D01*
X120942023Y-91343390D02*
X120894404Y-91391009D01*
X120894404Y-91391009D02*
X120799166Y-91438628D01*
X120799166Y-91438628D02*
X120418214Y-91438628D01*
X121942023Y-91914819D02*
X121370595Y-91914819D01*
X121656309Y-91914819D02*
X121656309Y-90914819D01*
X121656309Y-90914819D02*
X121561071Y-91057676D01*
X121561071Y-91057676D02*
X121465833Y-91152914D01*
X121465833Y-91152914D02*
X121370595Y-91200533D01*
X122561071Y-90914819D02*
X122656309Y-90914819D01*
X122656309Y-90914819D02*
X122751547Y-90962438D01*
X122751547Y-90962438D02*
X122799166Y-91010057D01*
X122799166Y-91010057D02*
X122846785Y-91105295D01*
X122846785Y-91105295D02*
X122894404Y-91295771D01*
X122894404Y-91295771D02*
X122894404Y-91533866D01*
X122894404Y-91533866D02*
X122846785Y-91724342D01*
X122846785Y-91724342D02*
X122799166Y-91819580D01*
X122799166Y-91819580D02*
X122751547Y-91867200D01*
X122751547Y-91867200D02*
X122656309Y-91914819D01*
X122656309Y-91914819D02*
X122561071Y-91914819D01*
X122561071Y-91914819D02*
X122465833Y-91867200D01*
X122465833Y-91867200D02*
X122418214Y-91819580D01*
X122418214Y-91819580D02*
X122370595Y-91724342D01*
X122370595Y-91724342D02*
X122322976Y-91533866D01*
X122322976Y-91533866D02*
X122322976Y-91295771D01*
X122322976Y-91295771D02*
X122370595Y-91105295D01*
X122370595Y-91105295D02*
X122418214Y-91010057D01*
X122418214Y-91010057D02*
X122465833Y-90962438D01*
X122465833Y-90962438D02*
X122561071Y-90914819D01*
X121465833Y-88964819D02*
X121132500Y-88488628D01*
X120894405Y-88964819D02*
X120894405Y-87964819D01*
X120894405Y-87964819D02*
X121275357Y-87964819D01*
X121275357Y-87964819D02*
X121370595Y-88012438D01*
X121370595Y-88012438D02*
X121418214Y-88060057D01*
X121418214Y-88060057D02*
X121465833Y-88155295D01*
X121465833Y-88155295D02*
X121465833Y-88298152D01*
X121465833Y-88298152D02*
X121418214Y-88393390D01*
X121418214Y-88393390D02*
X121370595Y-88441009D01*
X121370595Y-88441009D02*
X121275357Y-88488628D01*
X121275357Y-88488628D02*
X120894405Y-88488628D01*
X121942024Y-88964819D02*
X122132500Y-88964819D01*
X122132500Y-88964819D02*
X122227738Y-88917200D01*
X122227738Y-88917200D02*
X122275357Y-88869580D01*
X122275357Y-88869580D02*
X122370595Y-88726723D01*
X122370595Y-88726723D02*
X122418214Y-88536247D01*
X122418214Y-88536247D02*
X122418214Y-88155295D01*
X122418214Y-88155295D02*
X122370595Y-88060057D01*
X122370595Y-88060057D02*
X122322976Y-88012438D01*
X122322976Y-88012438D02*
X122227738Y-87964819D01*
X122227738Y-87964819D02*
X122037262Y-87964819D01*
X122037262Y-87964819D02*
X121942024Y-88012438D01*
X121942024Y-88012438D02*
X121894405Y-88060057D01*
X121894405Y-88060057D02*
X121846786Y-88155295D01*
X121846786Y-88155295D02*
X121846786Y-88393390D01*
X121846786Y-88393390D02*
X121894405Y-88488628D01*
X121894405Y-88488628D02*
X121942024Y-88536247D01*
X121942024Y-88536247D02*
X122037262Y-88583866D01*
X122037262Y-88583866D02*
X122227738Y-88583866D01*
X122227738Y-88583866D02*
X122322976Y-88536247D01*
X122322976Y-88536247D02*
X122370595Y-88488628D01*
X122370595Y-88488628D02*
X122418214Y-88393390D01*
X121465833Y-86014819D02*
X121132500Y-85538628D01*
X120894405Y-86014819D02*
X120894405Y-85014819D01*
X120894405Y-85014819D02*
X121275357Y-85014819D01*
X121275357Y-85014819D02*
X121370595Y-85062438D01*
X121370595Y-85062438D02*
X121418214Y-85110057D01*
X121418214Y-85110057D02*
X121465833Y-85205295D01*
X121465833Y-85205295D02*
X121465833Y-85348152D01*
X121465833Y-85348152D02*
X121418214Y-85443390D01*
X121418214Y-85443390D02*
X121370595Y-85491009D01*
X121370595Y-85491009D02*
X121275357Y-85538628D01*
X121275357Y-85538628D02*
X120894405Y-85538628D01*
X122037262Y-85443390D02*
X121942024Y-85395771D01*
X121942024Y-85395771D02*
X121894405Y-85348152D01*
X121894405Y-85348152D02*
X121846786Y-85252914D01*
X121846786Y-85252914D02*
X121846786Y-85205295D01*
X121846786Y-85205295D02*
X121894405Y-85110057D01*
X121894405Y-85110057D02*
X121942024Y-85062438D01*
X121942024Y-85062438D02*
X122037262Y-85014819D01*
X122037262Y-85014819D02*
X122227738Y-85014819D01*
X122227738Y-85014819D02*
X122322976Y-85062438D01*
X122322976Y-85062438D02*
X122370595Y-85110057D01*
X122370595Y-85110057D02*
X122418214Y-85205295D01*
X122418214Y-85205295D02*
X122418214Y-85252914D01*
X122418214Y-85252914D02*
X122370595Y-85348152D01*
X122370595Y-85348152D02*
X122322976Y-85395771D01*
X122322976Y-85395771D02*
X122227738Y-85443390D01*
X122227738Y-85443390D02*
X122037262Y-85443390D01*
X122037262Y-85443390D02*
X121942024Y-85491009D01*
X121942024Y-85491009D02*
X121894405Y-85538628D01*
X121894405Y-85538628D02*
X121846786Y-85633866D01*
X121846786Y-85633866D02*
X121846786Y-85824342D01*
X121846786Y-85824342D02*
X121894405Y-85919580D01*
X121894405Y-85919580D02*
X121942024Y-85967200D01*
X121942024Y-85967200D02*
X122037262Y-86014819D01*
X122037262Y-86014819D02*
X122227738Y-86014819D01*
X122227738Y-86014819D02*
X122322976Y-85967200D01*
X122322976Y-85967200D02*
X122370595Y-85919580D01*
X122370595Y-85919580D02*
X122418214Y-85824342D01*
X122418214Y-85824342D02*
X122418214Y-85633866D01*
X122418214Y-85633866D02*
X122370595Y-85538628D01*
X122370595Y-85538628D02*
X122322976Y-85491009D01*
X122322976Y-85491009D02*
X122227738Y-85443390D01*
X121465833Y-83064819D02*
X121132500Y-82588628D01*
X120894405Y-83064819D02*
X120894405Y-82064819D01*
X120894405Y-82064819D02*
X121275357Y-82064819D01*
X121275357Y-82064819D02*
X121370595Y-82112438D01*
X121370595Y-82112438D02*
X121418214Y-82160057D01*
X121418214Y-82160057D02*
X121465833Y-82255295D01*
X121465833Y-82255295D02*
X121465833Y-82398152D01*
X121465833Y-82398152D02*
X121418214Y-82493390D01*
X121418214Y-82493390D02*
X121370595Y-82541009D01*
X121370595Y-82541009D02*
X121275357Y-82588628D01*
X121275357Y-82588628D02*
X120894405Y-82588628D01*
X121799167Y-82064819D02*
X122465833Y-82064819D01*
X122465833Y-82064819D02*
X122037262Y-83064819D01*
X116715833Y-97814819D02*
X116382500Y-97338628D01*
X116144405Y-97814819D02*
X116144405Y-96814819D01*
X116144405Y-96814819D02*
X116525357Y-96814819D01*
X116525357Y-96814819D02*
X116620595Y-96862438D01*
X116620595Y-96862438D02*
X116668214Y-96910057D01*
X116668214Y-96910057D02*
X116715833Y-97005295D01*
X116715833Y-97005295D02*
X116715833Y-97148152D01*
X116715833Y-97148152D02*
X116668214Y-97243390D01*
X116668214Y-97243390D02*
X116620595Y-97291009D01*
X116620595Y-97291009D02*
X116525357Y-97338628D01*
X116525357Y-97338628D02*
X116144405Y-97338628D01*
X117572976Y-96814819D02*
X117382500Y-96814819D01*
X117382500Y-96814819D02*
X117287262Y-96862438D01*
X117287262Y-96862438D02*
X117239643Y-96910057D01*
X117239643Y-96910057D02*
X117144405Y-97052914D01*
X117144405Y-97052914D02*
X117096786Y-97243390D01*
X117096786Y-97243390D02*
X117096786Y-97624342D01*
X117096786Y-97624342D02*
X117144405Y-97719580D01*
X117144405Y-97719580D02*
X117192024Y-97767200D01*
X117192024Y-97767200D02*
X117287262Y-97814819D01*
X117287262Y-97814819D02*
X117477738Y-97814819D01*
X117477738Y-97814819D02*
X117572976Y-97767200D01*
X117572976Y-97767200D02*
X117620595Y-97719580D01*
X117620595Y-97719580D02*
X117668214Y-97624342D01*
X117668214Y-97624342D02*
X117668214Y-97386247D01*
X117668214Y-97386247D02*
X117620595Y-97291009D01*
X117620595Y-97291009D02*
X117572976Y-97243390D01*
X117572976Y-97243390D02*
X117477738Y-97195771D01*
X117477738Y-97195771D02*
X117287262Y-97195771D01*
X117287262Y-97195771D02*
X117192024Y-97243390D01*
X117192024Y-97243390D02*
X117144405Y-97291009D01*
X117144405Y-97291009D02*
X117096786Y-97386247D01*
X116715833Y-94864819D02*
X116382500Y-94388628D01*
X116144405Y-94864819D02*
X116144405Y-93864819D01*
X116144405Y-93864819D02*
X116525357Y-93864819D01*
X116525357Y-93864819D02*
X116620595Y-93912438D01*
X116620595Y-93912438D02*
X116668214Y-93960057D01*
X116668214Y-93960057D02*
X116715833Y-94055295D01*
X116715833Y-94055295D02*
X116715833Y-94198152D01*
X116715833Y-94198152D02*
X116668214Y-94293390D01*
X116668214Y-94293390D02*
X116620595Y-94341009D01*
X116620595Y-94341009D02*
X116525357Y-94388628D01*
X116525357Y-94388628D02*
X116144405Y-94388628D01*
X117620595Y-93864819D02*
X117144405Y-93864819D01*
X117144405Y-93864819D02*
X117096786Y-94341009D01*
X117096786Y-94341009D02*
X117144405Y-94293390D01*
X117144405Y-94293390D02*
X117239643Y-94245771D01*
X117239643Y-94245771D02*
X117477738Y-94245771D01*
X117477738Y-94245771D02*
X117572976Y-94293390D01*
X117572976Y-94293390D02*
X117620595Y-94341009D01*
X117620595Y-94341009D02*
X117668214Y-94436247D01*
X117668214Y-94436247D02*
X117668214Y-94674342D01*
X117668214Y-94674342D02*
X117620595Y-94769580D01*
X117620595Y-94769580D02*
X117572976Y-94817200D01*
X117572976Y-94817200D02*
X117477738Y-94864819D01*
X117477738Y-94864819D02*
X117239643Y-94864819D01*
X117239643Y-94864819D02*
X117144405Y-94817200D01*
X117144405Y-94817200D02*
X117096786Y-94769580D01*
X116715833Y-91914819D02*
X116382500Y-91438628D01*
X116144405Y-91914819D02*
X116144405Y-90914819D01*
X116144405Y-90914819D02*
X116525357Y-90914819D01*
X116525357Y-90914819D02*
X116620595Y-90962438D01*
X116620595Y-90962438D02*
X116668214Y-91010057D01*
X116668214Y-91010057D02*
X116715833Y-91105295D01*
X116715833Y-91105295D02*
X116715833Y-91248152D01*
X116715833Y-91248152D02*
X116668214Y-91343390D01*
X116668214Y-91343390D02*
X116620595Y-91391009D01*
X116620595Y-91391009D02*
X116525357Y-91438628D01*
X116525357Y-91438628D02*
X116144405Y-91438628D01*
X117572976Y-91248152D02*
X117572976Y-91914819D01*
X117334881Y-90867200D02*
X117096786Y-91581485D01*
X117096786Y-91581485D02*
X117715833Y-91581485D01*
X116715833Y-88964819D02*
X116382500Y-88488628D01*
X116144405Y-88964819D02*
X116144405Y-87964819D01*
X116144405Y-87964819D02*
X116525357Y-87964819D01*
X116525357Y-87964819D02*
X116620595Y-88012438D01*
X116620595Y-88012438D02*
X116668214Y-88060057D01*
X116668214Y-88060057D02*
X116715833Y-88155295D01*
X116715833Y-88155295D02*
X116715833Y-88298152D01*
X116715833Y-88298152D02*
X116668214Y-88393390D01*
X116668214Y-88393390D02*
X116620595Y-88441009D01*
X116620595Y-88441009D02*
X116525357Y-88488628D01*
X116525357Y-88488628D02*
X116144405Y-88488628D01*
X117049167Y-87964819D02*
X117668214Y-87964819D01*
X117668214Y-87964819D02*
X117334881Y-88345771D01*
X117334881Y-88345771D02*
X117477738Y-88345771D01*
X117477738Y-88345771D02*
X117572976Y-88393390D01*
X117572976Y-88393390D02*
X117620595Y-88441009D01*
X117620595Y-88441009D02*
X117668214Y-88536247D01*
X117668214Y-88536247D02*
X117668214Y-88774342D01*
X117668214Y-88774342D02*
X117620595Y-88869580D01*
X117620595Y-88869580D02*
X117572976Y-88917200D01*
X117572976Y-88917200D02*
X117477738Y-88964819D01*
X117477738Y-88964819D02*
X117192024Y-88964819D01*
X117192024Y-88964819D02*
X117096786Y-88917200D01*
X117096786Y-88917200D02*
X117049167Y-88869580D01*
X116715833Y-86014819D02*
X116382500Y-85538628D01*
X116144405Y-86014819D02*
X116144405Y-85014819D01*
X116144405Y-85014819D02*
X116525357Y-85014819D01*
X116525357Y-85014819D02*
X116620595Y-85062438D01*
X116620595Y-85062438D02*
X116668214Y-85110057D01*
X116668214Y-85110057D02*
X116715833Y-85205295D01*
X116715833Y-85205295D02*
X116715833Y-85348152D01*
X116715833Y-85348152D02*
X116668214Y-85443390D01*
X116668214Y-85443390D02*
X116620595Y-85491009D01*
X116620595Y-85491009D02*
X116525357Y-85538628D01*
X116525357Y-85538628D02*
X116144405Y-85538628D01*
X117096786Y-85110057D02*
X117144405Y-85062438D01*
X117144405Y-85062438D02*
X117239643Y-85014819D01*
X117239643Y-85014819D02*
X117477738Y-85014819D01*
X117477738Y-85014819D02*
X117572976Y-85062438D01*
X117572976Y-85062438D02*
X117620595Y-85110057D01*
X117620595Y-85110057D02*
X117668214Y-85205295D01*
X117668214Y-85205295D02*
X117668214Y-85300533D01*
X117668214Y-85300533D02*
X117620595Y-85443390D01*
X117620595Y-85443390D02*
X117049167Y-86014819D01*
X117049167Y-86014819D02*
X117668214Y-86014819D01*
X116715833Y-83064819D02*
X116382500Y-82588628D01*
X116144405Y-83064819D02*
X116144405Y-82064819D01*
X116144405Y-82064819D02*
X116525357Y-82064819D01*
X116525357Y-82064819D02*
X116620595Y-82112438D01*
X116620595Y-82112438D02*
X116668214Y-82160057D01*
X116668214Y-82160057D02*
X116715833Y-82255295D01*
X116715833Y-82255295D02*
X116715833Y-82398152D01*
X116715833Y-82398152D02*
X116668214Y-82493390D01*
X116668214Y-82493390D02*
X116620595Y-82541009D01*
X116620595Y-82541009D02*
X116525357Y-82588628D01*
X116525357Y-82588628D02*
X116144405Y-82588628D01*
X117668214Y-83064819D02*
X117096786Y-83064819D01*
X117382500Y-83064819D02*
X117382500Y-82064819D01*
X117382500Y-82064819D02*
X117287262Y-82207676D01*
X117287262Y-82207676D02*
X117192024Y-82302914D01*
X117192024Y-82302914D02*
X117096786Y-82350533D01*
X116857261Y-117600057D02*
X116762023Y-117552438D01*
X116762023Y-117552438D02*
X116666785Y-117457200D01*
X116666785Y-117457200D02*
X116523928Y-117314342D01*
X116523928Y-117314342D02*
X116428690Y-117266723D01*
X116428690Y-117266723D02*
X116333452Y-117266723D01*
X116381071Y-117504819D02*
X116285833Y-117457200D01*
X116285833Y-117457200D02*
X116190595Y-117361961D01*
X116190595Y-117361961D02*
X116142976Y-117171485D01*
X116142976Y-117171485D02*
X116142976Y-116838152D01*
X116142976Y-116838152D02*
X116190595Y-116647676D01*
X116190595Y-116647676D02*
X116285833Y-116552438D01*
X116285833Y-116552438D02*
X116381071Y-116504819D01*
X116381071Y-116504819D02*
X116571547Y-116504819D01*
X116571547Y-116504819D02*
X116666785Y-116552438D01*
X116666785Y-116552438D02*
X116762023Y-116647676D01*
X116762023Y-116647676D02*
X116809642Y-116838152D01*
X116809642Y-116838152D02*
X116809642Y-117171485D01*
X116809642Y-117171485D02*
X116762023Y-117361961D01*
X116762023Y-117361961D02*
X116666785Y-117457200D01*
X116666785Y-117457200D02*
X116571547Y-117504819D01*
X116571547Y-117504819D02*
X116381071Y-117504819D01*
X117190595Y-116600057D02*
X117238214Y-116552438D01*
X117238214Y-116552438D02*
X117333452Y-116504819D01*
X117333452Y-116504819D02*
X117571547Y-116504819D01*
X117571547Y-116504819D02*
X117666785Y-116552438D01*
X117666785Y-116552438D02*
X117714404Y-116600057D01*
X117714404Y-116600057D02*
X117762023Y-116695295D01*
X117762023Y-116695295D02*
X117762023Y-116790533D01*
X117762023Y-116790533D02*
X117714404Y-116933390D01*
X117714404Y-116933390D02*
X117142976Y-117504819D01*
X117142976Y-117504819D02*
X117762023Y-117504819D01*
X116857261Y-113150057D02*
X116762023Y-113102438D01*
X116762023Y-113102438D02*
X116666785Y-113007200D01*
X116666785Y-113007200D02*
X116523928Y-112864342D01*
X116523928Y-112864342D02*
X116428690Y-112816723D01*
X116428690Y-112816723D02*
X116333452Y-112816723D01*
X116381071Y-113054819D02*
X116285833Y-113007200D01*
X116285833Y-113007200D02*
X116190595Y-112911961D01*
X116190595Y-112911961D02*
X116142976Y-112721485D01*
X116142976Y-112721485D02*
X116142976Y-112388152D01*
X116142976Y-112388152D02*
X116190595Y-112197676D01*
X116190595Y-112197676D02*
X116285833Y-112102438D01*
X116285833Y-112102438D02*
X116381071Y-112054819D01*
X116381071Y-112054819D02*
X116571547Y-112054819D01*
X116571547Y-112054819D02*
X116666785Y-112102438D01*
X116666785Y-112102438D02*
X116762023Y-112197676D01*
X116762023Y-112197676D02*
X116809642Y-112388152D01*
X116809642Y-112388152D02*
X116809642Y-112721485D01*
X116809642Y-112721485D02*
X116762023Y-112911961D01*
X116762023Y-112911961D02*
X116666785Y-113007200D01*
X116666785Y-113007200D02*
X116571547Y-113054819D01*
X116571547Y-113054819D02*
X116381071Y-113054819D01*
X117762023Y-113054819D02*
X117190595Y-113054819D01*
X117476309Y-113054819D02*
X117476309Y-112054819D01*
X117476309Y-112054819D02*
X117381071Y-112197676D01*
X117381071Y-112197676D02*
X117285833Y-112292914D01*
X117285833Y-112292914D02*
X117190595Y-112340533D01*
D12*
X146925833Y-105190419D02*
X146449643Y-105190419D01*
X146449643Y-105190419D02*
X146449643Y-104190419D01*
X147782976Y-105190419D02*
X147211548Y-105190419D01*
X147497262Y-105190419D02*
X147497262Y-104190419D01*
X147497262Y-104190419D02*
X147402024Y-104333276D01*
X147402024Y-104333276D02*
X147306786Y-104428514D01*
X147306786Y-104428514D02*
X147211548Y-104476133D01*
X123314166Y-111482419D02*
X123314166Y-112196704D01*
X123314166Y-112196704D02*
X123266547Y-112339561D01*
X123266547Y-112339561D02*
X123171309Y-112434800D01*
X123171309Y-112434800D02*
X123028452Y-112482419D01*
X123028452Y-112482419D02*
X122933214Y-112482419D01*
X124266547Y-111482419D02*
X123790357Y-111482419D01*
X123790357Y-111482419D02*
X123742738Y-111958609D01*
X123742738Y-111958609D02*
X123790357Y-111910990D01*
X123790357Y-111910990D02*
X123885595Y-111863371D01*
X123885595Y-111863371D02*
X124123690Y-111863371D01*
X124123690Y-111863371D02*
X124218928Y-111910990D01*
X124218928Y-111910990D02*
X124266547Y-111958609D01*
X124266547Y-111958609D02*
X124314166Y-112053847D01*
X124314166Y-112053847D02*
X124314166Y-112291942D01*
X124314166Y-112291942D02*
X124266547Y-112387180D01*
X124266547Y-112387180D02*
X124218928Y-112434800D01*
X124218928Y-112434800D02*
X124123690Y-112482419D01*
X124123690Y-112482419D02*
X123885595Y-112482419D01*
X123885595Y-112482419D02*
X123790357Y-112434800D01*
X123790357Y-112434800D02*
X123742738Y-112387180D01*
X145104166Y-117452419D02*
X145104166Y-118166704D01*
X145104166Y-118166704D02*
X145056547Y-118309561D01*
X145056547Y-118309561D02*
X144961309Y-118404800D01*
X144961309Y-118404800D02*
X144818452Y-118452419D01*
X144818452Y-118452419D02*
X144723214Y-118452419D01*
X146008928Y-117785752D02*
X146008928Y-118452419D01*
X145770833Y-117404800D02*
X145532738Y-118119085D01*
X145532738Y-118119085D02*
X146151785Y-118119085D01*
X148584166Y-93952419D02*
X148584166Y-94666704D01*
X148584166Y-94666704D02*
X148536547Y-94809561D01*
X148536547Y-94809561D02*
X148441309Y-94904800D01*
X148441309Y-94904800D02*
X148298452Y-94952419D01*
X148298452Y-94952419D02*
X148203214Y-94952419D01*
X148965119Y-93952419D02*
X149584166Y-93952419D01*
X149584166Y-93952419D02*
X149250833Y-94333371D01*
X149250833Y-94333371D02*
X149393690Y-94333371D01*
X149393690Y-94333371D02*
X149488928Y-94380990D01*
X149488928Y-94380990D02*
X149536547Y-94428609D01*
X149536547Y-94428609D02*
X149584166Y-94523847D01*
X149584166Y-94523847D02*
X149584166Y-94761942D01*
X149584166Y-94761942D02*
X149536547Y-94857180D01*
X149536547Y-94857180D02*
X149488928Y-94904800D01*
X149488928Y-94904800D02*
X149393690Y-94952419D01*
X149393690Y-94952419D02*
X149107976Y-94952419D01*
X149107976Y-94952419D02*
X149012738Y-94904800D01*
X149012738Y-94904800D02*
X148965119Y-94857180D01*
D10*
X149699405Y-86459819D02*
X149699405Y-85459819D01*
X149699405Y-85459819D02*
X149937500Y-85459819D01*
X149937500Y-85459819D02*
X150080357Y-85507438D01*
X150080357Y-85507438D02*
X150175595Y-85602676D01*
X150175595Y-85602676D02*
X150223214Y-85697914D01*
X150223214Y-85697914D02*
X150270833Y-85888390D01*
X150270833Y-85888390D02*
X150270833Y-86031247D01*
X150270833Y-86031247D02*
X150223214Y-86221723D01*
X150223214Y-86221723D02*
X150175595Y-86316961D01*
X150175595Y-86316961D02*
X150080357Y-86412200D01*
X150080357Y-86412200D02*
X149937500Y-86459819D01*
X149937500Y-86459819D02*
X149699405Y-86459819D01*
X150651786Y-85555057D02*
X150699405Y-85507438D01*
X150699405Y-85507438D02*
X150794643Y-85459819D01*
X150794643Y-85459819D02*
X151032738Y-85459819D01*
X151032738Y-85459819D02*
X151127976Y-85507438D01*
X151127976Y-85507438D02*
X151175595Y-85555057D01*
X151175595Y-85555057D02*
X151223214Y-85650295D01*
X151223214Y-85650295D02*
X151223214Y-85745533D01*
X151223214Y-85745533D02*
X151175595Y-85888390D01*
X151175595Y-85888390D02*
X150604167Y-86459819D01*
X150604167Y-86459819D02*
X151223214Y-86459819D01*
X150199405Y-82914819D02*
X150199405Y-81914819D01*
X150199405Y-81914819D02*
X150437500Y-81914819D01*
X150437500Y-81914819D02*
X150580357Y-81962438D01*
X150580357Y-81962438D02*
X150675595Y-82057676D01*
X150675595Y-82057676D02*
X150723214Y-82152914D01*
X150723214Y-82152914D02*
X150770833Y-82343390D01*
X150770833Y-82343390D02*
X150770833Y-82486247D01*
X150770833Y-82486247D02*
X150723214Y-82676723D01*
X150723214Y-82676723D02*
X150675595Y-82771961D01*
X150675595Y-82771961D02*
X150580357Y-82867200D01*
X150580357Y-82867200D02*
X150437500Y-82914819D01*
X150437500Y-82914819D02*
X150199405Y-82914819D01*
X151723214Y-82914819D02*
X151151786Y-82914819D01*
X151437500Y-82914819D02*
X151437500Y-81914819D01*
X151437500Y-81914819D02*
X151342262Y-82057676D01*
X151342262Y-82057676D02*
X151247024Y-82152914D01*
X151247024Y-82152914D02*
X151151786Y-82200533D01*
X140139642Y-119509580D02*
X140092023Y-119557200D01*
X140092023Y-119557200D02*
X139949166Y-119604819D01*
X139949166Y-119604819D02*
X139853928Y-119604819D01*
X139853928Y-119604819D02*
X139711071Y-119557200D01*
X139711071Y-119557200D02*
X139615833Y-119461961D01*
X139615833Y-119461961D02*
X139568214Y-119366723D01*
X139568214Y-119366723D02*
X139520595Y-119176247D01*
X139520595Y-119176247D02*
X139520595Y-119033390D01*
X139520595Y-119033390D02*
X139568214Y-118842914D01*
X139568214Y-118842914D02*
X139615833Y-118747676D01*
X139615833Y-118747676D02*
X139711071Y-118652438D01*
X139711071Y-118652438D02*
X139853928Y-118604819D01*
X139853928Y-118604819D02*
X139949166Y-118604819D01*
X139949166Y-118604819D02*
X140092023Y-118652438D01*
X140092023Y-118652438D02*
X140139642Y-118700057D01*
X141092023Y-119604819D02*
X140520595Y-119604819D01*
X140806309Y-119604819D02*
X140806309Y-118604819D01*
X140806309Y-118604819D02*
X140711071Y-118747676D01*
X140711071Y-118747676D02*
X140615833Y-118842914D01*
X140615833Y-118842914D02*
X140520595Y-118890533D01*
X141472976Y-118700057D02*
X141520595Y-118652438D01*
X141520595Y-118652438D02*
X141615833Y-118604819D01*
X141615833Y-118604819D02*
X141853928Y-118604819D01*
X141853928Y-118604819D02*
X141949166Y-118652438D01*
X141949166Y-118652438D02*
X141996785Y-118700057D01*
X141996785Y-118700057D02*
X142044404Y-118795295D01*
X142044404Y-118795295D02*
X142044404Y-118890533D01*
X142044404Y-118890533D02*
X141996785Y-119033390D01*
X141996785Y-119033390D02*
X141425357Y-119604819D01*
X141425357Y-119604819D02*
X142044404Y-119604819D01*
X140139642Y-116499580D02*
X140092023Y-116547200D01*
X140092023Y-116547200D02*
X139949166Y-116594819D01*
X139949166Y-116594819D02*
X139853928Y-116594819D01*
X139853928Y-116594819D02*
X139711071Y-116547200D01*
X139711071Y-116547200D02*
X139615833Y-116451961D01*
X139615833Y-116451961D02*
X139568214Y-116356723D01*
X139568214Y-116356723D02*
X139520595Y-116166247D01*
X139520595Y-116166247D02*
X139520595Y-116023390D01*
X139520595Y-116023390D02*
X139568214Y-115832914D01*
X139568214Y-115832914D02*
X139615833Y-115737676D01*
X139615833Y-115737676D02*
X139711071Y-115642438D01*
X139711071Y-115642438D02*
X139853928Y-115594819D01*
X139853928Y-115594819D02*
X139949166Y-115594819D01*
X139949166Y-115594819D02*
X140092023Y-115642438D01*
X140092023Y-115642438D02*
X140139642Y-115690057D01*
X141092023Y-116594819D02*
X140520595Y-116594819D01*
X140806309Y-116594819D02*
X140806309Y-115594819D01*
X140806309Y-115594819D02*
X140711071Y-115737676D01*
X140711071Y-115737676D02*
X140615833Y-115832914D01*
X140615833Y-115832914D02*
X140520595Y-115880533D01*
X142044404Y-116594819D02*
X141472976Y-116594819D01*
X141758690Y-116594819D02*
X141758690Y-115594819D01*
X141758690Y-115594819D02*
X141663452Y-115737676D01*
X141663452Y-115737676D02*
X141568214Y-115832914D01*
X141568214Y-115832914D02*
X141472976Y-115880533D01*
X140139642Y-113489580D02*
X140092023Y-113537200D01*
X140092023Y-113537200D02*
X139949166Y-113584819D01*
X139949166Y-113584819D02*
X139853928Y-113584819D01*
X139853928Y-113584819D02*
X139711071Y-113537200D01*
X139711071Y-113537200D02*
X139615833Y-113441961D01*
X139615833Y-113441961D02*
X139568214Y-113346723D01*
X139568214Y-113346723D02*
X139520595Y-113156247D01*
X139520595Y-113156247D02*
X139520595Y-113013390D01*
X139520595Y-113013390D02*
X139568214Y-112822914D01*
X139568214Y-112822914D02*
X139615833Y-112727676D01*
X139615833Y-112727676D02*
X139711071Y-112632438D01*
X139711071Y-112632438D02*
X139853928Y-112584819D01*
X139853928Y-112584819D02*
X139949166Y-112584819D01*
X139949166Y-112584819D02*
X140092023Y-112632438D01*
X140092023Y-112632438D02*
X140139642Y-112680057D01*
X141092023Y-113584819D02*
X140520595Y-113584819D01*
X140806309Y-113584819D02*
X140806309Y-112584819D01*
X140806309Y-112584819D02*
X140711071Y-112727676D01*
X140711071Y-112727676D02*
X140615833Y-112822914D01*
X140615833Y-112822914D02*
X140520595Y-112870533D01*
X141711071Y-112584819D02*
X141806309Y-112584819D01*
X141806309Y-112584819D02*
X141901547Y-112632438D01*
X141901547Y-112632438D02*
X141949166Y-112680057D01*
X141949166Y-112680057D02*
X141996785Y-112775295D01*
X141996785Y-112775295D02*
X142044404Y-112965771D01*
X142044404Y-112965771D02*
X142044404Y-113203866D01*
X142044404Y-113203866D02*
X141996785Y-113394342D01*
X141996785Y-113394342D02*
X141949166Y-113489580D01*
X141949166Y-113489580D02*
X141901547Y-113537200D01*
X141901547Y-113537200D02*
X141806309Y-113584819D01*
X141806309Y-113584819D02*
X141711071Y-113584819D01*
X141711071Y-113584819D02*
X141615833Y-113537200D01*
X141615833Y-113537200D02*
X141568214Y-113489580D01*
X141568214Y-113489580D02*
X141520595Y-113394342D01*
X141520595Y-113394342D02*
X141472976Y-113203866D01*
X141472976Y-113203866D02*
X141472976Y-112965771D01*
X141472976Y-112965771D02*
X141520595Y-112775295D01*
X141520595Y-112775295D02*
X141568214Y-112680057D01*
X141568214Y-112680057D02*
X141615833Y-112632438D01*
X141615833Y-112632438D02*
X141711071Y-112584819D01*
X140615833Y-110479580D02*
X140568214Y-110527200D01*
X140568214Y-110527200D02*
X140425357Y-110574819D01*
X140425357Y-110574819D02*
X140330119Y-110574819D01*
X140330119Y-110574819D02*
X140187262Y-110527200D01*
X140187262Y-110527200D02*
X140092024Y-110431961D01*
X140092024Y-110431961D02*
X140044405Y-110336723D01*
X140044405Y-110336723D02*
X139996786Y-110146247D01*
X139996786Y-110146247D02*
X139996786Y-110003390D01*
X139996786Y-110003390D02*
X140044405Y-109812914D01*
X140044405Y-109812914D02*
X140092024Y-109717676D01*
X140092024Y-109717676D02*
X140187262Y-109622438D01*
X140187262Y-109622438D02*
X140330119Y-109574819D01*
X140330119Y-109574819D02*
X140425357Y-109574819D01*
X140425357Y-109574819D02*
X140568214Y-109622438D01*
X140568214Y-109622438D02*
X140615833Y-109670057D01*
X141092024Y-110574819D02*
X141282500Y-110574819D01*
X141282500Y-110574819D02*
X141377738Y-110527200D01*
X141377738Y-110527200D02*
X141425357Y-110479580D01*
X141425357Y-110479580D02*
X141520595Y-110336723D01*
X141520595Y-110336723D02*
X141568214Y-110146247D01*
X141568214Y-110146247D02*
X141568214Y-109765295D01*
X141568214Y-109765295D02*
X141520595Y-109670057D01*
X141520595Y-109670057D02*
X141472976Y-109622438D01*
X141472976Y-109622438D02*
X141377738Y-109574819D01*
X141377738Y-109574819D02*
X141187262Y-109574819D01*
X141187262Y-109574819D02*
X141092024Y-109622438D01*
X141092024Y-109622438D02*
X141044405Y-109670057D01*
X141044405Y-109670057D02*
X140996786Y-109765295D01*
X140996786Y-109765295D02*
X140996786Y-110003390D01*
X140996786Y-110003390D02*
X141044405Y-110098628D01*
X141044405Y-110098628D02*
X141092024Y-110146247D01*
X141092024Y-110146247D02*
X141187262Y-110193866D01*
X141187262Y-110193866D02*
X141377738Y-110193866D01*
X141377738Y-110193866D02*
X141472976Y-110146247D01*
X141472976Y-110146247D02*
X141520595Y-110098628D01*
X141520595Y-110098628D02*
X141568214Y-110003390D01*
X135805833Y-119509580D02*
X135758214Y-119557200D01*
X135758214Y-119557200D02*
X135615357Y-119604819D01*
X135615357Y-119604819D02*
X135520119Y-119604819D01*
X135520119Y-119604819D02*
X135377262Y-119557200D01*
X135377262Y-119557200D02*
X135282024Y-119461961D01*
X135282024Y-119461961D02*
X135234405Y-119366723D01*
X135234405Y-119366723D02*
X135186786Y-119176247D01*
X135186786Y-119176247D02*
X135186786Y-119033390D01*
X135186786Y-119033390D02*
X135234405Y-118842914D01*
X135234405Y-118842914D02*
X135282024Y-118747676D01*
X135282024Y-118747676D02*
X135377262Y-118652438D01*
X135377262Y-118652438D02*
X135520119Y-118604819D01*
X135520119Y-118604819D02*
X135615357Y-118604819D01*
X135615357Y-118604819D02*
X135758214Y-118652438D01*
X135758214Y-118652438D02*
X135805833Y-118700057D01*
X136377262Y-119033390D02*
X136282024Y-118985771D01*
X136282024Y-118985771D02*
X136234405Y-118938152D01*
X136234405Y-118938152D02*
X136186786Y-118842914D01*
X136186786Y-118842914D02*
X136186786Y-118795295D01*
X136186786Y-118795295D02*
X136234405Y-118700057D01*
X136234405Y-118700057D02*
X136282024Y-118652438D01*
X136282024Y-118652438D02*
X136377262Y-118604819D01*
X136377262Y-118604819D02*
X136567738Y-118604819D01*
X136567738Y-118604819D02*
X136662976Y-118652438D01*
X136662976Y-118652438D02*
X136710595Y-118700057D01*
X136710595Y-118700057D02*
X136758214Y-118795295D01*
X136758214Y-118795295D02*
X136758214Y-118842914D01*
X136758214Y-118842914D02*
X136710595Y-118938152D01*
X136710595Y-118938152D02*
X136662976Y-118985771D01*
X136662976Y-118985771D02*
X136567738Y-119033390D01*
X136567738Y-119033390D02*
X136377262Y-119033390D01*
X136377262Y-119033390D02*
X136282024Y-119081009D01*
X136282024Y-119081009D02*
X136234405Y-119128628D01*
X136234405Y-119128628D02*
X136186786Y-119223866D01*
X136186786Y-119223866D02*
X136186786Y-119414342D01*
X136186786Y-119414342D02*
X136234405Y-119509580D01*
X136234405Y-119509580D02*
X136282024Y-119557200D01*
X136282024Y-119557200D02*
X136377262Y-119604819D01*
X136377262Y-119604819D02*
X136567738Y-119604819D01*
X136567738Y-119604819D02*
X136662976Y-119557200D01*
X136662976Y-119557200D02*
X136710595Y-119509580D01*
X136710595Y-119509580D02*
X136758214Y-119414342D01*
X136758214Y-119414342D02*
X136758214Y-119223866D01*
X136758214Y-119223866D02*
X136710595Y-119128628D01*
X136710595Y-119128628D02*
X136662976Y-119081009D01*
X136662976Y-119081009D02*
X136567738Y-119033390D01*
X135805833Y-116499580D02*
X135758214Y-116547200D01*
X135758214Y-116547200D02*
X135615357Y-116594819D01*
X135615357Y-116594819D02*
X135520119Y-116594819D01*
X135520119Y-116594819D02*
X135377262Y-116547200D01*
X135377262Y-116547200D02*
X135282024Y-116451961D01*
X135282024Y-116451961D02*
X135234405Y-116356723D01*
X135234405Y-116356723D02*
X135186786Y-116166247D01*
X135186786Y-116166247D02*
X135186786Y-116023390D01*
X135186786Y-116023390D02*
X135234405Y-115832914D01*
X135234405Y-115832914D02*
X135282024Y-115737676D01*
X135282024Y-115737676D02*
X135377262Y-115642438D01*
X135377262Y-115642438D02*
X135520119Y-115594819D01*
X135520119Y-115594819D02*
X135615357Y-115594819D01*
X135615357Y-115594819D02*
X135758214Y-115642438D01*
X135758214Y-115642438D02*
X135805833Y-115690057D01*
X136139167Y-115594819D02*
X136805833Y-115594819D01*
X136805833Y-115594819D02*
X136377262Y-116594819D01*
X135805833Y-113489580D02*
X135758214Y-113537200D01*
X135758214Y-113537200D02*
X135615357Y-113584819D01*
X135615357Y-113584819D02*
X135520119Y-113584819D01*
X135520119Y-113584819D02*
X135377262Y-113537200D01*
X135377262Y-113537200D02*
X135282024Y-113441961D01*
X135282024Y-113441961D02*
X135234405Y-113346723D01*
X135234405Y-113346723D02*
X135186786Y-113156247D01*
X135186786Y-113156247D02*
X135186786Y-113013390D01*
X135186786Y-113013390D02*
X135234405Y-112822914D01*
X135234405Y-112822914D02*
X135282024Y-112727676D01*
X135282024Y-112727676D02*
X135377262Y-112632438D01*
X135377262Y-112632438D02*
X135520119Y-112584819D01*
X135520119Y-112584819D02*
X135615357Y-112584819D01*
X135615357Y-112584819D02*
X135758214Y-112632438D01*
X135758214Y-112632438D02*
X135805833Y-112680057D01*
X136662976Y-112584819D02*
X136472500Y-112584819D01*
X136472500Y-112584819D02*
X136377262Y-112632438D01*
X136377262Y-112632438D02*
X136329643Y-112680057D01*
X136329643Y-112680057D02*
X136234405Y-112822914D01*
X136234405Y-112822914D02*
X136186786Y-113013390D01*
X136186786Y-113013390D02*
X136186786Y-113394342D01*
X136186786Y-113394342D02*
X136234405Y-113489580D01*
X136234405Y-113489580D02*
X136282024Y-113537200D01*
X136282024Y-113537200D02*
X136377262Y-113584819D01*
X136377262Y-113584819D02*
X136567738Y-113584819D01*
X136567738Y-113584819D02*
X136662976Y-113537200D01*
X136662976Y-113537200D02*
X136710595Y-113489580D01*
X136710595Y-113489580D02*
X136758214Y-113394342D01*
X136758214Y-113394342D02*
X136758214Y-113156247D01*
X136758214Y-113156247D02*
X136710595Y-113061009D01*
X136710595Y-113061009D02*
X136662976Y-113013390D01*
X136662976Y-113013390D02*
X136567738Y-112965771D01*
X136567738Y-112965771D02*
X136377262Y-112965771D01*
X136377262Y-112965771D02*
X136282024Y-113013390D01*
X136282024Y-113013390D02*
X136234405Y-113061009D01*
X136234405Y-113061009D02*
X136186786Y-113156247D01*
X135805833Y-110479580D02*
X135758214Y-110527200D01*
X135758214Y-110527200D02*
X135615357Y-110574819D01*
X135615357Y-110574819D02*
X135520119Y-110574819D01*
X135520119Y-110574819D02*
X135377262Y-110527200D01*
X135377262Y-110527200D02*
X135282024Y-110431961D01*
X135282024Y-110431961D02*
X135234405Y-110336723D01*
X135234405Y-110336723D02*
X135186786Y-110146247D01*
X135186786Y-110146247D02*
X135186786Y-110003390D01*
X135186786Y-110003390D02*
X135234405Y-109812914D01*
X135234405Y-109812914D02*
X135282024Y-109717676D01*
X135282024Y-109717676D02*
X135377262Y-109622438D01*
X135377262Y-109622438D02*
X135520119Y-109574819D01*
X135520119Y-109574819D02*
X135615357Y-109574819D01*
X135615357Y-109574819D02*
X135758214Y-109622438D01*
X135758214Y-109622438D02*
X135805833Y-109670057D01*
X136710595Y-109574819D02*
X136234405Y-109574819D01*
X136234405Y-109574819D02*
X136186786Y-110051009D01*
X136186786Y-110051009D02*
X136234405Y-110003390D01*
X136234405Y-110003390D02*
X136329643Y-109955771D01*
X136329643Y-109955771D02*
X136567738Y-109955771D01*
X136567738Y-109955771D02*
X136662976Y-110003390D01*
X136662976Y-110003390D02*
X136710595Y-110051009D01*
X136710595Y-110051009D02*
X136758214Y-110146247D01*
X136758214Y-110146247D02*
X136758214Y-110384342D01*
X136758214Y-110384342D02*
X136710595Y-110479580D01*
X136710595Y-110479580D02*
X136662976Y-110527200D01*
X136662976Y-110527200D02*
X136567738Y-110574819D01*
X136567738Y-110574819D02*
X136329643Y-110574819D01*
X136329643Y-110574819D02*
X136234405Y-110527200D01*
X136234405Y-110527200D02*
X136186786Y-110479580D01*
X130995833Y-119509580D02*
X130948214Y-119557200D01*
X130948214Y-119557200D02*
X130805357Y-119604819D01*
X130805357Y-119604819D02*
X130710119Y-119604819D01*
X130710119Y-119604819D02*
X130567262Y-119557200D01*
X130567262Y-119557200D02*
X130472024Y-119461961D01*
X130472024Y-119461961D02*
X130424405Y-119366723D01*
X130424405Y-119366723D02*
X130376786Y-119176247D01*
X130376786Y-119176247D02*
X130376786Y-119033390D01*
X130376786Y-119033390D02*
X130424405Y-118842914D01*
X130424405Y-118842914D02*
X130472024Y-118747676D01*
X130472024Y-118747676D02*
X130567262Y-118652438D01*
X130567262Y-118652438D02*
X130710119Y-118604819D01*
X130710119Y-118604819D02*
X130805357Y-118604819D01*
X130805357Y-118604819D02*
X130948214Y-118652438D01*
X130948214Y-118652438D02*
X130995833Y-118700057D01*
X131852976Y-118938152D02*
X131852976Y-119604819D01*
X131614881Y-118557200D02*
X131376786Y-119271485D01*
X131376786Y-119271485D02*
X131995833Y-119271485D01*
X130995833Y-116499580D02*
X130948214Y-116547200D01*
X130948214Y-116547200D02*
X130805357Y-116594819D01*
X130805357Y-116594819D02*
X130710119Y-116594819D01*
X130710119Y-116594819D02*
X130567262Y-116547200D01*
X130567262Y-116547200D02*
X130472024Y-116451961D01*
X130472024Y-116451961D02*
X130424405Y-116356723D01*
X130424405Y-116356723D02*
X130376786Y-116166247D01*
X130376786Y-116166247D02*
X130376786Y-116023390D01*
X130376786Y-116023390D02*
X130424405Y-115832914D01*
X130424405Y-115832914D02*
X130472024Y-115737676D01*
X130472024Y-115737676D02*
X130567262Y-115642438D01*
X130567262Y-115642438D02*
X130710119Y-115594819D01*
X130710119Y-115594819D02*
X130805357Y-115594819D01*
X130805357Y-115594819D02*
X130948214Y-115642438D01*
X130948214Y-115642438D02*
X130995833Y-115690057D01*
X131329167Y-115594819D02*
X131948214Y-115594819D01*
X131948214Y-115594819D02*
X131614881Y-115975771D01*
X131614881Y-115975771D02*
X131757738Y-115975771D01*
X131757738Y-115975771D02*
X131852976Y-116023390D01*
X131852976Y-116023390D02*
X131900595Y-116071009D01*
X131900595Y-116071009D02*
X131948214Y-116166247D01*
X131948214Y-116166247D02*
X131948214Y-116404342D01*
X131948214Y-116404342D02*
X131900595Y-116499580D01*
X131900595Y-116499580D02*
X131852976Y-116547200D01*
X131852976Y-116547200D02*
X131757738Y-116594819D01*
X131757738Y-116594819D02*
X131472024Y-116594819D01*
X131472024Y-116594819D02*
X131376786Y-116547200D01*
X131376786Y-116547200D02*
X131329167Y-116499580D01*
X130995833Y-113489580D02*
X130948214Y-113537200D01*
X130948214Y-113537200D02*
X130805357Y-113584819D01*
X130805357Y-113584819D02*
X130710119Y-113584819D01*
X130710119Y-113584819D02*
X130567262Y-113537200D01*
X130567262Y-113537200D02*
X130472024Y-113441961D01*
X130472024Y-113441961D02*
X130424405Y-113346723D01*
X130424405Y-113346723D02*
X130376786Y-113156247D01*
X130376786Y-113156247D02*
X130376786Y-113013390D01*
X130376786Y-113013390D02*
X130424405Y-112822914D01*
X130424405Y-112822914D02*
X130472024Y-112727676D01*
X130472024Y-112727676D02*
X130567262Y-112632438D01*
X130567262Y-112632438D02*
X130710119Y-112584819D01*
X130710119Y-112584819D02*
X130805357Y-112584819D01*
X130805357Y-112584819D02*
X130948214Y-112632438D01*
X130948214Y-112632438D02*
X130995833Y-112680057D01*
X131376786Y-112680057D02*
X131424405Y-112632438D01*
X131424405Y-112632438D02*
X131519643Y-112584819D01*
X131519643Y-112584819D02*
X131757738Y-112584819D01*
X131757738Y-112584819D02*
X131852976Y-112632438D01*
X131852976Y-112632438D02*
X131900595Y-112680057D01*
X131900595Y-112680057D02*
X131948214Y-112775295D01*
X131948214Y-112775295D02*
X131948214Y-112870533D01*
X131948214Y-112870533D02*
X131900595Y-113013390D01*
X131900595Y-113013390D02*
X131329167Y-113584819D01*
X131329167Y-113584819D02*
X131948214Y-113584819D01*
X130995833Y-110479580D02*
X130948214Y-110527200D01*
X130948214Y-110527200D02*
X130805357Y-110574819D01*
X130805357Y-110574819D02*
X130710119Y-110574819D01*
X130710119Y-110574819D02*
X130567262Y-110527200D01*
X130567262Y-110527200D02*
X130472024Y-110431961D01*
X130472024Y-110431961D02*
X130424405Y-110336723D01*
X130424405Y-110336723D02*
X130376786Y-110146247D01*
X130376786Y-110146247D02*
X130376786Y-110003390D01*
X130376786Y-110003390D02*
X130424405Y-109812914D01*
X130424405Y-109812914D02*
X130472024Y-109717676D01*
X130472024Y-109717676D02*
X130567262Y-109622438D01*
X130567262Y-109622438D02*
X130710119Y-109574819D01*
X130710119Y-109574819D02*
X130805357Y-109574819D01*
X130805357Y-109574819D02*
X130948214Y-109622438D01*
X130948214Y-109622438D02*
X130995833Y-109670057D01*
X131948214Y-110574819D02*
X131376786Y-110574819D01*
X131662500Y-110574819D02*
X131662500Y-109574819D01*
X131662500Y-109574819D02*
X131567262Y-109717676D01*
X131567262Y-109717676D02*
X131472024Y-109812914D01*
X131472024Y-109812914D02*
X131376786Y-109860533D01*
D13*
%TO.C,SW1*%
X145585000Y-114805000D02*
X145585000Y-114925000D01*
X149985000Y-111645000D02*
X149985000Y-111525000D01*
X145585000Y-114925000D02*
X149985000Y-114925000D01*
X149985000Y-111525000D02*
X145585000Y-111525000D01*
X149985000Y-113795000D02*
X149985000Y-112655000D01*
X149985000Y-114925000D02*
X149985000Y-114805000D01*
X145585000Y-111525000D02*
X145585000Y-111645000D01*
X145585000Y-112655000D02*
X145585000Y-113795000D01*
%TO.C,J2*%
X161200000Y-96825000D02*
X160570000Y-96825000D01*
X161200000Y-96185000D02*
X161200000Y-96825000D01*
X163920000Y-96235000D02*
X163920000Y-98935000D01*
X161200000Y-98985000D02*
X161200000Y-98345000D01*
%TO.C,U6*%
X151262500Y-122530000D02*
X150462500Y-122530000D01*
X151262500Y-119410000D02*
X149462500Y-119410000D01*
X151262500Y-119410000D02*
X152062500Y-119410000D01*
X151262500Y-122530000D02*
X152062500Y-122530000D01*
D14*
%TO.C,U5*%
X151327500Y-105508500D02*
X151017500Y-105508500D01*
D15*
X150667500Y-105997500D02*
G75*
G03*
X150667500Y-105997500I-100000J0D01*
G01*
D14*
X152807500Y-107986500D02*
X153117500Y-107986500D01*
X151327500Y-107986500D02*
X151017500Y-107986500D01*
X152807500Y-105508500D02*
X153117500Y-105508500D01*
D13*
%TO.C,U4*%
X116957500Y-106595000D02*
X116957500Y-106335000D01*
X116957500Y-101405000D02*
X115282500Y-101405000D01*
X119682500Y-101145000D02*
X116957500Y-101145000D01*
X116957500Y-101145000D02*
X116957500Y-101405000D01*
X122407500Y-106595000D02*
X122407500Y-106335000D01*
X119682500Y-106595000D02*
X122407500Y-106595000D01*
X119682500Y-106595000D02*
X116957500Y-106595000D01*
X122407500Y-101145000D02*
X122407500Y-101405000D01*
X119682500Y-101145000D02*
X122407500Y-101145000D01*
D14*
%TO.C,U3*%
X150500000Y-90462500D02*
X150792500Y-90462500D01*
X148792500Y-90462500D02*
X149085000Y-90462500D01*
X150792500Y-90462500D02*
X150792500Y-90505000D01*
X150792500Y-92420000D02*
X150792500Y-92462500D01*
X150792500Y-92462500D02*
X150500000Y-92462500D01*
X148792500Y-92462500D02*
X149085000Y-92462500D01*
X148792500Y-90505000D02*
X148792500Y-90462500D01*
X148792500Y-92462500D02*
X148792500Y-92420000D01*
D15*
X150142500Y-89875000D02*
G75*
G03*
X150142500Y-89875000I-100000J0D01*
G01*
D10*
%TO.C,U2*%
X120322500Y-122300000D02*
X124322500Y-122300000D01*
X122322500Y-118000000D02*
X124322500Y-118000000D01*
%TO.C,U1*%
X130674853Y-96645000D02*
X142674853Y-96645000D01*
X142674853Y-96645000D02*
X142674853Y-108645000D01*
X142674853Y-108645000D02*
X130674853Y-108645000D01*
X130674853Y-108645000D02*
X130674853Y-96645000D01*
X130057206Y-97485000D02*
G75*
G03*
X130057206Y-97485000I-362353J0D01*
G01*
D13*
%TO.C,R16*%
X126155436Y-92375000D02*
X126609564Y-92375000D01*
X126155436Y-93845000D02*
X126609564Y-93845000D01*
%TO.C,R15*%
X126155436Y-89425000D02*
X126609564Y-89425000D01*
X126155436Y-90895000D02*
X126609564Y-90895000D01*
%TO.C,R14*%
X126155436Y-86475000D02*
X126609564Y-86475000D01*
X126155436Y-87945000D02*
X126609564Y-87945000D01*
%TO.C,R13*%
X126155436Y-83525000D02*
X126609564Y-83525000D01*
X126155436Y-84995000D02*
X126609564Y-84995000D01*
%TO.C,R12*%
X121405436Y-98275000D02*
X121859564Y-98275000D01*
X121405436Y-99745000D02*
X121859564Y-99745000D01*
%TO.C,R11*%
X121405436Y-95325000D02*
X121859564Y-95325000D01*
X121405436Y-96795000D02*
X121859564Y-96795000D01*
%TO.C,R10*%
X121405436Y-92375000D02*
X121859564Y-92375000D01*
X121405436Y-93845000D02*
X121859564Y-93845000D01*
%TO.C,R9*%
X121405436Y-89425000D02*
X121859564Y-89425000D01*
X121405436Y-90895000D02*
X121859564Y-90895000D01*
%TO.C,R8*%
X121405436Y-86475000D02*
X121859564Y-86475000D01*
X121405436Y-87945000D02*
X121859564Y-87945000D01*
%TO.C,R7*%
X121405436Y-83525000D02*
X121859564Y-83525000D01*
X121405436Y-84995000D02*
X121859564Y-84995000D01*
%TO.C,R6*%
X116655436Y-98275000D02*
X117109564Y-98275000D01*
X116655436Y-99745000D02*
X117109564Y-99745000D01*
%TO.C,R5*%
X116655436Y-95325000D02*
X117109564Y-95325000D01*
X116655436Y-96795000D02*
X117109564Y-96795000D01*
%TO.C,R4*%
X116655436Y-92375000D02*
X117109564Y-92375000D01*
X116655436Y-93845000D02*
X117109564Y-93845000D01*
%TO.C,R3*%
X116655436Y-89425000D02*
X117109564Y-89425000D01*
X116655436Y-90895000D02*
X117109564Y-90895000D01*
%TO.C,R2*%
X116655436Y-86475000D02*
X117109564Y-86475000D01*
X116655436Y-87945000D02*
X117109564Y-87945000D01*
%TO.C,R1*%
X116655436Y-83525000D02*
X117109564Y-83525000D01*
X116655436Y-84995000D02*
X117109564Y-84995000D01*
%TO.C,Q2*%
X116952500Y-117890000D02*
X117602500Y-117890000D01*
X116952500Y-121010000D02*
X117602500Y-121010000D01*
X116952500Y-117890000D02*
X115277500Y-117890000D01*
X116952500Y-121010000D02*
X116302500Y-121010000D01*
%TO.C,Q1*%
X116952500Y-113440000D02*
X117602500Y-113440000D01*
X116952500Y-116560000D02*
X117602500Y-116560000D01*
X116952500Y-113440000D02*
X115277500Y-113440000D01*
X116952500Y-116560000D02*
X116302500Y-116560000D01*
D12*
%TO.C,L1*%
X145060500Y-105495000D02*
X149124500Y-105495000D01*
X145060500Y-109559000D02*
X149124500Y-109559000D01*
%TO.C,J3*%
X145167500Y-95745000D02*
X146917500Y-95745000D01*
X145167500Y-100745000D02*
X145167500Y-95745000D01*
X151167500Y-95745000D02*
X152667500Y-95745000D01*
X152667500Y-95745000D02*
X152667500Y-100745000D01*
D13*
%TO.C,D2*%
X148577500Y-88615000D02*
X151437500Y-88615000D01*
X151437500Y-86695000D02*
X148577500Y-86695000D01*
X148577500Y-86695000D02*
X148577500Y-88615000D01*
%TO.C,D1*%
X148577500Y-85460000D02*
X152587500Y-85460000D01*
X148577500Y-83460000D02*
X152587500Y-83460000D01*
X148577500Y-83460000D02*
X148577500Y-85460000D01*
%TO.C,C12*%
X140521248Y-120095000D02*
X141043752Y-120095000D01*
X140521248Y-121565000D02*
X141043752Y-121565000D01*
%TO.C,C11*%
X140521248Y-117085000D02*
X141043752Y-117085000D01*
X140521248Y-118555000D02*
X141043752Y-118555000D01*
%TO.C,C10*%
X140521248Y-114075000D02*
X141043752Y-114075000D01*
X140521248Y-115545000D02*
X141043752Y-115545000D01*
%TO.C,C9*%
X140521248Y-111065000D02*
X141043752Y-111065000D01*
X140521248Y-112535000D02*
X141043752Y-112535000D01*
%TO.C,C8*%
X135711248Y-120095000D02*
X136233752Y-120095000D01*
X135711248Y-121565000D02*
X136233752Y-121565000D01*
%TO.C,C7*%
X135711248Y-117085000D02*
X136233752Y-117085000D01*
X135711248Y-118555000D02*
X136233752Y-118555000D01*
%TO.C,C6*%
X135711248Y-114075000D02*
X136233752Y-114075000D01*
X135711248Y-115545000D02*
X136233752Y-115545000D01*
%TO.C,C5*%
X135711248Y-111065000D02*
X136233752Y-111065000D01*
X135711248Y-112535000D02*
X136233752Y-112535000D01*
%TO.C,C4*%
X130901248Y-120095000D02*
X131423752Y-120095000D01*
X130901248Y-121565000D02*
X131423752Y-121565000D01*
%TO.C,C3*%
X130901248Y-117085000D02*
X131423752Y-117085000D01*
X130901248Y-118555000D02*
X131423752Y-118555000D01*
%TO.C,C2*%
X130901248Y-114075000D02*
X131423752Y-114075000D01*
X130901248Y-115545000D02*
X131423752Y-115545000D01*
%TO.C,C1*%
X130901248Y-111065000D02*
X131423752Y-111065000D01*
X130901248Y-112535000D02*
X131423752Y-112535000D01*
%TD*%
M02*
