%TF.GenerationSoftware,KiCad,Pcbnew,7.0.8-7.0.8~ubuntu22.04.1*%
%TF.CreationDate,2023-10-21T10:39:40-04:00*%
%TF.ProjectId,DDRN_Hardware,4444524e-5f48-4617-9264-776172652e6b,rev?*%
%TF.SameCoordinates,Original*%
%TF.FileFunction,Copper,L2,Bot*%
%TF.FilePolarity,Positive*%
%FSLAX46Y46*%
G04 Gerber Fmt 4.6, Leading zero omitted, Abs format (unit mm)*
G04 Created by KiCad (PCBNEW 7.0.8-7.0.8~ubuntu22.04.1) date 2023-10-21 10:39:40*
%MOMM*%
%LPD*%
G01*
G04 APERTURE LIST*
%TA.AperFunction,SMDPad,CuDef*%
%ADD10R,1.000000X4.000000*%
%TD*%
%TA.AperFunction,ComponentPad*%
%ADD11R,1.500000X1.500000*%
%TD*%
%TA.AperFunction,ComponentPad*%
%ADD12C,1.500000*%
%TD*%
G04 APERTURE END LIST*
D10*
%TO.P,J8,6,Pin_6*%
%TO.N,GND*%
X141700000Y-76200000D03*
%TO.P,J8,7,Pin_7*%
%TO.N,/USB_RX*%
X139700000Y-76200000D03*
%TO.P,J8,8,Pin_8*%
%TO.N,/USB_TX*%
X137700000Y-76200000D03*
%TO.P,J8,9,Pin_9*%
%TO.N,/RST*%
X135700000Y-76200000D03*
%TO.P,J8,10,Pin_10*%
%TO.N,/3v3*%
X133700000Y-76200000D03*
%TD*%
D11*
%TO.P,J5,1,Pin_1*%
%TO.N,/3v3*%
X120647500Y-114025000D03*
D12*
%TO.P,J5,2,Pin_2*%
%TO.N,/SiPM_Temp*%
X121647500Y-116025000D03*
%TO.P,J5,3,Pin_3*%
%TO.N,/SiPM_Bias*%
X122647500Y-114025000D03*
%TO.P,J5,4,Pin_4*%
%TO.N,GND*%
X123647500Y-116025000D03*
%TO.P,J5,5,Pin_5*%
%TO.N,/SiPM_Signal*%
X124647500Y-114025000D03*
%TO.P,J5,6,Pin_6*%
%TO.N,/V_BAT*%
X125647500Y-116025000D03*
%TD*%
D11*
%TO.P,J4,1,Pin_1*%
%TO.N,/V_BAT*%
X144437500Y-119995000D03*
D12*
%TO.P,J4,2,Pin_2*%
%TO.N,GND*%
X145437500Y-121995000D03*
%TO.P,J4,3,Pin_3*%
%TO.N,/Stim_Enable*%
X146437500Y-119995000D03*
%TO.P,J4,4,Pin_4*%
%TO.N,/Anneal_Enable*%
X147437500Y-121995000D03*
%TD*%
%TA.AperFunction,Conductor*%
%TO.N,GND*%
G36*
X167582372Y-73680276D02*
G01*
X167628212Y-73733007D01*
X167639500Y-73784699D01*
X167639500Y-131955500D01*
X167619815Y-132022539D01*
X167567011Y-132068294D01*
X167515500Y-132079500D01*
X109344500Y-132079500D01*
X109277461Y-132059815D01*
X109231706Y-132007011D01*
X109220500Y-131955500D01*
X109220500Y-120792870D01*
X143187000Y-120792870D01*
X143187001Y-120792876D01*
X143193408Y-120852483D01*
X143243702Y-120987328D01*
X143243706Y-120987335D01*
X143329952Y-121102544D01*
X143329955Y-121102547D01*
X143445164Y-121188793D01*
X143445171Y-121188797D01*
X143580017Y-121239091D01*
X143580016Y-121239091D01*
X143586944Y-121239835D01*
X143639627Y-121245500D01*
X144213136Y-121245499D01*
X144280173Y-121265183D01*
X144325928Y-121317987D01*
X144335872Y-121387146D01*
X144325516Y-121421903D01*
X144258399Y-121565835D01*
X144258394Y-121565849D01*
X144201789Y-121777105D01*
X144201787Y-121777115D01*
X144182725Y-121994999D01*
X144182725Y-121995000D01*
X144201787Y-122212884D01*
X144201789Y-122212894D01*
X144258394Y-122424150D01*
X144258398Y-122424159D01*
X144350835Y-122622391D01*
X144394373Y-122684571D01*
X144394374Y-122684572D01*
X145039546Y-122039400D01*
X145052335Y-122120148D01*
X145109859Y-122233045D01*
X145199455Y-122322641D01*
X145312352Y-122380165D01*
X145393099Y-122392953D01*
X144747926Y-123038124D01*
X144810111Y-123081666D01*
X144810113Y-123081667D01*
X145008340Y-123174101D01*
X145008349Y-123174105D01*
X145219605Y-123230710D01*
X145219615Y-123230712D01*
X145437499Y-123249775D01*
X145437501Y-123249775D01*
X145655384Y-123230712D01*
X145655394Y-123230710D01*
X145866650Y-123174105D01*
X145866659Y-123174101D01*
X146064887Y-123081666D01*
X146127072Y-123038124D01*
X145481901Y-122392953D01*
X145562648Y-122380165D01*
X145675545Y-122322641D01*
X145765141Y-122233045D01*
X145822665Y-122120148D01*
X145835453Y-122039400D01*
X146275264Y-122479211D01*
X146299965Y-122514487D01*
X146350396Y-122622636D01*
X146350397Y-122622638D01*
X146350398Y-122622639D01*
X146475902Y-122801877D01*
X146630623Y-122956598D01*
X146809861Y-123082102D01*
X147008170Y-123174575D01*
X147219523Y-123231207D01*
X147402426Y-123247208D01*
X147437498Y-123250277D01*
X147437500Y-123250277D01*
X147437502Y-123250277D01*
X147465754Y-123247805D01*
X147655477Y-123231207D01*
X147866830Y-123174575D01*
X148065139Y-123082102D01*
X148244377Y-122956598D01*
X148399098Y-122801877D01*
X148524602Y-122622639D01*
X148617075Y-122424330D01*
X148673707Y-122212977D01*
X148692777Y-121995000D01*
X148673707Y-121777023D01*
X148617075Y-121565670D01*
X148524602Y-121367362D01*
X148524600Y-121367359D01*
X148524599Y-121367357D01*
X148399099Y-121188124D01*
X148385550Y-121174575D01*
X148244377Y-121033402D01*
X148065139Y-120907898D01*
X148065140Y-120907898D01*
X148065138Y-120907897D01*
X147946301Y-120852483D01*
X147866830Y-120815425D01*
X147866826Y-120815424D01*
X147866822Y-120815422D01*
X147655482Y-120758794D01*
X147655473Y-120758792D01*
X147645144Y-120757889D01*
X147580076Y-120732435D01*
X147539098Y-120675843D01*
X147535222Y-120606081D01*
X147543569Y-120581962D01*
X147617075Y-120424330D01*
X147673707Y-120212977D01*
X147692777Y-119995000D01*
X147673707Y-119777023D01*
X147617075Y-119565670D01*
X147524602Y-119367362D01*
X147524600Y-119367359D01*
X147524599Y-119367357D01*
X147399099Y-119188124D01*
X147348492Y-119137517D01*
X147244377Y-119033402D01*
X147091503Y-118926358D01*
X147065138Y-118907897D01*
X146965984Y-118861661D01*
X146866830Y-118815425D01*
X146866826Y-118815424D01*
X146866822Y-118815422D01*
X146655477Y-118758793D01*
X146437502Y-118739723D01*
X146437498Y-118739723D01*
X146309651Y-118750908D01*
X146219523Y-118758793D01*
X146219520Y-118758793D01*
X146008177Y-118815422D01*
X146008168Y-118815426D01*
X145809863Y-118907897D01*
X145809857Y-118907901D01*
X145744557Y-118953623D01*
X145678351Y-118975950D01*
X145610584Y-118958938D01*
X145574170Y-118926359D01*
X145545046Y-118887454D01*
X145522209Y-118870358D01*
X145429835Y-118801206D01*
X145429828Y-118801202D01*
X145294982Y-118750908D01*
X145294983Y-118750908D01*
X145235383Y-118744501D01*
X145235381Y-118744500D01*
X145235373Y-118744500D01*
X145235364Y-118744500D01*
X143639629Y-118744500D01*
X143639623Y-118744501D01*
X143580016Y-118750908D01*
X143445171Y-118801202D01*
X143445164Y-118801206D01*
X143329955Y-118887452D01*
X143329952Y-118887455D01*
X143243706Y-119002664D01*
X143243702Y-119002671D01*
X143193408Y-119137517D01*
X143187001Y-119197116D01*
X143187000Y-119197135D01*
X143187000Y-120792870D01*
X109220500Y-120792870D01*
X109220500Y-114822870D01*
X119397000Y-114822870D01*
X119397001Y-114822876D01*
X119403408Y-114882483D01*
X119453702Y-115017328D01*
X119453706Y-115017335D01*
X119539952Y-115132544D01*
X119539955Y-115132547D01*
X119655164Y-115218793D01*
X119655171Y-115218797D01*
X119790017Y-115269091D01*
X119790016Y-115269091D01*
X119796944Y-115269835D01*
X119849627Y-115275500D01*
X120422582Y-115275499D01*
X120489621Y-115295183D01*
X120535376Y-115347987D01*
X120545320Y-115417146D01*
X120534964Y-115451903D01*
X120467927Y-115595663D01*
X120467922Y-115595677D01*
X120411293Y-115807020D01*
X120411293Y-115807024D01*
X120392223Y-116024997D01*
X120392223Y-116025002D01*
X120411293Y-116242975D01*
X120411293Y-116242979D01*
X120467922Y-116454322D01*
X120467924Y-116454326D01*
X120467925Y-116454330D01*
X120493517Y-116509212D01*
X120560397Y-116652638D01*
X120585498Y-116688486D01*
X120685902Y-116831877D01*
X120840623Y-116986598D01*
X121019861Y-117112102D01*
X121218170Y-117204575D01*
X121429523Y-117261207D01*
X121612426Y-117277208D01*
X121647498Y-117280277D01*
X121647500Y-117280277D01*
X121647502Y-117280277D01*
X121675754Y-117277805D01*
X121865477Y-117261207D01*
X122076830Y-117204575D01*
X122275139Y-117112102D01*
X122454377Y-116986598D01*
X122609098Y-116831877D01*
X122734602Y-116652639D01*
X122785037Y-116544479D01*
X122809733Y-116509212D01*
X123249545Y-116069399D01*
X123262335Y-116150148D01*
X123319859Y-116263045D01*
X123409455Y-116352641D01*
X123522352Y-116410165D01*
X123603099Y-116422953D01*
X122957926Y-117068124D01*
X123020111Y-117111666D01*
X123020113Y-117111667D01*
X123218340Y-117204101D01*
X123218349Y-117204105D01*
X123429605Y-117260710D01*
X123429615Y-117260712D01*
X123647499Y-117279775D01*
X123647501Y-117279775D01*
X123865384Y-117260712D01*
X123865394Y-117260710D01*
X124076650Y-117204105D01*
X124076659Y-117204101D01*
X124274887Y-117111666D01*
X124337072Y-117068124D01*
X123691901Y-116422953D01*
X123772648Y-116410165D01*
X123885545Y-116352641D01*
X123975141Y-116263045D01*
X124032665Y-116150148D01*
X124045453Y-116069400D01*
X124485264Y-116509211D01*
X124509965Y-116544487D01*
X124560396Y-116652636D01*
X124560397Y-116652638D01*
X124560398Y-116652639D01*
X124685902Y-116831877D01*
X124840623Y-116986598D01*
X125019861Y-117112102D01*
X125218170Y-117204575D01*
X125429523Y-117261207D01*
X125612426Y-117277208D01*
X125647498Y-117280277D01*
X125647500Y-117280277D01*
X125647502Y-117280277D01*
X125675754Y-117277805D01*
X125865477Y-117261207D01*
X126076830Y-117204575D01*
X126275139Y-117112102D01*
X126454377Y-116986598D01*
X126609098Y-116831877D01*
X126734602Y-116652639D01*
X126827075Y-116454330D01*
X126883707Y-116242977D01*
X126902777Y-116025000D01*
X126883707Y-115807023D01*
X126827075Y-115595670D01*
X126734602Y-115397362D01*
X126734600Y-115397359D01*
X126734599Y-115397357D01*
X126609099Y-115218124D01*
X126595550Y-115204575D01*
X126454377Y-115063402D01*
X126275139Y-114937898D01*
X126275140Y-114937898D01*
X126275138Y-114937897D01*
X126156301Y-114882483D01*
X126076830Y-114845425D01*
X126076826Y-114845424D01*
X126076822Y-114845422D01*
X125865482Y-114788794D01*
X125865473Y-114788792D01*
X125855144Y-114787889D01*
X125790076Y-114762435D01*
X125749098Y-114705843D01*
X125745222Y-114636081D01*
X125753569Y-114611962D01*
X125827075Y-114454330D01*
X125883707Y-114242977D01*
X125902777Y-114025000D01*
X125883707Y-113807023D01*
X125827075Y-113595670D01*
X125734602Y-113397362D01*
X125734600Y-113397359D01*
X125734599Y-113397357D01*
X125609099Y-113218124D01*
X125558492Y-113167517D01*
X125454377Y-113063402D01*
X125301503Y-112956358D01*
X125275138Y-112937897D01*
X125175984Y-112891661D01*
X125076830Y-112845425D01*
X125076826Y-112845424D01*
X125076822Y-112845422D01*
X124865477Y-112788793D01*
X124647502Y-112769723D01*
X124647498Y-112769723D01*
X124519651Y-112780908D01*
X124429523Y-112788793D01*
X124429520Y-112788793D01*
X124218177Y-112845422D01*
X124218168Y-112845426D01*
X124019861Y-112937898D01*
X124019857Y-112937900D01*
X123840624Y-113063400D01*
X123735180Y-113168844D01*
X123673857Y-113202328D01*
X123604165Y-113197344D01*
X123559818Y-113168843D01*
X123454381Y-113063406D01*
X123454377Y-113063402D01*
X123301503Y-112956358D01*
X123275138Y-112937897D01*
X123175984Y-112891661D01*
X123076830Y-112845425D01*
X123076826Y-112845424D01*
X123076822Y-112845422D01*
X122865477Y-112788793D01*
X122647502Y-112769723D01*
X122647498Y-112769723D01*
X122519651Y-112780908D01*
X122429523Y-112788793D01*
X122429520Y-112788793D01*
X122218177Y-112845422D01*
X122218168Y-112845426D01*
X122019863Y-112937897D01*
X122019857Y-112937901D01*
X121954557Y-112983623D01*
X121888351Y-113005950D01*
X121820584Y-112988938D01*
X121784170Y-112956359D01*
X121755046Y-112917454D01*
X121732209Y-112900358D01*
X121639835Y-112831206D01*
X121639828Y-112831202D01*
X121504982Y-112780908D01*
X121504983Y-112780908D01*
X121445383Y-112774501D01*
X121445381Y-112774500D01*
X121445373Y-112774500D01*
X121445364Y-112774500D01*
X119849629Y-112774500D01*
X119849623Y-112774501D01*
X119790016Y-112780908D01*
X119655171Y-112831202D01*
X119655164Y-112831206D01*
X119539955Y-112917452D01*
X119539952Y-112917455D01*
X119453706Y-113032664D01*
X119453702Y-113032671D01*
X119403408Y-113167517D01*
X119397001Y-113227116D01*
X119397000Y-113227135D01*
X119397000Y-114822870D01*
X109220500Y-114822870D01*
X109220500Y-73784712D01*
X109240185Y-73717673D01*
X109292989Y-73671918D01*
X109344708Y-73660712D01*
X132675343Y-73700457D01*
X132675559Y-73700500D01*
X132699901Y-73700500D01*
X132700098Y-73700500D01*
X132700999Y-73700500D01*
X132768038Y-73720185D01*
X132813793Y-73772989D01*
X132823737Y-73842147D01*
X132800265Y-73898810D01*
X132780238Y-73925562D01*
X132756204Y-73957668D01*
X132756202Y-73957671D01*
X132705908Y-74092517D01*
X132699501Y-74152116D01*
X132699500Y-74152135D01*
X132699500Y-78247870D01*
X132699501Y-78247876D01*
X132705908Y-78307483D01*
X132756202Y-78442328D01*
X132756206Y-78442335D01*
X132842452Y-78557544D01*
X132842455Y-78557547D01*
X132957664Y-78643793D01*
X132957671Y-78643797D01*
X133092517Y-78694091D01*
X133092516Y-78694091D01*
X133099444Y-78694835D01*
X133152127Y-78700500D01*
X134247872Y-78700499D01*
X134307483Y-78694091D01*
X134442331Y-78643796D01*
X134557546Y-78557546D01*
X134600734Y-78499854D01*
X134656667Y-78457984D01*
X134726359Y-78453000D01*
X134787682Y-78486485D01*
X134799263Y-78499850D01*
X134842454Y-78557546D01*
X134888643Y-78592123D01*
X134957664Y-78643793D01*
X134957671Y-78643797D01*
X135092517Y-78694091D01*
X135092516Y-78694091D01*
X135099444Y-78694835D01*
X135152127Y-78700500D01*
X136247872Y-78700499D01*
X136307483Y-78694091D01*
X136442331Y-78643796D01*
X136557546Y-78557546D01*
X136600734Y-78499854D01*
X136656667Y-78457984D01*
X136726359Y-78453000D01*
X136787682Y-78486485D01*
X136799263Y-78499850D01*
X136842454Y-78557546D01*
X136888643Y-78592123D01*
X136957664Y-78643793D01*
X136957671Y-78643797D01*
X137092517Y-78694091D01*
X137092516Y-78694091D01*
X137099444Y-78694835D01*
X137152127Y-78700500D01*
X138247872Y-78700499D01*
X138307483Y-78694091D01*
X138442331Y-78643796D01*
X138557546Y-78557546D01*
X138600734Y-78499854D01*
X138656667Y-78457984D01*
X138726359Y-78453000D01*
X138787682Y-78486485D01*
X138799263Y-78499850D01*
X138842454Y-78557546D01*
X138888643Y-78592123D01*
X138957664Y-78643793D01*
X138957671Y-78643797D01*
X139092517Y-78694091D01*
X139092516Y-78694091D01*
X139099444Y-78694835D01*
X139152127Y-78700500D01*
X140247872Y-78700499D01*
X140307483Y-78694091D01*
X140442331Y-78643796D01*
X140557546Y-78557546D01*
X140601046Y-78499436D01*
X140656979Y-78457567D01*
X140726671Y-78452583D01*
X140787994Y-78486068D01*
X140799578Y-78499438D01*
X140842809Y-78557187D01*
X140842812Y-78557190D01*
X140957906Y-78643350D01*
X140957913Y-78643354D01*
X141092620Y-78693596D01*
X141092627Y-78693598D01*
X141152155Y-78699999D01*
X141152172Y-78700000D01*
X142247828Y-78700000D01*
X142247844Y-78699999D01*
X142307372Y-78693598D01*
X142307379Y-78693596D01*
X142442086Y-78643354D01*
X142442093Y-78643350D01*
X142557187Y-78557190D01*
X142557190Y-78557187D01*
X142643350Y-78442093D01*
X142643354Y-78442086D01*
X142693596Y-78307379D01*
X142693598Y-78307372D01*
X142699999Y-78247844D01*
X142700000Y-78247827D01*
X142700000Y-77553553D01*
X141434128Y-76287681D01*
X141400643Y-76226358D01*
X141402528Y-76200000D01*
X142053553Y-76200000D01*
X142699999Y-76846447D01*
X142700000Y-76846446D01*
X142700000Y-75553553D01*
X142699999Y-75553552D01*
X142053553Y-76199999D01*
X142053553Y-76200000D01*
X141402528Y-76200000D01*
X141405627Y-76156666D01*
X141434128Y-76112319D01*
X142699999Y-74846447D01*
X142700000Y-74846446D01*
X142700000Y-74152172D01*
X142699999Y-74152155D01*
X142693598Y-74092627D01*
X142693596Y-74092620D01*
X142643354Y-73957913D01*
X142643352Y-73957910D01*
X142599111Y-73898812D01*
X142574693Y-73833348D01*
X142589544Y-73765074D01*
X142638949Y-73715669D01*
X142698377Y-73700500D01*
X142750591Y-73700500D01*
X142751337Y-73700416D01*
X167515301Y-73660699D01*
X167582372Y-73680276D01*
G37*
%TD.AperFunction*%
%TD*%
M02*
