%TF.GenerationSoftware,KiCad,Pcbnew,7.0.8-7.0.8~ubuntu22.04.1*%
%TF.CreationDate,2023-10-23T06:40:44-04:00*%
%TF.ProjectId,DDRN_Hardware,4444524e-5f48-4617-9264-776172652e6b,rev?*%
%TF.SameCoordinates,Original*%
%TF.FileFunction,Copper,L2,Bot*%
%TF.FilePolarity,Positive*%
%FSLAX46Y46*%
G04 Gerber Fmt 4.6, Leading zero omitted, Abs format (unit mm)*
G04 Created by KiCad (PCBNEW 7.0.8-7.0.8~ubuntu22.04.1) date 2023-10-23 06:40:44*
%MOMM*%
%LPD*%
G01*
G04 APERTURE LIST*
%TA.AperFunction,ComponentPad*%
%ADD10R,1.700000X1.700000*%
%TD*%
%TA.AperFunction,ComponentPad*%
%ADD11O,1.700000X1.700000*%
%TD*%
%TA.AperFunction,SMDPad,CuDef*%
%ADD12R,1.000000X4.000000*%
%TD*%
%TA.AperFunction,ComponentPad*%
%ADD13R,1.500000X1.500000*%
%TD*%
%TA.AperFunction,ComponentPad*%
%ADD14C,1.500000*%
%TD*%
%TA.AperFunction,ViaPad*%
%ADD15C,0.800000*%
%TD*%
%TA.AperFunction,Conductor*%
%ADD16C,0.200000*%
%TD*%
%TA.AperFunction,Conductor*%
%ADD17C,0.250000*%
%TD*%
G04 APERTURE END LIST*
D10*
%TO.P,J7,1,Pin_1*%
%TO.N,/Stim_Enable*%
X73600000Y-140950000D03*
D11*
%TO.P,J7,2,Pin_2*%
%TO.N,/Anneal_Enable*%
X73600000Y-143490000D03*
%TD*%
D10*
%TO.P,J9,1,Pin_1*%
%TO.N,GND*%
X84375000Y-127950000D03*
D11*
%TO.P,J9,2,Pin_2*%
%TO.N,/3v3*%
X81835000Y-127950000D03*
%TD*%
D10*
%TO.P,J6,1,Pin_1*%
%TO.N,GND*%
X58600000Y-138975000D03*
D11*
%TO.P,J6,2,Pin_2*%
%TO.N,/SiPM_Bias*%
X58600000Y-136435000D03*
%TD*%
D10*
%TO.P,J1,1,Pin_1*%
%TO.N,/SiPM_Temp*%
X79575000Y-102950000D03*
D11*
%TO.P,J1,2,Pin_2*%
%TO.N,/SiPM_Signal*%
X82115000Y-102950000D03*
%TO.P,J1,3,Pin_3*%
%TO.N,/Battery_Monitor*%
X84655000Y-102950000D03*
%TD*%
D12*
%TO.P,J8,6,Pin_6*%
%TO.N,GND*%
X76290000Y-93935000D03*
%TO.P,J8,7,Pin_7*%
%TO.N,/USB_RX*%
X74290000Y-93935000D03*
%TO.P,J8,8,Pin_8*%
%TO.N,/USB_TX*%
X72290000Y-93935000D03*
%TO.P,J8,9,Pin_9*%
%TO.N,/RST*%
X70290000Y-93935000D03*
%TO.P,J8,10,Pin_10*%
%TO.N,/3v3*%
X68290000Y-93935000D03*
%TD*%
D13*
%TO.P,J5,1,Pin_1*%
%TO.N,/3v3*%
X56462500Y-141750000D03*
D14*
%TO.P,J5,2,Pin_2*%
%TO.N,/SiPM_Temp*%
X57462500Y-143750000D03*
%TO.P,J5,3,Pin_3*%
%TO.N,/SiPM_Bias*%
X58462500Y-141750000D03*
%TO.P,J5,4,Pin_4*%
%TO.N,GND*%
X59462500Y-143750000D03*
%TO.P,J5,5,Pin_5*%
%TO.N,/SiPM_Signal*%
X60462500Y-141750000D03*
%TO.P,J5,6,Pin_6*%
%TO.N,/V_BAT*%
X61462500Y-143750000D03*
%TD*%
D13*
%TO.P,J4,1,Pin_1*%
%TO.N,/V_BAT*%
X67262500Y-141750000D03*
D14*
%TO.P,J4,2,Pin_2*%
%TO.N,GND*%
X68262500Y-143750000D03*
%TO.P,J4,3,Pin_3*%
%TO.N,/Stim_Enable*%
X69262500Y-141750000D03*
%TO.P,J4,4,Pin_4*%
%TO.N,/Anneal_Enable*%
X70262500Y-143750000D03*
%TD*%
D15*
%TO.N,GND*%
X76850000Y-116200000D03*
X56600000Y-123200000D03*
X68350000Y-109200000D03*
%TO.N,/ACCEL_INT*%
X69250000Y-106000000D03*
%TO.N,GND*%
X63850000Y-105700000D03*
X80850000Y-112700000D03*
X73350000Y-110700000D03*
X71350000Y-106700000D03*
%TO.N,/Battery_Monitor*%
X74600000Y-105450000D03*
%TO.N,GND*%
X77350000Y-98450000D03*
X58350000Y-115450000D03*
X75850000Y-136450000D03*
X81350000Y-141200000D03*
X57100000Y-100950000D03*
X63850000Y-141950000D03*
X63850000Y-116950000D03*
%TO.N,/MISO*%
X68600000Y-112950000D03*
%TO.N,/3v3*%
X57100000Y-110950000D03*
X68362500Y-99450000D03*
X69162500Y-118150000D03*
X58862500Y-121850000D03*
X61262500Y-118950000D03*
%TO.N,GND*%
X80462500Y-125350000D03*
X67662500Y-119650000D03*
X60462500Y-135150000D03*
X75550000Y-123350000D03*
X72200000Y-124950000D03*
X76050000Y-118100000D03*
X66600000Y-116700000D03*
X79600000Y-117000000D03*
X84400000Y-121300000D03*
%TO.N,/Stim_Enable*%
X71150000Y-117350000D03*
%TO.N,/Anneal_Enable*%
X72150000Y-117350000D03*
%TO.N,/SiPM_Temp*%
X70650000Y-110800000D03*
%TO.N,/SiPM_Signal*%
X70250000Y-112250000D03*
%TO.N,/SWDIO*%
X73200000Y-96750000D03*
X75900000Y-110250000D03*
%TO.N,/SWCLK*%
X71192111Y-96751456D03*
X75900000Y-109200000D03*
%TO.N,/USB_RX*%
X74346971Y-96777794D03*
%TO.N,/USB_TX*%
X72191988Y-96767294D03*
%TO.N,/RST*%
X70193930Y-96691140D03*
%TO.N,/SCL*%
X81950000Y-117850000D03*
X74250000Y-122600000D03*
X79675000Y-107950000D03*
%TO.N,/SDA*%
X75850000Y-121000000D03*
X81225000Y-121000000D03*
X79550000Y-106650000D03*
%TO.N,/MOSI*%
X63850000Y-113700000D03*
X62712347Y-121759773D03*
X56962500Y-117750000D03*
X70550000Y-105150000D03*
%TO.N,/ACCEL_INT*%
X71664950Y-119925000D03*
%TO.N,/SCK*%
X58050000Y-117750000D03*
X63800000Y-121822120D03*
%TO.N,/MISO*%
X61700000Y-114450000D03*
%TO.N,/Bias_CS*%
X65016958Y-121999504D03*
X65250113Y-119550000D03*
%TD*%
D16*
%TO.N,/ACCEL_INT*%
X69250000Y-106000000D02*
X69250000Y-108300000D01*
X69250000Y-108300000D02*
X71600000Y-110650000D01*
X71600000Y-110650000D02*
X71600000Y-115700000D01*
X71850000Y-115950000D02*
X72600000Y-115950000D01*
X72600000Y-115950000D02*
X73350000Y-116700000D01*
X71600000Y-115700000D02*
X71850000Y-115950000D01*
X73350000Y-116700000D02*
X73350000Y-118239950D01*
X73350000Y-118239950D02*
X71664950Y-119925000D01*
%TO.N,/Anneal_Enable*%
X70450000Y-119284314D02*
X72150000Y-117584314D01*
%TO.N,/SiPM_Temp*%
X70650000Y-110800000D02*
X71100000Y-111250000D01*
X70937580Y-119612420D02*
X70937580Y-142946824D01*
%TO.N,/Anneal_Enable*%
X70450000Y-143562500D02*
X70450000Y-119284314D01*
%TO.N,/SiPM_Temp*%
X72850000Y-116950000D02*
X72850000Y-117700000D01*
%TO.N,/Anneal_Enable*%
X70262500Y-143750000D02*
X70450000Y-143562500D01*
X72150000Y-117584314D02*
X72150000Y-117350000D01*
%TO.N,/SiPM_Temp*%
X72350000Y-116450000D02*
X72850000Y-116950000D01*
X71312500Y-144250000D02*
X70762500Y-144800000D01*
X71100000Y-111250000D02*
X71100000Y-115950000D01*
X71100000Y-115950000D02*
X71600000Y-116450000D01*
X71600000Y-116450000D02*
X72350000Y-116450000D01*
X72850000Y-117700000D02*
X70937580Y-119612420D01*
X70937580Y-142946824D02*
X71312500Y-143321744D01*
X71312500Y-143321744D02*
X71312500Y-144250000D01*
X58512500Y-144800000D02*
X57462500Y-143750000D01*
X70762500Y-144800000D02*
X58512500Y-144800000D01*
%TO.N,/Battery_Monitor*%
X74600000Y-110450000D02*
X75100000Y-110950000D01*
X74600000Y-105450000D02*
X74600000Y-110450000D01*
D17*
%TO.N,/SWDIO*%
X73200000Y-96750000D02*
X76650000Y-100200000D01*
X76650000Y-100200000D02*
X76650000Y-109500000D01*
X76650000Y-109500000D02*
X75900000Y-110250000D01*
D16*
%TO.N,/Battery_Monitor*%
X75100000Y-110950000D02*
X76887868Y-110950000D01*
X76887868Y-110950000D02*
X77350000Y-110487868D01*
X83505000Y-104100000D02*
X84655000Y-102950000D01*
X77350000Y-106950000D02*
X80200000Y-104100000D01*
X77350000Y-110487868D02*
X77350000Y-106950000D01*
X80200000Y-104100000D02*
X83505000Y-104100000D01*
%TO.N,/MISO*%
X68600000Y-112950000D02*
X67100000Y-114450000D01*
X67100000Y-114450000D02*
X61700000Y-114450000D01*
%TO.N,/SiPM_Signal*%
X69600000Y-137950000D02*
X69600000Y-119002943D01*
X69600000Y-119002943D02*
X70250000Y-118352943D01*
X70250000Y-118352943D02*
X70250000Y-112250000D01*
%TO.N,/3v3*%
X57100000Y-110950000D02*
X61600000Y-110950000D01*
X61600000Y-110950000D02*
X68362500Y-104187500D01*
X68362500Y-104187500D02*
X68362500Y-99450000D01*
X56262500Y-119250000D02*
X56262500Y-111787500D01*
X56262500Y-111787500D02*
X57100000Y-110950000D01*
D17*
X62062500Y-118150000D02*
X61262500Y-118950000D01*
D16*
X58862500Y-121850000D02*
X56262500Y-119250000D01*
X68290000Y-93935000D02*
X68290000Y-99377500D01*
D17*
X69162500Y-118150000D02*
X62062500Y-118150000D01*
D16*
X68290000Y-99377500D02*
X68362500Y-99450000D01*
%TO.N,/Stim_Enable*%
X69262500Y-141750000D02*
X70050000Y-140962500D01*
X71150000Y-118018629D02*
X71150000Y-117350000D01*
X70050000Y-140962500D02*
X70050000Y-119118629D01*
X70050000Y-119118629D02*
X71150000Y-118018629D01*
%TO.N,/SiPM_Signal*%
X69600000Y-139712500D02*
X69600000Y-137950000D01*
X61512500Y-140700000D02*
X68612500Y-140700000D01*
X68612500Y-140700000D02*
X69600000Y-139712500D01*
X60462500Y-141750000D02*
X61512500Y-140700000D01*
D17*
%TO.N,/SWCLK*%
X75900000Y-109200000D02*
X75900000Y-101303267D01*
X72089027Y-97492294D02*
X71891683Y-97492294D01*
X71466988Y-97067599D02*
X71466988Y-96870255D01*
X71466988Y-96870255D02*
X71348189Y-96751456D01*
X71348189Y-96751456D02*
X71192111Y-96751456D01*
X71891683Y-97492294D02*
X71466988Y-97067599D01*
X75900000Y-101303267D02*
X72089027Y-97492294D01*
%TO.N,/USB_RX*%
X74290000Y-93935000D02*
X74290000Y-96720823D01*
X74290000Y-96720823D02*
X74346971Y-96777794D01*
%TO.N,/USB_TX*%
X72290000Y-93935000D02*
X72290000Y-96669282D01*
X72290000Y-96669282D02*
X72191988Y-96767294D01*
%TO.N,/RST*%
X70290000Y-96595070D02*
X70193930Y-96691140D01*
X70290000Y-93935000D02*
X70290000Y-96595070D01*
%TO.N,/SCL*%
X81950000Y-121550000D02*
X80900000Y-122600000D01*
X81950000Y-117850000D02*
X81950000Y-121550000D01*
X79550000Y-108075000D02*
X79675000Y-107950000D01*
X79550000Y-113600000D02*
X81950000Y-116000000D01*
X81950000Y-116000000D02*
X81950000Y-117850000D01*
X79550000Y-113600000D02*
X79550000Y-108075000D01*
X74250000Y-122600000D02*
X80900000Y-122600000D01*
%TO.N,/SDA*%
X81200000Y-116050000D02*
X81200000Y-120975000D01*
D16*
X77900000Y-121000000D02*
X81225000Y-121000000D01*
D17*
X81200000Y-120975000D02*
X81225000Y-121000000D01*
X79550000Y-106650000D02*
X78950000Y-107250000D01*
X78950000Y-113800000D02*
X81200000Y-116050000D01*
D16*
X75850000Y-121000000D02*
X77900000Y-121000000D01*
D17*
X78950000Y-107250000D02*
X78950000Y-113800000D01*
%TO.N,/MOSI*%
X69074695Y-105150000D02*
X70550000Y-105150000D01*
X60559773Y-121759773D02*
X56962500Y-118162500D01*
X56962500Y-118162500D02*
X56962500Y-117750000D01*
X63850000Y-110374695D02*
X69074695Y-105150000D01*
X63850000Y-113700000D02*
X63850000Y-110374695D01*
X62712347Y-121759773D02*
X60559773Y-121759773D01*
D16*
%TO.N,/ACCEL_INT*%
X71664950Y-119785050D02*
X71664950Y-119925000D01*
D17*
%TO.N,/SCK*%
X58050000Y-117750000D02*
X58050000Y-118600000D01*
X62777880Y-120800000D02*
X63800000Y-121822120D01*
X60250000Y-120800000D02*
X62777880Y-120800000D01*
X58050000Y-118600000D02*
X60250000Y-120800000D01*
%TO.N,/Bias_CS*%
X65016958Y-121999504D02*
X65016958Y-119783155D01*
X65016958Y-119783155D02*
X65250113Y-119550000D01*
%TD*%
%TA.AperFunction,Conductor*%
%TO.N,GND*%
G36*
X67347183Y-91469685D02*
G01*
X67392938Y-91522489D01*
X67402882Y-91591647D01*
X67379410Y-91648312D01*
X67346204Y-91692668D01*
X67346202Y-91692671D01*
X67295908Y-91827517D01*
X67289501Y-91887116D01*
X67289500Y-91887135D01*
X67289500Y-95982870D01*
X67289501Y-95982876D01*
X67295908Y-96042483D01*
X67346202Y-96177328D01*
X67346206Y-96177335D01*
X67432452Y-96292544D01*
X67432455Y-96292547D01*
X67547664Y-96378793D01*
X67547669Y-96378796D01*
X67608833Y-96401608D01*
X67664766Y-96443478D01*
X67689184Y-96508942D01*
X67689500Y-96517790D01*
X67689500Y-98804066D01*
X67669815Y-98871105D01*
X67657651Y-98887037D01*
X67629966Y-98917785D01*
X67535321Y-99081715D01*
X67535318Y-99081722D01*
X67476827Y-99261740D01*
X67476826Y-99261744D01*
X67457040Y-99450000D01*
X67476826Y-99638256D01*
X67476827Y-99638259D01*
X67535318Y-99818277D01*
X67535321Y-99818284D01*
X67629967Y-99982216D01*
X67684881Y-100043204D01*
X67730150Y-100093480D01*
X67760380Y-100156471D01*
X67762000Y-100176452D01*
X67762000Y-103887403D01*
X67742315Y-103954442D01*
X67725681Y-103975084D01*
X61387584Y-110313181D01*
X61326261Y-110346666D01*
X61299903Y-110349500D01*
X57826258Y-110349500D01*
X57759219Y-110329815D01*
X57734109Y-110308473D01*
X57705871Y-110277112D01*
X57705864Y-110277106D01*
X57552734Y-110165851D01*
X57552729Y-110165848D01*
X57379807Y-110088857D01*
X57379802Y-110088855D01*
X57234001Y-110057865D01*
X57194646Y-110049500D01*
X57005354Y-110049500D01*
X56972897Y-110056398D01*
X56820197Y-110088855D01*
X56820192Y-110088857D01*
X56647270Y-110165848D01*
X56647265Y-110165851D01*
X56494129Y-110277111D01*
X56367466Y-110417785D01*
X56272821Y-110581715D01*
X56272818Y-110581722D01*
X56214327Y-110761740D01*
X56214326Y-110761744D01*
X56194540Y-110950000D01*
X56194540Y-110950002D01*
X56194540Y-110954862D01*
X56174855Y-111021901D01*
X56158221Y-111042543D01*
X55868596Y-111332168D01*
X55862494Y-111337519D01*
X55834217Y-111359218D01*
X55811054Y-111389406D01*
X55789168Y-111417929D01*
X55745733Y-111474535D01*
X55737962Y-111484662D01*
X55737961Y-111484663D01*
X55677457Y-111630734D01*
X55677455Y-111630739D01*
X55656818Y-111787498D01*
X55656818Y-111787499D01*
X55661469Y-111822826D01*
X55662000Y-111830928D01*
X55662000Y-119206571D01*
X55661469Y-119214673D01*
X55656818Y-119249999D01*
X55656818Y-119250000D01*
X55662000Y-119289360D01*
X55677455Y-119406760D01*
X55677456Y-119406762D01*
X55737964Y-119552841D01*
X55834218Y-119678282D01*
X55862495Y-119699980D01*
X55868585Y-119705320D01*
X56949407Y-120786142D01*
X57920721Y-121757456D01*
X57954206Y-121818779D01*
X57957040Y-121845137D01*
X57957040Y-121849997D01*
X57957040Y-121850000D01*
X57976826Y-122038256D01*
X57976827Y-122038259D01*
X58035318Y-122218277D01*
X58035321Y-122218284D01*
X58129967Y-122382216D01*
X58175389Y-122432662D01*
X58256629Y-122522888D01*
X58409765Y-122634148D01*
X58409770Y-122634151D01*
X58582692Y-122711142D01*
X58582697Y-122711144D01*
X58767854Y-122750500D01*
X58767855Y-122750500D01*
X58957144Y-122750500D01*
X58957146Y-122750500D01*
X59142303Y-122711144D01*
X59315230Y-122634151D01*
X59468371Y-122522888D01*
X59595033Y-122382216D01*
X59689679Y-122218284D01*
X59736038Y-122075603D01*
X59775475Y-122017929D01*
X59839833Y-121990730D01*
X59908680Y-122002644D01*
X59941650Y-122026241D01*
X60058970Y-122143561D01*
X60068795Y-122155824D01*
X60069016Y-122155642D01*
X60073987Y-122161651D01*
X60099990Y-122186068D01*
X60124408Y-122208999D01*
X60145302Y-122229893D01*
X60150784Y-122234146D01*
X60155216Y-122237930D01*
X60189191Y-122269835D01*
X60206749Y-122279487D01*
X60223008Y-122290168D01*
X60238837Y-122302446D01*
X60281611Y-122320955D01*
X60286829Y-122323511D01*
X60327681Y-122345970D01*
X60347089Y-122350953D01*
X60365490Y-122357253D01*
X60383877Y-122365210D01*
X60427261Y-122372081D01*
X60429892Y-122372498D01*
X60435612Y-122373682D01*
X60480754Y-122385273D01*
X60500789Y-122385273D01*
X60520187Y-122386799D01*
X60539967Y-122389932D01*
X60539968Y-122389933D01*
X60539968Y-122389932D01*
X60539969Y-122389933D01*
X60586357Y-122385548D01*
X60592195Y-122385273D01*
X62008599Y-122385273D01*
X62075638Y-122404958D01*
X62100747Y-122426299D01*
X62106473Y-122432658D01*
X62106477Y-122432662D01*
X62259612Y-122543921D01*
X62259617Y-122543924D01*
X62432539Y-122620915D01*
X62432544Y-122620917D01*
X62617701Y-122660273D01*
X62617702Y-122660273D01*
X62806991Y-122660273D01*
X62806993Y-122660273D01*
X62992150Y-122620917D01*
X63159433Y-122546437D01*
X63228683Y-122537152D01*
X63282754Y-122559398D01*
X63347265Y-122606268D01*
X63347270Y-122606271D01*
X63520192Y-122683262D01*
X63520197Y-122683264D01*
X63705354Y-122722620D01*
X63705355Y-122722620D01*
X63894644Y-122722620D01*
X63894646Y-122722620D01*
X64079803Y-122683264D01*
X64240970Y-122611506D01*
X64310218Y-122602222D01*
X64373495Y-122631850D01*
X64383549Y-122641808D01*
X64411087Y-122672392D01*
X64464422Y-122711142D01*
X64564223Y-122783652D01*
X64564228Y-122783655D01*
X64737150Y-122860646D01*
X64737155Y-122860648D01*
X64922312Y-122900004D01*
X64922313Y-122900004D01*
X65111602Y-122900004D01*
X65111604Y-122900004D01*
X65296761Y-122860648D01*
X65469688Y-122783655D01*
X65622829Y-122672392D01*
X65749491Y-122531720D01*
X65844137Y-122367788D01*
X65902632Y-122187760D01*
X65922418Y-121999504D01*
X65902632Y-121811248D01*
X65844137Y-121631220D01*
X65749491Y-121467288D01*
X65674308Y-121383788D01*
X65644078Y-121320796D01*
X65642458Y-121300816D01*
X65642458Y-120440606D01*
X65662143Y-120373567D01*
X65698358Y-120339034D01*
X65697586Y-120337971D01*
X65776979Y-120280288D01*
X65855984Y-120222888D01*
X65982646Y-120082216D01*
X66077292Y-119918284D01*
X66135787Y-119738256D01*
X66155573Y-119550000D01*
X66135787Y-119361744D01*
X66077292Y-119181716D01*
X65982646Y-119017784D01*
X65950851Y-118982472D01*
X65920621Y-118919480D01*
X65929246Y-118850145D01*
X65973988Y-118796480D01*
X66040640Y-118775522D01*
X66043001Y-118775500D01*
X68458752Y-118775500D01*
X68525791Y-118795185D01*
X68550900Y-118816526D01*
X68556626Y-118822885D01*
X68556630Y-118822889D01*
X68709765Y-118934148D01*
X68709770Y-118934151D01*
X68882691Y-119011142D01*
X68882694Y-119011142D01*
X68882697Y-119011144D01*
X68901278Y-119015093D01*
X68962759Y-119048282D01*
X68996538Y-119109443D01*
X68999500Y-119136383D01*
X68999500Y-139412403D01*
X68979815Y-139479442D01*
X68963181Y-139500084D01*
X68400084Y-140063181D01*
X68338761Y-140096666D01*
X68312403Y-140099500D01*
X61555928Y-140099500D01*
X61547829Y-140098969D01*
X61512500Y-140094318D01*
X61473139Y-140099500D01*
X61355739Y-140114955D01*
X61355737Y-140114956D01*
X61209660Y-140175463D01*
X61084214Y-140271721D01*
X61062524Y-140299990D01*
X61057170Y-140306094D01*
X60864381Y-140498882D01*
X60803058Y-140532367D01*
X60744608Y-140530976D01*
X60680484Y-140513795D01*
X60680486Y-140513795D01*
X60680477Y-140513793D01*
X60680473Y-140513792D01*
X60680470Y-140513792D01*
X60462502Y-140494723D01*
X60462498Y-140494723D01*
X60334651Y-140505908D01*
X60244523Y-140513793D01*
X60244520Y-140513793D01*
X60033177Y-140570422D01*
X60033168Y-140570426D01*
X59834861Y-140662898D01*
X59834857Y-140662900D01*
X59655624Y-140788400D01*
X59550180Y-140893844D01*
X59488857Y-140927328D01*
X59419165Y-140922344D01*
X59374818Y-140893843D01*
X59269381Y-140788406D01*
X59269377Y-140788402D01*
X59116503Y-140681358D01*
X59090138Y-140662897D01*
X58990984Y-140616661D01*
X58891830Y-140570425D01*
X58891827Y-140570424D01*
X58891820Y-140570421D01*
X58885674Y-140568775D01*
X58826013Y-140532411D01*
X58795483Y-140469564D01*
X58803777Y-140400189D01*
X58848262Y-140346310D01*
X58914814Y-140325035D01*
X58917766Y-140325000D01*
X59497828Y-140325000D01*
X59497844Y-140324999D01*
X59557372Y-140318598D01*
X59557379Y-140318596D01*
X59692086Y-140268354D01*
X59692093Y-140268350D01*
X59807187Y-140182190D01*
X59807190Y-140182187D01*
X59893350Y-140067093D01*
X59893354Y-140067086D01*
X59943596Y-139932379D01*
X59943598Y-139932372D01*
X59949999Y-139872844D01*
X59950000Y-139872827D01*
X59950000Y-139225000D01*
X59033686Y-139225000D01*
X59059493Y-139184844D01*
X59100000Y-139046889D01*
X59100000Y-138903111D01*
X59059493Y-138765156D01*
X59033686Y-138725000D01*
X59950000Y-138725000D01*
X59950000Y-138077172D01*
X59949999Y-138077155D01*
X59943598Y-138017627D01*
X59943596Y-138017620D01*
X59893354Y-137882913D01*
X59893350Y-137882906D01*
X59844584Y-137817763D01*
X61808287Y-137817763D01*
X61837913Y-138087013D01*
X61837915Y-138087024D01*
X61906426Y-138349082D01*
X61906428Y-138349088D01*
X62012370Y-138598390D01*
X62114146Y-138765156D01*
X62153479Y-138829605D01*
X62153486Y-138829615D01*
X62326753Y-139037819D01*
X62326759Y-139037824D01*
X62431740Y-139131887D01*
X62528498Y-139218582D01*
X62754410Y-139368044D01*
X62999676Y-139483020D01*
X62999683Y-139483022D01*
X62999685Y-139483023D01*
X63259057Y-139561057D01*
X63259064Y-139561058D01*
X63259069Y-139561060D01*
X63527061Y-139600500D01*
X63527066Y-139600500D01*
X63730136Y-139600500D01*
X63781633Y-139596730D01*
X63932656Y-139585677D01*
X64045258Y-139560593D01*
X64197046Y-139526782D01*
X64197048Y-139526781D01*
X64197053Y-139526780D01*
X64450058Y-139430014D01*
X64686277Y-139297441D01*
X64900677Y-139131888D01*
X65088686Y-138936881D01*
X65246299Y-138716579D01*
X65362627Y-138490320D01*
X65370149Y-138475690D01*
X65370151Y-138475684D01*
X65370156Y-138475675D01*
X65457618Y-138219305D01*
X65506819Y-137952933D01*
X65516712Y-137682235D01*
X65487086Y-137412982D01*
X65418572Y-137150912D01*
X65312630Y-136901610D01*
X65171518Y-136670390D01*
X65082247Y-136563119D01*
X64998246Y-136462180D01*
X64998240Y-136462175D01*
X64796502Y-136281418D01*
X64570592Y-136131957D01*
X64570590Y-136131956D01*
X64325324Y-136016980D01*
X64325319Y-136016978D01*
X64325314Y-136016976D01*
X64065942Y-135938942D01*
X64065928Y-135938939D01*
X63950291Y-135921921D01*
X63797939Y-135899500D01*
X63594869Y-135899500D01*
X63594864Y-135899500D01*
X63392344Y-135914323D01*
X63392331Y-135914325D01*
X63127953Y-135973217D01*
X63127946Y-135973220D01*
X62874939Y-136069987D01*
X62638726Y-136202557D01*
X62424322Y-136368112D01*
X62236322Y-136563109D01*
X62236316Y-136563116D01*
X62078702Y-136783419D01*
X62078699Y-136783424D01*
X61954850Y-137024309D01*
X61954843Y-137024327D01*
X61867384Y-137280685D01*
X61867381Y-137280699D01*
X61842949Y-137412975D01*
X61822213Y-137525241D01*
X61818181Y-137547068D01*
X61818180Y-137547075D01*
X61808287Y-137817763D01*
X59844584Y-137817763D01*
X59807190Y-137767812D01*
X59807187Y-137767809D01*
X59692093Y-137681649D01*
X59692088Y-137681646D01*
X59560528Y-137632577D01*
X59504595Y-137590705D01*
X59480178Y-137525241D01*
X59495030Y-137456968D01*
X59516175Y-137428720D01*
X59638495Y-137306401D01*
X59774035Y-137112830D01*
X59873903Y-136898663D01*
X59935063Y-136670408D01*
X59955659Y-136435000D01*
X59935063Y-136199592D01*
X59873903Y-135971337D01*
X59774035Y-135757171D01*
X59638495Y-135563599D01*
X59638494Y-135563597D01*
X59471402Y-135396506D01*
X59471395Y-135396501D01*
X59277834Y-135260967D01*
X59277830Y-135260965D01*
X59277828Y-135260964D01*
X59063663Y-135161097D01*
X59063659Y-135161096D01*
X59063655Y-135161094D01*
X58835413Y-135099938D01*
X58835403Y-135099936D01*
X58600001Y-135079341D01*
X58599999Y-135079341D01*
X58364596Y-135099936D01*
X58364586Y-135099938D01*
X58136344Y-135161094D01*
X58136335Y-135161098D01*
X57922171Y-135260964D01*
X57922169Y-135260965D01*
X57728597Y-135396505D01*
X57561505Y-135563597D01*
X57425965Y-135757169D01*
X57425964Y-135757171D01*
X57326098Y-135971335D01*
X57326094Y-135971344D01*
X57264938Y-136199586D01*
X57264936Y-136199596D01*
X57244341Y-136434999D01*
X57244341Y-136435000D01*
X57264936Y-136670403D01*
X57264938Y-136670413D01*
X57326094Y-136898655D01*
X57326096Y-136898659D01*
X57326097Y-136898663D01*
X57384695Y-137024327D01*
X57425965Y-137112830D01*
X57425967Y-137112834D01*
X57534281Y-137267521D01*
X57561501Y-137306396D01*
X57561506Y-137306402D01*
X57683818Y-137428714D01*
X57717303Y-137490037D01*
X57712319Y-137559729D01*
X57670447Y-137615662D01*
X57639471Y-137632577D01*
X57507912Y-137681646D01*
X57507906Y-137681649D01*
X57392812Y-137767809D01*
X57392809Y-137767812D01*
X57306649Y-137882906D01*
X57306645Y-137882913D01*
X57256403Y-138017620D01*
X57256401Y-138017627D01*
X57250000Y-138077155D01*
X57250000Y-138725000D01*
X58166314Y-138725000D01*
X58140507Y-138765156D01*
X58100000Y-138903111D01*
X58100000Y-139046889D01*
X58140507Y-139184844D01*
X58166314Y-139225000D01*
X57250000Y-139225000D01*
X57250000Y-139872844D01*
X57256401Y-139932372D01*
X57256403Y-139932379D01*
X57306645Y-140067086D01*
X57306649Y-140067093D01*
X57392809Y-140182187D01*
X57392812Y-140182190D01*
X57507906Y-140268350D01*
X57507913Y-140268354D01*
X57642620Y-140318596D01*
X57642627Y-140318598D01*
X57702155Y-140324999D01*
X57702172Y-140325000D01*
X58007234Y-140325000D01*
X58074273Y-140344685D01*
X58120028Y-140397489D01*
X58129972Y-140466647D01*
X58100947Y-140530203D01*
X58042169Y-140567977D01*
X58039326Y-140568775D01*
X58033179Y-140570421D01*
X58033168Y-140570426D01*
X57834863Y-140662897D01*
X57834857Y-140662901D01*
X57769557Y-140708623D01*
X57703351Y-140730950D01*
X57635584Y-140713938D01*
X57599170Y-140681359D01*
X57570046Y-140642454D01*
X57547209Y-140625358D01*
X57454835Y-140556206D01*
X57454828Y-140556202D01*
X57319982Y-140505908D01*
X57319983Y-140505908D01*
X57260383Y-140499501D01*
X57260381Y-140499500D01*
X57260373Y-140499500D01*
X57260364Y-140499500D01*
X55664629Y-140499500D01*
X55664623Y-140499501D01*
X55605016Y-140505908D01*
X55470171Y-140556202D01*
X55470164Y-140556206D01*
X55354955Y-140642452D01*
X55354952Y-140642455D01*
X55268706Y-140757664D01*
X55268702Y-140757671D01*
X55218408Y-140892517D01*
X55212001Y-140952116D01*
X55212000Y-140952135D01*
X55212000Y-142547870D01*
X55212001Y-142547876D01*
X55218408Y-142607483D01*
X55268702Y-142742328D01*
X55268706Y-142742335D01*
X55354952Y-142857544D01*
X55354955Y-142857547D01*
X55470164Y-142943793D01*
X55470171Y-142943797D01*
X55605017Y-142994091D01*
X55605016Y-142994091D01*
X55611944Y-142994835D01*
X55664627Y-143000500D01*
X56237582Y-143000499D01*
X56304621Y-143020183D01*
X56350376Y-143072987D01*
X56360320Y-143142146D01*
X56349964Y-143176903D01*
X56282927Y-143320663D01*
X56282922Y-143320677D01*
X56226293Y-143532020D01*
X56226293Y-143532024D01*
X56207223Y-143749997D01*
X56207223Y-143750002D01*
X56226293Y-143967975D01*
X56226293Y-143967979D01*
X56282922Y-144179322D01*
X56282924Y-144179326D01*
X56282925Y-144179330D01*
X56315879Y-144250000D01*
X56375397Y-144377638D01*
X56375398Y-144377639D01*
X56500902Y-144556877D01*
X56655623Y-144711598D01*
X56834861Y-144837102D01*
X57033170Y-144929575D01*
X57244523Y-144986207D01*
X57414950Y-145001117D01*
X57462498Y-145005277D01*
X57462500Y-145005277D01*
X57462502Y-145005277D01*
X57490754Y-145002805D01*
X57680477Y-144986207D01*
X57744608Y-144969023D01*
X57814457Y-144970686D01*
X57864382Y-145001117D01*
X58057169Y-145193904D01*
X58062520Y-145200005D01*
X58084218Y-145228282D01*
X58126456Y-145260692D01*
X58209659Y-145324536D01*
X58209662Y-145324537D01*
X58209663Y-145324538D01*
X58282698Y-145354790D01*
X58355738Y-145385044D01*
X58434119Y-145395363D01*
X58512499Y-145405682D01*
X58512500Y-145405682D01*
X58547829Y-145401030D01*
X58555928Y-145400500D01*
X70719072Y-145400500D01*
X70727170Y-145401030D01*
X70762500Y-145405682D01*
X70762501Y-145405682D01*
X70814754Y-145398802D01*
X70919262Y-145385044D01*
X71065341Y-145324536D01*
X71148544Y-145260692D01*
X71190782Y-145228282D01*
X71212484Y-145199998D01*
X71217810Y-145193923D01*
X71706416Y-144705318D01*
X71712506Y-144699977D01*
X71740782Y-144678282D01*
X71837036Y-144552841D01*
X71897544Y-144406762D01*
X71913000Y-144289361D01*
X71918182Y-144250000D01*
X71913530Y-144214669D01*
X71913000Y-144206571D01*
X71913000Y-143490000D01*
X72244341Y-143490000D01*
X72264936Y-143725403D01*
X72264938Y-143725413D01*
X72326094Y-143953655D01*
X72326096Y-143953659D01*
X72326097Y-143953663D01*
X72400517Y-144113256D01*
X72425965Y-144167830D01*
X72425967Y-144167834D01*
X72483500Y-144249999D01*
X72561505Y-144361401D01*
X72728599Y-144528495D01*
X72769764Y-144557319D01*
X72922165Y-144664032D01*
X72922167Y-144664033D01*
X72922170Y-144664035D01*
X73136337Y-144763903D01*
X73364592Y-144825063D01*
X73552918Y-144841539D01*
X73599999Y-144845659D01*
X73600000Y-144845659D01*
X73600001Y-144845659D01*
X73639234Y-144842226D01*
X73835408Y-144825063D01*
X74063663Y-144763903D01*
X74277830Y-144664035D01*
X74471401Y-144528495D01*
X74638495Y-144361401D01*
X74774035Y-144167830D01*
X74873903Y-143953663D01*
X74935063Y-143725408D01*
X74955659Y-143490000D01*
X74935063Y-143254592D01*
X74873903Y-143026337D01*
X74774035Y-142812171D01*
X74703613Y-142711598D01*
X74638496Y-142618600D01*
X74590318Y-142570422D01*
X74516567Y-142496671D01*
X74483084Y-142435351D01*
X74488068Y-142365659D01*
X74529939Y-142309725D01*
X74560915Y-142292810D01*
X74692331Y-142243796D01*
X74807546Y-142157546D01*
X74893796Y-142042331D01*
X74944091Y-141907483D01*
X74950500Y-141847873D01*
X74950499Y-140052128D01*
X74944091Y-139992517D01*
X74921658Y-139932372D01*
X74893797Y-139857671D01*
X74893793Y-139857664D01*
X74807547Y-139742455D01*
X74807544Y-139742452D01*
X74692335Y-139656206D01*
X74692328Y-139656202D01*
X74557482Y-139605908D01*
X74557483Y-139605908D01*
X74497883Y-139599501D01*
X74497881Y-139599500D01*
X74497873Y-139599500D01*
X74497864Y-139599500D01*
X72702129Y-139599500D01*
X72702123Y-139599501D01*
X72642516Y-139605908D01*
X72507671Y-139656202D01*
X72507664Y-139656206D01*
X72392455Y-139742452D01*
X72392452Y-139742455D01*
X72306206Y-139857664D01*
X72306202Y-139857671D01*
X72255908Y-139992517D01*
X72249501Y-140052116D01*
X72249501Y-140052123D01*
X72249500Y-140052135D01*
X72249500Y-141847870D01*
X72249501Y-141847876D01*
X72255908Y-141907483D01*
X72306202Y-142042328D01*
X72306206Y-142042335D01*
X72392452Y-142157544D01*
X72392455Y-142157547D01*
X72507664Y-142243793D01*
X72507671Y-142243797D01*
X72639081Y-142292810D01*
X72695015Y-142334681D01*
X72719432Y-142400145D01*
X72704580Y-142468418D01*
X72683430Y-142496673D01*
X72561503Y-142618600D01*
X72425965Y-142812169D01*
X72425964Y-142812171D01*
X72326098Y-143026335D01*
X72326094Y-143026344D01*
X72264938Y-143254586D01*
X72264936Y-143254596D01*
X72244341Y-143489999D01*
X72244341Y-143490000D01*
X71913000Y-143490000D01*
X71913000Y-143365172D01*
X71913531Y-143357070D01*
X71918182Y-143321743D01*
X71918182Y-143321742D01*
X71897544Y-143164983D01*
X71897542Y-143164978D01*
X71837038Y-143018907D01*
X71837038Y-143018906D01*
X71837036Y-143018903D01*
X71817997Y-142994091D01*
X71740782Y-142893462D01*
X71712505Y-142871764D01*
X71706404Y-142866413D01*
X71574399Y-142734408D01*
X71540914Y-142673085D01*
X71538080Y-142646727D01*
X71538080Y-133117763D01*
X81008287Y-133117763D01*
X81037913Y-133387013D01*
X81037915Y-133387024D01*
X81106426Y-133649082D01*
X81106428Y-133649088D01*
X81212370Y-133898390D01*
X81284498Y-134016575D01*
X81353479Y-134129605D01*
X81353486Y-134129615D01*
X81526753Y-134337819D01*
X81526759Y-134337824D01*
X81728498Y-134518582D01*
X81954410Y-134668044D01*
X82199676Y-134783020D01*
X82199683Y-134783022D01*
X82199685Y-134783023D01*
X82459057Y-134861057D01*
X82459064Y-134861058D01*
X82459069Y-134861060D01*
X82727061Y-134900500D01*
X82727066Y-134900500D01*
X82930136Y-134900500D01*
X82981633Y-134896730D01*
X83132656Y-134885677D01*
X83245258Y-134860593D01*
X83397046Y-134826782D01*
X83397048Y-134826781D01*
X83397053Y-134826780D01*
X83650058Y-134730014D01*
X83886277Y-134597441D01*
X84100677Y-134431888D01*
X84288686Y-134236881D01*
X84446299Y-134016579D01*
X84520287Y-133872669D01*
X84570149Y-133775690D01*
X84570151Y-133775684D01*
X84570156Y-133775675D01*
X84657618Y-133519305D01*
X84706819Y-133252933D01*
X84716712Y-132982235D01*
X84687086Y-132712982D01*
X84618572Y-132450912D01*
X84512630Y-132201610D01*
X84371518Y-131970390D01*
X84282247Y-131863119D01*
X84198246Y-131762180D01*
X84198240Y-131762175D01*
X83996502Y-131581418D01*
X83770592Y-131431957D01*
X83770590Y-131431956D01*
X83525324Y-131316980D01*
X83525319Y-131316978D01*
X83525314Y-131316976D01*
X83265942Y-131238942D01*
X83265928Y-131238939D01*
X83150291Y-131221921D01*
X82997939Y-131199500D01*
X82794869Y-131199500D01*
X82794864Y-131199500D01*
X82592344Y-131214323D01*
X82592331Y-131214325D01*
X82327953Y-131273217D01*
X82327946Y-131273220D01*
X82074939Y-131369987D01*
X81838726Y-131502557D01*
X81624322Y-131668112D01*
X81436322Y-131863109D01*
X81436316Y-131863116D01*
X81278702Y-132083419D01*
X81278699Y-132083424D01*
X81154850Y-132324309D01*
X81154843Y-132324327D01*
X81067384Y-132580685D01*
X81067381Y-132580699D01*
X81018181Y-132847068D01*
X81018180Y-132847075D01*
X81008287Y-133117763D01*
X71538080Y-133117763D01*
X71538080Y-127950000D01*
X80479341Y-127950000D01*
X80499936Y-128185403D01*
X80499938Y-128185413D01*
X80561094Y-128413655D01*
X80561096Y-128413659D01*
X80561097Y-128413663D01*
X80660965Y-128627830D01*
X80660967Y-128627834D01*
X80769281Y-128782521D01*
X80796505Y-128821401D01*
X80963599Y-128988495D01*
X81040135Y-129042086D01*
X81157165Y-129124032D01*
X81157167Y-129124033D01*
X81157170Y-129124035D01*
X81371337Y-129223903D01*
X81599592Y-129285063D01*
X81770319Y-129300000D01*
X81834999Y-129305659D01*
X81835000Y-129305659D01*
X81835001Y-129305659D01*
X81899681Y-129300000D01*
X82070408Y-129285063D01*
X82298663Y-129223903D01*
X82512830Y-129124035D01*
X82706401Y-128988495D01*
X82828717Y-128866178D01*
X82890036Y-128832696D01*
X82959728Y-128837680D01*
X83015662Y-128879551D01*
X83032577Y-128910528D01*
X83081646Y-129042088D01*
X83081649Y-129042093D01*
X83167809Y-129157187D01*
X83167812Y-129157190D01*
X83282906Y-129243350D01*
X83282913Y-129243354D01*
X83417620Y-129293596D01*
X83417627Y-129293598D01*
X83477155Y-129299999D01*
X83477172Y-129300000D01*
X84125000Y-129300000D01*
X84125000Y-128385501D01*
X84232685Y-128434680D01*
X84339237Y-128450000D01*
X84410763Y-128450000D01*
X84517315Y-128434680D01*
X84625000Y-128385501D01*
X84625000Y-129300000D01*
X85272828Y-129300000D01*
X85272844Y-129299999D01*
X85332372Y-129293598D01*
X85332379Y-129293596D01*
X85467086Y-129243354D01*
X85467093Y-129243350D01*
X85582187Y-129157190D01*
X85582190Y-129157187D01*
X85668350Y-129042093D01*
X85668354Y-129042086D01*
X85718596Y-128907379D01*
X85718598Y-128907372D01*
X85724999Y-128847844D01*
X85725000Y-128847827D01*
X85725000Y-128200000D01*
X84808686Y-128200000D01*
X84834493Y-128159844D01*
X84875000Y-128021889D01*
X84875000Y-127878111D01*
X84834493Y-127740156D01*
X84808686Y-127700000D01*
X85725000Y-127700000D01*
X85725000Y-127052172D01*
X85724999Y-127052155D01*
X85718598Y-126992627D01*
X85718596Y-126992620D01*
X85668354Y-126857913D01*
X85668350Y-126857906D01*
X85582190Y-126742812D01*
X85582187Y-126742809D01*
X85467093Y-126656649D01*
X85467086Y-126656645D01*
X85332379Y-126606403D01*
X85332372Y-126606401D01*
X85272844Y-126600000D01*
X84625000Y-126600000D01*
X84625000Y-127514498D01*
X84517315Y-127465320D01*
X84410763Y-127450000D01*
X84339237Y-127450000D01*
X84232685Y-127465320D01*
X84125000Y-127514498D01*
X84125000Y-126600000D01*
X83477155Y-126600000D01*
X83417627Y-126606401D01*
X83417620Y-126606403D01*
X83282913Y-126656645D01*
X83282906Y-126656649D01*
X83167812Y-126742809D01*
X83167809Y-126742812D01*
X83081649Y-126857906D01*
X83081645Y-126857913D01*
X83032578Y-126989470D01*
X82990707Y-127045404D01*
X82925242Y-127069821D01*
X82856969Y-127054969D01*
X82828715Y-127033819D01*
X82784366Y-126989470D01*
X82706401Y-126911505D01*
X82706397Y-126911502D01*
X82706396Y-126911501D01*
X82512834Y-126775967D01*
X82512830Y-126775965D01*
X82441727Y-126742809D01*
X82298663Y-126676097D01*
X82298659Y-126676096D01*
X82298655Y-126676094D01*
X82070413Y-126614938D01*
X82070403Y-126614936D01*
X81835001Y-126594341D01*
X81834999Y-126594341D01*
X81599596Y-126614936D01*
X81599586Y-126614938D01*
X81371344Y-126676094D01*
X81371335Y-126676098D01*
X81157171Y-126775964D01*
X81157169Y-126775965D01*
X80963597Y-126911505D01*
X80796505Y-127078597D01*
X80660965Y-127272169D01*
X80660964Y-127272171D01*
X80561098Y-127486335D01*
X80561094Y-127486344D01*
X80499938Y-127714586D01*
X80499936Y-127714596D01*
X80479341Y-127949999D01*
X80479341Y-127950000D01*
X71538080Y-127950000D01*
X71538080Y-120949500D01*
X71557765Y-120882461D01*
X71610569Y-120836706D01*
X71662080Y-120825500D01*
X71759594Y-120825500D01*
X71759596Y-120825500D01*
X71944753Y-120786144D01*
X72117680Y-120709151D01*
X72270821Y-120597888D01*
X72397483Y-120457216D01*
X72492129Y-120293284D01*
X72550624Y-120113256D01*
X72570410Y-119925000D01*
X72570410Y-119924997D01*
X72570410Y-119920136D01*
X72590095Y-119853097D01*
X72606729Y-119832455D01*
X73149824Y-119289360D01*
X73743914Y-118695269D01*
X73749999Y-118689933D01*
X73778282Y-118668232D01*
X73874536Y-118542791D01*
X73935044Y-118396712D01*
X73936938Y-118382324D01*
X73936953Y-118382214D01*
X73955683Y-118239950D01*
X73955683Y-118239949D01*
X73951031Y-118204615D01*
X73950500Y-118196513D01*
X73950500Y-116743428D01*
X73951031Y-116735326D01*
X73955682Y-116699999D01*
X73955682Y-116699998D01*
X73935044Y-116543239D01*
X73935042Y-116543234D01*
X73874538Y-116397163D01*
X73874538Y-116397162D01*
X73874536Y-116397159D01*
X73802450Y-116303215D01*
X73790366Y-116287466D01*
X73778283Y-116271718D01*
X73750009Y-116250023D01*
X73743912Y-116244677D01*
X73055328Y-115556093D01*
X73049974Y-115549988D01*
X73028286Y-115521722D01*
X73028283Y-115521720D01*
X73028282Y-115521718D01*
X72902841Y-115425464D01*
X72756762Y-115364956D01*
X72756760Y-115364955D01*
X72639361Y-115349500D01*
X72600000Y-115344318D01*
X72564670Y-115348969D01*
X72556572Y-115349500D01*
X72324500Y-115349500D01*
X72257461Y-115329815D01*
X72211706Y-115277011D01*
X72200500Y-115225500D01*
X72200500Y-110693428D01*
X72201031Y-110685326D01*
X72205682Y-110649999D01*
X72205682Y-110649998D01*
X72185044Y-110493239D01*
X72185042Y-110493234D01*
X72183437Y-110489360D01*
X72146335Y-110399786D01*
X72124538Y-110347163D01*
X72124535Y-110347158D01*
X72124157Y-110346666D01*
X72083161Y-110293238D01*
X72028282Y-110221718D01*
X72000005Y-110200020D01*
X71993904Y-110194669D01*
X69886819Y-108087584D01*
X69853334Y-108026261D01*
X69850500Y-107999903D01*
X69850500Y-106726452D01*
X69870185Y-106659413D01*
X69882350Y-106643480D01*
X69887302Y-106637980D01*
X69982533Y-106532216D01*
X70077179Y-106368284D01*
X70135674Y-106188256D01*
X70142426Y-106124004D01*
X70169010Y-106059392D01*
X70226308Y-106019407D01*
X70291528Y-106015678D01*
X70455354Y-106050500D01*
X70455355Y-106050500D01*
X70644644Y-106050500D01*
X70644646Y-106050500D01*
X70829803Y-106011144D01*
X71002730Y-105934151D01*
X71155871Y-105822888D01*
X71282533Y-105682216D01*
X71377179Y-105518284D01*
X71435674Y-105338256D01*
X71455460Y-105150000D01*
X71435674Y-104961744D01*
X71377179Y-104781716D01*
X71282533Y-104617784D01*
X71155871Y-104477112D01*
X71155870Y-104477111D01*
X71002734Y-104365851D01*
X71002729Y-104365848D01*
X70829807Y-104288857D01*
X70829802Y-104288855D01*
X70684001Y-104257865D01*
X70644646Y-104249500D01*
X70455354Y-104249500D01*
X70422897Y-104256398D01*
X70270197Y-104288855D01*
X70270192Y-104288857D01*
X70097270Y-104365848D01*
X70097265Y-104365851D01*
X69944130Y-104477110D01*
X69944126Y-104477114D01*
X69938400Y-104483474D01*
X69878913Y-104520121D01*
X69846252Y-104524500D01*
X69157438Y-104524500D01*
X69141817Y-104522775D01*
X69141790Y-104523061D01*
X69134028Y-104522326D01*
X69064867Y-104524500D01*
X69058466Y-104524500D01*
X68991427Y-104504815D01*
X68945672Y-104452011D01*
X68935728Y-104382853D01*
X68943902Y-104353053D01*
X68947544Y-104344262D01*
X68955338Y-104285063D01*
X68968182Y-104187500D01*
X68963530Y-104152169D01*
X68963000Y-104144071D01*
X68963000Y-100176452D01*
X68982685Y-100109413D01*
X68994850Y-100093480D01*
X69013501Y-100072766D01*
X69095033Y-99982216D01*
X69189679Y-99818284D01*
X69248174Y-99638256D01*
X69267960Y-99450000D01*
X69248174Y-99261744D01*
X69189679Y-99081716D01*
X69095033Y-98917784D01*
X69035500Y-98851666D01*
X68968376Y-98777116D01*
X68968367Y-98777109D01*
X68941614Y-98757671D01*
X68898948Y-98702341D01*
X68890500Y-98657354D01*
X68890500Y-96517790D01*
X68910185Y-96450751D01*
X68962989Y-96404996D01*
X68971146Y-96401616D01*
X69032331Y-96378796D01*
X69137116Y-96300353D01*
X69202580Y-96275936D01*
X69270853Y-96290787D01*
X69320259Y-96340192D01*
X69335111Y-96408465D01*
X69329358Y-96437938D01*
X69308257Y-96502880D01*
X69308256Y-96502884D01*
X69288470Y-96691140D01*
X69308256Y-96879396D01*
X69308257Y-96879399D01*
X69366748Y-97059417D01*
X69366751Y-97059424D01*
X69461397Y-97223356D01*
X69539421Y-97310010D01*
X69588059Y-97364028D01*
X69741195Y-97475288D01*
X69741200Y-97475291D01*
X69914122Y-97552282D01*
X69914127Y-97552284D01*
X70099284Y-97591640D01*
X70099285Y-97591640D01*
X70288574Y-97591640D01*
X70288576Y-97591640D01*
X70473733Y-97552284D01*
X70587273Y-97501731D01*
X70656522Y-97492447D01*
X70710593Y-97514691D01*
X70739381Y-97535607D01*
X70912303Y-97612598D01*
X70912308Y-97612600D01*
X71097465Y-97651956D01*
X71115393Y-97651956D01*
X71182432Y-97671641D01*
X71203074Y-97688275D01*
X71390877Y-97876078D01*
X71400700Y-97888339D01*
X71400922Y-97888157D01*
X71405895Y-97894169D01*
X71456319Y-97941521D01*
X71477206Y-97962409D01*
X71477210Y-97962412D01*
X71477212Y-97962414D01*
X71482694Y-97966667D01*
X71487126Y-97970451D01*
X71521101Y-98002356D01*
X71538659Y-98012008D01*
X71554918Y-98022689D01*
X71570747Y-98034967D01*
X71613521Y-98053476D01*
X71618739Y-98056032D01*
X71659591Y-98078491D01*
X71678999Y-98083474D01*
X71697400Y-98089774D01*
X71715787Y-98097731D01*
X71759171Y-98104602D01*
X71761802Y-98105019D01*
X71767526Y-98106204D01*
X71803048Y-98115325D01*
X71859890Y-98147747D01*
X75238181Y-101526038D01*
X75271666Y-101587361D01*
X75274500Y-101613719D01*
X75274500Y-104583610D01*
X75254815Y-104650649D01*
X75202011Y-104696404D01*
X75132853Y-104706348D01*
X75077616Y-104683929D01*
X75052733Y-104665850D01*
X75052729Y-104665848D01*
X74879807Y-104588857D01*
X74879802Y-104588855D01*
X74732589Y-104557565D01*
X74694646Y-104549500D01*
X74505354Y-104549500D01*
X74472897Y-104556398D01*
X74320197Y-104588855D01*
X74320192Y-104588857D01*
X74147270Y-104665848D01*
X74147265Y-104665851D01*
X73994129Y-104777111D01*
X73867466Y-104917785D01*
X73772821Y-105081715D01*
X73772818Y-105081722D01*
X73714327Y-105261740D01*
X73714326Y-105261744D01*
X73694540Y-105450000D01*
X73714326Y-105638256D01*
X73714327Y-105638259D01*
X73772818Y-105818277D01*
X73772821Y-105818284D01*
X73867467Y-105982216D01*
X73936957Y-106059392D01*
X73967650Y-106093480D01*
X73997880Y-106156471D01*
X73999500Y-106176452D01*
X73999500Y-110406571D01*
X73998969Y-110414669D01*
X73994318Y-110450000D01*
X73999500Y-110489361D01*
X74000011Y-110493239D01*
X74014955Y-110606760D01*
X74014956Y-110606762D01*
X74075464Y-110752841D01*
X74171718Y-110878282D01*
X74199995Y-110899980D01*
X74206085Y-110905320D01*
X74469042Y-111168277D01*
X74644669Y-111343904D01*
X74650020Y-111350005D01*
X74671718Y-111378282D01*
X74741433Y-111431776D01*
X74777941Y-111459790D01*
X74785838Y-111465849D01*
X74797159Y-111474536D01*
X74797161Y-111474536D01*
X74797163Y-111474538D01*
X74870198Y-111504790D01*
X74943238Y-111535044D01*
X75021619Y-111545363D01*
X75099999Y-111555682D01*
X75100000Y-111555682D01*
X75135329Y-111551030D01*
X75143428Y-111550500D01*
X76844440Y-111550500D01*
X76852538Y-111551030D01*
X76887868Y-111555682D01*
X76887869Y-111555682D01*
X76940122Y-111548802D01*
X77044630Y-111535044D01*
X77190709Y-111474536D01*
X77202031Y-111465848D01*
X77209927Y-111459790D01*
X77274018Y-111410611D01*
X77316150Y-111378282D01*
X77337851Y-111349999D01*
X77343179Y-111343922D01*
X77743922Y-110943179D01*
X77749999Y-110937851D01*
X77778282Y-110916150D01*
X77874536Y-110790709D01*
X77935044Y-110644630D01*
X77938512Y-110618284D01*
X77955682Y-110487868D01*
X77951030Y-110452537D01*
X77950500Y-110444439D01*
X77950500Y-107250096D01*
X77970185Y-107183057D01*
X77986809Y-107162425D01*
X78123607Y-107025627D01*
X78184924Y-106992146D01*
X78254616Y-106997130D01*
X78310550Y-107039001D01*
X78334967Y-107104465D01*
X78331389Y-107144144D01*
X78324500Y-107170977D01*
X78324500Y-107191016D01*
X78322973Y-107210415D01*
X78319840Y-107230194D01*
X78319840Y-107230195D01*
X78324225Y-107276583D01*
X78324500Y-107282421D01*
X78324500Y-113717255D01*
X78322775Y-113732872D01*
X78323061Y-113732899D01*
X78322326Y-113740665D01*
X78324500Y-113809814D01*
X78324500Y-113839343D01*
X78324501Y-113839360D01*
X78325368Y-113846231D01*
X78325826Y-113852050D01*
X78327290Y-113898624D01*
X78327291Y-113898627D01*
X78332880Y-113917867D01*
X78336824Y-113936911D01*
X78339336Y-113956791D01*
X78356490Y-114000119D01*
X78358382Y-114005647D01*
X78371381Y-114050388D01*
X78381580Y-114067634D01*
X78390138Y-114085103D01*
X78397514Y-114103732D01*
X78424898Y-114141423D01*
X78428106Y-114146307D01*
X78451827Y-114186416D01*
X78451833Y-114186424D01*
X78465990Y-114200580D01*
X78478628Y-114215376D01*
X78490405Y-114231586D01*
X78490406Y-114231587D01*
X78526309Y-114261288D01*
X78530620Y-114265210D01*
X79542421Y-115277011D01*
X80538181Y-116272771D01*
X80571666Y-116334094D01*
X80574500Y-116360452D01*
X80574500Y-120275500D01*
X80554815Y-120342539D01*
X80502011Y-120388294D01*
X80450500Y-120399500D01*
X76576258Y-120399500D01*
X76509219Y-120379815D01*
X76484109Y-120358473D01*
X76455871Y-120327112D01*
X76455864Y-120327106D01*
X76302734Y-120215851D01*
X76302729Y-120215848D01*
X76129807Y-120138857D01*
X76129802Y-120138855D01*
X75984001Y-120107865D01*
X75944646Y-120099500D01*
X75755354Y-120099500D01*
X75722897Y-120106398D01*
X75570197Y-120138855D01*
X75570192Y-120138857D01*
X75397270Y-120215848D01*
X75397265Y-120215851D01*
X75244129Y-120327111D01*
X75117466Y-120467785D01*
X75022821Y-120631715D01*
X75022818Y-120631722D01*
X74972644Y-120786144D01*
X74964326Y-120811744D01*
X74944540Y-121000000D01*
X74964326Y-121188256D01*
X74964327Y-121188259D01*
X75022818Y-121368277D01*
X75022821Y-121368284D01*
X75117467Y-121532216D01*
X75244128Y-121672887D01*
X75244129Y-121672888D01*
X75350515Y-121750182D01*
X75393181Y-121805512D01*
X75399160Y-121875125D01*
X75366554Y-121936920D01*
X75305716Y-121971277D01*
X75277630Y-121974500D01*
X74953748Y-121974500D01*
X74886709Y-121954815D01*
X74861600Y-121933474D01*
X74855873Y-121927114D01*
X74855869Y-121927110D01*
X74702734Y-121815851D01*
X74702729Y-121815848D01*
X74529807Y-121738857D01*
X74529802Y-121738855D01*
X74384001Y-121707865D01*
X74344646Y-121699500D01*
X74155354Y-121699500D01*
X74122897Y-121706398D01*
X73970197Y-121738855D01*
X73970192Y-121738857D01*
X73797270Y-121815848D01*
X73797265Y-121815851D01*
X73644129Y-121927111D01*
X73517466Y-122067785D01*
X73422821Y-122231715D01*
X73422818Y-122231722D01*
X73366531Y-122404958D01*
X73364326Y-122411744D01*
X73344540Y-122600000D01*
X73364326Y-122788256D01*
X73364327Y-122788259D01*
X73422818Y-122968277D01*
X73422821Y-122968284D01*
X73517467Y-123132216D01*
X73638401Y-123266526D01*
X73644129Y-123272888D01*
X73797265Y-123384148D01*
X73797270Y-123384151D01*
X73970192Y-123461142D01*
X73970197Y-123461144D01*
X74155354Y-123500500D01*
X74155355Y-123500500D01*
X74344644Y-123500500D01*
X74344646Y-123500500D01*
X74529803Y-123461144D01*
X74702730Y-123384151D01*
X74855871Y-123272888D01*
X74858788Y-123269647D01*
X74861600Y-123266526D01*
X74921087Y-123229879D01*
X74953748Y-123225500D01*
X80817257Y-123225500D01*
X80832877Y-123227224D01*
X80832904Y-123226939D01*
X80840660Y-123227671D01*
X80840667Y-123227673D01*
X80909814Y-123225500D01*
X80939350Y-123225500D01*
X80946228Y-123224630D01*
X80952041Y-123224172D01*
X80998627Y-123222709D01*
X81017869Y-123217117D01*
X81036912Y-123213174D01*
X81056792Y-123210664D01*
X81100122Y-123193507D01*
X81105646Y-123191617D01*
X81109396Y-123190527D01*
X81150390Y-123178618D01*
X81167629Y-123168422D01*
X81185103Y-123159862D01*
X81203727Y-123152488D01*
X81203727Y-123152487D01*
X81203732Y-123152486D01*
X81241449Y-123125082D01*
X81246305Y-123121892D01*
X81286420Y-123098170D01*
X81300589Y-123083999D01*
X81315379Y-123071368D01*
X81331587Y-123059594D01*
X81361299Y-123023676D01*
X81365212Y-123019376D01*
X82333787Y-122050802D01*
X82346042Y-122040986D01*
X82345859Y-122040764D01*
X82351866Y-122035792D01*
X82351877Y-122035786D01*
X82385948Y-121999504D01*
X82399227Y-121985364D01*
X82409671Y-121974918D01*
X82420120Y-121964471D01*
X82424379Y-121958978D01*
X82428152Y-121954561D01*
X82460062Y-121920582D01*
X82469713Y-121903024D01*
X82480396Y-121886761D01*
X82492673Y-121870936D01*
X82511185Y-121828153D01*
X82513738Y-121822941D01*
X82536197Y-121782092D01*
X82541180Y-121762680D01*
X82547481Y-121744280D01*
X82555437Y-121725896D01*
X82562729Y-121679852D01*
X82563906Y-121674171D01*
X82575500Y-121629019D01*
X82575500Y-121608983D01*
X82577027Y-121589582D01*
X82580160Y-121569804D01*
X82575775Y-121523415D01*
X82575500Y-121517577D01*
X82575500Y-118548687D01*
X82595185Y-118481648D01*
X82607350Y-118465715D01*
X82625891Y-118445122D01*
X82682533Y-118382216D01*
X82777179Y-118218284D01*
X82835674Y-118038256D01*
X82855460Y-117850000D01*
X82835674Y-117661744D01*
X82777179Y-117481716D01*
X82682533Y-117317784D01*
X82678135Y-117312900D01*
X82607350Y-117234284D01*
X82577120Y-117171292D01*
X82575500Y-117151312D01*
X82575500Y-116082742D01*
X82577224Y-116067122D01*
X82576939Y-116067095D01*
X82577673Y-116059333D01*
X82575500Y-115990172D01*
X82575500Y-115960656D01*
X82575500Y-115960650D01*
X82574631Y-115953779D01*
X82574173Y-115947952D01*
X82572710Y-115901373D01*
X82567119Y-115882130D01*
X82563173Y-115863078D01*
X82560664Y-115843208D01*
X82543504Y-115799867D01*
X82541624Y-115794379D01*
X82528618Y-115749610D01*
X82518422Y-115732370D01*
X82509861Y-115714894D01*
X82502487Y-115696270D01*
X82502486Y-115696268D01*
X82475079Y-115658545D01*
X82471888Y-115653686D01*
X82448172Y-115613583D01*
X82448165Y-115613574D01*
X82434006Y-115599415D01*
X82421368Y-115584619D01*
X82409594Y-115568413D01*
X82373688Y-115538709D01*
X82369376Y-115534786D01*
X80211819Y-113377228D01*
X80178334Y-113315905D01*
X80175500Y-113289547D01*
X80175500Y-108762625D01*
X80195185Y-108695586D01*
X80226616Y-108662306D01*
X80280871Y-108622888D01*
X80407533Y-108482216D01*
X80502179Y-108318284D01*
X80560674Y-108138256D01*
X80580460Y-107950000D01*
X80560674Y-107761744D01*
X80502179Y-107581716D01*
X80407533Y-107417784D01*
X80308781Y-107308109D01*
X80278553Y-107245121D01*
X80287178Y-107175786D01*
X80293542Y-107163146D01*
X80377179Y-107018284D01*
X80435674Y-106838256D01*
X80455460Y-106650000D01*
X80435674Y-106461744D01*
X80377179Y-106281716D01*
X80282533Y-106117784D01*
X80155871Y-105977112D01*
X80137250Y-105963583D01*
X80002734Y-105865851D01*
X80002729Y-105865848D01*
X79829807Y-105788857D01*
X79829802Y-105788855D01*
X79666054Y-105754050D01*
X79604572Y-105720858D01*
X79570796Y-105659695D01*
X79575448Y-105589980D01*
X79604151Y-105545082D01*
X80412416Y-104736819D01*
X80473739Y-104703334D01*
X80500097Y-104700500D01*
X83461572Y-104700500D01*
X83469670Y-104701030D01*
X83505000Y-104705682D01*
X83505001Y-104705682D01*
X83557254Y-104698802D01*
X83661762Y-104685044D01*
X83807841Y-104624536D01*
X83860297Y-104584285D01*
X83933282Y-104528282D01*
X83954983Y-104499999D01*
X83960311Y-104493922D01*
X84171470Y-104282763D01*
X84232791Y-104249280D01*
X84291238Y-104250670D01*
X84419592Y-104285063D01*
X84596034Y-104300500D01*
X84654999Y-104305659D01*
X84655000Y-104305659D01*
X84655001Y-104305659D01*
X84713966Y-104300500D01*
X84890408Y-104285063D01*
X85118663Y-104223903D01*
X85332830Y-104124035D01*
X85526401Y-103988495D01*
X85693495Y-103821401D01*
X85829035Y-103627830D01*
X85928903Y-103413663D01*
X85990063Y-103185408D01*
X86010659Y-102950000D01*
X85990063Y-102714592D01*
X85928903Y-102486337D01*
X85829035Y-102272171D01*
X85823425Y-102264158D01*
X85693494Y-102078597D01*
X85526402Y-101911506D01*
X85526395Y-101911501D01*
X85332834Y-101775967D01*
X85332830Y-101775965D01*
X85332828Y-101775964D01*
X85118663Y-101676097D01*
X85118659Y-101676096D01*
X85118655Y-101676094D01*
X84890413Y-101614938D01*
X84890403Y-101614936D01*
X84655001Y-101594341D01*
X84654999Y-101594341D01*
X84419596Y-101614936D01*
X84419586Y-101614938D01*
X84191344Y-101676094D01*
X84191335Y-101676098D01*
X83977171Y-101775964D01*
X83977169Y-101775965D01*
X83783597Y-101911505D01*
X83616505Y-102078597D01*
X83486575Y-102264158D01*
X83431998Y-102307783D01*
X83362500Y-102314977D01*
X83300145Y-102283454D01*
X83283425Y-102264158D01*
X83153494Y-102078597D01*
X82986402Y-101911506D01*
X82986395Y-101911501D01*
X82792834Y-101775967D01*
X82792830Y-101775965D01*
X82792828Y-101775964D01*
X82578663Y-101676097D01*
X82578659Y-101676096D01*
X82578655Y-101676094D01*
X82350413Y-101614938D01*
X82350403Y-101614936D01*
X82115001Y-101594341D01*
X82114999Y-101594341D01*
X81879596Y-101614936D01*
X81879586Y-101614938D01*
X81651344Y-101676094D01*
X81651335Y-101676098D01*
X81437171Y-101775964D01*
X81437169Y-101775965D01*
X81243600Y-101911503D01*
X81121673Y-102033430D01*
X81060350Y-102066914D01*
X80990658Y-102061930D01*
X80934725Y-102020058D01*
X80917810Y-101989081D01*
X80868797Y-101857671D01*
X80868793Y-101857664D01*
X80782547Y-101742455D01*
X80782544Y-101742452D01*
X80667335Y-101656206D01*
X80667328Y-101656202D01*
X80532482Y-101605908D01*
X80532483Y-101605908D01*
X80472883Y-101599501D01*
X80472881Y-101599500D01*
X80472873Y-101599500D01*
X80472864Y-101599500D01*
X78677129Y-101599500D01*
X78677123Y-101599501D01*
X78617516Y-101605908D01*
X78482671Y-101656202D01*
X78482664Y-101656206D01*
X78367455Y-101742452D01*
X78367452Y-101742455D01*
X78281206Y-101857664D01*
X78281202Y-101857671D01*
X78230908Y-101992517D01*
X78224501Y-102052116D01*
X78224500Y-102052135D01*
X78224500Y-103847870D01*
X78224501Y-103847876D01*
X78230908Y-103907483D01*
X78281202Y-104042328D01*
X78281206Y-104042335D01*
X78367452Y-104157544D01*
X78367455Y-104157547D01*
X78482664Y-104243793D01*
X78482671Y-104243797D01*
X78527618Y-104260561D01*
X78617517Y-104294091D01*
X78677127Y-104300500D01*
X78850903Y-104300499D01*
X78917941Y-104320183D01*
X78963696Y-104372987D01*
X78973640Y-104442145D01*
X78944615Y-104505701D01*
X78938583Y-104512180D01*
X77487181Y-105963583D01*
X77425858Y-105997068D01*
X77356166Y-105992084D01*
X77300233Y-105950212D01*
X77275816Y-105884748D01*
X77275500Y-105875902D01*
X77275500Y-100282742D01*
X77277224Y-100267122D01*
X77276939Y-100267096D01*
X77277671Y-100259340D01*
X77277673Y-100259333D01*
X77275500Y-100190185D01*
X77275500Y-100160650D01*
X77274631Y-100153772D01*
X77274172Y-100147943D01*
X77273507Y-100126790D01*
X77272709Y-100101373D01*
X77267122Y-100082144D01*
X77263174Y-100063084D01*
X77260663Y-100043204D01*
X77243512Y-99999887D01*
X77241619Y-99994358D01*
X77228618Y-99949609D01*
X77228616Y-99949606D01*
X77218423Y-99932371D01*
X77209861Y-99914894D01*
X77202487Y-99896270D01*
X77202486Y-99896268D01*
X77175079Y-99858545D01*
X77171888Y-99853686D01*
X77148172Y-99813583D01*
X77148165Y-99813574D01*
X77134006Y-99799415D01*
X77121368Y-99784619D01*
X77109594Y-99768413D01*
X77073688Y-99738709D01*
X77069376Y-99734786D01*
X75452353Y-98117763D01*
X80208287Y-98117763D01*
X80237913Y-98387013D01*
X80237915Y-98387024D01*
X80306426Y-98649082D01*
X80306428Y-98649088D01*
X80412370Y-98898390D01*
X80424207Y-98917785D01*
X80553479Y-99129605D01*
X80553486Y-99129615D01*
X80726753Y-99337819D01*
X80726759Y-99337824D01*
X80928498Y-99518582D01*
X81154410Y-99668044D01*
X81399676Y-99783020D01*
X81399683Y-99783022D01*
X81399685Y-99783023D01*
X81659057Y-99861057D01*
X81659064Y-99861058D01*
X81659069Y-99861060D01*
X81927061Y-99900500D01*
X81927066Y-99900500D01*
X82130136Y-99900500D01*
X82181633Y-99896730D01*
X82332656Y-99885677D01*
X82464969Y-99856203D01*
X82597046Y-99826782D01*
X82597048Y-99826781D01*
X82597053Y-99826780D01*
X82850058Y-99730014D01*
X83086277Y-99597441D01*
X83300677Y-99431888D01*
X83488686Y-99236881D01*
X83646299Y-99016579D01*
X83721092Y-98871105D01*
X83770149Y-98775690D01*
X83770151Y-98775684D01*
X83770156Y-98775675D01*
X83857618Y-98519305D01*
X83906819Y-98252933D01*
X83916712Y-97982235D01*
X83887086Y-97712982D01*
X83818572Y-97450912D01*
X83712630Y-97201610D01*
X83571518Y-96970390D01*
X83482247Y-96863119D01*
X83398246Y-96762180D01*
X83398240Y-96762175D01*
X83196502Y-96581418D01*
X82970592Y-96431957D01*
X82913079Y-96404996D01*
X82725324Y-96316980D01*
X82725319Y-96316978D01*
X82725314Y-96316976D01*
X82465942Y-96238942D01*
X82465928Y-96238939D01*
X82344492Y-96221068D01*
X82197939Y-96199500D01*
X81994869Y-96199500D01*
X81994864Y-96199500D01*
X81792344Y-96214323D01*
X81792331Y-96214325D01*
X81527953Y-96273217D01*
X81527946Y-96273220D01*
X81274939Y-96369987D01*
X81038726Y-96502557D01*
X81038724Y-96502558D01*
X81038723Y-96502559D01*
X81030457Y-96508942D01*
X80824322Y-96668112D01*
X80636322Y-96863109D01*
X80636316Y-96863116D01*
X80478702Y-97083419D01*
X80478699Y-97083424D01*
X80354850Y-97324309D01*
X80354843Y-97324327D01*
X80267384Y-97580685D01*
X80267381Y-97580699D01*
X80218181Y-97847068D01*
X80218180Y-97847075D01*
X80208287Y-98117763D01*
X75452353Y-98117763D01*
X74956654Y-97622064D01*
X74923169Y-97560741D01*
X74928153Y-97491049D01*
X74952185Y-97451410D01*
X74952837Y-97450685D01*
X74952842Y-97450682D01*
X75079504Y-97310010D01*
X75174150Y-97146078D01*
X75232645Y-96966050D01*
X75252431Y-96777794D01*
X75232645Y-96589538D01*
X75174150Y-96409510D01*
X75165336Y-96394244D01*
X75148863Y-96326347D01*
X75171714Y-96260319D01*
X75173433Y-96257964D01*
X75191046Y-96234436D01*
X75246979Y-96192567D01*
X75316670Y-96187583D01*
X75377994Y-96221068D01*
X75389578Y-96234438D01*
X75432809Y-96292187D01*
X75432812Y-96292190D01*
X75547906Y-96378350D01*
X75547913Y-96378354D01*
X75682620Y-96428596D01*
X75682627Y-96428598D01*
X75742155Y-96434999D01*
X75742172Y-96435000D01*
X76837828Y-96435000D01*
X76837844Y-96434999D01*
X76897372Y-96428598D01*
X76897379Y-96428596D01*
X77032086Y-96378354D01*
X77032093Y-96378350D01*
X77147187Y-96292190D01*
X77147190Y-96292187D01*
X77233350Y-96177093D01*
X77233354Y-96177086D01*
X77283596Y-96042379D01*
X77283598Y-96042372D01*
X77289999Y-95982844D01*
X77290000Y-95982827D01*
X77290000Y-95288553D01*
X76024128Y-94022681D01*
X75990643Y-93961358D01*
X75992528Y-93935000D01*
X76643553Y-93935000D01*
X77289999Y-94581447D01*
X77290000Y-94581446D01*
X77290000Y-93288553D01*
X77289999Y-93288552D01*
X76643553Y-93934999D01*
X76643553Y-93935000D01*
X75992528Y-93935000D01*
X75995627Y-93891666D01*
X76024128Y-93847319D01*
X77289999Y-92581447D01*
X77290000Y-92581446D01*
X77290000Y-91887172D01*
X77289999Y-91887155D01*
X77283598Y-91827627D01*
X77283596Y-91827620D01*
X77233354Y-91692913D01*
X77233350Y-91692906D01*
X77199966Y-91648311D01*
X77175548Y-91582847D01*
X77190399Y-91514574D01*
X77239804Y-91465168D01*
X77299232Y-91450000D01*
X84840187Y-91450000D01*
X85048277Y-91450399D01*
X85048617Y-91450500D01*
X85097787Y-91450500D01*
X85102207Y-91450657D01*
X85169755Y-91455489D01*
X85316644Y-91467049D01*
X85324947Y-91468274D01*
X85419760Y-91488899D01*
X85536225Y-91516860D01*
X85543401Y-91519051D01*
X85639737Y-91554983D01*
X85707007Y-91582847D01*
X85745856Y-91598939D01*
X85751847Y-91601805D01*
X85842937Y-91651543D01*
X85845580Y-91653073D01*
X85940903Y-91711488D01*
X85945643Y-91714705D01*
X86029440Y-91777435D01*
X86032520Y-91779898D01*
X86116937Y-91851997D01*
X86120513Y-91855303D01*
X86194695Y-91929485D01*
X86198001Y-91933061D01*
X86270094Y-92017471D01*
X86272576Y-92020574D01*
X86335289Y-92104349D01*
X86338521Y-92109111D01*
X86396910Y-92204393D01*
X86398463Y-92207076D01*
X86448193Y-92298151D01*
X86451059Y-92304141D01*
X86495016Y-92410260D01*
X86530942Y-92506582D01*
X86533140Y-92513781D01*
X86561098Y-92630231D01*
X86581723Y-92725044D01*
X86582950Y-92733368D01*
X86594524Y-92880430D01*
X86599341Y-92947776D01*
X86599499Y-92952200D01*
X86599499Y-144447799D01*
X86599341Y-144452223D01*
X86594513Y-144519722D01*
X86582950Y-144666636D01*
X86581722Y-144674959D01*
X86561102Y-144769751D01*
X86533142Y-144886213D01*
X86530944Y-144893412D01*
X86495016Y-144989742D01*
X86451055Y-145095866D01*
X86448189Y-145101857D01*
X86398464Y-145192923D01*
X86396911Y-145195605D01*
X86338525Y-145290883D01*
X86335292Y-145295646D01*
X86272569Y-145379434D01*
X86270080Y-145382544D01*
X86198008Y-145466931D01*
X86194702Y-145470507D01*
X86120507Y-145544702D01*
X86116931Y-145548008D01*
X86032544Y-145620080D01*
X86029434Y-145622569D01*
X85945646Y-145685292D01*
X85940883Y-145688525D01*
X85845605Y-145746911D01*
X85842923Y-145748464D01*
X85751857Y-145798189D01*
X85745866Y-145801055D01*
X85639742Y-145845016D01*
X85543412Y-145880944D01*
X85536213Y-145883142D01*
X85419751Y-145911102D01*
X85324959Y-145931722D01*
X85316636Y-145932950D01*
X85169723Y-145944513D01*
X85102210Y-145949342D01*
X85097786Y-145949500D01*
X54852214Y-145949500D01*
X54847791Y-145949342D01*
X54819525Y-145947320D01*
X54780331Y-145944517D01*
X54633366Y-145932950D01*
X54625043Y-145931723D01*
X54530244Y-145911101D01*
X54413781Y-145883140D01*
X54406582Y-145880942D01*
X54310260Y-145845016D01*
X54204141Y-145801059D01*
X54198151Y-145798193D01*
X54107076Y-145748463D01*
X54104393Y-145746910D01*
X54009118Y-145688525D01*
X54009106Y-145688517D01*
X54004349Y-145685289D01*
X53920574Y-145622576D01*
X53917471Y-145620094D01*
X53833061Y-145548001D01*
X53829485Y-145544695D01*
X53755303Y-145470513D01*
X53751997Y-145466937D01*
X53699680Y-145405682D01*
X53679898Y-145382520D01*
X53677430Y-145379434D01*
X53614705Y-145295643D01*
X53611488Y-145290903D01*
X53553073Y-145195580D01*
X53551535Y-145192922D01*
X53501805Y-145101847D01*
X53498939Y-145095856D01*
X53487368Y-145067922D01*
X53454983Y-144989737D01*
X53419051Y-144893401D01*
X53416860Y-144886225D01*
X53388898Y-144769751D01*
X53368274Y-144674947D01*
X53367049Y-144666636D01*
X53356178Y-144528498D01*
X53355483Y-144519660D01*
X53350658Y-144452209D01*
X53350500Y-144447785D01*
X53350500Y-94917763D01*
X54995787Y-94917763D01*
X55025413Y-95187013D01*
X55025415Y-95187024D01*
X55093926Y-95449082D01*
X55093928Y-95449088D01*
X55199870Y-95698390D01*
X55271998Y-95816575D01*
X55340979Y-95929605D01*
X55340986Y-95929615D01*
X55514253Y-96137819D01*
X55514259Y-96137824D01*
X55619240Y-96231887D01*
X55715998Y-96318582D01*
X55941910Y-96468044D01*
X56187176Y-96583020D01*
X56187183Y-96583022D01*
X56187185Y-96583023D01*
X56446557Y-96661057D01*
X56446564Y-96661058D01*
X56446569Y-96661060D01*
X56714561Y-96700500D01*
X56714566Y-96700500D01*
X56917636Y-96700500D01*
X56969133Y-96696730D01*
X57120156Y-96685677D01*
X57232758Y-96660593D01*
X57384546Y-96626782D01*
X57384548Y-96626781D01*
X57384553Y-96626780D01*
X57637558Y-96530014D01*
X57873777Y-96397441D01*
X58088177Y-96231888D01*
X58276186Y-96036881D01*
X58433799Y-95816579D01*
X58507787Y-95672669D01*
X58557649Y-95575690D01*
X58557651Y-95575684D01*
X58557656Y-95575675D01*
X58645118Y-95319305D01*
X58694319Y-95052933D01*
X58704212Y-94782235D01*
X58674586Y-94512982D01*
X58606072Y-94250912D01*
X58500130Y-94001610D01*
X58359018Y-93770390D01*
X58269747Y-93663119D01*
X58185746Y-93562180D01*
X58185740Y-93562175D01*
X57984002Y-93381418D01*
X57758092Y-93231957D01*
X57758090Y-93231956D01*
X57512824Y-93116980D01*
X57512819Y-93116978D01*
X57512814Y-93116976D01*
X57253442Y-93038942D01*
X57253428Y-93038939D01*
X57137791Y-93021921D01*
X56985439Y-92999500D01*
X56782369Y-92999500D01*
X56782364Y-92999500D01*
X56579844Y-93014323D01*
X56579831Y-93014325D01*
X56315453Y-93073217D01*
X56315446Y-93073220D01*
X56062439Y-93169987D01*
X55826226Y-93302557D01*
X55611822Y-93468112D01*
X55423822Y-93663109D01*
X55423816Y-93663116D01*
X55266202Y-93883419D01*
X55266199Y-93883424D01*
X55142350Y-94124309D01*
X55142343Y-94124327D01*
X55054884Y-94380685D01*
X55054881Y-94380699D01*
X55005681Y-94647068D01*
X55005680Y-94647075D01*
X54995787Y-94917763D01*
X53350500Y-94917763D01*
X53350500Y-92952212D01*
X53350658Y-92947788D01*
X53350659Y-92947776D01*
X53355484Y-92880314D01*
X53367049Y-92733360D01*
X53368276Y-92725045D01*
X53368277Y-92725044D01*
X53388902Y-92630231D01*
X53400614Y-92581446D01*
X53416860Y-92513774D01*
X53419051Y-92506598D01*
X53454989Y-92410246D01*
X53498943Y-92304133D01*
X53501797Y-92298167D01*
X53551563Y-92207027D01*
X53553053Y-92204453D01*
X53611500Y-92109075D01*
X53614690Y-92104375D01*
X53677458Y-92020527D01*
X53679873Y-92017508D01*
X53752020Y-91933036D01*
X53755278Y-91929511D01*
X53829511Y-91855278D01*
X53833036Y-91852020D01*
X53917508Y-91779873D01*
X53920527Y-91777458D01*
X54004375Y-91714690D01*
X54009075Y-91711500D01*
X54104453Y-91653053D01*
X54107027Y-91651563D01*
X54198167Y-91601797D01*
X54204133Y-91598943D01*
X54310246Y-91554989D01*
X54406611Y-91519046D01*
X54413764Y-91516863D01*
X54530191Y-91488910D01*
X54625058Y-91468273D01*
X54633351Y-91467050D01*
X54780203Y-91455492D01*
X54847792Y-91450657D01*
X54852213Y-91450500D01*
X54901213Y-91450500D01*
X54901773Y-91450437D01*
X55264352Y-91450000D01*
X67280144Y-91450000D01*
X67347183Y-91469685D01*
G37*
%TD.AperFunction*%
%TA.AperFunction,Conductor*%
G36*
X65955039Y-141320185D02*
G01*
X66000794Y-141372989D01*
X66012000Y-141424500D01*
X66012000Y-142547870D01*
X66012001Y-142547876D01*
X66018408Y-142607483D01*
X66068702Y-142742328D01*
X66068706Y-142742335D01*
X66154952Y-142857544D01*
X66154955Y-142857547D01*
X66270164Y-142943793D01*
X66270171Y-142943797D01*
X66405017Y-142994091D01*
X66405016Y-142994091D01*
X66411944Y-142994835D01*
X66464627Y-143000500D01*
X67038136Y-143000499D01*
X67105173Y-143020183D01*
X67150928Y-143072987D01*
X67160872Y-143142146D01*
X67150516Y-143176903D01*
X67083399Y-143320835D01*
X67083394Y-143320849D01*
X67026789Y-143532105D01*
X67026787Y-143532115D01*
X67007725Y-143749999D01*
X67007725Y-143750000D01*
X67026787Y-143967884D01*
X67026789Y-143967894D01*
X67047023Y-144043407D01*
X67045360Y-144113256D01*
X67006197Y-144171119D01*
X66941969Y-144198623D01*
X66927248Y-144199500D01*
X62798271Y-144199500D01*
X62731232Y-144179815D01*
X62685477Y-144127011D01*
X62675533Y-144057853D01*
X62678496Y-144043407D01*
X62698706Y-143967979D01*
X62698707Y-143967977D01*
X62717777Y-143750000D01*
X62698707Y-143532023D01*
X62642075Y-143320670D01*
X62549602Y-143122362D01*
X62549600Y-143122359D01*
X62549599Y-143122357D01*
X62424099Y-142943124D01*
X62347388Y-142866413D01*
X62269377Y-142788402D01*
X62090139Y-142662898D01*
X62090140Y-142662898D01*
X62090138Y-142662897D01*
X61971301Y-142607483D01*
X61891830Y-142570425D01*
X61891826Y-142570424D01*
X61891822Y-142570422D01*
X61680482Y-142513794D01*
X61680473Y-142513792D01*
X61670144Y-142512889D01*
X61605076Y-142487435D01*
X61564098Y-142430843D01*
X61560222Y-142361081D01*
X61568569Y-142336962D01*
X61642075Y-142179330D01*
X61698707Y-141967977D01*
X61717777Y-141750000D01*
X61698707Y-141532023D01*
X61681523Y-141467891D01*
X61683186Y-141398043D01*
X61713621Y-141348114D01*
X61724921Y-141336815D01*
X61786245Y-141303333D01*
X61812598Y-141300500D01*
X65888000Y-141300500D01*
X65955039Y-141320185D01*
G37*
%TD.AperFunction*%
%TA.AperFunction,Conductor*%
G36*
X63143834Y-110357914D02*
G01*
X63199767Y-110399786D01*
X63224184Y-110465250D01*
X63224500Y-110474096D01*
X63224500Y-113001312D01*
X63204815Y-113068351D01*
X63192650Y-113084284D01*
X63117466Y-113167784D01*
X63022821Y-113331715D01*
X63022818Y-113331722D01*
X62973921Y-113482214D01*
X62964326Y-113511744D01*
X62948129Y-113665849D01*
X62944540Y-113700000D01*
X62945858Y-113712539D01*
X62933288Y-113781269D01*
X62885556Y-113832292D01*
X62822537Y-113849500D01*
X62426258Y-113849500D01*
X62359219Y-113829815D01*
X62334109Y-113808473D01*
X62305871Y-113777112D01*
X62305864Y-113777106D01*
X62152734Y-113665851D01*
X62152729Y-113665848D01*
X61979807Y-113588857D01*
X61979802Y-113588855D01*
X61834001Y-113557865D01*
X61794646Y-113549500D01*
X61605354Y-113549500D01*
X61572897Y-113556398D01*
X61420197Y-113588855D01*
X61420192Y-113588857D01*
X61247270Y-113665848D01*
X61247265Y-113665851D01*
X61094129Y-113777111D01*
X60967466Y-113917785D01*
X60872821Y-114081715D01*
X60872818Y-114081722D01*
X60814474Y-114261288D01*
X60814326Y-114261744D01*
X60794540Y-114450000D01*
X60814326Y-114638256D01*
X60814327Y-114638259D01*
X60872818Y-114818277D01*
X60872821Y-114818284D01*
X60967467Y-114982216D01*
X61094128Y-115122887D01*
X61094129Y-115122888D01*
X61247265Y-115234148D01*
X61247270Y-115234151D01*
X61420192Y-115311142D01*
X61420197Y-115311144D01*
X61605354Y-115350500D01*
X61605355Y-115350500D01*
X61794644Y-115350500D01*
X61794646Y-115350500D01*
X61979803Y-115311144D01*
X62152730Y-115234151D01*
X62305871Y-115122888D01*
X62334109Y-115091527D01*
X62393595Y-115054879D01*
X62426258Y-115050500D01*
X67056572Y-115050500D01*
X67064670Y-115051030D01*
X67100000Y-115055682D01*
X67100001Y-115055682D01*
X67152254Y-115048802D01*
X67256762Y-115035044D01*
X67402841Y-114974536D01*
X67528282Y-114878282D01*
X67549984Y-114849998D01*
X67555310Y-114843923D01*
X68512416Y-113886819D01*
X68573739Y-113853334D01*
X68600097Y-113850500D01*
X68694644Y-113850500D01*
X68694646Y-113850500D01*
X68879803Y-113811144D01*
X69052730Y-113734151D01*
X69205871Y-113622888D01*
X69332533Y-113482216D01*
X69405733Y-113355429D01*
X69418113Y-113333987D01*
X69468679Y-113285771D01*
X69537286Y-113272547D01*
X69602151Y-113298515D01*
X69642680Y-113355429D01*
X69649500Y-113395986D01*
X69649500Y-117190162D01*
X69629815Y-117257201D01*
X69577011Y-117302956D01*
X69507853Y-117312900D01*
X69475066Y-117303442D01*
X69442307Y-117288857D01*
X69442302Y-117288855D01*
X69293377Y-117257201D01*
X69257146Y-117249500D01*
X69067854Y-117249500D01*
X69035397Y-117256398D01*
X68882697Y-117288855D01*
X68882692Y-117288857D01*
X68709770Y-117365848D01*
X68709765Y-117365851D01*
X68556630Y-117477110D01*
X68556626Y-117477114D01*
X68550900Y-117483474D01*
X68491413Y-117520121D01*
X68458752Y-117524500D01*
X62145243Y-117524500D01*
X62129622Y-117522775D01*
X62129596Y-117523061D01*
X62121834Y-117522327D01*
X62121833Y-117522327D01*
X62052686Y-117524500D01*
X62023149Y-117524500D01*
X62016266Y-117525369D01*
X62010449Y-117525826D01*
X61963873Y-117527290D01*
X61944629Y-117532881D01*
X61925579Y-117536825D01*
X61905711Y-117539334D01*
X61862384Y-117556488D01*
X61856858Y-117558379D01*
X61812114Y-117571379D01*
X61812110Y-117571381D01*
X61794866Y-117581579D01*
X61777405Y-117590133D01*
X61758774Y-117597510D01*
X61758762Y-117597517D01*
X61721070Y-117624902D01*
X61716187Y-117628109D01*
X61676080Y-117651829D01*
X61661914Y-117665995D01*
X61647124Y-117678627D01*
X61630914Y-117690404D01*
X61630911Y-117690407D01*
X61601210Y-117726309D01*
X61597277Y-117730631D01*
X61314727Y-118013182D01*
X61253407Y-118046666D01*
X61227048Y-118049500D01*
X61167854Y-118049500D01*
X61135397Y-118056398D01*
X60982697Y-118088855D01*
X60982692Y-118088857D01*
X60809770Y-118165848D01*
X60809765Y-118165851D01*
X60656629Y-118277111D01*
X60529966Y-118417785D01*
X60435321Y-118581715D01*
X60435318Y-118581722D01*
X60376827Y-118761740D01*
X60376826Y-118761744D01*
X60357040Y-118950000D01*
X60376826Y-119138256D01*
X60376827Y-119138259D01*
X60435318Y-119318277D01*
X60435321Y-119318284D01*
X60529967Y-119482216D01*
X60656629Y-119622888D01*
X60809765Y-119734148D01*
X60809770Y-119734151D01*
X60982692Y-119811142D01*
X60982697Y-119811144D01*
X61167854Y-119850500D01*
X61167855Y-119850500D01*
X61357144Y-119850500D01*
X61357146Y-119850500D01*
X61542303Y-119811144D01*
X61715230Y-119734151D01*
X61868371Y-119622888D01*
X61995033Y-119482216D01*
X62089679Y-119318284D01*
X62148174Y-119138256D01*
X62165821Y-118970346D01*
X62192404Y-118905735D01*
X62201461Y-118895629D01*
X62285274Y-118811818D01*
X62346597Y-118778333D01*
X62372954Y-118775500D01*
X64457225Y-118775500D01*
X64524264Y-118795185D01*
X64570019Y-118847989D01*
X64579963Y-118917147D01*
X64550938Y-118980703D01*
X64549375Y-118982472D01*
X64517579Y-119017785D01*
X64422934Y-119181715D01*
X64422931Y-119181722D01*
X64378562Y-119318277D01*
X64364439Y-119361744D01*
X64351777Y-119482216D01*
X64344653Y-119550000D01*
X64364007Y-119734151D01*
X64364439Y-119738256D01*
X64385389Y-119802734D01*
X64391458Y-119841050D01*
X64391458Y-120908791D01*
X64371773Y-120975830D01*
X64318969Y-121021585D01*
X64249811Y-121031529D01*
X64217022Y-121022070D01*
X64079807Y-120960977D01*
X64079802Y-120960975D01*
X63934001Y-120929985D01*
X63894646Y-120921620D01*
X63894645Y-120921620D01*
X63835452Y-120921620D01*
X63768413Y-120901935D01*
X63747771Y-120885301D01*
X63278683Y-120416212D01*
X63268860Y-120403950D01*
X63268639Y-120404134D01*
X63263666Y-120398123D01*
X63244170Y-120379815D01*
X63213244Y-120350773D01*
X63200442Y-120337971D01*
X63192355Y-120329883D01*
X63186866Y-120325625D01*
X63182441Y-120321847D01*
X63148462Y-120289938D01*
X63148460Y-120289936D01*
X63148457Y-120289935D01*
X63130909Y-120280288D01*
X63114643Y-120269604D01*
X63098813Y-120257325D01*
X63056048Y-120238818D01*
X63050802Y-120236248D01*
X63009973Y-120213803D01*
X63009972Y-120213802D01*
X62990573Y-120208822D01*
X62972161Y-120202518D01*
X62953778Y-120194562D01*
X62953772Y-120194560D01*
X62907754Y-120187272D01*
X62902032Y-120186087D01*
X62856901Y-120174500D01*
X62856899Y-120174500D01*
X62836864Y-120174500D01*
X62817466Y-120172973D01*
X62810042Y-120171797D01*
X62797685Y-120169840D01*
X62797684Y-120169840D01*
X62751296Y-120174225D01*
X62745458Y-120174500D01*
X60560452Y-120174500D01*
X60493413Y-120154815D01*
X60472771Y-120138181D01*
X58787218Y-118452627D01*
X58753733Y-118391304D01*
X58758717Y-118321612D01*
X58779204Y-118287826D01*
X58778715Y-118287471D01*
X58782529Y-118282220D01*
X58782533Y-118282216D01*
X58877179Y-118118284D01*
X58935674Y-117938256D01*
X58955460Y-117750000D01*
X58935674Y-117561744D01*
X58877179Y-117381716D01*
X58782533Y-117217784D01*
X58655871Y-117077112D01*
X58655870Y-117077111D01*
X58502734Y-116965851D01*
X58502729Y-116965848D01*
X58329807Y-116888857D01*
X58329802Y-116888855D01*
X58184001Y-116857865D01*
X58144646Y-116849500D01*
X57955354Y-116849500D01*
X57922897Y-116856398D01*
X57770197Y-116888855D01*
X57770192Y-116888857D01*
X57597270Y-116965848D01*
X57597269Y-116965849D01*
X57579132Y-116979026D01*
X57513325Y-117002503D01*
X57445271Y-116986675D01*
X57433368Y-116979026D01*
X57415230Y-116965849D01*
X57415229Y-116965848D01*
X57242307Y-116888857D01*
X57242302Y-116888855D01*
X57096501Y-116857865D01*
X57057146Y-116849500D01*
X56987000Y-116849500D01*
X56919961Y-116829815D01*
X56874206Y-116777011D01*
X56863000Y-116725500D01*
X56863000Y-112087597D01*
X56882685Y-112020558D01*
X56899319Y-111999916D01*
X57012416Y-111886819D01*
X57073739Y-111853334D01*
X57100097Y-111850500D01*
X57194644Y-111850500D01*
X57194646Y-111850500D01*
X57379803Y-111811144D01*
X57552730Y-111734151D01*
X57705871Y-111622888D01*
X57734109Y-111591527D01*
X57793595Y-111554879D01*
X57826258Y-111550500D01*
X61556572Y-111550500D01*
X61564670Y-111551030D01*
X61600000Y-111555682D01*
X61600001Y-111555682D01*
X61652254Y-111548802D01*
X61756762Y-111535044D01*
X61902841Y-111474536D01*
X61914163Y-111465848D01*
X61922059Y-111459790D01*
X61986150Y-111410611D01*
X62028282Y-111378282D01*
X62049983Y-111349999D01*
X62055319Y-111343914D01*
X63012819Y-110386415D01*
X63074142Y-110352930D01*
X63143834Y-110357914D01*
G37*
%TD.AperFunction*%
%TA.AperFunction,Conductor*%
G36*
X68568834Y-106642964D02*
G01*
X68624767Y-106684836D01*
X68649184Y-106750300D01*
X68649500Y-106759146D01*
X68649500Y-108256571D01*
X68648969Y-108264673D01*
X68644318Y-108299999D01*
X68644318Y-108300000D01*
X68649500Y-108339360D01*
X68664955Y-108456760D01*
X68664956Y-108456762D01*
X68725464Y-108602841D01*
X68821718Y-108728282D01*
X68849995Y-108749980D01*
X68856085Y-108755320D01*
X70048420Y-109947655D01*
X70081905Y-110008978D01*
X70076921Y-110078670D01*
X70047720Y-110121600D01*
X70048477Y-110122282D01*
X69917466Y-110267785D01*
X69822821Y-110431715D01*
X69822818Y-110431722D01*
X69764327Y-110611740D01*
X69764326Y-110611744D01*
X69744540Y-110800000D01*
X69764326Y-110988256D01*
X69764327Y-110988259D01*
X69822818Y-111168277D01*
X69822821Y-111168284D01*
X69885406Y-111276684D01*
X69901879Y-111344584D01*
X69879026Y-111410611D01*
X69828457Y-111451962D01*
X69797270Y-111465848D01*
X69644129Y-111577111D01*
X69517466Y-111717785D01*
X69422821Y-111881715D01*
X69422818Y-111881722D01*
X69384415Y-111999916D01*
X69364326Y-112061744D01*
X69358293Y-112119144D01*
X69354504Y-112155193D01*
X69327919Y-112219807D01*
X69270621Y-112259791D01*
X69200802Y-112262451D01*
X69158298Y-112242548D01*
X69052734Y-112165851D01*
X69052729Y-112165848D01*
X68879807Y-112088857D01*
X68879802Y-112088855D01*
X68734001Y-112057865D01*
X68694646Y-112049500D01*
X68505354Y-112049500D01*
X68472897Y-112056398D01*
X68320197Y-112088855D01*
X68320192Y-112088857D01*
X68147270Y-112165848D01*
X68147265Y-112165851D01*
X67994129Y-112277111D01*
X67867466Y-112417785D01*
X67772821Y-112581715D01*
X67772818Y-112581722D01*
X67714327Y-112761740D01*
X67714326Y-112761744D01*
X67694540Y-112950000D01*
X67694540Y-112950002D01*
X67694540Y-112954862D01*
X67674855Y-113021901D01*
X67658221Y-113042543D01*
X66887584Y-113813181D01*
X66826261Y-113846666D01*
X66799903Y-113849500D01*
X64877463Y-113849500D01*
X64810424Y-113829815D01*
X64764669Y-113777011D01*
X64754142Y-113712539D01*
X64755460Y-113700000D01*
X64735674Y-113511744D01*
X64677179Y-113331716D01*
X64582533Y-113167784D01*
X64555946Y-113138256D01*
X64507350Y-113084284D01*
X64477120Y-113021292D01*
X64475500Y-113001312D01*
X64475500Y-110685146D01*
X64495185Y-110618107D01*
X64511814Y-110597470D01*
X68437819Y-106671464D01*
X68499142Y-106637980D01*
X68568834Y-106642964D01*
G37*
%TD.AperFunction*%
%TD*%
M02*
