M48
; DRILL file {KiCad 7.0.10-7.0.10~ubuntu22.04.1} date Sat 27 Jan 2024 06:18:38 AM EST
; FORMAT={-:-/ absolute / inch / decimal}
; #@! TF.CreationDate,2024-01-27T06:18:38-05:00
; #@! TF.GenerationSoftware,Kicad,Pcbnew,7.0.10-7.0.10~ubuntu22.04.1
; #@! TF.FileFunction,Plated,1,2,PTH
FMAT,2
INCH
; #@! TA.AperFunction,Plated,PTH,ViaDrill
T1C0.0157
; #@! TA.AperFunction,Plated,PTH,ComponentDrill
T2C0.0315
%
G90
G05
T1
X3.5433Y-3.7795
X3.5433Y-3.8583
X3.5433Y-3.937
X3.5433Y-4.0157
X3.5433Y-4.0945
X3.6024Y-3.7795
X3.6024Y-3.8583
X3.6024Y-4.0157
X3.6024Y-4.0945
X3.7402Y-3.5433
X3.7402Y-3.622
X3.7795Y-4.1732
X3.7795Y-4.2323
X3.7992Y-3.5433
X3.7992Y-3.622
X3.8583Y-3.5433
X3.8583Y-3.622
X3.8583Y-4.1732
X3.8583Y-4.2323
X3.937Y-3.5433
X3.937Y-4.1732
X4.0157Y-3.5433
X4.0157Y-3.622
X4.0157Y-4.1732
X4.0157Y-4.2323
X4.0748Y-3.5433
X4.0748Y-3.622
X4.0945Y-4.1732
X4.0945Y-4.2323
X4.1339Y-3.5433
X4.1339Y-3.622
X4.1732Y-3.7992
X4.1732Y-3.8583
X4.1732Y-3.937
X4.1732Y-4.0157
X4.1732Y-4.0748
X4.252Y-3.7992
X4.252Y-3.8583
X4.252Y-4.0157
X4.252Y-4.0748
T2
X3.6614Y-4.2126
X4.2126Y-3.6614
M30
