%TF.GenerationSoftware,KiCad,Pcbnew,7.0.7*%
%TF.CreationDate,2024-01-24T13:12:26-05:00*%
%TF.ProjectId,LED_board,4c45445f-626f-4617-9264-2e6b69636164,rev?*%
%TF.SameCoordinates,Original*%
%TF.FileFunction,Copper,L1,Top*%
%TF.FilePolarity,Positive*%
%FSLAX46Y46*%
G04 Gerber Fmt 4.6, Leading zero omitted, Abs format (unit mm)*
G04 Created by KiCad (PCBNEW 7.0.7) date 2024-01-24 13:12:26*
%MOMM*%
%LPD*%
G01*
G04 APERTURE LIST*
%TA.AperFunction,ComponentPad*%
%ADD10C,1.400000*%
%TD*%
%TA.AperFunction,SMDPad,CuDef*%
%ADD11R,0.560000X0.330000*%
%TD*%
%TA.AperFunction,SMDPad,CuDef*%
%ADD12R,1.410000X1.270000*%
%TD*%
%TA.AperFunction,SMDPad,CuDef*%
%ADD13R,0.330000X0.560000*%
%TD*%
%TA.AperFunction,SMDPad,CuDef*%
%ADD14R,1.270000X1.410000*%
%TD*%
%TA.AperFunction,ViaPad*%
%ADD15C,0.800000*%
%TD*%
G04 APERTURE END LIST*
D10*
%TO.P,J1,1,Pin_1*%
%TO.N,/Vin*%
X93000000Y-107000000D03*
%TD*%
D11*
%TO.P,D2,1*%
%TO.N,/GND*%
X100430000Y-92955000D03*
%TO.P,D2,2*%
%TO.N,Net-(D1-Pad1)*%
X99570000Y-92955000D03*
D12*
%TO.P,D2,3,EXP*%
%TO.N,unconnected-(D2-EXP-Pad3)*%
X100000000Y-91905000D03*
%TD*%
D13*
%TO.P,D4,1*%
%TO.N,/GND*%
X108955000Y-99570000D03*
%TO.P,D4,2*%
%TO.N,Net-(D3-Pad1)*%
X108955000Y-100430000D03*
D14*
%TO.P,D4,3,EXP*%
%TO.N,unconnected-(D4-EXP-Pad3)*%
X107905000Y-100000000D03*
%TD*%
D13*
%TO.P,D1,1*%
%TO.N,Net-(D1-Pad1)*%
X92955000Y-99570000D03*
%TO.P,D1,2*%
%TO.N,/Vin*%
X92955000Y-100430000D03*
D14*
%TO.P,D1,3,EXP*%
%TO.N,unconnected-(D1-EXP-Pad3)*%
X91905000Y-100000000D03*
%TD*%
D11*
%TO.P,D3,1*%
%TO.N,Net-(D3-Pad1)*%
X100430000Y-108955000D03*
%TO.P,D3,2*%
%TO.N,/Vin*%
X99570000Y-108955000D03*
D12*
%TO.P,D3,3,EXP*%
%TO.N,unconnected-(D3-EXP-Pad3)*%
X100000000Y-107905000D03*
%TD*%
D10*
%TO.P,J2,1,Pin_1*%
%TO.N,/GND*%
X107000000Y-93000000D03*
%TD*%
D15*
%TO.N,unconnected-(D1-EXP-Pad3)*%
X91500000Y-98000000D03*
X91500000Y-102000000D03*
X90000000Y-100000000D03*
X91500000Y-96000000D03*
X90000000Y-104000000D03*
X90000000Y-96000000D03*
X91500000Y-104000000D03*
X90000000Y-98000000D03*
X90000000Y-102000000D03*
%TO.N,unconnected-(D2-EXP-Pad3)*%
X96500000Y-90000000D03*
X95000000Y-90000000D03*
X102000000Y-90000000D03*
X96500000Y-92000000D03*
X105000000Y-92000000D03*
X103500000Y-92000000D03*
X105000000Y-90000000D03*
X103500000Y-90000000D03*
X98000000Y-90000000D03*
X95000000Y-92000000D03*
X98000000Y-92000000D03*
X102000000Y-92000000D03*
X100000000Y-90000000D03*
%TO.N,unconnected-(D3-EXP-Pad3)*%
X104000000Y-106000000D03*
X102000000Y-106000000D03*
X104000000Y-107500000D03*
X96000000Y-106000000D03*
X100000000Y-106000000D03*
X96000000Y-107500000D03*
X98000000Y-107500000D03*
X102000000Y-107500000D03*
X98000000Y-106000000D03*
%TO.N,unconnected-(D4-EXP-Pad3)*%
X106000000Y-98000000D03*
X106000000Y-102000000D03*
X108000000Y-96500000D03*
X108000000Y-103500000D03*
X106000000Y-100000000D03*
X108000000Y-98000000D03*
X106000000Y-96500000D03*
X108000000Y-102000000D03*
X106000000Y-103500000D03*
%TD*%
%TA.AperFunction,Conductor*%
%TO.N,unconnected-(D1-EXP-Pad3)*%
G36*
X92176569Y-90090978D02*
G01*
X92227463Y-90138849D01*
X92244500Y-90201578D01*
X92244500Y-92376002D01*
X92250338Y-92430312D01*
X92254183Y-92447985D01*
X92261545Y-92481824D01*
X92265212Y-92495191D01*
X92268779Y-92508193D01*
X92268783Y-92508203D01*
X92318105Y-92594818D01*
X92318111Y-92594827D01*
X92318112Y-92594828D01*
X92363867Y-92647632D01*
X92396641Y-92679257D01*
X92433476Y-92698525D01*
X92483755Y-92747041D01*
X92500000Y-92808400D01*
X92500000Y-98921000D01*
X92480315Y-98988039D01*
X92427511Y-99033794D01*
X92376000Y-99045000D01*
X92155000Y-99045000D01*
X92155000Y-100955000D01*
X92376000Y-100955000D01*
X92443039Y-100974685D01*
X92488794Y-101027489D01*
X92500000Y-101079000D01*
X92499999Y-106122083D01*
X92480314Y-106189122D01*
X92454664Y-106217936D01*
X92324642Y-106324642D01*
X92205864Y-106469374D01*
X92203750Y-106472538D01*
X92202215Y-106473820D01*
X92201999Y-106474084D01*
X92201949Y-106474042D01*
X92150136Y-106517340D01*
X92080810Y-106526044D01*
X92065717Y-106522619D01*
X92005207Y-106504852D01*
X92005191Y-106504848D01*
X91933214Y-106494500D01*
X91933213Y-106494500D01*
X89474643Y-106494500D01*
X89474636Y-106494500D01*
X89418110Y-106500832D01*
X89418103Y-106500833D01*
X89373636Y-106510923D01*
X89364590Y-106512976D01*
X89364587Y-106512976D01*
X89364582Y-106512978D01*
X89349841Y-106517235D01*
X89336123Y-106521197D01*
X89282270Y-106553150D01*
X89274204Y-106557936D01*
X89206504Y-106575215D01*
X89140210Y-106553150D01*
X89104130Y-106514298D01*
X88921288Y-106204335D01*
X88852417Y-106079725D01*
X88590832Y-105573378D01*
X88529057Y-105445098D01*
X88440631Y-105247488D01*
X88296277Y-104924887D01*
X88241787Y-104793335D01*
X88038545Y-104260898D01*
X87991524Y-104126516D01*
X87818464Y-103583549D01*
X87779035Y-103446687D01*
X87636694Y-102894876D01*
X87605011Y-102756065D01*
X87493824Y-102197090D01*
X87469975Y-102056725D01*
X87390307Y-101492409D01*
X87374365Y-101350925D01*
X87326463Y-100783014D01*
X87318481Y-100640890D01*
X87307514Y-100250000D01*
X91020000Y-100250000D01*
X91020000Y-100729628D01*
X91034503Y-100802540D01*
X91034505Y-100802544D01*
X91089760Y-100885239D01*
X91172455Y-100940494D01*
X91172459Y-100940496D01*
X91245371Y-100954999D01*
X91245374Y-100955000D01*
X91654999Y-100955000D01*
X91655000Y-100250000D01*
X91020000Y-100250000D01*
X87307514Y-100250000D01*
X87302498Y-100071210D01*
X87302498Y-99928789D01*
X87307514Y-99750000D01*
X91020000Y-99750000D01*
X91654999Y-99750000D01*
X91655000Y-99045000D01*
X91245373Y-99045000D01*
X91172459Y-99059503D01*
X91172455Y-99059505D01*
X91089760Y-99114760D01*
X91034505Y-99197455D01*
X91034503Y-99197459D01*
X91020000Y-99270371D01*
X91020000Y-99750000D01*
X87307514Y-99750000D01*
X87318481Y-99359132D01*
X87323466Y-99270371D01*
X87326462Y-99216993D01*
X87374368Y-98649047D01*
X87390305Y-98507602D01*
X87469976Y-97943263D01*
X87493821Y-97802922D01*
X87605008Y-97243947D01*
X87636686Y-97105152D01*
X87779036Y-96553305D01*
X87818465Y-96416447D01*
X87991532Y-95873455D01*
X88038539Y-95739118D01*
X88241797Y-95206639D01*
X88296266Y-95075136D01*
X88529057Y-94554901D01*
X88543772Y-94524343D01*
X88590823Y-94426639D01*
X88852429Y-93920252D01*
X88921268Y-93795697D01*
X89210854Y-93304778D01*
X89286590Y-93184247D01*
X89603231Y-92710359D01*
X89685593Y-92594281D01*
X90028305Y-92138896D01*
X90117096Y-92027558D01*
X90205841Y-91922462D01*
X90484764Y-91592151D01*
X90579646Y-91485977D01*
X90971167Y-91071851D01*
X91071851Y-90971167D01*
X91485977Y-90579646D01*
X91592151Y-90484764D01*
X92027585Y-90117071D01*
X92043189Y-90104630D01*
X92107874Y-90078223D01*
X92176569Y-90090978D01*
G37*
%TD.AperFunction*%
%TD*%
%TA.AperFunction,Conductor*%
%TO.N,unconnected-(D3-EXP-Pad3)*%
G36*
X104759851Y-105020185D02*
G01*
X104800566Y-105063140D01*
X104818607Y-105094822D01*
X104818610Y-105094827D01*
X104818611Y-105094828D01*
X104864366Y-105147632D01*
X104897140Y-105179257D01*
X104985475Y-105225465D01*
X104985476Y-105225465D01*
X104985476Y-105225466D01*
X105035604Y-105240184D01*
X105052514Y-105245150D01*
X105052518Y-105245150D01*
X105052520Y-105245151D01*
X105064151Y-105246823D01*
X105124499Y-105255500D01*
X105124500Y-105255500D01*
X108376000Y-105255500D01*
X108443039Y-105275185D01*
X108488794Y-105327989D01*
X108500000Y-105379500D01*
X108500000Y-108376000D01*
X108480315Y-108443039D01*
X108427511Y-108488794D01*
X108376000Y-108500000D01*
X101079000Y-108500000D01*
X101011961Y-108480315D01*
X100966206Y-108427511D01*
X100955000Y-108376000D01*
X100955000Y-108155000D01*
X99045000Y-108155000D01*
X99045000Y-108376000D01*
X99025315Y-108443039D01*
X98972511Y-108488794D01*
X98921000Y-108500000D01*
X95124000Y-108500000D01*
X95056961Y-108480315D01*
X95011206Y-108427511D01*
X95000000Y-108376000D01*
X95000000Y-107655000D01*
X99045000Y-107655000D01*
X99750000Y-107655000D01*
X99750000Y-107020000D01*
X100250000Y-107020000D01*
X100250000Y-107655000D01*
X100955000Y-107655000D01*
X100955000Y-107245373D01*
X100954999Y-107245371D01*
X100940496Y-107172459D01*
X100940494Y-107172455D01*
X100885239Y-107089760D01*
X100802544Y-107034505D01*
X100802540Y-107034503D01*
X100729627Y-107020000D01*
X100250000Y-107020000D01*
X99750000Y-107020000D01*
X99270373Y-107020000D01*
X99197459Y-107034503D01*
X99197455Y-107034505D01*
X99114760Y-107089760D01*
X99059505Y-107172455D01*
X99059503Y-107172459D01*
X99045000Y-107245371D01*
X99045000Y-107655000D01*
X95000000Y-107655000D01*
X95000000Y-105124500D01*
X95019685Y-105057461D01*
X95072489Y-105011706D01*
X95124000Y-105000500D01*
X104692812Y-105000500D01*
X104759851Y-105020185D01*
G37*
%TD.AperFunction*%
%TD*%
%TA.AperFunction,Conductor*%
%TO.N,unconnected-(D2-EXP-Pad3)*%
G36*
X100640890Y-87318481D02*
G01*
X100783014Y-87326463D01*
X101350925Y-87374365D01*
X101492386Y-87390303D01*
X102056725Y-87469975D01*
X102197090Y-87493824D01*
X102756065Y-87605011D01*
X102894849Y-87636687D01*
X103409401Y-87769417D01*
X103446687Y-87779035D01*
X103583549Y-87818464D01*
X104126516Y-87991524D01*
X104260898Y-88038545D01*
X104793347Y-88241792D01*
X104924887Y-88296277D01*
X105247488Y-88440631D01*
X105445098Y-88529057D01*
X105573378Y-88590832D01*
X106079725Y-88852417D01*
X106204330Y-88921285D01*
X106695208Y-89210846D01*
X106772793Y-89259596D01*
X106819083Y-89311930D01*
X106829731Y-89380983D01*
X106816695Y-89422064D01*
X106774536Y-89502659D01*
X106774533Y-89502664D01*
X106754851Y-89569696D01*
X106754848Y-89569708D01*
X106744500Y-89641685D01*
X106744500Y-91933017D01*
X106747975Y-91975014D01*
X106748047Y-91975594D01*
X106736791Y-92044551D01*
X106690042Y-92096476D01*
X106660995Y-92109565D01*
X106634498Y-92117603D01*
X106469376Y-92205862D01*
X106469373Y-92205864D01*
X106324642Y-92324642D01*
X106217936Y-92454665D01*
X106160190Y-92493999D01*
X106122083Y-92500000D01*
X101079000Y-92500000D01*
X101011961Y-92480315D01*
X100966206Y-92427511D01*
X100955000Y-92376000D01*
X100955000Y-92155000D01*
X99045000Y-92155000D01*
X99045000Y-92376000D01*
X99025315Y-92443039D01*
X98972511Y-92488794D01*
X98921000Y-92500000D01*
X92624000Y-92500000D01*
X92556961Y-92480315D01*
X92511206Y-92427511D01*
X92500000Y-92376000D01*
X92500000Y-91655000D01*
X99045000Y-91655000D01*
X99750000Y-91655000D01*
X99750000Y-91020000D01*
X100250000Y-91020000D01*
X100250000Y-91655000D01*
X100955000Y-91655000D01*
X100955000Y-91245373D01*
X100954999Y-91245371D01*
X100940496Y-91172459D01*
X100940494Y-91172455D01*
X100885239Y-91089760D01*
X100802544Y-91034505D01*
X100802540Y-91034503D01*
X100729627Y-91020000D01*
X100250000Y-91020000D01*
X99750000Y-91020000D01*
X99270373Y-91020000D01*
X99197459Y-91034503D01*
X99197455Y-91034505D01*
X99114760Y-91089760D01*
X99059505Y-91172455D01*
X99059503Y-91172459D01*
X99045000Y-91245371D01*
X99045000Y-91655000D01*
X92500000Y-91655000D01*
X92500000Y-89818419D01*
X92519685Y-89751380D01*
X92549432Y-89719345D01*
X92594271Y-89685600D01*
X92710359Y-89603232D01*
X93184243Y-89286592D01*
X93304778Y-89210854D01*
X93795697Y-88921268D01*
X93920252Y-88852429D01*
X94426639Y-88590823D01*
X94554901Y-88529057D01*
X94592852Y-88512074D01*
X95075136Y-88296266D01*
X95206639Y-88241797D01*
X95739118Y-88038539D01*
X95873455Y-87991532D01*
X96416484Y-87818453D01*
X96553296Y-87779039D01*
X97105152Y-87636686D01*
X97243947Y-87605008D01*
X97802922Y-87493821D01*
X97943263Y-87469976D01*
X98507602Y-87390305D01*
X98649047Y-87374368D01*
X99216993Y-87326462D01*
X99359109Y-87318481D01*
X99928790Y-87302498D01*
X100071210Y-87302498D01*
X100640890Y-87318481D01*
G37*
%TD.AperFunction*%
%TD*%
%TA.AperFunction,Conductor*%
%TO.N,/GND*%
G36*
X101079000Y-92755500D02*
G01*
X101079002Y-92755500D01*
X105932671Y-92755500D01*
X105999710Y-92775185D01*
X106045465Y-92827989D01*
X106056074Y-92891654D01*
X106045403Y-93000000D01*
X106063744Y-93186230D01*
X106118069Y-93365313D01*
X106174868Y-93471577D01*
X106462580Y-93183865D01*
X106523903Y-93150380D01*
X106593594Y-93155364D01*
X106649528Y-93197235D01*
X106660742Y-93215246D01*
X106664371Y-93222368D01*
X106672358Y-93238044D01*
X106672363Y-93238050D01*
X106761949Y-93327636D01*
X106761951Y-93327637D01*
X106761955Y-93327641D01*
X106784747Y-93339254D01*
X106835542Y-93387228D01*
X106852337Y-93455049D01*
X106829799Y-93521184D01*
X106816132Y-93537419D01*
X106528421Y-93825129D01*
X106634688Y-93881931D01*
X106813769Y-93936255D01*
X107000000Y-93954596D01*
X107000000Y-94000000D01*
X111188770Y-94000000D01*
X111409164Y-94426616D01*
X111470942Y-94554901D01*
X111703720Y-95075106D01*
X111758206Y-95206648D01*
X111961446Y-95739080D01*
X112008475Y-95873481D01*
X112181534Y-96416447D01*
X112220964Y-96553312D01*
X112363305Y-97105123D01*
X112394993Y-97243955D01*
X112506173Y-97802895D01*
X112530025Y-97943280D01*
X112609691Y-98507583D01*
X112625634Y-98649078D01*
X112673534Y-99216958D01*
X112681518Y-99359128D01*
X112688754Y-99617022D01*
X112670958Y-99684587D01*
X112619458Y-99731805D01*
X112564803Y-99744500D01*
X109493997Y-99744500D01*
X109449599Y-99749273D01*
X109380839Y-99736866D01*
X109378251Y-99735000D01*
X108914500Y-99735000D01*
X108847461Y-99715315D01*
X108801706Y-99662511D01*
X108790500Y-99611000D01*
X108790500Y-99270323D01*
X108790299Y-99268282D01*
X108790000Y-99262202D01*
X108790000Y-99040000D01*
X109120000Y-99040000D01*
X109120000Y-99405000D01*
X109370000Y-99405000D01*
X109370000Y-99265373D01*
X109369999Y-99265371D01*
X109355496Y-99192459D01*
X109355494Y-99192455D01*
X109300239Y-99109760D01*
X109217544Y-99054505D01*
X109217540Y-99054503D01*
X109144627Y-99040000D01*
X109120000Y-99040000D01*
X108790000Y-99040000D01*
X108788768Y-99038768D01*
X108755283Y-98977445D01*
X108753711Y-98933441D01*
X108755500Y-98921000D01*
X108755500Y-95124000D01*
X108749661Y-95069687D01*
X108738455Y-95018176D01*
X108731219Y-94991802D01*
X108726352Y-94983255D01*
X108681894Y-94905181D01*
X108681888Y-94905172D01*
X108636136Y-94852371D01*
X108603359Y-94820743D01*
X108515022Y-94774534D01*
X108515022Y-94774533D01*
X108447990Y-94754851D01*
X108447978Y-94754848D01*
X108376001Y-94744500D01*
X108376000Y-94744500D01*
X105124499Y-94744500D01*
X105124496Y-94744500D01*
X105070186Y-94750338D01*
X105018682Y-94761543D01*
X105018681Y-94761543D01*
X105018675Y-94761545D01*
X105007676Y-94764562D01*
X104992305Y-94768779D01*
X104992295Y-94768783D01*
X104905680Y-94818105D01*
X104905671Y-94818111D01*
X104852870Y-94863864D01*
X104821241Y-94896641D01*
X104802234Y-94932977D01*
X104753718Y-94983255D01*
X104692360Y-94999500D01*
X100379500Y-94999500D01*
X100312461Y-94979815D01*
X100266706Y-94927011D01*
X100255500Y-94875500D01*
X100255500Y-94426616D01*
X100255500Y-93494000D01*
X100255499Y-93493990D01*
X100255499Y-93493983D01*
X100250727Y-93449601D01*
X100263131Y-93380842D01*
X100265000Y-93378250D01*
X100265000Y-93120000D01*
X100595000Y-93120000D01*
X100595000Y-93370000D01*
X100734626Y-93370000D01*
X100734628Y-93369999D01*
X100807540Y-93355496D01*
X100807544Y-93355494D01*
X100890239Y-93300239D01*
X100945494Y-93217544D01*
X100945496Y-93217540D01*
X100959999Y-93144628D01*
X100960000Y-93144626D01*
X100960000Y-93120000D01*
X100595000Y-93120000D01*
X100265000Y-93120000D01*
X100265000Y-92914500D01*
X100284685Y-92847461D01*
X100337489Y-92801706D01*
X100389000Y-92790500D01*
X100729676Y-92790500D01*
X100731718Y-92790299D01*
X100737798Y-92790000D01*
X100959999Y-92790000D01*
X100961230Y-92788769D01*
X101022552Y-92755283D01*
X101066557Y-92753711D01*
X101079000Y-92755500D01*
G37*
%TD.AperFunction*%
%TD*%
%TA.AperFunction,Conductor*%
%TO.N,unconnected-(D4-EXP-Pad3)*%
G36*
X108443039Y-95019685D02*
G01*
X108488794Y-95072489D01*
X108500000Y-95124000D01*
X108500000Y-98921000D01*
X108480315Y-98988039D01*
X108427511Y-99033794D01*
X108376000Y-99045000D01*
X108155000Y-99045000D01*
X108155000Y-100955000D01*
X108376000Y-100955000D01*
X108443039Y-100974685D01*
X108488794Y-101027489D01*
X108500000Y-101079000D01*
X108500000Y-104876000D01*
X108480315Y-104943039D01*
X108427511Y-104988794D01*
X108376000Y-105000000D01*
X105124499Y-105000000D01*
X105057460Y-104980315D01*
X105011705Y-104927511D01*
X105000499Y-104876000D01*
X105000499Y-100250000D01*
X107020000Y-100250000D01*
X107020000Y-100729628D01*
X107034503Y-100802540D01*
X107034505Y-100802544D01*
X107089760Y-100885239D01*
X107172455Y-100940494D01*
X107172459Y-100940496D01*
X107245371Y-100954999D01*
X107245374Y-100955000D01*
X107654999Y-100955000D01*
X107655000Y-100250000D01*
X107020000Y-100250000D01*
X105000499Y-100250000D01*
X105000499Y-99750000D01*
X107020000Y-99750000D01*
X107654999Y-99750000D01*
X107655000Y-99045000D01*
X107245373Y-99045000D01*
X107172459Y-99059503D01*
X107172455Y-99059505D01*
X107089760Y-99114760D01*
X107034505Y-99197455D01*
X107034503Y-99197459D01*
X107020000Y-99270371D01*
X107020000Y-99750000D01*
X105000499Y-99750000D01*
X105000499Y-95124000D01*
X105020184Y-95056961D01*
X105072988Y-95011206D01*
X105124499Y-95000000D01*
X108376000Y-95000000D01*
X108443039Y-95019685D01*
G37*
%TD.AperFunction*%
%TD*%
%TA.AperFunction,Conductor*%
%TO.N,/Vin*%
G36*
X92000252Y-106769685D02*
G01*
X92046007Y-106822489D01*
X92056616Y-106886154D01*
X92045403Y-107000000D01*
X92063744Y-107186230D01*
X92118069Y-107365313D01*
X92174868Y-107471577D01*
X92462580Y-107183865D01*
X92523903Y-107150380D01*
X92593594Y-107155364D01*
X92649528Y-107197235D01*
X92660742Y-107215246D01*
X92667296Y-107228109D01*
X92672358Y-107238044D01*
X92672363Y-107238050D01*
X92761949Y-107327636D01*
X92761951Y-107327637D01*
X92761955Y-107327641D01*
X92784747Y-107339254D01*
X92835542Y-107387228D01*
X92852337Y-107455049D01*
X92829799Y-107521184D01*
X92816132Y-107537419D01*
X92528421Y-107825129D01*
X92634688Y-107881931D01*
X92813769Y-107936255D01*
X93000000Y-107954596D01*
X93186230Y-107936255D01*
X93365311Y-107881931D01*
X93471577Y-107825130D01*
X93183866Y-107537419D01*
X93150381Y-107476096D01*
X93155365Y-107406404D01*
X93197237Y-107350471D01*
X93215245Y-107339258D01*
X93238045Y-107327641D01*
X93327641Y-107238045D01*
X93339254Y-107215252D01*
X93387225Y-107164458D01*
X93455046Y-107147661D01*
X93521181Y-107170197D01*
X93537419Y-107183866D01*
X93825130Y-107471577D01*
X93881931Y-107365311D01*
X93936255Y-107186230D01*
X93954596Y-107000000D01*
X93936254Y-106813764D01*
X93916911Y-106750000D01*
X94250000Y-106750000D01*
X94250000Y-111317922D01*
X93920300Y-111147595D01*
X93857978Y-111113151D01*
X93795665Y-111078712D01*
X93304809Y-110789163D01*
X93270566Y-110767647D01*
X93184238Y-110713403D01*
X92710383Y-110396784D01*
X92594257Y-110314388D01*
X92138911Y-109971706D01*
X92027558Y-109882903D01*
X91592161Y-109515244D01*
X91485966Y-109420343D01*
X91071869Y-109028849D01*
X90971150Y-108928130D01*
X90579656Y-108514033D01*
X90484755Y-108407838D01*
X90117096Y-107972441D01*
X90044915Y-107881931D01*
X90028301Y-107861098D01*
X89685609Y-107405739D01*
X89646394Y-107350471D01*
X89603225Y-107289631D01*
X89371540Y-106942890D01*
X89350663Y-106876213D01*
X89369148Y-106808833D01*
X89421126Y-106762143D01*
X89474643Y-106750000D01*
X91933213Y-106750000D01*
X92000252Y-106769685D01*
G37*
%TD.AperFunction*%
%TD*%
%TA.AperFunction,Conductor*%
%TO.N,Net-(D1-Pad1)*%
G36*
X99007066Y-92766042D02*
G01*
X99039247Y-92789247D01*
X99040000Y-92790000D01*
X99262202Y-92790000D01*
X99268282Y-92790299D01*
X99270324Y-92790500D01*
X99270326Y-92790500D01*
X99611000Y-92790500D01*
X99678039Y-92810185D01*
X99723794Y-92862989D01*
X99735000Y-92914500D01*
X99735000Y-93370000D01*
X99876000Y-93370000D01*
X99943039Y-93389685D01*
X99988794Y-93442489D01*
X100000000Y-93494000D01*
X100000000Y-94875500D01*
X99980315Y-94942539D01*
X99927511Y-94988294D01*
X99876000Y-94999500D01*
X95024760Y-94999500D01*
X95024554Y-94999459D01*
X95000000Y-94999459D01*
X94999901Y-94999500D01*
X94999617Y-94999616D01*
X94999615Y-94999618D01*
X94999459Y-94999999D01*
X94999476Y-95024616D01*
X94999471Y-95024616D01*
X94999500Y-95024759D01*
X94999500Y-99876000D01*
X94979815Y-99943039D01*
X94927011Y-99988794D01*
X94875500Y-100000000D01*
X93494000Y-100000000D01*
X93426961Y-99980315D01*
X93381206Y-99927511D01*
X93370000Y-99876000D01*
X93370000Y-99735000D01*
X92914500Y-99735000D01*
X92847461Y-99715315D01*
X92801706Y-99662511D01*
X92790500Y-99611000D01*
X92790500Y-99270323D01*
X92790299Y-99268282D01*
X92790000Y-99262202D01*
X92790000Y-99040000D01*
X93120000Y-99040000D01*
X93120000Y-99405000D01*
X93370000Y-99405000D01*
X93370000Y-99265373D01*
X93369999Y-99265371D01*
X93355496Y-99192459D01*
X93355494Y-99192455D01*
X93300239Y-99109760D01*
X93217544Y-99054505D01*
X93217540Y-99054503D01*
X93144627Y-99040000D01*
X93120000Y-99040000D01*
X92790000Y-99040000D01*
X92788768Y-99038768D01*
X92755283Y-98977445D01*
X92753711Y-98933441D01*
X92755500Y-98921000D01*
X92755499Y-93120000D01*
X99040000Y-93120000D01*
X99040000Y-93144628D01*
X99054503Y-93217540D01*
X99054505Y-93217544D01*
X99109760Y-93300239D01*
X99192455Y-93355494D01*
X99192459Y-93355496D01*
X99265371Y-93369999D01*
X99265374Y-93370000D01*
X99404999Y-93370000D01*
X99405000Y-93120000D01*
X99040000Y-93120000D01*
X92755499Y-93120000D01*
X92755499Y-92879499D01*
X92775185Y-92812461D01*
X92827989Y-92766706D01*
X92879500Y-92755500D01*
X98921000Y-92755500D01*
X98938307Y-92753639D01*
X99007066Y-92766042D01*
G37*
%TD.AperFunction*%
%TD*%
%TA.AperFunction,Conductor*%
%TO.N,/GND*%
G36*
X107192888Y-89538583D02*
G01*
X107289631Y-89603225D01*
X107343837Y-89641687D01*
X107405739Y-89685609D01*
X107861098Y-90028301D01*
X107898054Y-90057773D01*
X107972441Y-90117096D01*
X108407838Y-90484755D01*
X108514033Y-90579656D01*
X108928130Y-90971150D01*
X109028849Y-91071869D01*
X109420343Y-91485966D01*
X109515244Y-91592161D01*
X109882903Y-92027558D01*
X109971706Y-92138911D01*
X110314388Y-92594257D01*
X110396784Y-92710383D01*
X110713403Y-93184238D01*
X110789154Y-93304794D01*
X110890203Y-93476096D01*
X111078712Y-93795665D01*
X111147598Y-93920306D01*
X111188769Y-94000000D01*
X107000000Y-94000000D01*
X107000000Y-93954596D01*
X107186230Y-93936255D01*
X107365311Y-93881931D01*
X107471577Y-93825130D01*
X107183866Y-93537419D01*
X107150381Y-93476096D01*
X107155365Y-93406404D01*
X107197237Y-93350471D01*
X107215245Y-93339258D01*
X107238045Y-93327641D01*
X107327641Y-93238045D01*
X107339254Y-93215252D01*
X107387225Y-93164458D01*
X107455046Y-93147661D01*
X107521181Y-93170197D01*
X107537419Y-93183866D01*
X107825130Y-93471577D01*
X107881931Y-93365311D01*
X107936255Y-93186230D01*
X107954596Y-93000000D01*
X107936255Y-92813769D01*
X107881931Y-92634688D01*
X107825129Y-92528421D01*
X107537419Y-92816132D01*
X107476096Y-92849617D01*
X107406404Y-92844633D01*
X107350471Y-92802761D01*
X107339256Y-92784751D01*
X107327641Y-92761955D01*
X107327637Y-92761951D01*
X107327636Y-92761949D01*
X107238050Y-92672363D01*
X107238044Y-92672358D01*
X107228109Y-92667296D01*
X107215250Y-92660744D01*
X107164456Y-92612773D01*
X107147660Y-92544952D01*
X107170197Y-92478817D01*
X107183865Y-92462580D01*
X107471577Y-92174868D01*
X107365313Y-92118069D01*
X107186230Y-92063744D01*
X107111845Y-92056418D01*
X107047058Y-92030257D01*
X107006700Y-91973222D01*
X107000000Y-91933015D01*
X107000000Y-89641687D01*
X107019685Y-89574648D01*
X107072489Y-89528893D01*
X107141647Y-89518949D01*
X107192888Y-89538583D01*
G37*
%TD.AperFunction*%
%TD*%
%TA.AperFunction,Conductor*%
%TO.N,Net-(D3-Pad1)*%
G36*
X112639011Y-100019685D02*
G01*
X112684766Y-100072489D01*
X112695923Y-100127478D01*
X112681518Y-100640867D01*
X112673534Y-100783041D01*
X112625634Y-101350921D01*
X112609691Y-101492416D01*
X112530025Y-102056719D01*
X112506173Y-102197104D01*
X112394993Y-102756044D01*
X112363305Y-102894876D01*
X112220964Y-103446687D01*
X112181534Y-103583552D01*
X112008475Y-104126518D01*
X111961446Y-104260919D01*
X111758206Y-104793351D01*
X111703720Y-104924893D01*
X111470942Y-105445098D01*
X111409164Y-105573383D01*
X111147591Y-106079708D01*
X111078712Y-106204334D01*
X110789159Y-106695198D01*
X110713403Y-106815761D01*
X110396784Y-107289616D01*
X110314388Y-107405742D01*
X109971706Y-107861088D01*
X109882903Y-107972441D01*
X109515244Y-108407838D01*
X109420343Y-108514033D01*
X109028849Y-108928130D01*
X108928130Y-109028849D01*
X108514033Y-109420343D01*
X108407838Y-109515244D01*
X107972441Y-109882903D01*
X107861088Y-109971706D01*
X107405742Y-110314388D01*
X107289616Y-110396784D01*
X106815761Y-110713403D01*
X106695198Y-110789159D01*
X106204334Y-111078712D01*
X106079708Y-111147591D01*
X105573383Y-111409164D01*
X105445098Y-111470942D01*
X104924893Y-111703720D01*
X104793351Y-111758206D01*
X104260919Y-111961446D01*
X104126518Y-112008475D01*
X103583552Y-112181534D01*
X103446687Y-112220964D01*
X102894876Y-112363305D01*
X102756044Y-112394993D01*
X102197104Y-112506173D01*
X102056719Y-112530025D01*
X101492416Y-112609691D01*
X101350921Y-112625634D01*
X100783041Y-112673534D01*
X100640871Y-112681518D01*
X100382977Y-112688753D01*
X100315412Y-112670956D01*
X100268194Y-112619456D01*
X100255500Y-112564802D01*
X100255500Y-109494000D01*
X100255499Y-109493983D01*
X100250727Y-109449601D01*
X100263131Y-109380842D01*
X100265000Y-109378250D01*
X100265000Y-109120000D01*
X100595000Y-109120000D01*
X100595000Y-109370000D01*
X100734626Y-109370000D01*
X100734628Y-109369999D01*
X100807540Y-109355496D01*
X100807544Y-109355494D01*
X100890239Y-109300239D01*
X100945494Y-109217544D01*
X100945496Y-109217540D01*
X100959999Y-109144628D01*
X100960000Y-109144626D01*
X100960000Y-109120000D01*
X100595000Y-109120000D01*
X100265000Y-109120000D01*
X100265000Y-108914500D01*
X100284685Y-108847461D01*
X100337489Y-108801706D01*
X100389000Y-108790500D01*
X100729676Y-108790500D01*
X100731718Y-108790299D01*
X100737798Y-108790000D01*
X100959999Y-108790000D01*
X100961230Y-108788769D01*
X101022552Y-108755283D01*
X101066557Y-108753711D01*
X101079000Y-108755500D01*
X101079002Y-108755500D01*
X108376000Y-108755500D01*
X108430313Y-108749661D01*
X108451049Y-108745150D01*
X108481817Y-108738457D01*
X108481817Y-108738456D01*
X108481824Y-108738455D01*
X108508198Y-108731219D01*
X108557529Y-108703128D01*
X108594818Y-108681894D01*
X108594821Y-108681891D01*
X108594828Y-108681888D01*
X108647632Y-108636133D01*
X108679257Y-108603359D01*
X108725465Y-108515024D01*
X108745150Y-108447985D01*
X108755500Y-108376000D01*
X108755500Y-105379500D01*
X108749661Y-105325187D01*
X108738455Y-105273676D01*
X108731219Y-105247302D01*
X108731216Y-105247296D01*
X108698396Y-105189660D01*
X108682328Y-105121663D01*
X108696273Y-105070828D01*
X108725465Y-105015024D01*
X108745150Y-104947985D01*
X108755500Y-104876000D01*
X108755500Y-101079000D01*
X108753639Y-101061691D01*
X108766042Y-100992933D01*
X108789248Y-100960751D01*
X108790000Y-100959999D01*
X108790000Y-100737795D01*
X108790299Y-100731712D01*
X108790500Y-100729673D01*
X108790500Y-100595000D01*
X109120000Y-100595000D01*
X109120000Y-100960000D01*
X109144626Y-100960000D01*
X109144628Y-100959999D01*
X109217540Y-100945496D01*
X109217544Y-100945494D01*
X109300239Y-100890239D01*
X109355494Y-100807544D01*
X109355496Y-100807540D01*
X109369999Y-100734628D01*
X109370000Y-100734626D01*
X109370000Y-100595000D01*
X109120000Y-100595000D01*
X108790500Y-100595000D01*
X108790500Y-100389000D01*
X108810185Y-100321961D01*
X108862989Y-100276206D01*
X108914500Y-100265000D01*
X109370000Y-100265000D01*
X109370000Y-100124000D01*
X109389685Y-100056961D01*
X109442489Y-100011206D01*
X109494000Y-100000000D01*
X112571972Y-100000000D01*
X112639011Y-100019685D01*
G37*
%TD.AperFunction*%
%TD*%
%TA.AperFunction,Conductor*%
%TO.N,/Vin*%
G36*
X93494000Y-100255500D02*
G01*
X93494001Y-100255500D01*
X94875500Y-100255500D01*
X94942539Y-100275185D01*
X94988294Y-100327989D01*
X94999500Y-100379500D01*
X94999500Y-104692813D01*
X94979815Y-104759852D01*
X94936860Y-104800567D01*
X94905177Y-104818608D01*
X94905172Y-104818611D01*
X94852371Y-104864364D01*
X94820743Y-104897140D01*
X94774534Y-104985477D01*
X94774533Y-104985477D01*
X94754851Y-105052509D01*
X94754848Y-105052521D01*
X94744500Y-105124498D01*
X94744500Y-108376002D01*
X94750338Y-108430312D01*
X94758160Y-108466265D01*
X94761545Y-108481824D01*
X94765212Y-108495191D01*
X94768779Y-108508193D01*
X94768783Y-108508203D01*
X94818105Y-108594818D01*
X94818111Y-108594827D01*
X94818112Y-108594828D01*
X94863867Y-108647632D01*
X94896641Y-108679257D01*
X94984976Y-108725465D01*
X94984977Y-108725465D01*
X94984977Y-108725466D01*
X95035105Y-108740184D01*
X95052015Y-108745150D01*
X95052019Y-108745150D01*
X95052021Y-108745151D01*
X95063652Y-108746823D01*
X95124000Y-108755500D01*
X95124001Y-108755500D01*
X98921000Y-108755500D01*
X98938307Y-108753639D01*
X99007066Y-108766042D01*
X99039247Y-108789247D01*
X99040000Y-108790000D01*
X99262202Y-108790000D01*
X99268282Y-108790299D01*
X99270324Y-108790500D01*
X99270326Y-108790500D01*
X99611000Y-108790500D01*
X99678039Y-108810185D01*
X99723794Y-108862989D01*
X99735000Y-108914500D01*
X99735000Y-109370000D01*
X99876000Y-109370000D01*
X99943039Y-109389685D01*
X99988794Y-109442489D01*
X100000000Y-109494000D01*
X100000000Y-112571972D01*
X99980315Y-112639011D01*
X99927511Y-112684766D01*
X99872522Y-112695923D01*
X99359132Y-112681518D01*
X99216958Y-112673534D01*
X98649078Y-112625634D01*
X98507583Y-112609691D01*
X97943280Y-112530025D01*
X97802895Y-112506173D01*
X97243955Y-112394993D01*
X97105123Y-112363305D01*
X96553312Y-112220964D01*
X96416447Y-112181534D01*
X95873481Y-112008475D01*
X95739080Y-111961446D01*
X95206648Y-111758206D01*
X95173542Y-111744493D01*
X95075098Y-111703716D01*
X94554901Y-111470942D01*
X94426616Y-111409164D01*
X94250000Y-111317922D01*
X94250000Y-109120000D01*
X99040000Y-109120000D01*
X99040000Y-109144628D01*
X99054503Y-109217540D01*
X99054505Y-109217544D01*
X99109760Y-109300239D01*
X99192455Y-109355494D01*
X99192459Y-109355496D01*
X99265371Y-109369999D01*
X99265374Y-109370000D01*
X99404999Y-109370000D01*
X99405000Y-109120000D01*
X99040000Y-109120000D01*
X94250000Y-109120000D01*
X94250000Y-106750000D01*
X93916911Y-106750000D01*
X93881931Y-106634688D01*
X93825129Y-106528421D01*
X93603551Y-106750000D01*
X93315687Y-106750000D01*
X93238050Y-106672363D01*
X93238044Y-106672358D01*
X93225975Y-106666209D01*
X93215250Y-106660744D01*
X93164456Y-106612773D01*
X93147660Y-106544952D01*
X93170197Y-106478817D01*
X93183865Y-106462580D01*
X93471577Y-106174868D01*
X93365313Y-106118069D01*
X93186230Y-106063744D01*
X93000000Y-106045403D01*
X92891653Y-106056074D01*
X92823007Y-106043055D01*
X92772297Y-105994990D01*
X92755499Y-105932671D01*
X92755499Y-103657724D01*
X92755500Y-101079000D01*
X92753639Y-101061691D01*
X92766042Y-100992933D01*
X92789248Y-100960751D01*
X92790000Y-100959999D01*
X92790000Y-100737795D01*
X92790299Y-100731712D01*
X92790500Y-100729673D01*
X92790500Y-100595000D01*
X93120000Y-100595000D01*
X93120000Y-100960000D01*
X93144626Y-100960000D01*
X93144628Y-100959999D01*
X93217540Y-100945496D01*
X93217544Y-100945494D01*
X93300239Y-100890239D01*
X93355494Y-100807544D01*
X93355496Y-100807540D01*
X93369999Y-100734628D01*
X93370000Y-100734626D01*
X93370000Y-100595000D01*
X93120000Y-100595000D01*
X92790500Y-100595000D01*
X92790500Y-100389000D01*
X92810185Y-100321961D01*
X92862989Y-100276206D01*
X92914500Y-100265000D01*
X93386622Y-100265000D01*
X93411322Y-100251512D01*
X93455330Y-100249940D01*
X93494000Y-100255500D01*
G37*
%TD.AperFunction*%
%TD*%
M02*
