%TF.GenerationSoftware,KiCad,Pcbnew,7.0.7*%
%TF.CreationDate,2024-01-24T13:12:26-05:00*%
%TF.ProjectId,LED_board,4c45445f-626f-4617-9264-2e6b69636164,rev?*%
%TF.SameCoordinates,Original*%
%TF.FileFunction,Legend,Top*%
%TF.FilePolarity,Positive*%
%FSLAX46Y46*%
G04 Gerber Fmt 4.6, Leading zero omitted, Abs format (unit mm)*
G04 Created by KiCad (PCBNEW 7.0.7) date 2024-01-24 13:12:26*
%MOMM*%
%LPD*%
G01*
G04 APERTURE LIST*
%ADD10C,0.150000*%
%ADD11C,0.127000*%
%ADD12C,0.200000*%
G04 APERTURE END LIST*
D10*
X92193922Y-104369819D02*
X92527255Y-105369819D01*
X92527255Y-105369819D02*
X92860588Y-104369819D01*
X93193922Y-105369819D02*
X93193922Y-104703152D01*
X93193922Y-104369819D02*
X93146303Y-104417438D01*
X93146303Y-104417438D02*
X93193922Y-104465057D01*
X93193922Y-104465057D02*
X93241541Y-104417438D01*
X93241541Y-104417438D02*
X93193922Y-104369819D01*
X93193922Y-104369819D02*
X93193922Y-104465057D01*
X93670112Y-104703152D02*
X93670112Y-105369819D01*
X93670112Y-104798390D02*
X93717731Y-104750771D01*
X93717731Y-104750771D02*
X93812969Y-104703152D01*
X93812969Y-104703152D02*
X93955826Y-104703152D01*
X93955826Y-104703152D02*
X94051064Y-104750771D01*
X94051064Y-104750771D02*
X94098683Y-104846009D01*
X94098683Y-104846009D02*
X94098683Y-105369819D01*
X108110588Y-94167438D02*
X108015350Y-94119819D01*
X108015350Y-94119819D02*
X107872493Y-94119819D01*
X107872493Y-94119819D02*
X107729636Y-94167438D01*
X107729636Y-94167438D02*
X107634398Y-94262676D01*
X107634398Y-94262676D02*
X107586779Y-94357914D01*
X107586779Y-94357914D02*
X107539160Y-94548390D01*
X107539160Y-94548390D02*
X107539160Y-94691247D01*
X107539160Y-94691247D02*
X107586779Y-94881723D01*
X107586779Y-94881723D02*
X107634398Y-94976961D01*
X107634398Y-94976961D02*
X107729636Y-95072200D01*
X107729636Y-95072200D02*
X107872493Y-95119819D01*
X107872493Y-95119819D02*
X107967731Y-95119819D01*
X107967731Y-95119819D02*
X108110588Y-95072200D01*
X108110588Y-95072200D02*
X108158207Y-95024580D01*
X108158207Y-95024580D02*
X108158207Y-94691247D01*
X108158207Y-94691247D02*
X107967731Y-94691247D01*
X108586779Y-95119819D02*
X108586779Y-94119819D01*
X108586779Y-94119819D02*
X109158207Y-95119819D01*
X109158207Y-95119819D02*
X109158207Y-94119819D01*
X109634398Y-95119819D02*
X109634398Y-94119819D01*
X109634398Y-94119819D02*
X109872493Y-94119819D01*
X109872493Y-94119819D02*
X110015350Y-94167438D01*
X110015350Y-94167438D02*
X110110588Y-94262676D01*
X110110588Y-94262676D02*
X110158207Y-94357914D01*
X110158207Y-94357914D02*
X110205826Y-94548390D01*
X110205826Y-94548390D02*
X110205826Y-94691247D01*
X110205826Y-94691247D02*
X110158207Y-94881723D01*
X110158207Y-94881723D02*
X110110588Y-94976961D01*
X110110588Y-94976961D02*
X110015350Y-95072200D01*
X110015350Y-95072200D02*
X109872493Y-95119819D01*
X109872493Y-95119819D02*
X109634398Y-95119819D01*
D11*
%TO.C,D2*%
X101016000Y-93524000D02*
X98984000Y-93524000D01*
X101016000Y-90984000D02*
X101016000Y-93524000D01*
X98984000Y-93524000D02*
X98984000Y-90984000D01*
X98984000Y-90984000D02*
X101016000Y-90984000D01*
D12*
X101370000Y-94540000D02*
G75*
G03*
X101370000Y-94540000I-100000J0D01*
G01*
D11*
%TO.C,D4*%
X109524000Y-98984000D02*
X109524000Y-101016000D01*
X106984000Y-98984000D02*
X109524000Y-98984000D01*
X109524000Y-101016000D02*
X106984000Y-101016000D01*
X106984000Y-101016000D02*
X106984000Y-98984000D01*
D12*
X110640000Y-98730000D02*
G75*
G03*
X110640000Y-98730000I-100000J0D01*
G01*
D11*
%TO.C,D1*%
X93524000Y-98984000D02*
X93524000Y-101016000D01*
X90984000Y-98984000D02*
X93524000Y-98984000D01*
X93524000Y-101016000D02*
X90984000Y-101016000D01*
X90984000Y-101016000D02*
X90984000Y-98984000D01*
D12*
X94640000Y-98730000D02*
G75*
G03*
X94640000Y-98730000I-100000J0D01*
G01*
D11*
%TO.C,D3*%
X101016000Y-109524000D02*
X98984000Y-109524000D01*
X101016000Y-106984000D02*
X101016000Y-109524000D01*
X98984000Y-109524000D02*
X98984000Y-106984000D01*
X98984000Y-106984000D02*
X101016000Y-106984000D01*
D12*
X101370000Y-110540000D02*
G75*
G03*
X101370000Y-110540000I-100000J0D01*
G01*
%TD*%
M02*
