%TF.GenerationSoftware,KiCad,Pcbnew,7.0.7*%
%TF.CreationDate,2024-01-18T12:22:39-05:00*%
%TF.ProjectId,LED_board,4c45445f-626f-4617-9264-2e6b69636164,rev?*%
%TF.SameCoordinates,Original*%
%TF.FileFunction,Legend,Top*%
%TF.FilePolarity,Positive*%
%FSLAX46Y46*%
G04 Gerber Fmt 4.6, Leading zero omitted, Abs format (unit mm)*
G04 Created by KiCad (PCBNEW 7.0.7) date 2024-01-18 12:22:39*
%MOMM*%
%LPD*%
G01*
G04 APERTURE LIST*
%ADD10C,0.150000*%
%ADD11C,0.127000*%
%ADD12C,0.200000*%
G04 APERTURE END LIST*
D10*
X98791905Y-95142819D02*
X98791905Y-94142819D01*
X98791905Y-94142819D02*
X99030000Y-94142819D01*
X99030000Y-94142819D02*
X99172857Y-94190438D01*
X99172857Y-94190438D02*
X99268095Y-94285676D01*
X99268095Y-94285676D02*
X99315714Y-94380914D01*
X99315714Y-94380914D02*
X99363333Y-94571390D01*
X99363333Y-94571390D02*
X99363333Y-94714247D01*
X99363333Y-94714247D02*
X99315714Y-94904723D01*
X99315714Y-94904723D02*
X99268095Y-94999961D01*
X99268095Y-94999961D02*
X99172857Y-95095200D01*
X99172857Y-95095200D02*
X99030000Y-95142819D01*
X99030000Y-95142819D02*
X98791905Y-95142819D01*
X99744286Y-94238057D02*
X99791905Y-94190438D01*
X99791905Y-94190438D02*
X99887143Y-94142819D01*
X99887143Y-94142819D02*
X100125238Y-94142819D01*
X100125238Y-94142819D02*
X100220476Y-94190438D01*
X100220476Y-94190438D02*
X100268095Y-94238057D01*
X100268095Y-94238057D02*
X100315714Y-94333295D01*
X100315714Y-94333295D02*
X100315714Y-94428533D01*
X100315714Y-94428533D02*
X100268095Y-94571390D01*
X100268095Y-94571390D02*
X99696667Y-95142819D01*
X99696667Y-95142819D02*
X100315714Y-95142819D01*
X111142819Y-101208094D02*
X110142819Y-101208094D01*
X110142819Y-101208094D02*
X110142819Y-100969999D01*
X110142819Y-100969999D02*
X110190438Y-100827142D01*
X110190438Y-100827142D02*
X110285676Y-100731904D01*
X110285676Y-100731904D02*
X110380914Y-100684285D01*
X110380914Y-100684285D02*
X110571390Y-100636666D01*
X110571390Y-100636666D02*
X110714247Y-100636666D01*
X110714247Y-100636666D02*
X110904723Y-100684285D01*
X110904723Y-100684285D02*
X110999961Y-100731904D01*
X110999961Y-100731904D02*
X111095200Y-100827142D01*
X111095200Y-100827142D02*
X111142819Y-100969999D01*
X111142819Y-100969999D02*
X111142819Y-101208094D01*
X110476152Y-99779523D02*
X111142819Y-99779523D01*
X110095200Y-100017618D02*
X110809485Y-100255713D01*
X110809485Y-100255713D02*
X110809485Y-99636666D01*
X95142819Y-101208094D02*
X94142819Y-101208094D01*
X94142819Y-101208094D02*
X94142819Y-100969999D01*
X94142819Y-100969999D02*
X94190438Y-100827142D01*
X94190438Y-100827142D02*
X94285676Y-100731904D01*
X94285676Y-100731904D02*
X94380914Y-100684285D01*
X94380914Y-100684285D02*
X94571390Y-100636666D01*
X94571390Y-100636666D02*
X94714247Y-100636666D01*
X94714247Y-100636666D02*
X94904723Y-100684285D01*
X94904723Y-100684285D02*
X94999961Y-100731904D01*
X94999961Y-100731904D02*
X95095200Y-100827142D01*
X95095200Y-100827142D02*
X95142819Y-100969999D01*
X95142819Y-100969999D02*
X95142819Y-101208094D01*
X95142819Y-99684285D02*
X95142819Y-100255713D01*
X95142819Y-99969999D02*
X94142819Y-99969999D01*
X94142819Y-99969999D02*
X94285676Y-100065237D01*
X94285676Y-100065237D02*
X94380914Y-100160475D01*
X94380914Y-100160475D02*
X94428533Y-100255713D01*
X98791905Y-111142819D02*
X98791905Y-110142819D01*
X98791905Y-110142819D02*
X99030000Y-110142819D01*
X99030000Y-110142819D02*
X99172857Y-110190438D01*
X99172857Y-110190438D02*
X99268095Y-110285676D01*
X99268095Y-110285676D02*
X99315714Y-110380914D01*
X99315714Y-110380914D02*
X99363333Y-110571390D01*
X99363333Y-110571390D02*
X99363333Y-110714247D01*
X99363333Y-110714247D02*
X99315714Y-110904723D01*
X99315714Y-110904723D02*
X99268095Y-110999961D01*
X99268095Y-110999961D02*
X99172857Y-111095200D01*
X99172857Y-111095200D02*
X99030000Y-111142819D01*
X99030000Y-111142819D02*
X98791905Y-111142819D01*
X99696667Y-110142819D02*
X100315714Y-110142819D01*
X100315714Y-110142819D02*
X99982381Y-110523771D01*
X99982381Y-110523771D02*
X100125238Y-110523771D01*
X100125238Y-110523771D02*
X100220476Y-110571390D01*
X100220476Y-110571390D02*
X100268095Y-110619009D01*
X100268095Y-110619009D02*
X100315714Y-110714247D01*
X100315714Y-110714247D02*
X100315714Y-110952342D01*
X100315714Y-110952342D02*
X100268095Y-111047580D01*
X100268095Y-111047580D02*
X100220476Y-111095200D01*
X100220476Y-111095200D02*
X100125238Y-111142819D01*
X100125238Y-111142819D02*
X99839524Y-111142819D01*
X99839524Y-111142819D02*
X99744286Y-111095200D01*
X99744286Y-111095200D02*
X99696667Y-111047580D01*
D11*
%TO.C,D2*%
X101016000Y-93524000D02*
X98984000Y-93524000D01*
X101016000Y-90984000D02*
X101016000Y-93524000D01*
X98984000Y-93524000D02*
X98984000Y-90984000D01*
X98984000Y-90984000D02*
X101016000Y-90984000D01*
D12*
X101370000Y-94540000D02*
G75*
G03*
X101370000Y-94540000I-100000J0D01*
G01*
D11*
%TO.C,D4*%
X109524000Y-98984000D02*
X109524000Y-101016000D01*
X106984000Y-98984000D02*
X109524000Y-98984000D01*
X109524000Y-101016000D02*
X106984000Y-101016000D01*
X106984000Y-101016000D02*
X106984000Y-98984000D01*
D12*
X110640000Y-98730000D02*
G75*
G03*
X110640000Y-98730000I-100000J0D01*
G01*
D11*
%TO.C,D1*%
X93524000Y-98984000D02*
X93524000Y-101016000D01*
X90984000Y-98984000D02*
X93524000Y-98984000D01*
X93524000Y-101016000D02*
X90984000Y-101016000D01*
X90984000Y-101016000D02*
X90984000Y-98984000D01*
D12*
X94640000Y-98730000D02*
G75*
G03*
X94640000Y-98730000I-100000J0D01*
G01*
D11*
%TO.C,D3*%
X101016000Y-109524000D02*
X98984000Y-109524000D01*
X101016000Y-106984000D02*
X101016000Y-109524000D01*
X98984000Y-109524000D02*
X98984000Y-106984000D01*
X98984000Y-106984000D02*
X101016000Y-106984000D01*
D12*
X101370000Y-110540000D02*
G75*
G03*
X101370000Y-110540000I-100000J0D01*
G01*
%TD*%
M02*
