%TF.GenerationSoftware,KiCad,Pcbnew,7.0.7*%
%TF.CreationDate,2024-01-24T13:12:26-05:00*%
%TF.ProjectId,LED_board,4c45445f-626f-4617-9264-2e6b69636164,rev?*%
%TF.SameCoordinates,Original*%
%TF.FileFunction,Copper,L2,Bot*%
%TF.FilePolarity,Positive*%
%FSLAX46Y46*%
G04 Gerber Fmt 4.6, Leading zero omitted, Abs format (unit mm)*
G04 Created by KiCad (PCBNEW 7.0.7) date 2024-01-24 13:12:26*
%MOMM*%
%LPD*%
G01*
G04 APERTURE LIST*
%TA.AperFunction,ComponentPad*%
%ADD10C,1.400000*%
%TD*%
%TA.AperFunction,ViaPad*%
%ADD11C,0.800000*%
%TD*%
G04 APERTURE END LIST*
D10*
%TO.P,J1,1,Pin_1*%
%TO.N,/Vin*%
X93000000Y-107000000D03*
%TD*%
%TO.P,J2,1,Pin_1*%
%TO.N,/GND*%
X107000000Y-93000000D03*
%TD*%
D11*
%TO.N,unconnected-(D1-EXP-Pad3)*%
X91500000Y-98000000D03*
X91500000Y-102000000D03*
X90000000Y-100000000D03*
X91500000Y-96000000D03*
X90000000Y-104000000D03*
X90000000Y-96000000D03*
X91500000Y-104000000D03*
X90000000Y-98000000D03*
X90000000Y-102000000D03*
%TO.N,unconnected-(D2-EXP-Pad3)*%
X96500000Y-90000000D03*
X95000000Y-90000000D03*
X102000000Y-90000000D03*
X96500000Y-92000000D03*
X105000000Y-92000000D03*
X103500000Y-92000000D03*
X105000000Y-90000000D03*
X103500000Y-90000000D03*
X98000000Y-90000000D03*
X95000000Y-92000000D03*
X98000000Y-92000000D03*
X102000000Y-92000000D03*
X100000000Y-90000000D03*
%TO.N,unconnected-(D3-EXP-Pad3)*%
X104000000Y-106000000D03*
X102000000Y-106000000D03*
X104000000Y-107500000D03*
X96000000Y-106000000D03*
X100000000Y-106000000D03*
X96000000Y-107500000D03*
X98000000Y-107500000D03*
X102000000Y-107500000D03*
X98000000Y-106000000D03*
%TO.N,unconnected-(D4-EXP-Pad3)*%
X106000000Y-98000000D03*
X106000000Y-102000000D03*
X108000000Y-96500000D03*
X108000000Y-103500000D03*
X106000000Y-100000000D03*
X108000000Y-98000000D03*
X106000000Y-96500000D03*
X108000000Y-102000000D03*
X106000000Y-103500000D03*
%TD*%
%TA.AperFunction,Conductor*%
%TO.N,unconnected-(D2-EXP-Pad3)*%
G36*
X100640890Y-87318481D02*
G01*
X100783014Y-87326463D01*
X101350925Y-87374365D01*
X101492386Y-87390303D01*
X102056725Y-87469975D01*
X102197090Y-87493824D01*
X102756065Y-87605011D01*
X102894849Y-87636687D01*
X103409401Y-87769417D01*
X103446687Y-87779035D01*
X103583549Y-87818464D01*
X104126516Y-87991524D01*
X104260898Y-88038545D01*
X104793347Y-88241792D01*
X104924887Y-88296277D01*
X105247488Y-88440631D01*
X105445098Y-88529057D01*
X105573378Y-88590832D01*
X106079725Y-88852417D01*
X106204330Y-88921285D01*
X106695206Y-89210845D01*
X106769218Y-89257350D01*
X106815761Y-89286596D01*
X106953029Y-89378315D01*
X107289631Y-89603225D01*
X107405739Y-89685609D01*
X107861098Y-90028301D01*
X107898054Y-90057773D01*
X107972441Y-90117096D01*
X108407838Y-90484755D01*
X108514032Y-90579656D01*
X108701497Y-90756888D01*
X108736689Y-90817247D01*
X108733662Y-90887052D01*
X108703991Y-90934675D01*
X107574152Y-92064515D01*
X107574153Y-92064514D01*
X107546903Y-92096682D01*
X107546234Y-92097540D01*
X107489502Y-92138322D01*
X107419727Y-92141958D01*
X107389971Y-92130683D01*
X107365500Y-92117603D01*
X107186333Y-92063253D01*
X107186331Y-92063252D01*
X107000000Y-92044901D01*
X106813668Y-92063252D01*
X106813666Y-92063253D01*
X106634497Y-92117604D01*
X106469376Y-92205862D01*
X106469373Y-92205864D01*
X106324642Y-92324642D01*
X106205864Y-92469373D01*
X106205862Y-92469376D01*
X106117604Y-92634497D01*
X106063253Y-92813666D01*
X106063252Y-92813668D01*
X106044901Y-93000000D01*
X106063252Y-93186331D01*
X106063253Y-93186333D01*
X106117603Y-93365500D01*
X106131892Y-93392233D01*
X106146133Y-93460636D01*
X106121132Y-93525879D01*
X106096844Y-93549952D01*
X106064515Y-93574153D01*
X106064503Y-93574163D01*
X104851308Y-94787359D01*
X104851308Y-94787358D01*
X104842158Y-94797546D01*
X104842157Y-94797547D01*
X104821237Y-94823508D01*
X104821235Y-94823511D01*
X104775031Y-94911842D01*
X104772750Y-94917491D01*
X104771289Y-94916901D01*
X104737668Y-94969215D01*
X104674112Y-94998238D01*
X104656468Y-94999500D01*
X95050862Y-94999500D01*
X94983823Y-94979815D01*
X94963181Y-94963181D01*
X91110272Y-91110272D01*
X91076787Y-91048949D01*
X91081771Y-90979257D01*
X91112763Y-90932488D01*
X91485977Y-90579646D01*
X91592151Y-90484764D01*
X92027558Y-90117096D01*
X92052828Y-90096943D01*
X92138896Y-90028305D01*
X92594281Y-89685593D01*
X92710359Y-89603231D01*
X93184243Y-89286592D01*
X93304778Y-89210854D01*
X93795697Y-88921268D01*
X93920252Y-88852429D01*
X94426639Y-88590823D01*
X94554901Y-88529057D01*
X94592852Y-88512074D01*
X95075136Y-88296266D01*
X95206639Y-88241797D01*
X95739118Y-88038539D01*
X95873455Y-87991532D01*
X96416484Y-87818453D01*
X96553296Y-87779039D01*
X97105152Y-87636686D01*
X97243947Y-87605008D01*
X97802922Y-87493821D01*
X97943263Y-87469976D01*
X98507602Y-87390305D01*
X98649047Y-87374368D01*
X99216993Y-87326462D01*
X99359109Y-87318481D01*
X99928790Y-87302498D01*
X100071210Y-87302498D01*
X100640890Y-87318481D01*
G37*
%TD.AperFunction*%
%TD*%
%TA.AperFunction,Conductor*%
%TO.N,unconnected-(D1-EXP-Pad3)*%
G36*
X90887052Y-91266338D02*
G01*
X90934675Y-91296008D01*
X91940305Y-92301637D01*
X94787354Y-95148686D01*
X94787361Y-95148692D01*
X94787359Y-95148691D01*
X94797544Y-95157839D01*
X94797545Y-95157840D01*
X94823503Y-95178757D01*
X94823507Y-95178760D01*
X94911838Y-95224965D01*
X94911840Y-95224965D01*
X94911843Y-95224967D01*
X94917489Y-95227247D01*
X94916898Y-95228708D01*
X94969208Y-95262322D01*
X94998237Y-95325876D01*
X94999500Y-95343530D01*
X94999500Y-104657465D01*
X94979815Y-104724504D01*
X94927011Y-104770259D01*
X94912557Y-104775798D01*
X94902062Y-104779084D01*
X94902059Y-104779085D01*
X94840730Y-104812573D01*
X94782524Y-104856144D01*
X94782509Y-104856157D01*
X93574153Y-106064514D01*
X93546903Y-106096682D01*
X93546234Y-106097540D01*
X93489502Y-106138322D01*
X93419727Y-106141958D01*
X93389971Y-106130683D01*
X93365500Y-106117603D01*
X93186333Y-106063253D01*
X93186331Y-106063252D01*
X93000000Y-106044901D01*
X92813668Y-106063252D01*
X92813666Y-106063253D01*
X92634497Y-106117604D01*
X92469376Y-106205862D01*
X92469373Y-106205864D01*
X92324642Y-106324642D01*
X92205864Y-106469373D01*
X92205862Y-106469376D01*
X92117604Y-106634497D01*
X92063253Y-106813666D01*
X92063252Y-106813668D01*
X92044901Y-107000000D01*
X92063252Y-107186331D01*
X92063253Y-107186333D01*
X92117603Y-107365500D01*
X92131892Y-107392233D01*
X92146133Y-107460636D01*
X92121132Y-107525879D01*
X92096844Y-107549952D01*
X92064515Y-107574153D01*
X92064503Y-107574163D01*
X90934675Y-108703990D01*
X90873352Y-108737475D01*
X90803660Y-108732491D01*
X90756888Y-108701497D01*
X90579657Y-108514034D01*
X90484755Y-108407838D01*
X90117096Y-107972441D01*
X90057773Y-107898054D01*
X90028301Y-107861098D01*
X89685609Y-107405739D01*
X89603215Y-107289616D01*
X89534202Y-107186331D01*
X89286596Y-106815761D01*
X89257350Y-106769218D01*
X89210845Y-106695206D01*
X88921285Y-106204330D01*
X88886813Y-106141958D01*
X88852417Y-106079725D01*
X88590832Y-105573378D01*
X88529057Y-105445098D01*
X88440631Y-105247488D01*
X88296277Y-104924887D01*
X88241787Y-104793335D01*
X88236348Y-104779086D01*
X88038545Y-104260898D01*
X87991524Y-104126516D01*
X87818464Y-103583549D01*
X87779035Y-103446687D01*
X87636694Y-102894876D01*
X87605011Y-102756065D01*
X87493824Y-102197090D01*
X87469975Y-102056725D01*
X87390307Y-101492409D01*
X87374365Y-101350925D01*
X87326463Y-100783014D01*
X87318481Y-100640890D01*
X87302498Y-100071210D01*
X87302498Y-99928789D01*
X87318481Y-99359132D01*
X87326462Y-99216993D01*
X87374368Y-98649047D01*
X87390305Y-98507602D01*
X87469976Y-97943263D01*
X87493821Y-97802922D01*
X87605008Y-97243947D01*
X87636686Y-97105152D01*
X87779036Y-96553305D01*
X87818465Y-96416447D01*
X87991532Y-95873455D01*
X88038539Y-95739118D01*
X88241797Y-95206639D01*
X88296266Y-95075136D01*
X88529057Y-94554901D01*
X88543772Y-94524343D01*
X88590823Y-94426639D01*
X88852429Y-93920252D01*
X88921268Y-93795697D01*
X89210854Y-93304778D01*
X89286590Y-93184247D01*
X89603231Y-92710359D01*
X89685593Y-92594281D01*
X90028305Y-92138896D01*
X90117096Y-92027558D01*
X90205841Y-91922462D01*
X90484764Y-91592151D01*
X90579644Y-91485979D01*
X90756888Y-91298501D01*
X90817248Y-91263310D01*
X90887052Y-91266338D01*
G37*
%TD.AperFunction*%
%TD*%
%TA.AperFunction,Conductor*%
%TO.N,unconnected-(D3-EXP-Pad3)*%
G36*
X105016177Y-105020185D02*
G01*
X105036819Y-105036819D01*
X108889726Y-108889726D01*
X108923211Y-108951049D01*
X108918227Y-109020741D01*
X108887233Y-109067513D01*
X108514033Y-109420343D01*
X108407838Y-109515244D01*
X107972441Y-109882903D01*
X107861088Y-109971706D01*
X107405742Y-110314388D01*
X107289616Y-110396784D01*
X106815761Y-110713403D01*
X106695198Y-110789159D01*
X106204334Y-111078712D01*
X106079708Y-111147591D01*
X105573383Y-111409164D01*
X105445098Y-111470942D01*
X104924893Y-111703720D01*
X104793351Y-111758206D01*
X104260919Y-111961446D01*
X104126518Y-112008475D01*
X103583552Y-112181534D01*
X103446687Y-112220964D01*
X102894876Y-112363305D01*
X102756044Y-112394993D01*
X102197104Y-112506173D01*
X102056719Y-112530025D01*
X101492416Y-112609691D01*
X101350921Y-112625634D01*
X100783041Y-112673534D01*
X100640867Y-112681518D01*
X100071210Y-112697502D01*
X99928790Y-112697502D01*
X99359132Y-112681518D01*
X99216958Y-112673534D01*
X98649078Y-112625634D01*
X98507583Y-112609691D01*
X97943280Y-112530025D01*
X97802895Y-112506173D01*
X97243955Y-112394993D01*
X97105123Y-112363305D01*
X96553312Y-112220964D01*
X96416447Y-112181534D01*
X95873481Y-112008475D01*
X95739080Y-111961446D01*
X95206648Y-111758206D01*
X95173542Y-111744493D01*
X95075098Y-111703716D01*
X94554901Y-111470942D01*
X94426616Y-111409164D01*
X93920300Y-111147595D01*
X93857978Y-111113151D01*
X93795665Y-111078712D01*
X93304809Y-110789163D01*
X93270566Y-110767647D01*
X93184238Y-110713403D01*
X92710383Y-110396784D01*
X92594257Y-110314388D01*
X92138911Y-109971706D01*
X92027558Y-109882903D01*
X91592161Y-109515244D01*
X91485966Y-109420343D01*
X91112766Y-109067514D01*
X91077574Y-109007154D01*
X91080602Y-108937350D01*
X91110270Y-108889729D01*
X92245175Y-107754824D01*
X92306496Y-107721341D01*
X92376188Y-107726325D01*
X92411518Y-107746654D01*
X92439128Y-107769313D01*
X92469372Y-107794134D01*
X92469376Y-107794137D01*
X92634497Y-107882395D01*
X92634499Y-107882396D01*
X92813666Y-107936746D01*
X92813668Y-107936747D01*
X92830374Y-107938392D01*
X93000000Y-107955099D01*
X93186331Y-107936747D01*
X93365501Y-107882396D01*
X93530625Y-107794136D01*
X93675357Y-107675357D01*
X93794136Y-107530625D01*
X93882396Y-107365501D01*
X93936747Y-107186331D01*
X93955099Y-107000000D01*
X93936747Y-106813669D01*
X93882396Y-106634499D01*
X93794136Y-106469375D01*
X93746654Y-106411518D01*
X93719341Y-106347210D01*
X93731131Y-106278343D01*
X93754823Y-106245176D01*
X94963181Y-105036818D01*
X95024504Y-105003334D01*
X95050862Y-105000500D01*
X104949138Y-105000500D01*
X105016177Y-105020185D01*
G37*
%TD.AperFunction*%
%TD*%
%TA.AperFunction,Conductor*%
%TO.N,unconnected-(D4-EXP-Pad3)*%
G36*
X109020742Y-91081771D02*
G01*
X109067514Y-91112766D01*
X109420343Y-91485966D01*
X109515244Y-91592161D01*
X109882903Y-92027558D01*
X109971699Y-92138902D01*
X110176865Y-92411520D01*
X110314388Y-92594257D01*
X110396784Y-92710383D01*
X110713403Y-93184238D01*
X110789154Y-93304794D01*
X110920414Y-93527312D01*
X111078712Y-93795665D01*
X111147586Y-93920282D01*
X111165573Y-93955099D01*
X111409164Y-94426616D01*
X111470942Y-94554901D01*
X111703720Y-95075106D01*
X111758206Y-95206648D01*
X111961446Y-95739080D01*
X112008475Y-95873481D01*
X112181534Y-96416447D01*
X112220964Y-96553312D01*
X112363305Y-97105123D01*
X112394993Y-97243955D01*
X112506173Y-97802895D01*
X112530025Y-97943280D01*
X112609691Y-98507583D01*
X112625634Y-98649078D01*
X112673534Y-99216958D01*
X112681518Y-99359132D01*
X112699451Y-99998260D01*
X112699451Y-100001738D01*
X112681518Y-100640867D01*
X112673534Y-100783041D01*
X112625634Y-101350921D01*
X112609691Y-101492416D01*
X112530025Y-102056719D01*
X112506173Y-102197104D01*
X112394993Y-102756044D01*
X112363305Y-102894876D01*
X112220964Y-103446687D01*
X112181534Y-103583552D01*
X112008475Y-104126518D01*
X111961446Y-104260919D01*
X111758206Y-104793351D01*
X111703720Y-104924893D01*
X111470942Y-105445098D01*
X111409164Y-105573383D01*
X111147591Y-106079708D01*
X111078712Y-106204334D01*
X110789159Y-106695198D01*
X110713403Y-106815761D01*
X110396784Y-107289616D01*
X110314388Y-107405742D01*
X109971706Y-107861088D01*
X109882903Y-107972441D01*
X109515244Y-108407838D01*
X109420346Y-108514029D01*
X109243110Y-108701497D01*
X109182750Y-108736688D01*
X109112946Y-108733660D01*
X109065323Y-108703990D01*
X106425842Y-106064510D01*
X105212646Y-104851314D01*
X105212639Y-104851308D01*
X105212641Y-104851309D01*
X105202456Y-104842161D01*
X105202455Y-104842160D01*
X105176496Y-104821242D01*
X105176494Y-104821241D01*
X105176493Y-104821240D01*
X105088162Y-104775035D01*
X105088161Y-104775034D01*
X105088156Y-104775032D01*
X105082511Y-104772753D01*
X105083099Y-104771294D01*
X105030779Y-104737664D01*
X105001760Y-104674105D01*
X105000499Y-104656482D01*
X105000499Y-95050861D01*
X105020184Y-94983823D01*
X105036813Y-94963186D01*
X106245175Y-93754824D01*
X106306496Y-93721341D01*
X106376188Y-93726325D01*
X106411518Y-93746654D01*
X106439128Y-93769313D01*
X106469372Y-93794134D01*
X106469376Y-93794137D01*
X106634497Y-93882395D01*
X106634499Y-93882396D01*
X106813666Y-93936746D01*
X106813668Y-93936747D01*
X106830374Y-93938392D01*
X107000000Y-93955099D01*
X107186331Y-93936747D01*
X107365501Y-93882396D01*
X107530625Y-93794136D01*
X107675357Y-93675357D01*
X107794136Y-93530625D01*
X107882396Y-93365501D01*
X107936747Y-93186331D01*
X107955099Y-93000000D01*
X107936747Y-92813669D01*
X107882396Y-92634499D01*
X107870742Y-92612696D01*
X107794137Y-92469376D01*
X107794134Y-92469372D01*
X107746655Y-92411520D01*
X107719341Y-92347210D01*
X107731131Y-92278343D01*
X107754823Y-92245176D01*
X108889729Y-91110270D01*
X108951050Y-91076787D01*
X109020742Y-91081771D01*
G37*
%TD.AperFunction*%
%TD*%
M02*
