%TF.GenerationSoftware,KiCad,Pcbnew,7.0.7*%
%TF.CreationDate,2024-01-18T12:22:39-05:00*%
%TF.ProjectId,LED_board,4c45445f-626f-4617-9264-2e6b69636164,rev?*%
%TF.SameCoordinates,Original*%
%TF.FileFunction,Paste,Top*%
%TF.FilePolarity,Positive*%
%FSLAX46Y46*%
G04 Gerber Fmt 4.6, Leading zero omitted, Abs format (unit mm)*
G04 Created by KiCad (PCBNEW 7.0.7) date 2024-01-18 12:22:39*
%MOMM*%
%LPD*%
G01*
G04 APERTURE LIST*
%ADD10C,0.010000*%
%ADD11R,0.560000X0.330000*%
%ADD12R,0.330000X0.560000*%
G04 APERTURE END LIST*
%TO.C,D2*%
D10*
X100315000Y-92850000D02*
X99685000Y-92850000D01*
X99685000Y-91150000D01*
X100315000Y-91150000D01*
X100315000Y-92850000D01*
G36*
X100315000Y-92850000D02*
G01*
X99685000Y-92850000D01*
X99685000Y-91150000D01*
X100315000Y-91150000D01*
X100315000Y-92850000D01*
G37*
%TO.C,D4*%
X108850000Y-100315000D02*
X107150000Y-100315000D01*
X107150000Y-99685000D01*
X108850000Y-99685000D01*
X108850000Y-100315000D01*
G36*
X108850000Y-100315000D02*
G01*
X107150000Y-100315000D01*
X107150000Y-99685000D01*
X108850000Y-99685000D01*
X108850000Y-100315000D01*
G37*
%TO.C,D1*%
X92850000Y-100315000D02*
X91150000Y-100315000D01*
X91150000Y-99685000D01*
X92850000Y-99685000D01*
X92850000Y-100315000D01*
G36*
X92850000Y-100315000D02*
G01*
X91150000Y-100315000D01*
X91150000Y-99685000D01*
X92850000Y-99685000D01*
X92850000Y-100315000D01*
G37*
%TO.C,D3*%
X100315000Y-108850000D02*
X99685000Y-108850000D01*
X99685000Y-107150000D01*
X100315000Y-107150000D01*
X100315000Y-108850000D01*
G36*
X100315000Y-108850000D02*
G01*
X99685000Y-108850000D01*
X99685000Y-107150000D01*
X100315000Y-107150000D01*
X100315000Y-108850000D01*
G37*
%TD*%
D11*
%TO.C,D2*%
X100430000Y-92955000D03*
X99570000Y-92955000D03*
%TD*%
D12*
%TO.C,D4*%
X108955000Y-99570000D03*
X108955000Y-100430000D03*
%TD*%
%TO.C,D1*%
X92955000Y-99570000D03*
X92955000Y-100430000D03*
%TD*%
D11*
%TO.C,D3*%
X100430000Y-108955000D03*
X99570000Y-108955000D03*
%TD*%
M02*
